<svg width="32" height="32" viewBox="0 0 32 32" fill="none" xmlns="http://www.w3.org/2000/svg">
<g clip-path="url(#clip0_17_1409)">
<path d="M16 32C24.8366 32 32 24.8366 32 16C32 7.16344 24.8366 0 16 0C7.16344 0 0 7.16344 0 16C0 24.8366 7.16344 32 16 32Z" fill="#4487DA"/>
<path d="M2.57545 16C2.57545 7.597 9.05342 0.707541 17.2877 0.0517022C16.8629 0.017835 16.4336 0 16 0C7.16344 0 0 7.16344 0 16C0 24.8366 7.16344 32 16 32C16.4335 32 16.8629 31.9822 17.2877 31.9483C9.05342 31.2925 2.57545 24.403 2.57545 16Z" fill="#006AD0"/>
<path d="M24.048 17.7706H17.4487V11.1713C17.4487 10.6597 17.034 10.245 16.5224 10.245H15.4776C14.966 10.245 14.5513 10.6597 14.5513 11.1713V17.7706H7.95197C7.44035 17.7706 7.02564 18.1853 7.02564 18.6969V19.7417C7.02564 20.2533 7.44035 20.668 7.95197 20.668H14.5513V27.2673C14.5513 27.779 14.966 28.1937 15.4776 28.1937H16.5224C17.034 28.1937 17.4487 27.779 17.4487 27.2673V20.668H24.048C24.5596 20.668 24.9744 20.2533 24.9744 19.7417V18.6969C24.9744 18.1853 24.5596 17.7706 24.048 17.7706Z" fill="white"/>
<path d="M9.44451 9.51842C10.7804 9.51842 11.8634 8.65601 11.8634 7.59218C11.8634 6.52834 10.7804 5.66593 9.44451 5.66593C8.10861 5.66593 7.02564 6.52834 7.02564 7.59218C7.02564 8.65601 8.10861 9.51842 9.44451 9.51842Z" fill="#FF97C1"/>
<path d="M22.5555 9.51842C23.8914 9.51842 24.9744 8.65601 24.9744 7.59218C24.9744 6.52834 23.8914 5.66593 22.5555 5.66593C21.2196 5.66593 20.1366 6.52834 20.1366 7.59218C20.1366 8.65601 21.2196 9.51842 22.5555 9.51842Z" fill="#FF97C1"/>
<path d="M10.8542 6.22081C10.5874 6.22081 10.3713 6.0046 10.3713 5.73792V4.74914C10.3713 4.48245 10.5874 4.26624 10.8542 4.26624C11.1209 4.26624 11.3371 4.48245 11.3371 4.74914V5.73792C11.3371 6.0046 11.1209 6.22081 10.8542 6.22081Z" fill="#423E4F"/>
<path d="M21.1458 6.22081C20.879 6.22081 20.6629 6.0046 20.6629 5.73792V4.74914C20.6629 4.48245 20.879 4.26624 21.1458 4.26624C21.4125 4.26624 21.6287 4.48245 21.6287 4.74914V5.73792C21.6287 6.0046 21.4125 6.22081 21.1458 6.22081Z" fill="#423E4F"/>
<path d="M16 6.80943C15.3406 6.80943 14.7134 6.52382 14.2793 6.02579C14.104 5.82471 14.1249 5.51971 14.326 5.34445C14.527 5.16926 14.832 5.19012 15.0073 5.3912C15.2579 5.67875 15.6198 5.84364 16 5.84364C16.3802 5.84364 16.742 5.67875 16.9926 5.3912C17.1678 5.19012 17.4729 5.16919 17.6739 5.34439C17.8749 5.51958 17.8959 5.82464 17.7207 6.02572C17.2867 6.52382 16.6596 6.80943 16 6.80943Z" fill="#423E4F"/>
</g>
<defs>
<clipPath id="clip0_17_1409">
<rect width="32" height="32" fill="white"/>
</clipPath>
</defs>
</svg>
