<svg width="32" height="32" viewBox="0 0 32 32" fill="none" xmlns="http://www.w3.org/2000/svg">
<path d="M8.90533 14.5437C9.41874 14.6744 9.95663 14.7438 10.5107 14.7438L17.8548 17.4955L25.7411 14.7438C26.9222 14.7438 27.8822 13.7976 27.9047 12.622C27.9279 11.4088 26.9118 10.4159 25.6984 10.4159H20.8523C23.2425 10.4159 25.1802 8.47815 25.1802 6.08793C25.1802 3.69765 23.2425 1.76001 20.8523 1.76001H12.8827L9.39125 2.68003L5.92102 11.211L8.90533 14.5437Z" fill="#FF6E80"/>
<path d="M8.87519 13.4763C8.87519 9.06181 10.3712 4.99729 12.8827 1.76001L10.5107 1.75995C6.92532 1.75995 4.01879 4.66648 4.01879 8.25183C4.01879 11.2831 6.09641 13.8292 8.90533 14.5437C8.88595 14.1904 8.87519 13.8345 8.87519 13.4763Z" fill="#F9475E"/>
<path d="M18.7826 30.2401H22.7668L24.1848 29.6985L25.5654 30.2401H30.5623C31.3563 30.2401 32 29.5964 32 28.8024V18.9636C32 16.6331 30.1107 14.7438 27.7801 14.7438H8.91801L6.70673 16.7404L8.45076 24.2471L13.7249 29.3624L18.7826 30.2401Z" fill="#4A66A0"/>
<path d="M8.91801 14.7438H4.21988C1.88929 14.7438 0 16.6331 0 18.9636V28.8024C0 29.5964 0.64367 30.2401 1.43768 30.2401H4.86497L6.70674 29.5261L8.64129 30.2401H18.7826C13.225 27.1755 9.35539 21.4284 8.91801 14.7438Z" fill="#2A4F95"/>
<path d="M26.5167 17.6104C27.2369 17.2318 28.0786 17.8433 27.9411 18.6452C27.8865 18.9636 27.992 19.2885 28.2234 19.5141C28.806 20.082 28.4846 21.0715 27.6793 21.1885C27.3596 21.235 27.0832 21.4358 26.9402 21.7255C26.5801 22.4551 25.5397 22.4551 25.1796 21.7255C25.0366 21.4358 24.7602 21.2349 24.4405 21.1885C23.6353 21.0715 23.3138 20.082 23.8964 19.5141C24.1277 19.2885 24.2333 18.9636 24.1787 18.6452C24.0412 17.8433 24.8829 17.2317 25.6031 17.6104C25.8891 17.7607 26.2307 17.7607 26.5167 17.6104Z" fill="#F8EA69"/>
<path d="M8.63169 29.8996C8.56801 29.5828 8.66433 29.255 8.88917 29.023C9.45538 28.4387 9.10583 27.4588 8.29765 27.3648C7.97675 27.3275 7.69474 27.1347 7.54356 26.8491C7.16284 26.13 6.12287 26.1597 5.78369 26.8993C5.64899 27.1929 5.37844 27.4015 5.06018 27.4571C4.25863 27.597 3.96548 28.5952 4.56402 29.1463C4.80173 29.3652 4.91647 29.687 4.87094 30.0069C4.85955 30.0871 4.85814 30.1649 4.86497 30.2401H8.64129C8.65713 30.1318 8.65544 30.0176 8.63169 29.8996Z" fill="#F9D171"/>
<path d="M5.55331 19.8614C5.08361 19.212 4.92271 18.4335 5.04195 17.7005C5.10711 17.3001 4.69034 17.0019 4.33467 17.1969C4.17454 17.2847 4.02002 17.3893 3.87334 17.5109C2.74079 18.4502 2.4985 20.1168 3.31479 21.3409C4.23127 22.7152 6.09628 23.0423 7.42245 22.0831C7.52276 22.0105 7.61696 21.9328 7.70504 21.8504C7.99993 21.5746 7.84392 21.0869 7.44517 21.0236C6.71175 20.9073 6.02294 20.5107 5.55331 19.8614Z" fill="#FFEAB7"/>
<path d="M25.7698 30.1164C27.1442 29.1999 27.4712 27.3349 26.512 26.0087C26.4395 25.9084 26.3617 25.8142 26.2793 25.7261C26.0036 25.4313 25.5158 25.5873 25.4525 25.986C25.3362 26.7195 24.9396 27.4083 24.2903 27.8779C23.6409 28.3476 22.8624 28.5085 22.1294 28.3893C21.729 28.3241 21.4308 28.7409 21.6258 29.0966C21.7136 29.2567 21.8182 29.4112 21.9398 29.5579C22.1757 29.8424 22.4576 30.0706 22.7668 30.2401H25.5654C25.6347 30.2018 25.703 30.161 25.7698 30.1164Z" fill="#FFF8E6"/>
<path d="M10.8776 24.9992C11.9215 24.9992 12.7677 24.3253 12.7677 23.494C12.7677 22.6627 11.9215 21.9888 10.8776 21.9888C9.83376 21.9888 8.98755 22.6627 8.98755 23.494C8.98755 24.3253 9.83376 24.9992 10.8776 24.9992Z" fill="#FFA1AC"/>
<path d="M21.1224 24.9992C22.1662 24.9992 23.0124 24.3253 23.0124 23.494C23.0124 22.6627 22.1662 21.9888 21.1224 21.9888C20.0785 21.9888 19.2323 22.6627 19.2323 23.494C19.2323 24.3253 20.0785 24.9992 21.1224 24.9992Z" fill="#FFA1AC"/>
<path d="M11.9791 22.5279C11.7124 22.5279 11.4962 22.3118 11.4962 22.0451V21.2724C11.4962 21.0057 11.7124 20.7895 11.9791 20.7895C12.2458 20.7895 12.462 21.0057 12.462 21.2724V22.0451C12.462 22.3118 12.2458 22.5279 11.9791 22.5279Z" fill="#303646"/>
<path d="M20.0209 22.5279C19.7542 22.5279 19.538 22.3118 19.538 22.0451V21.2724C19.538 21.0057 19.7542 20.7895 20.0209 20.7895C20.2875 20.7895 20.5037 21.0057 20.5037 21.2724V22.0451C20.5037 22.3118 20.2875 22.5279 20.0209 22.5279Z" fill="#303646"/>
<path d="M16 22.9879C15.4542 22.9879 14.9351 22.7516 14.5759 22.3394C14.4006 22.1384 14.4216 21.8334 14.6226 21.6582C14.8237 21.4828 15.1287 21.5038 15.304 21.7049C15.4797 21.9066 15.7334 22.0222 16.0001 22.0222C16.2667 22.0222 16.5204 21.9066 16.6961 21.7049C16.8714 21.5039 17.1764 21.483 17.3775 21.6582C17.5786 21.8333 17.5994 22.1384 17.4242 22.3394C17.0649 22.7516 16.5458 22.9879 16 22.9879Z" fill="#303646"/>
<path d="M22.2865 10.8344H10.0153C8.55944 10.8344 7.37506 9.6418 7.37506 8.17585C7.37506 6.70997 8.55944 5.51741 10.0153 5.51741H22.2865C22.5532 5.51741 22.7694 5.73355 22.7694 6.0003C22.7694 6.26706 22.5532 6.4832 22.2865 6.4832H10.0153C9.09198 6.4832 8.34085 7.24251 8.34085 8.17585C8.34085 9.1092 9.09198 9.86857 10.0153 9.86857H22.2865C22.5532 9.86857 22.7694 10.0847 22.7694 10.3515C22.7694 10.6182 22.5532 10.8344 22.2865 10.8344Z" fill="#F6334C"/>
</svg>
