<svg width="32" height="32" viewBox="0 0 32 32" fill="none" xmlns="http://www.w3.org/2000/svg">
<g clip-path="url(#clip0_17_2117)">
<path d="M25.6188 9.01247C25.1721 8.71713 24.5706 8.83972 24.2753 9.28636C23.3475 10.6891 23.0216 12.3692 23.3575 14.017L23.47 14.5693C23.577 15.094 24.0891 15.4327 24.6137 15.3257C25.1384 15.2188 25.4771 14.7067 25.3701 14.182L25.2575 13.6297C25.0251 12.4895 25.2507 11.3268 25.8927 10.3561C26.188 9.90937 26.0654 9.30781 25.6188 9.01247Z" fill="#50E1CD"/>
<path d="M21.7268 18.667C21.1946 18.3909 20.0143 18.4027 19.6492 18.053C16.5853 15.1189 19.8821 9.80706 23.8175 11.9341C24.1555 12.1168 24.5641 12.1168 24.9021 11.9341C29.3065 9.55357 31.9901 16.0743 26.9928 18.667H21.7268Z" fill="#FF6F7F"/>
<path d="M4.18074 7.79711C5.08118 4.73966 6.22075 2.83408 6.22075 2.83408H12.1288C12.1288 2.83408 13.2412 4.6944 14.1371 7.68913L12.2937 10.8032H6.39678L4.18074 7.79711Z" fill="#80D8E6"/>
<path d="M6.42022 10.8032C7.13388 7.80091 8.57208 5.07969 10.5403 2.83408H6.22075C6.22075 2.83408 5.08118 4.73966 4.18074 7.79711L6.39678 10.8032H6.42022Z" fill="#3CCADD"/>
<path d="M15.0782 17.8414L9.17473 19.0243L3.27128 17.8414C2.79939 13.9553 3.40057 10.4447 4.18074 7.79711C8.13212 7.85461 8.1696 10.5087 14.1371 7.68913C14.9322 10.3484 15.5566 13.9023 15.0782 17.8414Z" fill="#FBE29F"/>
<path d="M19.899 12.2673H12.3103C11.4254 12.2673 10.708 12.9847 10.708 13.8696V14.0662C10.708 17.0467 13.1242 19.4629 16.1047 19.4629C19.0852 19.4629 21.5014 17.0468 21.5014 14.0662V13.8696C21.5014 12.9847 20.784 12.2673 19.899 12.2673Z" fill="#FFB3DD"/>
<path d="M12.01 0H6.33955C5.2028 0 4.28124 0.921561 4.28124 2.0583C4.28124 3.19511 5.2028 4.1166 6.33955 4.1166H12.01C13.1469 4.1166 14.0683 3.19504 14.0683 2.0583C14.0684 0.921561 13.1469 0 12.01 0Z" fill="#B3E8F0"/>
<path d="M5.33757 19.8462L1.87365 30.4856C1.63039 31.2329 2.18734 32 2.97324 32H4.95962C5.46035 32 5.90417 31.6777 6.05921 31.2016L9.33267 21.1469L5.33757 19.8462Z" fill="#E27858"/>
<path d="M26.6624 19.8462L30.1264 30.4856C30.3697 31.2329 29.8127 32 29.0268 32H27.0404C26.5397 32 26.0958 31.6777 25.9408 31.2016L22.6673 21.1469L26.6624 19.8462Z" fill="#E27858"/>
<path d="M5.91331 15.1384C5.91331 12.7664 6.35654 10.4982 7.16298 8.41065C6.35899 8.11672 5.48218 7.8161 4.18074 7.79711C3.40057 10.4447 2.79939 13.9553 3.27128 17.8414L6.20247 18.4287C6.01259 17.3606 5.91331 16.2611 5.91331 15.1384Z" fill="#FCCB88"/>
<path d="M29.8735 17.8416H2.12649C0.968181 17.8416 0.0292358 18.7806 0.0292358 19.9389V22.0885C0.0292358 23.2468 0.968181 24.1857 2.12649 24.1857H29.8735C31.0318 24.1857 31.9707 23.2468 31.9707 22.0885V19.9389C31.9707 18.7806 31.0318 17.8416 29.8735 17.8416Z" fill="#ED9B83"/>
<path d="M9.63722 21.744C9.37053 21.744 9.15432 21.5278 9.15432 21.2611V20.0385C9.15432 19.7718 9.37053 19.5556 9.63722 19.5556C9.90391 19.5556 10.1201 19.7718 10.1201 20.0385V21.2611C10.1201 21.5278 9.90391 21.744 9.63722 21.744Z" fill="#423E4F"/>
<path d="M22.3628 21.744C22.0961 21.744 21.8799 21.5278 21.8799 21.2611V20.0385C21.8799 19.7718 22.0961 19.5556 22.3628 19.5556C22.6295 19.5556 22.8457 19.7718 22.8457 20.0385V21.2611C22.8457 21.5278 22.6295 21.744 22.3628 21.744Z" fill="#423E4F"/>
<path d="M16 22.4718C15.2176 22.4718 14.4735 22.1329 13.9584 21.542C13.7832 21.3409 13.8042 21.0359 14.0053 20.8606C14.2063 20.6854 14.5114 20.7064 14.6866 20.9075C15.0181 21.2878 15.4968 21.5061 16 21.5061C16.5032 21.5061 16.982 21.2878 17.3135 20.9075C17.4887 20.7064 17.7937 20.6854 17.9948 20.8606C18.1959 21.0358 18.2168 21.3409 18.0416 21.542C17.5266 22.1329 16.7825 22.4718 16 22.4718Z" fill="#423E4F"/>
<path d="M6.10878 17.8416H2.12649C0.968181 17.8416 0.0292358 18.7806 0.0292358 19.9389V22.0885C0.0292358 23.2468 0.968181 24.1857 2.12649 24.1857H8.24854C7.17728 22.255 6.43838 20.1148 6.10878 17.8416Z" fill="#E7886E"/>
<path d="M9.51231 4.11667C10.5503 2.69914 11.783 1.4335 13.1716 0.359147C12.841 0.1327 12.4411 0 12.01 0H6.33955C5.2028 0 4.28124 0.921561 4.28124 2.0583C4.28124 3.19511 5.2028 4.1166 6.33955 4.1166L9.51231 4.11667Z" fill="#80D8E6"/>
</g>
<defs>
<clipPath id="clip0_17_2117">
<rect width="32" height="32" fill="white"/>
</clipPath>
</defs>
</svg>
