<svg width="32" height="32" viewBox="0 0 32 32" fill="none" xmlns="http://www.w3.org/2000/svg">
<g clip-path="url(#clip0_17_2196)">
<path d="M26.0904 16.2951C26.3421 13.5586 26.5935 10.8641 26.8441 8.21674C23.9097 7.49313 20.8998 7.06928 17.877 6.94526L12.624 8.34823L13.2789 16.5652L19.6238 17.3653L25.9953 17.3297L26.0904 16.2951Z" fill="#CEEAFB"/>
<path d="M15.2726 14.8319V13.6387C15.2726 11.0582 16.26 8.70769 17.877 6.94526C13.6036 6.7699 9.30438 7.19369 5.15581 8.21668C5.48362 11.6776 5.81233 15.2189 6.14187 18.8297L11.8208 19.4732L15.2726 14.8319Z" fill="#A7D4F1"/>
<path d="M12.9091 6.26068V1.70215C12.9091 0.762081 12.147 0 11.207 0H11.1699C10.2298 0 9.4677 0.762081 9.4677 1.70215V6.26068H12.9091Z" fill="#E68A97"/>
<path d="M9.4677 8.82483V27.6389C9.4677 28.579 10.2298 29.3411 11.1699 29.3411H11.207C12.147 29.3411 12.9091 28.579 12.9091 27.6389V8.82483H9.4677Z" fill="#DE5C6E"/>
<path d="M25.7102 10.1769H6.28976C5.17491 10.1769 4.27112 9.27312 4.27112 8.15827V6.95426C4.27112 5.83942 5.17491 4.93562 6.28976 4.93562H25.7102C26.8251 4.93562 27.7289 5.83942 27.7289 6.95426V8.15827C27.7289 9.27312 26.8251 10.1769 25.7102 10.1769Z" fill="#95CBEC"/>
<path d="M25.7308 20.2275C25.819 19.2567 25.9072 18.2907 25.9953 17.3297C26.058 16.6463 25.7828 15.9777 25.2632 15.5293C24.2379 14.6445 23.0375 13.9288 21.0952 13.9288C18.9181 13.9288 17.6732 14.8281 16.5622 15.8567V19.2531L22.5221 21.1228L25.7308 20.2275Z" fill="#F5EA72"/>
<path d="M18.3889 31.9377C18.6598 31.9236 18.9306 31.907 19.2013 31.888C22.3634 31.641 24.9459 28.9314 25.1914 26.2127C25.3714 24.1984 25.5512 22.203 25.7308 20.2275C25.8309 19.1256 24.7812 18.2919 23.7216 18.6108C23.2501 18.7527 22.7451 18.8338 22.1981 18.8338C18.5069 18.8338 17.4952 16.2486 15.2726 14.8319L9.85714 17.5143L10.7474 25.9544L13.0427 31.1105L18.3889 31.9377Z" fill="#F9F29D"/>
<path d="M15.2726 24.7268L15.2726 14.8319C14.4337 14.2971 13.4226 13.9288 12.0293 13.9288C9.60279 13.9288 8.33426 15.0459 7.11848 16.214C6.41237 16.8924 6.05284 17.8545 6.14187 18.8297C6.36374 21.2602 6.58605 23.7223 6.80869 26.2128C7.05422 28.9315 9.63669 31.6411 12.7988 31.8881C14.6587 32.0185 16.5269 32.0351 18.3889 31.9377C16.4706 30.1318 15.2726 27.5693 15.2726 24.7268Z" fill="#F5EA72"/>
<path d="M11.5507 17.9239C12.1435 17.9239 12.6241 17.4434 12.6241 16.8506C12.6241 16.2578 12.1435 15.7772 11.5507 15.7772C10.9579 15.7772 10.4774 16.2578 10.4774 16.8506C10.4774 17.4434 10.9579 17.9239 11.5507 17.9239Z" fill="#DE5C6E"/>
<path d="M10.7474 28.6502C11.3402 28.6502 11.8208 28.1696 11.8208 27.5768C11.8208 26.984 11.3402 26.5035 10.7474 26.5035C10.1546 26.5035 9.67406 26.984 9.67406 27.5768C9.67406 28.1696 10.1546 28.6502 10.7474 28.6502Z" fill="#DE5C6E"/>
<path d="M16 29.9874C16.5928 29.9874 17.0734 29.5069 17.0734 28.9141C17.0734 28.3213 16.5928 27.8407 16 27.8407C15.4072 27.8407 14.9267 28.3213 14.9267 28.9141C14.9267 29.5069 15.4072 29.9874 16 29.9874Z" fill="#E68A97"/>
<path d="M21.0345 28.6502C21.6273 28.6502 22.1078 28.1696 22.1078 27.5768C22.1078 26.984 21.6273 26.5035 21.0345 26.5035C20.4417 26.5035 19.9611 26.984 19.9611 27.5768C19.9611 28.1696 20.4417 28.6502 21.0345 28.6502Z" fill="#E68A97"/>
<path d="M12.6836 23.1047C12.684 23.9563 11.8175 24.647 10.7482 24.6475C9.67889 24.648 8.8117 23.9582 8.81125 23.1066C8.8108 22.2551 9.67734 21.5643 10.7467 21.5637C11.816 21.5632 12.6831 22.2531 12.6836 23.1047Z" fill="#E89FA9"/>
<path d="M19.306 23.1013C19.3064 23.9529 20.1736 24.6427 21.2429 24.6422C22.3122 24.6417 23.1788 23.951 23.1783 23.0994C23.1779 22.2479 22.3107 21.558 21.2414 21.5585C20.1721 21.559 19.3055 22.2498 19.306 23.1013Z" fill="#E89FA9"/>
<path d="M17.8923 22.405C17.8918 21.2321 17.042 21.1223 15.9938 21.1228C14.9456 21.1234 14.096 21.234 14.0965 22.4069C14.0971 23.5799 14.9473 24.5302 15.9955 24.5297C17.0437 24.5292 17.8929 23.5779 17.8923 22.405Z" fill="#4E5660"/>
<path d="M10.9534 21.9102C10.687 21.9102 10.4711 21.6944 10.4709 21.428C10.4706 20.6538 11.1001 20.0236 11.8742 20.0232C12.6482 20.0232 13.2786 20.6526 13.2789 21.4265C13.2791 21.693 13.0632 21.9091 12.7968 21.9092C12.7967 21.9092 12.7968 21.9092 12.7968 21.9092C12.5304 21.9092 12.3142 21.6934 12.314 21.427C12.3139 21.185 12.1169 20.9881 11.8749 20.9881C11.8749 20.9881 11.875 20.9881 11.8749 20.9881C11.6328 20.9883 11.4357 21.1853 11.4358 21.4275C11.436 21.694 11.2198 21.9101 10.9534 21.9102C10.9535 21.9102 10.9533 21.9102 10.9534 21.9102Z" fill="#4F5C6F"/>
<path d="M19.1914 21.906C18.925 21.906 18.709 21.6902 18.7089 21.4238C18.7087 21.0488 18.8546 20.6962 19.1196 20.4308C19.3847 20.1655 19.7372 20.0193 20.1123 20.0191C20.487 20.0191 20.8401 20.165 21.1053 20.4299C21.3706 20.6949 21.5168 21.0474 21.517 21.4224C21.5171 21.6889 21.3012 21.905 21.0348 21.9051C21.0347 21.9051 21.0348 21.9051 21.0348 21.9051C20.7684 21.9051 20.5522 21.6893 20.5521 21.4229C20.5519 21.1809 20.355 20.984 20.113 20.984C20.1129 20.984 20.113 20.984 20.113 20.984C19.9957 20.9841 19.8852 21.0298 19.8023 21.1128C19.7194 21.1958 19.6738 21.3061 19.6739 21.4234C19.674 21.6899 19.4578 21.9059 19.1914 21.906C19.1914 21.906 19.1912 21.906 19.1914 21.906Z" fill="#4F5C6F"/>
</g>
<defs>
<clipPath id="clip0_17_2196">
<rect width="32" height="32" fill="white"/>
</clipPath>
</defs>
</svg>
