<svg width="32" height="32" viewBox="0 0 32 32" fill="none" xmlns="http://www.w3.org/2000/svg">
<g clip-path="url(#clip0_17_2208)">
<path d="M16 32C24.8366 32 32 24.8366 32 16C32 7.16344 24.8366 0 16 0C7.16344 0 0 7.16344 0 16C0 24.8366 7.16344 32 16 32Z" fill="#FF97C1"/>
<path d="M2.57545 16C2.57545 7.597 9.05342 0.707541 17.2877 0.0517022C16.8629 0.017835 16.4336 0 16 0C7.16344 0 0 7.16344 0 16C0 24.8366 7.16344 32 16 32C16.4335 32 16.8629 31.9822 17.2877 31.9483C9.05342 31.2925 2.57545 24.403 2.57545 16Z" fill="#FF5D9C"/>
<path d="M18.2764 18.5755L24.4346 12.4172C24.7871 12.0647 24.7871 11.4932 24.4346 11.1407L23.4347 10.1408C23.0822 9.78827 22.5107 9.78827 22.1582 10.1408L16 16.299L9.84177 10.1408C9.48926 9.78827 8.91776 9.78827 8.56525 10.1408L7.56533 11.1407C7.21281 11.4932 7.21281 12.0647 7.56533 12.4172L13.7236 18.5755L7.56533 24.7337C7.21281 25.0862 7.21281 25.6577 7.56533 26.0102L8.56525 27.0101C8.91776 27.3626 9.48926 27.3626 9.84177 27.0101L16 20.8519L22.1582 27.0101C22.5107 27.3626 23.0822 27.3626 23.4348 27.0101L24.4347 26.0102C24.7872 25.6577 24.7872 25.0862 24.4347 24.7337L18.2764 18.5755Z" fill="white"/>
<path d="M9.89708 8.60633C11.1407 8.60633 12.1489 7.80344 12.1489 6.81304C12.1489 5.82263 11.1407 5.01975 9.89708 5.01975C8.65342 5.01975 7.64523 5.82263 7.64523 6.81304C7.64523 7.80344 8.65342 8.60633 9.89708 8.60633Z" fill="#FF5D9C"/>
<path d="M22.1029 8.61689C23.3466 8.61689 24.3548 7.814 24.3548 6.8236C24.3548 5.83319 23.3466 5.03031 22.1029 5.03031C20.8593 5.03031 19.8511 5.83319 19.8511 6.8236C19.8511 7.814 20.8593 8.61689 22.1029 8.61689Z" fill="#FF5D9C"/>
<path d="M11.211 5.55944C11.2109 5.55944 11.2111 5.55944 11.211 5.55944C10.9443 5.55924 10.7279 5.34284 10.7281 5.07615L10.7288 4.17738C10.729 3.91083 10.9452 3.69487 11.2117 3.69487C11.4784 3.69507 11.6949 3.91147 11.6946 4.17816L11.6939 5.07693C11.6937 5.34348 11.4776 5.55944 11.211 5.55944Z" fill="#423E4F"/>
<path d="M20.7921 5.56877C20.792 5.56877 20.7922 5.56877 20.7921 5.56877C20.5254 5.56858 20.309 5.35218 20.3092 5.08549L20.3099 4.18672C20.3101 3.92016 20.5262 3.70421 20.7928 3.70421C21.0595 3.7044 21.2759 3.92081 21.2757 4.18749L21.275 5.08626C21.2748 5.35282 21.0586 5.56877 20.7921 5.56877Z" fill="#423E4F"/>
<path d="M17.2642 5.96423C17.264 5.96423 17.2644 5.96423 17.2642 5.96423L14.7378 5.96204C14.4711 5.96179 14.2551 5.74545 14.2553 5.47876C14.2556 5.2122 14.4717 4.99625 14.7382 4.99625L17.2646 4.99844C17.5313 4.9987 17.7473 5.21503 17.7471 5.48172C17.7468 5.74828 17.5306 5.96423 17.2642 5.96423Z" fill="#423E4F"/>
</g>
<defs>
<clipPath id="clip0_17_2208">
<rect width="32" height="32" fill="white"/>
</clipPath>
</defs>
</svg>
