<svg width="32" height="32" viewBox="0 0 32 32" fill="none" xmlns="http://www.w3.org/2000/svg">
<g clip-path="url(#clip0_17_2241)">
<path d="M20.8655 20.4105C20.4623 19.8402 20.0959 18.9913 18.8387 18.3183C19.0996 17.1675 18.3914 15.6921 16.8196 15.4396C16.7723 13.8086 15.0253 13.1573 13.5319 13.5959C13.0519 13.0077 12.2355 12.7446 11.3995 12.7446C10.5731 12.7446 9.74661 13.0067 9.26584 13.595C7.75372 13.1567 6.03113 13.8156 5.98278 15.4397C4.45457 15.6892 3.69816 17.1056 3.95931 18.3176C2.70165 18.9907 2.33239 19.8435 1.93159 20.4105V21.6982H20.8655V20.4105Z" fill="#FFB357"/>
<path d="M17.6104 10.6807C16.2212 9.29159 14.2059 8.91145 12.4731 9.53851L7.05532 1.49853L5.10648 1.49846V8.19921L9.53716 12.4721C8.90823 14.2058 9.28792 16.2229 10.678 17.6131C12.5923 19.5273 17.7234 21.5547 19.6376 19.6404C21.5519 17.7261 19.5247 12.595 17.6104 10.6807Z" fill="#9EA2E3"/>
<path d="M7.05532 1.49853C6.29975 0.559389 5.16056 0 3.95628 0C1.77481 0 0 1.77474 0 3.95628C0 5.1605 0.538591 6.28449 1.47779 7.04013C1.48777 7.04818 1.49814 7.05577 1.50876 7.06292L9.53716 12.4721C6.93338 9.46138 5.99784 5.33634 7.05532 1.49853Z" fill="#8288CB"/>
<path d="M16.2445 12.0466C15.3916 11.1937 14.1683 10.9792 13.1304 11.3548C12.3624 11.6327 11.6315 12.3631 11.353 13.1308C10.9607 14.2121 11.232 15.4353 12.0439 16.2472C12.4595 16.6629 13.1218 17.1055 13.8783 17.4862L17.4858 13.8787C17.0741 13.0658 16.6126 12.4146 16.2445 12.0466Z" fill="#8288CB"/>
<path d="M30.0684 20.4105C29.6652 19.8402 29.2988 18.9913 28.0417 18.3183C28.3025 17.1675 27.5943 15.6921 26.0225 15.4396C25.9752 13.8086 24.2282 13.1573 22.7349 13.5959C22.2548 13.0077 21.4385 12.7446 20.6024 12.7446C19.7761 12.7446 18.9495 13.0067 18.4688 13.595C16.9566 13.1567 15.2341 13.8156 15.1857 15.4397C13.6575 15.6892 12.9011 17.1056 13.1622 18.3176C11.9046 18.9907 11.5353 19.8435 11.1345 20.4104V21.6981H30.0684V20.4105Z" fill="#FFCE71"/>
<path d="M30.0684 20.4105H1.93159L15.8937 30.6227C17.0457 31.4653 18.4359 31.9195 19.8631 31.9195C21.1434 31.7332 22.4028 31.2231 23.4832 30.3903C24.9612 29.2506 26.2758 27.9126 27.3897 26.4137C27.896 25.7324 28.3609 25.0179 28.7807 24.2736H30.025C31.1108 24.2736 32.023 23.385 31.9995 22.2994C31.9769 21.2504 31.1194 20.4105 30.0684 20.4105Z" fill="#EFEDFF"/>
<path d="M10.9457 24.2736H9.65796C8.5912 24.2736 7.72637 23.4088 7.72637 22.3421C7.72637 21.2753 8.5912 20.4105 9.65796 20.4105H1.93159C0.864838 20.4105 9.0003e-06 21.2753 9.0003e-06 22.3421C9.0003e-06 23.4088 0.864846 24.2736 1.9316 24.2736H3.21932C4.56275 26.6551 6.36711 28.7326 8.51677 30.3903C9.86966 31.4336 11.5297 32 13.2382 32H18.7619C19.1322 32 19.5 31.9722 19.8631 31.9195C18.551 31.7304 17.3027 31.2074 16.2431 30.3903C14.0935 28.7326 12.2891 26.6551 10.9457 24.2736Z" fill="#D4D4FF"/>
<path d="M10.9971 29.9993C11.9749 29.9993 12.7677 29.368 12.7677 28.5892C12.7677 27.8104 11.9749 27.1791 10.9971 27.1791C10.0192 27.1791 9.22643 27.8104 9.22643 28.5892C9.22643 29.368 10.0192 29.9993 10.9971 29.9993Z" fill="#FF8E9E"/>
<path d="M21.0029 29.9993C21.9808 29.9993 22.7736 29.368 22.7736 28.5892C22.7736 27.8104 21.9808 27.1791 21.0029 27.1791C20.0251 27.1791 19.2323 27.8104 19.2323 28.5892C19.2323 29.368 20.0251 29.9993 21.0029 29.9993Z" fill="#FF8E9E"/>
<path d="M19.7152 6.11477C19.1818 6.11477 18.7494 6.54719 18.7494 7.08056C18.216 7.08056 17.7836 7.51298 17.7836 8.04636C17.7836 8.57973 18.216 9.01215 18.7494 9.01215C19.8145 9.01215 20.681 8.14564 20.681 7.08056C20.681 6.54719 20.2486 6.11477 19.7152 6.11477Z" fill="#FFB357"/>
<path d="M26.9978 8.77309C26.6206 8.39591 26.0091 8.39591 25.6319 8.77309C24.8788 9.52621 24.8788 10.7516 25.6319 11.5047C26.0091 11.8819 26.6206 11.8819 26.9978 11.5047C27.3749 11.1276 27.3749 10.5161 26.9978 10.1389C27.3749 9.76174 27.3749 9.15026 26.9978 8.77309Z" fill="#FFB357"/>
<path d="M25.1052 3.73936C25.4824 3.36219 25.4824 2.75071 25.1052 2.37354C24.728 1.99636 24.1165 1.99636 23.7394 2.37354C23.3622 1.99636 22.7507 1.99636 22.3735 2.37354C21.9964 2.75071 21.9964 3.36219 22.3735 3.73936C23.1267 4.49243 24.3521 4.49243 25.1052 3.73936Z" fill="#FFB357"/>
<path d="M18.8138 16.7385C18.8138 16.2051 18.3814 15.7727 17.848 15.7727C17.3146 15.7727 16.8822 16.2051 16.8822 16.7385C16.8822 17.8036 17.7487 18.6701 18.8138 18.6701C19.3472 18.6701 19.7796 18.2377 19.7796 17.7043C19.7796 17.1709 19.3472 16.7385 18.8138 16.7385Z" fill="#FFB357"/>
<path d="M22.4126 15.7268C21.6594 16.4799 21.6594 17.7053 22.4126 18.4585C22.7897 18.8356 23.4012 18.8356 23.7784 18.4585C24.1556 18.0813 24.1556 17.4698 23.7784 17.0926C24.1556 16.7155 24.1556 16.104 23.7784 15.7268C23.4013 15.3496 22.7897 15.3496 22.4126 15.7268Z" fill="#FFB357"/>
<path d="M6.20027 19.4447C6.20027 18.3796 7.06679 17.5131 8.13186 17.5131C8.66524 17.5131 9.09766 17.9455 9.09766 18.4789C9.09766 19.0123 8.66524 19.4447 8.13186 19.4447C8.13186 19.978 7.69944 20.4105 7.16607 20.4105C6.63269 20.4105 6.20027 19.978 6.20027 19.4447Z" fill="#FFCE71"/>
<path d="M12.462 27.6217V26.8491C12.462 26.5823 12.2458 26.3662 11.9791 26.3662C11.7125 26.3662 11.4962 26.5823 11.4962 26.8491V27.6217C11.4962 27.8885 11.7125 28.1046 11.9791 28.1046C12.2458 28.1046 12.462 27.8885 12.462 27.6217Z" fill="#313D40"/>
<path d="M20.5038 27.6217V26.8491C20.5038 26.5823 20.2875 26.3662 20.0209 26.3662C19.7542 26.3662 19.538 26.5823 19.538 26.8491V27.6217C19.538 27.8885 19.7542 28.1046 20.0209 28.1046C20.2875 28.1046 20.5038 27.8885 20.5038 27.6217Z" fill="#313D40"/>
<path d="M16 28.5646C16.5459 28.5646 17.0649 28.3282 17.4242 27.916C17.5994 27.715 17.5784 27.41 17.3774 27.2347C17.1763 27.0594 16.8712 27.0804 16.696 27.2815C16.5203 27.4832 16.2666 27.5989 16 27.5989C15.7334 27.5989 15.4797 27.4832 15.304 27.2815C15.1287 27.0805 14.8237 27.0596 14.6226 27.2347C14.4216 27.41 14.4006 27.715 14.5758 27.916C14.9351 28.3282 15.4542 28.5646 16 28.5646Z" fill="#313D40"/>
</g>
<defs>
<clipPath id="clip0_17_2241">
<rect width="32" height="32" fill="white"/>
</clipPath>
</defs>
</svg>
