<svg width="32" height="32" viewBox="0 0 32 32" fill="none" xmlns="http://www.w3.org/2000/svg">
<g clip-path="url(#clip0_17_2268)">
<path d="M27.296 21.3807L23.6077 3.65943C23.1199 3.32106 22.5274 3.12268 21.8887 3.12268C21.2076 3.12268 20.5792 3.34818 20.0741 3.72862C19.4054 4.23218 18.4716 4.23218 17.803 3.72862C17.3036 3.35256 16.6838 3.12824 16.0116 3.12312C16.0077 3.12312 16.0039 3.12287 16 3.12287C15.9961 3.12287 15.9922 3.12262 15.9884 3.12262C15.3162 3.12768 14.6963 3.35249 14.197 3.72862C13.5284 4.23218 12.5945 4.23218 11.9259 3.72862C11.4208 3.34818 10.7925 3.12268 10.1113 3.12268C9.4725 3.12268 8.88013 3.32099 8.39225 3.65943L4.704 21.3807L9.71988 28.3123C10.8814 28.679 12.1178 28.8772 13.4005 28.8772H18.5996C19.8823 28.8772 21.1186 28.679 22.2802 28.3123L27.296 21.3807Z" fill="#F4F7FF"/>
<path d="M5.42606 22.3786C6.77075 19.932 7.83537 16.8227 8.39706 13.3617C8.973 9.81337 8.931 6.44743 8.39225 3.65943C8.36012 3.68174 8.32837 3.70468 8.29719 3.72818C7.61938 4.23824 6.67975 4.23824 6.00194 3.72818C5.49687 3.34806 4.86862 3.12281 4.18781 3.12281C2.51956 3.12281 1.16725 4.47518 1.16725 6.14337V11.3861L1.18675 16.5201L5.42606 22.3786Z" fill="#E9EFFF"/>
<path d="M1.18725 16.6641L1.18675 16.5201C6.05169 16.9817 9.86462 21.2982 9.86462 26.5561C9.86462 27.1552 9.81494 27.7419 9.71988 28.3123C4.77363 26.7508 1.18725 22.1265 1.18725 16.6641Z" fill="#D3DCFB"/>
<path d="M26.5739 22.3786L30.8132 16.52L30.8328 11.3861V6.14331C30.8328 4.47506 29.4804 3.12274 27.8122 3.12274C27.1313 3.12274 26.5031 3.34806 25.9981 3.72812C25.3202 4.23818 24.3806 4.23818 23.7028 3.72812C23.6716 3.70462 23.6399 3.68174 23.6077 3.65943C23.069 6.44743 23.027 9.81331 23.6029 13.3617C24.1646 16.8226 25.2293 19.9319 26.5739 22.3786Z" fill="#E9EFFF"/>
<path d="M7.55719 12.8087L2.21606 11.9274C0.779688 11.6904 -0.201687 10.3213 0.0353127 8.88487C0.272313 7.44849 1.64144 6.46712 3.07788 6.70412L8.419 7.58537C9.85537 7.82237 10.8368 9.19149 10.5997 10.6279C10.3627 12.0643 8.99356 13.0456 7.55719 12.8087Z" fill="#FFEBC0"/>
<path d="M10.6813 19.7167C11.7692 19.7167 12.6512 19.0144 12.6512 18.148C12.6512 17.2816 11.7692 16.5792 10.6813 16.5792C9.59338 16.5792 8.71144 17.2816 8.71144 18.148C8.71144 19.0144 9.59338 19.7167 10.6813 19.7167Z" fill="#FFA1AC"/>
<path d="M19.3889 18.148C19.3889 19.0144 20.2709 19.7167 21.3588 19.7167C21.5721 19.7167 21.7775 19.6897 21.9698 19.6398C22.7586 19.4351 23.3287 18.8446 23.3287 18.148C23.3287 17.2816 22.4468 16.5792 21.3588 16.5792C20.2709 16.5793 19.3889 17.2816 19.3889 18.148Z" fill="#FFA1AC"/>
<path d="M11.8294 17.1067C11.5705 17.1067 11.3606 16.8969 11.3606 16.6379V15.8326C11.3606 15.5737 11.5705 15.3639 11.8294 15.3639C12.0883 15.3639 12.2981 15.5737 12.2981 15.8326V16.6379C12.2981 16.8969 12.0883 17.1067 11.8294 17.1067Z" fill="#495560"/>
<path d="M20.2108 17.1067C19.9519 17.1067 19.7421 16.8969 19.7421 16.6379V15.8326C19.7421 15.5737 19.9519 15.3639 20.2108 15.3639C20.4697 15.3639 20.6796 15.5737 20.6796 15.8326V16.6379C20.6796 16.8969 20.4697 17.1067 20.2108 17.1067Z" fill="#495560"/>
<path d="M16.0201 17.5861C15.4612 17.5861 14.9297 17.344 14.5618 16.9219C14.3917 16.7268 14.4121 16.4307 14.6072 16.2606C14.8023 16.0905 15.0984 16.1108 15.2686 16.306C15.4583 16.5237 15.7323 16.6486 16.0201 16.6486C16.3078 16.6486 16.5818 16.5237 16.7716 16.306C16.9416 16.1107 17.2377 16.0904 17.4329 16.2606C17.6281 16.4307 17.6483 16.7268 17.4783 16.9219C17.1104 17.344 16.5789 17.5861 16.0201 17.5861Z" fill="#495560"/>
<path d="M30.8127 16.6641L30.8132 16.52C25.9483 16.9817 22.1354 21.2982 22.1354 26.5561C22.1354 27.1552 22.1851 27.7419 22.2802 28.3123C27.2264 26.7508 30.8127 22.1265 30.8127 16.6641Z" fill="#D3DCFB"/>
<path d="M5.31369 10.1833C5.31369 8.71387 6.50487 7.52268 7.97431 7.52268C7.99987 7.52268 8.02513 7.52387 8.0505 7.52462L3.07788 6.70412C1.64144 6.46712 0.272313 7.44849 0.0353127 8.88487C-0.201687 10.3213 0.779688 11.6904 2.21606 11.9274L7.42456 12.7869C6.219 12.5334 5.31369 11.4642 5.31369 10.1833Z" fill="#FCE3A0"/>
<path d="M28.9221 6.70412L23.581 7.58537C22.1446 7.82237 21.1632 9.19149 21.4002 10.6279C21.6372 12.0643 23.0064 13.0457 24.4428 12.8087L29.7839 11.9274C31.2203 11.6904 32.2017 10.3213 31.9647 8.88487C31.7277 7.44849 30.3586 6.46712 28.9221 6.70412Z" fill="#FFEBC0"/>
<path d="M26.6787 9.32949C26.6787 10.7989 27.8699 11.9901 29.3393 11.9901C29.3649 11.9901 29.3901 11.9889 29.4155 11.9882L24.4428 12.8087C23.0064 13.0457 21.6372 12.0643 21.4002 10.6279C21.1632 9.19149 22.1446 7.82237 23.581 7.58537L28.7896 6.72593C27.584 6.97931 26.6787 8.04856 26.6787 9.32949Z" fill="#FCE3A0"/>
</g>
<defs>
<clipPath id="clip0_17_2268">
<rect width="32" height="32" fill="white"/>
</clipPath>
</defs>
</svg>
