<svg width="32" height="32" viewBox="0 0 32 32" fill="none" xmlns="http://www.w3.org/2000/svg">
<g clip-path="url(#clip0_17_2306)">
<path d="M25.6579 12.8772L27.6539 11.5895V1.93156C27.6539 0.864688 26.7892 0 25.7223 0H11.3216L6.34206 1.93156V12.8772H25.6579Z" fill="#E8EDF5"/>
<path d="M14.6447 11.5896C14.3893 11.5896 14.1697 11.4028 14.1353 11.1497C14.0412 10.4568 13.725 9.81656 13.2218 9.31344C12.6137 8.70525 11.8053 8.37025 10.9456 8.37025H9.81437C9.49844 8.37025 9.25688 8.08825 9.30488 7.77594C9.72263 5.05481 10.4063 2.44875 11.3216 0H6.27769C5.21088 0 4.34606 0.864812 4.34606 1.93156V28.7807H27.6539L27.6539 11.5895L14.6447 11.5896Z" fill="#DBE2EC"/>
<path d="M23.7908 10.1409H16.7404C16.4737 10.1409 16.2576 9.92469 16.2576 9.658C16.2576 9.39131 16.4737 9.17513 16.7404 9.17513H23.7908C24.0574 9.17513 24.2736 9.39131 24.2736 9.658C24.2736 9.92469 24.0574 10.1409 23.7908 10.1409Z" fill="#77899B"/>
<path d="M9.44544 6.9215H23.7908C24.0574 6.9215 24.2736 6.70531 24.2736 6.43862C24.2736 6.17188 24.0574 5.95575 23.7908 5.95575H9.62719L8.72606 6.43862L9.44544 6.9215Z" fill="#77899B"/>
<path d="M7.72638 6.43862C7.72638 6.70537 7.94256 6.9215 8.20925 6.9215H9.44544C9.50225 6.59781 9.56287 6.27594 9.62719 5.95575L8.20925 5.95569C7.94256 5.95575 7.72638 6.17194 7.72638 6.43862Z" fill="#5F7080"/>
<path d="M10.1486 3.70219H23.7908C24.0574 3.70219 24.2736 3.486 24.2736 3.21931C24.2736 2.95262 24.0574 2.73644 23.7908 2.73644H10.4153L9.44544 3.21931L10.1486 3.70219Z" fill="#77899B"/>
<path d="M7.72638 3.21931C7.72638 3.48606 7.94256 3.70219 8.20925 3.70219H10.1486C10.2336 3.37812 10.3226 3.05619 10.4153 2.73644L8.20925 2.73638C7.94256 2.73644 7.72638 2.95256 7.72638 3.21931Z" fill="#5F7080"/>
<path d="M11.0904 32H30.0684C31.1353 32 31.9999 31.1353 31.9999 30.0684V28.7807L15.9999 26.2052L9.09406 27.3169L6.92637 29.6584L11.0904 32Z" fill="#FFDB2F"/>
<path d="M0 28.7807V30.0684C0 31.1353 0.864688 32 1.93156 32H11.0904C10.3299 30.5127 9.66119 28.9478 9.09406 27.3169L0 28.7807Z" fill="#FECC29"/>
<path d="M9.63731 28.7807H31.9999L32 14.8089C32 13.742 31.1353 12.8773 30.0684 12.8773H14.165C13.4536 12.8773 12.8772 12.3011 12.8772 11.5896C12.8772 11.0564 12.6609 10.5736 12.3113 10.2239C11.9617 9.87431 11.4788 9.658 10.9457 9.658H7.129L2.47887 13.1349V25.6258L9.63731 28.7807Z" fill="#FFEF64"/>
<path d="M7.129 9.658L1.93156 9.65794C0.864688 9.65794 0 10.5226 0 11.5896L0 28.7807H9.63731C7.88113 24.3329 6.89644 19.3417 6.89644 14.0684C6.89644 12.5736 6.97556 11.1016 7.129 9.658Z" fill="#FFE54E"/>
<path d="M13.5211 19.4769H27.9759C28.3315 19.4769 28.6197 19.1886 28.6197 18.833V16.9014C28.6197 16.5458 28.3315 16.2576 27.9759 16.2576H13.5211C13.1655 16.2576 12.8772 16.5458 12.8772 16.9014V18.833C12.8772 19.1886 13.1655 19.4769 13.5211 19.4769Z" fill="#FFDB2F"/>
<path d="M7.28825 19.7794C8.01994 19.453 8.53119 18.7187 8.53119 17.8672C8.53119 16.8838 7.84925 16.0566 6.93344 15.8337L6.34206 16.2576L6.99081 16.8853C7.3335 17.0788 7.56537 17.4464 7.56537 17.8673C7.56537 18.2157 7.40631 18.5278 7.157 18.7347L6.68544 19.5842L7.28825 19.7794Z" fill="#FECC29"/>
<path d="M6.89888 13.6194C7.29138 13.7957 7.56544 14.1904 7.56544 14.6479C7.56544 14.9146 7.78162 15.1307 8.04831 15.1307C8.31506 15.1307 8.53119 14.9146 8.53119 14.6479C8.53119 13.6602 7.84344 12.8302 6.92163 12.6116L6.17037 13.0597L6.89888 13.6194Z" fill="#FECC29"/>
<path d="M6.43862 18.9939C5.81731 18.9939 5.31187 18.4884 5.31187 17.8672C5.31187 17.6005 5.09569 17.3843 4.829 17.3843C4.56225 17.3843 4.34613 17.6005 4.34613 17.8672C4.34613 18.8549 5.03394 19.6849 5.95581 19.9035V20.4427C5.95581 20.7094 6.172 20.9256 6.43869 20.9256C6.70544 20.9256 6.92156 20.7094 6.92156 20.4427V19.9035C7.04862 19.8734 7.17119 19.8316 7.28825 19.7794C7.24019 19.4329 7.19637 19.0847 7.157 18.7347C6.96181 18.8966 6.71137 18.9939 6.43862 18.9939Z" fill="#FFBD1C"/>
<path d="M6.43862 15.7746C5.81731 15.7746 5.31187 15.2691 5.31187 14.6479C5.31187 14.0266 5.81737 13.5211 6.43862 13.5211C6.6025 13.5211 6.75825 13.5563 6.89888 13.6194C6.90244 13.2822 6.91006 12.9463 6.92163 12.6116C6.92156 12.6116 6.92169 12.6116 6.92163 12.6116L6.9215 12.0724C6.9215 11.8057 6.70531 11.5896 6.43862 11.5896C6.17188 11.5896 5.95575 11.8057 5.95575 12.0724V12.6116C5.03394 12.8302 4.34606 13.6603 4.34606 14.6479C4.34606 15.8018 5.28475 16.7405 6.43862 16.7405C6.63912 16.7405 6.8275 16.7931 6.99081 16.8853C6.96731 16.5363 6.94819 16.1857 6.93344 15.8337C6.77475 15.7951 6.60906 15.7746 6.43862 15.7746Z" fill="#FFBD1C"/>
<path d="M10.8776 26.7331C11.9215 26.7331 12.7677 26.0593 12.7677 25.228C12.7677 24.3967 11.9215 23.7229 10.8776 23.7229C9.83377 23.7229 8.98756 24.3967 8.98756 25.228C8.98756 26.0593 9.83377 26.7331 10.8776 26.7331Z" fill="#FFA1AC"/>
<path d="M21.1224 26.7331C22.1662 26.7331 23.0124 26.0593 23.0124 25.228C23.0124 24.3967 22.1662 23.7229 21.1224 23.7229C20.0785 23.7229 19.2323 24.3967 19.2323 25.228C19.2323 26.0593 20.0785 26.7331 21.1224 26.7331Z" fill="#FFA1AC"/>
<path d="M16 23.6288C15.2502 23.6288 14.5824 23.1249 14.1624 23.7463C13.7364 24.3766 14.6906 25.354 16 25.354C17.3094 25.354 18.2636 24.3766 17.8376 23.7463C17.4176 23.125 16.7498 23.6288 16 23.6288Z" fill="#495560"/>
<path d="M11.9792 24.158C11.5199 24.158 11.0831 23.9591 10.7809 23.6122C10.6058 23.4112 10.6267 23.1061 10.8278 22.9309C11.0288 22.7557 11.3339 22.7767 11.5091 22.9778C11.6278 23.1141 11.7992 23.1922 11.9792 23.1922C12.1592 23.1922 12.3306 23.114 12.4493 22.9778C12.6245 22.7766 12.9296 22.7557 13.1306 22.9309C13.3317 23.1061 13.3526 23.4112 13.1774 23.6122C12.8752 23.9591 12.4384 24.158 11.9792 24.158Z" fill="#495560"/>
<path d="M20.0209 24.158C19.5616 24.158 19.1248 23.9591 18.8226 23.6123C18.6474 23.4112 18.6684 23.1062 18.8694 22.931C19.0705 22.7558 19.3756 22.7767 19.5508 22.9778C19.6695 23.1141 19.8409 23.1922 20.0209 23.1922C20.2009 23.1922 20.3723 23.1141 20.4909 22.9779C20.6661 22.7768 20.9712 22.7558 21.1723 22.931C21.3733 23.1062 21.3943 23.4112 21.2191 23.6123C20.9169 23.9591 20.4802 24.158 20.0209 24.158Z" fill="#495560"/>
</g>
<defs>
<clipPath id="clip0_17_2306">
<rect width="32" height="32" fill="white"/>
</clipPath>
</defs>
</svg>
