<svg width="32" height="32" viewBox="0 0 32 32" fill="none" xmlns="http://www.w3.org/2000/svg">
<g clip-path="url(#clip0_17_2335)">
<path d="M26.7266 15.9399C18.9834 15.8164 12.2832 21.4009 4.56715 21.425C2.99269 21.4299 1.63722 20.3154 1.35426 18.7666L0.0332176 11.5347C-0.193101 10.2964 0.766127 9.1526 2.02491 9.17262C9.76783 9.2964 16.4683 3.71193 24.1843 3.68776C25.7588 3.68288 27.1142 4.79738 27.3972 6.34621L28.718 13.5781C28.9443 14.8164 27.9851 15.9602 26.7266 15.9399Z" fill="#9AD880"/>
<path d="M26.7266 15.9399C27.9851 15.9602 28.9443 14.8164 28.718 13.5781L27.9487 9.36598C23.8179 10.4805 19.3921 12.1685 14.8005 13.0308C8.35279 14.2417 2.62404 12.5466 0.0383446 11.562L1.35426 18.7666C1.63722 20.3154 2.99269 21.4299 4.56715 21.425C12.2832 21.4009 18.9834 15.8164 26.7266 15.9399Z" fill="#8DC971"/>
<path d="M5.00636 10.0022C4.94142 9.64625 4.82789 9.31276 4.67506 9.00367C3.80348 9.12477 2.92091 9.18702 2.02491 9.17262C0.766127 9.1526 -0.193101 10.2964 0.0332176 11.5347L0.555922 14.3953C1.00783 14.4841 1.48341 14.4924 1.96412 14.4045C4.01979 14.0291 5.38185 12.0581 5.00636 10.0022Z" fill="#8DC971"/>
<path d="M2.37672 16.6633C1.89601 16.751 1.45411 16.927 1.06276 17.1697L1.35426 18.7666C1.63722 20.3154 2.99269 21.4299 4.56715 21.425C5.29811 21.4226 6.0193 21.3706 6.73341 21.2781C6.85523 20.7778 6.87721 20.2446 6.77882 19.7056C6.40333 17.6499 4.43238 16.2878 2.37672 16.6633Z" fill="#7FB762"/>
<path d="M26.5496 8.74659C26.9861 8.66676 27.3909 8.51442 27.7549 8.30519L27.3972 6.34621C27.1142 4.79738 25.7588 3.68288 24.1843 3.68776C23.5459 3.68971 22.9143 3.72975 22.2888 3.80153C22.0859 4.39381 22.0266 5.04469 22.1472 5.70412C22.5227 7.76002 24.4936 9.12208 26.5496 8.74659Z" fill="#8DC971"/>
<path d="M28.718 13.5781L28.2456 10.9917C27.8313 10.9248 27.3987 10.9253 26.9621 11.0051C24.9062 11.3806 23.5442 13.3516 23.9197 15.4075C23.9641 15.6499 24.031 15.8818 24.1174 16.1035C24.9756 15.9858 25.8442 15.926 26.7266 15.9399C27.9851 15.9602 28.9443 14.8164 28.718 13.5781Z" fill="#7FB762"/>
<path d="M21.093 10.4685C20.3193 8.20338 16.9548 7.30202 13.5781 8.45533C10.2014 9.60865 8.09132 12.3799 8.86475 14.645C9.63843 16.9102 13.0029 17.8115 16.3796 16.6582C19.7563 15.5049 21.8667 12.7337 21.093 10.4685Z" fill="#C8EFB9"/>
<path d="M8.71656 13.4089C8.68214 13.8289 8.72803 14.2449 8.86475 14.645C9.63843 16.9102 13.0029 17.8115 16.3796 16.6582C19.3127 15.6563 21.2913 13.4334 21.2532 11.3821C19.1497 12.0183 16.9937 12.6189 14.8005 13.0308C12.6643 13.4319 10.6069 13.5142 8.71656 13.4089Z" fill="#9AD880"/>
<path d="M29.6164 26.6191C22.0217 25.106 14.4268 29.3955 6.83204 28.0327C5.28224 27.7546 4.14918 26.4148 4.14918 24.8401V17.4888C4.14918 16.2297 5.29835 15.2771 6.53297 15.523C14.1277 17.0361 21.7224 12.7466 29.3171 14.1094C30.8669 14.3875 32 15.7273 32 17.302V24.6533C32 25.9123 30.8511 26.865 29.6164 26.6191Z" fill="#B2E59C"/>
<path d="M9.3169 16.875C9.3169 16.5129 9.26514 16.1643 9.17017 15.833C8.29127 15.7957 7.41212 15.6982 6.53297 15.523C5.29835 15.2771 4.14918 16.2297 4.14918 17.4888V20.3967C4.57789 20.5652 5.04444 20.6587 5.53297 20.6587C7.62257 20.6587 9.3169 18.9646 9.3169 16.875Z" fill="#9AD880"/>
<path d="M5.53297 22.9548C5.04444 22.9548 4.57789 23.0486 4.14918 23.217V24.8401C4.14918 26.4148 5.28224 27.7546 6.83204 28.0327C7.55128 28.1619 8.27027 28.2402 8.98951 28.2776C9.19898 27.8074 9.3169 27.2869 9.3169 26.7388C9.3169 24.6489 7.62257 22.9548 5.53297 22.9548Z" fill="#9AD880"/>
<path d="M30.7348 19.5107C31.1787 19.5107 31.6045 19.4338 32 19.2935L32 17.302C32 15.7273 30.8669 14.3875 29.3171 14.1094C28.6887 13.9966 28.0605 13.9226 27.4321 13.8806C27.1262 14.4268 26.9509 15.0564 26.9509 15.7268C26.9509 17.8167 28.645 19.5107 30.7348 19.5107Z" fill="#9AD880"/>
<path d="M32 24.6533L32 22.0244C31.6045 21.884 31.1787 21.8069 30.7348 21.8069C28.645 21.8069 26.9509 23.501 26.9509 25.5908C26.9509 25.8372 26.9753 26.0776 27.0203 26.311C27.8857 26.3496 28.751 26.4468 29.6164 26.6191C30.8511 26.865 32 25.9123 32 24.6533Z" fill="#9AD880"/>
<path d="M24.4851 20.2539C24.1826 17.8794 21.0676 16.3201 17.5278 16.7712C13.9883 17.2222 11.3638 19.5129 11.6665 21.8875C11.969 24.262 15.0837 25.8213 18.6235 25.3701C22.1633 24.9192 24.7876 22.6287 24.4851 20.2539Z" fill="#E8FFDE"/>
<path d="M22.2873 21.5835C22.0217 21.6082 21.7864 21.4128 21.7617 21.1472L21.6877 20.3489C21.6631 20.0835 21.8584 19.8481 22.124 19.8235C22.3896 19.7988 22.6248 19.9941 22.6494 20.2598L22.7234 21.0579C22.748 21.3235 22.553 21.5588 22.2873 21.5835Z" fill="#57565C"/>
<path d="M14.3623 22.3186C14.0967 22.3433 13.8616 22.1479 13.8369 21.8823L13.7627 21.084C13.738 20.8186 13.9334 20.5833 14.199 20.5586C14.4646 20.5339 14.6997 20.7292 14.7244 20.9949L14.7986 21.7932C14.8232 22.0586 14.6279 22.2939 14.3623 22.3186Z" fill="#57565C"/>
<path d="M18.564 20.9595C18.4709 21.1274 18.3159 21.1611 18.2522 21.167C18.1885 21.1729 18.0271 21.1704 17.9072 21.0203C17.7407 20.8118 17.437 20.7778 17.2288 20.9441C17.0203 21.1106 16.9861 21.4143 17.1526 21.6228C17.4392 21.9819 17.8835 22.1711 18.3413 22.1287C18.7991 22.0862 19.2009 21.8186 19.4167 21.4128C19.542 21.1772 19.4526 20.8848 19.217 20.7598C19.1309 20.7139 18.7581 20.6089 18.564 20.9595Z" fill="#57565C"/>
<path d="M1.96412 14.4045C2.99244 14.2168 3.84693 13.6299 4.39747 12.8328C2.55714 12.4458 1.0547 11.9492 0.0383446 11.562L0.555922 14.3953C1.00783 14.4841 1.48341 14.4924 1.96412 14.4045Z" fill="#7FB762"/>
</g>
<defs>
<clipPath id="clip0_17_2335">
<rect width="32" height="32" fill="white"/>
</clipPath>
</defs>
</svg>
