<svg width="32" height="32" viewBox="0 0 32 32" fill="none" xmlns="http://www.w3.org/2000/svg">
<g clip-path="url(#clip0_17_2355)">
<path d="M31.9995 12.6841L21.6606 2.34456C20.1594 0.843397 18.1234 0 16.0004 0C13.8774 0 11.8413 0.843397 10.3401 2.34456L0.000571039 12.6841V28.1368H32L31.9995 12.6841Z" fill="#FFB357"/>
<path d="M24.6921 0H7.30784C6.24102 0 5.37625 0.864773 5.37625 1.93159V28.1368H26.6237V1.93159C26.6237 0.864773 25.759 0 24.6921 0Z" fill="#B9F0FF"/>
<path d="M10.8776 7.73788C10.8776 5.94749 11.7968 4.37254 13.1884 3.45677C13.3915 1.51424 15.0339 0 17.0302 0H7.30784C6.24102 0 5.37625 0.864773 5.37625 1.93159V28.1368H13.167V12.0053C11.7873 11.0875 10.8776 9.51913 10.8776 7.73788Z" fill="#7CE3FF"/>
<path d="M16 1.62117C12.6252 1.62117 9.88329 4.36809 9.88329 7.73787C9.88329 10.1663 11.3231 12.3665 13.5522 13.3435C14.8294 13.9019 16.2259 13.9919 17.5064 13.6675C18.0235 13.5365 18.3364 13.0112 18.2054 12.494C18.0743 11.977 17.5491 11.6642 17.0319 11.795C16.1721 12.0131 15.2129 11.9615 14.3267 11.574C12.8008 10.9052 11.8148 9.39949 11.8148 7.73787C11.8148 5.42621 13.6995 3.55276 15.9999 3.55276C18.3069 3.55276 20.185 5.43259 20.185 7.73787C20.185 8.22959 20.1003 8.71075 19.9331 9.16828C19.8175 9.48493 19.5593 9.4897 19.4161 9.4642C19.2704 9.43845 19.026 9.34412 19.026 9.00184V5.78059C19.026 5.24722 18.5936 4.8148 18.0602 4.8148C17.8116 4.8148 17.5857 4.90958 17.4145 5.06385C16.992 4.83946 16.5106 4.71172 15.9999 4.71172C14.3312 4.71172 12.9737 6.06924 12.9737 7.73787C12.9737 9.40651 14.3312 10.764 15.9999 10.764C16.5479 10.764 17.0618 10.6168 17.5057 10.3611C18.5461 11.8932 21.0458 11.7516 21.7473 9.8312C21.9923 9.16068 22.1165 8.45636 22.1165 7.73787C22.1167 4.36294 19.3696 1.62117 16 1.62117ZM16 8.83244C15.3964 8.83244 14.9054 8.34143 14.9054 7.73787C14.9054 7.13432 15.3964 6.64331 16 6.64331C16.6035 6.64331 17.0946 7.13432 17.0946 7.73787C17.0946 8.34143 16.6035 8.83244 16 8.83244Z" fill="#4293DD"/>
<path d="M21.6608 23.0238C20.1596 24.5249 18.1235 25.3683 16.0005 25.3683C13.8775 25.3683 11.8415 24.5249 10.3402 23.0238L0.000571039 12.6841V28.1368C0.000571039 30.2704 1.72961 32 3.86318 32H28.1368C30.2704 32 32 30.2704 32 28.1368L31.9995 12.6841L21.6608 23.0238Z" fill="#FFCE71"/>
<path d="M21.6607 17.7971C20.1595 16.296 18.1234 15.4526 16.0004 15.4526C13.8774 15.4526 11.8414 16.296 10.3401 17.7971L0.000571039 28.1368C0.000571039 30.2704 1.72961 32 3.86318 32H28.1368C30.2704 32 32 30.2704 32 28.1368L21.6607 17.7971Z" fill="#FCE3A0"/>
<path d="M5.37625 28.1368L5.37626 22.7608H0L0.000571039 28.1368C0.000571039 30.2704 1.72961 32 3.86318 32H9.23944C7.10587 32 5.37625 30.2704 5.37625 28.1368Z" fill="#FFCE71"/>
<path d="M10.8776 25.2383C9.83378 25.2383 8.98755 25.9122 8.98755 26.7435C8.98755 27.5747 9.83371 28.2486 10.8776 28.2486C11.9214 28.2486 12.7677 27.5747 12.7677 26.7435C12.7677 25.9122 11.9215 25.2383 10.8776 25.2383Z" fill="#FF8E9E"/>
<path d="M21.1224 25.2383C20.0785 25.2383 19.2323 25.9122 19.2323 26.7435C19.2323 27.5747 20.0785 28.2486 21.1224 28.2486C22.1662 28.2486 23.0124 27.5747 23.0124 26.7435C23.0124 25.9122 22.1662 25.2383 21.1224 25.2383Z" fill="#FF8E9E"/>
<path d="M11.9791 24.039C11.7124 24.039 11.4962 24.2552 11.4962 24.5219V25.2945C11.4962 25.5613 11.7124 25.7774 11.9791 25.7774C12.2459 25.7774 12.462 25.5613 12.462 25.2945V24.5219C12.462 24.2552 12.2458 24.039 11.9791 24.039Z" fill="#313D40"/>
<path d="M20.0208 24.039C19.754 24.039 19.5379 24.2552 19.5379 24.5219V25.2945C19.5379 25.5613 19.754 25.7774 20.0208 25.7774C20.2875 25.7774 20.5037 25.5613 20.5037 25.2945V24.5219C20.5037 24.2552 20.2875 24.039 20.0208 24.039Z" fill="#313D40"/>
<path d="M17.3773 24.9075C17.1763 24.7323 16.8711 24.7532 16.696 24.9544C16.5203 25.156 16.2666 25.2717 16 25.2717C15.7334 25.2717 15.4797 25.156 15.304 24.9544C15.1288 24.7532 14.8237 24.7324 14.6227 24.9075C14.4216 25.0827 14.4006 25.3878 14.5758 25.5888C14.935 26.001 15.4541 26.2374 15.9999 26.2374C16.5457 26.2374 17.0649 26.001 17.424 25.5888C17.5993 25.3878 17.5784 25.0826 17.3773 24.9075Z" fill="#313D40"/>
</g>
<defs>
<clipPath id="clip0_17_2355">
<rect width="32" height="32" fill="white"/>
</clipPath>
</defs>
</svg>
