<svg width="32" height="32" viewBox="0 0 32 32" fill="none" xmlns="http://www.w3.org/2000/svg">
<g clip-path="url(#clip0_17_2785)">
<path d="M21.6784 4.57106H5.82162C2.62605 4.57106 0.035553 7.16156 0.035553 10.3571V26.2139C0.035553 29.4094 2.62605 32 5.82162 32H9.40137L11.5999 30.4338L13.9243 32H21.6784C24.8739 32 27.4645 29.4095 27.4645 26.2139V10.3571C27.4645 7.16156 24.8739 4.57106 21.6784 4.57106Z" fill="#5871A5"/>
<path d="M7.9173 12.4374C7.9173 9.65494 8.4613 6.99994 9.44655 4.57106H5.82162C2.62605 4.57106 0.035553 7.16156 0.035553 10.3571V26.2139C0.035553 29.4094 2.62605 32 5.82162 32H9.40137L11.5999 30.4338L13.9243 32H20.8161C13.1219 28.9878 7.9173 21.3658 7.9173 12.4374Z" fill="#39599A"/>
<path d="M18.1032 8.16756H16.245C12.4654 8.16756 9.40137 11.2316 9.40137 15.0112V17.0556H6.87718C6.3848 17.0556 5.98568 17.4547 5.98568 17.9471V20.687C5.98568 21.1794 6.3848 21.5785 6.87718 21.5785H9.40137V32H13.9243V21.5784H16.5668C17.0104 21.5784 17.3866 21.2522 17.4493 20.8131L17.8407 18.0731C17.9175 17.5361 17.5007 17.0556 16.9582 17.0556H13.9243V15.0112C13.9243 13.7295 14.9633 12.6906 16.2449 12.6906H18.0585C19.3266 12.6906 20.3884 11.6528 20.3642 10.385C20.3407 9.15631 19.3374 8.16756 18.1032 8.16756Z" fill="#ECEBFF"/>
<path d="M23.9972 15.9345C28.3974 15.9345 31.9644 12.3674 31.9644 7.96725C31.9644 3.56706 28.3974 0 23.9972 0C19.597 0 16.0299 3.56706 16.0299 7.96725C16.0299 12.3674 19.597 15.9345 23.9972 15.9345Z" fill="#53D2FF"/>
<path d="M21.0085 5.2445C21.0085 3.34131 21.5988 1.57625 22.6056 0.121375C18.8689 0.779625 16.0299 4.04181 16.0299 7.96725C16.0299 12.3674 19.597 15.9345 23.9972 15.9345C25.8754 15.9345 27.6015 15.2843 28.9634 14.1971C24.4842 13.6724 21.0085 9.86462 21.0085 5.2445Z" fill="#00C1FD"/>
<path d="M21.9226 11.1266L19.7532 8.95719C19.1542 8.35819 19.1542 7.387 19.7532 6.788C20.3522 6.189 21.3234 6.18894 21.9224 6.788L23.0072 7.87275L26.0721 4.80788C26.6711 4.20888 27.6422 4.20888 28.2412 4.80788C28.8402 5.40688 28.8402 6.37806 28.2412 6.97706L24.0918 11.1266C23.4927 11.7256 22.5216 11.7256 21.9226 11.1266Z" fill="#ECEBFF"/>
<path d="M8.39624 17.0555L6.87718 17.0556C6.3848 17.0556 5.98568 17.4547 5.98568 17.9471V20.687C5.98568 21.1794 6.3848 21.5785 6.87718 21.5785H9.40137V32H13.9243V27.4441C11.1892 24.6656 9.24555 21.0802 8.39624 17.0555Z" fill="#D1D0FF"/>
<path d="M21.0771 6.35913C20.6091 6.28556 20.1138 6.42738 19.7532 6.788C19.1542 7.387 19.1542 8.35819 19.7532 8.95719L21.9226 11.1266C22.3545 11.5585 22.9794 11.6773 23.5193 11.4864C22.2066 10.1188 21.3211 8.33831 21.0771 6.35913Z" fill="#D1D0FF"/>
</g>
<defs>
<clipPath id="clip0_17_2785">
<rect width="32" height="32" fill="white"/>
</clipPath>
</defs>
</svg>
