<svg width="32" height="32" viewBox="0 0 32 32" fill="none" xmlns="http://www.w3.org/2000/svg">
<g clip-path="url(#clip0_17_2438)">
<path d="M3.56137 5.91258C6.52931 5.2849 6.50594 9.90902 6.07675 13.5758C5.59194 16.3556 2.55356 18.9563 0 18.0545V10.2969C0 8.13771 1.52762 6.3354 3.56137 5.91258Z" fill="#FFAF1E"/>
<path d="M15.6781 0.857898L8.22031 2.00402C5.08856 2.62465 5.19781 3.88809 5.37056 5.01009L6.62931 13.1306C6.86269 14.6361 7.67844 15.9897 8.90056 16.8993C14.4675 17.92 20.9375 0.283585 15.6781 0.857898Z" fill="#7BDFFC"/>
<path d="M8.22031 2.00402L5.94031 2.35446C4.36169 2.59752 3.27825 4.07402 3.52131 5.65271C3.59744 6.14809 4.73769 13.5655 4.73925 13.5758L7.27275 16C7.798 16.5106 8.34475 16.7974 8.90056 16.8993L7.02644 4.80858C6.85369 3.68658 7.35137 2.61671 8.22031 2.00402Z" fill="#1ECDFA"/>
<path d="M32 15.6302V23.3878C30.9666 25.9881 23.6929 21.6458 24.8781 18.9091C25.9573 15.2199 27.2701 10.6666 29.4808 11.6021C30.9721 12.3288 32 13.8596 32 15.6302Z" fill="#FFAF1E"/>
<path d="M27.0222 20.8485L30.8687 6.3884C31.2792 4.84465 30.3612 3.26077 28.8174 2.84965L20.9919 0.767523C17.7455 -0.0754149 17.642 1.1579 17.3616 2.2124L15.3986 10.2012L16.3293 13.2258L19.2453 18.9091L27.0222 20.8485Z" fill="#727BEB"/>
<path d="M20.9919 0.767523L18.4766 0.0984231C16.9288 -0.314327 15.3466 0.612423 14.9379 2.14899L14.4776 3.87892L13.5234 7.75774L16.3293 13.2258L18.8828 2.83361C19.1632 1.77911 19.9964 1.01177 20.9919 0.767523Z" fill="#5A6CD9"/>
<path d="M20.8653 3.87877H13.0954C10.5555 3.87877 9.58269 5.36252 9.58269 6.52971V20.8485H23.7576V6.77108C23.7576 5.17365 22.4627 3.87877 20.8653 3.87877Z" fill="#F0EDFF"/>
<path d="M13.0954 3.87877C11.6131 3.87877 10.4383 3.87877 10.165 3.87877C8.56756 3.87877 7.27269 5.17365 7.27269 6.77108V20.8485H11.4586V6.52977C11.4586 5.36259 12.1268 4.35421 13.0954 3.87877Z" fill="#DCDBFF"/>
<path d="M32 27.5213V23.3878C32 20.9263 30.0063 18.9091 27.5213 18.9091C26.8687 18.9091 15.0486 18.9091 14.4569 18.9091C13.3295 18.9091 12.3068 18.2504 11.8401 17.2245L11.3752 16.2011C10.6671 14.6431 9.10719 13.5758 7.27519 13.5758C4.33138 13.5758 2.90913 15.9081 2.90913 17.7075V27.5342C2.90913 29.6533 3.63637 32 8.08319 32H27.5214C29.9947 32 32 29.9947 32 27.5213Z" fill="#FADE65"/>
<path d="M4.8485 27.5342V17.7075C4.8485 15.9081 5.83431 14.3485 7.27519 13.5758C6.06644 13.5758 6.557 13.5758 4.47869 13.5758C2.00531 13.5758 0 15.5811 0 18.0545L0 27.5213C0 29.9947 2.00531 32 4.47869 32H8.08319C6.21525 31.4402 4.8485 29.6533 4.8485 27.5342Z" fill="#FFC647"/>
<path d="M8.72725 19.3739V18.9291C8.72725 18.1146 8.06719 17.4546 7.25269 17.4546H4.85531C3.48719 17.6808 2.90906 20.3852 4.8485 20.8485H7.25269C8.06725 20.8485 8.72725 20.1885 8.72725 19.3739Z" fill="#F68953"/>
<path d="M4.85531 17.4546H4.38369C3.56912 17.4546 2.90913 18.1146 2.90913 18.9291V19.3739C2.90913 20.1885 3.56919 20.8485 4.38369 20.8485L4.8485 20.8485C4.851 17.5393 4.84294 17.6941 4.85531 17.4546Z" fill="#DF6D2B"/>
<path d="M21.1432 24.4771C22.1912 24.4771 23.0406 25.1533 23.0406 25.9879C23.0406 26.8225 22.1912 27.4993 21.1432 27.4993C20.0947 27.4993 19.2453 26.8225 19.2453 25.9879C19.2453 25.1533 20.0947 24.4771 21.1432 24.4771Z" fill="#FFA1AC"/>
<path d="M10.8567 24.4771C11.9053 24.4771 12.7548 25.1533 12.7548 25.9879C12.7548 26.8225 11.9053 27.4993 10.8567 27.4993C9.80881 27.4993 8.95938 26.8225 8.95938 25.9879C8.95938 25.1533 9.80881 24.4771 10.8567 24.4771Z" fill="#FFA1AC"/>
<path d="M11.9628 25.0182C11.6951 25.0182 11.4779 24.8011 11.4779 24.5333V23.7576C11.4779 23.4898 11.695 23.2727 11.9628 23.2727C12.2306 23.2727 12.4477 23.4898 12.4477 23.7576V24.5333C12.4477 24.8011 12.2306 25.0182 11.9628 25.0182Z" fill="#25383F"/>
<path d="M20.0372 25.0182C19.7694 25.0182 19.5523 24.8011 19.5523 24.5333V23.7576C19.5523 23.4898 19.7694 23.2727 20.0372 23.2727C20.3049 23.2727 20.5221 23.4898 20.5221 23.7576V24.5333C20.522 24.8011 20.3049 25.0182 20.0372 25.0182Z" fill="#25383F"/>
<path d="M16 25.4798C15.4513 25.4798 14.9301 25.2423 14.5701 24.8282C14.3944 24.6261 14.4157 24.3199 14.6178 24.1442C14.8198 23.9686 15.1261 23.9898 15.3018 24.192C15.6707 24.6162 16.3298 24.6158 16.6982 24.192C16.8739 23.9899 17.1802 23.9686 17.3822 24.1442C17.5842 24.3199 17.6056 24.6261 17.4299 24.8282C17.0699 25.2423 16.5487 25.4798 16 25.4798Z" fill="#25383F"/>
<path d="M20.8485 8.24246C21.1162 8.24246 21.3334 8.0254 21.3334 7.75759C21.3334 7.48977 21.1163 7.27271 20.8485 7.27271H11.4586C10.6984 7.59596 10.6984 7.91915 11.4586 8.2424L20.8485 8.24246Z" fill="#DCDBFF"/>
<path d="M9.697 7.75759C9.697 8.02534 9.91406 8.24246 10.1819 8.24246L11.4586 8.2424V7.27271L10.1819 7.27277C9.91406 7.27277 9.697 7.48984 9.697 7.75759Z" fill="#C7C7F9"/>
<path d="M20.8485 10.1818H11.4586C10.4707 10.5058 10.4665 10.829 11.4586 11.1515H20.8485C21.1162 11.1515 21.3334 10.9345 21.3334 10.6666C21.3333 10.3989 21.1162 10.1818 20.8485 10.1818Z" fill="#DCDBFF"/>
<path d="M10.1818 10.1818C9.91406 10.1818 9.69694 10.3989 9.69694 10.6667C9.69694 10.9345 9.914 11.1516 10.1818 11.1516L11.4586 11.1515V10.1818H10.1818Z" fill="#C7C7F9"/>
<path d="M20.8485 14.0606H14.0606C13.7929 14.0606 13.5758 13.8436 13.5758 13.5758C13.5758 13.308 13.7928 13.0909 14.0606 13.0909H20.8485C21.1162 13.0909 21.3334 13.308 21.3334 13.5758C21.3333 13.8435 21.1162 14.0606 20.8485 14.0606Z" fill="#DCDBFF"/>
</g>
<defs>
<clipPath id="clip0_17_2438">
<rect width="32" height="32" fill="white"/>
</clipPath>
</defs>
</svg>
