<svg width="32" height="32" viewBox="0 0 32 32" fill="none" xmlns="http://www.w3.org/2000/svg">
<g clip-path="url(#clip0_17_2466)">
<path d="M13.8519 32H29.4246C30.8469 32 32 30.8469 32 29.4246V2.57544C32 1.15306 30.8469 0 29.4246 0H12.1514L0.825562 16.6439L13.8519 32Z" fill="#ECECF6"/>
<path d="M12.1514 0H2.57544C1.15306 0 0 1.15306 0 2.57544V29.4246C0 30.8469 1.15306 32 2.57544 32H13.8519C11.1944 26.8026 9.65794 20.6555 9.65794 14.0684C9.65794 9.04813 10.5504 4.2835 12.1514 0Z" fill="#E2E2F1"/>
<path d="M10.3196 21.4631L16 22.6077L28.7807 20.0323V4.50706C28.7807 3.79588 28.2041 3.21931 27.4929 3.21931H11.1084L4.51056 12.3412L10.3196 21.4631Z" fill="#A4E7FF"/>
<path d="M11.1084 3.21931H4.50706C3.79588 3.21931 3.21931 3.79588 3.21931 4.50706V20.0324L10.3196 21.4631C9.88644 19.0831 9.65794 16.6085 9.65794 14.0684C9.65794 10.2735 10.1679 6.62469 11.1084 3.21931Z" fill="#83DEFF"/>
<path d="M12.3988 28.7807H27.4929C28.2041 28.7807 28.7807 28.2041 28.7807 27.4929V20.0323L26.4424 16.2038C25.8291 15.1994 24.3804 15.1713 23.7286 16.1511L22.1758 18.4849C21.6777 19.2336 20.5851 19.2542 20.0592 18.5248L14.3561 10.6158C13.3909 8.994 11.3563 8.62625 9.90619 9.51256L5.16431 22.1167L12.3988 28.7807Z" fill="#60DAA8"/>
<path d="M9.90619 9.51256C9.48094 9.77244 9.106 10.1402 8.823 10.6158L3.21931 20.0324V27.4929C3.21931 28.2041 3.79588 28.7807 4.50706 28.7807L12.3988 28.7807C10.6426 24.3329 9.65794 19.3417 9.65794 14.0684C9.65794 12.5234 9.7425 11.0026 9.90619 9.51256Z" fill="#36D49B"/>
<path d="M23.8601 10.7369C24.4876 10.4179 24.9175 9.76619 24.9175 9.01406C24.9175 7.94725 24.0527 7.0825 22.9859 7.0825C22.9294 7.0825 22.8734 7.08494 22.818 7.08975L21.6768 7.71569L22.5567 10.737L23.8601 10.7369Z" fill="#FFEF64"/>
<path d="M22.5352 8.37025C22.5352 7.90312 22.6383 7.46556 22.818 7.08975C21.8299 7.17487 21.0543 8.00394 21.0543 9.01412C21.0543 10.0809 21.9191 10.9457 22.9859 10.9457C23.3005 10.9457 23.5976 10.8704 23.8601 10.7369C23.0852 10.3711 22.5352 9.44944 22.5352 8.37025Z" fill="#FFE54E"/>
<path d="M10.9536 26.1523C11.982 26.1523 12.8156 25.4884 12.8156 24.6695C12.8156 23.8506 11.982 23.1867 10.9536 23.1867C9.92527 23.1867 9.09163 23.8506 9.09163 24.6695C9.09163 25.4884 9.92527 26.1523 10.9536 26.1523Z" fill="white"/>
<path d="M21.0464 26.1523C22.0747 26.1523 22.9084 25.4884 22.9084 24.6695C22.9084 23.8506 22.0747 23.1867 21.0464 23.1867C20.018 23.1867 19.1844 23.8506 19.1844 24.6695C19.1844 25.4884 20.018 26.1523 21.0464 26.1523Z" fill="white"/>
<path d="M12.9251 23.5388C12.6584 23.5388 12.4422 23.3226 12.4422 23.0559C12.4422 22.8335 12.2613 22.6526 12.0388 22.6526C11.8164 22.6526 11.6354 22.8335 11.6354 23.0559C11.6354 23.3226 11.4192 23.5388 11.1526 23.5388C10.8859 23.5388 10.6697 23.3226 10.6697 23.0559C10.6697 22.301 11.2839 21.6868 12.0388 21.6868C12.7937 21.6868 13.408 22.301 13.408 23.0559C13.4079 23.3226 13.1917 23.5388 12.9251 23.5388Z" fill="#495560"/>
<path d="M20.8475 23.5388C20.5808 23.5388 20.3646 23.3226 20.3646 23.0559C20.3646 22.8335 20.1837 22.6526 19.9613 22.6526C19.7389 22.6526 19.5579 22.8335 19.5579 23.0559C19.5579 23.3226 19.3417 23.5388 19.075 23.5388C18.8083 23.5388 18.5921 23.3226 18.5921 23.0559C18.5921 22.301 19.2063 21.6868 19.9613 21.6868C20.7162 21.6868 21.3304 22.301 21.3304 23.0559C21.3304 23.3226 21.1142 23.5388 20.8475 23.5388Z" fill="#495560"/>
<path d="M16 25.003C15.5001 25.003 15.0247 24.7865 14.6958 24.4091C14.5206 24.208 14.5416 23.9029 14.7426 23.7278C14.9436 23.5526 15.2486 23.5734 15.4239 23.7745C15.5693 23.9414 15.7793 24.0372 15.9999 24.0372C16.2206 24.0372 16.4306 23.9414 16.576 23.7745C16.7512 23.5734 17.0562 23.5525 17.2573 23.7278C17.4584 23.903 17.4793 24.2081 17.3041 24.4091C16.9753 24.7865 16.4999 25.003 16 25.003Z" fill="#495560"/>
</g>
<defs>
<clipPath id="clip0_17_2466">
<rect width="32" height="32" fill="white"/>
</clipPath>
</defs>
</svg>
