<svg width="32" height="32" viewBox="0 0 32 32" fill="none" xmlns="http://www.w3.org/2000/svg">
<g clip-path="url(#clip0_17_2504)">
<path d="M22.9537 10.7001L16 7.1377L3.2515 13.3552V24.0337C3.2515 25.6339 4.54869 26.9311 6.14889 26.9311H9.62575H25.8511C27.4513 26.9311 28.7485 25.6339 28.7485 24.0337C28.7485 23.8684 28.7485 13.7659 28.7485 13.6003L22.9537 10.7001Z" fill="#EFEDFF"/>
<path d="M15.9999 9.7646L16 7.1377L3.2515 13.3552V24.0337C3.2515 25.6339 4.54869 26.9311 6.14889 26.9311H9.62575V22.1021C9.62575 17.2149 11.9851 12.8539 15.9999 9.7646Z" fill="#D4D4FF"/>
<path d="M30.774 12.1942L16.9914 5.30301L14.1327 6.84829L15.9999 9.7646L28.7909 16.1602C29.8861 16.7078 31.2178 16.2639 31.7654 15.1687C32.313 14.0735 31.8691 12.7418 30.774 12.1942Z" fill="#FF8E9E"/>
<path d="M16.9914 5.30301C16.6793 5.14701 16.3454 5.06897 15.9999 5.06897C15.6602 5.06897 15.3205 5.14701 15.0084 5.30301L1.226 12.1942C0.13079 12.7418 -0.313089 14.0735 0.234517 15.1687C0.782122 16.2638 2.11382 16.7078 3.20904 16.1602L15.9999 9.7646L16 7.83546C15.9999 6.89664 16.354 5.9924 16.9914 5.30301Z" fill="#EA5B70"/>
<path d="M6.14889 26.9311L8.33802 26.931L9.62575 24.5165L8.33802 22.102H3.2515V24.0337C3.2515 25.6339 4.54869 26.9311 6.14889 26.9311Z" fill="#EA5B70"/>
<path d="M8.33802 22.102V26.931H16L17.2877 24.5165L16 22.102H8.33802Z" fill="#FCE3A0"/>
<path d="M8.33802 22.102L9.62575 22.1021V26.9311L8.33802 26.931V22.102Z" fill="#FFCE71"/>
<path d="M16 26.931H23.662L24.9497 24.5165L23.662 22.102H16V26.931Z" fill="#88C5FD"/>
<path d="M23.662 26.931L25.8511 26.9311C27.4513 26.9311 28.7485 25.6339 28.7485 24.0337C28.7485 23.9307 28.7485 23.2044 28.7485 22.102H23.662V26.931Z" fill="#C9AAF2"/>
<path d="M26.8169 22.102V19.0364C26.8169 18.503 26.3845 18.0706 25.8511 18.0706H6.14889C5.61551 18.0706 5.18309 18.503 5.18309 19.0364V22.102C5.18309 22.6354 5.61551 23.0678 6.14889 23.0678H25.8511C26.3845 23.0678 26.8169 22.6354 26.8169 22.102Z" fill="#7CE3FF"/>
<path d="M6.14889 18.0706C5.61551 18.0706 5.18309 18.503 5.18309 19.0364V22.102C5.18309 22.6354 5.61551 23.0678 6.14889 23.0678L9.62575 23.0678L9.62575 22.1021C9.62575 20.7098 9.81794 19.3602 10.1847 18.0705L6.14889 18.0706Z" fill="#55DAFE"/>
<path d="M10.1461 21.614C10.3325 21.429 10.3378 21.1218 10.1461 20.9315C9.95785 20.7418 9.65073 20.7431 9.46362 20.9315L7.32716 23.0678H8.69247L10.1461 21.614Z" fill="#B9F0FF"/>
<path d="M6.67698 21.1865C6.67698 21.4535 6.89268 21.6694 7.15988 21.6694C7.42361 21.6694 7.64213 21.456 7.64213 21.1865C7.64213 20.9193 7.42644 20.7036 7.15924 20.7036C6.89281 20.7036 6.67698 20.9194 6.67698 21.1865Z" fill="#B9F0FF"/>
<path d="M11.1711 20.39C11.4378 20.39 11.654 20.1738 11.654 19.9071C11.654 19.6404 11.4378 19.4242 11.1711 19.4242C10.9045 19.4242 10.6883 19.6404 10.6883 19.9071C10.6883 20.1738 10.9045 20.39 11.1711 20.39Z" fill="#B9F0FF"/>
<path d="M8.18362 19.4789C7.99632 19.6677 7.99465 19.9718 8.18362 20.1621C8.37221 20.3506 8.67714 20.3517 8.86676 20.1621L10.9584 18.0705H9.5922L8.18362 19.4789Z" fill="#B9F0FF"/>
<path d="M23.8604 20.9315C23.6721 20.7418 23.365 20.7431 23.1779 20.9315L21.0414 23.0678H22.4068L23.8604 21.6139C24.0467 21.429 24.0521 21.1218 23.8604 20.9315Z" fill="#B9F0FF"/>
<path d="M21.3564 21.1865C21.3564 20.9193 21.1407 20.7036 20.8735 20.7036C20.607 20.7036 20.3913 20.9194 20.3913 21.1865C20.3913 21.4535 20.607 21.6694 20.8742 21.6694C21.138 21.6694 21.3564 21.456 21.3564 21.1865Z" fill="#B9F0FF"/>
<path d="M24.8854 20.39C25.1521 20.39 25.3683 20.1738 25.3683 19.9071C25.3683 19.6404 25.1521 19.4242 24.8854 19.4242C24.6187 19.4242 24.4025 19.6404 24.4025 19.9071C24.4025 20.1738 24.6187 20.39 24.8854 20.39Z" fill="#B9F0FF"/>
<path d="M21.8979 19.4789C21.7106 19.6677 21.7089 19.9718 21.8979 20.1621C22.0865 20.3506 22.3914 20.3517 22.581 20.1621L24.6726 18.0705H23.3065L21.8979 19.4789Z" fill="#B9F0FF"/>
<path d="M17.286 17.1636C15.8737 16.7284 14.281 17.023 13.1026 18.0705V26.931H15.6781H18.8974V18.0705C18.4187 17.645 17.8675 17.3429 17.286 17.1636Z" fill="#D6948C"/>
<path d="M17.286 17.1636C15.8737 16.7284 14.281 17.023 13.1026 18.0705V26.931H15.6781V19.3593C15.6781 18.3618 16.3169 17.4674 17.2687 17.1691C17.2745 17.1672 17.2803 17.1654 17.286 17.1636Z" fill="#CE857A"/>
<path d="M11.158 14.4663C10.269 14.4663 9.54836 15.0402 9.54836 15.7481C9.54836 16.4561 10.269 17.03 11.158 17.03C12.047 17.03 12.7677 16.4561 12.7677 15.7481C12.7677 15.0402 12.047 14.4663 11.158 14.4663Z" fill="#FFB5C0"/>
<path d="M20.842 14.4663C19.953 14.4663 19.2323 15.0402 19.2323 15.7481C19.2323 16.4561 19.953 17.03 20.842 17.03C21.731 17.03 22.4516 16.4561 22.4516 15.7481C22.4516 15.0402 21.731 14.4663 20.842 14.4663Z" fill="#FFB5C0"/>
<path d="M11.9791 13.43C11.7124 13.43 11.4962 13.6461 11.4962 13.9129V14.6855C11.4962 14.9523 11.7124 15.1684 11.9791 15.1684C12.2459 15.1684 12.462 14.9523 12.462 14.6855V13.9129C12.462 13.6461 12.2458 13.43 11.9791 13.43Z" fill="#313D40"/>
<path d="M20.0208 13.43C19.754 13.43 19.5379 13.6461 19.5379 13.9129V14.6855C19.5379 14.9523 19.754 15.1684 20.0208 15.1684C20.2875 15.1684 20.5037 14.9523 20.5037 14.6855V13.9129C20.5037 13.6461 20.2875 13.43 20.0208 13.43Z" fill="#313D40"/>
<path d="M17.3773 14.2984C17.1763 14.1232 16.8711 14.1441 16.696 14.3453C16.3273 14.7683 15.6724 14.7679 15.304 14.3453C15.1288 14.1442 14.8238 14.1233 14.6228 14.2984C14.4217 14.4736 14.4007 14.7787 14.5759 14.9797C15.3293 15.8445 16.6714 15.8437 17.4241 14.9797C17.5993 14.7787 17.5784 14.4736 17.3773 14.2984Z" fill="#313D40"/>
</g>
<defs>
<clipPath id="clip0_17_2504">
<rect width="32" height="32" fill="white"/>
</clipPath>
</defs>
</svg>
