<svg width="32" height="32" viewBox="0 0 32 32" fill="none" xmlns="http://www.w3.org/2000/svg">
<g clip-path="url(#clip0_17_2517)">
<path d="M16 32C24.8366 32 32 24.8366 32 16C32 7.16344 24.8366 0 16 0C7.16344 0 0 7.16344 0 16C0 24.8366 7.16344 32 16 32Z" fill="#50E2CE"/>
<path d="M16 28.7807C23.0586 28.7807 28.7807 23.0586 28.7807 16C28.7807 8.94142 23.0586 3.21932 16 3.21932C8.94142 3.21932 3.21932 8.94142 3.21932 16C3.21932 23.0586 8.94142 28.7807 16 28.7807Z" fill="#4487DA"/>
<path d="M5.15091 16C5.15091 9.27762 10.3679 3.75089 16.9658 3.25557C16.647 3.23161 16.3249 3.21932 16 3.21932C8.95272 3.21932 3.21932 8.95272 3.21932 16C3.21932 23.0472 8.95272 28.7807 16 28.7807C16.3249 28.7807 16.647 28.7683 16.9658 28.7444C10.3679 28.249 5.15091 22.7224 5.15091 16Z" fill="#006AD0"/>
<path d="M22.5832 15.1952H9.41676C8.94757 15.1952 8.56724 15.5755 8.56724 16.0447V17.243C8.56724 17.7122 8.94757 18.0926 9.41676 18.0926H22.5832C23.0524 18.0926 23.4327 17.7122 23.4327 17.243V16.0447C23.4327 15.5755 23.0524 15.1952 22.5832 15.1952Z" fill="white"/>
<path d="M22.5832 9.76412H9.41676C8.94757 9.76412 8.56724 10.1445 8.56724 10.6136V11.812C8.56724 12.2812 8.94757 12.6615 9.41676 12.6615H22.5832C23.0524 12.6615 23.4327 12.2812 23.4327 11.812V10.6136C23.4327 10.1445 23.0524 9.76412 22.5832 9.76412Z" fill="white"/>
<path d="M22.5832 23.5237H9.41676C8.94757 23.5237 8.56724 23.1433 8.56724 22.6742V21.4758C8.56724 21.0066 8.94757 20.6263 9.41676 20.6263H22.5832C23.0524 20.6263 23.4327 21.0066 23.4327 21.4758V22.6742C23.4327 23.1433 23.0524 23.5237 22.5832 23.5237Z" fill="white"/>
<path d="M11.4259 7.57769C11.1592 7.57769 10.943 7.36148 10.943 7.09479V6.21579C10.943 5.9491 11.1592 5.73289 11.4259 5.73289C11.6926 5.73289 11.9088 5.9491 11.9088 6.21579V7.09473C11.9088 7.36148 11.6926 7.57769 11.4259 7.57769Z" fill="#423E4F"/>
<path d="M20.5741 7.57769C20.3074 7.57769 20.0912 7.36148 20.0912 7.09479V6.21579C20.0912 5.9491 20.3074 5.73289 20.5741 5.73289C20.8409 5.73289 21.057 5.9491 21.057 6.21579V7.09473C21.057 7.36148 20.8408 7.57769 20.5741 7.57769Z" fill="#423E4F"/>
<path d="M16 8.10089C15.3982 8.10089 14.826 7.84026 14.43 7.38588C14.2547 7.18481 14.2757 6.87981 14.4768 6.70455C14.678 6.52942 14.9828 6.55028 15.1581 6.75136C15.3707 6.99525 15.6775 7.1351 16 7.1351C16.3225 7.1351 16.6293 6.99525 16.8419 6.75136C17.017 6.55028 17.322 6.52935 17.5232 6.70455C17.7242 6.87974 17.7452 7.18481 17.57 7.38588C17.174 7.84026 16.6018 8.10089 16 8.10089Z" fill="#423E4F"/>
</g>
<defs>
<clipPath id="clip0_17_2517">
<rect width="32" height="32" fill="white"/>
</clipPath>
</defs>
</svg>
