<svg width="32" height="32" viewBox="0 0 32 32" fill="none" xmlns="http://www.w3.org/2000/svg">
<g clip-path="url(#clip0_17_2548)">
<mask id="mask0_17_2548" style="mask-type:luminance" maskUnits="userSpaceOnUse" x="0" y="0" width="32" height="32">
<path d="M0 1.90735e-06H32V32H0V1.90735e-06Z" fill="white"/>
</mask>
<g mask="url(#mask0_17_2548)">
<path d="M30.7758 3.5547L31.5174 2.81314C32.1609 2.16957 32.1609 1.1262 31.5174 0.482635C30.8738 -0.160865 29.8304 -0.160865 29.1869 0.482635L28.4453 1.2242C27.3266 2.34295 25.5992 2.57839 24.2219 1.79989C22.8446 1.02139 21.1172 1.25689 19.9985 2.37557L19.4953 2.87882L29.1212 12.5048L29.6244 12.0015C30.7431 10.8828 30.9786 9.15539 30.2001 7.77814C29.4216 6.40089 29.6571 4.67339 30.7758 3.5547Z" fill="#FFF2B4"/>
<path d="M24.8512 5.31405C25.6577 4.50755 26.9653 4.50755 27.7719 5.31405L30.1584 7.70062C29.4314 6.33649 29.6779 4.65262 30.7758 3.55474L31.5174 2.81318C32.1609 2.16962 32.1609 1.12624 31.5174 0.482678C30.8738 -0.160822 29.8304 -0.160884 29.1869 0.482678L28.4453 1.22424C27.3266 2.34293 25.5992 2.57843 24.2219 1.79993C22.8446 1.02143 21.1172 1.25693 19.9985 2.37562L19.4953 2.87887L24.8512 8.23474C24.0447 7.42818 24.0447 6.12055 24.8512 5.31405Z" fill="#FFDF8E"/>
<path d="M25.5725 15.5468L16.4532 6.42747C15.334 5.30828 15.334 3.49365 16.4532 2.37447C17.5725 1.25522 19.387 1.25522 20.5062 2.37447L29.6255 11.4938C30.7448 12.613 30.7448 14.4276 29.6255 15.5468C28.5063 16.666 26.6917 16.666 25.5725 15.5468Z" fill="#B0D8FD"/>
<path d="M20.0955 6.0167C21.2147 4.89751 23.0293 4.89751 24.1485 6.0167L20.5063 2.37445C19.387 1.25526 17.5725 1.25526 16.4532 2.37445C15.334 3.4937 15.334 5.30826 16.4532 6.42751L20.0955 10.0697C18.9763 8.95051 18.9763 7.13589 20.0955 6.0167Z" fill="#9CCEFD"/>
<path d="M27.0493 20.2218C27.4684 19.8027 27.6882 19.3081 27.7906 18.8211C28.0181 17.738 27.6535 16.6146 26.8709 15.832L16.1681 5.12919C15.3855 4.34656 14.2621 3.98194 13.1789 4.2095C12.6919 4.31187 12.1974 4.53162 11.7782 4.95075C10.3811 6.34793 9.55319 8.573 6.99181 11.1344C4.43037 13.6958 2.20531 14.5237 0.808125 15.9209C0.389 16.34 0.169188 16.8346 0.0668759 17.3216C-0.160687 18.4047 0.203938 19.5281 0.986563 20.3107L11.6894 31.0136C12.4719 31.7961 13.5954 32.1607 14.6785 31.9332C15.1655 31.8309 15.6601 31.6111 16.0792 31.1919C17.4763 29.7948 18.3042 27.5697 20.8657 25.0083C23.4271 22.4469 25.6522 21.6189 27.0493 20.2218Z" fill="#F7F0EB"/>
<path d="M3.70913 20.9638C3.81144 20.4768 4.03125 19.9822 4.45038 19.5631C5.8475 18.1659 8.07256 17.338 10.634 14.7766C13.1954 12.2151 14.0234 9.99007 15.4205 8.59295C15.8396 8.17382 16.3342 7.95401 16.8212 7.8517C17.9043 7.62413 19.0277 7.9887 19.8103 8.77132L16.1681 5.12907C15.3855 4.34651 14.2621 3.98188 13.1789 4.20945C12.6919 4.31176 12.1974 4.53157 11.7783 4.9507C10.3811 6.34782 9.55319 8.57295 6.99175 11.1343C4.43031 13.6958 2.20525 14.5237 0.808126 15.9208C0.389001 16.3399 0.169189 16.8345 0.0668764 17.3215C-0.160686 18.4046 0.203939 19.5281 0.986501 20.3106L4.62875 23.9529C3.84613 23.1703 3.48156 22.0469 3.70913 20.9638Z" fill="#EFE2DD"/>
<path d="M11.2178 15.9807C10.6004 16.5982 9.47135 16.4702 8.69604 15.6949C7.92079 14.9196 7.79279 13.7906 8.41017 13.1731C9.0276 12.5557 10.1566 12.6837 10.9319 13.459C11.7072 14.2343 11.8352 15.3633 11.2178 15.9807Z" fill="#FDA0C1"/>
<path d="M16.0193 20.7822C15.4019 21.3997 15.5299 22.5287 16.3052 23.304C17.0805 24.0792 18.2095 24.2072 18.8269 23.5899C19.4443 22.9724 19.3163 21.8434 18.5411 21.0681C17.7658 20.2928 16.6368 20.1648 16.0193 20.7822Z" fill="#FDA0C1"/>
<path d="M12.2684 13.7588L11.7221 14.3051" stroke="#6E6E6E" stroke-miterlimit="10" stroke-linecap="round" stroke-linejoin="round"/>
<path d="M13.9244 16.5009C13.8962 16.912 14.0388 17.3326 14.3531 17.6469C14.6674 17.9612 15.088 18.1038 15.4991 18.0755" stroke="#6E6E6E" stroke-miterlimit="10" stroke-linecap="round" stroke-linejoin="round"/>
<path d="M17.1825 19.7351C17.5322 19.3854 18.099 19.3854 18.4487 19.7351C18.7984 20.0848 18.7984 20.6517 18.4487 21.0013" stroke="#6E6E6E" stroke-miterlimit="10" stroke-linecap="round" stroke-linejoin="round"/>
</g>
</g>
<defs>
<clipPath id="clip0_17_2548">
<rect width="32" height="32" fill="white"/>
</clipPath>
</defs>
</svg>
