<svg width="32" height="32" viewBox="0 0 32 32" fill="none" xmlns="http://www.w3.org/2000/svg">
<g clip-path="url(#clip0_17_2575)">
<path d="M25.1044 4.12663L23.7576 3.87881C23.7576 1.73638 22.0212 0 19.8788 0H14.3509C7.7895 1.47606 3.631 29.231 11.9518 32H27.6364C24.9579 2.51375 25.1104 4.19281 25.1044 4.12663Z" fill="#F0F0F9"/>
<path d="M14.3509 0H3.87881C1.73638 0 0 1.73638 0 3.87881V28.1213C0 30.2636 1.73638 32 3.87881 32H11.9518C9.50725 22.5864 10.5081 9.37794 14.3509 0Z" fill="#D7D7F9"/>
<path d="M32 10.0202V27.8787C32 30.155 30.155 32 27.8788 32C25.6041 32 23.7576 30.1562 23.7576 27.8788L23.7576 3.87881H25.1314C25.8457 3.87881 26.4243 4.45738 26.4243 5.17175V6.30306L29.3334 8.72731H30.7071C31.4214 8.72725 32 9.30587 32 10.0202Z" fill="#D7D7F9"/>
<path d="M21.3333 22.303V23.7576C21.3333 24.2928 20.8989 24.7272 20.3636 24.7272H13.0909C12.5557 24.7272 12.1213 24.2928 12.1213 23.7576V22.303C12.1213 21.7677 12.5557 21.3333 13.0909 21.3333H20.3637C20.8989 21.3333 21.3333 21.7677 21.3333 22.303Z" fill="#88CF71"/>
<path d="M9.21212 17.4546V23.7576C9.21212 24.2928 8.77769 24.7272 8.24244 24.7272H3.39394C2.85869 24.7272 2.42425 24.2928 2.42425 23.7576V17.4546C2.42425 16.9193 2.85869 16.4849 3.39394 16.4849H8.24244C8.77769 16.4849 9.21212 16.9193 9.21212 17.4546Z" fill="#02C6F9"/>
<path d="M19.3939 2.42425H13.4489C10.4081 2.79594 8.96969 9.77781 11.5107 10.1818H19.3939C20.4651 10.1818 21.3333 9.31363 21.3333 8.24244V4.36363C21.3333 3.29244 20.4651 2.42425 19.3939 2.42425Z" fill="#F97A6E"/>
<path d="M4.36363 2.42425C3.29244 2.42425 2.42425 3.29244 2.42425 4.36363V8.24244C2.42425 9.31363 3.29244 10.1818 4.36363 10.1818H11.5107C11.9785 7.47937 12.6276 4.85687 13.4489 2.42425H4.36363Z" fill="#F85C5C"/>
<path d="M29.3333 28.1212C29.3333 28.9247 28.6823 29.5758 27.8787 29.5758C27.0811 29.5758 26.4242 28.9302 26.4242 28.1212L26.4243 6.30306L28.0404 6.303C28.7547 6.303 29.3333 6.88156 29.3333 7.59594V28.1212Z" fill="#B6C4F9"/>
<path d="M7.27275 4.36363C7.005 4.36363 6.78788 4.58069 6.78788 4.8485V6.15625L5.73675 4.57956C5.61825 4.40175 5.39738 4.32263 5.19287 4.38444C4.98837 4.44637 4.8485 4.63481 4.8485 4.8485V7.75756C4.8485 8.02531 5.06556 8.24244 5.33337 8.24244C5.60119 8.24244 5.81825 8.02538 5.81825 7.75756V6.44981L6.86938 8.0265C6.961 8.16387 7.11375 8.24244 7.27281 8.24244C7.53925 8.24244 7.75763 8.02637 7.75763 7.75756V4.8485C7.75756 4.58069 7.5405 4.36363 7.27275 4.36363Z" fill="#FAE380"/>
<path d="M10.1818 5.33331C10.4496 5.33331 10.6667 5.11625 10.6667 4.84844C10.6667 4.58062 10.4496 4.36356 10.1818 4.36356H9.21212C8.94438 4.36356 8.72725 4.58062 8.72725 4.84844V7.7575C8.72725 8.02525 8.94431 8.24238 9.21212 8.24238H10.1818C10.4496 8.24238 10.6667 8.02531 10.6667 7.7575C10.6667 7.48975 10.4496 7.27262 10.1818 7.27262H9.69694V6.78775H10.1818C10.4496 6.78775 10.6667 6.57069 10.6667 6.30288C10.6667 6.03513 10.4496 5.818 10.1818 5.818H9.69694V5.33313L10.1818 5.33331Z" fill="#FAE380"/>
<path d="M15.0303 4.36363C14.7626 4.36363 14.5454 4.58069 14.5454 4.8485V6.58706L13.9186 5.96019C13.7292 5.77087 13.4222 5.77087 13.2329 5.96019L12.606 6.58706V4.8485C12.606 4.58075 12.3889 4.36363 12.1211 4.36363C11.8534 4.36363 11.6362 4.58069 11.6362 4.8485V7.75756C11.6362 7.95369 11.7544 8.13044 11.9356 8.2055C12.1167 8.28056 12.3253 8.23913 12.4639 8.10038L13.5756 6.98869L14.6875 8.10044C14.8269 8.23994 15.0357 8.28019 15.2159 8.20556C15.3971 8.1305 15.5152 7.95375 15.5152 7.75763V4.8485C15.5151 4.58069 15.2981 4.36363 15.0303 4.36363Z" fill="#FAE380"/>
<path d="M18.8164 6.57013C18.6278 6.11331 18.1884 5.81819 17.6969 5.81819C17.5632 5.81819 17.4545 5.70944 17.4545 5.57575C17.4545 5.44206 17.5632 5.33331 17.6969 5.33331H18.4242C18.6919 5.33331 18.9091 5.11625 18.9091 4.84844C18.9091 4.58062 18.692 4.36356 18.4242 4.36356H17.6969C17.0286 4.36356 16.4848 4.90731 16.4848 5.57569C16.4848 6.24406 17.0286 6.78781 17.6969 6.78781C17.8416 6.78781 17.9011 6.89431 17.92 6.94006C17.9429 6.9955 17.9667 7.10313 17.8673 7.20213C17.822 7.24756 17.7616 7.27262 17.6969 7.27262H16.9697C16.7019 7.27262 16.4848 7.48969 16.4848 7.7575C16.4848 8.02525 16.7019 8.24238 16.9697 8.24238H17.6969C18.0214 8.24238 18.326 8.11588 18.5529 7.88788C18.9059 7.53662 19.0069 7.03169 18.8164 6.57013Z" fill="#FAE380"/>
<path d="M7.84163 13.8667C7.57388 13.8667 7.35675 13.6496 7.35675 13.3818V12.6061C7.35675 12.3383 7.57381 12.1212 7.84163 12.1212C8.10938 12.1212 8.3265 12.3383 8.3265 12.6061V13.3818C8.32644 13.6496 8.10938 13.8667 7.84163 13.8667Z" fill="#2F444E"/>
<path d="M15.916 13.8667C15.6483 13.8667 15.4311 13.6496 15.4311 13.3818V12.6061C15.4311 12.3383 15.6482 12.1212 15.916 12.1212C16.1838 12.1212 16.4009 12.3383 16.4009 12.6061V13.3818C16.4008 13.6496 16.1838 13.8667 15.916 13.8667Z" fill="#2F444E"/>
<path d="M11.8788 14.3282C11.3301 14.3282 10.8089 14.0908 10.4488 13.6767C10.2731 13.4746 10.2945 13.1684 10.4966 12.9927C10.6986 12.817 11.0048 12.8383 11.1806 13.0404C11.5494 13.4647 12.2084 13.4643 12.5769 13.0404C12.7527 12.8384 13.0589 12.817 13.2609 12.9927C13.463 13.1684 13.4844 13.4746 13.3087 13.6767C12.9487 14.0908 12.4275 14.3282 11.8788 14.3282Z" fill="#2F444E"/>
<path d="M20.8485 16.9697H12.1212C11.8534 16.9697 11.6363 16.7526 11.6363 16.4848C11.6363 16.217 11.8534 15.9999 12.1212 15.9999H20.8484C21.1162 15.9999 21.3333 16.217 21.3333 16.4848C21.3333 16.7526 21.1162 16.9697 20.8485 16.9697Z" fill="#D7D7F9"/>
<path d="M20.8485 19.3939H12.1212C11.8534 19.3939 11.6363 19.1769 11.6363 18.9091C11.6363 18.6413 11.8534 18.4242 12.1212 18.4242H20.8484C21.1162 18.4242 21.3333 18.6413 21.3333 18.9091C21.3333 19.1769 21.1162 19.3939 20.8485 19.3939Z" fill="#D7D7F9"/>
<path d="M20.8485 26.6667H10.9724C10.3054 26.9923 10.3522 27.3156 11.0972 27.6364H20.8485C21.1162 27.6364 21.3334 27.4193 21.3334 27.1515C21.3333 26.8837 21.1162 26.6667 20.8485 26.6667Z" fill="#D7D7F9"/>
<path d="M2.90906 26.6667C2.64131 26.6667 2.42419 26.8837 2.42419 27.1516C2.42419 27.4194 2.64125 27.6364 2.90906 27.6364L11.0972 27.6364C11.0524 27.3156 11.0108 26.9923 10.9724 26.6667H2.90906Z" fill="#B6C4F9"/>
<path d="M14.0606 30.0606C14.3284 30.0606 14.5455 29.8436 14.5455 29.5758C14.5455 29.3079 14.3284 29.0909 14.0606 29.0909H11.3256C10.5118 29.4175 10.5816 29.7408 11.5076 30.0606L14.0606 30.0606Z" fill="#D7D7F9"/>
<path d="M2.42425 29.5758C2.42425 29.8436 2.64131 30.0606 2.90913 30.0606L11.5076 30.0606C11.4433 29.7407 11.3827 29.4174 11.3256 29.0909L2.90906 29.0909C2.64131 29.0909 2.42425 29.3079 2.42425 29.5758Z" fill="#B6C4F9"/>
</g>
<defs>
<clipPath id="clip0_17_2575">
<rect width="32" height="32" fill="white"/>
</clipPath>
</defs>
</svg>
