<svg width="32" height="32" viewBox="0 0 32 32" fill="none" xmlns="http://www.w3.org/2000/svg">
<g clip-path="url(#clip0_17_2595)">
<path d="M14.9597 22.412L9.75881 24.2614C8.39431 24.7467 6.9678 23.7104 7.0076 22.2624L7.15921 16.7448C7.17239 16.2707 7.02151 15.8068 6.73245 15.4311L3.3665 11.0564C2.4832 9.90841 3.02812 8.23141 4.41728 7.82175L9.71193 6.26121C10.1668 6.12693 10.5613 5.84031 10.8294 5.4492L13.95 0.895993C14.7688 -0.298583 16.532 -0.298583 17.3508 0.895993L20.4712 5.4492C20.7392 5.84031 21.134 6.12693 21.5888 6.26121L26.8833 7.82175C28.2727 8.23141 28.8176 9.90841 27.9343 11.0564L24.5683 15.4311C24.2793 15.8068 24.1284 16.2707 24.1413 16.7448L24.2932 22.2624C24.333 23.7104 22.9065 24.7467 21.5417 24.2614L16.3411 22.412C15.8943 22.2533 15.4065 22.2533 14.9597 22.412Z" fill="#F6E06A"/>
<path d="M9.75881 24.2614L14.9597 22.412C15.4065 22.2533 15.8943 22.2533 16.3411 22.412L21.5417 24.2614C22.5529 24.621 23.5976 24.1447 24.0549 23.2851C15.9258 21.7685 11.989 11.291 11.3621 4.6721L10.8294 5.4492C10.5613 5.84031 10.1668 6.12693 9.71193 6.26121L4.41728 7.82175C3.02812 8.23141 2.4832 9.90841 3.3665 11.0564L6.73245 15.4311C7.02151 15.8068 7.17239 16.2707 7.15921 16.7448L7.0076 22.2624C6.9678 23.7104 8.39431 24.7467 9.75881 24.2614Z" fill="#F2D068"/>
<path d="M28.4089 19.6183L26.4409 17.6501C26.0161 17.2255 25.4333 16.9977 24.8332 17.0219L23.5481 17.0737C22.5722 17.113 21.6467 17.5185 20.9563 18.2092L14.6123 24.5529C13.8748 25.2904 13.8748 26.4862 14.6123 27.2235L18.8354 31.4469C19.573 32.1844 20.7685 32.1844 21.5061 31.4469L27.85 25.1029C28.5407 24.4123 28.946 23.487 28.9853 22.5111L29.0373 21.226C29.0615 20.6259 28.8337 20.0429 28.4089 19.6183Z" fill="#F8EED1"/>
<path d="M19.5495 19.6156L14.6123 24.5529C13.8748 25.2904 13.8748 26.4862 14.6123 27.2235L18.8354 31.4469C19.573 32.1844 20.7685 32.1844 21.5061 31.4469L23.5568 29.3964C20.782 27.1806 19.6179 22.6215 19.5495 19.6156Z" fill="#E8D9B3"/>
<path d="M24.8332 17.0219L23.5481 17.0737C22.5722 17.113 21.6467 17.5185 20.9563 18.2092L20.9153 18.2499C21.8459 19.7968 23.0583 21.2184 23.9497 22.1095C24.8408 23.0006 26.2624 24.2133 27.8093 25.1437L27.85 25.1029C28.5407 24.4123 28.946 23.487 28.9853 22.5111L29.0373 21.226C29.0615 20.6259 28.8337 20.0429 28.4089 19.6183L26.4409 17.6501C26.0161 17.2255 25.4333 16.9977 24.8332 17.0219Z" fill="#EB8D9A"/>
<path d="M20.247 24.486C19.8808 24.486 19.5144 24.3466 19.2356 24.0678C18.6777 23.5099 18.6777 22.6025 19.2356 22.0446C19.5056 21.7743 19.865 21.6256 20.247 21.6256C20.6291 21.6256 20.9885 21.7743 21.2588 22.0446C21.5288 22.3149 21.6777 22.674 21.6777 23.0561C21.6777 23.4384 21.5288 23.7975 21.2585 24.0678C20.9797 24.3466 20.6133 24.486 20.247 24.486ZM20.247 22.5631C20.1155 22.5631 19.9917 22.6144 19.8984 22.7074C19.706 22.8998 19.706 23.2126 19.8984 23.4047C20.0908 23.5971 20.4035 23.5971 20.5957 23.4047C20.6889 23.3117 20.7402 23.1879 20.7402 23.0561C20.7402 22.9245 20.6889 22.8007 20.5957 22.7074C20.5027 22.6144 20.3789 22.5631 20.247 22.5631Z" fill="#495059"/>
<path d="M20.2502 29.9945C19.8838 29.9945 19.5176 29.8553 19.2385 29.5763C18.6809 29.0187 18.6809 28.111 19.2385 27.5531C19.7964 26.9955 20.7038 26.9955 21.2617 27.5531C21.8196 28.111 21.8196 29.0184 21.2617 29.5763C20.9829 29.8553 20.6164 29.9945 20.2502 29.9945ZM19.9016 28.2162C19.7092 28.4083 19.7092 28.7211 19.9016 28.9135C20.0937 29.1056 20.4067 29.1056 20.5989 28.9135C20.7912 28.7211 20.7912 28.4083 20.5989 28.2162C20.4065 28.0238 20.0937 28.0238 19.9016 28.2162Z" fill="#495059"/>
<path d="M23.8491 26.2792H16.6482C16.3894 26.2792 16.1794 26.0692 16.1794 25.8104C16.1794 25.5517 16.3894 25.3417 16.6482 25.3417H23.8491C24.1079 25.3417 24.3178 25.5517 24.3178 25.8104C24.3178 26.0692 24.1079 26.2792 23.8491 26.2792Z" fill="#495059"/>
<path d="M26.1423 20.3854C26.0224 20.3854 25.9023 20.3398 25.811 20.2482C25.6279 20.0651 25.6279 19.7682 25.811 19.5854C27.0944 18.3019 27.8456 17.0485 28.0439 15.8603C28.2651 14.5336 27.7775 13.2614 26.5947 12.0786C26.4116 11.8955 26.4116 11.5986 26.5947 11.4155C26.7778 11.2326 27.0744 11.2326 27.2575 11.4155C28.6667 12.8249 29.2424 14.3723 28.9684 16.0143C28.7375 17.3993 27.8981 18.8239 26.4738 20.2482C26.3823 20.3398 26.2624 20.3854 26.1423 20.3854Z" fill="#495059"/>
<path d="M12.094 12.7873C12.094 11.8725 11.1629 11.1311 10.0142 11.1311C8.86574 11.1311 7.9346 11.8725 7.9346 12.7873C7.9346 13.7018 8.86574 14.4433 10.0142 14.4433C11.1629 14.4433 12.094 13.7018 12.094 12.7873Z" fill="#EB8D9A"/>
<path d="M23.3662 12.7873C23.3662 11.8725 22.435 11.1311 21.2866 11.1311C20.1379 11.1311 19.2068 11.8725 19.2068 12.7873C19.2068 13.7018 20.1379 14.4433 21.2866 14.4433C22.435 14.4433 23.3662 13.7018 23.3662 12.7873Z" fill="#EB8D9A"/>
<path d="M10.3618 11.3005C10.103 11.3005 9.89309 11.0908 9.89309 10.8317V9.93917C9.89309 9.68038 10.103 9.47042 10.3618 9.47042C10.6209 9.47042 10.8306 9.68038 10.8306 9.93917V10.8317C10.8306 11.0908 10.6209 11.3005 10.3618 11.3005Z" fill="#495059"/>
<path d="M15.6504 13.0214C14.8184 13.0214 14.1438 12.3469 14.1438 11.5148V10.4194C14.1438 10.1923 14.3279 10.008 14.5549 10.008H16.7458C16.9729 10.008 17.1572 10.1921 17.1572 10.4194V11.5148C17.157 12.3469 16.4824 13.0214 15.6504 13.0214Z" fill="#495059"/>
<path d="M20.9387 11.3005C20.6799 11.3005 20.4699 11.0908 20.4699 10.8317V9.93917C20.4699 9.68038 20.6799 9.47042 20.9387 9.47042C21.1977 9.47042 21.4074 9.68038 21.4074 9.93917V10.8317C21.4074 11.0908 21.1977 11.3005 20.9387 11.3005Z" fill="#495059"/>
<path d="M20.6689 3.75047C20.9843 4.80589 20.9843 5.93504 20.6689 6.99021C20.5696 7.32321 20.8755 7.62912 21.2082 7.52976C22.2636 7.21433 23.3928 7.21433 24.4482 7.52976C24.781 7.62912 25.0869 7.32297 24.9875 6.99021C24.6721 5.93504 24.6721 4.80589 24.9875 3.75047C25.0869 3.41771 24.781 3.11156 24.4482 3.21117C23.3928 3.52635 22.2636 3.52635 21.2082 3.21117C20.8755 3.11156 20.5696 3.41771 20.6689 3.75047Z" fill="#F5BE6A"/>
<path d="M3.1851 22.506C4.23173 23.0712 5.09379 23.9333 5.65873 24.9799C5.83695 25.3097 6.30423 25.3097 6.48245 24.9799C7.04739 23.9333 7.90969 23.0712 8.95608 22.506C9.28615 22.3278 9.28615 21.8605 8.95608 21.6825C7.90969 21.1173 7.04739 20.2553 6.48245 19.2087C6.30423 18.8788 5.83695 18.8788 5.65873 19.2087C5.09379 20.2553 4.23173 21.1173 3.1851 21.6825C2.85503 21.8605 2.85503 22.328 3.1851 22.506Z" fill="#80BBE6"/>
</g>
<defs>
<clipPath id="clip0_17_2595">
<rect width="32" height="32" fill="white"/>
</clipPath>
</defs>
</svg>
