<svg width="32" height="32" viewBox="0 0 32 32" fill="none" xmlns="http://www.w3.org/2000/svg">
<g clip-path="url(#clip0_17_76)">
<path d="M16 32C24.8366 32 32 24.8366 32 16C32 7.16344 24.8366 0 16 0C7.16344 0 0 7.16344 0 16C0 24.8366 7.16344 32 16 32Z" fill="#50E2CE"/>
<path d="M2.57545 16C2.57545 7.597 9.05342 0.707541 17.2877 0.0517022C16.8629 0.017835 16.4335 0 16 0C7.16344 0 0 7.16344 0 16C0 24.8366 7.16344 32 16 32C16.4335 32 16.8629 31.9822 17.2877 31.9483C9.05342 31.2925 2.57545 24.403 2.57545 16Z" fill="#00AE8E"/>
<path d="M26.8506 14.0714L25.9696 12.7892C25.5081 12.1175 24.5895 11.9471 23.9177 12.4087L12.706 20.1122L9.59614 17.0023C9.01988 16.426 8.08551 16.426 7.50925 17.0023L6.40914 18.1024C5.83289 18.6787 5.83289 19.613 6.40914 20.1893L10.8441 24.6243C11.28 25.0602 11.857 25.2844 12.4383 25.2844C12.8813 25.2844 13.3267 25.1541 13.7138 24.8881L26.4701 16.1233C27.1418 15.6618 27.3122 14.7431 26.8506 14.0714Z" fill="white"/>
<path d="M8.95459 10.7513C10.3903 10.7513 11.5542 9.82443 11.5542 8.68108C11.5542 7.53773 10.3903 6.61087 8.95459 6.61087C7.51887 6.61087 6.35499 7.53773 6.35499 8.68108C6.35499 9.82443 7.51887 10.7513 8.95459 10.7513Z" fill="#FF97C1"/>
<path d="M23.0454 10.7513C24.4811 10.7513 25.645 9.82443 25.645 8.68108C25.645 7.53773 24.4811 6.61087 23.0454 6.61087C21.6097 6.61087 20.4458 7.53773 20.4458 8.68108C20.4458 9.82443 21.6097 10.7513 23.0454 10.7513Z" fill="#FF97C1"/>
<path d="M10.4697 7.14566C10.2029 7.14566 9.98677 6.92945 9.98677 6.66276V5.65106C9.98677 5.38437 10.2029 5.16816 10.4697 5.16816C10.7364 5.16816 10.9526 5.38437 10.9526 5.65106V6.66276C10.9526 6.92951 10.7364 7.14566 10.4697 7.14566Z" fill="#423E4F"/>
<path d="M16 7.80375C15.3017 7.80375 14.6376 7.50126 14.1779 6.97388C14.0027 6.7728 14.0236 6.4678 14.2247 6.29254C14.4257 6.11734 14.7307 6.13821 14.906 6.33928C15.1822 6.65619 15.5809 6.83789 16 6.83789C16.4192 6.83789 16.8179 6.65613 17.094 6.33928C17.2692 6.13821 17.5742 6.11728 17.7753 6.29248C17.9763 6.46767 17.9973 6.77273 17.8221 6.97381C17.3625 7.50126 16.6984 7.80375 16 7.80375Z" fill="#423E4F"/>
<path d="M22.8981 7.11746C22.6313 7.11746 22.4152 6.90125 22.4152 6.63456C22.4152 6.25436 22.1059 5.94505 21.7257 5.94505C21.3455 5.94505 21.0361 6.25436 21.0361 6.63456C21.0361 6.90125 20.82 7.11746 20.5532 7.11746C20.2865 7.11746 20.0703 6.90125 20.0703 6.63456C20.0703 5.72182 20.8129 4.97925 21.7257 4.97925C22.6384 4.97925 23.381 5.72182 23.381 6.63456C23.381 6.90125 23.1648 7.11746 22.8981 7.11746Z" fill="#423E4F"/>
</g>
<defs>
<clipPath id="clip0_17_76">
<rect width="32" height="32" fill="white"/>
</clipPath>
</defs>
</svg>
