<svg width="32" height="32" viewBox="0 0 32 32" fill="none" xmlns="http://www.w3.org/2000/svg">
<g clip-path="url(#clip0_17_2628)">
<path d="M16.5275 20.9828C16.0695 20.5266 11.0445 15.5211 11.0371 15.5138C8.00638 14.5841 4.54489 15.2447 2.23892 17.545C-1.14526 20.9201 -0.500743 25.7484 2.88344 29.1242C6.26762 32.4994 11.1096 33.1426 14.4937 29.7674C16.7871 27.4798 17.47 24.0276 16.5275 20.9828ZM12.3229 27.6057C10.1366 29.7862 7.20103 29.1785 5.01538 26.998C2.82907 24.8176 2.22011 21.8904 4.40642 19.7099C6.59052 17.531 10.1373 17.5302 12.3229 19.7099C14.5125 21.8938 14.5033 25.4312 12.3229 27.6057Z" fill="#FFF4AC"/>
<path d="M16.5275 20.9828C16.0695 20.5266 11.0437 15.5203 11.0371 15.5138L8.96048 15.1308C8.49678 16.0443 8.39833 17.1004 8.67695 18.0842C11.5226 18.2419 13.7915 20.5049 13.9527 23.34C14.9179 23.6092 15.9775 23.5233 16.913 23.0445C16.863 22.3438 16.7341 21.6503 16.5275 20.9828Z" fill="#FFDC95"/>
<path d="M12.5976 13.9513C12.1511 14.3976 11.7738 14.7748 11.0875 15.4608C10.2527 16.2956 10.2525 17.6448 11.0875 18.4771C11.8612 19.249 12.2792 19.666 13.5434 20.9272C14.3624 21.7437 15.6806 21.7598 16.519 20.9737C16.5581 20.9392 16.4705 21.0242 18.0711 19.4242C17.6803 16.2511 15.7093 14.514 12.5976 13.9513Z" fill="#FFAEC3"/>
<path d="M13.5239 20.9078C13.5245 20.9084 13.525 20.9089 13.5255 20.9094C13.5233 20.9072 13.5241 20.908 13.5239 20.9078Z" fill="#FFAEC3"/>
<path d="M13.5255 20.9094C13.5306 20.9145 13.5323 20.9161 13.5272 20.911C13.5269 20.9108 13.5258 20.9097 13.5255 20.9094Z" fill="#FFAEC3"/>
<path d="M13.5434 20.9272C13.5438 20.9276 13.5438 20.9276 13.5434 20.9272V20.9272Z" fill="#FFAEC3"/>
<path d="M13.5255 20.9094C13.5255 20.9093 13.5257 20.9095 13.5255 20.9094V20.9094Z" fill="#FFAEC3"/>
<path d="M13.5239 20.9078C13.5229 20.9068 13.5229 20.9068 13.5239 20.9078V20.9078Z" fill="#FFAEC3"/>
<path d="M13.5305 20.9144C13.5391 20.9229 13.5406 20.9244 13.5315 20.9154C13.5312 20.915 13.5309 20.9147 13.5305 20.9144Z" fill="#FFAEC3"/>
<path d="M13.5434 20.9272C13.5401 20.9239 13.5438 20.9276 13.5434 20.9272V20.9272Z" fill="#FFAEC3"/>
<path d="M13.5377 20.9215C13.538 20.9218 13.5383 20.9221 13.5387 20.9224C13.5299 20.9138 13.5286 20.9125 13.5377 20.9215Z" fill="#FFAEC3"/>
<path d="M13.5418 20.9256C13.5414 20.9253 13.5409 20.9247 13.5403 20.9242C13.5372 20.9211 13.5387 20.9225 13.5418 20.9256Z" fill="#FFAEC3"/>
<path d="M18.0711 19.4242C17.6803 16.2511 15.7093 14.514 12.5976 13.9513L11.2068 15.3415C12.7288 17.4445 14.5763 19.2921 16.6806 20.8149C16.8515 20.6441 17.2257 20.2693 18.0711 19.4242Z" fill="#FF91B3"/>
<path d="M31.999 7.1584C31.9381 3.22958 28.7626 0.0615712 24.8422 0.000869246C20.7682 -0.0619013 17.4551 3.28369 17.4551 7.20042C17.4386 8.87757 16.7594 10.4406 15.6243 11.5763L15.1957 12.0049C14.9936 13.7158 15.3525 14.7466 16.1507 15.5474C16.9561 16.3554 18.6288 17.1635 19.9911 16.808C20.2958 16.5239 20.701 16.0158 21.5212 15.5021C22.4964 14.8912 23.6298 14.5563 24.7994 14.5448C28.7262 14.5448 32.0616 11.2223 31.999 7.1584Z" fill="#D7F5F8"/>
<path d="M29.5659 1.84391C28.3069 0.720888 26.6552 0.0289899 24.8422 0.000869246C20.7682 -0.0619013 17.4551 3.28369 17.4551 7.20042C17.4386 8.87757 16.7594 10.4406 15.6243 11.5763L15.1957 12.0049C14.6179 12.6384 15.386 14.7704 16.1507 15.5474C16.9794 16.3894 19.1029 17.3831 19.9911 16.808C20.2958 16.5239 20.701 16.0158 21.5212 15.5021C17.0514 12.5754 20.1432 0.559598 29.5659 1.84391Z" fill="#B6E9F4"/>
<path d="M23.0786 18.5638C18.7919 16.6255 15.3781 13.1862 13.4606 8.94907C13.4368 8.90705 13.352 8.68726 13.1277 8.46294C12.52 7.85527 11.4903 7.80808 10.8328 8.46488C10.3557 8.94261 10.2232 9.66663 10.5018 10.2814C10.5848 10.4527 10.92 11.228 11.5449 12.3044C13.8799 16.3263 17.4282 19.5677 21.7411 21.5206C22.3541 21.7982 23.079 21.6689 23.557 21.1897C24.3528 20.3937 24.1194 19.0372 23.0786 18.5638Z" fill="#FFAEC3"/>
<path d="M11.8734 11.0316C12.4811 10.2148 13.6259 10.1076 14.3732 10.7139C13.4485 9.12956 13.5231 8.85831 13.1277 8.46294C12.52 7.85527 11.4903 7.80808 10.8328 8.46488C10.3557 8.94261 10.2232 9.66663 10.5018 10.2814C10.5848 10.4527 10.92 11.228 11.5449 12.3044C11.4863 11.8628 11.5965 11.4047 11.8734 11.0316Z" fill="#FF91B3"/>
<path d="M21.9594 4.53858C21.77 4.34923 21.77 4.04223 21.9594 3.85289L22.5081 3.30405C22.6975 3.1147 23.0045 3.1147 23.1938 3.30398C23.3832 3.49333 23.3832 3.80033 23.1939 3.98968L22.6451 4.53852C22.4558 4.72786 22.1488 4.72799 21.9594 4.53858Z" fill="#495560"/>
<path d="M27.4453 10.0239C27.2559 9.83465 27.2557 9.52765 27.4449 9.33824L27.9931 8.7894C28.1824 8.59992 28.4893 8.59973 28.6788 8.78901C28.8682 8.97823 28.8684 9.28523 28.6792 9.4747L28.131 10.0235C27.9419 10.2128 27.635 10.2133 27.4453 10.0239Z" fill="#495560"/>
<path d="M23.8251 6.13597C23.8435 5.86885 24.0749 5.66735 24.3422 5.68565C24.6094 5.70413 24.8109 5.93563 24.7925 6.20274C24.7536 6.76587 25.2207 7.22854 25.781 7.19065C26.047 7.17197 26.2796 7.37379 26.2981 7.64091C26.3165 7.90802 26.115 8.13952 25.8478 8.15794C24.7025 8.23733 23.7457 7.28717 23.8251 6.13597Z" fill="#495560"/>
</g>
<defs>
<clipPath id="clip0_17_2628">
<rect width="32" height="32" fill="white"/>
</clipPath>
</defs>
</svg>
