<svg width="32" height="32" viewBox="0 0 32 32" fill="none" xmlns="http://www.w3.org/2000/svg">
<g clip-path="url(#clip0_17_2689)">
<mask id="mask0_17_2689" style="mask-type:luminance" maskUnits="userSpaceOnUse" x="0" y="0" width="32" height="32">
<path d="M0 1.90735e-06H32V32H0V1.90735e-06Z" fill="white"/>
</mask>
<g mask="url(#mask0_17_2689)">
<path d="M30.3472 17.1477C30.9272 18.0061 31.2658 19.0411 31.2658 20.1551C31.2658 23.0678 28.9507 25.4398 26.0603 25.5314" stroke="#EBEBF5" stroke-width="20" stroke-miterlimit="10" stroke-linecap="round" stroke-linejoin="round"/>
<path d="M9.59113 0.026329H1.82019C0.833632 0.026329 0.0263824 0.833579 0.0263824 1.82014V5.5397C0.0263824 6.52627 0.833632 7.33352 1.82019 7.33352H3.22432L4.06526 8.44952C4.45813 8.97077 5.16294 8.97077 5.55582 8.44952L6.39676 7.33352H9.59113C10.5778 7.33352 11.3849 6.52627 11.3849 5.5397V1.82014C11.3849 0.833579 10.5778 0.026329 9.59113 0.026329Z" fill="#FFEAB7"/>
<path d="M4.60297 5.5397V1.82014C4.60297 0.833579 5.41016 0.026329 6.39679 0.026329H1.82023C0.8336 0.026329 0.026413 0.833579 0.026413 1.82014V5.5397C0.026413 6.52633 0.8336 7.33352 1.82023 7.33352H3.22429L4.06523 8.44952C4.45816 8.97077 5.16291 8.97077 5.55585 8.44952L6.39679 7.33352C5.41016 7.33352 4.60297 6.52633 4.60297 5.5397Z" fill="#FAD989"/>
<path d="M29.77 18.0603L30.704 16.8498C32.2116 14.8957 32.4238 12.2326 31.2359 10.0692C28.5437 5.16622 24.9044 2.35659 22.151 0.815094C19.9811 -0.399593 17.2948 -0.196468 15.326 1.32247L14.0313 2.32153C13.1556 2.99709 13.0727 4.28822 13.8547 5.07028L15.3878 6.60334C16.629 7.84459 18.6414 7.84459 19.8826 6.60334L20.1591 6.32697C20.5986 5.88728 21.2862 5.80784 21.81 6.14272C23.58 7.27428 24.9365 8.73778 25.9533 10.1668C26.3311 10.6978 26.2743 11.4228 25.8135 11.8836L25.4881 12.209C24.247 13.4502 24.247 15.4626 25.4881 16.7037L27.0213 18.2368C27.8033 19.0188 29.0944 18.936 29.77 18.0603Z" fill="#A4E7FF"/>
<path d="M19.5741 4.15484C19.5741 2.73403 19.8735 1.38334 20.4117 0.161467C18.6585 -0.210096 16.7932 0.190592 15.326 1.32253L14.0312 2.32153C13.1556 2.99715 13.0727 4.28828 13.8547 5.07028L15.3878 6.6034C16.628 7.84365 18.6383 7.84447 19.8797 6.60615C19.6803 5.82215 19.5741 5.0009 19.5741 4.15484Z" fill="#5AD6FF"/>
<path d="M9.76114 12.905H8.27139C7.72332 12.905 7.27495 12.4566 7.27495 11.9086V10.5275C7.27495 9.97953 7.72332 9.53116 8.27139 9.53116H9.76114C10.3092 9.53116 10.7575 9.97953 10.7575 10.5275V11.9086C10.7575 12.4566 10.3092 12.905 9.76114 12.905Z" fill="#5AD6FF"/>
<path d="M17.7961 12.905H16.3064C15.7584 12.905 15.31 12.4566 15.31 11.9086V10.5275C15.31 9.97953 15.7584 9.53116 16.3064 9.53116H17.7961C18.3442 9.53116 18.7925 9.97953 18.7925 10.5275V11.9086C18.7925 12.4566 18.3442 12.905 17.7961 12.905Z" fill="#5AD6FF"/>
<path d="M8.94623 11.9085V10.5275C8.94623 10.0101 9.34604 9.58197 9.85192 9.53572C9.82198 9.53297 9.79179 9.53109 9.76117 9.53109H8.27135C7.72335 9.53109 7.27498 9.97953 7.27498 10.5275V11.9085C7.27498 12.4565 7.72335 12.9049 8.27135 12.9049H9.76117C9.79179 12.9049 9.82198 12.903 9.85192 12.9003C9.34604 12.854 8.94623 12.4259 8.94623 11.9085Z" fill="#00C5FD"/>
<path d="M16.9813 11.9085V10.5275C16.9813 10.0101 17.381 9.58197 17.8869 9.53572C17.857 9.53297 17.8268 9.53109 17.7961 9.53109H16.3064C15.7584 9.53109 15.31 9.97953 15.31 10.5275V11.9085C15.31 12.4565 15.7584 12.9049 16.3064 12.9049H17.7961C17.8268 12.9049 17.857 12.903 17.8869 12.9003C17.381 12.854 16.9813 12.4259 16.9813 11.9085Z" fill="#00C5FD"/>
<path d="M23.8803 18.7709L22.7511 17.8068C21.6069 16.8297 20.9479 15.4006 20.9479 13.8961V13.2724C20.9479 12.5284 20.3666 11.9251 19.6496 11.9251H6.41794C5.70088 11.9251 5.11956 12.5284 5.11956 13.2724V13.8961C5.11956 15.4006 4.46063 16.8297 3.31644 17.8068L2.18725 18.7709C0.802375 19.9534 0 21.7169 0 23.578V28.6318C0 30.4774 1.44181 31.9736 3.22038 31.9736H13.0338H22.8472C24.6258 31.9736 26.0675 30.4774 26.0675 28.6318V23.578C26.0675 21.7169 25.2651 19.9534 23.8803 18.7709Z" fill="#A4E7FF"/>
<path d="M4.01751 28.6318V23.578C4.01751 21.7169 4.81989 19.9534 6.20476 18.7709L7.33395 17.8067C8.47814 16.8297 9.13708 15.4006 9.13708 13.8961V13.2724C9.13708 12.5284 9.71839 11.9251 10.4355 11.9251H6.41795C5.70089 11.9251 5.11958 12.5284 5.11958 13.2724V13.8961C5.11958 15.4006 4.46064 16.8297 3.31645 17.8067L2.18726 18.7709C0.80239 19.9534 1.52588e-05 21.7169 1.52588e-05 23.578V28.6318C1.52588e-05 30.4774 1.44183 31.9736 3.22039 31.9736H7.23783C5.45933 31.9736 4.01751 30.4774 4.01751 28.6318Z" fill="#5AD6FF"/>
<path d="M18.9327 23.8923C18.9327 27.1502 16.2916 29.7913 13.0337 29.7913C9.77587 29.7913 7.1348 27.1502 7.1348 23.8923C7.1348 20.6344 9.77587 17.9933 13.0337 17.9933C16.2916 17.9933 18.9327 20.6344 18.9327 23.8923Z" fill="#F0F0F0"/>
<path d="M9.8519 23.8923C9.8519 21.1019 11.7893 18.7644 14.3923 18.1508C13.9561 18.048 13.5013 17.9933 13.0338 17.9933C9.7759 17.9933 7.13483 20.6344 7.13483 23.8923C7.13483 27.1502 9.7759 29.7913 13.0338 29.7913C13.5013 29.7913 13.9561 29.7366 14.3923 29.6337C11.7893 29.0202 9.8519 26.6826 9.8519 23.8923Z" fill="#D9D9D9"/>
<path d="M14.3194 23.8922C14.3194 24.6022 13.7438 25.1779 13.0337 25.1779C12.3237 25.1779 11.7482 24.6022 11.7482 23.8922C11.7482 23.1822 12.3237 22.6067 13.0337 22.6067C13.7438 22.6067 14.3194 23.1822 14.3194 23.8922Z" fill="#C6C6C6"/>
<path d="M3.54656 3.67997C3.54656 3.94665 3.33037 4.16284 3.06362 4.16284C2.79694 4.16284 2.58075 3.94665 2.58075 3.67997C2.58075 3.41322 2.79694 3.19703 3.06362 3.19703C3.33037 3.19703 3.54656 3.41322 3.54656 3.67997Z" fill="#495560"/>
<path d="M6.1552 3.67997C6.1552 3.94665 5.93902 4.16284 5.67233 4.16284C5.40564 4.16284 5.18939 3.94665 5.18939 3.67997C5.18939 3.41322 5.40564 3.19703 5.67233 3.19703C5.93902 3.19703 6.1552 3.41322 6.1552 3.67997Z" fill="#495560"/>
<path d="M8.76389 3.67997C8.76389 3.94665 8.5477 4.16284 8.28101 4.16284C8.01432 4.16284 7.79807 3.94665 7.79807 3.67997C7.79807 3.41322 8.01432 3.19703 8.28101 3.19703C8.5477 3.19703 8.76389 3.41322 8.76389 3.67997Z" fill="#495560"/>
<path d="M13.5167 20.0104C13.5167 20.277 13.3005 20.4932 13.0337 20.4932C12.767 20.4932 12.5508 20.277 12.5508 20.0104C12.5508 19.7436 12.767 19.5274 13.0337 19.5274C13.3005 19.5274 13.5167 19.7436 13.5167 20.0104Z" fill="#D9D9D9"/>
<path d="M13.5167 27.7742C13.5167 28.041 13.3005 28.2571 13.0337 28.2571C12.767 28.2571 12.5508 28.041 12.5508 27.7742C12.5508 27.5075 12.767 27.2913 13.0337 27.2913C13.3005 27.2913 13.5167 27.5075 13.5167 27.7742Z" fill="#D9D9D9"/>
<path d="M9.9133 21.5332C10.1442 21.6665 10.2234 21.9617 10.0901 22.1927C9.95668 22.4236 9.66143 22.5028 9.43049 22.3694C9.19955 22.2361 9.12043 21.9408 9.2538 21.7099C9.38711 21.479 9.68236 21.3998 9.9133 21.5332Z" fill="#B7B7B7"/>
<path d="M16.637 25.4152C16.868 25.5485 16.9471 25.8437 16.8138 26.0747C16.6804 26.3056 16.3851 26.3847 16.1542 26.2514C15.9233 26.118 15.8441 25.8227 15.9775 25.5918C16.1108 25.3609 16.4061 25.2818 16.637 25.4152Z" fill="#D9D9D9"/>
<path d="M9.43048 25.4152C9.66142 25.2818 9.95667 25.3609 10.09 25.5918C10.2234 25.8227 10.1442 26.118 9.9133 26.2514C9.68236 26.3847 9.38711 26.3056 9.2538 26.0747C9.12048 25.8437 9.19955 25.5485 9.43048 25.4152Z" fill="#B7B7B7"/>
<path d="M16.1542 21.5332C16.3851 21.3998 16.6804 21.479 16.8138 21.7099C16.9471 21.9408 16.868 22.2361 16.6371 22.3694C16.4061 22.5028 16.1109 22.4236 15.9775 22.1927C15.8442 21.9617 15.9233 21.6665 16.1542 21.5332Z" fill="#D9D9D9"/>
<path d="M9.1814 14.6766V15.4168" stroke="#495560" stroke-miterlimit="10" stroke-linecap="round" stroke-linejoin="round"/>
<path d="M16.8862 14.6767L16.8861 15.4171" stroke="#495560" stroke-miterlimit="10" stroke-linecap="round" stroke-linejoin="round"/>
<path d="M12.0181 15.3948C12.265 15.6782 12.6283 15.8575 13.0337 15.8575C13.4392 15.8575 13.8024 15.6782 14.0493 15.3949" stroke="#495560" stroke-miterlimit="10" stroke-linecap="round" stroke-linejoin="round"/>
</g>
</g>
<defs>
<clipPath id="clip0_17_2689">
<rect width="32" height="32" fill="white"/>
</clipPath>
</defs>
</svg>
