<svg width="32" height="32" viewBox="0 0 32 32" fill="none" xmlns="http://www.w3.org/2000/svg">
<g clip-path="url(#clip0_17_2716)">
<path d="M13.4994 24.6111C14.0866 26.0534 14.0375 28.6489 13.7451 30.672C13.6349 31.4351 12.9787 32 12.2077 32H9.51594C8.74494 32 8.08887 31.4351 7.97856 30.672C7.68619 28.6489 7.63706 26.0534 8.22431 24.6111H13.4994Z" fill="#F1B3C1"/>
<path d="M7.843 29.4921C7.87806 29.8979 7.92406 30.2949 7.97856 30.672C8.08887 31.4351 8.74494 32 9.51594 32H12.2077C12.9787 32 13.6349 31.4351 13.7451 30.672C13.7996 30.2949 13.8456 29.8978 13.8807 29.492L7.843 29.4921Z" fill="#CB8A5A"/>
<path d="M18.5006 24.6111C17.9133 26.0534 17.9624 28.6489 18.2548 30.672C18.3651 31.4351 19.0212 32 19.7922 32H22.4841C23.2551 32 23.9111 31.4351 24.0214 30.672C24.3138 28.6489 24.3629 26.0534 23.7757 24.6111H18.5006Z" fill="#F1B3C1"/>
<path d="M24.157 29.4921C24.1219 29.8979 24.0759 30.2949 24.0214 30.672C23.9111 31.4351 23.2551 32 22.4841 32H19.7922C19.0212 32 18.3651 31.4351 18.2548 30.672C18.2003 30.2949 18.1543 29.8978 18.1193 29.492L24.157 29.4921Z" fill="#CB8A5A"/>
<path d="M19.2453 7.84198C21.0388 6.04845 21.0388 3.14057 19.2453 1.34704C17.4517 -0.446491 14.5438 -0.44649 12.7503 1.34704C10.9568 3.14057 10.9568 6.04845 12.7503 7.84198C14.5438 9.63551 17.4517 9.63551 19.2453 7.84198Z" fill="#F6EE86"/>
<path d="M16 5.43316C14.4973 5.43316 13.0287 5.63648 11.6362 6.02735C12.2387 7.86166 13.9641 9.18666 16 9.18666C18.0359 9.18666 19.7612 7.86166 20.3637 6.02735C18.9712 5.63648 17.5027 5.43316 16 5.43316Z" fill="#EED076"/>
<path d="M17.8616 6.4583C18.8909 5.42896 18.8909 3.76007 17.8616 2.73073C16.8322 1.70139 15.1633 1.70139 14.134 2.73073C13.1047 3.76007 13.1047 5.42896 14.134 6.4583C15.1633 7.48764 16.8322 7.48764 17.8616 6.4583Z" fill="#EED076"/>
<path d="M28.2701 17.8511C28.2701 12.0597 22.7766 7.36473 16 7.36473C9.22337 7.36473 3.72987 12.0597 3.72987 17.8511C3.72987 23.6425 9.22337 27.5443 16 27.5443C22.7766 27.5443 28.2701 23.6425 28.2701 17.8511Z" fill="#F8D2E3"/>
<path d="M6.2795 8.89942C5.24494 9.27598 4.37931 9.91129 3.72925 10.7057C3.18162 11.3748 3.27994 12.3686 3.94437 12.922C5.51906 14.2335 7.31112 14.8626 8.31675 14.4965C9.32231 14.1305 10.2909 12.4967 10.6541 10.4799C10.8073 9.62885 10.2439 8.80441 9.39425 8.64379C8.3855 8.45316 7.31406 8.52291 6.2795 8.89942Z" fill="#F1B3C1"/>
<path d="M25.7205 8.89942C26.7551 9.27598 27.6206 9.91129 28.2707 10.7057C28.8184 11.3748 28.7201 12.3686 28.0556 12.922C26.4809 14.2335 24.6889 14.8626 23.6832 14.4965C22.6777 14.1305 21.7091 12.4967 21.3459 10.4799C21.1927 9.62885 21.7561 8.80441 22.6057 8.64379C23.6145 8.45316 24.6859 8.52291 25.7205 8.89942Z" fill="#F1B3C1"/>
<path d="M16 23.0747C18.0437 23.0747 20.1651 23.5364 20.3497 21.2897C20.5344 19.043 17.5799 17.5969 16 17.5969C14.4201 17.5969 11.4656 19.043 11.6502 21.2897C11.8349 23.5364 13.9563 23.0747 16 23.0747Z" fill="#F1B3C1"/>
<path d="M16 23.0747C16.1814 23.0747 16.3633 23.0784 16.5445 23.0834C14.0419 22.1604 13.4902 19.4598 14.2244 18.0135C12.8608 18.5958 11.5242 19.7561 11.6502 21.2897C11.8349 23.5364 13.9563 23.0747 16 23.0747Z" fill="#E7889D"/>
<path d="M14.5294 21.3694C14.2706 21.3694 14.0607 21.1595 14.0607 20.9006V20.3752C14.0607 20.1163 14.2706 19.9064 14.5294 19.9064C14.7883 19.9064 14.9982 20.1163 14.9982 20.3752V20.9006C14.9982 21.1595 14.7883 21.3694 14.5294 21.3694Z" fill="#4E5660"/>
<path d="M17.4706 21.3694C17.2117 21.3694 17.0018 21.1595 17.0018 20.9006V20.3752C17.0018 20.1163 17.2117 19.9064 17.4706 19.9064C17.7294 19.9064 17.9393 20.1163 17.9393 20.3752V20.9006C17.9393 21.1595 17.7294 21.3694 17.4706 21.3694Z" fill="#4E5660"/>
<path d="M10.6196 19.7817C11.716 19.7817 12.6049 19.0739 12.6049 18.2007C12.6049 17.3276 11.716 16.6197 10.6196 16.6197C9.5231 16.6197 8.63425 17.3276 8.63425 18.2007C8.63425 19.0739 9.5231 19.7817 10.6196 19.7817Z" fill="white"/>
<path d="M21.3804 19.7817C22.4769 19.7817 23.3657 19.0739 23.3657 18.2007C23.3657 17.3276 22.4769 16.6197 21.3804 16.6197C20.284 16.6197 19.3951 17.3276 19.3951 18.2007C19.3951 19.0739 20.284 19.7817 21.3804 19.7817Z" fill="white"/>
<path d="M11.7766 17.1281C11.5177 17.1281 11.3078 16.9183 11.3078 16.6594V15.8867C11.3078 15.6278 11.5177 15.418 11.7766 15.418C12.0354 15.418 12.2453 15.6278 12.2453 15.8867V16.6594C12.2453 16.9182 12.0354 17.1281 11.7766 17.1281Z" fill="#4E5660"/>
<path d="M21.268 17.1065C21.0091 17.1065 20.7992 16.8967 20.7992 16.6378C20.7992 16.4025 20.6079 16.2112 20.3726 16.2112C20.1374 16.2112 19.946 16.4026 19.946 16.6378C19.946 16.8967 19.7361 17.1065 19.4772 17.1065C19.2184 17.1065 19.0085 16.8967 19.0085 16.6378C19.0085 15.8856 19.6204 15.2737 20.3726 15.2737C21.1248 15.2737 21.7367 15.8856 21.7367 16.6378C21.7367 16.8967 21.5269 17.1065 21.268 17.1065Z" fill="#4E5660"/>
</g>
<defs>
<clipPath id="clip0_17_2716">
<rect width="32" height="32" fill="white"/>
</clipPath>
</defs>
</svg>
