<svg width="32" height="32" viewBox="0 0 32 32" fill="none" xmlns="http://www.w3.org/2000/svg">
<g clip-path="url(#clip0_17_2760)">
<path d="M20.1221 0.767275C21.4605 -0.00547522 23.4132 0.871025 24.2608 2.33909C25.2695 4.08621 24.9426 6.2669 24.6565 7.41621C24.5421 7.87565 24.0682 8.14921 23.6131 8.01859C22.4747 7.69177 20.4227 6.88446 19.4141 5.13734C18.5664 3.66927 18.7837 1.54002 20.1221 0.767275Z" fill="#73DA8C"/>
<path d="M31.4824 2.7704C30.489 1.58652 28.3544 1.74227 27.0557 2.8319C25.5104 4.12865 25.0716 6.28965 24.9474 7.46753C24.8978 7.9384 25.2495 8.35752 25.7219 8.3904C26.9034 8.47265 29.1077 8.41584 30.6531 7.11909C31.9517 6.02952 32.4759 3.95427 31.4824 2.7704Z" fill="#73DA8C"/>
<path d="M26.1086 0.0314623C24.5866 -0.236913 23.0515 1.25459 22.7571 2.92402C22.4068 4.91077 23.4598 6.84821 24.1218 7.83027C24.3864 8.2229 24.9253 8.3179 25.3082 8.03946C26.2662 7.34302 27.9183 5.88259 28.2686 3.89584C28.5631 2.2264 27.6306 0.299837 26.1086 0.0314623Z" fill="#8CE09F"/>
<path d="M29.7877 12.612C29.7703 12.7955 29.7452 12.9803 29.7124 13.1658C29.6209 13.6835 29.4831 14.2063 29.3074 14.7271C23.7451 13.9011 21.6319 10.3752 23.7167 5.80065C24.1648 5.76396 24.6213 5.78328 25.0804 5.8644C27.7775 6.34084 29.6795 8.78559 29.8115 11.6353C29.8115 11.6353 29.1969 11.8896 29.1931 12.0525C29.1892 12.2153 29.7877 12.612 29.7877 12.612Z" fill="#FFCE71"/>
<path d="M29.3074 14.7271C29.0833 15.3935 28.7974 16.0567 28.4704 16.6999L22.1129 20.3963C21.9551 20.4247 20.9089 20.2051 19.5091 19.8696C18.5002 17.4751 17.7282 13.988 18.2297 11.1415C18.316 10.6528 18.4512 10.1853 18.6296 9.74552C18.6296 9.74552 19.257 9.46859 19.3312 9.31809C19.4054 9.16759 19.0746 8.84284 19.0746 8.84284C20.0938 7.11021 21.8218 5.95452 23.7167 5.80065C23.1602 9.61621 25.3219 13.1181 29.3074 14.7271Z" fill="#FFB357"/>
<path d="M29.7877 12.612L26.6804 12.0641C26.4177 12.0177 26.2425 11.7673 26.2889 11.5046C26.3353 11.2419 26.5851 11.0668 26.8484 11.1131L29.8115 11.6353C29.8263 11.9566 29.8192 12.283 29.7877 12.612Z" fill="#FCE3A0"/>
<path d="M25.2711 14.1059C25.2432 14.1059 25.215 14.1035 25.1866 14.0985L20.7497 13.3161C20.4871 13.2698 20.3117 13.0193 20.3581 12.7566C20.4044 12.494 20.6544 12.3188 20.9175 12.3649L25.3544 13.1473C25.617 13.1936 25.7924 13.444 25.7461 13.7067C25.7047 13.941 25.501 14.1059 25.2711 14.1059Z" fill="#FFCE71"/>
<path d="M23.3819 10.0926C23.34 10.327 23.1366 10.4918 22.9067 10.4918C22.879 10.4918 22.8507 10.4892 22.8223 10.4847L18.6296 9.74552C18.7564 9.43002 18.9052 9.12871 19.0746 8.84284L22.9897 9.53315C23.2525 9.5794 23.4282 9.8299 23.3819 10.0926Z" fill="#FFCE71"/>
<path d="M19.6352 17.2402C19.5857 18.824 12.0106 23.1965 10.6141 22.4503C9.50336 21.1445 8.55305 19.9572 7.68899 18.7655C7.0818 18.9245 6.43605 18.9116 5.82949 18.7191C5.82949 18.7191 3.05349 7.78784 5.30343 0.426275C5.99174 0.271712 6.73605 0.294275 7.47711 0.527337C7.81324 0.633587 8.17699 0.58915 8.48605 0.418525C9.30249 -0.0328502 10.3024 -0.141663 11.2482 0.202837C12.1657 0.5364 12.8489 1.23046 13.1946 2.06684C13.3646 2.47634 13.7432 2.75771 14.1804 2.82915C15.1365 2.98496 16.0173 3.55352 16.5395 4.45815C16.9226 5.12071 17.0527 5.85984 16.9599 6.56421C16.8968 7.04327 17.0945 7.51646 17.4866 7.79977C18.3275 8.40759 18.8741 9.3959 18.8741 10.513C18.8741 11.4299 18.5052 12.2611 17.9071 12.8657C18.5066 14.2095 19.0596 15.626 19.6352 17.2402Z" fill="#8CE09F"/>
<path d="M15.1521 11.8935L5.82949 18.7191C5.42386 18.591 5.03568 18.3824 4.6893 18.092C3.99261 17.508 3.59474 16.6993 3.51105 15.861C3.46405 15.3891 3.16786 14.9821 2.72874 14.8038C2.06236 14.5341 1.47836 14.048 1.09074 13.3777C0.568551 12.4731 0.517051 11.4255 0.859614 10.5196C1.01674 10.1056 0.961989 9.63684 0.692864 9.28534C0.141739 8.56746 -0.118386 7.62934 0.0515511 6.6674C0.226051 5.67646 0.820301 4.86459 1.61936 4.38296C1.92136 4.20077 2.14218 3.90777 2.21818 3.56396C2.58261 1.92209 3.81224 0.759837 5.30343 0.426275C5.4373 4.63771 7.12174 10.3141 15.1521 11.8935Z" fill="#73DA8C"/>
<path d="M12.2993 14.3206C12.0385 14.3206 11.8237 14.1127 11.8168 13.8505C11.7519 11.3957 12.4976 9.14834 14.0333 7.17071C14.1969 6.96009 14.5002 6.92202 14.7109 7.08546C14.9216 7.24902 14.9597 7.5524 14.7962 7.76309C13.4011 9.55971 12.7235 11.5992 12.7824 13.825C12.7894 14.0916 12.579 14.3134 12.3124 14.3205C12.308 14.3205 12.3036 14.3206 12.2993 14.3206Z" fill="#FFF8E6"/>
<path d="M11.9866 4.64346C11.7588 4.50459 11.4617 4.57671 11.3229 4.8044C10.6142 5.96684 10.1566 7.2164 9.95443 8.5364L9.00855 7.19784C8.98499 5.82421 9.24155 4.51802 9.77174 3.31409C9.87924 3.07002 9.76849 2.78502 9.52443 2.67752C9.28043 2.57002 8.99536 2.68077 8.88786 2.92484C8.47193 3.8694 8.20811 4.86915 8.09893 5.91052L6.02911 2.98115C5.89843 2.79571 5.71555 2.72809 5.54105 2.74227C5.54936 5.41527 7.57599 9.58821 11.4968 10.7191L10.8081 9.74446C10.8706 8.15459 11.3199 6.66459 12.1476 5.30709C12.2864 5.07946 12.2144 4.78227 11.9866 4.64346Z" fill="#FFF8E6"/>
<path d="M13.2745 13.2681C13.2372 13.1935 13.194 13.1213 13.1444 13.0511L11.4968 10.7191C7.62268 8.87184 6.07743 5.70278 5.54105 2.74227C5.19336 2.77127 4.87786 3.12665 5.06718 3.53684L6.5688 6.79365C5.61249 6.36759 4.6148 6.09621 3.58893 5.98415C3.32399 5.95515 3.08543 6.14659 3.05643 6.41177C3.02749 6.6769 3.21893 6.91528 3.48405 6.94427C4.79161 7.08709 6.05099 7.5179 7.22874 8.22496L7.91499 9.7134C6.67099 9.22853 5.3603 9.00009 3.99918 9.03277C3.73255 9.03915 3.52161 9.26046 3.52793 9.52709C3.5343 9.79371 3.7548 10.0055 4.02224 9.99834C5.61111 9.96009 7.12624 10.316 8.53436 11.0568L9.4153 12.9675C7.92549 12.4721 6.34505 12.336 4.69324 12.5632C4.42905 12.5995 4.2443 12.8432 4.28061 13.1074C4.31686 13.3715 4.55999 13.5561 4.8248 13.52C6.65811 13.2679 8.39305 13.5074 9.9983 14.2321L10.2296 14.7336C10.3191 14.9287 10.4407 15.0974 10.585 15.2378L11.1347 14.8351C11.1986 14.8641 11.2664 14.8781 11.3334 14.8781C11.4959 14.8781 11.6544 14.7962 11.7456 14.6476C11.8047 14.5512 11.8259 14.4423 11.8134 14.3381L13.2745 13.2681Z" fill="#FFF1CF"/>
<path d="M22.7606 15.4669C22.7606 19.2006 19.7337 22.2275 16 22.2275C13.751 22.2275 11.7589 21.1297 10.5304 19.4401C11.6101 19.7009 11.8549 12.612 13.7593 9.08684C14.4605 8.84027 15.2144 8.70634 15.9999 8.70634C19.7337 8.70634 22.7606 11.7331 22.7606 15.4669Z" fill="#FF6E80"/>
<path d="M19.1047 16.0367L12.5444 19.8517C12.4239 19.8729 11.6101 19.7009 10.5304 19.4401C9.7178 18.325 9.23943 16.9523 9.23943 15.467C9.23943 12.5187 11.1266 10.0108 13.7593 9.08684C13.8321 11.9057 15.4134 15.1308 19.1047 16.0367Z" fill="#FD5C6F"/>
<path d="M20.5071 15.4669C20.5071 17.9561 18.4892 19.974 16 19.974C15.1024 19.974 14.2661 19.7113 13.5636 19.2593C13.5636 19.2593 13.4545 14.7271 14.1444 11.3584C14.7103 11.1021 15.3387 10.9598 16 10.9598C18.4892 10.9598 20.5071 12.9777 20.5071 15.4669Z" fill="#FFA1AC"/>
<path d="M19.1047 16.0367L13.5636 19.2593C12.3177 18.4577 11.4929 17.0585 11.4929 15.4669C11.4929 13.639 12.5811 12.0654 14.1444 11.3584C14.8159 13.4497 16.3895 15.3703 19.1047 16.0367Z" fill="#FF8A98"/>
<path d="M16 13.6686C15.7333 13.6686 15.5171 13.4525 15.5171 13.1858V12.8914C15.5171 12.6247 15.7333 12.4085 16 12.4085C16.2667 12.4085 16.4829 12.6247 16.4829 12.8914V13.1858C16.4829 13.4525 16.2667 13.6686 16 13.6686Z" fill="#FFF8E6"/>
<path d="M17.7477 14.4835C17.6099 14.4835 17.4731 14.4248 17.3775 14.311C17.2061 14.1067 17.2327 13.8021 17.437 13.6306L17.6625 13.4415C17.8669 13.27 18.1714 13.2966 18.3428 13.501C18.5142 13.7053 18.4876 14.0098 18.2833 14.1813L18.0578 14.3705C17.9674 14.4464 17.8572 14.4835 17.7477 14.4835Z" fill="#FFF8E6"/>
<path d="M14.2523 14.4835C14.1427 14.4835 14.0326 14.4464 13.9422 14.3705L13.7167 14.1813C13.5124 14.0099 13.4857 13.7053 13.6572 13.501C13.8285 13.2966 14.1331 13.27 14.3375 13.4415L14.563 13.6306C14.7673 13.802 14.7939 14.1067 14.6225 14.311C14.527 14.4248 14.3901 14.4835 14.2523 14.4835Z" fill="#FFF1CF"/>
<path d="M31.9949 17.356C31.5435 22.5404 28.6275 27.0198 24.425 29.6145C13.8128 29.6145 9.08368 21.4156 13.8347 15.944H30.7078C31.4688 15.944 32.0612 16.5975 31.9949 17.356Z" fill="#B5E9F1"/>
<path d="M24.425 29.6145C21.9757 31.127 19.0899 32 16 32C7.60786 32 0.719801 25.562 0.00517606 17.356C-0.0611364 16.5975 0.531176 15.944 1.29224 15.944H13.8347C13.5495 20.9436 16.7244 27.916 24.425 29.6145Z" fill="#9BE1EC"/>
<path d="M12.6357 24.5704C12.6362 25.4356 11.7557 26.1374 10.6693 26.138C9.58286 26.1385 8.70174 25.4376 8.7013 24.5724C8.70086 23.7072 9.58124 23.0053 10.6677 23.0048C11.7542 23.0043 12.6353 23.7052 12.6357 24.5704Z" fill="white"/>
<path d="M19.3642 24.567C19.3647 25.4322 20.2458 26.1332 21.3322 26.1326C22.4187 26.132 23.2991 25.4302 23.2987 24.565C23.2982 23.6998 22.4171 22.9988 21.3307 22.9994C20.2442 23 19.3638 23.7018 19.3642 24.567Z" fill="white"/>
<path d="M17.928 23.8595C17.9274 22.6678 17.064 22.5563 15.999 22.5568C14.934 22.5573 14.0707 22.6697 14.0713 23.8615C14.0719 25.0531 14.9357 26.0188 16.0007 26.0183C17.0657 26.0178 17.9286 25.0513 17.928 23.8595Z" fill="#666667"/>
<path d="M10.8778 23.3495C10.6112 23.3495 10.3951 23.1334 10.3949 22.8668C10.3947 22.4877 10.5422 22.1312 10.8101 21.863C11.0781 21.5948 11.4344 21.447 11.8135 21.4468C12.5958 21.4468 13.2331 22.083 13.2334 22.8654C13.2336 23.1321 13.0175 23.3484 12.7507 23.3485C12.7507 23.3485 12.7508 23.3485 12.7507 23.3485C12.4841 23.3485 12.2677 23.1325 12.2676 22.8658C12.2675 22.6159 12.0641 22.4126 11.8142 22.4126C11.8141 22.4126 11.8142 22.4126 11.8142 22.4126C11.6931 22.4127 11.579 22.46 11.4934 22.5457C11.4077 22.6313 11.3606 22.7452 11.3607 22.8663C11.3608 23.133 11.1446 23.3493 10.8778 23.3495C10.8779 23.3495 10.8777 23.3495 10.8778 23.3495Z" fill="#666667"/>
<path d="M19.2478 23.3453C18.9812 23.3453 18.7651 23.1293 18.7649 22.8626C18.7646 22.08 19.4009 21.4431 20.1834 21.4426C20.5622 21.4426 20.9192 21.5901 21.1872 21.8578C21.4554 22.1258 21.6032 22.4821 21.6034 22.8612C21.6035 23.1279 21.3874 23.3442 21.1207 23.3443C21.1207 23.3443 21.1208 23.3443 21.1207 23.3443C20.8541 23.3444 20.6377 23.1283 20.6376 22.8617C20.6376 22.7405 20.5903 22.6267 20.5046 22.5411C20.419 22.4555 20.3052 22.4084 20.1841 22.4084C20.1841 22.4084 20.1842 22.4084 20.1841 22.4084C19.9341 22.4085 19.7306 22.6121 19.7307 22.8622C19.7308 23.1288 19.5144 23.3451 19.2478 23.3453C19.2479 23.3453 19.2477 23.3453 19.2478 23.3453Z" fill="#666667"/>
</g>
<defs>
<clipPath id="clip0_17_2760">
<rect width="32" height="32" fill="white"/>
</clipPath>
</defs>
</svg>
