<svg width="32" height="32" viewBox="0 0 32 32" fill="none" xmlns="http://www.w3.org/2000/svg">
<g clip-path="url(#clip0_17_1948)">
<mask id="mask0_17_1948" style="mask-type:luminance" maskUnits="userSpaceOnUse" x="0" y="0" width="32" height="32">
<path d="M0 1.90735e-06H32V32H0V1.90735e-06Z" fill="white"/>
</mask>
<g mask="url(#mask0_17_1948)">
<path d="M8.45514 8.30133C6.49564 8.30133 4.89246 6.69814 4.89246 4.73864V3.56552C4.89246 1.60602 6.49564 0.00276947 8.45514 0.00276947C10.4146 0.00276947 12.0178 1.60602 12.0178 3.56552V4.73864C12.0178 6.69814 10.4146 8.30133 8.45514 8.30133Z" fill="#FCE3A0"/>
<path d="M8.45515 27.0216C4.05134 27.0216 0.448212 23.4185 0.448212 19.0147V11.2134C0.448212 6.80955 4.05134 3.20648 8.45515 3.20648C12.859 3.20648 16.4621 6.80955 16.4621 11.2134V19.0147C16.4621 23.4185 12.859 27.0216 8.45515 27.0216Z" fill="#F2C7AE"/>
<path d="M4.89243 19.0147V11.2134C4.89243 7.5798 7.34549 4.49167 10.6772 3.52248C9.97099 3.31705 9.22537 3.20642 8.45512 3.20642C4.05131 3.20642 0.448181 6.80955 0.448181 11.2134V19.0147C0.448181 23.4185 4.05131 27.0216 8.45512 27.0216C9.22537 27.0216 9.97099 26.911 10.6772 26.7055C7.34549 25.7364 4.89243 22.6482 4.89243 19.0147Z" fill="#EAAA83"/>
<path d="M13.5864 11.3602C13.5864 14.1941 11.289 16.4915 8.4551 16.4915C5.62123 16.4915 3.32385 14.1941 3.32385 11.3602C3.32385 8.52627 5.62123 6.22896 8.4551 6.22896C11.289 6.22896 13.5864 8.52627 13.5864 11.3602Z" fill="#F7F0EB"/>
<path d="M4.89241 15.0511V11.2133C4.89241 9.54527 5.41048 7.99296 6.2921 6.70702C4.53935 7.52321 3.32385 9.29927 3.32385 11.3602C3.32385 12.8098 3.92592 14.118 4.89241 15.0511Z" fill="#EFE2DD"/>
<path d="M13.4092 18.0465V16.3966C13.4092 13.672 11.18 11.4427 8.45528 11.4427C5.73059 11.4427 3.50128 13.672 3.50128 16.3967V18.0465C3.50128 18.7517 2.92959 19.3233 2.22441 19.3233H1.12341C0.432658 19.3233 -0.0994054 19.9427 0.0158446 20.6238C0.699032 24.6598 4.23253 27.759 8.45522 27.759C12.6779 27.759 16.2115 24.6598 16.8947 20.6238C17.0099 19.9427 16.4778 19.3233 15.787 19.3233H14.6861C13.9809 19.3233 13.4092 18.7517 13.4092 18.0465Z" fill="#EFB899"/>
<path d="M6.93016 16.86C6.93016 14.9507 7.25353 13.1332 7.83672 11.483C5.40128 11.7899 3.50116 13.8815 3.50116 16.3967V18.0465C3.50116 18.7517 2.92947 19.3234 2.22428 19.3234H1.12335C0.432535 19.3234 -0.0995275 19.9427 0.0157225 20.6238C0.69891 24.6599 4.23241 27.7591 8.4551 27.7591H8.45516C9.3401 27.7591 10.1946 27.6225 10.9992 27.3702C8.51335 24.8657 6.93016 21.0873 6.93016 16.86Z" fill="#E4996D"/>
<path d="M5.49172 22.2913C5.49172 23.0535 4.71591 23.6713 3.75891 23.6713C2.80191 23.6713 2.02609 23.0535 2.02609 22.2913C2.02609 21.5292 2.80191 20.9114 3.75891 20.9114C4.71591 20.9114 5.49172 21.5292 5.49172 22.2913Z" fill="white"/>
<path d="M11.4185 22.2913C11.4185 23.0535 12.1944 23.6713 13.1514 23.6713C14.1084 23.6713 14.8842 23.0535 14.8842 22.2913C14.8842 21.5292 14.1084 20.9114 13.1514 20.9114C12.1944 20.9114 11.4185 21.5292 11.4185 22.2913Z" fill="white"/>
<path d="M4.76877 20.2716V20.946" stroke="#495560" stroke-miterlimit="10" stroke-linecap="round" stroke-linejoin="round"/>
<path d="M7.48325 20.9419C7.71956 21.2131 8.06718 21.3846 8.45512 21.3846C8.84306 21.3846 9.19068 21.2131 9.427 20.9419" stroke="#495560" stroke-miterlimit="10" stroke-linecap="round" stroke-linejoin="round"/>
<path d="M11.4902 20.9272C11.4902 20.4956 11.84 20.1457 12.2717 20.1457C12.7033 20.1457 13.0532 20.4956 13.0532 20.9272" stroke="#495560" stroke-miterlimit="10" stroke-linecap="round" stroke-linejoin="round"/>
<path d="M23.5449 12.5394C21.5854 12.5394 19.9822 10.9362 19.9822 8.97674V7.80362C19.9822 5.84412 21.5854 4.24087 23.5449 4.24087C25.5044 4.24087 27.1076 5.84412 27.1076 7.80362V8.97674C27.1076 10.9362 25.5044 12.5394 23.5449 12.5394Z" fill="#FCE3A0"/>
<path d="M23.5449 31.2596C19.1411 31.2596 15.5379 27.6565 15.5379 23.2527V15.4514C15.5379 11.0476 19.1411 7.44452 23.5449 7.44452C27.9487 7.44452 31.5518 11.0476 31.5518 15.4514V23.2527C31.5518 27.6565 27.9487 31.2596 23.5449 31.2596Z" fill="#F2C7AE"/>
<path d="M19.9822 23.2527V15.4514C19.9822 11.8178 22.4352 8.72971 25.767 7.76052C25.0607 7.55508 24.3151 7.44446 23.5448 7.44446C19.141 7.44446 15.5379 11.0476 15.5379 15.4514V23.2527C15.5379 27.6565 19.141 31.2596 23.5448 31.2596C24.3151 31.2596 25.0607 31.1491 25.767 30.9436C22.4352 29.9744 19.9822 26.8863 19.9822 23.2527Z" fill="#EAAA83"/>
<path d="M28.6761 15.5982C28.6761 18.4322 26.3788 20.7296 23.5449 20.7296C20.7109 20.7296 18.4136 18.4322 18.4136 15.5982C18.4136 12.7643 20.7109 10.467 23.5449 10.467C26.3788 10.467 28.6761 12.7643 28.6761 15.5982Z" fill="#F7F0EB"/>
<path d="M19.9821 19.2892V15.4514C19.9821 13.7833 20.5002 12.231 21.3818 10.9451C19.6291 11.7612 18.4136 13.5373 18.4136 15.5982C18.4136 17.0478 19.0156 18.356 19.9821 19.2892Z" fill="#EFE2DD"/>
<path d="M28.4988 22.2845V20.6346C28.4988 17.91 26.2696 15.6807 23.5449 15.6807C20.8202 15.6807 18.5909 17.91 18.5909 20.6347V22.2845C18.5909 22.9897 18.0192 23.5614 17.314 23.5614H16.213C15.5223 23.5614 14.9902 24.1808 15.1054 24.8618C15.7886 28.8979 19.3221 31.9971 23.5448 31.9971C27.7675 31.9971 31.3011 28.8979 31.9843 24.8618C32.0995 24.1808 31.5674 23.5614 30.8766 23.5614H29.7757C29.0705 23.5614 28.4988 22.9897 28.4988 22.2845Z" fill="#EFB899"/>
<path d="M22.0199 21.098C22.0199 19.1887 22.3433 17.3712 22.9264 15.721C20.491 16.0279 18.5909 18.1195 18.5909 20.6347V22.2845C18.5909 22.9898 18.0192 23.5614 17.314 23.5614H16.2131C15.5223 23.5614 14.9902 24.1808 15.1054 24.8618C15.7886 28.8979 19.3221 31.9971 23.5448 31.9971H23.5449C24.4298 31.9971 25.2843 31.8605 26.0889 31.6082C23.6031 29.1038 22.0199 25.3254 22.0199 21.098Z" fill="#E4996D"/>
<path d="M20.5897 26.5205C20.5897 27.2805 19.8161 27.8966 18.8618 27.8966C17.9074 27.8966 17.1338 27.2805 17.1338 26.5205C17.1338 25.7605 17.9074 25.1445 18.8618 25.1445C19.8161 25.1445 20.5897 25.7605 20.5897 26.5205Z" fill="white"/>
<path d="M26.5 26.5205C26.5 27.2805 27.2736 27.8966 28.2279 27.8966C28.415 27.8966 28.5952 27.8729 28.7639 27.8291C29.4558 27.6495 29.9559 27.1315 29.9559 26.5205C29.9559 25.7605 29.1823 25.1445 28.2279 25.1445C27.2736 25.1445 26.5 25.7605 26.5 26.5205Z" fill="white"/>
<path d="M19.8688 24.4895V25.1959" stroke="#495560" stroke-miterlimit="10" stroke-linecap="round" stroke-linejoin="round"/>
<path d="M27.2209 24.4895V25.1959" stroke="#495560" stroke-miterlimit="10" stroke-linecap="round" stroke-linejoin="round"/>
<path d="M22.5757 25.1749C22.8113 25.4453 23.158 25.6164 23.5449 25.6164C23.9317 25.6164 24.2784 25.4453 24.514 25.1749" stroke="#495560" stroke-miterlimit="10" stroke-linecap="round" stroke-linejoin="round"/>
</g>
</g>
<defs>
<clipPath id="clip0_17_1948">
<rect width="32" height="32" fill="white"/>
</clipPath>
</defs>
</svg>
