<svg width="32" height="32" viewBox="0 0 32 32" fill="none" xmlns="http://www.w3.org/2000/svg">
<g clip-path="url(#clip0_17_2784)">
<path d="M32.0001 16.0001C32.0001 24.8088 24.8637 31.9972 16.003 31.9972C8.6931 31.9972 2.43205 27.0647 0.570578 20.2264C-1.63021 12.181 2.72006 3.85283 10.4533 0.992536C13.6385 -0.187812 17.0931 -0.290231 20.2292 0.567614C27.0696 2.42728 32.0001 8.68801 32.0001 16.0001Z" fill="#A4E7FF"/>
<path d="M30.5277 22.7111C28.9357 26.1532 26.1554 28.9329 22.7139 30.5249L20.2735 25.4219C19.557 23.9239 19.8531 22.1981 21.0267 21.0238C22.2008 19.8502 23.9267 19.5542 25.4247 20.2707L30.5277 22.7111Z" fill="#83DEFF"/>
<path d="M18.6378 31.7808C17.781 31.9231 16.9004 31.9972 16.003 31.9972C14.5398 31.9972 13.1229 31.8008 11.7768 31.4326C11.3268 31.3103 10.8852 31.1681 10.4526 31.0077C6.08226 29.3912 2.61183 25.9201 0.995369 21.5498C0.835085 21.1173 0.692868 20.6756 0.570578 20.2264C0.202332 18.8803 0.00592344 17.4634 0.00592344 16.0001C0.00592344 14.5369 0.202263 13.12 0.570508 11.774C0.692799 11.324 0.835085 10.8824 0.995369 10.4498C2.61183 6.07936 6.08295 2.60899 10.4533 0.992536C10.886 0.832253 11.3275 0.689966 11.7768 0.567613C12.3021 0.424077 12.8396 0.306286 13.3855 0.216802C13.3855 0.216802 5.71464 20.3331 18.6378 31.7808Z" fill="#83DEFF"/>
<path d="M23.9751 22.7916C24.1186 21.8627 24.2338 20.9054 24.3175 19.9282C24.4276 18.6484 24.4842 17.3333 24.4842 16.0001C24.4842 13.6478 24.3072 11.3535 23.975 9.20854C26.9214 9.77244 29.5028 10.6486 31.4353 11.7738C31.313 11.3245 31.1708 10.8829 31.0105 10.4503C29.0361 9.46606 26.5635 8.70064 23.8044 8.19848C23.3023 5.44004 22.5369 2.9668 21.5533 0.992473C21.1207 0.83219 20.6792 0.689966 20.2292 0.567614C21.3544 2.50014 22.2304 5.08148 22.7944 8.02795C20.6494 7.69576 18.3552 7.51873 16.0029 7.51873C14.4882 7.51873 12.9973 7.59209 11.5553 7.73375C10.7577 7.81099 9.97486 7.91015 9.21138 8.02857C9.77527 5.08148 10.6515 2.5002 11.7768 0.567613C11.3275 0.689966 10.886 0.832253 10.4533 0.992536C9.46909 2.96687 8.70353 5.43948 8.20137 8.19848C5.44294 8.70064 2.96976 9.46618 0.995369 10.4498C0.835085 10.8824 0.692799 11.324 0.570508 11.774C2.50303 10.6487 5.08438 9.77244 8.03078 9.20854C7.69859 11.3535 7.52156 13.6478 7.52156 16.0001C7.52156 18.3523 7.69859 20.6466 8.03078 22.7916C5.08438 22.2277 2.5031 21.3516 0.570578 20.2264C0.692868 20.6756 0.835085 21.1173 0.995369 21.5498C2.9697 22.5341 5.44225 23.2995 8.20137 23.8016C8.70347 26.5601 9.46896 29.0334 10.4526 31.0077C10.8852 31.1681 11.3268 31.3103 11.7768 31.4326C10.6516 29.5001 9.77534 26.9186 9.21138 23.9722C10.5117 24.1736 11.8675 24.3179 13.2573 24.4003C14.1599 24.4537 15.0772 24.4814 16.0029 24.4814C17.3361 24.4814 18.6513 24.4248 19.931 24.3147C20.9082 24.231 21.8655 24.1158 22.7943 23.9715C22.4963 25.5287 22.1113 26.9843 21.6472 28.295C21.2346 29.4652 20.7595 30.521 20.229 31.4326C20.6784 31.3102 21.12 31.168 21.5525 31.0076C21.7894 30.5332 22.0134 30.0298 22.224 29.5C22.8896 27.8276 23.4232 25.8976 23.8043 23.8016C25.8997 23.4204 27.8303 22.8868 29.5028 22.2211C30.0325 22.0107 30.5359 21.7866 31.0104 21.5504C31.1707 21.1178 31.313 20.6761 31.4353 20.2262C30.5238 20.7566 29.468 21.2317 28.2977 21.6443C26.9871 22.1086 25.5323 22.4936 23.9751 22.7916ZM22.9715 22.9686C21.9821 23.1301 20.9579 23.2571 19.9073 23.3484C18.6379 23.4585 17.3304 23.5158 16.003 23.5158C14.9357 23.5158 13.8812 23.479 12.8487 23.407C11.5355 23.3162 10.2576 23.1681 9.03447 22.9686C8.67785 20.7837 8.48732 18.4257 8.48732 16.0001C8.48732 13.5744 8.67785 11.2164 9.03447 9.03151C9.81021 8.90472 10.6071 8.79912 11.4215 8.71676C12.9015 8.56354 14.4381 8.48436 16.003 8.48436C18.4286 8.48436 20.7866 8.67489 22.9716 9.03158C23.3282 11.2165 23.5187 13.5745 23.5187 16.0001C23.5187 17.3275 23.4614 18.635 23.3513 19.9045C23.2599 20.955 23.133 21.9792 22.9715 22.9686Z" fill="#83DEFF"/>
<path d="M29.5028 22.2211C27.8303 22.8868 25.8997 23.4204 23.8043 23.8016C23.4232 25.8976 22.8896 27.8276 22.224 29.5L21.6472 28.295C22.1113 26.9843 22.4963 25.5287 22.7943 23.9715C21.8655 24.1158 20.9082 24.231 19.931 24.3147C19.8814 23.9922 19.8745 23.6677 19.9073 23.3484C20.9579 23.2571 21.9821 23.1301 22.9715 22.9686C23.133 21.9792 23.2599 20.955 23.3513 19.9045C23.6706 19.8716 23.995 19.8787 24.3175 19.9282C24.2338 20.9054 24.1186 21.8627 23.9751 22.7916C25.5323 22.4936 26.9871 22.1086 28.2977 21.6443L29.5028 22.2211Z" fill="#5AD6FF"/>
<path d="M9.21138 23.9722C9.77534 26.9186 10.6516 29.5001 11.7768 31.4326C11.3268 31.3103 10.8852 31.1681 10.4526 31.0077C9.46896 29.0334 8.70347 26.5601 8.20137 23.8016C5.44225 23.2995 2.9697 22.5341 0.995369 21.5498C0.835085 21.1173 0.692868 20.6756 0.570578 20.2264C2.5031 21.3516 5.08438 22.2277 8.03078 22.7916C7.69859 20.6466 7.52156 18.3523 7.52156 16.0001C7.52156 13.6478 7.69859 11.3535 8.03078 9.20854C5.08438 9.77244 2.50303 10.6487 0.570508 11.774C0.692799 11.324 0.835085 10.8824 0.995369 10.4498C2.96976 9.46618 5.44294 8.70064 8.20137 8.19848C8.70353 5.43948 9.46909 2.96687 10.4533 0.992536C10.886 0.832253 11.3275 0.689966 11.7768 0.567613C10.6515 2.5002 9.77527 5.08148 9.21138 8.02857C9.97486 7.91015 10.7577 7.81099 11.5553 7.73375C11.5076 8.05438 11.4627 8.38201 11.4215 8.71676C10.6071 8.79912 9.81021 8.90472 9.03447 9.03151C8.67785 11.2164 8.48732 13.5744 8.48732 16.0001C8.48732 18.4257 8.67785 20.7837 9.03447 22.9686C10.2576 23.1681 11.5355 23.3162 12.8487 23.407C12.9768 23.7398 13.1125 24.0713 13.2573 24.4003C11.8675 24.3179 10.5117 24.1736 9.21138 23.9722Z" fill="#5AD6FF"/>
<path d="M28.4811 29.6996L28.3415 30.1184C27.7922 31.7662 25.5165 31.9079 24.7671 30.341L22.0159 24.5884C21.2298 22.9449 22.9478 21.2269 24.5913 22.0129L30.3439 24.7641C31.9108 25.5135 31.7691 27.7892 30.1213 28.3384L29.7025 28.478C29.1258 28.6704 28.6733 29.1229 28.4811 29.6996Z" fill="#495560"/>
<path d="M28.9844 28.9087C28.7571 29.1244 28.5827 29.3944 28.4811 29.6996L28.3415 30.1184C27.7922 31.7662 25.5165 31.9079 24.7671 30.341L22.0159 24.5884C21.2298 22.9449 22.9478 21.2269 24.5913 22.0129C24.5913 22.0128 24.5232 27.1378 28.9844 28.9087Z" fill="#3D4751"/>
<path d="M8.73246 10.1837C9.53555 10.1837 10.1866 9.53265 10.1866 8.72957C10.1866 7.92649 9.53555 7.27546 8.73246 7.27546C7.92938 7.27546 7.27835 7.92649 7.27835 8.72957C7.27835 9.53265 7.92938 10.1837 8.73246 10.1837Z" fill="#FF6E80"/>
<path d="M8.73246 24.7247C9.53555 24.7247 10.1866 24.0737 10.1866 23.2706C10.1866 22.4675 9.53555 21.8165 8.73246 21.8165C7.92938 21.8165 7.27835 22.4675 7.27835 23.2706C7.27835 24.0737 7.92938 24.7247 8.73246 24.7247Z" fill="#FBF198"/>
<path d="M23.2734 10.1837C24.0765 10.1837 24.7276 9.53265 24.7276 8.72957C24.7276 7.92649 24.0765 7.27546 23.2734 7.27546C22.4704 7.27546 21.8193 7.92649 21.8193 8.72957C21.8193 9.53265 22.4704 10.1837 23.2734 10.1837Z" fill="#73DA8C"/>
<path d="M12.787 16.5019C12.7844 17.329 11.9403 17.9968 10.9018 17.9935C9.86326 17.9903 9.02341 17.3172 9.02603 16.4901C9.0286 15.6631 9.87263 14.9952 10.9113 14.9984C11.9498 15.0017 12.7896 15.6748 12.787 16.5019Z" fill="white"/>
<path d="M19.2189 16.522C19.2164 17.3491 20.0562 18.0222 21.0947 18.0254C22.1333 18.0287 22.9773 17.3609 22.9799 16.5338C22.9825 15.7068 22.1427 15.0337 21.1041 15.0304C20.0655 15.0271 19.2215 15.6949 19.2189 16.522Z" fill="white"/>
<path d="M17.5227 15.3661C17.5256 14.4291 16.8471 14.339 16.0098 14.3363C15.1724 14.3337 14.4934 14.4196 14.4904 15.3566C14.4875 16.2936 15.1639 17.0553 16.0013 17.0579C16.8386 17.0605 17.5197 16.3031 17.5227 15.3661Z" fill="#49525E"/>
<path d="M12.9027 15.3554C12.9021 15.3554 12.9016 15.3554 12.9011 15.3554C12.6344 15.3546 12.419 15.1377 12.4199 14.8711C12.4202 14.761 12.3777 14.6574 12.3001 14.5793C12.2225 14.5012 12.119 14.458 12.0089 14.4576C11.7825 14.4577 11.596 14.6412 11.5953 14.8685C11.5945 15.1347 11.3784 15.3498 11.1126 15.3498C11.112 15.3498 11.1115 15.3498 11.111 15.3498C10.8443 15.3489 10.6289 15.1321 10.6297 14.8655C10.6321 14.1072 11.2498 13.492 12.0076 13.492H12.0119C12.38 13.4931 12.7255 13.6376 12.9849 13.8986C13.2444 14.1596 13.3867 14.5061 13.3854 14.8741C13.3846 15.1402 13.1685 15.3554 12.9027 15.3554Z" fill="#444D56"/>
<path d="M20.9037 15.3805C20.9031 15.3805 20.9026 15.3805 20.9021 15.3805C20.6354 15.3796 20.42 15.1628 20.4208 14.8962C20.4212 14.786 20.3787 14.6824 20.3011 14.6043C20.2234 14.5262 20.1201 14.483 20.01 14.4826C20.0095 14.4826 20.009 14.4826 20.0086 14.4826C19.7818 14.4826 19.5971 14.6667 19.5963 14.8936C19.5955 15.1597 19.3794 15.3749 19.1136 15.3749C19.113 15.3749 19.1125 15.3749 19.112 15.3749C18.8453 15.374 18.6299 15.1572 18.6307 14.8906C18.6331 14.1323 19.2508 13.517 20.0085 13.517H20.0129C20.3809 13.5181 20.7265 13.6625 20.9859 13.9236C21.2454 14.1847 21.3877 14.5311 21.3864 14.8992C21.3855 15.1653 21.1696 15.3805 20.9037 15.3805Z" fill="#444D56"/>
</g>
<defs>
<clipPath id="clip0_17_2784">
<rect width="32" height="32" fill="white"/>
</clipPath>
</defs>
</svg>
