<svg width="500" height="500" viewBox="0 0 500 500" fill="none" xmlns="http://www.w3.org/2000/svg">
    <path d="M500 382.4H0V382.65H500V382.4Z" fill="#EBEBEB" />
    <path d="M449.9 398.49H416.781V398.74H449.9V398.49Z" fill="#EBEBEB" />
    <path d="M331.219 401.21H322.531V401.46H331.219V401.21Z" fill="#EBEBEB" />
    <path d="M415.781 389.21H396.59V389.46H415.781V389.21Z" fill="#EBEBEB" />
    <path d="M95.65 390.89H52.46V391.14H95.65V390.89Z" fill="#EBEBEB" />
    <path d="M110.89 390.89H104.56V391.14H110.89V390.89Z" fill="#EBEBEB" />
    <path d="M225.15 395.11H131.47V395.36H225.15V395.11Z" fill="#EBEBEB" />
    <path
        d="M237 337.8H43.91C42.3973 337.797 40.9476 337.194 39.8788 336.124C38.8102 335.054 38.21 333.603 38.21 332.09V60.66C38.2232 59.156 38.8291 57.7181 39.8965 56.6582C40.9637 55.5985 42.4059 55.0026 43.91 55H237C238.514 55 239.967 55.6015 241.037 56.6724C242.108 57.7432 242.71 59.1956 242.71 60.71V332.09C242.71 333.604 242.108 335.057 241.037 336.128C239.967 337.199 238.514 337.8 237 337.8ZM43.91 55.2C42.4637 55.2026 41.0775 55.779 40.0557 56.8028C39.0338 57.8264 38.46 59.2136 38.46 60.66V332.09C38.46 333.536 39.0338 334.924 40.0557 335.947C41.0775 336.971 42.4637 337.547 43.91 337.55H237C238.447 337.547 239.835 336.971 240.858 335.947C241.882 334.925 242.457 333.537 242.46 332.09V60.66C242.457 59.2128 241.882 57.8256 240.858 56.8021C239.835 55.7788 238.447 55.2026 237 55.2H43.91Z"
        fill="#EBEBEB" />
    <path
        d="M453.31 337.8H260.21C258.696 337.797 257.246 337.194 256.175 336.125C255.106 335.054 254.503 333.604 254.5 332.09V60.66C254.515 59.1551 255.124 57.7171 256.193 56.6576C257.261 55.5981 258.706 55.0025 260.21 55H453.31C454.812 55.0053 456.251 55.6022 457.317 56.6618C458.382 57.7213 458.987 59.1578 459 60.66V332.09C459 333.601 458.401 335.05 457.335 336.121C456.268 337.19 454.821 337.794 453.31 337.8ZM260.21 55.2C258.762 55.2026 257.375 55.7788 256.353 56.8021C255.329 57.8256 254.753 59.2128 254.75 60.66V332.09C254.753 333.537 255.329 334.925 256.353 335.947C257.375 336.971 258.762 337.547 260.21 337.55H453.31C454.757 337.547 456.144 336.971 457.168 335.947C458.192 334.925 458.767 333.537 458.769 332.09V60.66C458.767 59.2128 458.192 57.8256 457.168 56.8021C456.144 55.7788 454.757 55.2026 453.31 55.2H260.21Z"
        fill="#EBEBEB" />
    <path
        d="M433.34 371.381V324.56H429.34V302.25H423.49V224.69H415.02V214.681L396.96 206.25V196.16H394.46V224.69H390.96V302.25H387.45V261.469H377.95V240.45H375.29V302.25H368.07V278.731H363.32V272.731H352.31V252.21H346.281V237.7H338.87V216.55H336.22V237.7H328.81V252.21H322.781V272.731H311.77V278.731H307.02V302.25H301.381V272.731H290.369V209.169H286.87V202.169H263.35V209.169H258.34V255.21H238.331V259.719H230.82V263.219H238.331V281.24H217.31V221.181H212.81V208.419H203.05V163.131H200.29V208.419H193.29V221.181H152.22V216.981H149.71V245.51H146.21V246.01H144.11V274.531H140.6V282.29H133.2V261.269H130.55V311.31H127.59V290.3H124.94V323.069H123.33V299.55H118.57V293.55H107.56V273.031H101.53V258.519H94.1201V237.381H91.4801V258.519H84.0601V273.031H78.0401V293.55H67.0301V299.55H62.2701V322.569H61.4201V323.069H59.0601V371.381H433.34Z"
        fill="#E6E6E6" />
    <path d="M177.97 223.99H175.131V226.831H177.97V223.99Z" fill="#F0F0F0" />
    <path d="M177.97 228.74H175.131V231.581H177.97V228.74Z" fill="#F0F0F0" />
    <path d="M177.97 247.76H175.131V250.6H177.97V247.76Z" fill="#F0F0F0" />
    <path d="M177.97 252.51H175.131V255.35H177.97V252.51Z" fill="#F0F0F0" />
    <path d="M177.97 257.269H175.131V260.11H177.97V257.269Z" fill="#F0F0F0" />
    <path d="M177.97 271.531H175.131V274.369H177.97V271.531Z" fill="#F0F0F0" />
    <path d="M177.97 276.281H175.131V279.119H177.97V276.281Z" fill="#F0F0F0" />
    <path d="M182.481 243.01H179.64V245.85H182.481V243.01Z" fill="#F0F0F0" />
    <path d="M182.481 247.76H179.64V250.6H182.481V247.76Z" fill="#F0F0F0" />
    <path d="M182.481 252.51H179.64V255.35H182.481V252.51Z" fill="#F0F0F0" />
    <path d="M182.481 257.269H179.64V260.11H182.481V257.269Z" fill="#F0F0F0" />
    <path d="M182.481 262.019H179.64V264.86H182.481V262.019Z" fill="#F0F0F0" />
    <path d="M182.481 271.531H179.64V274.369H182.481V271.531Z" fill="#F0F0F0" />
    <path d="M182.481 276.281H179.64V279.119H182.481V276.281Z" fill="#F0F0F0" />
    <path d="M186.981 223.99H184.14V226.831H186.981V223.99Z" fill="#F0F0F0" />
    <path d="M186.981 228.74H184.14V231.581H186.981V228.74Z" fill="#F0F0F0" />
    <path d="M186.981 233.5H184.14V236.34H186.981V233.5Z" fill="#F0F0F0" />
    <path d="M186.981 238.25H184.14V241.09H186.981V238.25Z" fill="#F0F0F0" />
    <path d="M186.981 243.01H184.14V245.85H186.981V243.01Z" fill="#F0F0F0" />
    <path d="M186.981 247.76H184.14V250.6H186.981V247.76Z" fill="#F0F0F0" />
    <path d="M186.981 252.51H184.14V255.35H186.981V252.51Z" fill="#F0F0F0" />
    <path d="M186.981 257.269H184.14V260.11H186.981V257.269Z" fill="#F0F0F0" />
    <path d="M186.981 262.019H184.14V264.86H186.981V262.019Z" fill="#F0F0F0" />
    <path d="M186.981 266.781H184.14V269.619H186.981V266.781Z" fill="#F0F0F0" />
    <path d="M186.981 276.281H184.14V279.119H186.981V276.281Z" fill="#F0F0F0" />
    <path d="M191.481 223.99H188.64V226.831H191.481V223.99Z" fill="#F0F0F0" />
    <path d="M191.481 228.74H188.64V231.581H191.481V228.74Z" fill="#F0F0F0" />
    <path d="M191.481 233.5H188.64V236.34H191.481V233.5Z" fill="#F0F0F0" />
    <path d="M191.481 238.25H188.64V241.09H191.481V238.25Z" fill="#F0F0F0" />
    <path d="M191.481 243.01H188.64V245.85H191.481V243.01Z" fill="#F0F0F0" />
    <path d="M191.481 247.76H188.64V250.6H191.481V247.76Z" fill="#F0F0F0" />
    <path d="M191.481 252.51H188.64V255.35H191.481V252.51Z" fill="#F0F0F0" />
    <path d="M191.481 295.3H188.64V298.14H191.481V295.3Z" fill="#F0F0F0" />
    <path d="M195.99 223.99H193.15V226.831H195.99V223.99Z" fill="#F0F0F0" />
    <path d="M195.99 228.74H193.15V231.581H195.99V228.74Z" fill="#F0F0F0" />
    <path d="M195.99 233.5H193.15V236.34H195.99V233.5Z" fill="#F0F0F0" />
    <path d="M195.99 238.25H193.15V241.09H195.99V238.25Z" fill="#F0F0F0" />
    <path d="M195.99 243.01H193.15V245.85H195.99V243.01Z" fill="#F0F0F0" />
    <path d="M195.99 247.76H193.15V250.6H195.99V247.76Z" fill="#F0F0F0" />
    <path d="M195.99 252.51H193.15V255.35H195.99V252.51Z" fill="#F0F0F0" />
    <path d="M195.99 257.269H193.15V260.11H195.99V257.269Z" fill="#F0F0F0" />
    <path d="M195.99 285.79H193.15V288.631H195.99V285.79Z" fill="#F0F0F0" />
    <path d="M195.99 290.55H193.15V293.39H195.99V290.55Z" fill="#F0F0F0" />
    <path d="M195.99 295.3H193.15V298.14H195.99V295.3Z" fill="#F0F0F0" />
    <path d="M195.99 300.05H193.15V302.89H195.99V300.05Z" fill="#F0F0F0" />
    <path d="M195.99 319.069H193.15V321.91H195.99V319.069Z" fill="#F0F0F0" />
    <path d="M200.49 223.99H197.65V226.831H200.49V223.99Z" fill="#F0F0F0" />
    <path d="M200.49 228.74H197.65V231.581H200.49V228.74Z" fill="#F0F0F0" />
    <path d="M200.49 233.5H197.65V236.34H200.49V233.5Z" fill="#F0F0F0" />
    <path d="M200.49 238.25H197.65V241.09H200.49V238.25Z" fill="#F0F0F0" />
    <path d="M200.49 243.01H197.65V245.85H200.49V243.01Z" fill="#F0F0F0" />
    <path d="M200.49 247.76H197.65V250.6H200.49V247.76Z" fill="#F0F0F0" />
    <path d="M200.49 252.51H197.65V255.35H200.49V252.51Z" fill="#F0F0F0" />
    <path d="M200.49 257.269H197.65V260.11H200.49V257.269Z" fill="#F0F0F0" />
    <path d="M200.49 262.019H197.65V264.86H200.49V262.019Z" fill="#F0F0F0" />
    <path d="M200.49 266.781H197.65V269.619H200.49V266.781Z" fill="#F0F0F0" />
    <path d="M200.49 281.04H197.65V283.881H200.49V281.04Z" fill="#F0F0F0" />
    <path d="M200.49 285.79H197.65V288.631H200.49V285.79Z" fill="#F0F0F0" />
    <path d="M200.49 290.55H197.65V293.39H200.49V290.55Z" fill="#F0F0F0" />
    <path d="M200.49 295.3H197.65V298.14H200.49V295.3Z" fill="#F0F0F0" />
    <path d="M200.49 300.05H197.65V302.89H200.49V300.05Z" fill="#F0F0F0" />
    <path d="M200.49 319.069H197.65V321.91H200.49V319.069Z" fill="#F0F0F0" />
    <path d="M205 223.99H202.16V226.831H205V223.99Z" fill="#F0F0F0" />
    <path d="M205 228.74H202.16V231.581H205V228.74Z" fill="#F0F0F0" />
    <path d="M205 233.5H202.16V236.34H205V233.5Z" fill="#F0F0F0" />
    <path d="M205 238.25H202.16V241.09H205V238.25Z" fill="#F0F0F0" />
    <path d="M205 243.01H202.16V245.85H205V243.01Z" fill="#F0F0F0" />
    <path d="M205 247.76H202.16V250.6H205V247.76Z" fill="#F0F0F0" />
    <path d="M205 252.51H202.16V255.35H205V252.51Z" fill="#F0F0F0" />
    <path d="M205 257.269H202.16V260.11H205V257.269Z" fill="#F0F0F0" />
    <path d="M205 262.019H202.16V264.86H205V262.019Z" fill="#F0F0F0" />
    <path d="M205 266.781H202.16V269.619H205V266.781Z" fill="#F0F0F0" />
    <path d="M205 271.531H202.16V274.369H205V271.531Z" fill="#F0F0F0" />
    <path d="M205 276.281H202.16V279.119H205V276.281Z" fill="#F0F0F0" />
    <path d="M205 281.04H202.16V283.881H205V281.04Z" fill="#F0F0F0" />
    <path d="M205 285.79H202.16V288.631H205V285.79Z" fill="#F0F0F0" />
    <path d="M205 290.55H202.16V293.39H205V290.55Z" fill="#F0F0F0" />
    <path d="M205 295.3H202.16V298.14H205V295.3Z" fill="#F0F0F0" />
    <path d="M205 300.05H202.16V302.89H205V300.05Z" fill="#F0F0F0" />
    <path d="M205 304.81H202.16V307.65H205V304.81Z" fill="#F0F0F0" />
    <path d="M209.5 223.99H206.66V226.831H209.5V223.99Z" fill="#F0F0F0" />
    <path d="M209.5 228.74H206.66V231.581H209.5V228.74Z" fill="#F0F0F0" />
    <path d="M209.5 233.5H206.66V236.34H209.5V233.5Z" fill="#F0F0F0" />
    <path d="M209.5 238.25H206.66V241.09H209.5V238.25Z" fill="#F0F0F0" />
    <path d="M209.5 243.01H206.66V245.85H209.5V243.01Z" fill="#F0F0F0" />
    <path d="M209.5 247.76H206.66V250.6H209.5V247.76Z" fill="#F0F0F0" />
    <path d="M209.5 252.51H206.66V255.35H209.5V252.51Z" fill="#F0F0F0" />
    <path d="M209.5 257.269H206.66V260.11H209.5V257.269Z" fill="#F0F0F0" />
    <path d="M209.5 262.019H206.66V264.86H209.5V262.019Z" fill="#F0F0F0" />
    <path d="M209.5 266.781H206.66V269.619H209.5V266.781Z" fill="#F0F0F0" />
    <path d="M209.5 281.04H206.66V283.881H209.5V281.04Z" fill="#F0F0F0" />
    <path d="M209.5 285.79H206.66V288.631H209.5V285.79Z" fill="#F0F0F0" />
    <path d="M209.5 290.55H206.66V293.39H209.5V290.55Z" fill="#F0F0F0" />
    <path d="M209.5 295.3H206.66V298.14H209.5V295.3Z" fill="#F0F0F0" />
    <path d="M214 223.99H211.16V226.831H214V223.99Z" fill="#F0F0F0" />
    <path d="M214 228.74H211.16V231.581H214V228.74Z" fill="#F0F0F0" />
    <path d="M214 233.5H211.16V236.34H214V233.5Z" fill="#F0F0F0" />
    <path d="M214 238.25H211.16V241.09H214V238.25Z" fill="#F0F0F0" />
    <path d="M214 243.01H211.16V245.85H214V243.01Z" fill="#F0F0F0" />
    <path d="M214 247.76H211.16V250.6H214V247.76Z" fill="#F0F0F0" />
    <path d="M214 252.51H211.16V255.35H214V252.51Z" fill="#F0F0F0" />
    <path d="M214 257.269H211.16V260.11H214V257.269Z" fill="#F0F0F0" />
    <path d="M214 262.019H211.16V264.86H214V262.019Z" fill="#F0F0F0" />
    <path d="M214 266.781H211.16V269.619H214V266.781Z" fill="#F0F0F0" />
    <path d="M214 281.04H211.16V283.881H214V281.04Z" fill="#F0F0F0" />
    <path d="M214 285.79H211.16V288.631H214V285.79Z" fill="#F0F0F0" />
    <path d="M214 290.55H211.16V293.39H214V290.55Z" fill="#F0F0F0" />
    <path d="M264.71 211.65H261.869V214.49H264.71V211.65Z" fill="#F0F0F0" />
    <path d="M264.71 216.4H261.869V219.24H264.71V216.4Z" fill="#F0F0F0" />
    <path d="M264.71 221.15H261.869V223.99H264.71V221.15Z" fill="#F0F0F0" />
    <path d="M264.71 225.91H261.869V228.75H264.71V225.91Z" fill="#F0F0F0" />
    <path d="M264.71 230.66H261.869V233.5H264.71V230.66Z" fill="#F0F0F0" />
    <path d="M264.71 235.419H261.869V238.26H264.71V235.419Z" fill="#F0F0F0" />
    <path d="M264.71 240.169H261.869V243.01H264.71V240.169Z" fill="#F0F0F0" />
    <path d="M264.71 244.919H261.869V247.76H264.71V244.919Z" fill="#F0F0F0" />
    <path d="M264.71 259.19H261.869V262.031H264.71V259.19Z" fill="#F0F0F0" />
    <path d="M264.71 263.94H261.869V266.781H264.71V263.94Z" fill="#F0F0F0" />
    <path d="M269.219 211.65H266.381V214.49H269.219V211.65Z" fill="#F0F0F0" />
    <path d="M269.219 216.4H266.381V219.24H269.219V216.4Z" fill="#F0F0F0" />
    <path d="M269.219 221.15H266.381V223.99H269.219V221.15Z" fill="#F0F0F0" />
    <path d="M269.219 225.91H266.381V228.75H269.219V225.91Z" fill="#F0F0F0" />
    <path d="M269.219 230.66H266.381V233.5H269.219V230.66Z" fill="#F0F0F0" />
    <path d="M269.219 235.419H266.381V238.26H269.219V235.419Z" fill="#F0F0F0" />
    <path d="M269.219 240.169H266.381V243.01H269.219V240.169Z" fill="#F0F0F0" />
    <path d="M269.219 244.919H266.381V247.76H269.219V244.919Z" fill="#F0F0F0" />
    <path d="M269.219 263.94H266.381V266.781H269.219V263.94Z" fill="#F0F0F0" />
    <path d="M273.72 211.65H270.881V214.49H273.72V211.65Z" fill="#F0F0F0" />
    <path d="M273.72 216.4H270.881V219.24H273.72V216.4Z" fill="#F0F0F0" />
    <path d="M273.72 221.15H270.881V223.99H273.72V221.15Z" fill="#F0F0F0" />
    <path d="M273.72 225.91H270.881V228.75H273.72V225.91Z" fill="#F0F0F0" />
    <path d="M273.72 230.66H270.881V233.5H273.72V230.66Z" fill="#F0F0F0" />
    <path d="M273.72 235.419H270.881V238.26H273.72V235.419Z" fill="#F0F0F0" />
    <path d="M273.72 240.169H270.881V243.01H273.72V240.169Z" fill="#F0F0F0" />
    <path d="M273.72 244.919H270.881V247.76H273.72V244.919Z" fill="#F0F0F0" />
    <path d="M278.219 211.65H275.381V214.49H278.219V211.65Z" fill="#F0F0F0" />
    <path d="M278.219 216.4H275.381V219.24H278.219V216.4Z" fill="#F0F0F0" />
    <path d="M278.219 221.15H275.381V223.99H278.219V221.15Z" fill="#F0F0F0" />
    <path d="M278.219 225.91H275.381V228.75H278.219V225.91Z" fill="#F0F0F0" />
    <path d="M278.219 230.66H275.381V233.5H278.219V230.66Z" fill="#F0F0F0" />
    <path d="M278.219 235.419H275.381V238.26H278.219V235.419Z" fill="#F0F0F0" />
    <path d="M278.219 244.919H275.381V247.76H278.219V244.919Z" fill="#F0F0F0" />
    <path d="M278.219 249.681H275.381V252.519H278.219V249.681Z" fill="#F0F0F0" />
    <path d="M278.219 263.94H275.381V266.781H278.219V263.94Z" fill="#F0F0F0" />
    <path d="M278.219 268.69H275.381V271.531H278.219V268.69Z" fill="#F0F0F0" />
    <path d="M278.219 273.45H275.381V276.29H278.219V273.45Z" fill="#F0F0F0" />
    <path d="M278.219 278.2H275.381V281.04H278.219V278.2Z" fill="#F0F0F0" />
    <path d="M278.219 282.96H275.381V285.8H278.219V282.96Z" fill="#F0F0F0" />
    <path d="M278.219 287.71H275.381V290.55H278.219V287.71Z" fill="#F0F0F0" />
    <path d="M278.219 292.46H275.381V295.3H278.219V292.46Z" fill="#F0F0F0" />
    <path d="M282.731 211.65H279.89V214.49H282.731V211.65Z" fill="#F0F0F0" />
    <path d="M282.731 216.4H279.89V219.24H282.731V216.4Z" fill="#F0F0F0" />
    <path d="M282.731 221.15H279.89V223.99H282.731V221.15Z" fill="#F0F0F0" />
    <path d="M282.731 225.91H279.89V228.75H282.731V225.91Z" fill="#F0F0F0" />
    <path d="M282.731 230.66H279.89V233.5H282.731V230.66Z" fill="#F0F0F0" />
    <path d="M282.731 235.419H279.89V238.26H282.731V235.419Z" fill="#F0F0F0" />
    <path d="M282.731 249.681H279.89V252.519H282.731V249.681Z" fill="#F0F0F0" />
    <path d="M282.731 254.431H279.89V257.269H282.731V254.431Z" fill="#F0F0F0" />
    <path d="M282.731 259.19H279.89V262.031H282.731V259.19Z" fill="#F0F0F0" />
    <path d="M282.731 263.94H279.89V266.781H282.731V263.94Z" fill="#F0F0F0" />
    <path d="M282.731 268.69H279.89V271.531H282.731V268.69Z" fill="#F0F0F0" />
    <path d="M282.731 273.45H279.89V276.29H282.731V273.45Z" fill="#F0F0F0" />
    <path d="M282.731 278.2H279.89V281.04H282.731V278.2Z" fill="#F0F0F0" />
    <path d="M282.731 282.96H279.89V285.8H282.731V282.96Z" fill="#F0F0F0" />
    <path d="M282.731 287.71H279.89V290.55H282.731V287.71Z" fill="#F0F0F0" />
    <path d="M282.731 292.46H279.89V295.3H282.731V292.46Z" fill="#F0F0F0" />
    <path d="M282.731 297.219H279.89V300.06H282.731V297.219Z" fill="#F0F0F0" />
    <path d="M282.731 306.731H279.89V309.569H282.731V306.731Z" fill="#F0F0F0" />
    <path d="M287.231 211.65H284.39V214.49H287.231V211.65Z" fill="#F0F0F0" />
    <path d="M287.231 216.4H284.39V219.24H287.231V216.4Z" fill="#F0F0F0" />
    <path d="M287.231 221.15H284.39V223.99H287.231V221.15Z" fill="#F0F0F0" />
    <path d="M287.231 225.91H284.39V228.75H287.231V225.91Z" fill="#F0F0F0" />
    <path d="M287.231 230.66H284.39V233.5H287.231V230.66Z" fill="#F0F0F0" />
    <path d="M287.231 235.419H284.39V238.26H287.231V235.419Z" fill="#F0F0F0" />
    <path d="M287.231 249.681H284.39V252.519H287.231V249.681Z" fill="#F0F0F0" />
    <path d="M287.231 254.431H284.39V257.269H287.231V254.431Z" fill="#F0F0F0" />
    <path d="M287.231 259.19H284.39V262.031H287.231V259.19Z" fill="#F0F0F0" />
    <path d="M287.231 263.94H284.39V266.781H287.231V263.94Z" fill="#F0F0F0" />
    <path d="M287.231 278.2H284.39V281.04H287.231V278.2Z" fill="#F0F0F0" />
    <path d="M287.231 282.96H284.39V285.8H287.231V282.96Z" fill="#F0F0F0" />
    <path d="M287.231 287.71H284.39V290.55H287.231V287.71Z" fill="#F0F0F0" />
    <path d="M287.231 292.46H284.39V295.3H287.231V292.46Z" fill="#F0F0F0" />
    <path d="M287.231 297.219H284.39V300.06H287.231V297.219Z" fill="#F0F0F0" />
    <path d="M287.231 306.731H284.39V309.569H287.231V306.731Z" fill="#F0F0F0" />
    <path d="M287.231 311.481H284.39V314.319H287.231V311.481Z" fill="#F0F0F0" />
    <path d="M328.1 255.85H325.26V258.69H328.1V255.85Z" fill="#F0F0F0" />
    <path d="M328.1 260.6H325.26V263.44H328.1V260.6Z" fill="#F0F0F0" />
    <path d="M328.1 265.36H325.26V268.2H328.1V265.36Z" fill="#F0F0F0" />
    <path d="M328.1 270.11H325.26V272.95H328.1V270.11Z" fill="#F0F0F0" />
    <path d="M328.1 274.869H325.26V277.71H328.1V274.869Z" fill="#F0F0F0" />
    <path d="M328.1 279.619H325.26V282.46H328.1V279.619Z" fill="#F0F0F0" />
    <path d="M328.1 284.369H325.26V287.21H328.1V284.369Z" fill="#F0F0F0" />
    <path d="M328.1 298.64H325.26V301.481H328.1V298.64Z" fill="#F0F0F0" />
    <path d="M328.1 303.39H325.26V306.231H328.1V303.39Z" fill="#F0F0F0" />
    <path d="M328.1 308.14H325.26V310.981H328.1V308.14Z" fill="#F0F0F0" />
    <path d="M332.6 255.85H329.76V258.69H332.6V255.85Z" fill="#F0F0F0" />
    <path d="M332.6 260.6H329.76V263.44H332.6V260.6Z" fill="#F0F0F0" />
    <path d="M332.6 265.36H329.76V268.2H332.6V265.36Z" fill="#F0F0F0" />
    <path d="M332.6 270.11H329.76V272.95H332.6V270.11Z" fill="#F0F0F0" />
    <path d="M332.6 274.869H329.76V277.71H332.6V274.869Z" fill="#F0F0F0" />
    <path d="M332.6 279.619H329.76V282.46H332.6V279.619Z" fill="#F0F0F0" />
    <path d="M332.6 284.369H329.76V287.21H332.6V284.369Z" fill="#F0F0F0" />
    <path d="M337.11 255.85H334.269V258.69H337.11V255.85Z" fill="#F0F0F0" />
    <path d="M337.11 260.6H334.269V263.44H337.11V260.6Z" fill="#F0F0F0" />
    <path d="M337.11 265.36H334.269V268.2H337.11V265.36Z" fill="#F0F0F0" />
    <path d="M337.11 270.11H334.269V272.95H337.11V270.11Z" fill="#F0F0F0" />
    <path d="M337.11 274.869H334.269V277.71H337.11V274.869Z" fill="#F0F0F0" />
    <path d="M337.11 279.619H334.269V282.46H337.11V279.619Z" fill="#F0F0F0" />
    <path d="M337.11 284.369H334.269V287.21H337.11V284.369Z" fill="#F0F0F0" />
    <path d="M341.61 255.85H338.769V258.69H341.61V255.85Z" fill="#F0F0F0" />
    <path d="M341.61 260.6H338.769V263.44H341.61V260.6Z" fill="#F0F0F0" />
    <path d="M341.61 265.36H338.769V268.2H341.61V265.36Z" fill="#F0F0F0" />
    <path d="M341.61 270.11H338.769V272.95H341.61V270.11Z" fill="#F0F0F0" />
    <path d="M341.61 274.869H338.769V277.71H341.61V274.869Z" fill="#F0F0F0" />
    <path d="M341.61 279.619H338.769V282.46H341.61V279.619Z" fill="#F0F0F0" />
    <path d="M341.61 284.369H338.769V287.21H341.61V284.369Z" fill="#F0F0F0" />
    <path d="M341.61 289.131H338.769V291.969H341.61V289.131Z" fill="#F0F0F0" />
    <path d="M341.61 293.881H338.769V296.719H341.61V293.881Z" fill="#F0F0F0" />
    <path d="M341.61 298.64H338.769V301.481H341.61V298.64Z" fill="#F0F0F0" />
    <path d="M341.61 303.39H338.769V306.231H341.61V303.39Z" fill="#F0F0F0" />
    <path d="M346.119 255.85H343.281V258.69H346.119V255.85Z" fill="#F0F0F0" />
    <path d="M346.119 260.6H343.281V263.44H346.119V260.6Z" fill="#F0F0F0" />
    <path d="M346.119 265.36H343.281V268.2H346.119V265.36Z" fill="#F0F0F0" />
    <path d="M346.119 270.11H343.281V272.95H346.119V270.11Z" fill="#F0F0F0" />
    <path d="M346.119 274.869H343.281V277.71H346.119V274.869Z" fill="#F0F0F0" />
    <path d="M346.119 279.619H343.281V282.46H346.119V279.619Z" fill="#F0F0F0" />
    <path d="M346.119 284.369H343.281V287.21H346.119V284.369Z" fill="#F0F0F0" />
    <path d="M346.119 289.131H343.281V291.969H346.119V289.131Z" fill="#F0F0F0" />
    <path d="M346.119 293.881H343.281V296.719H346.119V293.881Z" fill="#F0F0F0" />
    <path d="M346.119 298.64H343.281V301.481H346.119V298.64Z" fill="#F0F0F0" />
    <path d="M346.119 303.39H343.281V306.231H346.119V303.39Z" fill="#F0F0F0" />
    <path d="M346.119 308.14H343.281V310.981H346.119V308.14Z" fill="#F0F0F0" />
    <path d="M346.119 322.41H343.281V325.25H346.119V322.41Z" fill="#F0F0F0" />
    <path d="M346.119 327.16H343.281V330H346.119V327.16Z" fill="#F0F0F0" />
    <path d="M350.619 255.85H347.781V258.69H350.619V255.85Z" fill="#F0F0F0" />
    <path d="M350.619 260.6H347.781V263.44H350.619V260.6Z" fill="#F0F0F0" />
    <path d="M350.619 265.36H347.781V268.2H350.619V265.36Z" fill="#F0F0F0" />
    <path d="M350.619 279.619H347.781V282.46H350.619V279.619Z" fill="#F0F0F0" />
    <path d="M350.619 284.369H347.781V287.21H350.619V284.369Z" fill="#F0F0F0" />
    <path d="M350.619 289.131H347.781V291.969H350.619V289.131Z" fill="#F0F0F0" />
    <path d="M350.619 293.881H347.781V296.719H350.619V293.881Z" fill="#F0F0F0" />
    <path d="M350.619 298.64H347.781V301.481H350.619V298.64Z" fill="#F0F0F0" />
    <path d="M350.619 303.39H347.781V306.231H350.619V303.39Z" fill="#F0F0F0" />
    <path d="M350.619 308.14H347.781V310.981H350.619V308.14Z" fill="#F0F0F0" />
    <path d="M350.619 322.41H347.781V325.25H350.619V322.41Z" fill="#F0F0F0" />
    <path d="M350.619 327.16H347.781V330H350.619V327.16Z" fill="#F0F0F0" />
    <path d="M350.619 331.91H347.781V334.75H350.619V331.91Z" fill="#F0F0F0" />
    <path d="M397.83 227.331H394.99V230.169H397.83V227.331Z" fill="#F0F0F0" />
    <path d="M397.83 232.081H394.99V234.919H397.83V232.081Z" fill="#F0F0F0" />
    <path d="M397.83 236.831H394.99V239.669H397.83V236.831Z" fill="#F0F0F0" />
    <path d="M397.83 241.59H394.99V244.431H397.83V241.59Z" fill="#F0F0F0" />
    <path d="M397.83 246.34H394.99V249.181H397.83V246.34Z" fill="#F0F0F0" />
    <path d="M397.83 251.1H394.99V253.94H397.83V251.1Z" fill="#F0F0F0" />
    <path d="M397.83 255.85H394.99V258.69H397.83V255.85Z" fill="#F0F0F0" />
    <path d="M397.83 260.6H394.99V263.44H397.83V260.6Z" fill="#F0F0F0" />
    <path d="M397.83 265.36H394.99V268.2H397.83V265.36Z" fill="#F0F0F0" />
    <path d="M397.83 270.11H394.99V272.95H397.83V270.11Z" fill="#F0F0F0" />
    <path d="M397.83 274.869H394.99V277.71H397.83V274.869Z" fill="#F0F0F0" />
    <path d="M397.83 279.619H394.99V282.46H397.83V279.619Z" fill="#F0F0F0" />
    <path d="M397.83 284.369H394.99V287.21H397.83V284.369Z" fill="#F0F0F0" />
    <path d="M397.83 289.131H394.99V291.969H397.83V289.131Z" fill="#F0F0F0" />
    <path d="M397.83 293.881H394.99V296.719H397.83V293.881Z" fill="#F0F0F0" />
    <path d="M397.83 298.64H394.99V301.481H397.83V298.64Z" fill="#F0F0F0" />
    <path d="M397.83 303.39H394.99V306.231H397.83V303.39Z" fill="#F0F0F0" />
    <path d="M397.83 308.14H394.99V310.981H397.83V308.14Z" fill="#F0F0F0" />
    <path d="M397.83 312.9H394.99V315.74H397.83V312.9Z" fill="#F0F0F0" />
    <path d="M397.83 317.65H394.99V320.49H397.83V317.65Z" fill="#F0F0F0" />
    <path d="M397.83 322.41H394.99V325.25H397.83V322.41Z" fill="#F0F0F0" />
    <path d="M397.83 327.16H394.99V330H397.83V327.16Z" fill="#F0F0F0" />
    <path d="M397.83 331.91H394.99V334.75H397.83V331.91Z" fill="#F0F0F0" />
    <path d="M402.331 227.331H399.49V230.169H402.331V227.331Z" fill="#F0F0F0" />
    <path d="M402.331 232.081H399.49V234.919H402.331V232.081Z" fill="#F0F0F0" />
    <path d="M402.331 236.831H399.49V239.669H402.331V236.831Z" fill="#F0F0F0" />
    <path d="M402.331 241.59H399.49V244.431H402.331V241.59Z" fill="#F0F0F0" />
    <path d="M402.331 246.34H399.49V249.181H402.331V246.34Z" fill="#F0F0F0" />
    <path d="M402.331 251.1H399.49V253.94H402.331V251.1Z" fill="#F0F0F0" />
    <path d="M402.331 255.85H399.49V258.69H402.331V255.85Z" fill="#F0F0F0" />
    <path d="M402.331 260.6H399.49V263.44H402.331V260.6Z" fill="#F0F0F0" />
    <path d="M402.331 265.36H399.49V268.2H402.331V265.36Z" fill="#F0F0F0" />
    <path d="M402.331 270.11H399.49V272.95H402.331V270.11Z" fill="#F0F0F0" />
    <path d="M402.331 274.869H399.49V277.71H402.331V274.869Z" fill="#F0F0F0" />
    <path d="M402.331 279.619H399.49V282.46H402.331V279.619Z" fill="#F0F0F0" />
    <path d="M402.331 284.369H399.49V287.21H402.331V284.369Z" fill="#F0F0F0" />
    <path d="M402.331 289.131H399.49V291.969H402.331V289.131Z" fill="#F0F0F0" />
    <path d="M402.331 293.881H399.49V296.719H402.331V293.881Z" fill="#F0F0F0" />
    <path d="M402.331 298.64H399.49V301.481H402.331V298.64Z" fill="#F0F0F0" />
    <path d="M402.331 303.39H399.49V306.231H402.331V303.39Z" fill="#F0F0F0" />
    <path d="M402.331 308.14H399.49V310.981H402.331V308.14Z" fill="#F0F0F0" />
    <path d="M402.331 312.9H399.49V315.74H402.331V312.9Z" fill="#F0F0F0" />
    <path d="M406.831 227.331H403.99V230.169H406.831V227.331Z" fill="#F0F0F0" />
    <path d="M406.831 232.081H403.99V234.919H406.831V232.081Z" fill="#F0F0F0" />
    <path d="M406.831 236.831H403.99V239.669H406.831V236.831Z" fill="#F0F0F0" />
    <path d="M406.831 241.59H403.99V244.431H406.831V241.59Z" fill="#F0F0F0" />
    <path d="M406.831 246.34H403.99V249.181H406.831V246.34Z" fill="#F0F0F0" />
    <path d="M406.831 251.1H403.99V253.94H406.831V251.1Z" fill="#F0F0F0" />
    <path d="M406.831 255.85H403.99V258.69H406.831V255.85Z" fill="#F0F0F0" />
    <path d="M406.831 260.6H403.99V263.44H406.831V260.6Z" fill="#F0F0F0" />
    <path d="M406.831 265.36H403.99V268.2H406.831V265.36Z" fill="#F0F0F0" />
    <path d="M406.831 270.11H403.99V272.95H406.831V270.11Z" fill="#F0F0F0" />
    <path d="M406.831 274.869H403.99V277.71H406.831V274.869Z" fill="#F0F0F0" />
    <path d="M406.831 279.619H403.99V282.46H406.831V279.619Z" fill="#F0F0F0" />
    <path d="M406.831 284.369H403.99V287.21H406.831V284.369Z" fill="#F0F0F0" />
    <path d="M406.831 289.131H403.99V291.969H406.831V289.131Z" fill="#F0F0F0" />
    <path d="M406.831 293.881H403.99V296.719H406.831V293.881Z" fill="#F0F0F0" />
    <path d="M406.831 298.64H403.99V301.481H406.831V298.64Z" fill="#F0F0F0" />
    <path d="M406.831 303.39H403.99V306.231H406.831V303.39Z" fill="#F0F0F0" />
    <path d="M406.831 308.14H403.99V310.981H406.831V308.14Z" fill="#F0F0F0" />
    <path d="M406.831 312.9H403.99V315.74H406.831V312.9Z" fill="#F0F0F0" />
    <path d="M411.34 227.331H408.5V230.169H411.34V227.331Z" fill="#F0F0F0" />
    <path d="M411.34 232.081H408.5V234.919H411.34V232.081Z" fill="#F0F0F0" />
    <path d="M411.34 236.831H408.5V239.669H411.34V236.831Z" fill="#F0F0F0" />
    <path d="M411.34 241.59H408.5V244.431H411.34V241.59Z" fill="#F0F0F0" />
    <path d="M411.34 246.34H408.5V249.181H411.34V246.34Z" fill="#F0F0F0" />
    <path d="M411.34 251.1H408.5V253.94H411.34V251.1Z" fill="#F0F0F0" />
    <path d="M411.34 255.85H408.5V258.69H411.34V255.85Z" fill="#F0F0F0" />
    <path d="M411.34 260.6H408.5V263.44H411.34V260.6Z" fill="#F0F0F0" />
    <path d="M411.34 265.36H408.5V268.2H411.34V265.36Z" fill="#F0F0F0" />
    <path d="M411.34 270.11H408.5V272.95H411.34V270.11Z" fill="#F0F0F0" />
    <path d="M411.34 274.869H408.5V277.71H411.34V274.869Z" fill="#F0F0F0" />
    <path d="M411.34 279.619H408.5V282.46H411.34V279.619Z" fill="#F0F0F0" />
    <path d="M411.34 284.369H408.5V287.21H411.34V284.369Z" fill="#F0F0F0" />
    <path d="M411.34 289.131H408.5V291.969H411.34V289.131Z" fill="#F0F0F0" />
    <path d="M411.34 293.881H408.5V296.719H411.34V293.881Z" fill="#F0F0F0" />
    <path d="M415.84 227.331H413V230.169H415.84V227.331Z" fill="#F0F0F0" />
    <path d="M415.84 232.081H413V234.919H415.84V232.081Z" fill="#F0F0F0" />
    <path d="M415.84 236.831H413V239.669H415.84V236.831Z" fill="#F0F0F0" />
    <path d="M415.84 241.59H413V244.431H415.84V241.59Z" fill="#F0F0F0" />
    <path d="M415.84 246.34H413V249.181H415.84V246.34Z" fill="#F0F0F0" />
    <path d="M415.84 251.1H413V253.94H415.84V251.1Z" fill="#F0F0F0" />
    <path d="M415.84 255.85H413V258.69H415.84V255.85Z" fill="#F0F0F0" />
    <path d="M415.84 260.6H413V263.44H415.84V260.6Z" fill="#F0F0F0" />
    <path d="M415.84 265.36H413V268.2H415.84V265.36Z" fill="#F0F0F0" />
    <path d="M415.84 270.11H413V272.95H415.84V270.11Z" fill="#F0F0F0" />
    <path d="M415.84 274.869H413V277.71H415.84V274.869Z" fill="#F0F0F0" />
    <path d="M415.84 279.619H413V282.46H415.84V279.619Z" fill="#F0F0F0" />
    <path d="M415.84 284.369H413V287.21H415.84V284.369Z" fill="#F0F0F0" />
    <path d="M420.35 227.331H417.51V230.169H420.35V227.331Z" fill="#F0F0F0" />
    <path d="M420.35 232.081H417.51V234.919H420.35V232.081Z" fill="#F0F0F0" />
    <path d="M420.35 236.831H417.51V239.669H420.35V236.831Z" fill="#F0F0F0" />
    <path d="M420.35 241.59H417.51V244.431H420.35V241.59Z" fill="#F0F0F0" />
    <path d="M420.35 246.34H417.51V249.181H420.35V246.34Z" fill="#F0F0F0" />
    <path d="M420.35 251.1H417.51V253.94H420.35V251.1Z" fill="#F0F0F0" />
    <path d="M420.35 255.85H417.51V258.69H420.35V255.85Z" fill="#F0F0F0" />
    <path d="M420.35 260.6H417.51V263.44H420.35V260.6Z" fill="#F0F0F0" />
    <path d="M420.35 265.36H417.51V268.2H420.35V265.36Z" fill="#F0F0F0" />
    <path d="M420.35 270.11H417.51V272.95H420.35V270.11Z" fill="#F0F0F0" />
    <path d="M420.35 274.869H417.51V277.71H420.35V274.869Z" fill="#F0F0F0" />
    <path d="M420.35 279.619H417.51V282.46H420.35V279.619Z" fill="#F0F0F0" />
    <path d="M89.4001 262.019H86.5601V264.86H89.4001V262.019Z" fill="#F0F0F0" />
    <path d="M89.4001 266.781H86.5601V269.619H89.4001V266.781Z" fill="#F0F0F0" />
    <path d="M89.4001 271.531H86.5601V274.369H89.4001V271.531Z" fill="#F0F0F0" />
    <path d="M89.4001 276.281H86.5601V279.119H89.4001V276.281Z" fill="#F0F0F0" />
    <path d="M89.4001 281.04H86.5601V283.881H89.4001V281.04Z" fill="#F0F0F0" />
    <path d="M89.4001 285.79H86.5601V288.631H89.4001V285.79Z" fill="#F0F0F0" />
    <path d="M89.4001 290.55H86.5601V293.39H89.4001V290.55Z" fill="#F0F0F0" />
    <path d="M89.4001 295.3H86.5601V298.14H89.4001V295.3Z" fill="#F0F0F0" />
    <path d="M89.4001 300.05H86.5601V302.89H89.4001V300.05Z" fill="#F0F0F0" />
    <path d="M89.4001 304.81H86.5601V307.65H89.4001V304.81Z" fill="#F0F0F0" />
    <path d="M89.4001 309.56H86.5601V312.4H89.4001V309.56Z" fill="#F0F0F0" />
    <path d="M89.4001 314.319H86.5601V317.16H89.4001V314.319Z" fill="#F0F0F0" />
    <path d="M89.4001 319.069H86.5601V321.91H89.4001V319.069Z" fill="#F0F0F0" />
    <path d="M89.4001 323.819H86.5601V326.66H89.4001V323.819Z" fill="#F0F0F0" />
    <path d="M89.4001 328.581H86.5601V331.419H89.4001V328.581Z" fill="#F0F0F0" />
    <path d="M89.4001 333.331H86.5601V336.169H89.4001V333.331Z" fill="#F0F0F0" />
    <path d="M89.4001 338.09H86.5601V340.931H89.4001V338.09Z" fill="#F0F0F0" />
    <path d="M89.4001 342.84H86.5601V345.681H89.4001V342.84Z" fill="#F0F0F0" />
    <path d="M89.4001 347.59H86.5601V350.431H89.4001V347.59Z" fill="#F0F0F0" />
    <path d="M89.4001 352.35H86.5601V355.19H89.4001V352.35Z" fill="#F0F0F0" />
    <path d="M93.9001 262.019H91.0601V264.86H93.9001V262.019Z" fill="#F0F0F0" />
    <path d="M93.9001 266.781H91.0601V269.619H93.9001V266.781Z" fill="#F0F0F0" />
    <path d="M93.9001 271.531H91.0601V274.369H93.9001V271.531Z" fill="#F0F0F0" />
    <path d="M93.9001 276.281H91.0601V279.119H93.9001V276.281Z" fill="#F0F0F0" />
    <path d="M93.9001 281.04H91.0601V283.881H93.9001V281.04Z" fill="#F0F0F0" />
    <path d="M93.9001 285.79H91.0601V288.631H93.9001V285.79Z" fill="#F0F0F0" />
    <path d="M93.9001 290.55H91.0601V293.39H93.9001V290.55Z" fill="#F0F0F0" />
    <path d="M93.9001 295.3H91.0601V298.14H93.9001V295.3Z" fill="#F0F0F0" />
    <path d="M93.9001 300.05H91.0601V302.89H93.9001V300.05Z" fill="#F0F0F0" />
    <path d="M93.9001 304.81H91.0601V307.65H93.9001V304.81Z" fill="#F0F0F0" />
    <path d="M93.9001 309.56H91.0601V312.4H93.9001V309.56Z" fill="#F0F0F0" />
    <path d="M93.9001 314.319H91.0601V317.16H93.9001V314.319Z" fill="#F0F0F0" />
    <path d="M93.9001 319.069H91.0601V321.91H93.9001V319.069Z" fill="#F0F0F0" />
    <path d="M93.9001 323.819H91.0601V326.66H93.9001V323.819Z" fill="#F0F0F0" />
    <path d="M93.9001 328.581H91.0601V331.419H93.9001V328.581Z" fill="#F0F0F0" />
    <path d="M93.9001 333.331H91.0601V336.169H93.9001V333.331Z" fill="#F0F0F0" />
    <path d="M93.9001 338.09H91.0601V340.931H93.9001V338.09Z" fill="#F0F0F0" />
    <path d="M93.9001 342.84H91.0601V345.681H93.9001V342.84Z" fill="#F0F0F0" />
    <path d="M98.4001 262.019H95.5601V264.86H98.4001V262.019Z" fill="#F0F0F0" />
    <path d="M98.4001 266.781H95.5601V269.619H98.4001V266.781Z" fill="#F0F0F0" />
    <path d="M98.4001 271.531H95.5601V274.369H98.4001V271.531Z" fill="#F0F0F0" />
    <path d="M98.4001 276.281H95.5601V279.119H98.4001V276.281Z" fill="#F0F0F0" />
    <path d="M98.4001 281.04H95.5601V283.881H98.4001V281.04Z" fill="#F0F0F0" />
    <path d="M98.4001 285.79H95.5601V288.631H98.4001V285.79Z" fill="#F0F0F0" />
    <path d="M98.4001 290.55H95.5601V293.39H98.4001V290.55Z" fill="#F0F0F0" />
    <path d="M98.4001 295.3H95.5601V298.14H98.4001V295.3Z" fill="#F0F0F0" />
    <path d="M98.4001 300.05H95.5601V302.89H98.4001V300.05Z" fill="#F0F0F0" />
    <path d="M98.4001 304.81H95.5601V307.65H98.4001V304.81Z" fill="#F0F0F0" />
    <path d="M98.4001 309.56H95.5601V312.4H98.4001V309.56Z" fill="#F0F0F0" />
    <path d="M98.4001 314.319H95.5601V317.16H98.4001V314.319Z" fill="#F0F0F0" />
    <path d="M98.4001 319.069H95.5601V321.91H98.4001V319.069Z" fill="#F0F0F0" />
    <path d="M98.4001 323.819H95.5601V326.66H98.4001V323.819Z" fill="#F0F0F0" />
    <path d="M98.4001 328.581H95.5601V331.419H98.4001V328.581Z" fill="#F0F0F0" />
    <path d="M98.4001 333.331H95.5601V336.169H98.4001V333.331Z" fill="#F0F0F0" />
    <path d="M98.4001 338.09H95.5601V340.931H98.4001V338.09Z" fill="#F0F0F0" />
    <path d="M98.4001 342.84H95.5601V345.681H98.4001V342.84Z" fill="#F0F0F0" />
    <path d="M72.55 296.719H69.71V299.56H72.55V296.719Z" fill="#F0F0F0" />
    <path d="M72.55 301.469H69.71V304.31H72.55V301.469Z" fill="#F0F0F0" />
    <path d="M72.55 306.231H69.71V309.069H72.55V306.231Z" fill="#F0F0F0" />
    <path d="M72.55 310.981H69.71V313.819H72.55V310.981Z" fill="#F0F0F0" />
    <path d="M72.55 315.731H69.71V318.569H72.55V315.731Z" fill="#F0F0F0" />
    <path d="M72.55 320.49H69.71V323.331H72.55V320.49Z" fill="#F0F0F0" />
    <path d="M72.55 325.24H69.71V328.081H72.55V325.24Z" fill="#F0F0F0" />
    <path d="M72.55 330H69.71V332.84H72.55V330Z" fill="#F0F0F0" />
    <path d="M72.55 334.75H69.71V337.59H72.55V334.75Z" fill="#F0F0F0" />
    <path d="M72.55 339.5H69.71V342.34H72.55V339.5Z" fill="#F0F0F0" />
    <path d="M72.55 344.26H69.71V347.1H72.55V344.26Z" fill="#F0F0F0" />
    <path d="M72.55 349.01H69.71V351.85H72.55V349.01Z" fill="#F0F0F0" />
    <path d="M72.55 353.769H69.71V356.61H72.55V353.769Z" fill="#F0F0F0" />
    <path d="M77.05 296.719H74.21V299.56H77.05V296.719Z" fill="#F0F0F0" />
    <path d="M77.05 301.469H74.21V304.31H77.05V301.469Z" fill="#F0F0F0" />
    <path d="M77.05 306.231H74.21V309.069H77.05V306.231Z" fill="#F0F0F0" />
    <path d="M77.05 310.981H74.21V313.819H77.05V310.981Z" fill="#F0F0F0" />
    <path d="M77.05 315.731H74.21V318.569H77.05V315.731Z" fill="#F0F0F0" />
    <path d="M77.05 320.49H74.21V323.331H77.05V320.49Z" fill="#F0F0F0" />
    <path d="M77.05 325.24H74.21V328.081H77.05V325.24Z" fill="#F0F0F0" />
    <path d="M77.05 330H74.21V332.84H77.05V330Z" fill="#F0F0F0" />
    <path d="M77.05 334.75H74.21V337.59H77.05V334.75Z" fill="#F0F0F0" />
    <path d="M77.05 339.5H74.21V342.34H77.05V339.5Z" fill="#F0F0F0" />
    <path d="M77.05 344.26H74.21V347.1H77.05V344.26Z" fill="#F0F0F0" />
    <path d="M77.05 349.01H74.21V351.85H77.05V349.01Z" fill="#F0F0F0" />
    <path d="M77.05 353.769H74.21V356.61H77.05V353.769Z" fill="#F0F0F0" />
    <path d="M81.5602 296.719H78.7202V299.56H81.5602V296.719Z" fill="#F0F0F0" />
    <path d="M81.5602 301.469H78.7202V304.31H81.5602V301.469Z" fill="#F0F0F0" />
    <path d="M81.5602 306.231H78.7202V309.069H81.5602V306.231Z" fill="#F0F0F0" />
    <path d="M81.5602 310.981H78.7202V313.819H81.5602V310.981Z" fill="#F0F0F0" />
    <path d="M81.5602 315.731H78.7202V318.569H81.5602V315.731Z" fill="#F0F0F0" />
    <path d="M81.5602 320.49H78.7202V323.331H81.5602V320.49Z" fill="#F0F0F0" />
    <path d="M81.5602 325.24H78.7202V328.081H81.5602V325.24Z" fill="#F0F0F0" />
    <path d="M81.5602 330H78.7202V332.84H81.5602V330Z" fill="#F0F0F0" />
    <path d="M81.5602 334.75H78.7202V337.59H81.5602V334.75Z" fill="#F0F0F0" />
    <path d="M81.5602 339.5H78.7202V342.34H81.5602V339.5Z" fill="#F0F0F0" />
    <path d="M81.5602 344.26H78.7202V347.1H81.5602V344.26Z" fill="#F0F0F0" />
    <path d="M81.5602 349.01H78.7202V351.85H81.5602V349.01Z" fill="#F0F0F0" />
    <path d="M81.5602 353.769H78.7202V356.61H81.5602V353.769Z" fill="#F0F0F0" />
    <path d="M81.5602 358.519H78.7202V361.36H81.5602V358.519Z" fill="#F0F0F0" />
    <path d="M106.58 298.14H103.74V300.981H106.58V298.14Z" fill="#F0F0F0" />
    <path d="M106.58 302.89H103.74V305.731H106.58V302.89Z" fill="#F0F0F0" />
    <path d="M106.58 307.64H103.74V310.481H106.58V307.64Z" fill="#F0F0F0" />
    <path d="M106.58 312.4H103.74V315.24H106.58V312.4Z" fill="#F0F0F0" />
    <path d="M106.58 317.15H103.74V319.99H106.58V317.15Z" fill="#F0F0F0" />
    <path d="M106.58 321.91H103.74V324.75H106.58V321.91Z" fill="#F0F0F0" />
    <path d="M106.58 326.66H103.74V329.5H106.58V326.66Z" fill="#F0F0F0" />
    <path d="M106.58 331.41H103.74V334.25H106.58V331.41Z" fill="#F0F0F0" />
    <path d="M106.58 336.169H103.74V339.01H106.58V336.169Z" fill="#F0F0F0" />
    <path d="M106.58 340.919H103.74V343.76H106.58V340.919Z" fill="#F0F0F0" />
    <path d="M106.58 355.181H103.74V358.019H106.58V355.181Z" fill="#F0F0F0" />
    <path d="M111.08 298.14H108.24V300.981H111.08V298.14Z" fill="#F0F0F0" />
    <path d="M111.08 302.89H108.24V305.731H111.08V302.89Z" fill="#F0F0F0" />
    <path d="M111.08 307.64H108.24V310.481H111.08V307.64Z" fill="#F0F0F0" />
    <path d="M111.08 312.4H108.24V315.24H111.08V312.4Z" fill="#F0F0F0" />
    <path d="M111.08 317.15H108.24V319.99H111.08V317.15Z" fill="#F0F0F0" />
    <path d="M111.08 321.91H108.24V324.75H111.08V321.91Z" fill="#F0F0F0" />
    <path d="M111.08 326.66H108.24V329.5H111.08V326.66Z" fill="#F0F0F0" />
    <path d="M111.08 331.41H108.24V334.25H111.08V331.41Z" fill="#F0F0F0" />
    <path d="M111.08 336.169H108.24V339.01H111.08V336.169Z" fill="#F0F0F0" />
    <path d="M111.08 350.431H108.24V353.269H111.08V350.431Z" fill="#F0F0F0" />
    <path d="M111.08 355.181H108.24V358.019H111.08V355.181Z" fill="#F0F0F0" />
    <path d="M115.59 298.14H112.75V300.981H115.59V298.14Z" fill="#F0F0F0" />
    <path d="M115.59 302.89H112.75V305.731H115.59V302.89Z" fill="#F0F0F0" />
    <path d="M115.59 307.64H112.75V310.481H115.59V307.64Z" fill="#F0F0F0" />
    <path d="M115.59 312.4H112.75V315.24H115.59V312.4Z" fill="#F0F0F0" />
    <path d="M115.59 317.15H112.75V319.99H115.59V317.15Z" fill="#F0F0F0" />
    <path d="M115.59 321.91H112.75V324.75H115.59V321.91Z" fill="#F0F0F0" />
    <path d="M115.59 326.66H112.75V329.5H115.59V326.66Z" fill="#F0F0F0" />
    <path d="M115.59 331.41H112.75V334.25H115.59V331.41Z" fill="#F0F0F0" />
    <path d="M115.59 345.681H112.75V348.519H115.59V345.681Z" fill="#F0F0F0" />
    <path d="M115.59 350.431H112.75V353.269H115.59V350.431Z" fill="#F0F0F0" />
    <path d="M115.59 355.181H112.75V358.019H115.59V355.181Z" fill="#F0F0F0" />
    <path d="M157.45 225.91H154.61V228.75H157.45V225.91Z" fill="#F0F0F0" />
    <path d="M157.45 230.66H154.61V233.5H157.45V230.66Z" fill="#F0F0F0" />
    <path d="M157.45 235.419H154.61V238.26H157.45V235.419Z" fill="#F0F0F0" />
    <path d="M157.45 240.169H154.61V243.01H157.45V240.169Z" fill="#F0F0F0" />
    <path d="M157.45 244.919H154.61V247.76H157.45V244.919Z" fill="#F0F0F0" />
    <path d="M157.45 249.681H154.61V252.519H157.45V249.681Z" fill="#F0F0F0" />
    <path d="M157.45 254.431H154.61V257.269H157.45V254.431Z" fill="#F0F0F0" />
    <path d="M157.45 259.19H154.61V262.031H157.45V259.19Z" fill="#F0F0F0" />
    <path d="M157.45 263.94H154.61V266.781H157.45V263.94Z" fill="#F0F0F0" />
    <path d="M157.45 268.69H154.61V271.531H157.45V268.69Z" fill="#F0F0F0" />
    <path d="M157.45 273.45H154.61V276.29H157.45V273.45Z" fill="#F0F0F0" />
    <path d="M157.45 278.2H154.61V281.04H157.45V278.2Z" fill="#F0F0F0" />
    <path d="M157.45 282.96H154.61V285.8H157.45V282.96Z" fill="#F0F0F0" />
    <path d="M157.45 287.71H154.61V290.55H157.45V287.71Z" fill="#F0F0F0" />
    <path d="M157.45 292.46H154.61V295.3H157.45V292.46Z" fill="#F0F0F0" />
    <path d="M157.45 297.219H154.61V300.06H157.45V297.219Z" fill="#F0F0F0" />
    <path d="M157.45 301.969H154.61V304.81H157.45V301.969Z" fill="#F0F0F0" />
    <path d="M157.45 311.481H154.61V314.319H157.45V311.481Z" fill="#F0F0F0" />
    <path d="M157.45 316.231H154.61V319.069H157.45V316.231Z" fill="#F0F0F0" />
    <path d="M157.45 320.99H154.61V323.831H157.45V320.99Z" fill="#F0F0F0" />
    <path d="M157.45 325.74H154.61V328.581H157.45V325.74Z" fill="#F0F0F0" />
    <path d="M157.45 330.5H154.61V333.34H157.45V330.5Z" fill="#F0F0F0" />
    <path d="M161.96 225.91H159.119V228.75H161.96V225.91Z" fill="#F0F0F0" />
    <path d="M161.96 230.66H159.119V233.5H161.96V230.66Z" fill="#F0F0F0" />
    <path d="M161.96 235.419H159.119V238.26H161.96V235.419Z" fill="#F0F0F0" />
    <path d="M161.96 240.169H159.119V243.01H161.96V240.169Z" fill="#F0F0F0" />
    <path d="M161.96 244.919H159.119V247.76H161.96V244.919Z" fill="#F0F0F0" />
    <path d="M161.96 249.681H159.119V252.519H161.96V249.681Z" fill="#F0F0F0" />
    <path d="M161.96 254.431H159.119V257.269H161.96V254.431Z" fill="#F0F0F0" />
    <path d="M161.96 259.19H159.119V262.031H161.96V259.19Z" fill="#F0F0F0" />
    <path d="M161.96 263.94H159.119V266.781H161.96V263.94Z" fill="#F0F0F0" />
    <path d="M161.96 268.69H159.119V271.531H161.96V268.69Z" fill="#F0F0F0" />
    <path d="M161.96 273.45H159.119V276.29H161.96V273.45Z" fill="#F0F0F0" />
    <path d="M161.96 278.2H159.119V281.04H161.96V278.2Z" fill="#F0F0F0" />
    <path d="M161.96 282.96H159.119V285.8H161.96V282.96Z" fill="#F0F0F0" />
    <path d="M161.96 287.71H159.119V290.55H161.96V287.71Z" fill="#F0F0F0" />
    <path d="M161.96 292.46H159.119V295.3H161.96V292.46Z" fill="#F0F0F0" />
    <path d="M161.96 297.219H159.119V300.06H161.96V297.219Z" fill="#F0F0F0" />
    <path d="M161.96 325.74H159.119V328.581H161.96V325.74Z" fill="#F0F0F0" />
    <path d="M161.96 330.5H159.119V333.34H161.96V330.5Z" fill="#F0F0F0" />
    <path d="M166.46 225.91H163.619V228.75H166.46V225.91Z" fill="#F0F0F0" />
    <path d="M166.46 230.66H163.619V233.5H166.46V230.66Z" fill="#F0F0F0" />
    <path d="M166.46 235.419H163.619V238.26H166.46V235.419Z" fill="#F0F0F0" />
    <path d="M166.46 240.169H163.619V243.01H166.46V240.169Z" fill="#F0F0F0" />
    <path d="M166.46 244.919H163.619V247.76H166.46V244.919Z" fill="#F0F0F0" />
    <path d="M166.46 249.681H163.619V252.519H166.46V249.681Z" fill="#F0F0F0" />
    <path d="M166.46 254.431H163.619V257.269H166.46V254.431Z" fill="#F0F0F0" />
    <path d="M166.46 259.19H163.619V262.031H166.46V259.19Z" fill="#F0F0F0" />
    <path d="M166.46 263.94H163.619V266.781H166.46V263.94Z" fill="#F0F0F0" />
    <path d="M166.46 268.69H163.619V271.531H166.46V268.69Z" fill="#F0F0F0" />
    <path d="M166.46 273.45H163.619V276.29H166.46V273.45Z" fill="#F0F0F0" />
    <path d="M166.46 278.2H163.619V281.04H166.46V278.2Z" fill="#F0F0F0" />
    <path d="M166.46 282.96H163.619V285.8H166.46V282.96Z" fill="#F0F0F0" />
    <path d="M166.46 287.71H163.619V290.55H166.46V287.71Z" fill="#F0F0F0" />
    <path d="M166.46 292.46H163.619V295.3H166.46V292.46Z" fill="#F0F0F0" />
    <path d="M166.46 297.219H163.619V300.06H166.46V297.219Z" fill="#F0F0F0" />
    <path d="M166.46 306.731H163.619V309.569H166.46V306.731Z" fill="#F0F0F0" />
    <path d="M166.46 311.481H163.619V314.319H166.46V311.481Z" fill="#F0F0F0" />
    <path d="M166.46 316.231H163.619V319.069H166.46V316.231Z" fill="#F0F0F0" />
    <path d="M166.46 320.99H163.619V323.831H166.46V320.99Z" fill="#F0F0F0" />
    <path d="M166.46 330.5H163.619V333.34H166.46V330.5Z" fill="#F0F0F0" />
    <path d="M141.11 285.79H138.27V288.631H141.11V285.79Z" fill="#F0F0F0" />
    <path d="M141.11 290.55H138.27V293.39H141.11V290.55Z" fill="#F0F0F0" />
    <path d="M141.11 295.3H138.27V298.14H141.11V295.3Z" fill="#F0F0F0" />
    <path d="M141.11 300.05H138.27V302.89H141.11V300.05Z" fill="#F0F0F0" />
    <path d="M141.11 304.81H138.27V307.65H141.11V304.81Z" fill="#F0F0F0" />
    <path d="M141.11 309.56H138.27V312.4H141.11V309.56Z" fill="#F0F0F0" />
    <path d="M141.11 314.319H138.27V317.16H141.11V314.319Z" fill="#F0F0F0" />
    <path d="M141.11 323.819H138.27V326.66H141.11V323.819Z" fill="#F0F0F0" />
    <path d="M141.11 328.581H138.27V331.419H141.11V328.581Z" fill="#F0F0F0" />
    <path d="M141.11 333.331H138.27V336.169H141.11V333.331Z" fill="#F0F0F0" />
    <path d="M141.11 338.09H138.27V340.931H141.11V338.09Z" fill="#F0F0F0" />
    <path d="M141.11 342.84H138.27V345.681H141.11V342.84Z" fill="#F0F0F0" />
    <path d="M141.11 347.59H138.27V350.431H141.11V347.59Z" fill="#F0F0F0" />
    <path d="M141.11 352.35H138.27V355.19H141.11V352.35Z" fill="#F0F0F0" />
    <path d="M141.11 357.1H138.27V359.94H141.11V357.1Z" fill="#F0F0F0" />
    <path d="M145.61 285.79H142.77V288.631H145.61V285.79Z" fill="#F0F0F0" />
    <path d="M145.61 290.55H142.77V293.39H145.61V290.55Z" fill="#F0F0F0" />
    <path d="M145.61 295.3H142.77V298.14H145.61V295.3Z" fill="#F0F0F0" />
    <path d="M145.61 300.05H142.77V302.89H145.61V300.05Z" fill="#F0F0F0" />
    <path d="M145.61 304.81H142.77V307.65H145.61V304.81Z" fill="#F0F0F0" />
    <path d="M145.61 309.56H142.77V312.4H145.61V309.56Z" fill="#F0F0F0" />
    <path d="M145.61 323.819H142.77V326.66H145.61V323.819Z" fill="#F0F0F0" />
    <path d="M145.61 328.581H142.77V331.419H145.61V328.581Z" fill="#F0F0F0" />
    <path d="M145.61 333.331H142.77V336.169H145.61V333.331Z" fill="#F0F0F0" />
    <path d="M145.61 338.09H142.77V340.931H145.61V338.09Z" fill="#F0F0F0" />
    <path d="M145.61 342.84H142.77V345.681H145.61V342.84Z" fill="#F0F0F0" />
    <path d="M145.61 347.59H142.77V350.431H145.61V347.59Z" fill="#F0F0F0" />
    <path d="M145.61 352.35H142.77V355.19H145.61V352.35Z" fill="#F0F0F0" />
    <path d="M145.61 357.1H142.77V359.94H145.61V357.1Z" fill="#F0F0F0" />
    <path d="M150.119 285.79H147.281V288.631H150.119V285.79Z" fill="#F0F0F0" />
    <path d="M150.119 290.55H147.281V293.39H150.119V290.55Z" fill="#F0F0F0" />
    <path d="M150.119 295.3H147.281V298.14H150.119V295.3Z" fill="#F0F0F0" />
    <path d="M150.119 300.05H147.281V302.89H150.119V300.05Z" fill="#F0F0F0" />
    <path d="M150.119 304.81H147.281V307.65H150.119V304.81Z" fill="#F0F0F0" />
    <path d="M150.119 309.56H147.281V312.4H150.119V309.56Z" fill="#F0F0F0" />
    <path d="M150.119 319.069H147.281V321.91H150.119V319.069Z" fill="#F0F0F0" />
    <path d="M150.119 323.819H147.281V326.66H150.119V323.819Z" fill="#F0F0F0" />
    <path d="M150.119 328.581H147.281V331.419H150.119V328.581Z" fill="#F0F0F0" />
    <path d="M150.119 333.331H147.281V336.169H150.119V333.331Z" fill="#F0F0F0" />
    <path d="M150.119 338.09H147.281V340.931H150.119V338.09Z" fill="#F0F0F0" />
    <path d="M150.119 342.84H147.281V345.681H150.119V342.84Z" fill="#F0F0F0" />
    <path d="M150.119 347.59H147.281V350.431H150.119V347.59Z" fill="#F0F0F0" />
    <path d="M150.119 352.35H147.281V355.19H150.119V352.35Z" fill="#F0F0F0" />
    <path d="M150.119 357.1H147.281V359.94H150.119V357.1Z" fill="#F0F0F0" />
    <path d="M245.031 259.19H242.19V262.031H245.031V259.19Z" fill="#F0F0F0" />
    <path d="M245.031 263.94H242.19V266.781H245.031V263.94Z" fill="#F0F0F0" />
    <path d="M245.031 268.69H242.19V271.531H245.031V268.69Z" fill="#F0F0F0" />
    <path d="M245.031 273.45H242.19V276.29H245.031V273.45Z" fill="#F0F0F0" />
    <path d="M245.031 278.2H242.19V281.04H245.031V278.2Z" fill="#F0F0F0" />
    <path d="M245.031 282.96H242.19V285.8H245.031V282.96Z" fill="#F0F0F0" />
    <path d="M245.031 287.71H242.19V290.55H245.031V287.71Z" fill="#F0F0F0" />
    <path d="M245.031 292.46H242.19V295.3H245.031V292.46Z" fill="#F0F0F0" />
    <path d="M245.031 297.219H242.19V300.06H245.031V297.219Z" fill="#F0F0F0" />
    <path d="M245.031 301.969H242.19V304.81H245.031V301.969Z" fill="#F0F0F0" />
    <path d="M245.031 306.731H242.19V309.569H245.031V306.731Z" fill="#F0F0F0" />
    <path d="M245.031 311.481H242.19V314.319H245.031V311.481Z" fill="#F0F0F0" />
    <path d="M245.031 316.231H242.19V319.069H245.031V316.231Z" fill="#F0F0F0" />
    <path d="M245.031 325.74H242.19V328.581H245.031V325.74Z" fill="#F0F0F0" />
    <path d="M245.031 330.5H242.19V333.34H245.031V330.5Z" fill="#F0F0F0" />
    <path d="M245.031 335.25H242.19V338.09H245.031V335.25Z" fill="#F0F0F0" />
    <path d="M245.031 340H242.19V342.84H245.031V340Z" fill="#F0F0F0" />
    <path d="M245.031 349.51H242.19V352.35H245.031V349.51Z" fill="#F0F0F0" />
    <path d="M245.031 354.269H242.19V357.11H245.031V354.269Z" fill="#F0F0F0" />
    <path d="M245.031 359.019H242.19V361.86H245.031V359.019Z" fill="#F0F0F0" />
    <path d="M249.529 259.19H246.69V262.031H249.529V259.19Z" fill="#F0F0F0" />
    <path d="M249.529 263.94H246.69V266.781H249.529V263.94Z" fill="#F0F0F0" />
    <path d="M249.529 268.69H246.69V271.531H249.529V268.69Z" fill="#F0F0F0" />
    <path d="M249.529 273.45H246.69V276.29H249.529V273.45Z" fill="#F0F0F0" />
    <path d="M249.529 278.2H246.69V281.04H249.529V278.2Z" fill="#F0F0F0" />
    <path d="M249.529 282.96H246.69V285.8H249.529V282.96Z" fill="#F0F0F0" />
    <path d="M249.529 287.71H246.69V290.55H249.529V287.71Z" fill="#F0F0F0" />
    <path d="M249.529 292.46H246.69V295.3H249.529V292.46Z" fill="#F0F0F0" />
    <path d="M249.529 297.219H246.69V300.06H249.529V297.219Z" fill="#F0F0F0" />
    <path d="M249.529 301.969H246.69V304.81H249.529V301.969Z" fill="#F0F0F0" />
    <path d="M249.529 306.731H246.69V309.569H249.529V306.731Z" fill="#F0F0F0" />
    <path d="M249.529 311.481H246.69V314.319H249.529V311.481Z" fill="#F0F0F0" />
    <path d="M249.529 316.231H246.69V319.069H249.529V316.231Z" fill="#F0F0F0" />
    <path d="M249.529 330.5H246.69V333.34H249.529V330.5Z" fill="#F0F0F0" />
    <path d="M249.529 335.25H246.69V338.09H249.529V335.25Z" fill="#F0F0F0" />
    <path d="M249.529 344.76H246.69V347.6H249.529V344.76Z" fill="#F0F0F0" />
    <path d="M249.529 349.51H246.69V352.35H249.529V349.51Z" fill="#F0F0F0" />
    <path d="M249.529 354.269H246.69V357.11H249.529V354.269Z" fill="#F0F0F0" />
    <path d="M249.529 359.019H246.69V361.86H249.529V359.019Z" fill="#F0F0F0" />
    <path d="M254.04 259.19H251.2V262.031H254.04V259.19Z" fill="#F0F0F0" />
    <path d="M254.04 263.94H251.2V266.781H254.04V263.94Z" fill="#F0F0F0" />
    <path d="M254.04 268.69H251.2V271.531H254.04V268.69Z" fill="#F0F0F0" />
    <path d="M254.04 273.45H251.2V276.29H254.04V273.45Z" fill="#F0F0F0" />
    <path d="M254.04 278.2H251.2V281.04H254.04V278.2Z" fill="#F0F0F0" />
    <path d="M254.04 282.96H251.2V285.8H254.04V282.96Z" fill="#F0F0F0" />
    <path d="M254.04 287.71H251.2V290.55H254.04V287.71Z" fill="#F0F0F0" />
    <path d="M254.04 292.46H251.2V295.3H254.04V292.46Z" fill="#F0F0F0" />
    <path d="M254.04 297.219H251.2V300.06H254.04V297.219Z" fill="#F0F0F0" />
    <path d="M254.04 301.969H251.2V304.81H254.04V301.969Z" fill="#F0F0F0" />
    <path d="M254.04 306.731H251.2V309.569H254.04V306.731Z" fill="#F0F0F0" />
    <path d="M254.04 311.481H251.2V314.319H254.04V311.481Z" fill="#F0F0F0" />
    <path d="M254.04 316.231H251.2V319.069H254.04V316.231Z" fill="#F0F0F0" />
    <path d="M254.04 320.99H251.2V323.831H254.04V320.99Z" fill="#F0F0F0" />
    <path d="M254.04 330.5H251.2V333.34H254.04V330.5Z" fill="#F0F0F0" />
    <path d="M254.04 340H251.2V342.84H254.04V340Z" fill="#F0F0F0" />
    <path d="M254.04 344.76H251.2V347.6H254.04V344.76Z" fill="#F0F0F0" />
    <path d="M254.04 349.51H251.2V352.35H254.04V349.51Z" fill="#F0F0F0" />
    <path d="M254.04 354.269H251.2V357.11H254.04V354.269Z" fill="#F0F0F0" />
    <path d="M254.04 359.019H251.2V361.86H254.04V359.019Z" fill="#F0F0F0" />
    <path d="M226.681 286.29H223.84V289.131H226.681V286.29Z" fill="#F0F0F0" />
    <path d="M226.681 291.05H223.84V293.89H226.681V291.05Z" fill="#F0F0F0" />
    <path d="M226.681 295.8H223.84V298.64H226.681V295.8Z" fill="#F0F0F0" />
    <path d="M226.681 300.55H223.84V303.39H226.681V300.55Z" fill="#F0F0F0" />
    <path d="M226.681 305.31H223.84V308.15H226.681V305.31Z" fill="#F0F0F0" />
    <path d="M226.681 310.06H223.84V312.9H226.681V310.06Z" fill="#F0F0F0" />
    <path d="M226.681 324.331H223.84V327.169H226.681V324.331Z" fill="#F0F0F0" />
    <path d="M226.681 329.081H223.84V331.919H226.681V329.081Z" fill="#F0F0F0" />
    <path d="M226.681 333.831H223.84V336.669H226.681V333.831Z" fill="#F0F0F0" />
    <path d="M226.681 338.59H223.84V341.431H226.681V338.59Z" fill="#F0F0F0" />
    <path d="M226.681 343.34H223.84V346.181H226.681V343.34Z" fill="#F0F0F0" />
    <path d="M226.681 348.1H223.84V350.94H226.681V348.1Z" fill="#F0F0F0" />
    <path d="M226.681 352.85H223.84V355.69H226.681V352.85Z" fill="#F0F0F0" />
    <path d="M231.181 286.29H228.34V289.131H231.181V286.29Z" fill="#F0F0F0" />
    <path d="M231.181 291.05H228.34V293.89H231.181V291.05Z" fill="#F0F0F0" />
    <path d="M231.181 295.8H228.34V298.64H231.181V295.8Z" fill="#F0F0F0" />
    <path d="M231.181 300.55H228.34V303.39H231.181V300.55Z" fill="#F0F0F0" />
    <path d="M231.181 305.31H228.34V308.15H231.181V305.31Z" fill="#F0F0F0" />
    <path d="M231.181 310.06H228.34V312.9H231.181V310.06Z" fill="#F0F0F0" />
    <path d="M231.181 324.331H228.34V327.169H231.181V324.331Z" fill="#F0F0F0" />
    <path d="M231.181 329.081H228.34V331.919H231.181V329.081Z" fill="#F0F0F0" />
    <path d="M231.181 333.831H228.34V336.669H231.181V333.831Z" fill="#F0F0F0" />
    <path d="M231.181 338.59H228.34V341.431H231.181V338.59Z" fill="#F0F0F0" />
    <path d="M231.181 343.34H228.34V346.181H231.181V343.34Z" fill="#F0F0F0" />
    <path d="M231.181 348.1H228.34V350.94H231.181V348.1Z" fill="#F0F0F0" />
    <path d="M231.181 357.6H228.34V360.44H231.181V357.6Z" fill="#F0F0F0" />
    <path d="M380.81 265.36H377.969V268.2H380.81V265.36Z" fill="#F0F0F0" />
    <path d="M380.81 270.11H377.969V272.95H380.81V270.11Z" fill="#F0F0F0" />
    <path d="M380.81 274.869H377.969V277.71H380.81V274.869Z" fill="#F0F0F0" />
    <path d="M380.81 279.619H377.969V282.46H380.81V279.619Z" fill="#F0F0F0" />
    <path d="M380.81 284.369H377.969V287.21H380.81V284.369Z" fill="#F0F0F0" />
    <path d="M380.81 289.131H377.969V291.969H380.81V289.131Z" fill="#F0F0F0" />
    <path d="M380.81 293.881H377.969V296.719H380.81V293.881Z" fill="#F0F0F0" />
    <path d="M380.81 298.64H377.969V301.481H380.81V298.64Z" fill="#F0F0F0" />
    <path d="M380.81 303.39H377.969V306.231H380.81V303.39Z" fill="#F0F0F0" />
    <path d="M380.81 308.14H377.969V310.981H380.81V308.14Z" fill="#F0F0F0" />
    <path d="M380.81 312.9H377.969V315.74H380.81V312.9Z" fill="#F0F0F0" />
    <path d="M380.81 322.41H377.969V325.25H380.81V322.41Z" fill="#F0F0F0" />
    <path d="M380.81 327.16H377.969V330H380.81V327.16Z" fill="#F0F0F0" />
    <path d="M380.81 331.91H377.969V334.75H380.81V331.91Z" fill="#F0F0F0" />
    <path d="M380.81 336.669H377.969V339.51H380.81V336.669Z" fill="#F0F0F0" />
    <path d="M380.81 341.419H377.969V344.26H380.81V341.419Z" fill="#F0F0F0" />
    <path d="M380.81 346.181H377.969V349.019H380.81V346.181Z" fill="#F0F0F0" />
    <path d="M380.81 350.931H377.969V353.769H380.81V350.931Z" fill="#F0F0F0" />
    <path d="M380.81 355.69H377.969V358.531H380.81V355.69Z" fill="#F0F0F0" />
    <path d="M385.321 265.36H382.48V268.2H385.321V265.36Z" fill="#F0F0F0" />
    <path d="M385.321 270.11H382.48V272.95H385.321V270.11Z" fill="#F0F0F0" />
    <path d="M385.321 274.869H382.48V277.71H385.321V274.869Z" fill="#F0F0F0" />
    <path d="M385.321 279.619H382.48V282.46H385.321V279.619Z" fill="#F0F0F0" />
    <path d="M385.321 284.369H382.48V287.21H385.321V284.369Z" fill="#F0F0F0" />
    <path d="M385.321 289.131H382.48V291.969H385.321V289.131Z" fill="#F0F0F0" />
    <path d="M385.321 293.881H382.48V296.719H385.321V293.881Z" fill="#F0F0F0" />
    <path d="M385.321 298.64H382.48V301.481H385.321V298.64Z" fill="#F0F0F0" />
    <path d="M385.321 303.39H382.48V306.231H385.321V303.39Z" fill="#F0F0F0" />
    <path d="M385.321 308.14H382.48V310.981H385.321V308.14Z" fill="#F0F0F0" />
    <path d="M385.321 312.9H382.48V315.74H385.321V312.9Z" fill="#F0F0F0" />
    <path d="M385.321 317.65H382.48V320.49H385.321V317.65Z" fill="#F0F0F0" />
    <path d="M385.321 322.41H382.48V325.25H385.321V322.41Z" fill="#F0F0F0" />
    <path d="M385.321 327.16H382.48V330H385.321V327.16Z" fill="#F0F0F0" />
    <path d="M385.321 331.91H382.48V334.75H385.321V331.91Z" fill="#F0F0F0" />
    <path d="M385.321 336.669H382.48V339.51H385.321V336.669Z" fill="#F0F0F0" />
    <path d="M385.321 341.419H382.48V344.26H385.321V341.419Z" fill="#F0F0F0" />
    <path d="M385.321 346.181H382.48V349.019H385.321V346.181Z" fill="#F0F0F0" />
    <path d="M385.321 350.931H382.48V353.769H385.321V350.931Z" fill="#F0F0F0" />
    <path d="M385.321 355.69H382.48V358.531H385.321V355.69Z" fill="#F0F0F0" />
    <path d="M358.629 283.869H355.79V286.71H358.629V283.869Z" fill="#F0F0F0" />
    <path d="M358.629 288.631H355.79V291.469H358.629V288.631Z" fill="#F0F0F0" />
    <path d="M358.629 293.381H355.79V296.219H358.629V293.381Z" fill="#F0F0F0" />
    <path d="M358.629 298.14H355.79V300.981H358.629V298.14Z" fill="#F0F0F0" />
    <path d="M358.629 302.89H355.79V305.731H358.629V302.89Z" fill="#F0F0F0" />
    <path d="M358.629 307.64H355.79V310.481H358.629V307.64Z" fill="#F0F0F0" />
    <path d="M358.629 312.4H355.79V315.24H358.629V312.4Z" fill="#F0F0F0" />
    <path d="M358.629 317.15H355.79V319.99H358.629V317.15Z" fill="#F0F0F0" />
    <path d="M358.629 321.91H355.79V324.75H358.629V321.91Z" fill="#F0F0F0" />
    <path d="M358.629 326.66H355.79V329.5H358.629V326.66Z" fill="#F0F0F0" />
    <path d="M363.129 283.869H360.29V286.71H363.129V283.869Z" fill="#F0F0F0" />
    <path d="M363.129 288.631H360.29V291.469H363.129V288.631Z" fill="#F0F0F0" />
    <path d="M363.129 293.381H360.29V296.219H363.129V293.381Z" fill="#F0F0F0" />
    <path d="M363.129 298.14H360.29V300.981H363.129V298.14Z" fill="#F0F0F0" />
    <path d="M363.129 302.89H360.29V305.731H363.129V302.89Z" fill="#F0F0F0" />
    <path d="M363.129 307.64H360.29V310.481H363.129V307.64Z" fill="#F0F0F0" />
    <path d="M363.129 312.4H360.29V315.24H363.129V312.4Z" fill="#F0F0F0" />
    <path d="M363.129 317.15H360.29V319.99H363.129V317.15Z" fill="#F0F0F0" />
    <path d="M363.129 321.91H360.29V324.75H363.129V321.91Z" fill="#F0F0F0" />
    <path
        d="M136.36 166.24C136.36 164.864 136.039 163.507 135.422 162.278C134.804 161.049 133.908 159.981 132.804 159.16C131.7 158.339 130.419 157.787 129.064 157.549C127.709 157.311 126.317 157.394 125 157.79C125.132 156.896 125.199 155.993 125.2 155.09C125.2 152.347 124.595 149.637 123.429 147.154C122.263 144.671 120.564 142.475 118.453 140.724C116.342 138.972 113.871 137.707 111.216 137.018C108.56 136.329 105.786 136.235 103.09 136.74C101.247 133.72 98.4724 131.38 95.1842 130.073C91.8962 128.767 88.2724 128.564 84.8591 129.496C81.4459 130.428 78.4278 132.444 76.2601 135.241C74.0921 138.037 72.8919 141.462 72.8398 145H72.5598C68.5709 145 64.7455 146.585 61.9249 149.406C59.1044 152.225 57.5198 156.051 57.5198 160.04C57.5198 164.029 59.1044 167.854 61.9249 170.675C64.7455 173.496 68.5709 175.081 72.5598 175.081H127.79C130.09 175.017 132.274 174.057 133.875 172.406C135.477 170.754 136.369 168.54 136.36 166.24Z"
        fill="#F0F0F0" />
    <path
        d="M369 146.84C369 145.347 369.593 143.915 370.649 142.858C371.704 141.803 373.136 141.21 374.631 141.21C375.175 141.213 375.718 141.293 376.24 141.45C376.16 140.876 376.119 140.299 376.119 139.719C376.119 136.566 377.371 133.54 379.597 131.305C381.824 129.071 384.846 127.811 388 127.8C388.735 127.804 389.468 127.874 390.19 128.01C391.365 126.08 393.135 124.583 395.235 123.747C397.333 122.911 399.649 122.779 401.828 123.373C404.008 123.967 405.938 125.253 407.322 127.038C408.708 128.823 409.476 131.011 409.51 133.27H409.69C412.236 133.27 414.678 134.281 416.478 136.082C418.279 137.882 419.29 140.324 419.29 142.869C419.29 145.417 418.279 147.858 416.478 149.658C414.678 151.458 412.236 152.469 409.69 152.469H374.47C373.003 152.433 371.608 151.824 370.586 150.771C369.564 149.718 368.994 148.307 369 146.84Z"
        fill="#F0F0F0" />
    <path
        d="M256.881 86.1C256.883 85.1858 257.247 84.3099 257.893 83.6635C258.54 83.0169 259.415 82.6526 260.331 82.65C260.669 82.6475 261.007 82.6982 261.331 82.8C261.278 82.449 261.251 82.0948 261.25 81.74C261.25 80.7805 261.439 79.8304 261.807 78.9442C262.174 78.0578 262.713 77.2526 263.392 76.5746C264.071 75.8967 264.876 75.359 265.764 74.9928C266.65 74.6265 267.6 74.4387 268.56 74.44C269.01 74.4393 269.458 74.4796 269.9 74.56C270.622 73.3796 271.708 72.4655 272.994 71.9551C274.281 71.4449 275.697 71.3658 277.033 71.73C278.368 72.0942 279.549 72.8819 280.397 73.9747C281.246 75.0675 281.718 76.4064 281.74 77.79H281.84C282.633 77.7574 283.425 77.8853 284.168 78.1662C284.91 78.4474 285.588 78.8755 286.161 79.4253C286.733 79.975 287.189 80.6347 287.501 81.3651C287.813 82.0954 287.972 82.8811 287.972 83.675C287.972 84.4689 287.813 85.2547 287.501 85.985C287.189 86.7153 286.733 87.3751 286.161 87.9249C285.588 88.4744 284.91 88.9028 284.168 89.1837C283.425 89.4647 282.633 89.5928 281.84 89.56H260.24C259.338 89.539 258.481 89.1646 257.853 88.5175C257.224 87.8703 256.875 87.0021 256.881 86.1Z"
        fill="#F0F0F0" />
    <path
        d="M250 427.56C357.082 427.56 443.89 422.492 443.89 416.24C443.89 409.987 357.082 404.919 250 404.919C142.918 404.919 56.1101 409.987 56.1101 416.24C56.1101 422.492 142.918 427.56 250 427.56Z"
        fill="#F5F5F5" />
    <path
        d="M423 366.76C423 366.76 427.69 351.031 418.19 347.89C408.69 344.75 403 337.4 403.35 329.081C403.7 320.76 393.66 312.66 386.16 320.46C378.66 328.26 379.66 314.46 369.66 311.11C359.66 307.76 351.19 315.89 353.931 323.319C356.671 330.75 346.8 335.4 335 329.081C323.2 322.76 310.181 334.26 312.681 343.26C315.181 352.26 313.14 353.26 305.681 350.26C298.221 347.26 284.831 355.76 289.521 366.76C294.21 377.76 423 366.76 423 366.76Z"
        fill="#15803D" />
    <path opacity="0.3"
        d="M423 366.76C423 366.76 427.69 351.031 418.19 347.89C408.69 344.75 403 337.4 403.35 329.081C403.7 320.76 393.66 312.66 386.16 320.46C378.66 328.26 379.66 314.46 369.66 311.11C359.66 307.76 351.19 315.89 353.931 323.319C356.671 330.75 346.8 335.4 335 329.081C323.2 322.76 310.181 334.26 312.681 343.26C315.181 352.26 313.14 353.26 305.681 350.26C298.221 347.26 284.831 355.76 289.521 366.76C294.21 377.76 423 366.76 423 366.76Z"
        fill="white" />
    <path
        d="M171.66 368.26C176.66 363.26 172.16 354.76 167.16 353.76C162.16 352.76 157.16 343.96 156.9 338.36C156.64 332.76 147.66 315.531 133.66 326.169C119.66 336.81 123.92 327.74 113.79 324.75C103.66 321.76 97.2799 330.36 101.72 336.81C101.72 336.81 91.5499 334.26 87.3599 343.76C83.1699 353.26 87.3599 359.16 87.3599 359.16C87.3599 359.16 68.2199 358.59 69.9399 370.431C71.6599 382.269 171.66 368.26 171.66 368.26Z"
        fill="#15803D" />
    <path opacity="0.3"
        d="M171.66 368.26C176.66 363.26 172.16 354.76 167.16 353.76C162.16 352.76 157.16 343.96 156.9 338.36C156.64 332.76 147.66 315.531 133.66 326.169C119.66 336.81 123.92 327.74 113.79 324.75C103.66 321.76 97.2799 330.36 101.72 336.81C101.72 336.81 91.5499 334.26 87.3599 343.76C83.1699 353.26 87.3599 359.16 87.3599 359.16C87.3599 359.16 68.2199 358.59 69.9399 370.431C71.6599 382.269 171.66 368.26 171.66 368.26Z"
        fill="white" />
    <path
        d="M440.16 368.56V382.26H54.1601V368.56C54.1303 368.012 54.2113 367.465 54.398 366.95C54.5848 366.435 54.8734 365.961 55.2467 365.561C55.62 365.16 56.0705 364.837 56.571 364.614C57.0716 364.39 57.612 364.269 58.1601 364.26H436.119C436.672 364.265 437.217 364.381 437.722 364.601C438.226 364.824 438.682 365.144 439.06 365.546C439.437 365.949 439.729 366.422 439.918 366.94C440.108 367.458 440.19 368.01 440.16 368.56Z"
        fill="#263238" />
    <path d="M100.16 364.26H76.1599V382.26H100.16V364.26Z" fill="#15803D" />
    <path d="M145.16 364.26H122.16V382.26H145.16V364.26Z" fill="#15803D" />
    <path d="M191.16 364.26H167.16V382.26H191.16V364.26Z" fill="#15803D" />
    <path d="M236.16 364.26H213.16V382.26H236.16V364.26Z" fill="#15803D" />
    <path d="M281.16 364.26H258.16V382.26H281.16V364.26Z" fill="#15803D" />
    <path d="M327.16 364.26H303.16V382.26H327.16V364.26Z" fill="#15803D" />
    <path d="M372.16 364.26H349.16V382.26H372.16V364.26Z" fill="#15803D" />
    <path d="M418.16 364.26H394.16V382.26H418.16V364.26Z" fill="#15803D" />
    <g opacity="0.6">
        <path d="M100.16 364.26H76.1599V382.26H100.16V364.26Z" fill="white" />
        <path d="M145.16 364.26H122.16V382.26H145.16V364.26Z" fill="white" />
        <path d="M191.16 364.26H167.16V382.26H191.16V364.26Z" fill="white" />
        <path d="M236.16 364.26H213.16V382.26H236.16V364.26Z" fill="white" />
        <path d="M281.16 364.26H258.16V382.26H281.16V364.26Z" fill="white" />
        <path d="M327.16 364.26H303.16V382.26H327.16V364.26Z" fill="white" />
        <path d="M372.16 364.26H349.16V382.26H372.16V364.26Z" fill="white" />
        <path d="M418.16 364.26H394.16V382.26H418.16V364.26Z" fill="white" />
    </g>
    <path opacity="0.1"
        d="M440.16 368.56V382.26H54.1601V368.56C54.1303 368.012 54.2113 367.465 54.398 366.95C54.5848 366.435 54.8734 365.961 55.2467 365.561C55.62 365.16 56.0705 364.837 56.571 364.614C57.0716 364.39 57.612 364.269 58.1601 364.26H436.119C436.672 364.265 437.217 364.381 437.722 364.601C438.226 364.824 438.682 365.144 439.06 365.546C439.437 365.949 439.729 366.422 439.918 366.94C440.108 367.458 440.19 368.01 440.16 368.56Z"
        fill="white" />
    <path
        d="M198.39 359.61V151.56L268.02 143.169L298.62 149L308.62 150.9L330.09 154.99L344.4 152.169L354.4 150.2L401.5 140.931V348.981L354.4 358.26L344.4 360.231L330.09 363.05L268.02 351.231L263.981 351.719L251.931 353.169L198.39 359.61Z"
        fill="#15803D" />
    <path opacity="0.2"
        d="M198.39 359.61V151.56L268.02 143.169L298.62 149L308.62 150.9L330.09 154.99L344.4 152.169L354.4 150.2L401.5 140.931V348.981L354.4 358.26L344.4 360.231L330.09 363.05L268.02 351.231L263.981 351.719L251.931 353.169L198.39 359.61Z"
        fill="black" />
    <path
        d="M344.4 257.46V242C344.401 241.636 344.321 241.278 344.167 240.949C344.013 240.619 343.786 240.329 343.507 240.099C343.226 239.867 342.899 239.7 342.546 239.611C342.195 239.521 341.826 239.511 341.47 239.581L198.39 267.09V256.9L255.16 246C255.495 245.935 255.811 245.801 256.092 245.608C256.371 245.415 256.608 245.167 256.788 244.878C256.967 244.588 257.085 244.265 257.133 243.928C257.182 243.592 257.16 243.249 257.07 242.919L246.16 203.231C245.997 202.632 245.614 202.118 245.086 201.79C244.56 201.464 243.928 201.35 243.32 201.469L198.39 210.131V199.931L250.51 189.881C251.12 189.765 251.75 189.883 252.275 190.211C252.801 190.539 253.185 191.053 253.35 191.65L267 241.39C267.165 241.987 267.549 242.501 268.075 242.829C268.601 243.157 269.231 243.275 269.84 243.16L296.62 238C297.183 237.893 297.692 237.593 298.057 237.15C298.421 236.708 298.621 236.153 298.62 235.581V177.16C298.621 176.586 298.421 176.032 298.057 175.589C297.692 175.147 297.183 174.847 296.62 174.74L264.4 168.8C264.125 168.756 263.845 168.756 263.57 168.8L198.39 179V168.919L263.681 158.65C263.954 158.6 264.236 158.6 264.51 158.65L295.71 164.39C296.065 164.456 296.431 164.443 296.781 164.351C297.131 164.261 297.456 164.094 297.733 163.863C298.011 163.632 298.235 163.343 298.388 163.015C298.54 162.689 298.621 162.332 298.62 161.969V149L308.62 150.9V232.71C308.621 233.074 308.703 233.433 308.858 233.763C309.014 234.092 309.239 234.383 309.52 234.615C309.8 234.847 310.129 235.014 310.482 235.104C310.835 235.196 311.203 235.207 311.56 235.14L342.4 229.2C342.964 229.094 343.474 228.794 343.839 228.353C344.204 227.91 344.403 227.354 344.4 226.781V152.169L354.4 150.169V223.881C354.401 224.244 354.482 224.603 354.638 224.932C354.793 225.261 355.02 225.551 355.3 225.782C355.581 226.014 355.91 226.179 356.263 226.269C356.615 226.358 356.983 226.369 357.34 226.3L378.131 222.3C378.693 222.193 379.201 221.893 379.567 221.45C379.932 221.008 380.131 220.453 380.131 219.881V168.881C380.129 168.308 380.329 167.754 380.695 167.314C381.06 166.874 381.568 166.575 382.131 166.469L401.531 162.469V172.681L392.131 174.619C391.568 174.729 391.061 175.031 390.696 175.471C390.331 175.912 390.131 176.467 390.131 177.04V217.04C390.129 217.403 390.208 217.763 390.364 218.092C390.518 218.419 390.743 218.711 391.024 218.942C391.304 219.174 391.632 219.34 391.983 219.429C392.336 219.519 392.703 219.529 393.06 219.46L401.5 217.84V228L356.4 236.669C355.838 236.781 355.331 237.083 354.965 237.528C354.6 237.971 354.401 238.526 354.4 239.1V308.86C354.401 309.218 354.479 309.572 354.631 309.897C354.783 310.222 355.003 310.511 355.278 310.742C355.551 310.974 355.872 311.142 356.218 311.236C356.564 311.332 356.926 311.35 357.281 311.29L401.5 304V314.1L356.5 321.581C355.921 321.669 355.392 321.963 355.007 322.406C354.622 322.849 354.407 323.414 354.4 324V358.24L344.4 360.24V272.61C344.401 272.251 344.324 271.896 344.172 271.569C344.021 271.244 343.801 270.956 343.526 270.724C343.251 270.492 342.931 270.324 342.583 270.229C342.238 270.136 341.874 270.118 341.52 270.181L304.431 276.569C304.056 276.635 303.701 276.785 303.395 277.008C303.088 277.233 302.836 277.524 302.66 277.86L264 351.719L251.95 353.169L266.731 324.94C266.94 324.536 267.033 324.082 267.001 323.626C266.97 323.172 266.811 322.736 266.547 322.365C266.282 321.996 265.92 321.706 265.5 321.528C265.081 321.35 264.621 321.292 264.17 321.36L198.41 331.36V321.26L273.51 309.831C273.895 309.771 274.258 309.622 274.575 309.397C274.892 309.171 275.15 308.874 275.331 308.531L296.12 268.84C296.295 268.506 296.545 268.215 296.85 267.994C297.156 267.772 297.508 267.624 297.881 267.56L342.381 259.89C342.947 259.785 343.461 259.485 343.829 259.04C344.199 258.596 344.4 258.038 344.4 257.46Z"
        fill="#15803D" />
    <path
        d="M330.069 358L269 346.319L268.24 346.169L267.46 346.269L263.46 346.76L251.46 348.21L203.39 354V156L267.84 148.24L297.68 153.919L307.68 155.819L329.15 159.91L330.15 160.09L331.1 159.91L345.41 157.09L355.41 155.09L396.5 147V344.869L353.43 353.36L343.43 355.36L330.069 358ZM330.069 363.09L344.38 360.269L354.38 358.269L401.5 349V141L354.4 150.269L344.4 152.269L330.09 155L308.619 150.91L298.619 149.01L268 143.169L198.369 151.56V359.61L251.91 353.169L264 351.719L268 351.231L330.069 363.05V363.09Z"
        fill="#263238" />
    <path opacity="0.1"
        d="M330.069 358L269 346.319L268.24 346.169L267.46 346.269L263.46 346.76L251.46 348.21L203.39 354V156L267.84 148.24L297.68 153.919L307.68 155.819L329.15 159.91L330.15 160.09L331.1 159.91L345.41 157.09L355.41 155.09L396.5 147V344.869L353.43 353.36L343.43 355.36L330.069 358ZM330.069 363.09L344.38 360.269L354.38 358.269L401.5 349V141L354.4 150.269L344.4 152.269L330.09 155L308.619 150.91L298.619 149.01L268 143.169L198.369 151.56V359.61L251.91 353.169L264 351.719L268 351.231L330.069 363.05V363.09Z"
        fill="white" />
    <path opacity="0.1" d="M330.09 363.05V154.99L268.019 143.169V351.231L330.09 363.05Z" fill="black" />
    <g opacity="0.5">
        <path
            d="M376.421 227.15C376.685 227.126 376.949 227.208 377.154 227.379C377.358 227.55 377.486 227.794 377.51 228.06C377.535 228.325 377.451 228.589 377.28 228.793C377.11 228.997 376.865 229.126 376.6 229.15L350.4 233.85V263.75C350.404 263.989 350.322 264.219 350.169 264.403C350.018 264.586 349.805 264.71 349.571 264.75L300.571 273.2L276.421 319C276.361 319.119 276.278 319.226 276.178 319.313C276.076 319.4 275.96 319.467 275.832 319.507C275.705 319.549 275.572 319.564 275.439 319.553C275.307 319.54 275.178 319.503 275.06 319.442C274.942 319.379 274.836 319.294 274.751 319.192C274.667 319.087 274.604 318.969 274.567 318.842C274.528 318.714 274.515 318.579 274.531 318.447C274.544 318.315 274.585 318.186 274.65 318.069L299.06 271.781C299.13 271.644 299.232 271.528 299.355 271.438C299.478 271.347 299.619 271.286 299.771 271.26L348.4 262.86V233C348.396 232.764 348.476 232.533 348.626 232.35C348.776 232.167 348.987 232.043 349.221 232L376.221 227.15H376.421Z"
            fill="white" />
        <path
            d="M273.65 318.569C273.649 318.196 273.757 317.829 273.964 317.517C274.171 317.204 274.467 316.96 274.812 316.815C275.158 316.672 275.539 316.633 275.907 316.706C276.274 316.779 276.611 316.958 276.876 317.224C277.142 317.489 277.322 317.826 277.394 318.194C277.467 318.561 277.429 318.942 277.285 319.287C277.14 319.633 276.896 319.929 276.583 320.136C276.272 320.343 275.904 320.451 275.53 320.45C275.032 320.447 274.555 320.249 274.204 319.896C273.851 319.544 273.653 319.068 273.65 318.569Z"
            fill="white" />
        <path
            d="M374.54 228.15C374.539 227.775 374.647 227.408 374.854 227.096C375.061 226.783 375.357 226.54 375.703 226.396C376.049 226.251 376.429 226.214 376.796 226.286C377.164 226.358 377.501 226.539 377.767 226.804C378.032 227.068 378.211 227.406 378.285 227.774C378.357 228.142 378.318 228.522 378.175 228.868C378.031 229.214 377.786 229.508 377.474 229.715C377.161 229.922 376.794 230.032 376.421 230.031C375.922 230.031 375.443 229.832 375.09 229.479C374.739 229.126 374.54 228.649 374.54 228.15Z"
            fill="white" />
    </g>
    <path
        d="M276.51 289.081C275.464 288.032 274.219 287.2 272.851 286.633C271.483 286.065 270.017 285.774 268.535 285.774C267.054 285.774 265.586 286.065 264.218 286.633C262.85 287.2 261.607 288.032 260.56 289.081C259.512 290.126 258.683 291.369 258.117 292.736C257.55 294.104 257.258 295.569 257.258 297.05C257.258 298.531 257.55 299.996 258.117 301.364C258.683 302.731 259.512 303.974 260.56 305.019L268.56 313.019L276.56 305.019C277.603 303.971 278.431 302.725 278.992 301.356C279.554 299.986 279.842 298.519 279.836 297.04C279.832 295.56 279.536 294.094 278.965 292.729C278.394 291.363 277.56 290.124 276.51 289.081ZM265.29 300.29C264.647 299.649 264.211 298.831 264.033 297.94C263.856 297.05 263.947 296.126 264.294 295.287C264.642 294.449 265.229 293.732 265.985 293.228C266.739 292.724 267.626 292.454 268.535 292.454C269.443 292.454 270.331 292.724 271.085 293.228C271.84 293.732 272.428 294.449 272.776 295.287C273.124 296.126 273.214 297.05 273.036 297.94C272.86 298.831 272.422 299.649 271.781 300.29C271.354 300.717 270.849 301.056 270.292 301.288C269.735 301.519 269.137 301.638 268.535 301.638C267.932 301.638 267.335 301.519 266.778 301.288C266.221 301.056 265.715 300.717 265.29 300.29Z"
        fill="white" />
    <path opacity="0.2"
        d="M276.51 289.081C275.456 288.022 274.2 287.186 272.817 286.619C271.435 286.053 269.954 285.768 268.46 285.781V292.469C269.079 292.442 269.697 292.538 270.278 292.754C270.858 292.972 271.387 293.304 271.836 293.732C272.285 294.16 272.64 294.674 272.885 295.243C273.128 295.812 273.254 296.425 273.254 297.044C273.254 297.664 273.128 298.278 272.885 298.847C272.64 299.417 272.285 299.931 271.836 300.358C271.387 300.786 270.858 301.118 270.278 301.335C269.697 301.551 269.079 301.649 268.46 301.619V312.919L268.531 312.99L276.531 304.99C278.632 302.875 279.811 300.012 279.807 297.031C279.803 294.049 278.618 291.19 276.51 289.081Z"
        fill="black" />
    <path
        d="M384.39 196.781C383.343 195.733 382.101 194.903 380.733 194.336C379.367 193.769 377.9 193.478 376.421 193.478C374.94 193.478 373.474 193.769 372.107 194.336C370.739 194.903 369.497 195.733 368.45 196.781C366.337 198.897 365.151 201.765 365.151 204.756C365.151 207.746 366.337 210.614 368.45 212.731L376.45 220.731L384.45 212.731C385.494 211.679 386.321 210.433 386.883 209.062C387.446 207.692 387.732 206.224 387.726 204.743C387.721 203.261 387.424 201.796 386.851 200.429C386.279 199.063 385.443 197.822 384.39 196.781ZM373.181 208C372.536 207.358 372.099 206.54 371.919 205.65C371.742 204.76 371.831 203.836 372.178 202.996C372.525 202.157 373.114 201.439 373.868 200.933C374.624 200.428 375.511 200.158 376.421 200.158C377.329 200.158 378.217 200.428 378.972 200.933C379.726 201.439 380.315 202.157 380.662 202.996C381.01 203.836 381.099 204.76 380.921 205.65C380.743 206.54 380.304 207.358 379.66 208C378.8 208.857 377.635 209.339 376.421 209.339C375.206 209.339 374.04 208.857 373.181 208Z"
        fill="white" />
    <path opacity="0.2"
        d="M384.39 196.781C383.339 195.731 382.092 194.9 380.718 194.335C379.346 193.771 377.875 193.483 376.39 193.49V200.181C377.008 200.151 377.626 200.249 378.207 200.465C378.787 200.682 379.318 201.014 379.765 201.442C380.214 201.869 380.571 202.383 380.814 202.953C381.058 203.522 381.183 204.136 381.183 204.756C381.183 205.375 381.058 205.988 380.814 206.557C380.571 207.126 380.214 207.64 379.765 208.068C379.318 208.496 378.787 208.828 378.207 209.046C377.626 209.263 377.008 209.358 376.39 209.331V220.631L376.46 220.7L384.46 212.7C386.558 210.578 387.731 207.71 387.717 204.725C387.704 201.742 386.507 198.883 384.39 196.781Z"
        fill="black" />
    <path d="M92.03 394.99L97.57 400.581L110.96 388.231L105.42 382.631L92.03 394.99Z" fill="#EEC1BB" />
    <path
        d="M99.0002 400.71L92.2803 393.931C92.1689 393.819 92.0236 393.749 91.8676 393.731C91.7116 393.712 91.554 393.747 91.4202 393.831L85.3602 397.65C85.1014 397.818 84.9194 398.082 84.8539 398.383C84.7883 398.685 84.8445 399 85.0102 399.26C85.058 399.331 85.1115 399.397 85.1702 399.46C87.3802 401.619 89.1002 403.081 91.8302 405.84C93.5102 407.54 98.4103 412.84 100.73 415.181C103.05 417.519 105.67 415.54 104.94 414.369C101.61 409.131 99.7002 404.6 99.5702 402C99.5527 401.513 99.3487 401.051 99.0002 400.71Z"
        fill="#263238" />
    <path opacity="0.2" d="M105.42 382.64L110.95 388.231L104.04 394.6L98.51 389.01L105.42 382.64Z" fill="black" />
    <path
        d="M98.5904 401.86C98.5684 401.829 98.5566 401.793 98.5566 401.756C98.5566 401.717 98.5684 401.68 98.5904 401.65C98.6107 401.619 98.6404 401.597 98.675 401.586C98.7094 401.576 98.7466 401.576 98.7804 401.59C99.1104 401.66 102 402.369 102.29 403.3C102.329 403.401 102.336 403.511 102.311 403.617C102.286 403.722 102.23 403.817 102.15 403.89C102.037 404.044 101.885 404.167 101.709 404.242C101.533 404.317 101.34 404.344 101.15 404.319C100.622 404.222 100.145 403.942 99.8004 403.531C99.3355 403.021 98.9296 402.46 98.5904 401.86ZM99.1504 402.06C99.5744 402.931 100.315 403.607 101.22 403.95C101.344 403.96 101.469 403.939 101.583 403.889C101.696 403.837 101.795 403.76 101.87 403.66C101.97 403.55 101.98 403.45 101.94 403.419C101.917 403.339 101.872 403.267 101.81 403.21C101.006 402.66 100.103 402.269 99.1504 402.06Z"
        fill="#15803D" />
    <path
        d="M98.5201 401.85C98.5152 401.818 98.5182 401.785 98.5286 401.753C98.539 401.722 98.5566 401.693 98.5801 401.669C98.6601 401.6 100.4 400.14 101.58 400.269C101.723 400.279 101.861 400.318 101.987 400.386C102.113 400.453 102.223 400.547 102.31 400.66C102.407 400.761 102.467 400.893 102.48 401.033C102.493 401.172 102.457 401.312 102.38 401.431C101.9 402.131 99.5701 402.231 98.6901 401.969L98.6201 401.9C98.6009 401.899 98.582 401.894 98.5648 401.885C98.5477 401.876 98.5325 401.865 98.5201 401.85ZM101.58 400.6C100.688 400.699 99.8496 401.072 99.1801 401.669C100.18 401.81 101.82 401.6 102.11 401.169C102.11 401.169 102.22 401.019 102.05 400.85L101.99 400.781C101.881 400.671 101.734 400.607 101.58 400.6Z"
        fill="#15803D" />
    <path
        d="M182.631 195.21C182.631 195.21 195.121 215.21 197.49 217.719C199.86 220.231 215.49 194.069 216.71 190.581C217.931 187.09 233.56 186.99 234.631 187.44C235.7 187.89 234.981 195.44 231.981 196.99C228.981 198.54 218.671 198.14 218.671 198.14C218.671 198.14 209.59 227.39 198.91 228.881C188.231 230.369 176.59 203.931 176.59 203.931L182.631 195.21Z"
        fill="#EEC1BB" />
    <path d="M173.471 185.269C181.31 186.669 191.59 207.84 191.59 207.84L182.531 219.7L171.26 209L173.471 185.269Z"
        fill="#15803D" />
    <path opacity="0.4"
        d="M191.59 207.84L182.53 219.7L182.23 219.41L171.23 209.019L171.369 207.5L173.44 185.269C181.31 186.669 191.59 207.84 191.59 207.84Z"
        fill="white" />
    <path opacity="0.2"
        d="M182.23 219.41L171.23 209.019L171.369 207.5L175.18 199.79C175.18 199.79 182.18 206.569 182.23 219.41Z"
        fill="black" />
    <path
        d="M171.26 254.481C171.26 254.481 152.71 323.75 140 351C127.29 378.25 109.39 392.54 109.39 392.54L101.1 382.319C101.1 382.319 124.4 349.181 129.45 328.731C134.5 308.281 136.19 266 136.19 266L171.26 254.481Z"
        fill="#263238" />
    <path opacity="0.2"
        d="M171.26 254.481C171.26 254.481 152.71 323.75 140 351C127.29 378.25 109.39 392.54 109.39 392.54L101.1 382.319C101.1 382.319 124.4 349.181 129.45 328.731C134.5 308.281 136.19 266 136.19 266L171.26 254.481Z"
        fill="black" />
    <path d="M176.731 410.369L184.19 407.881L179.04 390.4L171.571 392.89L176.731 410.369Z" fill="#EEC1BB" />
    <path
        d="M184.93 406.669L175.871 409.669C175.724 409.722 175.597 409.824 175.514 409.956C175.431 410.087 175.394 410.244 175.41 410.4L176.16 417.531C176.2 417.831 176.357 418.104 176.596 418.292C176.835 418.478 177.139 418.564 177.44 418.531C177.525 418.519 177.61 418.5 177.69 418.469C180.6 417.469 182.69 416.55 186.36 415.319C188.631 414.569 195.54 412.519 198.671 411.481C201.8 410.44 201.181 407.2 199.81 407.35C193.64 408.01 188.73 407.719 186.34 406.681C185.889 406.497 185.385 406.493 184.93 406.669Z"
        fill="#263238" />
    <path opacity="0.2" d="M171.581 392.9L179.04 390.41L181.69 399.419L174.231 401.91L171.581 392.9Z" fill="black" />
    <path
        d="M185.79 407.531C185.753 407.535 185.714 407.526 185.681 407.507C185.649 407.486 185.624 407.456 185.61 407.419C185.587 407.392 185.575 407.357 185.575 407.319C185.575 407.283 185.587 407.249 185.61 407.219C185.81 406.96 187.731 404.681 188.7 404.831C188.807 404.843 188.908 404.888 188.992 404.957C189.075 405.026 189.137 405.117 189.169 405.219C189.25 405.392 189.286 405.579 189.275 405.768C189.264 405.956 189.208 406.139 189.11 406.3C188.789 406.725 188.329 407.026 187.81 407.15C187.153 407.349 186.475 407.476 185.79 407.531ZM186.219 407.11C187.186 407.122 188.119 406.764 188.83 406.11C188.889 406.001 188.919 405.879 188.919 405.756C188.919 405.631 188.889 405.51 188.83 405.4C188.769 405.26 188.69 405.21 188.64 405.231C188.562 405.201 188.478 405.201 188.4 405.231C187.561 405.713 186.821 406.351 186.219 407.11Z"
        fill="#15803D" />
    <path
        d="M185.76 407.581C185.726 407.575 185.696 407.56 185.671 407.536C185.646 407.514 185.628 407.483 185.621 407.45C185.621 407.34 185.06 405.14 185.68 404.15C185.753 404.026 185.85 403.918 185.968 403.836C186.085 403.753 186.219 403.696 186.36 403.669C186.494 403.625 186.639 403.628 186.771 403.679C186.903 403.731 187.012 403.826 187.08 403.95C187.5 404.681 186.56 406.819 185.93 407.5H185.84C185.824 407.536 185.796 407.564 185.76 407.581ZM185.98 404.281C185.683 405.126 185.649 406.043 185.88 406.91C186.45 406.081 186.99 404.519 186.73 404.06C186.73 404.06 186.64 403.89 186.421 403.969H186.33C186.186 404.031 186.069 404.14 186 404.281H185.98Z"
        fill="#15803D" />
    <path
        d="M129.46 249.931C126.594 262.94 126.872 276.447 130.27 289.331C134.58 304.81 171.39 398.49 171.39 398.49L184.19 394.81L157.119 283.35C157.119 283.35 167.24 269.019 171.26 254.481L129.46 249.931Z"
        fill="#263238" />
    <path d="M186.281 396.3L170.19 401.669L166.181 396.15L185.181 390.969L186.281 396.3Z" fill="#15803D" />
    <path opacity="0.3" d="M186.281 396.3L170.19 401.669L166.181 396.15L185.181 390.969L186.281 396.3Z" fill="white" />
    <path d="M108.87 397.331L96.9402 385.281L100.11 379.24L113.16 393.981L108.87 397.331Z" fill="#15803D" />
    <path opacity="0.3" d="M108.87 397.331L96.9402 385.281L100.11 379.24L113.16 393.981L108.87 397.331Z" fill="white" />
    <path
        d="M134.39 181.669C135.162 190.432 135.279 199.24 134.74 208.019C134.4 214.15 133.8 219.94 133.14 225.19C131.6 237.469 125.33 260.25 125.33 260.25L157.64 268.75L160.571 254.481L163.571 268.75L170 264.8C180 233.069 180.26 201.06 179 191.86C178.8 190.346 178.169 188.919 177.183 187.751C176.199 186.583 174.9 185.722 173.44 185.269C171.971 184.81 170.26 184.269 168.44 183.869C167.731 183.74 167.04 183.55 166.321 183.41C160.436 182.418 154.5 181.771 148.54 181.469C147.421 181.4 146.271 181.369 145.15 181.35C141.561 181.269 137.969 181.376 134.39 181.669Z"
        fill="#15803D" />
    <path opacity="0.4"
        d="M170 264.8L163.59 268.75L160.59 254.481L157.66 268.75L125.35 260.25C125.35 260.25 131.62 237.469 133.16 225.19C133.32 223.94 133.47 222.66 133.62 221.35C134.09 217.16 134.5 212.69 134.76 208.019C134.92 205.46 135.02 202.89 135.06 200.331C135.174 194.103 134.957 187.874 134.41 181.669C138.002 181.375 141.607 181.268 145.21 181.35C146.331 181.35 147.481 181.4 148.6 181.469C154.56 181.771 160.496 182.418 166.381 183.41C167.1 183.55 167.79 183.74 168.5 183.869C170.31 184.31 172.021 184.81 173.5 185.269C174.96 185.722 176.258 186.583 177.245 187.751C178.229 188.919 178.86 190.346 179.06 191.86C180.25 201.06 180 233.069 170 264.8Z"
        fill="white" />
    <path
        d="M152.521 161.59C153.021 167.44 153 178.04 148.581 181.419C150.143 183.447 152.121 185.115 154.382 186.312C156.644 187.51 159.136 188.207 161.69 188.36C166.621 188.79 167.25 185.36 166.36 183.36C160.14 181.14 160.821 176.431 162.421 172.1L152.521 161.59Z"
        fill="#EEC1BB" />
    <path opacity="0.2"
        d="M156.56 165.89L162.41 172.09C162.029 173.097 161.731 174.133 161.521 175.19C159.121 174.581 156.081 171.54 156.09 168.96C156.05 167.917 156.21 166.874 156.56 165.89Z"
        fill="black" />
    <path
        d="M152.771 152.919C152.39 160.71 151.771 165.25 155.281 169.631C160.521 176.25 170.46 173.74 173.171 166.21C175.59 159.431 175.781 147.819 168.531 143.919C166.933 143.046 165.14 142.596 163.319 142.611C161.5 142.628 159.714 143.11 158.133 144.012C156.553 144.915 155.229 146.208 154.29 147.768C153.351 149.326 152.828 151.101 152.771 152.919Z"
        fill="#EEC1BB" />
    <path
        d="M164.281 156.36C164.169 156.981 164.49 157.54 164.91 157.581C165.331 157.619 165.71 157.15 165.781 156.519C165.85 155.89 165.569 155.34 165.16 155.3C164.75 155.26 164.36 155.731 164.281 156.36Z"
        fill="#263238" />
    <path
        d="M171.41 157.14C171.3 157.76 171.631 158.31 172.031 158.36C172.431 158.41 172.831 157.919 172.91 157.29C172.99 156.66 172.69 156.119 172.281 156.069C171.871 156.019 171.481 156.54 171.41 157.14Z"
        fill="#263238" />
    <path
        d="M169.11 157.2C169.653 159.21 170.469 161.135 171.54 162.919C171.074 163.182 170.556 163.34 170.022 163.381C169.487 163.422 168.951 163.347 168.45 163.16L169.11 157.2Z"
        fill="#D4827D" />
    <path
        d="M162.321 153.819C162.387 153.835 162.458 153.833 162.525 153.814C162.59 153.794 162.651 153.758 162.7 153.71C163.01 153.36 163.397 153.087 163.832 152.914C164.265 152.74 164.735 152.671 165.2 152.71C165.249 152.718 165.297 152.718 165.344 152.707C165.393 152.697 165.437 152.678 165.478 152.649C165.518 152.621 165.551 152.586 165.578 152.544C165.604 152.504 165.622 152.458 165.631 152.41C165.64 152.362 165.64 152.312 165.631 152.264C165.621 152.217 165.601 152.171 165.574 152.131C165.544 152.09 165.508 152.056 165.467 152.031C165.425 152.004 165.379 151.987 165.331 151.981C164.744 151.911 164.15 151.985 163.599 152.193C163.047 152.403 162.554 152.74 162.16 153.181C162.092 153.249 162.053 153.343 162.053 153.44C162.053 153.537 162.092 153.631 162.16 153.7L162.321 153.819Z"
        fill="#263238" />
    <path
        d="M165.19 165.71C164.29 165.532 163.446 165.138 162.731 164.564C162.015 163.989 161.449 163.25 161.081 162.41C161.067 162.361 161.071 162.308 161.093 162.263C161.115 162.217 161.153 162.181 161.2 162.16C161.224 162.15 161.249 162.144 161.274 162.144C161.299 162.144 161.322 162.149 161.346 162.158C161.369 162.167 161.39 162.181 161.408 162.199C161.426 162.217 161.44 162.238 161.45 162.26C161.814 163.022 162.349 163.689 163.014 164.21C163.678 164.729 164.454 165.089 165.281 165.26C165.306 165.264 165.329 165.272 165.351 165.285C165.372 165.299 165.392 165.315 165.407 165.336C165.422 165.357 165.432 165.381 165.437 165.404C165.444 165.429 165.444 165.456 165.44 165.481C165.436 165.506 165.428 165.529 165.415 165.551C165.401 165.572 165.385 165.592 165.364 165.607C165.343 165.621 165.321 165.632 165.296 165.638C165.271 165.643 165.246 165.644 165.221 165.64L165.19 165.71Z"
        fill="#263238" />
    <path
        d="M174.74 155C174.811 155.025 174.889 155.025 174.96 155C175.051 154.967 175.126 154.899 175.17 154.811C175.211 154.724 175.22 154.622 175.19 154.531C175.003 153.968 174.683 153.46 174.258 153.049C173.835 152.636 173.317 152.331 172.75 152.16C172.656 152.142 172.557 152.161 172.475 152.213C172.393 152.265 172.333 152.346 172.31 152.44C172.292 152.535 172.308 152.633 172.358 152.717C172.408 152.8 172.488 152.863 172.581 152.89C173.025 153.036 173.429 153.283 173.761 153.614C174.092 153.943 174.342 154.346 174.49 154.79C174.511 154.843 174.546 154.889 174.589 154.926C174.633 154.963 174.685 154.988 174.74 155Z"
        fill="#263238" />
    <path
        d="M154.09 159.51C154.09 159.51 159.019 153.14 157.76 147.269C160.449 146.919 163.174 147.556 165.431 149.06C165.482 148.153 165.425 147.243 165.26 146.35C165.26 146.35 172.26 146.84 175.671 151.281C175.629 148.69 174.74 146.186 173.14 144.15C174.174 143.965 175.238 144.09 176.2 144.51C176.2 144.51 170.61 138.62 160.381 140.169C150.15 141.719 146.271 147.281 147.381 156.36C148.49 165.44 152.91 168 152.91 168C152.91 168 151.84 161.06 152.481 159.619C153.119 158.181 154.09 159.51 154.09 159.51Z"
        fill="#263238" />
    <path
        d="M148.35 161.081C149.212 162.842 150.737 164.189 152.59 164.831C155.05 165.66 156.421 163.481 155.86 161.09C155.33 158.96 153.44 155.9 150.86 156.09C148.28 156.281 147.321 158.9 148.35 161.081Z"
        fill="#EEC1BB" />
    <path
        d="M168.54 140.331C166.118 140.726 163.736 141.336 161.421 142.15C159.764 142.732 158.158 143.451 156.621 144.3C149.09 148.45 147.171 153.81 147.171 153.81C147.171 153.81 146.931 153.131 146.61 152.069C146.29 151.01 145.86 149.631 145.471 148.19C144.721 145.49 144.1 142.669 144.471 141.86C147.681 134.63 157.86 132.6 159.231 133C160.06 133.25 163.231 135.83 165.66 137.86C166.89 138.86 167.921 139.76 168.35 140.14L168.54 140.331Z"
        fill="#15803D" />
    <path opacity="0.6"
        d="M168.319 140.14C165.947 140.524 163.63 141.196 161.419 142.14C160.019 142.7 158.419 143.41 156.619 144.29C150.91 147.069 148.04 149.86 146.619 152.06C146.29 151.01 145.869 149.619 145.48 148.181C148.29 145.36 155.81 138.8 165.66 137.85C166.86 138.87 167.89 139.76 168.319 140.14Z"
        fill="white" />
    <path
        d="M147.35 156.36C147.35 156.36 140.49 161.169 140.06 158.61C138.95 152.04 157.15 137.61 174.91 137.95C189.5 138.22 173.81 142.681 173.81 142.681C168 140.669 146.89 149.85 147.35 156.36Z"
        fill="#15803D" />
    <path opacity="0.3"
        d="M147.35 156.36C147.35 156.36 140.49 161.169 140.06 158.61C138.95 152.04 157.15 137.61 174.91 137.95C189.5 138.22 173.81 142.681 173.81 142.681C168 140.669 146.89 149.85 147.35 156.36Z"
        fill="black" />
    <path
        d="M149.46 177.569C149.46 177.569 152.9 181.15 161.069 185C161.069 185 163.01 183.51 163.26 179L168.481 183.91L167.319 192.14L163.85 188.31L162.05 212.231C162.05 212.231 163.181 196.231 159.25 189.081L156.619 193.14C156.619 193.14 147.119 189.85 144.34 181.36L149.46 177.569Z"
        fill="#15803D" />
    <path opacity="0.6"
        d="M168.481 183.869L167.319 192.1L163.85 188.269L162.05 212.19C162.05 212.19 163.181 196.19 159.25 189.04L156.619 193.1C156.619 193.1 147.119 189.81 144.34 181.319L149.46 177.569C149.46 177.569 152.9 181.15 161.069 185C161.29 184.819 163.01 183.25 163.24 179L168.481 183.869Z"
        fill="white" />
    <path opacity="0.2"
        d="M162.41 197.45C162.119 191.45 161.069 185 161.069 185C161.29 184.819 163.01 183.25 163.24 179C163.54 179.856 163.644 180.767 163.542 181.668C163.44 182.568 163.135 183.435 162.65 184.2L162.41 197.45Z"
        fill="black" />
    <path
        d="M119 266.25C119.862 267.831 120.315 269.6 120.32 271.4C120.45 274.69 119.78 281.14 119 281.95C118.54 282.419 110.85 280.26 110.1 278.35C109.76 277.481 111.1 268.631 112.67 266.25C114.24 263.869 119 266.25 119 266.25Z"
        fill="#EEC1BB" />
    <path opacity="0.2"
        d="M144.09 202.59C144.09 202.59 140.471 216.59 133.6 221.35C134.07 217.16 134.48 212.69 134.74 208.019C134.9 205.46 135 202.89 135.04 200.331L144.09 202.59Z"
        fill="black" />
    <path
        d="M125.33 199.79C125.33 199.79 116.04 216.14 114.33 221.681C112.62 227.219 112.65 266.25 112.65 266.25H119C119 266.25 123 227.481 125.33 222.469C127.66 217.46 136.19 205.91 136.19 205.91L125.33 199.79Z"
        fill="#EEC1BB" />
    <path
        d="M136 181.569C131.75 180.89 120.34 205.81 120.34 205.81L132.34 213.34C132.34 213.34 140.181 206.04 144.071 202.59C147.96 199.14 142.9 182.681 136 181.569Z"
        fill="#15803D" />
    <path opacity="0.4"
        d="M136 181.569C131.75 180.89 120.34 205.81 120.34 205.81L132.34 213.34C132.34 213.34 140.181 206.04 144.071 202.59C147.96 199.14 142.9 182.681 136 181.569Z"
        fill="white" />
    <path d="M120.32 204.081L134.38 213.34L131.26 216.14L118.8 208.031L120.32 204.081Z" fill="#15803D" />
    <path opacity="0.6" d="M120.32 204.081L134.38 213.34L131.26 216.14L118.8 208.031L120.32 204.081Z" fill="white" />
    <path d="M180.169 218.85L190.91 205.89L193.36 209.29L183.94 220.79L180.169 218.85Z" fill="#15803D" />
    <path opacity="0.6" d="M180.169 218.85L190.91 205.89L193.36 209.29L183.94 220.79L180.169 218.85Z" fill="white" />
    <path
        d="M221.281 188.15L231.881 173.45C231.95 173.356 232.046 173.282 232.156 173.237C232.264 173.193 232.383 173.181 232.5 173.2L239.42 174.419C239.526 174.437 239.628 174.483 239.711 174.55C239.796 174.618 239.861 174.707 239.901 174.807C239.942 174.908 239.956 175.017 239.942 175.125C239.926 175.232 239.885 175.333 239.82 175.419L229 190.14C228.931 190.235 228.835 190.307 228.725 190.35C228.615 190.393 228.496 190.403 228.381 190.381L221.7 189.131C221.595 189.114 221.496 189.071 221.411 189.004C221.328 188.939 221.261 188.854 221.22 188.756C221.178 188.658 221.161 188.551 221.172 188.446C221.182 188.339 221.22 188.237 221.281 188.15Z"
        fill="#263238" />
    <path
        d="M220.521 187.731L231.121 173.031C231.189 172.933 231.283 172.858 231.393 172.814C231.504 172.769 231.624 172.758 231.74 172.781L238.66 173.99C238.767 174.008 238.867 174.053 238.951 174.121C239.036 174.189 239.101 174.276 239.142 174.378C239.182 174.478 239.196 174.587 239.181 174.694C239.167 174.801 239.125 174.903 239.06 174.99L228.221 189.731C228.15 189.824 228.054 189.896 227.945 189.939C227.835 189.981 227.715 189.992 227.6 189.969L220.921 188.719C220.815 188.701 220.717 188.656 220.633 188.589C220.55 188.522 220.486 188.435 220.446 188.336C220.406 188.236 220.392 188.129 220.406 188.024C220.418 187.917 220.457 187.817 220.521 187.731Z"
        fill="#263238" />
    <path d="M231.55 173.519L238.181 174.7L227.59 188.94L221.16 187.76L231.55 173.519Z" fill="white" />
    <path
        d="M259.65 117.75C259.651 112.579 258.164 107.516 255.362 103.169C252.561 98.8218 248.567 95.374 243.857 93.2387C239.147 91.1035 233.921 90.3711 228.806 91.1294C223.69 91.8876 218.901 94.1044 215.014 97.5142C211.125 100.924 208.303 105.382 206.883 110.355C205.464 115.328 205.507 120.604 207.01 125.553C208.512 130.501 211.408 134.912 215.353 138.256C219.297 141.6 224.122 143.737 229.25 144.41L230.55 158.54L233.031 144.64C240.114 144.567 246.883 141.701 251.867 136.666C256.851 131.632 259.647 124.834 259.65 117.75Z"
        fill="#15803D" />
    <path opacity="0.8"
        d="M259.65 117.75C259.651 112.579 258.164 107.516 255.362 103.169C252.561 98.8218 248.567 95.374 243.857 93.2387C239.147 91.1035 233.921 90.3711 228.806 91.1294C223.69 91.8876 218.901 94.1044 215.014 97.5142C211.125 100.924 208.303 105.382 206.883 110.355C205.464 115.328 205.507 120.604 207.01 125.553C208.512 130.501 211.408 134.912 215.353 138.256C219.297 141.6 224.122 143.737 229.25 144.41L230.55 158.54L233.031 144.64C240.114 144.567 246.883 141.701 251.867 136.666C256.851 131.632 259.647 124.834 259.65 117.75Z"
        fill="white" />
    <path d="M245.87 117.75L219.631 106.78L223.931 117.75L219.631 128.71L245.87 117.75Z" fill="#15803D" />
    <path opacity="0.3" d="M223.931 117.75H245.87L219.631 128.71L223.931 117.75Z" fill="black" />
</svg>