<svg width="360" height="360" viewBox="0 0 360 360" fill="none" xmlns="http://www.w3.org/2000/svg">
<path d="M360 275.328H0V275.508H360V275.328Z" fill="#EBEBEB"/>
<path d="M323.928 286.913H300.082V287.093H323.928V286.913Z" fill="#EBEBEB"/>
<path d="M238.478 288.871H232.222V289.051H238.478V288.871Z" fill="#EBEBEB"/>
<path d="M299.362 280.231H285.545V280.411H299.362V280.231Z" fill="#EBEBEB"/>
<path d="M68.868 281.441H37.7712V281.621H68.868V281.441Z" fill="#EBEBEB"/>
<path d="M79.8408 281.441H75.2832V281.621H79.8408V281.441Z" fill="#EBEBEB"/>
<path d="M162.108 284.479H94.6584V284.659H162.108V284.479Z" fill="#EBEBEB"/>
<path d="M170.64 243.216H31.6152C30.5261 243.214 29.4823 242.78 28.7128 242.009C27.9434 241.239 27.5112 240.194 27.5112 239.105V43.6752C27.5207 42.5923 27.957 41.557 28.7255 40.7939C29.4939 40.0309 30.5323 39.6019 31.6152 39.6H170.64C171.73 39.6 172.776 40.0331 173.547 40.8041C174.318 41.5751 174.751 42.6208 174.751 43.7112V239.105C174.751 240.195 174.318 241.241 173.547 242.012C172.776 242.783 171.73 243.216 170.64 243.216ZM31.6152 39.744C30.5739 39.7459 29.5758 40.1609 28.8401 40.898C28.1044 41.635 27.6912 42.6338 27.6912 43.6752V239.105C27.6912 240.146 28.1044 241.145 28.8401 241.882C29.5758 242.619 30.5739 243.034 31.6152 243.036H170.64C171.682 243.034 172.681 242.619 173.418 241.882C174.155 241.146 174.569 240.147 174.571 239.105V43.6752C174.569 42.6332 174.155 41.6344 173.418 40.8975C172.681 40.1607 171.682 39.7459 170.64 39.744H31.6152Z" fill="#EBEBEB"/>
<path d="M326.383 243.216H187.351C186.261 243.214 185.217 242.78 184.446 242.01C183.676 241.239 183.242 240.195 183.24 239.105V43.6752C183.251 42.5917 183.689 41.5563 184.459 40.7935C185.228 40.0306 186.268 39.6018 187.351 39.6H326.383C327.465 39.6038 328.501 40.0336 329.268 40.7965C330.035 41.5593 330.471 42.5936 330.48 43.6752V239.105C330.48 240.193 330.049 241.236 329.281 242.007C328.513 242.777 327.471 243.212 326.383 243.216ZM187.351 39.744C186.309 39.7459 185.31 40.1607 184.574 40.8975C183.837 41.6344 183.422 42.6332 183.42 43.6752V239.105C183.422 240.147 183.837 241.146 184.574 241.882C185.31 242.619 186.309 243.034 187.351 243.036H326.383C327.425 243.034 328.424 242.619 329.161 241.882C329.898 241.146 330.312 240.147 330.314 239.105V43.6752C330.312 42.6332 329.898 41.6344 329.161 40.8975C328.424 40.1607 327.425 39.7459 326.383 39.744H187.351Z" fill="#EBEBEB"/>
<path d="M312.005 267.394V233.683H309.125V217.62H304.913V161.777H298.814V154.57L285.811 148.5V141.235H284.011V161.777H281.491V217.62H278.964V188.258H272.124V173.124H270.209V217.62H265.01V200.686H261.59V196.366H253.663V181.591H249.322V171.144H243.986V155.916H242.078V171.144H236.743V181.591H232.402V196.366H224.474V200.686H221.054V217.62H216.994V196.366H209.066V150.602H206.546V145.562H189.612V150.602H186.005V183.751H171.598V186.998H166.19V189.518H171.598V202.493H156.463V159.25H153.223V150.062H146.196V117.454H144.209V150.062H139.169V159.25H109.598V156.226H107.791V176.767H105.271V177.127H103.759V197.662H101.232V203.249H95.904V188.114H93.996V224.143H91.8648V209.016H89.9568V232.61H88.7976V215.676H85.3704V211.356H77.4432V196.582H73.1016V186.134H67.7664V170.914H65.8656V186.134H60.5232V196.582H56.1888V211.356H48.2616V215.676H44.8344V232.25H44.2224V232.61H42.5232V267.394H312.005Z" fill="#E6E6E6"/>
<path d="M128.138 161.273H126.094V163.318H128.138V161.273Z" fill="#F0F0F0"/>
<path d="M128.138 164.693H126.094V166.738H128.138V164.693Z" fill="#F0F0F0"/>
<path d="M128.138 178.387H126.094V180.432H128.138V178.387Z" fill="#F0F0F0"/>
<path d="M128.138 181.807H126.094V183.852H128.138V181.807Z" fill="#F0F0F0"/>
<path d="M128.138 185.234H126.094V187.279H128.138V185.234Z" fill="#F0F0F0"/>
<path d="M128.138 195.502H126.094V197.546H128.138V195.502Z" fill="#F0F0F0"/>
<path d="M128.138 198.922H126.094V200.966H128.138V198.922Z" fill="#F0F0F0"/>
<path d="M131.386 174.967H129.341V177.012H131.386V174.967Z" fill="#F0F0F0"/>
<path d="M131.386 178.387H129.341V180.432H131.386V178.387Z" fill="#F0F0F0"/>
<path d="M131.386 181.807H129.341V183.852H131.386V181.807Z" fill="#F0F0F0"/>
<path d="M131.386 185.234H129.341V187.279H131.386V185.234Z" fill="#F0F0F0"/>
<path d="M131.386 188.654H129.341V190.699H131.386V188.654Z" fill="#F0F0F0"/>
<path d="M131.386 195.502H129.341V197.546H131.386V195.502Z" fill="#F0F0F0"/>
<path d="M131.386 198.922H129.341V200.966H131.386V198.922Z" fill="#F0F0F0"/>
<path d="M134.626 161.273H132.581V163.318H134.626V161.273Z" fill="#F0F0F0"/>
<path d="M134.626 164.693H132.581V166.738H134.626V164.693Z" fill="#F0F0F0"/>
<path d="M134.626 168.12H132.581V170.165H134.626V168.12Z" fill="#F0F0F0"/>
<path d="M134.626 171.54H132.581V173.585H134.626V171.54Z" fill="#F0F0F0"/>
<path d="M134.626 174.967H132.581V177.012H134.626V174.967Z" fill="#F0F0F0"/>
<path d="M134.626 178.387H132.581V180.432H134.626V178.387Z" fill="#F0F0F0"/>
<path d="M134.626 181.807H132.581V183.852H134.626V181.807Z" fill="#F0F0F0"/>
<path d="M134.626 185.234H132.581V187.279H134.626V185.234Z" fill="#F0F0F0"/>
<path d="M134.626 188.654H132.581V190.699H134.626V188.654Z" fill="#F0F0F0"/>
<path d="M134.626 192.082H132.581V194.126H134.626V192.082Z" fill="#F0F0F0"/>
<path d="M134.626 198.922H132.581V200.966H134.626V198.922Z" fill="#F0F0F0"/>
<path d="M137.866 161.273H135.821V163.318H137.866V161.273Z" fill="#F0F0F0"/>
<path d="M137.866 164.693H135.821V166.738H137.866V164.693Z" fill="#F0F0F0"/>
<path d="M137.866 168.12H135.821V170.165H137.866V168.12Z" fill="#F0F0F0"/>
<path d="M137.866 171.54H135.821V173.585H137.866V171.54Z" fill="#F0F0F0"/>
<path d="M137.866 174.967H135.821V177.012H137.866V174.967Z" fill="#F0F0F0"/>
<path d="M137.866 178.387H135.821V180.432H137.866V178.387Z" fill="#F0F0F0"/>
<path d="M137.866 181.807H135.821V183.852H137.866V181.807Z" fill="#F0F0F0"/>
<path d="M137.866 212.616H135.821V214.661H137.866V212.616Z" fill="#F0F0F0"/>
<path d="M141.113 161.273H139.068V163.318H141.113V161.273Z" fill="#F0F0F0"/>
<path d="M141.113 164.693H139.068V166.738H141.113V164.693Z" fill="#F0F0F0"/>
<path d="M141.113 168.12H139.068V170.165H141.113V168.12Z" fill="#F0F0F0"/>
<path d="M141.113 171.54H139.068V173.585H141.113V171.54Z" fill="#F0F0F0"/>
<path d="M141.113 174.967H139.068V177.012H141.113V174.967Z" fill="#F0F0F0"/>
<path d="M141.113 178.387H139.068V180.432H141.113V178.387Z" fill="#F0F0F0"/>
<path d="M141.113 181.807H139.068V183.852H141.113V181.807Z" fill="#F0F0F0"/>
<path d="M141.113 185.234H139.068V187.279H141.113V185.234Z" fill="#F0F0F0"/>
<path d="M141.113 205.769H139.068V207.814H141.113V205.769Z" fill="#F0F0F0"/>
<path d="M141.113 209.196H139.068V211.241H141.113V209.196Z" fill="#F0F0F0"/>
<path d="M141.113 212.616H139.068V214.661H141.113V212.616Z" fill="#F0F0F0"/>
<path d="M141.113 216.036H139.068V218.081H141.113V216.036Z" fill="#F0F0F0"/>
<path d="M141.113 229.73H139.068V231.775H141.113V229.73Z" fill="#F0F0F0"/>
<path d="M144.353 161.273H142.308V163.318H144.353V161.273Z" fill="#F0F0F0"/>
<path d="M144.353 164.693H142.308V166.738H144.353V164.693Z" fill="#F0F0F0"/>
<path d="M144.353 168.12H142.308V170.165H144.353V168.12Z" fill="#F0F0F0"/>
<path d="M144.353 171.54H142.308V173.585H144.353V171.54Z" fill="#F0F0F0"/>
<path d="M144.353 174.967H142.308V177.012H144.353V174.967Z" fill="#F0F0F0"/>
<path d="M144.353 178.387H142.308V180.432H144.353V178.387Z" fill="#F0F0F0"/>
<path d="M144.353 181.807H142.308V183.852H144.353V181.807Z" fill="#F0F0F0"/>
<path d="M144.353 185.234H142.308V187.279H144.353V185.234Z" fill="#F0F0F0"/>
<path d="M144.353 188.654H142.308V190.699H144.353V188.654Z" fill="#F0F0F0"/>
<path d="M144.353 192.082H142.308V194.126H144.353V192.082Z" fill="#F0F0F0"/>
<path d="M144.353 202.349H142.308V204.394H144.353V202.349Z" fill="#F0F0F0"/>
<path d="M144.353 205.769H142.308V207.814H144.353V205.769Z" fill="#F0F0F0"/>
<path d="M144.353 209.196H142.308V211.241H144.353V209.196Z" fill="#F0F0F0"/>
<path d="M144.353 212.616H142.308V214.661H144.353V212.616Z" fill="#F0F0F0"/>
<path d="M144.353 216.036H142.308V218.081H144.353V216.036Z" fill="#F0F0F0"/>
<path d="M144.353 229.73H142.308V231.775H144.353V229.73Z" fill="#F0F0F0"/>
<path d="M147.6 161.273H145.555V163.318H147.6V161.273Z" fill="#F0F0F0"/>
<path d="M147.6 164.693H145.555V166.738H147.6V164.693Z" fill="#F0F0F0"/>
<path d="M147.6 168.12H145.555V170.165H147.6V168.12Z" fill="#F0F0F0"/>
<path d="M147.6 171.54H145.555V173.585H147.6V171.54Z" fill="#F0F0F0"/>
<path d="M147.6 174.967H145.555V177.012H147.6V174.967Z" fill="#F0F0F0"/>
<path d="M147.6 178.387H145.555V180.432H147.6V178.387Z" fill="#F0F0F0"/>
<path d="M147.6 181.807H145.555V183.852H147.6V181.807Z" fill="#F0F0F0"/>
<path d="M147.6 185.234H145.555V187.279H147.6V185.234Z" fill="#F0F0F0"/>
<path d="M147.6 188.654H145.555V190.699H147.6V188.654Z" fill="#F0F0F0"/>
<path d="M147.6 192.082H145.555V194.126H147.6V192.082Z" fill="#F0F0F0"/>
<path d="M147.6 195.502H145.555V197.546H147.6V195.502Z" fill="#F0F0F0"/>
<path d="M147.6 198.922H145.555V200.966H147.6V198.922Z" fill="#F0F0F0"/>
<path d="M147.6 202.349H145.555V204.394H147.6V202.349Z" fill="#F0F0F0"/>
<path d="M147.6 205.769H145.555V207.814H147.6V205.769Z" fill="#F0F0F0"/>
<path d="M147.6 209.196H145.555V211.241H147.6V209.196Z" fill="#F0F0F0"/>
<path d="M147.6 212.616H145.555V214.661H147.6V212.616Z" fill="#F0F0F0"/>
<path d="M147.6 216.036H145.555V218.081H147.6V216.036Z" fill="#F0F0F0"/>
<path d="M147.6 219.463H145.555V221.508H147.6V219.463Z" fill="#F0F0F0"/>
<path d="M150.84 161.273H148.795V163.318H150.84V161.273Z" fill="#F0F0F0"/>
<path d="M150.84 164.693H148.795V166.738H150.84V164.693Z" fill="#F0F0F0"/>
<path d="M150.84 168.12H148.795V170.165H150.84V168.12Z" fill="#F0F0F0"/>
<path d="M150.84 171.54H148.795V173.585H150.84V171.54Z" fill="#F0F0F0"/>
<path d="M150.84 174.967H148.795V177.012H150.84V174.967Z" fill="#F0F0F0"/>
<path d="M150.84 178.387H148.795V180.432H150.84V178.387Z" fill="#F0F0F0"/>
<path d="M150.84 181.807H148.795V183.852H150.84V181.807Z" fill="#F0F0F0"/>
<path d="M150.84 185.234H148.795V187.279H150.84V185.234Z" fill="#F0F0F0"/>
<path d="M150.84 188.654H148.795V190.699H150.84V188.654Z" fill="#F0F0F0"/>
<path d="M150.84 192.082H148.795V194.126H150.84V192.082Z" fill="#F0F0F0"/>
<path d="M150.84 202.349H148.795V204.394H150.84V202.349Z" fill="#F0F0F0"/>
<path d="M150.84 205.769H148.795V207.814H150.84V205.769Z" fill="#F0F0F0"/>
<path d="M150.84 209.196H148.795V211.241H150.84V209.196Z" fill="#F0F0F0"/>
<path d="M150.84 212.616H148.795V214.661H150.84V212.616Z" fill="#F0F0F0"/>
<path d="M154.08 161.273H152.035V163.318H154.08V161.273Z" fill="#F0F0F0"/>
<path d="M154.08 164.693H152.035V166.738H154.08V164.693Z" fill="#F0F0F0"/>
<path d="M154.08 168.12H152.035V170.165H154.08V168.12Z" fill="#F0F0F0"/>
<path d="M154.08 171.54H152.035V173.585H154.08V171.54Z" fill="#F0F0F0"/>
<path d="M154.08 174.967H152.035V177.012H154.08V174.967Z" fill="#F0F0F0"/>
<path d="M154.08 178.387H152.035V180.432H154.08V178.387Z" fill="#F0F0F0"/>
<path d="M154.08 181.807H152.035V183.852H154.08V181.807Z" fill="#F0F0F0"/>
<path d="M154.08 185.234H152.035V187.279H154.08V185.234Z" fill="#F0F0F0"/>
<path d="M154.08 188.654H152.035V190.699H154.08V188.654Z" fill="#F0F0F0"/>
<path d="M154.08 192.082H152.035V194.126H154.08V192.082Z" fill="#F0F0F0"/>
<path d="M154.08 202.349H152.035V204.394H154.08V202.349Z" fill="#F0F0F0"/>
<path d="M154.08 205.769H152.035V207.814H154.08V205.769Z" fill="#F0F0F0"/>
<path d="M154.08 209.196H152.035V211.241H154.08V209.196Z" fill="#F0F0F0"/>
<path d="M190.591 152.388H188.546V154.433H190.591V152.388Z" fill="#F0F0F0"/>
<path d="M190.591 155.808H188.546V157.853H190.591V155.808Z" fill="#F0F0F0"/>
<path d="M190.591 159.228H188.546V161.273H190.591V159.228Z" fill="#F0F0F0"/>
<path d="M190.591 162.655H188.546V164.7H190.591V162.655Z" fill="#F0F0F0"/>
<path d="M190.591 166.075H188.546V168.12H190.591V166.075Z" fill="#F0F0F0"/>
<path d="M190.591 169.502H188.546V171.547H190.591V169.502Z" fill="#F0F0F0"/>
<path d="M190.591 172.922H188.546V174.967H190.591V172.922Z" fill="#F0F0F0"/>
<path d="M190.591 176.342H188.546V178.387H190.591V176.342Z" fill="#F0F0F0"/>
<path d="M190.591 186.617H188.546V188.662H190.591V186.617Z" fill="#F0F0F0"/>
<path d="M190.591 190.037H188.546V192.082H190.591V190.037Z" fill="#F0F0F0"/>
<path d="M193.838 152.388H191.794V154.433H193.838V152.388Z" fill="#F0F0F0"/>
<path d="M193.838 155.808H191.794V157.853H193.838V155.808Z" fill="#F0F0F0"/>
<path d="M193.838 159.228H191.794V161.273H193.838V159.228Z" fill="#F0F0F0"/>
<path d="M193.838 162.655H191.794V164.7H193.838V162.655Z" fill="#F0F0F0"/>
<path d="M193.838 166.075H191.794V168.12H193.838V166.075Z" fill="#F0F0F0"/>
<path d="M193.838 169.502H191.794V171.547H193.838V169.502Z" fill="#F0F0F0"/>
<path d="M193.838 172.922H191.794V174.967H193.838V172.922Z" fill="#F0F0F0"/>
<path d="M193.838 176.342H191.794V178.387H193.838V176.342Z" fill="#F0F0F0"/>
<path d="M193.838 190.037H191.794V192.082H193.838V190.037Z" fill="#F0F0F0"/>
<path d="M197.078 152.388H195.034V154.433H197.078V152.388Z" fill="#F0F0F0"/>
<path d="M197.078 155.808H195.034V157.853H197.078V155.808Z" fill="#F0F0F0"/>
<path d="M197.078 159.228H195.034V161.273H197.078V159.228Z" fill="#F0F0F0"/>
<path d="M197.078 162.655H195.034V164.7H197.078V162.655Z" fill="#F0F0F0"/>
<path d="M197.078 166.075H195.034V168.12H197.078V166.075Z" fill="#F0F0F0"/>
<path d="M197.078 169.502H195.034V171.547H197.078V169.502Z" fill="#F0F0F0"/>
<path d="M197.078 172.922H195.034V174.967H197.078V172.922Z" fill="#F0F0F0"/>
<path d="M197.078 176.342H195.034V178.387H197.078V176.342Z" fill="#F0F0F0"/>
<path d="M200.318 152.388H198.274V154.433H200.318V152.388Z" fill="#F0F0F0"/>
<path d="M200.318 155.808H198.274V157.853H200.318V155.808Z" fill="#F0F0F0"/>
<path d="M200.318 159.228H198.274V161.273H200.318V159.228Z" fill="#F0F0F0"/>
<path d="M200.318 162.655H198.274V164.7H200.318V162.655Z" fill="#F0F0F0"/>
<path d="M200.318 166.075H198.274V168.12H200.318V166.075Z" fill="#F0F0F0"/>
<path d="M200.318 169.502H198.274V171.547H200.318V169.502Z" fill="#F0F0F0"/>
<path d="M200.318 176.342H198.274V178.387H200.318V176.342Z" fill="#F0F0F0"/>
<path d="M200.318 179.77H198.274V181.814H200.318V179.77Z" fill="#F0F0F0"/>
<path d="M200.318 190.037H198.274V192.082H200.318V190.037Z" fill="#F0F0F0"/>
<path d="M200.318 193.457H198.274V195.502H200.318V193.457Z" fill="#F0F0F0"/>
<path d="M200.318 196.884H198.274V198.929H200.318V196.884Z" fill="#F0F0F0"/>
<path d="M200.318 200.304H198.274V202.349H200.318V200.304Z" fill="#F0F0F0"/>
<path d="M200.318 203.731H198.274V205.776H200.318V203.731Z" fill="#F0F0F0"/>
<path d="M200.318 207.151H198.274V209.196H200.318V207.151Z" fill="#F0F0F0"/>
<path d="M200.318 210.571H198.274V212.616H200.318V210.571Z" fill="#F0F0F0"/>
<path d="M203.566 152.388H201.521V154.433H203.566V152.388Z" fill="#F0F0F0"/>
<path d="M203.566 155.808H201.521V157.853H203.566V155.808Z" fill="#F0F0F0"/>
<path d="M203.566 159.228H201.521V161.273H203.566V159.228Z" fill="#F0F0F0"/>
<path d="M203.566 162.655H201.521V164.7H203.566V162.655Z" fill="#F0F0F0"/>
<path d="M203.566 166.075H201.521V168.12H203.566V166.075Z" fill="#F0F0F0"/>
<path d="M203.566 169.502H201.521V171.547H203.566V169.502Z" fill="#F0F0F0"/>
<path d="M203.566 179.77H201.521V181.814H203.566V179.77Z" fill="#F0F0F0"/>
<path d="M203.566 183.19H201.521V185.234H203.566V183.19Z" fill="#F0F0F0"/>
<path d="M203.566 186.617H201.521V188.662H203.566V186.617Z" fill="#F0F0F0"/>
<path d="M203.566 190.037H201.521V192.082H203.566V190.037Z" fill="#F0F0F0"/>
<path d="M203.566 193.457H201.521V195.502H203.566V193.457Z" fill="#F0F0F0"/>
<path d="M203.566 196.884H201.521V198.929H203.566V196.884Z" fill="#F0F0F0"/>
<path d="M203.566 200.304H201.521V202.349H203.566V200.304Z" fill="#F0F0F0"/>
<path d="M203.566 203.731H201.521V205.776H203.566V203.731Z" fill="#F0F0F0"/>
<path d="M203.566 207.151H201.521V209.196H203.566V207.151Z" fill="#F0F0F0"/>
<path d="M203.566 210.571H201.521V212.616H203.566V210.571Z" fill="#F0F0F0"/>
<path d="M203.566 213.998H201.521V216.043H203.566V213.998Z" fill="#F0F0F0"/>
<path d="M203.566 220.846H201.521V222.89H203.566V220.846Z" fill="#F0F0F0"/>
<path d="M206.806 152.388H204.761V154.433H206.806V152.388Z" fill="#F0F0F0"/>
<path d="M206.806 155.808H204.761V157.853H206.806V155.808Z" fill="#F0F0F0"/>
<path d="M206.806 159.228H204.761V161.273H206.806V159.228Z" fill="#F0F0F0"/>
<path d="M206.806 162.655H204.761V164.7H206.806V162.655Z" fill="#F0F0F0"/>
<path d="M206.806 166.075H204.761V168.12H206.806V166.075Z" fill="#F0F0F0"/>
<path d="M206.806 169.502H204.761V171.547H206.806V169.502Z" fill="#F0F0F0"/>
<path d="M206.806 179.77H204.761V181.814H206.806V179.77Z" fill="#F0F0F0"/>
<path d="M206.806 183.19H204.761V185.234H206.806V183.19Z" fill="#F0F0F0"/>
<path d="M206.806 186.617H204.761V188.662H206.806V186.617Z" fill="#F0F0F0"/>
<path d="M206.806 190.037H204.761V192.082H206.806V190.037Z" fill="#F0F0F0"/>
<path d="M206.806 200.304H204.761V202.349H206.806V200.304Z" fill="#F0F0F0"/>
<path d="M206.806 203.731H204.761V205.776H206.806V203.731Z" fill="#F0F0F0"/>
<path d="M206.806 207.151H204.761V209.196H206.806V207.151Z" fill="#F0F0F0"/>
<path d="M206.806 210.571H204.761V212.616H206.806V210.571Z" fill="#F0F0F0"/>
<path d="M206.806 213.998H204.761V216.043H206.806V213.998Z" fill="#F0F0F0"/>
<path d="M206.806 220.846H204.761V222.89H206.806V220.846Z" fill="#F0F0F0"/>
<path d="M206.806 224.266H204.761V226.31H206.806V224.266Z" fill="#F0F0F0"/>
<path d="M236.232 184.212H234.187V186.257H236.232V184.212Z" fill="#F0F0F0"/>
<path d="M236.232 187.632H234.187V189.677H236.232V187.632Z" fill="#F0F0F0"/>
<path d="M236.232 191.059H234.187V193.104H236.232V191.059Z" fill="#F0F0F0"/>
<path d="M236.232 194.479H234.187V196.524H236.232V194.479Z" fill="#F0F0F0"/>
<path d="M236.232 197.906H234.187V199.951H236.232V197.906Z" fill="#F0F0F0"/>
<path d="M236.232 201.326H234.187V203.371H236.232V201.326Z" fill="#F0F0F0"/>
<path d="M236.232 204.746H234.187V206.791H236.232V204.746Z" fill="#F0F0F0"/>
<path d="M236.232 215.021H234.187V217.066H236.232V215.021Z" fill="#F0F0F0"/>
<path d="M236.232 218.441H234.187V220.486H236.232V218.441Z" fill="#F0F0F0"/>
<path d="M236.232 221.861H234.187V223.906H236.232V221.861Z" fill="#F0F0F0"/>
<path d="M239.472 184.212H237.427V186.257H239.472V184.212Z" fill="#F0F0F0"/>
<path d="M239.472 187.632H237.427V189.677H239.472V187.632Z" fill="#F0F0F0"/>
<path d="M239.472 191.059H237.427V193.104H239.472V191.059Z" fill="#F0F0F0"/>
<path d="M239.472 194.479H237.427V196.524H239.472V194.479Z" fill="#F0F0F0"/>
<path d="M239.472 197.906H237.427V199.951H239.472V197.906Z" fill="#F0F0F0"/>
<path d="M239.472 201.326H237.427V203.371H239.472V201.326Z" fill="#F0F0F0"/>
<path d="M239.472 204.746H237.427V206.791H239.472V204.746Z" fill="#F0F0F0"/>
<path d="M242.719 184.212H240.674V186.257H242.719V184.212Z" fill="#F0F0F0"/>
<path d="M242.719 187.632H240.674V189.677H242.719V187.632Z" fill="#F0F0F0"/>
<path d="M242.719 191.059H240.674V193.104H242.719V191.059Z" fill="#F0F0F0"/>
<path d="M242.719 194.479H240.674V196.524H242.719V194.479Z" fill="#F0F0F0"/>
<path d="M242.719 197.906H240.674V199.951H242.719V197.906Z" fill="#F0F0F0"/>
<path d="M242.719 201.326H240.674V203.371H242.719V201.326Z" fill="#F0F0F0"/>
<path d="M242.719 204.746H240.674V206.791H242.719V204.746Z" fill="#F0F0F0"/>
<path d="M245.959 184.212H243.914V186.257H245.959V184.212Z" fill="#F0F0F0"/>
<path d="M245.959 187.632H243.914V189.677H245.959V187.632Z" fill="#F0F0F0"/>
<path d="M245.959 191.059H243.914V193.104H245.959V191.059Z" fill="#F0F0F0"/>
<path d="M245.959 194.479H243.914V196.524H245.959V194.479Z" fill="#F0F0F0"/>
<path d="M245.959 197.906H243.914V199.951H245.959V197.906Z" fill="#F0F0F0"/>
<path d="M245.959 201.326H243.914V203.371H245.959V201.326Z" fill="#F0F0F0"/>
<path d="M245.959 204.746H243.914V206.791H245.959V204.746Z" fill="#F0F0F0"/>
<path d="M245.959 208.174H243.914V210.218H245.959V208.174Z" fill="#F0F0F0"/>
<path d="M245.959 211.594H243.914V213.638H245.959V211.594Z" fill="#F0F0F0"/>
<path d="M245.959 215.021H243.914V217.066H245.959V215.021Z" fill="#F0F0F0"/>
<path d="M245.959 218.441H243.914V220.486H245.959V218.441Z" fill="#F0F0F0"/>
<path d="M249.206 184.212H247.162V186.257H249.206V184.212Z" fill="#F0F0F0"/>
<path d="M249.206 187.632H247.162V189.677H249.206V187.632Z" fill="#F0F0F0"/>
<path d="M249.206 191.059H247.162V193.104H249.206V191.059Z" fill="#F0F0F0"/>
<path d="M249.206 194.479H247.162V196.524H249.206V194.479Z" fill="#F0F0F0"/>
<path d="M249.206 197.906H247.162V199.951H249.206V197.906Z" fill="#F0F0F0"/>
<path d="M249.206 201.326H247.162V203.371H249.206V201.326Z" fill="#F0F0F0"/>
<path d="M249.206 204.746H247.162V206.791H249.206V204.746Z" fill="#F0F0F0"/>
<path d="M249.206 208.174H247.162V210.218H249.206V208.174Z" fill="#F0F0F0"/>
<path d="M249.206 211.594H247.162V213.638H249.206V211.594Z" fill="#F0F0F0"/>
<path d="M249.206 215.021H247.162V217.066H249.206V215.021Z" fill="#F0F0F0"/>
<path d="M249.206 218.441H247.162V220.486H249.206V218.441Z" fill="#F0F0F0"/>
<path d="M249.206 221.861H247.162V223.906H249.206V221.861Z" fill="#F0F0F0"/>
<path d="M249.206 232.135H247.162V234.18H249.206V232.135Z" fill="#F0F0F0"/>
<path d="M249.206 235.555H247.162V237.6H249.206V235.555Z" fill="#F0F0F0"/>
<path d="M252.446 184.212H250.402V186.257H252.446V184.212Z" fill="#F0F0F0"/>
<path d="M252.446 187.632H250.402V189.677H252.446V187.632Z" fill="#F0F0F0"/>
<path d="M252.446 191.059H250.402V193.104H252.446V191.059Z" fill="#F0F0F0"/>
<path d="M252.446 201.326H250.402V203.371H252.446V201.326Z" fill="#F0F0F0"/>
<path d="M252.446 204.746H250.402V206.791H252.446V204.746Z" fill="#F0F0F0"/>
<path d="M252.446 208.174H250.402V210.218H252.446V208.174Z" fill="#F0F0F0"/>
<path d="M252.446 211.594H250.402V213.638H252.446V211.594Z" fill="#F0F0F0"/>
<path d="M252.446 215.021H250.402V217.066H252.446V215.021Z" fill="#F0F0F0"/>
<path d="M252.446 218.441H250.402V220.486H252.446V218.441Z" fill="#F0F0F0"/>
<path d="M252.446 221.861H250.402V223.906H252.446V221.861Z" fill="#F0F0F0"/>
<path d="M252.446 232.135H250.402V234.18H252.446V232.135Z" fill="#F0F0F0"/>
<path d="M252.446 235.555H250.402V237.6H252.446V235.555Z" fill="#F0F0F0"/>
<path d="M252.446 238.975H250.402V241.02H252.446V238.975Z" fill="#F0F0F0"/>
<path d="M286.438 163.678H284.393V165.722H286.438V163.678Z" fill="#F0F0F0"/>
<path d="M286.438 167.098H284.393V169.142H286.438V167.098Z" fill="#F0F0F0"/>
<path d="M286.438 170.518H284.393V172.562H286.438V170.518Z" fill="#F0F0F0"/>
<path d="M286.438 173.945H284.393V175.99H286.438V173.945Z" fill="#F0F0F0"/>
<path d="M286.438 177.365H284.393V179.41H286.438V177.365Z" fill="#F0F0F0"/>
<path d="M286.438 180.792H284.393V182.837H286.438V180.792Z" fill="#F0F0F0"/>
<path d="M286.438 184.212H284.393V186.257H286.438V184.212Z" fill="#F0F0F0"/>
<path d="M286.438 187.632H284.393V189.677H286.438V187.632Z" fill="#F0F0F0"/>
<path d="M286.438 191.059H284.393V193.104H286.438V191.059Z" fill="#F0F0F0"/>
<path d="M286.438 194.479H284.393V196.524H286.438V194.479Z" fill="#F0F0F0"/>
<path d="M286.438 197.906H284.393V199.951H286.438V197.906Z" fill="#F0F0F0"/>
<path d="M286.438 201.326H284.393V203.371H286.438V201.326Z" fill="#F0F0F0"/>
<path d="M286.438 204.746H284.393V206.791H286.438V204.746Z" fill="#F0F0F0"/>
<path d="M286.438 208.174H284.393V210.218H286.438V208.174Z" fill="#F0F0F0"/>
<path d="M286.438 211.594H284.393V213.638H286.438V211.594Z" fill="#F0F0F0"/>
<path d="M286.438 215.021H284.393V217.066H286.438V215.021Z" fill="#F0F0F0"/>
<path d="M286.438 218.441H284.393V220.486H286.438V218.441Z" fill="#F0F0F0"/>
<path d="M286.438 221.861H284.393V223.906H286.438V221.861Z" fill="#F0F0F0"/>
<path d="M286.438 225.288H284.393V227.333H286.438V225.288Z" fill="#F0F0F0"/>
<path d="M286.438 228.708H284.393V230.753H286.438V228.708Z" fill="#F0F0F0"/>
<path d="M286.438 232.135H284.393V234.18H286.438V232.135Z" fill="#F0F0F0"/>
<path d="M286.438 235.555H284.393V237.6H286.438V235.555Z" fill="#F0F0F0"/>
<path d="M286.438 238.975H284.393V241.02H286.438V238.975Z" fill="#F0F0F0"/>
<path d="M289.678 163.678H287.633V165.722H289.678V163.678Z" fill="#F0F0F0"/>
<path d="M289.678 167.098H287.633V169.142H289.678V167.098Z" fill="#F0F0F0"/>
<path d="M289.678 170.518H287.633V172.562H289.678V170.518Z" fill="#F0F0F0"/>
<path d="M289.678 173.945H287.633V175.99H289.678V173.945Z" fill="#F0F0F0"/>
<path d="M289.678 177.365H287.633V179.41H289.678V177.365Z" fill="#F0F0F0"/>
<path d="M289.678 180.792H287.633V182.837H289.678V180.792Z" fill="#F0F0F0"/>
<path d="M289.678 184.212H287.633V186.257H289.678V184.212Z" fill="#F0F0F0"/>
<path d="M289.678 187.632H287.633V189.677H289.678V187.632Z" fill="#F0F0F0"/>
<path d="M289.678 191.059H287.633V193.104H289.678V191.059Z" fill="#F0F0F0"/>
<path d="M289.678 194.479H287.633V196.524H289.678V194.479Z" fill="#F0F0F0"/>
<path d="M289.678 197.906H287.633V199.951H289.678V197.906Z" fill="#F0F0F0"/>
<path d="M289.678 201.326H287.633V203.371H289.678V201.326Z" fill="#F0F0F0"/>
<path d="M289.678 204.746H287.633V206.791H289.678V204.746Z" fill="#F0F0F0"/>
<path d="M289.678 208.174H287.633V210.218H289.678V208.174Z" fill="#F0F0F0"/>
<path d="M289.678 211.594H287.633V213.638H289.678V211.594Z" fill="#F0F0F0"/>
<path d="M289.678 215.021H287.633V217.066H289.678V215.021Z" fill="#F0F0F0"/>
<path d="M289.678 218.441H287.633V220.486H289.678V218.441Z" fill="#F0F0F0"/>
<path d="M289.678 221.861H287.633V223.906H289.678V221.861Z" fill="#F0F0F0"/>
<path d="M289.678 225.288H287.633V227.333H289.678V225.288Z" fill="#F0F0F0"/>
<path d="M292.918 163.678H290.873V165.722H292.918V163.678Z" fill="#F0F0F0"/>
<path d="M292.918 167.098H290.873V169.142H292.918V167.098Z" fill="#F0F0F0"/>
<path d="M292.918 170.518H290.873V172.562H292.918V170.518Z" fill="#F0F0F0"/>
<path d="M292.918 173.945H290.873V175.99H292.918V173.945Z" fill="#F0F0F0"/>
<path d="M292.918 177.365H290.873V179.41H292.918V177.365Z" fill="#F0F0F0"/>
<path d="M292.918 180.792H290.873V182.837H292.918V180.792Z" fill="#F0F0F0"/>
<path d="M292.918 184.212H290.873V186.257H292.918V184.212Z" fill="#F0F0F0"/>
<path d="M292.918 187.632H290.873V189.677H292.918V187.632Z" fill="#F0F0F0"/>
<path d="M292.918 191.059H290.873V193.104H292.918V191.059Z" fill="#F0F0F0"/>
<path d="M292.918 194.479H290.873V196.524H292.918V194.479Z" fill="#F0F0F0"/>
<path d="M292.918 197.906H290.873V199.951H292.918V197.906Z" fill="#F0F0F0"/>
<path d="M292.918 201.326H290.873V203.371H292.918V201.326Z" fill="#F0F0F0"/>
<path d="M292.918 204.746H290.873V206.791H292.918V204.746Z" fill="#F0F0F0"/>
<path d="M292.918 208.174H290.873V210.218H292.918V208.174Z" fill="#F0F0F0"/>
<path d="M292.918 211.594H290.873V213.638H292.918V211.594Z" fill="#F0F0F0"/>
<path d="M292.918 215.021H290.873V217.066H292.918V215.021Z" fill="#F0F0F0"/>
<path d="M292.918 218.441H290.873V220.486H292.918V218.441Z" fill="#F0F0F0"/>
<path d="M292.918 221.861H290.873V223.906H292.918V221.861Z" fill="#F0F0F0"/>
<path d="M292.918 225.288H290.873V227.333H292.918V225.288Z" fill="#F0F0F0"/>
<path d="M296.165 163.678H294.12V165.722H296.165V163.678Z" fill="#F0F0F0"/>
<path d="M296.165 167.098H294.12V169.142H296.165V167.098Z" fill="#F0F0F0"/>
<path d="M296.165 170.518H294.12V172.562H296.165V170.518Z" fill="#F0F0F0"/>
<path d="M296.165 173.945H294.12V175.99H296.165V173.945Z" fill="#F0F0F0"/>
<path d="M296.165 177.365H294.12V179.41H296.165V177.365Z" fill="#F0F0F0"/>
<path d="M296.165 180.792H294.12V182.837H296.165V180.792Z" fill="#F0F0F0"/>
<path d="M296.165 184.212H294.12V186.257H296.165V184.212Z" fill="#F0F0F0"/>
<path d="M296.165 187.632H294.12V189.677H296.165V187.632Z" fill="#F0F0F0"/>
<path d="M296.165 191.059H294.12V193.104H296.165V191.059Z" fill="#F0F0F0"/>
<path d="M296.165 194.479H294.12V196.524H296.165V194.479Z" fill="#F0F0F0"/>
<path d="M296.165 197.906H294.12V199.951H296.165V197.906Z" fill="#F0F0F0"/>
<path d="M296.165 201.326H294.12V203.371H296.165V201.326Z" fill="#F0F0F0"/>
<path d="M296.165 204.746H294.12V206.791H296.165V204.746Z" fill="#F0F0F0"/>
<path d="M296.165 208.174H294.12V210.218H296.165V208.174Z" fill="#F0F0F0"/>
<path d="M296.165 211.594H294.12V213.638H296.165V211.594Z" fill="#F0F0F0"/>
<path d="M299.405 163.678H297.36V165.722H299.405V163.678Z" fill="#F0F0F0"/>
<path d="M299.405 167.098H297.36V169.142H299.405V167.098Z" fill="#F0F0F0"/>
<path d="M299.405 170.518H297.36V172.562H299.405V170.518Z" fill="#F0F0F0"/>
<path d="M299.405 173.945H297.36V175.99H299.405V173.945Z" fill="#F0F0F0"/>
<path d="M299.405 177.365H297.36V179.41H299.405V177.365Z" fill="#F0F0F0"/>
<path d="M299.405 180.792H297.36V182.837H299.405V180.792Z" fill="#F0F0F0"/>
<path d="M299.405 184.212H297.36V186.257H299.405V184.212Z" fill="#F0F0F0"/>
<path d="M299.405 187.632H297.36V189.677H299.405V187.632Z" fill="#F0F0F0"/>
<path d="M299.405 191.059H297.36V193.104H299.405V191.059Z" fill="#F0F0F0"/>
<path d="M299.405 194.479H297.36V196.524H299.405V194.479Z" fill="#F0F0F0"/>
<path d="M299.405 197.906H297.36V199.951H299.405V197.906Z" fill="#F0F0F0"/>
<path d="M299.405 201.326H297.36V203.371H299.405V201.326Z" fill="#F0F0F0"/>
<path d="M299.405 204.746H297.36V206.791H299.405V204.746Z" fill="#F0F0F0"/>
<path d="M302.652 163.678H300.607V165.722H302.652V163.678Z" fill="#F0F0F0"/>
<path d="M302.652 167.098H300.607V169.142H302.652V167.098Z" fill="#F0F0F0"/>
<path d="M302.652 170.518H300.607V172.562H302.652V170.518Z" fill="#F0F0F0"/>
<path d="M302.652 173.945H300.607V175.99H302.652V173.945Z" fill="#F0F0F0"/>
<path d="M302.652 177.365H300.607V179.41H302.652V177.365Z" fill="#F0F0F0"/>
<path d="M302.652 180.792H300.607V182.837H302.652V180.792Z" fill="#F0F0F0"/>
<path d="M302.652 184.212H300.607V186.257H302.652V184.212Z" fill="#F0F0F0"/>
<path d="M302.652 187.632H300.607V189.677H302.652V187.632Z" fill="#F0F0F0"/>
<path d="M302.652 191.059H300.607V193.104H302.652V191.059Z" fill="#F0F0F0"/>
<path d="M302.652 194.479H300.607V196.524H302.652V194.479Z" fill="#F0F0F0"/>
<path d="M302.652 197.906H300.607V199.951H302.652V197.906Z" fill="#F0F0F0"/>
<path d="M302.652 201.326H300.607V203.371H302.652V201.326Z" fill="#F0F0F0"/>
<path d="M64.368 188.654H62.3232V190.699H64.368V188.654Z" fill="#F0F0F0"/>
<path d="M64.368 192.082H62.3232V194.126H64.368V192.082Z" fill="#F0F0F0"/>
<path d="M64.368 195.502H62.3232V197.546H64.368V195.502Z" fill="#F0F0F0"/>
<path d="M64.368 198.922H62.3232V200.966H64.368V198.922Z" fill="#F0F0F0"/>
<path d="M64.368 202.349H62.3232V204.394H64.368V202.349Z" fill="#F0F0F0"/>
<path d="M64.368 205.769H62.3232V207.814H64.368V205.769Z" fill="#F0F0F0"/>
<path d="M64.368 209.196H62.3232V211.241H64.368V209.196Z" fill="#F0F0F0"/>
<path d="M64.368 212.616H62.3232V214.661H64.368V212.616Z" fill="#F0F0F0"/>
<path d="M64.368 216.036H62.3232V218.081H64.368V216.036Z" fill="#F0F0F0"/>
<path d="M64.368 219.463H62.3232V221.508H64.368V219.463Z" fill="#F0F0F0"/>
<path d="M64.368 222.883H62.3232V224.928H64.368V222.883Z" fill="#F0F0F0"/>
<path d="M64.368 226.31H62.3232V228.355H64.368V226.31Z" fill="#F0F0F0"/>
<path d="M64.368 229.73H62.3232V231.775H64.368V229.73Z" fill="#F0F0F0"/>
<path d="M64.368 233.15H62.3232V235.195H64.368V233.15Z" fill="#F0F0F0"/>
<path d="M64.368 236.578H62.3232V238.622H64.368V236.578Z" fill="#F0F0F0"/>
<path d="M64.368 239.998H62.3232V242.042H64.368V239.998Z" fill="#F0F0F0"/>
<path d="M64.368 243.425H62.3232V245.47H64.368V243.425Z" fill="#F0F0F0"/>
<path d="M64.368 246.845H62.3232V248.89H64.368V246.845Z" fill="#F0F0F0"/>
<path d="M64.368 250.265H62.3232V252.31H64.368V250.265Z" fill="#F0F0F0"/>
<path d="M64.368 253.692H62.3232V255.737H64.368V253.692Z" fill="#F0F0F0"/>
<path d="M67.608 188.654H65.5632V190.699H67.608V188.654Z" fill="#F0F0F0"/>
<path d="M67.608 192.082H65.5632V194.126H67.608V192.082Z" fill="#F0F0F0"/>
<path d="M67.608 195.502H65.5632V197.546H67.608V195.502Z" fill="#F0F0F0"/>
<path d="M67.608 198.922H65.5632V200.966H67.608V198.922Z" fill="#F0F0F0"/>
<path d="M67.608 202.349H65.5632V204.394H67.608V202.349Z" fill="#F0F0F0"/>
<path d="M67.608 205.769H65.5632V207.814H67.608V205.769Z" fill="#F0F0F0"/>
<path d="M67.608 209.196H65.5632V211.241H67.608V209.196Z" fill="#F0F0F0"/>
<path d="M67.608 212.616H65.5632V214.661H67.608V212.616Z" fill="#F0F0F0"/>
<path d="M67.608 216.036H65.5632V218.081H67.608V216.036Z" fill="#F0F0F0"/>
<path d="M67.608 219.463H65.5632V221.508H67.608V219.463Z" fill="#F0F0F0"/>
<path d="M67.608 222.883H65.5632V224.928H67.608V222.883Z" fill="#F0F0F0"/>
<path d="M67.608 226.31H65.5632V228.355H67.608V226.31Z" fill="#F0F0F0"/>
<path d="M67.608 229.73H65.5632V231.775H67.608V229.73Z" fill="#F0F0F0"/>
<path d="M67.608 233.15H65.5632V235.195H67.608V233.15Z" fill="#F0F0F0"/>
<path d="M67.608 236.578H65.5632V238.622H67.608V236.578Z" fill="#F0F0F0"/>
<path d="M67.608 239.998H65.5632V242.042H67.608V239.998Z" fill="#F0F0F0"/>
<path d="M67.608 243.425H65.5632V245.47H67.608V243.425Z" fill="#F0F0F0"/>
<path d="M67.608 246.845H65.5632V248.89H67.608V246.845Z" fill="#F0F0F0"/>
<path d="M70.848 188.654H68.8032V190.699H70.848V188.654Z" fill="#F0F0F0"/>
<path d="M70.848 192.082H68.8032V194.126H70.848V192.082Z" fill="#F0F0F0"/>
<path d="M70.848 195.502H68.8032V197.546H70.848V195.502Z" fill="#F0F0F0"/>
<path d="M70.848 198.922H68.8032V200.966H70.848V198.922Z" fill="#F0F0F0"/>
<path d="M70.848 202.349H68.8032V204.394H70.848V202.349Z" fill="#F0F0F0"/>
<path d="M70.848 205.769H68.8032V207.814H70.848V205.769Z" fill="#F0F0F0"/>
<path d="M70.848 209.196H68.8032V211.241H70.848V209.196Z" fill="#F0F0F0"/>
<path d="M70.848 212.616H68.8032V214.661H70.848V212.616Z" fill="#F0F0F0"/>
<path d="M70.848 216.036H68.8032V218.081H70.848V216.036Z" fill="#F0F0F0"/>
<path d="M70.848 219.463H68.8032V221.508H70.848V219.463Z" fill="#F0F0F0"/>
<path d="M70.848 222.883H68.8032V224.928H70.848V222.883Z" fill="#F0F0F0"/>
<path d="M70.848 226.31H68.8032V228.355H70.848V226.31Z" fill="#F0F0F0"/>
<path d="M70.848 229.73H68.8032V231.775H70.848V229.73Z" fill="#F0F0F0"/>
<path d="M70.848 233.15H68.8032V235.195H70.848V233.15Z" fill="#F0F0F0"/>
<path d="M70.848 236.578H68.8032V238.622H70.848V236.578Z" fill="#F0F0F0"/>
<path d="M70.848 239.998H68.8032V242.042H70.848V239.998Z" fill="#F0F0F0"/>
<path d="M70.848 243.425H68.8032V245.47H70.848V243.425Z" fill="#F0F0F0"/>
<path d="M70.848 246.845H68.8032V248.89H70.848V246.845Z" fill="#F0F0F0"/>
<path d="M52.236 213.638H50.1912V215.683H52.236V213.638Z" fill="#F0F0F0"/>
<path d="M52.236 217.058H50.1912V219.103H52.236V217.058Z" fill="#F0F0F0"/>
<path d="M52.236 220.486H50.1912V222.53H52.236V220.486Z" fill="#F0F0F0"/>
<path d="M52.236 223.906H50.1912V225.95H52.236V223.906Z" fill="#F0F0F0"/>
<path d="M52.236 227.326H50.1912V229.37H52.236V227.326Z" fill="#F0F0F0"/>
<path d="M52.236 230.753H50.1912V232.798H52.236V230.753Z" fill="#F0F0F0"/>
<path d="M52.236 234.173H50.1912V236.218H52.236V234.173Z" fill="#F0F0F0"/>
<path d="M52.236 237.6H50.1912V239.645H52.236V237.6Z" fill="#F0F0F0"/>
<path d="M52.236 241.02H50.1912V243.065H52.236V241.02Z" fill="#F0F0F0"/>
<path d="M52.236 244.44H50.1912V246.485H52.236V244.44Z" fill="#F0F0F0"/>
<path d="M52.236 247.867H50.1912V249.912H52.236V247.867Z" fill="#F0F0F0"/>
<path d="M52.236 251.287H50.1912V253.332H52.236V251.287Z" fill="#F0F0F0"/>
<path d="M52.236 254.714H50.1912V256.759H52.236V254.714Z" fill="#F0F0F0"/>
<path d="M55.476 213.638H53.4312V215.683H55.476V213.638Z" fill="#F0F0F0"/>
<path d="M55.476 217.058H53.4312V219.103H55.476V217.058Z" fill="#F0F0F0"/>
<path d="M55.476 220.486H53.4312V222.53H55.476V220.486Z" fill="#F0F0F0"/>
<path d="M55.476 223.906H53.4312V225.95H55.476V223.906Z" fill="#F0F0F0"/>
<path d="M55.476 227.326H53.4312V229.37H55.476V227.326Z" fill="#F0F0F0"/>
<path d="M55.476 230.753H53.4312V232.798H55.476V230.753Z" fill="#F0F0F0"/>
<path d="M55.476 234.173H53.4312V236.218H55.476V234.173Z" fill="#F0F0F0"/>
<path d="M55.476 237.6H53.4312V239.645H55.476V237.6Z" fill="#F0F0F0"/>
<path d="M55.476 241.02H53.4312V243.065H55.476V241.02Z" fill="#F0F0F0"/>
<path d="M55.476 244.44H53.4312V246.485H55.476V244.44Z" fill="#F0F0F0"/>
<path d="M55.476 247.867H53.4312V249.912H55.476V247.867Z" fill="#F0F0F0"/>
<path d="M55.476 251.287H53.4312V253.332H55.476V251.287Z" fill="#F0F0F0"/>
<path d="M55.476 254.714H53.4312V256.759H55.476V254.714Z" fill="#F0F0F0"/>
<path d="M58.7233 213.638H56.6785V215.683H58.7233V213.638Z" fill="#F0F0F0"/>
<path d="M58.7233 217.058H56.6785V219.103H58.7233V217.058Z" fill="#F0F0F0"/>
<path d="M58.7233 220.486H56.6785V222.53H58.7233V220.486Z" fill="#F0F0F0"/>
<path d="M58.7233 223.906H56.6785V225.95H58.7233V223.906Z" fill="#F0F0F0"/>
<path d="M58.7233 227.326H56.6785V229.37H58.7233V227.326Z" fill="#F0F0F0"/>
<path d="M58.7233 230.753H56.6785V232.798H58.7233V230.753Z" fill="#F0F0F0"/>
<path d="M58.7233 234.173H56.6785V236.218H58.7233V234.173Z" fill="#F0F0F0"/>
<path d="M58.7233 237.6H56.6785V239.645H58.7233V237.6Z" fill="#F0F0F0"/>
<path d="M58.7233 241.02H56.6785V243.065H58.7233V241.02Z" fill="#F0F0F0"/>
<path d="M58.7233 244.44H56.6785V246.485H58.7233V244.44Z" fill="#F0F0F0"/>
<path d="M58.7233 247.867H56.6785V249.912H58.7233V247.867Z" fill="#F0F0F0"/>
<path d="M58.7233 251.287H56.6785V253.332H58.7233V251.287Z" fill="#F0F0F0"/>
<path d="M58.7233 254.714H56.6785V256.759H58.7233V254.714Z" fill="#F0F0F0"/>
<path d="M58.7233 258.134H56.6785V260.179H58.7233V258.134Z" fill="#F0F0F0"/>
<path d="M76.7377 214.661H74.6929V216.706H76.7377V214.661Z" fill="#F0F0F0"/>
<path d="M76.7377 218.081H74.6929V220.126H76.7377V218.081Z" fill="#F0F0F0"/>
<path d="M76.7377 221.501H74.6929V223.546H76.7377V221.501Z" fill="#F0F0F0"/>
<path d="M76.7377 224.928H74.6929V226.973H76.7377V224.928Z" fill="#F0F0F0"/>
<path d="M76.7377 228.348H74.6929V230.393H76.7377V228.348Z" fill="#F0F0F0"/>
<path d="M76.7377 231.775H74.6929V233.82H76.7377V231.775Z" fill="#F0F0F0"/>
<path d="M76.7377 235.195H74.6929V237.24H76.7377V235.195Z" fill="#F0F0F0"/>
<path d="M76.7377 238.615H74.6929V240.66H76.7377V238.615Z" fill="#F0F0F0"/>
<path d="M76.7377 242.042H74.6929V244.087H76.7377V242.042Z" fill="#F0F0F0"/>
<path d="M76.7377 245.462H74.6929V247.507H76.7377V245.462Z" fill="#F0F0F0"/>
<path d="M76.7377 255.73H74.6929V257.774H76.7377V255.73Z" fill="#F0F0F0"/>
<path d="M79.9777 214.661H77.9329V216.706H79.9777V214.661Z" fill="#F0F0F0"/>
<path d="M79.9777 218.081H77.9329V220.126H79.9777V218.081Z" fill="#F0F0F0"/>
<path d="M79.9777 221.501H77.9329V223.546H79.9777V221.501Z" fill="#F0F0F0"/>
<path d="M79.9777 224.928H77.9329V226.973H79.9777V224.928Z" fill="#F0F0F0"/>
<path d="M79.9777 228.348H77.9329V230.393H79.9777V228.348Z" fill="#F0F0F0"/>
<path d="M79.9777 231.775H77.9329V233.82H79.9777V231.775Z" fill="#F0F0F0"/>
<path d="M79.9777 235.195H77.9329V237.24H79.9777V235.195Z" fill="#F0F0F0"/>
<path d="M79.9777 238.615H77.9329V240.66H79.9777V238.615Z" fill="#F0F0F0"/>
<path d="M79.9777 242.042H77.9329V244.087H79.9777V242.042Z" fill="#F0F0F0"/>
<path d="M79.9777 252.31H77.9329V254.354H79.9777V252.31Z" fill="#F0F0F0"/>
<path d="M79.9777 255.73H77.9329V257.774H79.9777V255.73Z" fill="#F0F0F0"/>
<path d="M83.2247 214.661H81.1799V216.706H83.2247V214.661Z" fill="#F0F0F0"/>
<path d="M83.2247 218.081H81.1799V220.126H83.2247V218.081Z" fill="#F0F0F0"/>
<path d="M83.2247 221.501H81.1799V223.546H83.2247V221.501Z" fill="#F0F0F0"/>
<path d="M83.2247 224.928H81.1799V226.973H83.2247V224.928Z" fill="#F0F0F0"/>
<path d="M83.2247 228.348H81.1799V230.393H83.2247V228.348Z" fill="#F0F0F0"/>
<path d="M83.2247 231.775H81.1799V233.82H83.2247V231.775Z" fill="#F0F0F0"/>
<path d="M83.2247 235.195H81.1799V237.24H83.2247V235.195Z" fill="#F0F0F0"/>
<path d="M83.2247 238.615H81.1799V240.66H83.2247V238.615Z" fill="#F0F0F0"/>
<path d="M83.2247 248.89H81.1799V250.934H83.2247V248.89Z" fill="#F0F0F0"/>
<path d="M83.2247 252.31H81.1799V254.354H83.2247V252.31Z" fill="#F0F0F0"/>
<path d="M83.2247 255.73H81.1799V257.774H83.2247V255.73Z" fill="#F0F0F0"/>
<path d="M113.364 162.655H111.319V164.7H113.364V162.655Z" fill="#F0F0F0"/>
<path d="M113.364 166.075H111.319V168.12H113.364V166.075Z" fill="#F0F0F0"/>
<path d="M113.364 169.502H111.319V171.547H113.364V169.502Z" fill="#F0F0F0"/>
<path d="M113.364 172.922H111.319V174.967H113.364V172.922Z" fill="#F0F0F0"/>
<path d="M113.364 176.342H111.319V178.387H113.364V176.342Z" fill="#F0F0F0"/>
<path d="M113.364 179.77H111.319V181.814H113.364V179.77Z" fill="#F0F0F0"/>
<path d="M113.364 183.19H111.319V185.234H113.364V183.19Z" fill="#F0F0F0"/>
<path d="M113.364 186.617H111.319V188.662H113.364V186.617Z" fill="#F0F0F0"/>
<path d="M113.364 190.037H111.319V192.082H113.364V190.037Z" fill="#F0F0F0"/>
<path d="M113.364 193.457H111.319V195.502H113.364V193.457Z" fill="#F0F0F0"/>
<path d="M113.364 196.884H111.319V198.929H113.364V196.884Z" fill="#F0F0F0"/>
<path d="M113.364 200.304H111.319V202.349H113.364V200.304Z" fill="#F0F0F0"/>
<path d="M113.364 203.731H111.319V205.776H113.364V203.731Z" fill="#F0F0F0"/>
<path d="M113.364 207.151H111.319V209.196H113.364V207.151Z" fill="#F0F0F0"/>
<path d="M113.364 210.571H111.319V212.616H113.364V210.571Z" fill="#F0F0F0"/>
<path d="M113.364 213.998H111.319V216.043H113.364V213.998Z" fill="#F0F0F0"/>
<path d="M113.364 217.418H111.319V219.463H113.364V217.418Z" fill="#F0F0F0"/>
<path d="M113.364 224.266H111.319V226.31H113.364V224.266Z" fill="#F0F0F0"/>
<path d="M113.364 227.686H111.319V229.73H113.364V227.686Z" fill="#F0F0F0"/>
<path d="M113.364 231.113H111.319V233.158H113.364V231.113Z" fill="#F0F0F0"/>
<path d="M113.364 234.533H111.319V236.578H113.364V234.533Z" fill="#F0F0F0"/>
<path d="M113.364 237.96H111.319V240.005H113.364V237.96Z" fill="#F0F0F0"/>
<path d="M116.611 162.655H114.566V164.7H116.611V162.655Z" fill="#F0F0F0"/>
<path d="M116.611 166.075H114.566V168.12H116.611V166.075Z" fill="#F0F0F0"/>
<path d="M116.611 169.502H114.566V171.547H116.611V169.502Z" fill="#F0F0F0"/>
<path d="M116.611 172.922H114.566V174.967H116.611V172.922Z" fill="#F0F0F0"/>
<path d="M116.611 176.342H114.566V178.387H116.611V176.342Z" fill="#F0F0F0"/>
<path d="M116.611 179.77H114.566V181.814H116.611V179.77Z" fill="#F0F0F0"/>
<path d="M116.611 183.19H114.566V185.234H116.611V183.19Z" fill="#F0F0F0"/>
<path d="M116.611 186.617H114.566V188.662H116.611V186.617Z" fill="#F0F0F0"/>
<path d="M116.611 190.037H114.566V192.082H116.611V190.037Z" fill="#F0F0F0"/>
<path d="M116.611 193.457H114.566V195.502H116.611V193.457Z" fill="#F0F0F0"/>
<path d="M116.611 196.884H114.566V198.929H116.611V196.884Z" fill="#F0F0F0"/>
<path d="M116.611 200.304H114.566V202.349H116.611V200.304Z" fill="#F0F0F0"/>
<path d="M116.611 203.731H114.566V205.776H116.611V203.731Z" fill="#F0F0F0"/>
<path d="M116.611 207.151H114.566V209.196H116.611V207.151Z" fill="#F0F0F0"/>
<path d="M116.611 210.571H114.566V212.616H116.611V210.571Z" fill="#F0F0F0"/>
<path d="M116.611 213.998H114.566V216.043H116.611V213.998Z" fill="#F0F0F0"/>
<path d="M116.611 234.533H114.566V236.578H116.611V234.533Z" fill="#F0F0F0"/>
<path d="M116.611 237.96H114.566V240.005H116.611V237.96Z" fill="#F0F0F0"/>
<path d="M119.851 162.655H117.806V164.7H119.851V162.655Z" fill="#F0F0F0"/>
<path d="M119.851 166.075H117.806V168.12H119.851V166.075Z" fill="#F0F0F0"/>
<path d="M119.851 169.502H117.806V171.547H119.851V169.502Z" fill="#F0F0F0"/>
<path d="M119.851 172.922H117.806V174.967H119.851V172.922Z" fill="#F0F0F0"/>
<path d="M119.851 176.342H117.806V178.387H119.851V176.342Z" fill="#F0F0F0"/>
<path d="M119.851 179.77H117.806V181.814H119.851V179.77Z" fill="#F0F0F0"/>
<path d="M119.851 183.19H117.806V185.234H119.851V183.19Z" fill="#F0F0F0"/>
<path d="M119.851 186.617H117.806V188.662H119.851V186.617Z" fill="#F0F0F0"/>
<path d="M119.851 190.037H117.806V192.082H119.851V190.037Z" fill="#F0F0F0"/>
<path d="M119.851 193.457H117.806V195.502H119.851V193.457Z" fill="#F0F0F0"/>
<path d="M119.851 196.884H117.806V198.929H119.851V196.884Z" fill="#F0F0F0"/>
<path d="M119.851 200.304H117.806V202.349H119.851V200.304Z" fill="#F0F0F0"/>
<path d="M119.851 203.731H117.806V205.776H119.851V203.731Z" fill="#F0F0F0"/>
<path d="M119.851 207.151H117.806V209.196H119.851V207.151Z" fill="#F0F0F0"/>
<path d="M119.851 210.571H117.806V212.616H119.851V210.571Z" fill="#F0F0F0"/>
<path d="M119.851 213.998H117.806V216.043H119.851V213.998Z" fill="#F0F0F0"/>
<path d="M119.851 220.846H117.806V222.89H119.851V220.846Z" fill="#F0F0F0"/>
<path d="M119.851 224.266H117.806V226.31H119.851V224.266Z" fill="#F0F0F0"/>
<path d="M119.851 227.686H117.806V229.73H119.851V227.686Z" fill="#F0F0F0"/>
<path d="M119.851 231.113H117.806V233.158H119.851V231.113Z" fill="#F0F0F0"/>
<path d="M119.851 237.96H117.806V240.005H119.851V237.96Z" fill="#F0F0F0"/>
<path d="M101.599 205.769H99.5544V207.814H101.599V205.769Z" fill="#F0F0F0"/>
<path d="M101.599 209.196H99.5544V211.241H101.599V209.196Z" fill="#F0F0F0"/>
<path d="M101.599 212.616H99.5544V214.661H101.599V212.616Z" fill="#F0F0F0"/>
<path d="M101.599 216.036H99.5544V218.081H101.599V216.036Z" fill="#F0F0F0"/>
<path d="M101.599 219.463H99.5544V221.508H101.599V219.463Z" fill="#F0F0F0"/>
<path d="M101.599 222.883H99.5544V224.928H101.599V222.883Z" fill="#F0F0F0"/>
<path d="M101.599 226.31H99.5544V228.355H101.599V226.31Z" fill="#F0F0F0"/>
<path d="M101.599 233.15H99.5544V235.195H101.599V233.15Z" fill="#F0F0F0"/>
<path d="M101.599 236.578H99.5544V238.622H101.599V236.578Z" fill="#F0F0F0"/>
<path d="M101.599 239.998H99.5544V242.042H101.599V239.998Z" fill="#F0F0F0"/>
<path d="M101.599 243.425H99.5544V245.47H101.599V243.425Z" fill="#F0F0F0"/>
<path d="M101.599 246.845H99.5544V248.89H101.599V246.845Z" fill="#F0F0F0"/>
<path d="M101.599 250.265H99.5544V252.31H101.599V250.265Z" fill="#F0F0F0"/>
<path d="M101.599 253.692H99.5544V255.737H101.599V253.692Z" fill="#F0F0F0"/>
<path d="M101.599 257.112H99.5544V259.157H101.599V257.112Z" fill="#F0F0F0"/>
<path d="M104.839 205.769H102.794V207.814H104.839V205.769Z" fill="#F0F0F0"/>
<path d="M104.839 209.196H102.794V211.241H104.839V209.196Z" fill="#F0F0F0"/>
<path d="M104.839 212.616H102.794V214.661H104.839V212.616Z" fill="#F0F0F0"/>
<path d="M104.839 216.036H102.794V218.081H104.839V216.036Z" fill="#F0F0F0"/>
<path d="M104.839 219.463H102.794V221.508H104.839V219.463Z" fill="#F0F0F0"/>
<path d="M104.839 222.883H102.794V224.928H104.839V222.883Z" fill="#F0F0F0"/>
<path d="M104.839 233.15H102.794V235.195H104.839V233.15Z" fill="#F0F0F0"/>
<path d="M104.839 236.578H102.794V238.622H104.839V236.578Z" fill="#F0F0F0"/>
<path d="M104.839 239.998H102.794V242.042H104.839V239.998Z" fill="#F0F0F0"/>
<path d="M104.839 243.425H102.794V245.47H104.839V243.425Z" fill="#F0F0F0"/>
<path d="M104.839 246.845H102.794V248.89H104.839V246.845Z" fill="#F0F0F0"/>
<path d="M104.839 250.265H102.794V252.31H104.839V250.265Z" fill="#F0F0F0"/>
<path d="M104.839 253.692H102.794V255.737H104.839V253.692Z" fill="#F0F0F0"/>
<path d="M104.839 257.112H102.794V259.157H104.839V257.112Z" fill="#F0F0F0"/>
<path d="M108.086 205.769H106.042V207.814H108.086V205.769Z" fill="#F0F0F0"/>
<path d="M108.086 209.196H106.042V211.241H108.086V209.196Z" fill="#F0F0F0"/>
<path d="M108.086 212.616H106.042V214.661H108.086V212.616Z" fill="#F0F0F0"/>
<path d="M108.086 216.036H106.042V218.081H108.086V216.036Z" fill="#F0F0F0"/>
<path d="M108.086 219.463H106.042V221.508H108.086V219.463Z" fill="#F0F0F0"/>
<path d="M108.086 222.883H106.042V224.928H108.086V222.883Z" fill="#F0F0F0"/>
<path d="M108.086 229.73H106.042V231.775H108.086V229.73Z" fill="#F0F0F0"/>
<path d="M108.086 233.15H106.042V235.195H108.086V233.15Z" fill="#F0F0F0"/>
<path d="M108.086 236.578H106.042V238.622H108.086V236.578Z" fill="#F0F0F0"/>
<path d="M108.086 239.998H106.042V242.042H108.086V239.998Z" fill="#F0F0F0"/>
<path d="M108.086 243.425H106.042V245.47H108.086V243.425Z" fill="#F0F0F0"/>
<path d="M108.086 246.845H106.042V248.89H108.086V246.845Z" fill="#F0F0F0"/>
<path d="M108.086 250.265H106.042V252.31H108.086V250.265Z" fill="#F0F0F0"/>
<path d="M108.086 253.692H106.042V255.737H108.086V253.692Z" fill="#F0F0F0"/>
<path d="M108.086 257.112H106.042V259.157H108.086V257.112Z" fill="#F0F0F0"/>
<path d="M176.422 186.617H174.377V188.662H176.422V186.617Z" fill="#F0F0F0"/>
<path d="M176.422 190.037H174.377V192.082H176.422V190.037Z" fill="#F0F0F0"/>
<path d="M176.422 193.457H174.377V195.502H176.422V193.457Z" fill="#F0F0F0"/>
<path d="M176.422 196.884H174.377V198.929H176.422V196.884Z" fill="#F0F0F0"/>
<path d="M176.422 200.304H174.377V202.349H176.422V200.304Z" fill="#F0F0F0"/>
<path d="M176.422 203.731H174.377V205.776H176.422V203.731Z" fill="#F0F0F0"/>
<path d="M176.422 207.151H174.377V209.196H176.422V207.151Z" fill="#F0F0F0"/>
<path d="M176.422 210.571H174.377V212.616H176.422V210.571Z" fill="#F0F0F0"/>
<path d="M176.422 213.998H174.377V216.043H176.422V213.998Z" fill="#F0F0F0"/>
<path d="M176.422 217.418H174.377V219.463H176.422V217.418Z" fill="#F0F0F0"/>
<path d="M176.422 220.846H174.377V222.89H176.422V220.846Z" fill="#F0F0F0"/>
<path d="M176.422 224.266H174.377V226.31H176.422V224.266Z" fill="#F0F0F0"/>
<path d="M176.422 227.686H174.377V229.73H176.422V227.686Z" fill="#F0F0F0"/>
<path d="M176.422 234.533H174.377V236.578H176.422V234.533Z" fill="#F0F0F0"/>
<path d="M176.422 237.96H174.377V240.005H176.422V237.96Z" fill="#F0F0F0"/>
<path d="M176.422 241.38H174.377V243.425H176.422V241.38Z" fill="#F0F0F0"/>
<path d="M176.422 244.8H174.377V246.845H176.422V244.8Z" fill="#F0F0F0"/>
<path d="M176.422 251.647H174.377V253.692H176.422V251.647Z" fill="#F0F0F0"/>
<path d="M176.422 255.074H174.377V257.119H176.422V255.074Z" fill="#F0F0F0"/>
<path d="M176.422 258.494H174.377V260.539H176.422V258.494Z" fill="#F0F0F0"/>
<path d="M179.661 186.617H177.617V188.662H179.661V186.617Z" fill="#F0F0F0"/>
<path d="M179.661 190.037H177.617V192.082H179.661V190.037Z" fill="#F0F0F0"/>
<path d="M179.661 193.457H177.617V195.502H179.661V193.457Z" fill="#F0F0F0"/>
<path d="M179.661 196.884H177.617V198.929H179.661V196.884Z" fill="#F0F0F0"/>
<path d="M179.661 200.304H177.617V202.349H179.661V200.304Z" fill="#F0F0F0"/>
<path d="M179.661 203.731H177.617V205.776H179.661V203.731Z" fill="#F0F0F0"/>
<path d="M179.661 207.151H177.617V209.196H179.661V207.151Z" fill="#F0F0F0"/>
<path d="M179.661 210.571H177.617V212.616H179.661V210.571Z" fill="#F0F0F0"/>
<path d="M179.661 213.998H177.617V216.043H179.661V213.998Z" fill="#F0F0F0"/>
<path d="M179.661 217.418H177.617V219.463H179.661V217.418Z" fill="#F0F0F0"/>
<path d="M179.661 220.846H177.617V222.89H179.661V220.846Z" fill="#F0F0F0"/>
<path d="M179.661 224.266H177.617V226.31H179.661V224.266Z" fill="#F0F0F0"/>
<path d="M179.661 227.686H177.617V229.73H179.661V227.686Z" fill="#F0F0F0"/>
<path d="M179.661 237.96H177.617V240.005H179.661V237.96Z" fill="#F0F0F0"/>
<path d="M179.661 241.38H177.617V243.425H179.661V241.38Z" fill="#F0F0F0"/>
<path d="M179.661 248.227H177.617V250.272H179.661V248.227Z" fill="#F0F0F0"/>
<path d="M179.661 251.647H177.617V253.692H179.661V251.647Z" fill="#F0F0F0"/>
<path d="M179.661 255.074H177.617V257.119H179.661V255.074Z" fill="#F0F0F0"/>
<path d="M179.661 258.494H177.617V260.539H179.661V258.494Z" fill="#F0F0F0"/>
<path d="M182.909 186.617H180.864V188.662H182.909V186.617Z" fill="#F0F0F0"/>
<path d="M182.909 190.037H180.864V192.082H182.909V190.037Z" fill="#F0F0F0"/>
<path d="M182.909 193.457H180.864V195.502H182.909V193.457Z" fill="#F0F0F0"/>
<path d="M182.909 196.884H180.864V198.929H182.909V196.884Z" fill="#F0F0F0"/>
<path d="M182.909 200.304H180.864V202.349H182.909V200.304Z" fill="#F0F0F0"/>
<path d="M182.909 203.731H180.864V205.776H182.909V203.731Z" fill="#F0F0F0"/>
<path d="M182.909 207.151H180.864V209.196H182.909V207.151Z" fill="#F0F0F0"/>
<path d="M182.909 210.571H180.864V212.616H182.909V210.571Z" fill="#F0F0F0"/>
<path d="M182.909 213.998H180.864V216.043H182.909V213.998Z" fill="#F0F0F0"/>
<path d="M182.909 217.418H180.864V219.463H182.909V217.418Z" fill="#F0F0F0"/>
<path d="M182.909 220.846H180.864V222.89H182.909V220.846Z" fill="#F0F0F0"/>
<path d="M182.909 224.266H180.864V226.31H182.909V224.266Z" fill="#F0F0F0"/>
<path d="M182.909 227.686H180.864V229.73H182.909V227.686Z" fill="#F0F0F0"/>
<path d="M182.909 231.113H180.864V233.158H182.909V231.113Z" fill="#F0F0F0"/>
<path d="M182.909 237.96H180.864V240.005H182.909V237.96Z" fill="#F0F0F0"/>
<path d="M182.909 244.8H180.864V246.845H182.909V244.8Z" fill="#F0F0F0"/>
<path d="M182.909 248.227H180.864V250.272H182.909V248.227Z" fill="#F0F0F0"/>
<path d="M182.909 251.647H180.864V253.692H182.909V251.647Z" fill="#F0F0F0"/>
<path d="M182.909 255.074H180.864V257.119H182.909V255.074Z" fill="#F0F0F0"/>
<path d="M182.909 258.494H180.864V260.539H182.909V258.494Z" fill="#F0F0F0"/>
<path d="M163.21 206.129H161.165V208.174H163.21V206.129Z" fill="#F0F0F0"/>
<path d="M163.21 209.556H161.165V211.601H163.21V209.556Z" fill="#F0F0F0"/>
<path d="M163.21 212.976H161.165V215.021H163.21V212.976Z" fill="#F0F0F0"/>
<path d="M163.21 216.396H161.165V218.441H163.21V216.396Z" fill="#F0F0F0"/>
<path d="M163.21 219.823H161.165V221.868H163.21V219.823Z" fill="#F0F0F0"/>
<path d="M163.21 223.243H161.165V225.288H163.21V223.243Z" fill="#F0F0F0"/>
<path d="M163.21 233.518H161.165V235.562H163.21V233.518Z" fill="#F0F0F0"/>
<path d="M163.21 236.938H161.165V238.982H163.21V236.938Z" fill="#F0F0F0"/>
<path d="M163.21 240.358H161.165V242.402H163.21V240.358Z" fill="#F0F0F0"/>
<path d="M163.21 243.785H161.165V245.83H163.21V243.785Z" fill="#F0F0F0"/>
<path d="M163.21 247.205H161.165V249.25H163.21V247.205Z" fill="#F0F0F0"/>
<path d="M163.21 250.632H161.165V252.677H163.21V250.632Z" fill="#F0F0F0"/>
<path d="M163.21 254.052H161.165V256.097H163.21V254.052Z" fill="#F0F0F0"/>
<path d="M166.45 206.129H164.405V208.174H166.45V206.129Z" fill="#F0F0F0"/>
<path d="M166.45 209.556H164.405V211.601H166.45V209.556Z" fill="#F0F0F0"/>
<path d="M166.45 212.976H164.405V215.021H166.45V212.976Z" fill="#F0F0F0"/>
<path d="M166.45 216.396H164.405V218.441H166.45V216.396Z" fill="#F0F0F0"/>
<path d="M166.45 219.823H164.405V221.868H166.45V219.823Z" fill="#F0F0F0"/>
<path d="M166.45 223.243H164.405V225.288H166.45V223.243Z" fill="#F0F0F0"/>
<path d="M166.45 233.518H164.405V235.562H166.45V233.518Z" fill="#F0F0F0"/>
<path d="M166.45 236.938H164.405V238.982H166.45V236.938Z" fill="#F0F0F0"/>
<path d="M166.45 240.358H164.405V242.402H166.45V240.358Z" fill="#F0F0F0"/>
<path d="M166.45 243.785H164.405V245.83H166.45V243.785Z" fill="#F0F0F0"/>
<path d="M166.45 247.205H164.405V249.25H166.45V247.205Z" fill="#F0F0F0"/>
<path d="M166.45 250.632H164.405V252.677H166.45V250.632Z" fill="#F0F0F0"/>
<path d="M166.45 257.472H164.405V259.517H166.45V257.472Z" fill="#F0F0F0"/>
<path d="M274.183 191.059H272.138V193.104H274.183V191.059Z" fill="#F0F0F0"/>
<path d="M274.183 194.479H272.138V196.524H274.183V194.479Z" fill="#F0F0F0"/>
<path d="M274.183 197.906H272.138V199.951H274.183V197.906Z" fill="#F0F0F0"/>
<path d="M274.183 201.326H272.138V203.371H274.183V201.326Z" fill="#F0F0F0"/>
<path d="M274.183 204.746H272.138V206.791H274.183V204.746Z" fill="#F0F0F0"/>
<path d="M274.183 208.174H272.138V210.218H274.183V208.174Z" fill="#F0F0F0"/>
<path d="M274.183 211.594H272.138V213.638H274.183V211.594Z" fill="#F0F0F0"/>
<path d="M274.183 215.021H272.138V217.066H274.183V215.021Z" fill="#F0F0F0"/>
<path d="M274.183 218.441H272.138V220.486H274.183V218.441Z" fill="#F0F0F0"/>
<path d="M274.183 221.861H272.138V223.906H274.183V221.861Z" fill="#F0F0F0"/>
<path d="M274.183 225.288H272.138V227.333H274.183V225.288Z" fill="#F0F0F0"/>
<path d="M274.183 232.135H272.138V234.18H274.183V232.135Z" fill="#F0F0F0"/>
<path d="M274.183 235.555H272.138V237.6H274.183V235.555Z" fill="#F0F0F0"/>
<path d="M274.183 238.975H272.138V241.02H274.183V238.975Z" fill="#F0F0F0"/>
<path d="M274.183 242.402H272.138V244.447H274.183V242.402Z" fill="#F0F0F0"/>
<path d="M274.183 245.822H272.138V247.867H274.183V245.822Z" fill="#F0F0F0"/>
<path d="M274.183 249.25H272.138V251.294H274.183V249.25Z" fill="#F0F0F0"/>
<path d="M274.183 252.67H272.138V254.714H274.183V252.67Z" fill="#F0F0F0"/>
<path d="M274.183 256.097H272.138V258.142H274.183V256.097Z" fill="#F0F0F0"/>
<path d="M277.431 191.059H275.386V193.104H277.431V191.059Z" fill="#F0F0F0"/>
<path d="M277.431 194.479H275.386V196.524H277.431V194.479Z" fill="#F0F0F0"/>
<path d="M277.431 197.906H275.386V199.951H277.431V197.906Z" fill="#F0F0F0"/>
<path d="M277.431 201.326H275.386V203.371H277.431V201.326Z" fill="#F0F0F0"/>
<path d="M277.431 204.746H275.386V206.791H277.431V204.746Z" fill="#F0F0F0"/>
<path d="M277.431 208.174H275.386V210.218H277.431V208.174Z" fill="#F0F0F0"/>
<path d="M277.431 211.594H275.386V213.638H277.431V211.594Z" fill="#F0F0F0"/>
<path d="M277.431 215.021H275.386V217.066H277.431V215.021Z" fill="#F0F0F0"/>
<path d="M277.431 218.441H275.386V220.486H277.431V218.441Z" fill="#F0F0F0"/>
<path d="M277.431 221.861H275.386V223.906H277.431V221.861Z" fill="#F0F0F0"/>
<path d="M277.431 225.288H275.386V227.333H277.431V225.288Z" fill="#F0F0F0"/>
<path d="M277.431 228.708H275.386V230.753H277.431V228.708Z" fill="#F0F0F0"/>
<path d="M277.431 232.135H275.386V234.18H277.431V232.135Z" fill="#F0F0F0"/>
<path d="M277.431 235.555H275.386V237.6H277.431V235.555Z" fill="#F0F0F0"/>
<path d="M277.431 238.975H275.386V241.02H277.431V238.975Z" fill="#F0F0F0"/>
<path d="M277.431 242.402H275.386V244.447H277.431V242.402Z" fill="#F0F0F0"/>
<path d="M277.431 245.822H275.386V247.867H277.431V245.822Z" fill="#F0F0F0"/>
<path d="M277.431 249.25H275.386V251.294H277.431V249.25Z" fill="#F0F0F0"/>
<path d="M277.431 252.67H275.386V254.714H277.431V252.67Z" fill="#F0F0F0"/>
<path d="M277.431 256.097H275.386V258.142H277.431V256.097Z" fill="#F0F0F0"/>
<path d="M258.213 204.386H256.169V206.431H258.213V204.386Z" fill="#F0F0F0"/>
<path d="M258.213 207.814H256.169V209.858H258.213V207.814Z" fill="#F0F0F0"/>
<path d="M258.213 211.234H256.169V213.278H258.213V211.234Z" fill="#F0F0F0"/>
<path d="M258.213 214.661H256.169V216.706H258.213V214.661Z" fill="#F0F0F0"/>
<path d="M258.213 218.081H256.169V220.126H258.213V218.081Z" fill="#F0F0F0"/>
<path d="M258.213 221.501H256.169V223.546H258.213V221.501Z" fill="#F0F0F0"/>
<path d="M258.213 224.928H256.169V226.973H258.213V224.928Z" fill="#F0F0F0"/>
<path d="M258.213 228.348H256.169V230.393H258.213V228.348Z" fill="#F0F0F0"/>
<path d="M258.213 231.775H256.169V233.82H258.213V231.775Z" fill="#F0F0F0"/>
<path d="M258.213 235.195H256.169V237.24H258.213V235.195Z" fill="#F0F0F0"/>
<path d="M261.453 204.386H259.409V206.431H261.453V204.386Z" fill="#F0F0F0"/>
<path d="M261.453 207.814H259.409V209.858H261.453V207.814Z" fill="#F0F0F0"/>
<path d="M261.453 211.234H259.409V213.278H261.453V211.234Z" fill="#F0F0F0"/>
<path d="M261.453 214.661H259.409V216.706H261.453V214.661Z" fill="#F0F0F0"/>
<path d="M261.453 218.081H259.409V220.126H261.453V218.081Z" fill="#F0F0F0"/>
<path d="M261.453 221.501H259.409V223.546H261.453V221.501Z" fill="#F0F0F0"/>
<path d="M261.453 224.928H259.409V226.973H261.453V224.928Z" fill="#F0F0F0"/>
<path d="M261.453 228.348H259.409V230.393H261.453V228.348Z" fill="#F0F0F0"/>
<path d="M261.453 231.775H259.409V233.82H261.453V231.775Z" fill="#F0F0F0"/>
<path d="M98.1791 119.693C98.1795 118.702 97.9482 117.725 97.5036 116.84C97.0591 115.955 96.4136 115.186 95.6188 114.595C94.824 114.004 93.902 113.607 92.9263 113.435C91.9507 113.264 90.9485 113.324 89.9999 113.609C90.0954 112.965 90.1436 112.315 90.1439 111.665C90.1439 109.69 89.7086 107.739 88.869 105.951C88.0295 104.163 86.8063 102.582 85.2864 101.321C83.7665 100.06 81.9874 99.1487 80.0755 98.653C78.1636 98.1572 76.166 98.0889 74.2247 98.4528C72.8979 96.2781 70.9002 94.5934 68.5327 93.6528C66.1653 92.7121 63.5562 92.5663 61.0986 93.2373C58.6411 93.9084 56.4681 95.3599 54.9073 97.3733C53.3464 99.3867 52.4822 101.853 52.4447 104.4H52.2431C49.3711 104.4 46.6168 105.541 44.586 107.572C42.5552 109.602 41.4143 112.357 41.4143 115.229C41.4143 118.101 42.5552 120.855 44.586 122.886C46.6168 124.917 49.3711 126.058 52.2431 126.058H92.0087C93.6646 126.012 95.2372 125.321 96.3903 124.132C97.5433 122.943 98.1854 121.349 98.1791 119.693Z" fill="#F0F0F0"/>
<path d="M265.68 105.725C265.68 104.65 266.107 103.619 266.867 102.858C267.627 102.098 268.658 101.671 269.734 101.671C270.126 101.673 270.517 101.731 270.893 101.844C270.835 101.431 270.806 101.015 270.806 100.598C270.806 98.3272 271.707 96.1486 273.31 94.5399C274.913 92.9312 277.089 92.0236 279.36 92.016C279.889 92.0186 280.417 92.0692 280.937 92.1672C281.783 90.7774 283.057 89.7001 284.569 89.0979C286.08 88.4958 287.747 88.4012 289.316 88.8286C290.886 89.2561 292.275 90.1822 293.272 91.4675C294.27 92.7528 294.823 94.3276 294.847 95.9544H294.977C296.81 95.9544 298.568 96.6826 299.864 97.9789C301.161 99.2751 301.889 101.033 301.889 102.866C301.889 104.7 301.161 106.458 299.864 107.754C298.568 109.05 296.81 109.778 294.977 109.778H269.618C268.562 109.752 267.558 109.313 266.822 108.555C266.086 107.797 265.676 106.781 265.68 105.725Z" fill="#F0F0F0"/>
<path d="M184.954 61.992C184.956 61.3338 185.218 60.7031 185.683 60.2377C186.149 59.7722 186.779 59.5099 187.438 59.508C187.682 59.5062 187.925 59.5427 188.158 59.616C188.12 59.3633 188.101 59.1083 188.1 58.8528C188.1 58.162 188.236 57.4779 188.501 56.8398C188.765 56.2016 189.153 55.6219 189.642 55.1337C190.131 54.6456 190.711 54.2585 191.35 53.9948C191.988 53.7311 192.672 53.5959 193.363 53.5968C193.687 53.5963 194.01 53.6253 194.328 53.6832C194.848 52.8333 195.63 52.1752 196.556 51.8077C197.482 51.4403 198.502 51.3834 199.464 51.6456C200.425 51.9078 201.275 52.475 201.886 53.2618C202.497 54.0486 202.837 55.0126 202.853 56.0088H202.925C203.496 55.9853 204.066 56.0774 204.601 56.2797C205.135 56.4821 205.623 56.7904 206.036 57.1862C206.448 57.582 206.776 58.057 207.001 58.5829C207.225 59.1087 207.34 59.6744 207.34 60.246C207.34 60.8176 207.225 61.3834 207.001 61.9092C206.776 62.435 206.448 62.9101 206.036 63.3059C205.623 63.7016 205.135 64.01 204.601 64.2123C204.066 64.4146 203.496 64.5068 202.925 64.4832H187.373C186.723 64.4681 186.106 64.1985 185.654 63.7326C185.201 63.2666 184.95 62.6415 184.954 61.992Z" fill="#F0F0F0"/>
<path d="M180 307.843C257.099 307.843 319.601 304.194 319.601 299.693C319.601 295.191 257.099 291.542 180 291.542C102.901 291.542 40.3992 295.191 40.3992 299.693C40.3992 304.194 102.901 307.843 180 307.843Z" fill="#F5F5F5"/>
<path d="M304.56 264.067C304.56 264.067 307.937 252.742 301.097 250.481C294.257 248.22 290.16 242.928 290.412 236.938C290.664 230.947 283.435 225.115 278.035 230.731C272.635 236.347 273.355 226.411 266.155 223.999C258.955 221.587 252.857 227.441 254.83 232.79C256.803 238.14 249.696 241.488 241.2 236.938C232.704 232.387 223.33 240.667 225.13 247.147C226.93 253.627 225.461 254.347 220.09 252.187C214.719 250.027 205.078 256.147 208.455 264.067C211.831 271.987 304.56 264.067 304.56 264.067Z" fill="#15803D"/>
<path opacity="0.3" d="M304.56 264.067C304.56 264.067 307.937 252.742 301.097 250.481C294.257 248.22 290.16 242.928 290.412 236.938C290.664 230.947 283.435 225.115 278.035 230.731C272.635 236.347 273.355 226.411 266.155 223.999C258.955 221.587 252.857 227.441 254.83 232.79C256.803 238.14 249.696 241.488 241.2 236.938C232.704 232.387 223.33 240.667 225.13 247.147C226.93 253.627 225.461 254.347 220.09 252.187C214.719 250.027 205.078 256.147 208.455 264.067C211.831 271.987 304.56 264.067 304.56 264.067Z" fill="white"/>
<path d="M123.595 265.147C127.195 261.547 123.955 255.427 120.355 254.707C116.755 253.987 113.155 247.651 112.968 243.619C112.781 239.587 106.315 227.182 96.2352 234.842C86.1552 242.503 89.2224 235.973 81.9288 233.82C74.6352 231.667 70.0416 237.859 73.2384 242.503C73.2384 242.503 65.916 240.667 62.8992 247.507C59.8824 254.347 62.8992 258.595 62.8992 258.595C62.8992 258.595 49.1184 258.185 50.3568 266.71C51.5952 275.234 123.595 265.147 123.595 265.147Z" fill="#15803D"/>
<path opacity="0.3" d="M123.595 265.147C127.195 261.547 123.955 255.427 120.355 254.707C116.755 253.987 113.155 247.651 112.968 243.619C112.781 239.587 106.315 227.182 96.2352 234.842C86.1552 242.503 89.2224 235.973 81.9288 233.82C74.6352 231.667 70.0416 237.859 73.2384 242.503C73.2384 242.503 65.916 240.667 62.8992 247.507C59.8824 254.347 62.8992 258.595 62.8992 258.595C62.8992 258.595 49.1184 258.185 50.3568 266.71C51.5952 275.234 123.595 265.147 123.595 265.147Z" fill="white"/>
<path d="M316.915 265.363V275.227H38.9953V265.363C38.9739 264.969 39.0322 264.575 39.1666 264.204C39.3011 263.833 39.5089 263.492 39.7777 263.204C40.0465 262.915 40.3708 262.683 40.7312 262.522C41.0916 262.361 41.4807 262.274 41.8753 262.267H314.006C314.404 262.271 314.796 262.354 315.16 262.513C315.523 262.673 315.851 262.904 316.123 263.193C316.395 263.483 316.605 263.824 316.741 264.197C316.878 264.57 316.937 264.967 316.915 265.363Z" fill="#263238"/>
<path d="M72.1152 262.267H54.8352V275.227H72.1152V262.267Z" fill="#15803D"/>
<path d="M104.515 262.267H87.9553V275.227H104.515V262.267Z" fill="#15803D"/>
<path d="M137.635 262.267H120.355V275.227H137.635V262.267Z" fill="#15803D"/>
<path d="M170.035 262.267H153.475V275.227H170.035V262.267Z" fill="#15803D"/>
<path d="M202.435 262.267H185.875V275.227H202.435V262.267Z" fill="#15803D"/>
<path d="M235.555 262.267H218.275V275.227H235.555V262.267Z" fill="#15803D"/>
<path d="M267.955 262.267H251.395V275.227H267.955V262.267Z" fill="#15803D"/>
<path d="M301.075 262.267H283.795V275.227H301.075V262.267Z" fill="#15803D"/>
<g opacity="0.6">
<path d="M72.1152 262.267H54.8352V275.227H72.1152V262.267Z" fill="white"/>
<path d="M104.515 262.267H87.9553V275.227H104.515V262.267Z" fill="white"/>
<path d="M137.635 262.267H120.355V275.227H137.635V262.267Z" fill="white"/>
<path d="M170.035 262.267H153.475V275.227H170.035V262.267Z" fill="white"/>
<path d="M202.435 262.267H185.875V275.227H202.435V262.267Z" fill="white"/>
<path d="M235.555 262.267H218.275V275.227H235.555V262.267Z" fill="white"/>
<path d="M267.955 262.267H251.395V275.227H267.955V262.267Z" fill="white"/>
<path d="M301.075 262.267H283.795V275.227H301.075V262.267Z" fill="white"/>
</g>
<path opacity="0.1" d="M316.915 265.363V275.227H38.9953V265.363C38.9739 264.969 39.0322 264.575 39.1666 264.204C39.3011 263.833 39.5089 263.492 39.7777 263.204C40.0465 262.915 40.3708 262.683 40.7312 262.522C41.0916 262.361 41.4807 262.274 41.8753 262.267H314.006C314.404 262.271 314.796 262.354 315.16 262.513C315.523 262.673 315.851 262.904 316.123 263.193C316.395 263.483 316.605 263.824 316.741 264.197C316.878 264.57 316.937 264.967 316.915 265.363Z" fill="white"/>
<path d="M142.841 258.919V109.123L192.974 103.082L215.006 107.28L222.206 108.648L237.665 111.593L247.968 109.562L255.168 108.144L289.08 101.47V251.266L255.168 257.947L247.968 259.366L237.665 261.396L192.974 252.886L190.066 253.238L181.39 254.282L142.841 258.919Z" fill="#15803D"/>
<path opacity="0.2" d="M142.841 258.919V109.123L192.974 103.082L215.006 107.28L222.206 108.648L237.665 111.593L247.968 109.562L255.168 108.144L289.08 101.47V251.266L255.168 257.947L247.968 259.366L237.665 261.396L192.974 252.886L190.066 253.238L181.39 254.282L142.841 258.919Z" fill="black"/>
<path d="M247.968 185.371V174.24C247.969 173.978 247.911 173.72 247.8 173.483C247.689 173.246 247.526 173.037 247.325 172.871C247.123 172.704 246.887 172.584 246.633 172.52C246.38 172.455 246.115 172.448 245.858 172.498L142.841 192.305V184.968L183.715 177.12C183.956 177.073 184.184 176.977 184.386 176.838C184.587 176.699 184.758 176.52 184.887 176.312C185.016 176.103 185.101 175.871 185.136 175.628C185.171 175.386 185.155 175.139 185.09 174.902L177.235 146.326C177.118 145.895 176.842 145.525 176.462 145.289C176.083 145.054 175.628 144.972 175.19 145.058L142.841 151.294V143.95L180.367 136.714C180.806 136.631 181.26 136.716 181.638 136.952C182.017 137.188 182.293 137.558 182.412 137.988L192.24 173.801C192.359 174.231 192.635 174.601 193.014 174.837C193.393 175.073 193.846 175.158 194.285 175.075L213.566 171.36C213.972 171.283 214.338 171.067 214.601 170.748C214.863 170.43 215.007 170.03 215.006 169.618V127.555C215.007 127.142 214.863 126.743 214.601 126.424C214.338 126.106 213.972 125.89 213.566 125.813L190.368 121.536C190.17 121.504 189.968 121.504 189.77 121.536L142.841 128.88V121.622L189.85 114.228C190.047 114.192 190.25 114.192 190.447 114.228L212.911 118.361C213.167 118.408 213.43 118.399 213.682 118.333C213.934 118.268 214.168 118.148 214.368 117.981C214.568 117.815 214.729 117.607 214.839 117.371C214.949 117.136 215.007 116.879 215.006 116.618V107.28L222.206 108.648V167.551C222.207 167.813 222.266 168.072 222.378 168.309C222.49 168.546 222.652 168.756 222.854 168.923C223.056 169.09 223.293 169.21 223.547 169.275C223.801 169.341 224.066 169.349 224.323 169.301L246.528 165.024C246.934 164.948 247.301 164.732 247.564 164.414C247.827 164.095 247.97 163.695 247.968 163.282V109.562L255.168 108.122V161.194C255.169 161.456 255.227 161.714 255.339 161.951C255.451 162.188 255.614 162.397 255.816 162.563C256.018 162.73 256.255 162.849 256.509 162.914C256.763 162.978 257.028 162.986 257.285 162.936L272.254 160.056C272.659 159.979 273.025 159.763 273.288 159.444C273.551 159.126 273.694 158.726 273.694 158.314V121.594C273.693 121.182 273.837 120.783 274.1 120.466C274.363 120.149 274.729 119.934 275.134 119.858L289.102 116.978V124.33L282.334 125.726C281.929 125.805 281.564 126.022 281.301 126.339C281.038 126.657 280.894 127.056 280.894 127.469V156.269C280.893 156.53 280.95 156.789 281.062 157.026C281.173 157.262 281.335 157.472 281.537 157.638C281.739 157.805 281.975 157.925 282.228 157.989C282.482 158.054 282.746 158.061 283.003 158.011L289.08 156.845V164.16L256.608 170.402C256.203 170.482 255.838 170.7 255.575 171.02C255.312 171.339 255.169 171.739 255.168 172.152V222.379C255.169 222.637 255.225 222.892 255.334 223.126C255.444 223.36 255.602 223.568 255.8 223.734C255.997 223.901 256.228 224.022 256.477 224.09C256.726 224.159 256.987 224.172 257.242 224.129L289.08 218.88V226.152L256.68 231.538C256.263 231.602 255.882 231.813 255.605 232.132C255.328 232.451 255.173 232.858 255.168 233.28V257.933L247.968 259.373V196.279C247.969 196.021 247.913 195.765 247.804 195.53C247.695 195.296 247.537 195.088 247.339 194.921C247.141 194.754 246.91 194.633 246.66 194.565C246.411 194.498 246.149 194.485 245.894 194.53L219.19 199.13C218.92 199.177 218.665 199.285 218.444 199.446C218.223 199.608 218.042 199.817 217.915 200.059L190.08 253.238L181.404 254.282L192.046 233.957C192.197 233.666 192.264 233.339 192.241 233.011C192.218 232.684 192.104 232.37 191.914 232.103C191.723 231.837 191.462 231.628 191.16 231.5C190.858 231.372 190.527 231.33 190.202 231.379L142.855 238.579V231.307L196.927 223.078C197.204 223.035 197.466 222.928 197.694 222.766C197.922 222.603 198.108 222.389 198.238 222.142L213.206 193.565C213.332 193.324 213.512 193.115 213.732 192.956C213.952 192.796 214.206 192.689 214.474 192.643L246.514 187.121C246.922 187.045 247.292 186.829 247.557 186.509C247.823 186.189 247.968 185.787 247.968 185.371Z" fill="#15803D"/>
<path d="M237.65 257.76L193.68 249.35L193.133 249.242L192.571 249.314L189.691 249.667L181.051 250.711L146.441 254.88V112.32L192.845 106.733L214.33 110.822L221.53 112.19L236.988 115.135L237.708 115.265L238.392 115.135L248.695 113.105L255.895 111.665L285.48 105.84V248.306L254.47 254.419L247.27 255.859L237.65 257.76ZM237.65 261.425L247.954 259.394L255.154 257.954L289.08 251.28V101.52L255.168 108.194L247.968 109.634L237.665 111.6L222.206 108.655L215.006 107.287L192.96 103.082L142.826 109.123V258.919L181.375 254.282L190.08 253.238L192.96 252.886L237.65 261.396V261.425Z" fill="#263238"/>
<path opacity="0.1" d="M237.65 257.76L193.68 249.35L193.133 249.242L192.571 249.314L189.691 249.667L181.051 250.711L146.441 254.88V112.32L192.845 106.733L214.33 110.822L221.53 112.19L236.988 115.135L237.708 115.265L238.392 115.135L248.695 113.105L255.895 111.665L285.48 105.84V248.306L254.47 254.419L247.27 255.859L237.65 257.76ZM237.65 261.425L247.954 259.394L255.154 257.954L289.08 251.28V101.52L255.168 108.194L247.968 109.634L237.665 111.6L222.206 108.655L215.006 107.287L192.96 103.082L142.826 109.123V258.919L181.375 254.282L190.08 253.238L192.96 252.886L237.65 261.396V261.425Z" fill="white"/>
<path opacity="0.1" d="M237.665 261.396V111.593L192.974 103.082V252.886L237.665 261.396Z" fill="black"/>
<g opacity="0.5">
<path d="M271.023 163.548C271.213 163.531 271.403 163.59 271.551 163.713C271.698 163.836 271.79 164.012 271.807 164.203C271.825 164.394 271.765 164.584 271.642 164.731C271.519 164.878 271.343 164.971 271.152 164.988L252.288 168.372V189.9C252.291 190.072 252.232 190.238 252.122 190.37C252.013 190.502 251.86 190.591 251.691 190.62L216.411 196.704L199.023 229.68C198.98 229.766 198.92 229.843 198.848 229.905C198.775 229.968 198.691 230.016 198.599 230.045C198.508 230.075 198.412 230.086 198.316 230.078C198.221 230.069 198.128 230.042 198.043 229.998C197.958 229.953 197.882 229.892 197.821 229.818C197.76 229.743 197.715 229.658 197.688 229.566C197.66 229.474 197.651 229.377 197.662 229.282C197.672 229.187 197.701 229.094 197.748 229.01L215.323 195.682C215.374 195.584 215.447 195.5 215.536 195.435C215.624 195.37 215.726 195.326 215.835 195.307L250.848 189.259V167.76C250.845 167.59 250.903 167.424 251.011 167.292C251.119 167.16 251.271 167.071 251.439 167.04L270.879 163.548H271.023Z" fill="white"/>
<path d="M197.028 229.37C197.027 229.101 197.105 228.837 197.254 228.612C197.403 228.387 197.616 228.211 197.865 228.107C198.114 228.004 198.388 227.976 198.653 228.028C198.917 228.081 199.16 228.21 199.351 228.401C199.542 228.592 199.672 228.835 199.724 229.1C199.776 229.364 199.749 229.638 199.645 229.887C199.541 230.136 199.365 230.349 199.14 230.498C198.916 230.647 198.651 230.725 198.382 230.724C198.023 230.722 197.68 230.579 197.427 230.325C197.173 230.072 197.03 229.729 197.028 229.37Z" fill="white"/>
<path d="M269.669 164.268C269.668 163.998 269.746 163.734 269.895 163.509C270.044 163.284 270.257 163.109 270.506 163.005C270.755 162.901 271.029 162.874 271.293 162.926C271.558 162.978 271.801 163.108 271.992 163.299C272.183 163.489 272.312 163.732 272.365 163.997C272.417 164.262 272.389 164.536 272.286 164.785C272.182 165.034 272.006 165.246 271.781 165.395C271.556 165.544 271.292 165.623 271.023 165.622C270.664 165.622 270.319 165.479 270.065 165.225C269.812 164.971 269.669 164.627 269.669 164.268Z" fill="white"/>
</g>
<path d="M199.087 208.138C198.334 207.383 197.438 206.784 196.453 206.376C195.468 205.967 194.412 205.757 193.345 205.757C192.279 205.757 191.222 205.967 190.237 206.376C189.252 206.784 188.357 207.383 187.603 208.138C186.849 208.891 186.252 209.786 185.844 210.77C185.436 211.755 185.226 212.81 185.226 213.876C185.226 214.942 185.436 215.997 185.844 216.982C186.252 217.966 186.849 218.861 187.603 219.614L193.363 225.374L199.123 219.614C199.874 218.859 200.47 217.962 200.874 216.976C201.279 215.99 201.486 214.934 201.482 213.869C201.479 212.803 201.266 211.748 200.855 210.765C200.444 209.781 199.843 208.889 199.087 208.138ZM191.009 216.209C190.546 215.747 190.232 215.158 190.104 214.517C189.976 213.876 190.042 213.211 190.292 212.607C190.542 212.003 190.965 211.487 191.509 211.124C192.052 210.761 192.691 210.567 193.345 210.567C193.999 210.567 194.638 210.761 195.181 211.124C195.725 211.487 196.148 212.003 196.399 212.607C196.649 213.211 196.714 213.876 196.586 214.517C196.459 215.158 196.144 215.747 195.682 216.209C195.375 216.516 195.011 216.76 194.61 216.927C194.209 217.094 193.779 217.179 193.345 217.179C192.911 217.179 192.481 217.094 192.08 216.927C191.679 216.76 191.315 216.516 191.009 216.209Z" fill="white"/>
<path opacity="0.2" d="M199.087 208.138C198.328 207.376 197.424 206.774 196.428 206.366C195.433 205.958 194.367 205.753 193.291 205.762V210.578C193.737 210.558 194.182 210.627 194.6 210.783C195.018 210.94 195.399 211.179 195.722 211.487C196.045 211.795 196.301 212.165 196.477 212.575C196.652 212.985 196.743 213.426 196.743 213.872C196.743 214.318 196.652 214.76 196.477 215.17C196.301 215.58 196.045 215.95 195.722 216.258C195.399 216.566 195.018 216.805 194.6 216.961C194.182 217.117 193.737 217.187 193.291 217.166V225.302L193.342 225.353L199.102 219.593C200.615 218.07 201.464 216.009 201.461 213.862C201.458 211.715 200.605 209.657 199.087 208.138Z" fill="black"/>
<path d="M276.761 141.682C276.007 140.928 275.113 140.33 274.128 139.922C273.144 139.514 272.088 139.304 271.023 139.304C269.957 139.304 268.901 139.514 267.917 139.922C266.932 140.33 266.038 140.928 265.284 141.682C263.763 143.206 262.909 145.271 262.909 147.424C262.909 149.577 263.763 151.642 265.284 153.166L271.044 158.926L276.804 153.166C277.556 152.409 278.151 151.512 278.556 150.525C278.961 149.538 279.167 148.481 279.163 147.415C279.159 146.348 278.945 145.293 278.533 144.309C278.121 143.325 277.519 142.432 276.761 141.682ZM268.69 149.76C268.226 149.298 267.911 148.709 267.782 148.068C267.654 147.427 267.718 146.762 267.968 146.157C268.218 145.553 268.642 145.036 269.185 144.672C269.729 144.308 270.368 144.114 271.023 144.114C271.677 144.114 272.316 144.308 272.86 144.672C273.403 145.036 273.827 145.553 274.077 146.157C274.327 146.762 274.391 147.427 274.263 148.068C274.135 148.709 273.819 149.298 273.355 149.76C272.736 150.377 271.897 150.724 271.023 150.724C270.148 150.724 269.309 150.377 268.69 149.76Z" fill="white"/>
<path opacity="0.2" d="M276.761 141.682C276.004 140.926 275.106 140.328 274.117 139.921C273.129 139.515 272.07 139.308 271.001 139.313V144.13C271.446 144.109 271.891 144.179 272.309 144.335C272.727 144.491 273.109 144.73 273.431 145.038C273.754 145.346 274.011 145.716 274.186 146.126C274.362 146.536 274.452 146.978 274.452 147.424C274.452 147.87 274.362 148.311 274.186 148.721C274.011 149.131 273.754 149.501 273.431 149.809C273.109 150.117 272.727 150.356 272.309 150.513C271.891 150.669 271.446 150.738 271.001 150.718V158.854L271.051 158.904L276.811 153.144C278.322 151.616 279.166 149.551 279.156 147.402C279.147 145.254 278.285 143.196 276.761 141.682Z" fill="black"/>
<path d="M66.2617 284.393L70.2505 288.418L79.8913 279.526L75.9025 275.494L66.2617 284.393Z" fill="#EEC1BB"/>
<path d="M71.2801 288.511L66.4417 283.63C66.3615 283.55 66.2569 283.499 66.1446 283.486C66.0323 283.473 65.9188 283.498 65.8225 283.558L61.4593 286.308C61.2729 286.429 61.1419 286.619 61.0947 286.836C61.0475 287.053 61.088 287.28 61.2073 287.467C61.2417 287.518 61.2802 287.566 61.3225 287.611C62.9137 289.166 64.1521 290.218 66.1177 292.205C67.3273 293.429 70.8553 297.245 72.5257 298.93C74.1961 300.614 76.0825 299.189 75.5569 298.346C73.1593 294.574 71.7841 291.312 71.6905 289.44C71.6779 289.089 71.531 288.757 71.2801 288.511Z" fill="#263238"/>
<path opacity="0.2" d="M75.9024 275.501L79.884 279.526L74.9088 284.112L70.9272 280.087L75.9024 275.501Z" fill="black"/>
<path d="M70.985 289.339C70.9692 289.317 70.9607 289.291 70.9607 289.264C70.9607 289.236 70.9692 289.21 70.985 289.188C70.9996 289.166 71.021 289.15 71.0459 289.142C71.0707 289.135 71.0975 289.135 71.1218 289.145C71.3594 289.195 73.4402 289.706 73.649 290.376C73.6767 290.449 73.6819 290.528 73.6639 290.604C73.6459 290.68 73.6056 290.748 73.5482 290.801C73.4669 290.912 73.3572 291 73.2305 291.054C73.1039 291.108 72.965 291.128 72.8282 291.11C72.4479 291.04 72.1042 290.838 71.8562 290.542C71.5215 290.175 71.2292 289.771 70.985 289.339ZM71.3882 289.483C71.6935 290.11 72.2266 290.597 72.8786 290.844C72.9679 290.851 73.0576 290.836 73.1394 290.8C73.2212 290.763 73.2925 290.707 73.3466 290.635C73.4186 290.556 73.4258 290.484 73.397 290.462C73.3802 290.404 73.3478 290.352 73.3034 290.311C72.724 289.915 72.0738 289.634 71.3882 289.483Z" fill="#15803D"/>
<path d="M70.9345 289.332C70.931 289.309 70.9331 289.285 70.9406 289.262C70.9481 289.24 70.9608 289.219 70.9777 289.202C71.0353 289.152 72.2881 288.101 73.1377 288.194C73.2403 288.201 73.3403 288.229 73.4309 288.278C73.5216 288.326 73.6008 288.394 73.6633 288.475C73.7333 288.548 73.7763 288.643 73.7855 288.744C73.7947 288.844 73.7693 288.945 73.7137 289.03C73.3681 289.534 71.6905 289.606 71.0569 289.418L71.0065 289.368C70.9927 289.367 70.9791 289.364 70.9667 289.357C70.9544 289.351 70.9434 289.343 70.9345 289.332ZM73.1377 288.432C72.4957 288.503 71.8917 288.772 71.4097 289.202C72.1297 289.303 73.3105 289.152 73.5193 288.842C73.5193 288.842 73.5985 288.734 73.4761 288.612L73.4329 288.562C73.3541 288.483 73.2488 288.437 73.1377 288.432Z" fill="#15803D"/>
<path d="M131.494 140.551C131.494 140.551 140.487 154.951 142.193 156.758C143.899 158.566 155.153 139.73 156.031 137.218C156.91 134.705 168.163 134.633 168.934 134.957C169.704 135.281 169.186 140.717 167.026 141.833C164.866 142.949 157.443 142.661 157.443 142.661C157.443 142.661 150.905 163.721 143.215 164.794C135.526 165.866 127.145 146.83 127.145 146.83L131.494 140.551Z" fill="#EEC1BB"/>
<path d="M124.899 133.394C130.543 134.402 137.945 149.645 137.945 149.645L131.422 158.184L123.307 150.48L124.899 133.394Z" fill="#15803D"/>
<path opacity="0.4" d="M137.945 149.645L131.422 158.184L131.206 157.975L123.286 150.494L123.386 149.4L124.877 133.394C130.543 134.402 137.945 149.645 137.945 149.645Z" fill="white"/>
<path opacity="0.2" d="M131.206 157.975L123.286 150.494L123.386 149.4L126.13 143.849C126.13 143.849 131.17 148.73 131.206 157.975Z" fill="black"/>
<path d="M123.307 183.226C123.307 183.226 109.951 233.1 100.8 252.72C91.6488 272.34 78.7608 282.629 78.7608 282.629L72.792 275.27C72.792 275.27 89.568 251.41 93.204 236.686C96.84 221.962 98.0568 191.52 98.0568 191.52L123.307 183.226Z" fill="#263238"/>
<path opacity="0.2" d="M123.307 183.226C123.307 183.226 109.951 233.1 100.8 252.72C91.6488 272.34 78.7608 282.629 78.7608 282.629L72.792 275.27C72.792 275.27 89.568 251.41 93.204 236.686C96.84 221.962 98.0568 191.52 98.0568 191.52L123.307 183.226Z" fill="black"/>
<path d="M127.246 295.466L132.617 293.674L128.909 281.088L123.531 282.881L127.246 295.466Z" fill="#EEC1BB"/>
<path d="M133.15 292.802L126.627 294.962C126.521 295 126.43 295.073 126.37 295.168C126.31 295.263 126.284 295.376 126.295 295.488L126.835 300.622C126.864 300.838 126.977 301.035 127.149 301.17C127.321 301.304 127.54 301.366 127.757 301.342C127.818 301.334 127.879 301.32 127.937 301.298C130.032 300.578 131.537 299.916 134.179 299.03C135.814 298.49 140.789 297.014 143.043 296.266C145.296 295.517 144.85 293.184 143.863 293.292C139.421 293.767 135.886 293.558 134.165 292.81C133.84 292.678 133.477 292.675 133.15 292.802Z" fill="#263238"/>
<path opacity="0.2" d="M123.538 282.888L128.909 281.095L130.817 287.582L125.446 289.375L123.538 282.888Z" fill="black"/>
<path d="M133.769 293.422C133.742 293.425 133.714 293.419 133.69 293.405C133.667 293.39 133.649 293.368 133.639 293.342C133.623 293.322 133.614 293.297 133.614 293.27C133.614 293.244 133.623 293.219 133.639 293.198C133.783 293.011 135.166 291.37 135.864 291.478C135.941 291.487 136.014 291.519 136.074 291.569C136.134 291.619 136.179 291.684 136.202 291.758C136.26 291.882 136.286 292.017 136.278 292.153C136.27 292.288 136.23 292.42 136.159 292.536C135.928 292.842 135.597 293.059 135.223 293.148C134.75 293.291 134.262 293.383 133.769 293.422ZM134.078 293.119C134.774 293.128 135.446 292.87 135.958 292.399C136 292.321 136.022 292.233 136.022 292.144C136.022 292.054 136 291.967 135.958 291.888C135.914 291.787 135.857 291.751 135.821 291.766C135.765 291.745 135.704 291.745 135.648 291.766C135.044 292.113 134.511 292.573 134.078 293.119Z" fill="#15803D"/>
<path d="M133.747 293.458C133.723 293.454 133.701 293.443 133.683 293.426C133.665 293.41 133.652 293.388 133.647 293.364C133.647 293.285 133.243 291.701 133.69 290.988C133.742 290.899 133.812 290.821 133.897 290.762C133.981 290.702 134.078 290.661 134.179 290.642C134.276 290.61 134.38 290.612 134.475 290.649C134.57 290.686 134.649 290.755 134.698 290.844C135 291.37 134.323 292.91 133.87 293.4H133.805C133.793 293.426 133.773 293.446 133.747 293.458ZM133.906 291.082C133.692 291.691 133.667 292.351 133.834 292.975C134.244 292.378 134.633 291.254 134.446 290.923C134.446 290.923 134.381 290.801 134.223 290.858H134.158C134.054 290.902 133.97 290.981 133.92 291.082H133.906Z" fill="#15803D"/>
<path d="M93.2112 179.95C91.1475 189.317 91.3475 199.042 93.7944 208.318C96.8976 219.463 123.401 286.913 123.401 286.913L132.617 284.263L113.126 204.012C113.126 204.012 120.413 193.694 123.307 183.226L93.2112 179.95Z" fill="#263238"/>
<path d="M134.122 285.336L122.537 289.202L119.65 285.228L133.33 281.498L134.122 285.336Z" fill="#15803D"/>
<path opacity="0.3" d="M134.122 285.336L122.537 289.202L119.65 285.228L133.33 281.498L134.122 285.336Z" fill="white"/>
<path d="M78.3865 286.078L69.7969 277.402L72.0793 273.053L81.4753 283.666L78.3865 286.078Z" fill="#15803D"/>
<path opacity="0.3" d="M78.3865 286.078L69.7969 277.402L72.0793 273.053L81.4753 283.666L78.3865 286.078Z" fill="white"/>
<path d="M96.761 130.802C97.3165 137.111 97.4007 143.453 97.013 149.774C96.7682 154.188 96.3362 158.357 95.861 162.137C94.7522 170.978 90.2378 187.38 90.2378 187.38L113.501 193.5L115.611 183.226L117.771 193.5L122.4 190.656C129.6 167.81 129.787 144.763 128.88 138.139C128.736 137.049 128.282 136.022 127.572 135.181C126.863 134.34 125.928 133.72 124.877 133.394C123.819 133.063 122.587 132.674 121.277 132.386C120.766 132.293 120.269 132.156 119.751 132.055C115.514 131.341 111.24 130.875 106.949 130.658C106.143 130.608 105.315 130.586 104.508 130.572C101.924 130.514 99.3376 130.591 96.761 130.802Z" fill="#15803D"/>
<path opacity="0.4" d="M122.4 190.656L117.785 193.5L115.625 183.226L113.515 193.5L90.2522 187.38C90.2522 187.38 94.7666 170.978 95.8754 162.137C95.9906 161.237 96.0986 160.315 96.2066 159.372C96.545 156.355 96.8402 153.137 97.0274 149.774C97.1426 147.931 97.2146 146.081 97.2434 144.238C97.3252 139.754 97.169 135.269 96.7754 130.802C99.3616 130.59 101.957 130.513 104.551 130.572C105.358 130.572 106.186 130.608 106.992 130.658C111.283 130.875 115.557 131.341 119.794 132.055C120.312 132.156 120.809 132.293 121.32 132.386C122.623 132.703 123.855 133.063 124.92 133.394C125.971 133.72 126.906 134.34 127.616 135.181C128.325 136.022 128.779 137.049 128.923 138.139C129.78 144.763 129.6 167.81 122.4 190.656Z" fill="white"/>
<path d="M109.815 116.345C110.175 120.557 110.16 128.189 106.978 130.622C108.103 132.082 109.527 133.283 111.155 134.145C112.784 135.007 114.578 135.509 116.417 135.619C119.967 135.929 120.42 133.459 119.779 132.019C115.301 130.421 115.791 127.03 116.943 123.912L109.815 116.345Z" fill="#EEC1BB"/>
<path opacity="0.2" d="M112.723 119.441L116.935 123.905C116.661 124.63 116.446 125.376 116.295 126.137C114.567 125.698 112.378 123.509 112.385 121.651C112.356 120.9 112.471 120.149 112.723 119.441Z" fill="black"/>
<path d="M109.995 110.102C109.721 115.711 109.275 118.98 111.802 122.134C115.575 126.9 122.731 125.093 124.683 119.671C126.425 114.79 126.562 106.43 121.342 103.622C120.192 102.993 118.901 102.669 117.59 102.68C116.28 102.692 114.994 103.039 113.856 103.689C112.718 104.339 111.765 105.27 111.089 106.393C110.413 107.515 110.036 108.793 109.995 110.102Z" fill="#EEC1BB"/>
<path d="M118.282 112.579C118.202 113.026 118.433 113.429 118.735 113.458C119.038 113.486 119.311 113.148 119.362 112.694C119.412 112.241 119.21 111.845 118.915 111.816C118.62 111.787 118.339 112.126 118.282 112.579Z" fill="#263238"/>
<path d="M123.415 113.141C123.336 113.587 123.574 113.983 123.862 114.019C124.15 114.055 124.438 113.702 124.495 113.249C124.553 112.795 124.337 112.406 124.042 112.37C123.747 112.334 123.466 112.709 123.415 113.141Z" fill="#263238"/>
<path d="M121.759 113.184C122.15 114.631 122.738 116.017 123.509 117.302C123.173 117.491 122.8 117.605 122.416 117.634C122.031 117.664 121.645 117.61 121.284 117.475L121.759 113.184Z" fill="#D4827D"/>
<path d="M116.871 110.75C116.919 110.761 116.97 110.76 117.018 110.746C117.065 110.732 117.109 110.706 117.144 110.671C117.367 110.419 117.646 110.223 117.959 110.098C118.271 109.973 118.609 109.923 118.944 109.951C118.979 109.957 119.014 109.957 119.048 109.949C119.083 109.942 119.115 109.928 119.144 109.907C119.173 109.887 119.197 109.862 119.216 109.832C119.235 109.803 119.248 109.77 119.254 109.735C119.261 109.701 119.261 109.665 119.254 109.63C119.247 109.596 119.233 109.563 119.213 109.534C119.192 109.505 119.166 109.48 119.136 109.462C119.106 109.443 119.073 109.431 119.038 109.426C118.616 109.376 118.188 109.429 117.791 109.579C117.394 109.73 117.039 109.973 116.755 110.29C116.706 110.339 116.678 110.407 116.678 110.477C116.678 110.547 116.706 110.614 116.755 110.664L116.871 110.75Z" fill="#263238"/>
<path d="M118.937 119.311C118.289 119.183 117.681 118.899 117.166 118.486C116.651 118.072 116.243 117.54 115.978 116.935C115.968 116.9 115.971 116.862 115.987 116.829C116.003 116.796 116.03 116.77 116.064 116.755C116.081 116.748 116.099 116.744 116.117 116.744C116.135 116.744 116.152 116.747 116.169 116.754C116.186 116.76 116.201 116.77 116.214 116.783C116.227 116.796 116.237 116.811 116.244 116.827C116.506 117.376 116.891 117.856 117.37 118.231C117.848 118.605 118.407 118.864 119.002 118.987C119.02 118.99 119.037 118.996 119.053 119.005C119.068 119.015 119.082 119.027 119.093 119.042C119.104 119.057 119.111 119.074 119.115 119.091C119.12 119.109 119.12 119.128 119.117 119.146C119.114 119.164 119.108 119.181 119.099 119.197C119.089 119.212 119.077 119.226 119.062 119.237C119.047 119.247 119.031 119.255 119.013 119.259C118.995 119.263 118.977 119.264 118.959 119.261L118.937 119.311Z" fill="#263238"/>
<path d="M125.813 111.6C125.864 111.618 125.92 111.618 125.971 111.6C126.037 111.576 126.091 111.527 126.122 111.464C126.152 111.401 126.158 111.328 126.137 111.262C126.002 110.857 125.772 110.491 125.466 110.195C125.161 109.898 124.788 109.678 124.38 109.555C124.312 109.542 124.241 109.556 124.182 109.593C124.123 109.631 124.08 109.689 124.063 109.757C124.05 109.825 124.062 109.896 124.098 109.956C124.134 110.016 124.191 110.061 124.258 110.081C124.578 110.186 124.869 110.364 125.108 110.602C125.346 110.839 125.526 111.129 125.633 111.449C125.648 111.487 125.673 111.52 125.704 111.547C125.736 111.573 125.773 111.591 125.813 111.6Z" fill="#263238"/>
<path d="M110.945 114.847C110.945 114.847 114.494 110.261 113.587 106.034C115.523 105.782 117.485 106.24 119.11 107.323C119.147 106.67 119.106 106.015 118.987 105.372C118.987 105.372 124.027 105.725 126.483 108.922C126.453 107.057 125.813 105.254 124.661 103.788C125.405 103.655 126.171 103.745 126.864 104.047C126.864 104.047 122.839 99.8064 115.474 100.922C108.108 102.038 105.315 106.042 106.114 112.579C106.913 119.117 110.095 120.96 110.095 120.96C110.095 120.96 109.325 115.963 109.786 114.926C110.246 113.89 110.945 114.847 110.945 114.847Z" fill="#263238"/>
<path d="M106.812 115.978C107.433 117.246 108.531 118.216 109.865 118.678C111.636 119.275 112.623 117.706 112.219 115.985C111.838 114.451 110.477 112.248 108.619 112.385C106.762 112.522 106.071 114.408 106.812 115.978Z" fill="#EEC1BB"/>
<path d="M121.349 101.038C119.605 101.323 117.89 101.762 116.223 102.348C115.03 102.767 113.874 103.285 112.767 103.896C107.345 106.884 105.963 110.743 105.963 110.743C105.963 110.743 105.79 110.254 105.559 109.49C105.329 108.727 105.019 107.734 104.739 106.697C104.199 104.753 103.752 102.722 104.019 102.139C106.33 96.9336 113.659 95.472 114.646 95.76C115.243 95.94 117.526 97.7976 119.275 99.2592C120.161 99.9792 120.903 100.627 121.212 100.901L121.349 101.038Z" fill="#15803D"/>
<path opacity="0.6" d="M121.19 100.901C119.482 101.177 117.814 101.661 116.222 102.341C115.214 102.744 114.062 103.255 112.766 103.889C108.655 105.89 106.589 107.899 105.566 109.483C105.329 108.727 105.026 107.726 104.746 106.69C106.769 104.659 112.183 99.936 119.275 99.252C120.139 99.9864 120.881 100.627 121.19 100.901Z" fill="white"/>
<path d="M106.092 112.579C106.092 112.579 101.153 116.042 100.843 114.199C100.044 109.469 113.148 99.0792 125.935 99.324C136.44 99.5184 125.143 102.73 125.143 102.73C120.96 101.282 105.761 107.892 106.092 112.579Z" fill="#15803D"/>
<path opacity="0.3" d="M106.092 112.579C106.092 112.579 101.153 116.042 100.843 114.199C100.044 109.469 113.148 99.0792 125.935 99.324C136.44 99.5184 125.143 102.73 125.143 102.73C120.96 101.282 105.761 107.892 106.092 112.579Z" fill="black"/>
<path d="M107.611 127.85C107.611 127.85 110.088 130.428 115.97 133.2C115.97 133.2 117.367 132.127 117.547 128.88L121.306 132.415L120.47 138.341L117.972 135.583L116.676 152.806C116.676 152.806 117.49 141.286 114.66 136.138L112.766 139.061C112.766 139.061 105.926 136.692 103.925 130.579L107.611 127.85Z" fill="#15803D"/>
<path opacity="0.6" d="M121.306 132.386L120.47 138.312L117.972 135.554L116.676 152.777C116.676 152.777 117.49 141.257 114.66 136.109L112.766 139.032C112.766 139.032 105.926 136.663 103.925 130.55L107.611 127.85C107.611 127.85 110.088 130.428 115.97 133.2C116.129 133.07 117.367 131.94 117.533 128.88L121.306 132.386Z" fill="white"/>
<path opacity="0.2" d="M116.935 142.164C116.726 137.844 115.97 133.2 115.97 133.2C116.129 133.07 117.367 131.94 117.533 128.88C117.749 129.496 117.824 130.152 117.75 130.801C117.677 131.449 117.457 132.073 117.108 132.624L116.935 142.164Z" fill="black"/>
<path d="M85.6802 191.7C86.3005 192.838 86.6271 194.112 86.6306 195.408C86.7242 197.777 86.2418 202.421 85.6802 203.004C85.349 203.342 79.8122 201.787 79.2722 200.412C79.0274 199.786 79.9922 193.414 81.1226 191.7C82.253 189.986 85.6802 191.7 85.6802 191.7Z" fill="#EEC1BB"/>
<path opacity="0.2" d="M103.745 145.865C103.745 145.865 101.139 155.945 96.1921 159.372C96.5305 156.355 96.8257 153.137 97.0129 149.774C97.1281 147.931 97.2001 146.081 97.2289 144.238L103.745 145.865Z" fill="black"/>
<path d="M90.2378 143.849C90.2378 143.849 83.549 155.621 82.3178 159.61C81.0866 163.598 81.1082 191.7 81.1082 191.7H85.6802C85.6802 191.7 88.5602 163.786 90.2378 160.178C91.9154 156.571 98.057 148.255 98.057 148.255L90.2378 143.849Z" fill="#EEC1BB"/>
<path d="M97.9202 130.73C94.8602 130.241 86.645 148.183 86.645 148.183L95.285 153.605C95.285 153.605 100.93 148.349 103.731 145.865C106.531 143.381 102.888 131.53 97.9202 130.73Z" fill="#15803D"/>
<path opacity="0.4" d="M97.9202 130.73C94.8602 130.241 86.645 148.183 86.645 148.183L95.285 153.605C95.285 153.605 100.93 148.349 103.731 145.865C106.531 143.381 102.888 131.53 97.9202 130.73Z" fill="white"/>
<path d="M86.6305 146.938L96.7537 153.605L94.5073 155.621L85.5361 149.782L86.6305 146.938Z" fill="#15803D"/>
<path opacity="0.6" d="M86.6305 146.938L96.7537 153.605L94.5073 155.621L85.5361 149.782L86.6305 146.938Z" fill="white"/>
<path d="M129.722 157.572L137.455 148.241L139.219 150.689L132.437 158.969L129.722 157.572Z" fill="#15803D"/>
<path opacity="0.6" d="M129.722 157.572L137.455 148.241L139.219 150.689L132.437 158.969L129.722 157.572Z" fill="white"/>
<path d="M159.322 135.468L166.954 124.884C167.004 124.816 167.073 124.763 167.152 124.731C167.23 124.699 167.316 124.69 167.4 124.704L172.382 125.582C172.459 125.595 172.532 125.628 172.592 125.676C172.653 125.725 172.7 125.789 172.729 125.861C172.758 125.934 172.768 126.012 172.758 126.09C172.747 126.167 172.717 126.24 172.67 126.302L164.88 136.901C164.83 136.969 164.761 137.021 164.682 137.052C164.603 137.083 164.517 137.09 164.434 137.074L159.624 136.174C159.548 136.162 159.477 136.131 159.416 136.083C159.356 136.036 159.308 135.975 159.278 135.904C159.248 135.834 159.236 135.757 159.244 135.681C159.251 135.604 159.278 135.531 159.322 135.468Z" fill="#263238"/>
<path d="M158.775 135.166L166.407 124.582C166.456 124.512 166.524 124.458 166.603 124.426C166.683 124.394 166.769 124.386 166.853 124.402L171.835 125.273C171.912 125.286 171.984 125.318 172.045 125.367C172.106 125.416 172.153 125.479 172.182 125.552C172.211 125.624 172.221 125.703 172.21 125.78C172.2 125.857 172.17 125.93 172.123 125.993L164.319 136.606C164.268 136.673 164.199 136.725 164.12 136.756C164.041 136.786 163.955 136.794 163.872 136.778L159.063 135.878C158.987 135.865 158.916 135.832 158.856 135.784C158.796 135.736 158.75 135.673 158.721 135.602C158.692 135.53 158.682 135.453 158.692 135.377C158.701 135.3 158.729 135.228 158.775 135.166Z" fill="#263238"/>
<path d="M166.716 124.934L171.49 125.784L163.865 136.037L159.235 135.187L166.716 124.934Z" fill="white"/>
<path d="M186.948 84.78C186.949 81.0566 185.878 77.4116 183.861 74.2816C181.844 71.1517 178.968 68.6693 175.577 67.1319C172.186 65.5945 168.423 65.0672 164.74 65.6132C161.057 66.1591 157.609 67.7552 154.81 70.2102C152.01 72.6652 149.978 75.8751 148.956 79.4555C147.934 83.0359 147.965 86.8351 149.047 90.3979C150.129 93.9608 152.214 97.1364 155.054 99.5444C157.894 101.952 161.368 103.491 165.06 103.975L165.996 114.149L167.782 104.141C172.882 104.088 177.756 102.025 181.344 98.3998C184.933 94.7749 186.946 89.8807 186.948 84.78Z" fill="#15803D"/>
<path opacity="0.8" d="M186.948 84.78C186.949 81.0566 185.878 77.4116 183.861 74.2816C181.844 71.1517 178.968 68.6693 175.577 67.1319C172.186 65.5945 168.423 65.0672 164.74 65.6132C161.057 66.1591 157.609 67.7552 154.81 70.2102C152.01 72.6652 149.978 75.8751 148.956 79.4555C147.934 83.0359 147.965 86.8351 149.047 90.3979C150.129 93.9608 152.214 97.1364 155.054 99.5444C157.894 101.952 161.368 103.491 165.06 103.975L165.996 114.149L167.782 104.141C172.882 104.088 177.756 102.025 181.344 98.3998C184.933 94.7749 186.946 89.8807 186.948 84.78Z" fill="white"/>
<path d="M177.026 84.78L158.134 76.8816L161.23 84.78L158.134 92.6712L177.026 84.78Z" fill="#15803D"/>
<path opacity="0.3" d="M161.23 84.78H177.026L158.134 92.6712L161.23 84.78Z" fill="black"/>
</svg>
