<svg width="521" height="421" viewBox="0 0 521 421" fill="none" xmlns="http://www.w3.org/2000/svg">
    <path d="M521 372.96H0V373.221H521V372.96Z" fill="#EBEBEB" />
    <path d="M468.796 389.726H434.285V389.987H468.796V389.726Z" fill="#EBEBEB" />
    <path d="M345.131 392.56H336.076V392.821H345.131V392.56Z" fill="#EBEBEB" />
    <path d="M433.243 380.056H413.247V380.317H433.243V380.056Z" fill="#EBEBEB" />
    <path d="M99.6671 381.807H54.6631V382.068H99.6671V381.807Z" fill="#EBEBEB" />
    <path d="M115.548 381.807H108.952V382.068H115.548V381.807Z" fill="#EBEBEB" />
    <path d="M234.606 386.204H136.991V386.465H234.606V386.204Z" fill="#EBEBEB" />
    <path
        d="M246.954 326.487H45.7543C44.1782 326.484 42.6675 325.856 41.5539 324.741C40.4404 323.625 39.8149 322.114 39.8149 320.537V37.7073C39.8287 36.1402 40.4601 34.6417 41.5722 33.5375C42.6843 32.4332 44.1871 31.8123 45.7543 31.8096H246.954C248.532 31.8096 250.046 32.4365 251.161 33.5523C252.277 34.6681 252.904 36.1814 252.904 37.7594V320.537C252.904 322.115 252.277 323.629 251.161 324.745C250.046 325.86 248.532 326.487 246.954 326.487ZM45.7543 32.018C44.2472 32.0208 42.8028 32.6214 41.7381 33.688C40.6734 34.7547 40.0754 36.2002 40.0754 37.7073V320.537C40.0754 322.044 40.6734 323.49 41.7381 324.557C42.8028 325.623 44.2472 326.224 45.7543 326.227H246.954C248.462 326.224 249.908 325.624 250.974 324.557C252.04 323.491 252.641 322.045 252.643 320.537V37.7073C252.641 36.1993 252.04 34.7538 250.974 33.6874C249.908 32.621 248.462 32.0208 246.954 32.018H45.7543Z"
        fill="#EBEBEB" />
    <path
        d="M472.349 326.487H271.139C269.562 326.484 268.05 325.857 266.935 324.741C265.82 323.626 265.192 322.115 265.189 320.537V37.7073C265.206 36.1392 265.84 34.6408 266.953 33.5368C268.067 32.4328 269.571 31.8123 271.139 31.8096H472.349C473.915 31.815 475.415 32.4371 476.525 33.5411C477.635 34.6451 478.265 36.142 478.278 37.7073V320.537C478.278 322.112 477.654 323.622 476.543 324.737C475.432 325.852 473.924 326.482 472.349 326.487ZM271.139 32.018C269.631 32.0208 268.186 32.621 267.119 33.6874C266.053 34.7538 265.453 36.1993 265.45 37.7073V320.537C265.453 322.045 266.053 323.491 267.119 324.557C268.186 325.624 269.631 326.224 271.139 326.227H472.349C473.858 326.224 475.303 325.624 476.369 324.557C477.436 323.491 478.036 322.045 478.039 320.537V37.7073C478.036 36.1993 477.436 34.7538 476.369 33.6874C475.303 32.621 473.858 32.0208 472.349 32.018H271.139Z"
        fill="#EBEBEB" />
    <path d="M415.039 75.3444H282.642V372.96H415.039V75.3444Z" fill="#F0F0F0" />
    <path d="M415.039 75.3444H285.435V372.96H415.039V75.3444Z" fill="#F5F5F5" />
    <path d="M407.13 366.208V82.0965H293.323V366.208H407.13Z" fill="#F0F0F0" />
    <path
        d="M304.514 134.968C304.51 130.892 305.309 126.855 306.865 123.088C308.421 119.321 310.704 115.897 313.584 113.013C316.464 110.128 319.883 107.839 323.648 106.277C327.412 104.714 331.448 103.908 335.524 103.906H364.908C368.988 103.901 373.028 104.702 376.798 106.262C380.568 107.822 383.993 110.11 386.878 112.995C389.762 115.88 392.049 119.306 393.607 123.077C395.166 126.847 395.965 130.888 395.96 134.968H304.514Z"
        fill="#FAFAFA" />
    <path d="M395.96 348.546V280.67H304.524V348.546H395.96Z" fill="#F5F5F5" />
    <path d="M304.514 271.918H344.85V154.078H304.514V271.918Z" fill="#F5F5F5" />
    <path d="M355.614 271.918H395.95V154.078H355.614V271.918Z" fill="#F5F5F5" />
    <path
        d="M381.372 212.461H397.888C398.568 212.461 399.22 212.191 399.701 211.71C400.181 211.23 400.451 210.578 400.451 209.898C400.449 209.219 400.178 208.568 399.698 208.088C399.217 207.608 398.567 207.337 397.888 207.334H381.372C380.693 207.334 380.041 207.605 379.56 208.085C379.079 208.566 378.809 209.218 378.809 209.898C378.809 210.578 379.079 211.23 379.56 211.71C380.041 212.191 380.693 212.461 381.372 212.461Z"
        fill="#E0E0E0" />
    <path d="M407.13 366.208V82.0965H405.078V366.208H407.13Z" fill="#F0F0F0" />
    <path d="M73.3462 257.33H199.314V79.033C199.314 64.8306 73.3462 64.8306 73.3462 79.033V257.33Z" fill="#E0E0E0" />
    <path d="M76.2437 257.33H202.201V79.033C202.201 64.8306 76.2332 64.8306 76.2437 79.033V257.33Z" fill="#EBEBEB" />
    <path
        d="M195.948 248.389V82.555C195.951 81.999 195.78 81.4559 195.461 81.0005C195.142 80.5452 194.69 80.2 194.166 80.0125C187.174 77.5013 168.116 74.6358 139.222 74.6358C110.327 74.6358 91.2896 77.5013 84.277 80.0125C83.7535 80.2 83.301 80.5452 82.9819 81.0005C82.6628 81.4559 82.4927 81.999 82.4951 82.555V248.389C82.4951 249.102 82.7784 249.786 83.2825 250.29C83.7867 250.794 84.4705 251.078 85.1835 251.078H193.26C193.973 251.078 194.657 250.794 195.161 250.29C195.665 249.786 195.948 249.102 195.948 248.389Z"
        fill="#FAFAFA" />
    <path d="M169.325 75.8341L188.967 251.078H160.28L140.482 74.6358C151.653 74.6671 161.302 75.136 169.325 75.8341Z"
        fill="white" />
    <path d="M132.23 74.6983L152.028 251.078H136.158L116.443 75.2922C121.247 75.0005 126.52 74.7921 132.23 74.6983Z"
        fill="white" />
    <path d="M120.466 253.401L120.466 71.9474H114.964L114.964 253.401H120.466Z" fill="#EBEBEB" />
    <path d="M164.771 253.401V71.9474H159.27V253.401H164.771Z" fill="#EBEBEB" />
    <path d="M159.27 253.391V71.937H158.28V253.391H159.27Z" fill="#E0E0E0" />
    <path d="M114.964 253.391L114.964 71.937H113.974L113.974 253.391H114.964Z" fill="#E0E0E0" />
    <path d="M80.4737 117.41L199.262 117.41V111.908L80.4737 111.908V117.41Z" fill="#EBEBEB" />
    <path d="M79.4315 261.737H207.941V255.662L79.4315 255.662V261.737Z" fill="#F5F5F5" />
    <path d="M79.4315 255.652H73.3462V261.727H79.4315V255.652Z" fill="#E0E0E0" />
    <path d="M434.535 52.9413L465.951 52.9413V44.0635H434.535V52.9413Z" fill="#F0F0F0" />
    <path d="M418.832 61.8192L450.248 61.8192V52.9414H418.832V61.8192Z" fill="#E6E6E6" />
    <path d="M213.599 183.556H245.016V174.678H213.599V183.556Z" fill="#F5F5F5" />
    <path d="M166.991 295.311H198.407V286.433H166.991V295.311Z" fill="#F5F5F5" />
    <path d="M465.951 296.363H434.535V305.241H465.951V296.363Z" fill="#E6E6E6" />
    <path d="M197.886 25.1512L229.303 25.1512V16.2734L197.886 16.2734V25.1512Z" fill="#F0F0F0" />
    <path d="M82.4846 349.234H113.901V340.356H82.4846V349.234Z" fill="#F5F5F5" />
    <path d="M57.6438 284.776H89.0601V275.898H57.6438V284.776Z" fill="#F5F5F5" />
    <path d="M98.2082 358.112H129.625V349.234H98.2082V358.112Z" fill="#F0F0F0" />
    <path d="M107.66 45.3452H76.2437V54.223H107.66V45.3452Z" fill="#F0F0F0" />
    <path
        d="M260.5 420.017C372.08 420.017 462.534 414.736 462.534 408.222C462.534 401.707 372.08 396.426 260.5 396.426C148.92 396.426 58.4668 401.707 58.4668 408.222C58.4668 414.736 148.92 420.017 260.5 420.017Z"
        fill="#F5F5F5" />
    <path
        d="M137.69 107.177C131.522 108.542 124.353 117.191 131.438 126.017C138.524 134.843 126.656 130.987 124.811 146.43C122.967 161.872 137.044 159.277 132.626 169.406C128.208 179.534 158.874 195.581 178.005 183.421C197.136 171.26 198.929 145.075 192.948 135.822C186.966 126.569 178.235 125.986 182.194 116.076C186.154 106.167 181.486 95.8613 169.138 95.7675C159.822 95.6946 165.408 89.1821 152.591 89.2342C141.9 89.2863 132.449 96.7887 137.69 107.177Z"
        fill="#263238" />
    <path
        d="M171.983 120.088C171.381 120.088 170.793 120.266 170.292 120.601C169.792 120.935 169.402 121.41 169.172 121.966C168.941 122.522 168.881 123.134 168.998 123.724C169.116 124.314 169.406 124.856 169.831 125.282C170.257 125.707 170.799 125.997 171.389 126.115C171.979 126.232 172.591 126.172 173.147 125.942C173.703 125.711 174.178 125.321 174.512 124.821C174.847 124.321 175.025 123.732 175.025 123.13C175.027 122.731 174.949 122.334 174.796 121.964C174.644 121.595 174.42 121.259 174.137 120.976C173.854 120.693 173.518 120.469 173.149 120.317C172.779 120.164 172.383 120.086 171.983 120.088ZM171.983 125.454C171.521 125.454 171.069 125.317 170.685 125.06C170.301 124.803 170.002 124.438 169.825 124.011C169.649 123.584 169.603 123.114 169.694 122.661C169.785 122.208 170.008 121.792 170.336 121.466C170.663 121.14 171.08 120.918 171.534 120.83C171.987 120.741 172.457 120.788 172.883 120.967C173.309 121.145 173.673 121.446 173.928 121.831C174.184 122.216 174.319 122.668 174.317 123.13C174.317 123.437 174.256 123.74 174.139 124.022C174.021 124.305 173.849 124.561 173.632 124.777C173.416 124.993 173.158 125.164 172.875 125.28C172.592 125.396 172.289 125.456 171.983 125.454Z"
        fill="white" />
    <path
        d="M197.636 149.733C197.602 149.728 197.57 149.716 197.54 149.698C197.511 149.68 197.486 149.656 197.466 149.627C197.447 149.599 197.433 149.567 197.427 149.533C197.42 149.499 197.42 149.464 197.428 149.431C198.366 144.575 194.583 139.875 190.582 134.843C185.903 129.039 180.61 122.453 182.475 114.607C184.07 107.917 183.361 102.332 180.475 98.8727C178.12 96.0489 174.441 94.7047 169.554 94.9965C165.074 95.2257 163.751 93.9545 162.344 92.7249C160.937 91.4953 159.072 89.7552 152.643 89.7969C152.576 89.7969 152.511 89.7709 152.462 89.7243C152.414 89.6777 152.385 89.6141 152.382 89.5468C152.382 89.4767 152.409 89.4093 152.458 89.3588C152.507 89.3083 152.573 89.2786 152.643 89.2759H152.862C159.343 89.2759 161.125 90.9014 162.698 92.3394C164.074 93.6002 165.272 94.6943 169.534 94.4755C174.587 94.215 178.411 95.58 180.881 98.5393C183.872 102.134 184.611 107.917 182.965 114.732C181.162 122.328 186.143 128.528 190.968 134.53C195.042 139.604 198.897 144.398 197.918 149.483C197.916 149.518 197.908 149.552 197.893 149.584C197.878 149.616 197.857 149.644 197.83 149.668C197.804 149.691 197.773 149.709 197.74 149.72C197.707 149.731 197.671 149.736 197.636 149.733Z"
        fill="#263238" />
    <path
        d="M222.134 129.82L220.737 132.55C220.475 133.056 220.338 133.617 220.338 134.186C220.338 134.756 220.475 135.317 220.737 135.822L223.207 140.615C223.694 141.561 224.4 142.376 225.267 142.992C226.133 143.608 227.135 144.008 228.188 144.158L229.501 144.346C232.147 139.98 231.783 133.311 231.783 133.311L231.887 131.404C231.921 131.012 231.877 130.617 231.757 130.243C231.638 129.868 231.445 129.521 231.19 129.221C230.935 128.922 230.623 128.676 230.272 128.498C229.921 128.32 229.539 128.213 229.146 128.184L225.364 127.924C224.7 127.895 224.042 128.059 223.469 128.395C222.896 128.732 222.432 129.226 222.134 129.82Z"
        fill="#FFC3BD" />
    <path
        d="M191.113 148.066C191.113 148.066 191.176 148.18 191.228 148.253L191.447 148.576L191.947 149.243C192.301 149.701 192.687 150.15 193.083 150.598C193.874 151.494 194.718 152.369 195.594 153.213C197.367 154.887 199.289 156.398 201.335 157.725C205.344 160.391 209.878 162.167 214.631 162.935L215.517 163.06L215.965 163.122C215.927 163.119 215.888 163.119 215.85 163.122C215.625 163.141 215.409 163.22 215.225 163.352C215.027 163.539 215.506 163.268 215.965 162.581C217.135 160.68 218.003 158.61 218.539 156.443C219.216 153.92 219.725 151.355 220.06 148.764C220.258 147.451 220.372 146.107 220.487 144.773C220.602 143.439 220.685 142.043 220.685 140.844L232.689 141.418C232.533 143.054 232.376 144.46 232.21 145.971C232.043 147.482 231.803 148.941 231.595 150.42C231.136 153.401 230.605 156.381 229.823 159.444C229.442 161.022 228.972 162.577 228.417 164.102C227.808 165.823 227.033 167.48 226.103 169.051C224.854 171.215 223.057 173.012 220.893 174.261C219.441 175.043 217.831 175.489 216.184 175.564C215.798 175.564 215.319 175.564 215.006 175.564H214.391L213.162 175.481C209.882 175.173 206.64 174.549 203.482 173.615C200.354 172.661 197.314 171.441 194.395 169.968C191.506 168.492 188.736 166.791 186.112 164.883C184.788 163.935 183.507 162.924 182.246 161.862C181.62 161.33 181.006 160.768 180.381 160.194L179.443 159.309L178.953 158.819C178.776 158.631 178.661 158.517 178.38 158.204L191.113 148.066Z"
        fill="#F97316" />
    <path opacity="0.5"
        d="M191.113 148.066C191.113 148.066 191.176 148.18 191.228 148.253L191.447 148.576L191.947 149.243C192.301 149.701 192.687 150.15 193.083 150.598C193.874 151.494 194.718 152.369 195.594 153.213C197.367 154.887 199.289 156.398 201.335 157.725C205.344 160.391 209.878 162.167 214.631 162.935L215.517 163.06L215.965 163.122C215.927 163.119 215.888 163.119 215.85 163.122C215.625 163.141 215.409 163.22 215.225 163.352C215.027 163.539 215.506 163.268 215.965 162.581C217.135 160.68 218.003 158.61 218.539 156.443C219.216 153.92 219.725 151.355 220.06 148.764C220.258 147.451 220.372 146.107 220.487 144.773C220.602 143.439 220.685 142.043 220.685 140.844L232.689 141.418C232.533 143.054 232.376 144.46 232.21 145.971C232.043 147.482 231.803 148.941 231.595 150.42C231.136 153.401 230.605 156.381 229.823 159.444C229.442 161.022 228.972 162.577 228.417 164.102C227.808 165.823 227.033 167.48 226.103 169.051C224.854 171.215 223.057 173.012 220.893 174.261C219.441 175.043 217.831 175.489 216.184 175.564C215.798 175.564 215.319 175.564 215.006 175.564H214.391L213.162 175.481C209.882 175.173 206.64 174.549 203.482 173.615C200.354 172.661 197.314 171.441 194.395 169.968C191.506 168.492 188.736 166.791 186.112 164.883C184.788 163.935 183.507 162.924 182.246 161.862C181.62 161.33 181.006 160.768 180.381 160.194L179.443 159.309L178.953 158.819C178.776 158.631 178.661 158.517 178.38 158.204L191.113 148.066Z"
        fill="white" />
    <path
        d="M166.105 399.906C164.584 396.51 165.636 382.192 165.845 379.869C163.208 378.483 154.143 380.181 154.143 380.181C154.143 380.181 156.675 395.217 155.185 399.906C158.655 401.845 166.105 399.906 166.105 399.906Z"
        fill="#FFC3BD" />
    <path
        d="M277.964 386.194C275.108 383.808 269.107 370.751 268.263 368.553C265.282 368.48 258.562 373.763 258.562 373.763C258.562 373.763 267.439 386.152 268.137 391.039C272.128 391.206 277.964 386.194 277.964 386.194Z"
        fill="#FFC3BD" />
    <path
        d="M175.379 408.211C167.762 408.211 166.46 408.097 162.177 407.951C158.509 407.815 157.634 408.274 154.685 408.211C152.226 408.159 152.32 405.804 153.07 403.085C153.341 402.126 153.716 401.001 154.112 399.646C154.259 399.132 154.57 398.681 154.997 398.359C155.423 398.038 155.943 397.864 156.477 397.864H164.813C165.192 397.87 165.564 397.96 165.902 398.127C166.241 398.295 166.539 398.536 166.772 398.833C168.794 401.344 173.16 403.178 176.974 403.689C181.1 404.241 178.422 408.211 175.379 408.211Z"
        fill="#F97316" />
    <path
        d="M293.01 392.019C284.81 395.728 280.506 393.842 276.39 394.78C272.858 395.572 272.973 396.239 269.461 397.249C267.127 397.906 265.929 395.415 266.137 393.227C266.308 391.635 266.388 390.035 266.377 388.434C266.368 388.126 266.45 387.822 266.613 387.561C266.776 387.299 267.013 387.092 267.294 386.965L275.442 383.266C275.705 383.148 275.996 383.103 276.282 383.138C276.569 383.173 276.84 383.286 277.068 383.464C280.319 386.069 287.488 389.33 292.458 387.632C296.334 386.35 295.74 390.779 293.01 392.019Z"
        fill="#F97316" />
    <path
        d="M202.565 206.178C202.565 206.178 221.81 250.369 232.366 282.932C245.297 312.399 271.201 374.221 271.201 374.221C271.712 375.795 263.522 378.681 261.75 378.389C261.75 378.389 227.552 337.376 213.631 290.788C177.421 245.357 166.741 208.887 166.741 208.887L202.565 206.178Z"
        fill="#263238" />
    <path opacity="0.2"
        d="M187.123 230.373C192.437 236.198 196.178 256.423 198.085 269.625C191.555 260.039 185.581 250.085 180.193 239.814C180.725 234.875 182.892 231.238 187.123 230.373Z"
        fill="black" />
    <path
        d="M191.842 207.001C191.842 207.001 193.207 268.385 187.872 298.624C182.266 330.374 164.948 368.678 166.147 389.518C164.355 390.56 158.082 390.622 154.57 389.518C154.57 389.518 148.568 327.633 166.605 297.426C162.698 267.208 152.299 228.018 161.531 209.304L191.842 207.001Z"
        fill="#263238" />
    <path
        d="M167.022 385.183C167.051 386.615 167.183 388.043 167.418 389.455C167.442 389.573 167.441 389.694 167.417 389.811C167.392 389.928 167.343 390.039 167.274 390.137C167.205 390.234 167.116 390.317 167.013 390.379C166.911 390.441 166.797 390.481 166.678 390.497C162.437 391.175 156.258 390.195 154.362 389.851C154.18 389.817 154.014 389.728 153.885 389.595C153.756 389.463 153.672 389.294 153.643 389.111L153.007 385.11C152.986 384.981 152.993 384.848 153.028 384.722C153.064 384.596 153.126 384.479 153.212 384.38C153.297 384.28 153.403 384.201 153.523 384.147C153.642 384.093 153.772 384.066 153.903 384.068L166.147 384.297C166.379 384.303 166.6 384.398 166.763 384.563C166.927 384.729 167.019 384.951 167.022 385.183Z"
        fill="#263238" />
    <path opacity="0.1"
        d="M167.022 385.183C167.051 386.615 167.183 388.043 167.418 389.455C167.442 389.573 167.441 389.694 167.417 389.811C167.392 389.928 167.343 390.039 167.274 390.137C167.205 390.234 167.116 390.317 167.013 390.379C166.911 390.441 166.797 390.481 166.678 390.497C162.437 391.175 156.258 390.195 154.362 389.851C154.18 389.817 154.014 389.728 153.885 389.595C153.756 389.463 153.672 389.294 153.643 389.111L153.007 385.11C152.986 384.981 152.993 384.848 153.028 384.722C153.064 384.596 153.126 384.479 153.212 384.38C153.297 384.28 153.403 384.201 153.523 384.147C153.642 384.093 153.772 384.066 153.903 384.068L166.147 384.297C166.379 384.303 166.6 384.398 166.763 384.563C166.927 384.729 167.019 384.951 167.022 385.183Z"
        fill="white" />
    <path
        d="M270.315 369.709C270.836 370.751 271.785 372.45 272.535 373.731C272.65 373.934 272.682 374.174 272.624 374.399C272.565 374.625 272.421 374.819 272.222 374.94C268.869 376.749 265.357 378.246 261.729 379.41C261.547 379.483 261.345 379.492 261.157 379.437C260.968 379.383 260.803 379.267 260.687 379.108L258.207 375.826C258.128 375.721 258.072 375.6 258.044 375.471C258.017 375.342 258.018 375.209 258.048 375.08C258.078 374.952 258.135 374.832 258.217 374.728C258.299 374.625 258.402 374.541 258.52 374.482L269.086 369.334C269.19 369.273 269.306 369.235 269.426 369.221C269.546 369.207 269.667 369.218 269.783 369.253C269.898 369.288 270.005 369.347 270.097 369.425C270.188 369.504 270.263 369.601 270.315 369.709Z"
        fill="#263238" />
    <path opacity="0.1"
        d="M270.315 369.709C270.836 370.751 271.785 372.45 272.535 373.731C272.65 373.934 272.682 374.174 272.624 374.399C272.565 374.625 272.421 374.819 272.222 374.94C268.869 376.749 265.357 378.246 261.729 379.41C261.547 379.483 261.345 379.492 261.157 379.437C260.968 379.383 260.803 379.267 260.687 379.108L258.207 375.826C258.128 375.721 258.072 375.6 258.044 375.471C258.017 375.342 258.018 375.209 258.048 375.08C258.078 374.952 258.135 374.832 258.217 374.728C258.299 374.625 258.402 374.541 258.52 374.482L269.086 369.334C269.19 369.273 269.306 369.235 269.426 369.221C269.546 369.207 269.667 369.218 269.783 369.253C269.898 369.288 270.005 369.347 270.097 369.425C270.188 369.504 270.263 369.601 270.315 369.709Z"
        fill="white" />
    <path
        d="M194.375 154.161C195.417 158.079 197.042 162.383 199.022 171.875C200.846 179.847 202.148 193.861 202.565 206.199C197.209 210.971 179.401 210.158 161.531 209.325C161.479 197.706 156.706 186.984 143.734 163.195C143.005 161.964 142.562 160.586 142.435 159.161C142.308 157.736 142.502 156.301 143.001 154.96C143.501 153.62 144.294 152.408 145.322 151.413C146.35 150.419 147.587 149.666 148.944 149.212C150.496 148.691 152.153 148.17 153.872 147.69C159.839 145.876 165.925 144.484 172.086 143.522C174.108 143.252 176.254 143.043 178.234 142.866C181.817 142.585 185.386 143.558 188.331 145.618C191.275 147.679 193.412 150.699 194.375 154.161Z"
        fill="#F97316" />
    <path opacity="0.5"
        d="M194.375 154.161C195.417 158.079 197.042 162.383 199.022 171.875C200.846 179.847 202.148 193.861 202.565 206.199C197.209 210.971 179.401 210.158 161.531 209.325C161.479 197.706 156.706 186.984 143.734 163.195C143.005 161.964 142.562 160.586 142.435 159.161C142.308 157.736 142.502 156.301 143.001 154.96C143.501 153.62 144.294 152.408 145.322 151.413C146.35 150.419 147.587 149.666 148.944 149.212C150.496 148.691 152.153 148.17 153.872 147.69C159.839 145.876 165.925 144.484 172.086 143.522C174.108 143.252 176.254 143.043 178.234 142.866C181.817 142.585 185.386 143.558 188.331 145.618C191.275 147.679 193.412 150.699 194.375 154.161Z"
        fill="white" />
    <path
        d="M173.284 143.512L154.893 147.472C154.893 147.472 169.773 153.724 181.704 163.247C184.955 146.867 173.284 143.512 173.284 143.512Z"
        fill="white" />
    <path
        d="M150.506 126.871C153.424 132.373 157.8 142.668 154.893 147.451C154.893 147.451 171.492 152.244 180.349 159.861C181.537 147.544 173.284 143.512 173.284 143.512C166.282 143.512 164.803 138.448 164.573 133.717L150.506 126.871Z"
        fill="#FFC3BD" />
    <path
        d="M166.105 149.024C162.313 148.945 158.538 148.502 154.831 147.701C154.797 147.693 154.765 147.679 154.737 147.66C154.709 147.64 154.685 147.615 154.666 147.586C154.648 147.557 154.636 147.524 154.63 147.49C154.624 147.456 154.625 147.422 154.633 147.388C154.65 147.322 154.692 147.264 154.75 147.228C154.808 147.191 154.878 147.177 154.945 147.19C155.049 147.19 164.875 149.389 170.575 148.086C172.399 147.67 173.472 147.044 173.701 146.096C173.762 145.643 173.72 145.181 173.578 144.746C173.435 144.311 173.196 143.914 172.878 143.585C172.853 143.561 172.833 143.531 172.819 143.499C172.805 143.467 172.798 143.432 172.798 143.397C172.798 143.362 172.805 143.328 172.819 143.295C172.833 143.263 172.853 143.234 172.878 143.21C172.927 143.162 172.992 143.135 173.06 143.135C173.129 143.135 173.194 143.162 173.243 143.21C173.626 143.604 173.912 144.083 174.077 144.608C174.242 145.133 174.281 145.689 174.191 146.232C173.857 147.274 172.659 148.118 170.638 148.576C169.147 148.887 167.628 149.037 166.105 149.024Z"
        fill="white" />
    <path
        d="M173.514 149.17C173.298 149.321 173.033 149.385 172.772 149.348C172.511 149.311 172.273 149.177 172.107 148.972L171.534 148.222C171.383 148.006 171.32 147.741 171.356 147.48C171.393 147.218 171.527 146.981 171.732 146.815C171.948 146.664 172.214 146.601 172.475 146.637C172.736 146.674 172.973 146.808 173.139 147.013L173.712 147.774C173.86 147.989 173.922 148.252 173.885 148.51C173.848 148.769 173.716 149.004 173.514 149.17Z"
        fill="#F97316" />
    <path opacity="0.2"
        d="M156.238 129.664L164.574 133.717C164.612 134.829 164.751 135.934 164.991 137.02C162.386 137.229 158.124 135.322 157.071 132.852C156.602 131.849 156.32 130.768 156.238 129.664Z"
        fill="black" />
    <path
        d="M142.108 118.525C146.401 127.423 148.016 131.268 154.612 134.322C164.479 138.917 174.566 132.363 173.045 122.526C171.68 113.669 164.907 100.644 154.414 100.113C152.161 99.9218 149.897 100.338 147.86 101.319C145.823 102.299 144.085 103.808 142.829 105.688C141.572 107.568 140.843 109.75 140.716 112.008C140.589 114.266 141.07 116.516 142.108 118.525Z"
        fill="#FFC3BD" />
    <path
        d="M145.88 105.604C150.538 112.221 150.298 123.078 144.838 124.548C136.502 123.256 134.689 121.099 134.689 121.099C134.689 121.099 137.356 100.686 145.88 105.604Z"
        fill="#263238" />
    <path
        d="M139.315 108.324C151.632 109.897 161.437 104.75 163.281 101.863C152.132 94.3296 140.535 100.738 139.315 108.324Z"
        fill="#263238" />
    <path
        d="M165.032 113.388C166.462 114.891 168.076 116.208 169.836 117.306C169.231 118.587 167.335 118.764 167.335 118.764L165.032 113.388Z"
        fill="#ED847E" />
    <path
        d="M164.437 122.87C164.887 122.795 165.329 122.683 165.761 122.537C165.79 122.526 165.817 122.51 165.839 122.489C165.862 122.468 165.879 122.442 165.891 122.414C165.903 122.385 165.909 122.354 165.908 122.323C165.907 122.292 165.899 122.262 165.886 122.234C165.86 122.174 165.813 122.125 165.753 122.098C165.693 122.071 165.625 122.068 165.563 122.088C164.589 122.432 163.551 122.552 162.525 122.44C161.499 122.329 160.511 121.988 159.634 121.442C159.589 121.399 159.529 121.375 159.467 121.375C159.405 121.375 159.345 121.399 159.3 121.442C159.267 121.496 159.255 121.56 159.266 121.621C159.278 121.683 159.313 121.738 159.363 121.776C160.861 122.756 162.669 123.146 164.437 122.87Z"
        fill="#263238" />
    <path
        d="M142.66 127.674C143.47 128.157 144.373 128.465 145.31 128.578C146.247 128.691 147.197 128.607 148.099 128.33C150.308 127.559 149.662 124.871 147.578 123.12C145.713 121.578 142.305 120.129 140.805 121.828C139.304 123.526 140.43 126.434 142.66 127.674Z"
        fill="#FFC3BD" />
    <path
        d="M146.588 128.215C145.986 128.215 145.398 128.394 144.898 128.728C144.397 129.063 144.007 129.538 143.777 130.094C143.547 130.65 143.486 131.261 143.604 131.852C143.721 132.442 144.011 132.984 144.437 133.41C144.862 133.835 145.404 134.125 145.994 134.242C146.585 134.36 147.196 134.299 147.752 134.069C148.308 133.839 148.784 133.449 149.118 132.948C149.452 132.448 149.631 131.86 149.631 131.258C149.632 130.858 149.554 130.462 149.402 130.092C149.249 129.722 149.025 129.386 148.743 129.104C148.46 128.821 148.124 128.597 147.754 128.444C147.384 128.292 146.988 128.214 146.588 128.215ZM146.588 133.582C146.126 133.582 145.674 133.445 145.29 133.188C144.906 132.931 144.607 132.566 144.431 132.138C144.254 131.711 144.209 131.241 144.3 130.788C144.391 130.335 144.614 129.92 144.941 129.593C145.269 129.267 145.686 129.046 146.139 128.957C146.593 128.868 147.062 128.916 147.489 129.094C147.915 129.272 148.279 129.573 148.534 129.958C148.789 130.344 148.924 130.796 148.922 131.258C148.922 131.564 148.862 131.867 148.744 132.15C148.627 132.432 148.455 132.689 148.238 132.905C148.021 133.121 147.764 133.292 147.48 133.408C147.197 133.524 146.894 133.583 146.588 133.582Z"
        fill="white" />
    <path
        d="M153.372 112.69C153.426 112.658 153.472 112.614 153.507 112.562C153.541 112.509 153.563 112.45 153.57 112.387C153.641 111.803 153.856 111.246 154.196 110.765C154.536 110.285 154.991 109.897 155.519 109.637C155.576 109.613 155.627 109.578 155.67 109.534C155.713 109.489 155.746 109.437 155.767 109.379C155.789 109.321 155.798 109.26 155.795 109.198C155.791 109.137 155.776 109.077 155.748 109.022C155.69 108.906 155.589 108.817 155.467 108.772C155.345 108.728 155.211 108.731 155.091 108.782C154.417 109.096 153.834 109.577 153.397 110.178C152.959 110.78 152.682 111.483 152.591 112.221C152.584 112.315 152.603 112.409 152.647 112.493C152.69 112.577 152.756 112.647 152.837 112.696C152.918 112.744 153.011 112.769 153.106 112.768C153.2 112.767 153.292 112.74 153.372 112.69Z"
        fill="#263238" />
    <path
        d="M168.169 107.167C168.23 107.165 168.29 107.148 168.344 107.12C168.398 107.091 168.445 107.05 168.481 107C168.554 106.897 168.583 106.768 168.562 106.643C168.54 106.518 168.47 106.407 168.367 106.333C167.766 105.832 167.057 105.477 166.296 105.296C165.535 105.115 164.742 105.114 163.98 105.291C163.921 105.31 163.867 105.34 163.82 105.381C163.774 105.422 163.737 105.472 163.711 105.528C163.686 105.584 163.672 105.645 163.672 105.706C163.671 105.768 163.684 105.829 163.709 105.885C163.756 106.006 163.846 106.104 163.961 106.162C164.077 106.22 164.21 106.233 164.334 106.198C164.937 106.06 165.563 106.062 166.165 106.205C166.767 106.348 167.327 106.627 167.804 107.021C167.849 107.072 167.906 107.112 167.969 107.137C168.032 107.163 168.101 107.173 168.169 107.167Z"
        fill="#263238" />
    <path
        d="M168.022 110.689C168.283 111.46 168.095 112.221 167.585 112.398C167.074 112.575 166.449 112.075 166.178 111.304C165.907 110.533 166.105 109.762 166.616 109.595C167.126 109.428 167.762 109.96 168.022 110.689Z"
        fill="#263238" />
    <path
        d="M158.989 114.409C159.26 115.18 159.062 115.941 158.551 116.118C158.041 116.295 157.415 115.795 157.144 115.076C156.873 114.357 157.071 113.534 157.582 113.367C158.093 113.2 158.718 113.627 158.989 114.409Z"
        fill="#263238" />
    <path d="M157.145 113.763L157.999 111.929C157.999 111.929 158.489 113.68 157.145 113.763Z" fill="#263238" />
    <path d="M166.115 110.158L166.97 108.324C166.97 108.324 167.459 110.064 166.115 110.158Z" fill="#263238" />
    <path opacity="0.5"
        d="M155.258 164.3L146.213 167.697C149.933 174.595 152.882 180.305 155.143 185.265C154.592 178.286 154.631 171.273 155.258 164.3Z"
        fill="#F97316" />
    <path d="M211.87 408.211H223.759L223.759 236.896H211.87L211.87 408.211Z" fill="#F97316" />
    <path opacity="0.2" d="M211.88 236.906H223.77V265.718L211.88 262.654V236.906Z" fill="black" />
    <path
        d="M281.392 258.236H175.337V238.376C175.337 231.157 178.205 224.235 183.309 219.13C188.413 214.026 195.336 211.159 202.554 211.159H254.175C261.393 211.159 268.316 214.026 273.42 219.13C278.525 224.235 281.392 231.157 281.392 238.376V258.236Z"
        fill="#F97316" />
    <path
        d="M183.163 225.684L181.402 223.173C181.074 222.708 180.641 222.327 180.137 222.062C179.634 221.798 179.074 221.657 178.505 221.652H173.108C172.046 221.642 170.997 221.887 170.049 222.366C169.101 222.844 168.281 223.543 167.658 224.402L166.876 225.444C169.513 229.821 175.577 232.593 175.577 232.593L177.224 233.582C177.554 233.795 177.924 233.939 178.311 234.006C178.698 234.074 179.095 234.064 179.478 233.977C179.861 233.889 180.223 233.726 180.543 233.498C180.862 233.269 181.133 232.979 181.339 232.645L183.33 229.425C183.666 228.852 183.83 228.194 183.8 227.53C183.771 226.866 183.549 226.225 183.163 225.684Z"
        fill="#FFC3BD" />
    <path
        d="M158.593 161.726C158.322 162.299 157.967 163.133 157.665 163.81L156.738 166.123C156.133 167.676 155.56 169.249 155.039 170.823C154.001 173.946 153.142 177.126 152.466 180.347C152.153 181.93 151.892 183.473 151.694 185.056C151.529 186.562 151.438 188.075 151.424 189.589C151.342 192.148 151.793 194.695 152.747 197.071L153.143 197.904C153.172 197.972 153.196 198.042 153.216 198.113C153.882 200.186 154.908 202.127 156.248 203.844C157.802 205.929 159.509 207.897 161.354 209.731C163.271 211.607 165.324 213.43 167.45 215.181C168.492 216.056 169.617 216.9 170.721 217.723C171.826 218.546 172.993 219.38 174.025 220.057L168.116 229.435C166.699 228.55 165.501 227.737 164.219 226.872C162.938 226.007 161.729 225.121 160.499 224.215C158.04 222.423 155.633 220.516 153.289 218.453C150.854 216.362 148.576 214.095 146.474 211.669C145.336 210.355 144.291 208.962 143.348 207.501C142.296 205.906 141.412 204.205 140.712 202.427L141.181 203.469C138.955 199.4 137.666 194.886 137.409 190.256C137.146 186.198 137.257 182.123 137.742 178.086C138.198 174.231 138.866 170.405 139.743 166.624C140.16 164.755 140.625 162.893 141.139 161.038C141.389 160.111 141.65 159.194 141.931 158.267C142.212 157.339 142.483 156.464 142.869 155.359L158.593 161.726Z"
        fill="#F97316" />
    <path opacity="0.5"
        d="M158.593 161.726C158.322 162.299 157.967 163.133 157.665 163.81L156.738 166.123C156.133 167.676 155.56 169.249 155.039 170.823C154.001 173.946 153.142 177.126 152.466 180.347C152.153 181.93 151.892 183.473 151.694 185.056C151.529 186.562 151.438 188.075 151.424 189.589C151.342 192.148 151.793 194.695 152.747 197.071L153.143 197.904C153.172 197.972 153.196 198.042 153.216 198.113C153.882 200.186 154.908 202.127 156.248 203.844C157.802 205.929 159.509 207.897 161.354 209.731C163.271 211.607 165.324 213.43 167.45 215.181C168.492 216.056 169.617 216.9 170.721 217.723C171.826 218.546 172.993 219.38 174.025 220.057L168.116 229.435C166.699 228.55 165.501 227.737 164.219 226.872C162.938 226.007 161.729 225.121 160.499 224.215C158.04 222.423 155.633 220.516 153.289 218.453C150.854 216.362 148.576 214.095 146.474 211.669C145.336 210.355 144.291 208.962 143.348 207.501C142.296 205.906 141.412 204.205 140.712 202.427L141.181 203.469C138.955 199.4 137.666 194.886 137.409 190.256C137.146 186.198 137.257 182.123 137.742 178.086C138.198 174.231 138.866 170.405 139.743 166.624C140.16 164.755 140.625 162.893 141.139 161.038C141.389 160.111 141.65 159.194 141.931 158.267C142.212 157.339 142.483 156.464 142.869 155.359L158.593 161.726Z"
        fill="white" />
    <path opacity="0.1" d="M175.337 252.349H226.958V239.23H175.337V252.349Z" fill="white" />
    <path opacity="0.2"
        d="M226.958 258.236V238.376C226.958 231.157 229.826 224.235 234.93 219.13C240.034 214.026 246.957 211.159 254.175 211.159C261.393 211.159 268.316 214.026 273.42 219.13C278.525 224.235 281.392 231.157 281.392 238.376V258.236"
        fill="black" />
    <path d="M226.958 261.727H301.44V258.236H226.958V261.727Z" fill="#F97316" />
    <path opacity="0.2" d="M247.006 261.727H301.44V258.236H247.006V261.727Z" fill="black" />
    <path d="M217.83 243.982H219.758V197.998H217.83V243.982Z" fill="#E0E0E0" />
    <path
        d="M206.848 206.928H220.331V200.322C220.331 200.09 220.239 199.867 220.075 199.703C219.911 199.539 219.688 199.447 219.456 199.447H206.848L209.057 203.187L206.848 206.928Z"
        fill="#F97316" />
    <path
        d="M342.381 66.5394C342.264 66.5376 342.151 66.4966 342.06 66.4229C341.97 66.3492 341.906 66.2471 341.881 66.1331C341.864 66.0667 341.86 65.9975 341.871 65.9297C341.881 65.862 341.905 65.797 341.941 65.7386C341.977 65.6803 342.024 65.6298 342.08 65.5902C342.136 65.5505 342.199 65.5225 342.266 65.5079C343.422 65.2438 344.558 64.8956 345.663 64.4659C345.727 64.4405 345.795 64.428 345.863 64.429C345.932 64.4299 345.999 64.4444 346.062 64.4715C346.125 64.4986 346.182 64.5378 346.23 64.5869C346.277 64.636 346.315 64.694 346.34 64.7576C346.366 64.8213 346.378 64.8892 346.377 64.9577C346.376 65.0262 346.362 65.0938 346.335 65.1567C346.308 65.2196 346.268 65.2765 346.219 65.3243C346.17 65.372 346.112 65.4096 346.049 65.4349C344.897 65.8953 343.713 66.268 342.506 66.5499L342.381 66.5394Z"
        fill="#F97316" />
    <path
        d="M303.222 246.545C303.088 246.543 302.96 246.49 302.863 246.397C302.766 246.304 302.708 246.178 302.701 246.045C302.698 245.976 302.709 245.908 302.732 245.844C302.756 245.779 302.792 245.72 302.838 245.67C302.885 245.62 302.941 245.579 303.003 245.55C303.065 245.522 303.132 245.506 303.201 245.503C305.608 245.378 308.067 245.159 310.495 244.836C310.631 244.821 310.768 244.859 310.877 244.943C310.985 245.026 311.058 245.149 311.078 245.284C311.089 245.352 311.085 245.421 311.068 245.488C311.051 245.554 311.02 245.617 310.978 245.671C310.937 245.726 310.884 245.771 310.824 245.805C310.764 245.839 310.698 245.86 310.63 245.868C308.171 246.201 305.681 246.42 303.242 246.535L303.222 246.545ZM317.81 244.617C317.671 244.632 317.533 244.592 317.424 244.505C317.316 244.418 317.246 244.292 317.231 244.154C317.216 244.015 317.256 243.877 317.343 243.768C317.43 243.66 317.557 243.59 317.695 243.575C320.144 243.044 322.53 242.419 324.781 241.71C324.847 241.682 324.919 241.669 324.991 241.671C325.063 241.672 325.135 241.689 325.2 241.719C325.265 241.75 325.324 241.793 325.371 241.848C325.419 241.902 325.455 241.966 325.477 242.035C325.498 242.103 325.506 242.176 325.498 242.248C325.49 242.32 325.467 242.389 325.431 242.452C325.395 242.514 325.347 242.569 325.288 242.611C325.23 242.654 325.164 242.684 325.093 242.7C322.811 243.419 320.404 244.055 317.914 244.596L317.81 244.617ZM331.825 240.116C331.725 240.116 331.628 240.088 331.545 240.034C331.462 239.981 331.396 239.904 331.356 239.814C331.326 239.751 331.308 239.684 331.305 239.615C331.301 239.546 331.311 239.477 331.335 239.412C331.358 239.347 331.394 239.288 331.44 239.237C331.487 239.186 331.543 239.145 331.606 239.115C333.372 238.326 335.076 237.403 336.701 236.354L337.941 235.521C338.056 235.445 338.196 235.418 338.331 235.446C338.465 235.473 338.584 235.552 338.66 235.666C338.699 235.722 338.727 235.785 338.741 235.852C338.756 235.919 338.757 235.988 338.744 236.055C338.731 236.122 338.705 236.185 338.668 236.242C338.63 236.299 338.581 236.348 338.525 236.385L337.274 237.219C335.613 238.299 333.871 239.25 332.064 240.064C331.999 240.094 331.928 240.112 331.856 240.116H331.825ZM344.089 231.999C344.014 231.998 343.94 231.982 343.872 231.951C343.804 231.921 343.743 231.877 343.693 231.821C343.603 231.716 343.559 231.579 343.569 231.441C343.578 231.303 343.642 231.174 343.745 231.082C345.591 229.489 347.302 227.746 348.861 225.872C348.952 225.767 349.08 225.701 349.218 225.69C349.357 225.678 349.494 225.721 349.601 225.809C349.654 225.852 349.697 225.906 349.729 225.966C349.761 226.026 349.78 226.093 349.786 226.161C349.792 226.229 349.784 226.297 349.763 226.362C349.742 226.427 349.708 226.487 349.664 226.539C348.071 228.443 346.329 230.216 344.454 231.842C344.366 231.934 344.247 231.99 344.12 231.999H344.089ZM353.352 220.641C353.268 220.641 353.186 220.62 353.113 220.578C352.99 220.516 352.897 220.407 352.854 220.277C352.811 220.146 352.822 220.003 352.883 219.88C353.224 219.227 353.536 218.56 353.821 217.88C354.465 216.324 354.987 214.722 355.384 213.086C355.401 213.018 355.43 212.953 355.472 212.896C355.513 212.84 355.565 212.791 355.625 212.755C355.685 212.718 355.752 212.693 355.821 212.682C355.891 212.671 355.962 212.674 356.03 212.69C356.099 212.707 356.163 212.737 356.22 212.778C356.277 212.819 356.325 212.871 356.362 212.931C356.399 212.991 356.423 213.058 356.434 213.127C356.445 213.197 356.443 213.268 356.426 213.336C356.02 215.026 355.48 216.682 354.811 218.286C354.519 218.984 354.196 219.672 353.842 220.37C353.798 220.453 353.732 220.522 353.651 220.57C353.57 220.618 353.477 220.642 353.383 220.641H353.352ZM356.968 206.449C356.899 206.445 356.831 206.427 356.768 206.396C356.706 206.366 356.65 206.323 356.604 206.271C356.559 206.218 356.524 206.157 356.502 206.091C356.481 206.025 356.473 205.955 356.478 205.886C356.572 204.469 356.624 202.968 356.624 201.312C356.624 200.395 356.624 199.488 356.624 198.571C356.621 198.502 356.632 198.433 356.657 198.368C356.681 198.303 356.718 198.243 356.766 198.193C356.813 198.143 356.87 198.102 356.934 198.074C356.997 198.046 357.065 198.031 357.135 198.029C357.203 198.027 357.272 198.038 357.336 198.062C357.401 198.087 357.46 198.124 357.509 198.171C357.559 198.219 357.598 198.276 357.625 198.34C357.652 198.403 357.666 198.471 357.666 198.54C357.666 199.467 357.666 200.384 357.666 201.312C357.666 203 357.614 204.521 357.52 205.959C357.512 206.092 357.454 206.216 357.357 206.307C357.26 206.398 357.132 206.449 356.999 206.449H356.968ZM356.77 191.704C356.637 191.705 356.509 191.654 356.412 191.563C356.315 191.472 356.257 191.347 356.249 191.215C356.155 189.131 356.061 186.817 356.061 184.546V183.806C356.057 183.737 356.067 183.668 356.092 183.603C356.116 183.538 356.155 183.479 356.204 183.431C356.254 183.382 356.313 183.345 356.378 183.322C356.444 183.298 356.513 183.289 356.582 183.296C356.721 183.296 356.853 183.35 356.951 183.448C357.049 183.546 357.103 183.678 357.103 183.817V184.546C357.103 186.797 357.197 189.058 357.291 191.163C357.294 191.231 357.283 191.299 357.259 191.364C357.236 191.428 357.2 191.487 357.153 191.537C357.107 191.588 357.051 191.628 356.989 191.657C356.926 191.686 356.859 191.702 356.791 191.704H356.77ZM401.315 185.286C400.367 185.286 399.44 185.286 398.554 185.223C398.486 185.221 398.419 185.204 398.356 185.176C398.294 185.147 398.238 185.106 398.192 185.056C398.145 185.006 398.109 184.947 398.086 184.882C398.062 184.818 398.051 184.75 398.054 184.681C398.057 184.613 398.073 184.546 398.102 184.484C398.13 184.421 398.171 184.365 398.221 184.319C398.272 184.273 398.331 184.236 398.395 184.213C398.459 184.189 398.527 184.178 398.596 184.181C399.471 184.181 400.388 184.244 401.315 184.244C402.843 184.251 404.37 184.175 405.89 184.015C406.028 183.999 406.167 184.04 406.275 184.127C406.383 184.214 406.453 184.34 406.468 184.478C406.483 184.616 406.443 184.755 406.356 184.863C406.269 184.972 406.143 185.041 406.004 185.057C404.457 185.216 402.902 185.292 401.347 185.286H401.315ZM391.219 184.754C388.78 184.567 386.3 184.348 383.862 184.098C383.793 184.091 383.727 184.071 383.666 184.039C383.605 184.007 383.552 183.962 383.508 183.909C383.464 183.856 383.432 183.794 383.412 183.728C383.392 183.662 383.386 183.593 383.393 183.525C383.4 183.456 383.42 183.39 383.452 183.329C383.484 183.268 383.529 183.214 383.582 183.171C383.635 183.127 383.697 183.095 383.762 183.075C383.828 183.055 383.898 183.049 383.966 183.056C386.394 183.306 388.864 183.535 391.26 183.723C391.398 183.723 391.531 183.778 391.629 183.875C391.726 183.973 391.781 184.106 391.781 184.244C391.781 184.382 391.726 184.514 391.629 184.612C391.531 184.71 391.398 184.765 391.26 184.765L391.219 184.754ZM413.101 183.264C413.001 183.263 412.903 183.234 412.818 183.181C412.734 183.128 412.665 183.052 412.621 182.962C412.565 182.836 412.561 182.693 412.609 182.564C412.658 182.436 412.756 182.331 412.882 182.274C415.066 181.349 416.917 179.778 418.185 177.773C418.218 177.708 418.263 177.651 418.319 177.605C418.374 177.559 418.439 177.525 418.508 177.505C418.577 177.486 418.65 177.48 418.721 177.49C418.793 177.5 418.862 177.524 418.923 177.562C418.985 177.6 419.038 177.65 419.079 177.709C419.12 177.768 419.148 177.835 419.162 177.906C419.176 177.977 419.175 178.05 419.16 178.12C419.144 178.19 419.114 178.257 419.071 178.315C417.7 180.499 415.692 182.212 413.319 183.223C413.25 183.251 413.176 183.266 413.101 183.264ZM376.578 183.264H376.516C374.088 182.952 371.618 182.597 369.222 182.222C369.154 182.212 369.089 182.189 369.03 182.153C368.972 182.118 368.92 182.071 368.88 182.016C368.839 181.961 368.81 181.898 368.793 181.832C368.777 181.765 368.774 181.696 368.784 181.628C368.807 181.493 368.882 181.371 368.993 181.29C369.104 181.208 369.242 181.173 369.378 181.191C371.796 181.566 374.244 181.92 376.672 182.233C376.81 182.241 376.94 182.304 377.031 182.407C377.123 182.511 377.17 182.647 377.162 182.785C377.154 182.923 377.091 183.052 376.987 183.144C376.884 183.236 376.748 183.283 376.61 183.275L376.578 183.264ZM361.99 181.003H361.897C359.49 180.565 357.051 180.086 354.655 179.586C354.517 179.558 354.395 179.477 354.317 179.36C354.239 179.242 354.21 179.099 354.238 178.961C354.266 178.823 354.347 178.701 354.464 178.623C354.581 178.545 354.725 178.516 354.863 178.544C357.26 179.044 359.688 179.523 362.084 179.961C362.152 179.972 362.217 179.997 362.275 180.034C362.334 180.07 362.384 180.118 362.424 180.174C362.463 180.23 362.492 180.294 362.507 180.361C362.522 180.428 362.523 180.498 362.511 180.565C362.486 180.682 362.421 180.787 362.329 180.863C362.236 180.938 362.12 180.98 362.001 180.982L361.99 181.003ZM347.559 177.981H347.434C345.058 177.419 342.64 176.814 340.275 176.189C340.207 176.172 340.142 176.142 340.086 176.1C340.029 176.058 339.981 176.005 339.945 175.944C339.909 175.884 339.885 175.817 339.874 175.747C339.864 175.677 339.867 175.606 339.884 175.538C339.901 175.469 339.932 175.405 339.974 175.348C340.016 175.292 340.069 175.244 340.129 175.208C340.19 175.171 340.257 175.147 340.326 175.137C340.396 175.127 340.467 175.13 340.536 175.147C342.901 175.772 345.298 176.377 347.673 176.929C347.808 176.964 347.925 177.049 347.999 177.167C348.073 177.286 348.098 177.428 348.069 177.565C348.042 177.677 347.977 177.776 347.887 177.848C347.796 177.92 347.685 177.959 347.569 177.96L347.559 177.981ZM357.124 177.002H357.041C356.905 176.979 356.784 176.904 356.702 176.793C356.621 176.682 356.585 176.544 356.603 176.408C356.968 173.93 357.586 171.497 358.448 169.145C358.495 169.015 358.591 168.909 358.716 168.851C358.841 168.792 358.985 168.786 359.114 168.833C359.244 168.88 359.35 168.976 359.409 169.101C359.467 169.226 359.474 169.37 359.427 169.499C358.597 171.781 358.003 174.141 357.656 176.543C357.636 176.667 357.572 176.779 357.476 176.859C357.381 176.939 357.26 176.983 357.135 176.981L357.124 177.002ZM333.294 174.22C333.246 174.229 333.196 174.229 333.148 174.22C330.803 173.542 328.417 172.813 326.083 172.063C326.017 172.043 325.956 172.01 325.904 171.965C325.851 171.921 325.808 171.867 325.777 171.806C325.745 171.744 325.727 171.677 325.722 171.609C325.718 171.54 325.727 171.471 325.75 171.406C325.793 171.275 325.886 171.166 326.009 171.104C326.132 171.041 326.275 171.03 326.406 171.073C328.73 171.813 331.095 172.542 333.44 173.219C333.572 173.258 333.684 173.348 333.751 173.469C333.817 173.59 333.833 173.733 333.794 173.865C333.757 173.965 333.69 174.051 333.602 174.11C333.515 174.17 333.41 174.201 333.304 174.199L333.294 174.22ZM420.103 171.542C419.982 171.539 419.865 171.496 419.772 171.418C419.679 171.34 419.616 171.233 419.592 171.115C419.029 168.817 417.735 166.766 415.903 165.269C415.855 165.221 415.816 165.165 415.79 165.102C415.764 165.039 415.75 164.972 415.75 164.904C415.75 164.836 415.764 164.769 415.79 164.706C415.816 164.644 415.855 164.587 415.903 164.54C415.952 164.491 416.01 164.452 416.073 164.425C416.137 164.399 416.205 164.385 416.273 164.385C416.342 164.385 416.41 164.399 416.474 164.425C416.537 164.452 416.595 164.491 416.643 164.54C418.646 166.183 420.056 168.438 420.655 170.958C420.669 171.025 420.669 171.094 420.656 171.162C420.643 171.229 420.617 171.293 420.579 171.35C420.541 171.407 420.493 171.456 420.436 171.494C420.379 171.533 420.316 171.559 420.249 171.573L420.103 171.542ZM319.258 169.718C319.199 169.729 319.139 169.729 319.081 169.718C316.705 168.874 314.381 167.999 312.152 167.124C312.025 167.07 311.923 166.97 311.869 166.844C311.815 166.718 311.811 166.575 311.86 166.446C311.885 166.383 311.923 166.325 311.97 166.276C312.018 166.226 312.075 166.187 312.138 166.16C312.201 166.133 312.268 166.119 312.337 166.118C312.405 166.117 312.473 166.129 312.537 166.155C314.746 167.03 317.07 167.895 319.425 168.739C319.554 168.784 319.66 168.878 319.721 169.001C319.781 169.124 319.791 169.265 319.748 169.395C319.705 169.486 319.638 169.564 319.553 169.617C319.468 169.671 319.369 169.699 319.268 169.697L319.258 169.718ZM305.545 164.269C305.477 164.284 305.405 164.284 305.337 164.269C303.044 163.227 300.794 162.185 298.658 161.091C298.591 161.063 298.532 161.022 298.482 160.97C298.432 160.919 298.394 160.857 298.369 160.79C298.344 160.723 298.334 160.651 298.338 160.58C298.342 160.508 298.361 160.438 298.393 160.374C298.425 160.311 298.47 160.254 298.526 160.208C298.581 160.163 298.645 160.129 298.714 160.109C298.783 160.089 298.855 160.084 298.926 160.093C298.997 160.102 299.065 160.126 299.127 160.163C301.211 161.205 303.482 162.247 305.764 163.289C305.902 163.318 306.023 163.401 306.1 163.519C306.178 163.637 306.205 163.781 306.176 163.92C306.147 164.058 306.064 164.179 305.946 164.256C305.827 164.333 305.683 164.36 305.545 164.331V164.269ZM362.355 163.362C362.244 163.362 362.135 163.329 362.043 163.268C361.932 163.185 361.859 163.062 361.839 162.925C361.82 162.788 361.855 162.649 361.938 162.539C363.301 160.669 364.975 159.047 366.888 157.746L367.43 157.402C367.488 157.366 367.553 157.341 367.62 157.33C367.688 157.319 367.757 157.321 367.824 157.336C367.89 157.352 367.953 157.38 368.009 157.42C368.065 157.46 368.112 157.51 368.149 157.569C368.185 157.627 368.209 157.691 368.221 157.759C368.232 157.827 368.23 157.896 368.214 157.963C368.199 158.029 368.17 158.092 368.13 158.148C368.091 158.204 368.04 158.251 367.982 158.288L367.471 158.611C365.657 159.845 364.067 161.382 362.772 163.154C362.722 163.213 362.66 163.26 362.589 163.292C362.519 163.325 362.443 163.341 362.366 163.341L362.355 163.362ZM410.152 161.278C410.064 161.277 409.979 161.256 409.902 161.216C409.026 160.747 408.172 160.309 407.359 159.903C406.036 159.257 404.671 158.652 403.295 158.11C403.227 158.09 403.163 158.055 403.109 158.008C403.054 157.962 403.01 157.904 402.978 157.84C402.947 157.776 402.929 157.705 402.926 157.634C402.923 157.562 402.935 157.491 402.961 157.424C402.987 157.357 403.026 157.296 403.077 157.245C403.127 157.194 403.187 157.154 403.254 157.128C403.321 157.101 403.392 157.089 403.464 157.091C403.535 157.093 403.606 157.111 403.67 157.141C405.077 157.683 406.473 158.308 407.838 158.975C408.651 159.382 409.526 159.819 410.412 160.299C410.532 160.367 410.621 160.479 410.66 160.611C410.698 160.743 410.684 160.885 410.621 161.007C410.574 161.086 410.506 161.151 410.426 161.195C410.345 161.239 410.254 161.261 410.162 161.257L410.152 161.278ZM292.406 157.579C292.314 157.581 292.223 157.555 292.145 157.506C289.967 156.245 287.852 154.932 285.893 153.588C285.792 153.507 285.725 153.39 285.705 153.262C285.685 153.134 285.714 153.003 285.786 152.895C285.857 152.786 285.967 152.709 286.093 152.677C286.219 152.645 286.352 152.662 286.466 152.723C288.446 154.047 290.54 155.36 292.718 156.61C292.816 156.668 292.892 156.756 292.935 156.862C292.978 156.967 292.985 157.083 292.956 157.193C292.926 157.303 292.861 157.4 292.772 157.47C292.682 157.539 292.571 157.578 292.458 157.579H292.406ZM396.449 155.943H396.324C393.955 155.381 391.549 154.984 389.124 154.755C388.988 154.742 388.862 154.675 388.774 154.57C388.686 154.465 388.644 154.329 388.655 154.192C388.671 154.055 388.74 153.929 388.847 153.842C388.954 153.754 389.091 153.712 389.228 153.724C391.685 153.956 394.122 154.36 396.522 154.932C396.66 154.947 396.787 155.017 396.874 155.125C396.961 155.234 397.001 155.372 396.986 155.511C396.971 155.649 396.901 155.775 396.793 155.862C396.684 155.949 396.546 155.99 396.408 155.974L396.449 155.943ZM374.515 155.61C374.397 155.608 374.283 155.568 374.19 155.494C374.098 155.42 374.032 155.318 374.005 155.203C373.973 155.069 373.996 154.928 374.068 154.811C374.141 154.694 374.256 154.61 374.39 154.578C376.22 154.145 378.08 153.849 379.954 153.692C380.559 153.692 381.174 153.599 381.778 153.567C381.847 153.56 381.917 153.567 381.983 153.588C382.049 153.61 382.11 153.644 382.162 153.69C382.214 153.737 382.256 153.793 382.285 153.856C382.314 153.919 382.329 153.988 382.33 154.057C382.336 154.194 382.288 154.327 382.196 154.428C382.105 154.529 381.977 154.591 381.841 154.599C381.236 154.599 380.642 154.682 380.048 154.734C378.227 154.885 376.419 155.171 374.64 155.589L374.515 155.61ZM280.183 149.358C280.067 149.36 279.953 149.323 279.86 149.253C277.88 147.701 275.984 146.075 274.223 144.439C274.174 144.391 274.135 144.333 274.109 144.27C274.082 144.206 274.069 144.138 274.069 144.069C274.069 144.001 274.082 143.933 274.109 143.869C274.135 143.806 274.174 143.748 274.223 143.7C274.322 143.603 274.455 143.55 274.593 143.55C274.731 143.55 274.863 143.603 274.963 143.7C276.703 145.325 278.578 146.93 280.537 148.461C280.645 148.547 280.714 148.672 280.729 148.809C280.745 148.946 280.706 149.083 280.621 149.191C280.565 149.245 280.497 149.286 280.423 149.309C280.349 149.333 280.27 149.339 280.193 149.326L280.183 149.358ZM269.43 139.302C269.355 139.302 269.281 139.286 269.213 139.255C269.145 139.225 269.084 139.18 269.034 139.125C267.396 137.264 265.869 135.308 264.459 133.269C264.381 133.155 264.351 133.015 264.374 132.879C264.397 132.743 264.473 132.621 264.584 132.54C264.7 132.465 264.84 132.438 264.976 132.463C265.111 132.488 265.232 132.564 265.314 132.675C266.72 134.674 268.244 136.588 269.878 138.406C269.973 138.504 270.027 138.634 270.027 138.771C270.027 138.907 269.973 139.038 269.878 139.136C269.82 139.19 269.75 139.231 269.674 139.254C269.599 139.277 269.518 139.283 269.44 139.271L269.43 139.302ZM261.094 127.184C260.997 127.183 260.903 127.156 260.822 127.104C260.741 127.052 260.676 126.979 260.635 126.892C259.493 124.689 258.507 122.409 257.686 120.067C257.643 119.936 257.652 119.792 257.712 119.668C257.773 119.543 257.879 119.447 258.009 119.4C258.139 119.357 258.281 119.367 258.404 119.427C258.527 119.487 258.621 119.594 258.666 119.723C259.471 122.022 260.439 124.261 261.562 126.423C261.624 126.546 261.635 126.689 261.592 126.82C261.549 126.95 261.456 127.059 261.333 127.121C261.257 127.152 261.175 127.163 261.094 127.153V127.184ZM256.332 113.263C256.208 113.264 256.088 113.22 255.994 113.14C255.9 113.059 255.839 112.947 255.821 112.825C255.717 112.273 255.633 111.721 255.55 111.158C255.295 109.321 255.167 107.469 255.165 105.614V105.396C255.165 105.257 255.219 105.125 255.317 105.027C255.415 104.93 255.547 104.875 255.686 104.875C255.824 104.875 255.956 104.93 256.054 105.027C256.152 105.125 256.207 105.257 256.207 105.396V105.604C256.205 107.41 256.33 109.213 256.582 111.002C256.665 111.554 256.748 112.096 256.842 112.638C256.867 112.773 256.836 112.912 256.758 113.026C256.68 113.139 256.561 113.217 256.425 113.242L256.332 113.263ZM256.384 98.5914H256.29C256.155 98.566 256.035 98.4883 255.957 98.3751C255.879 98.2618 255.849 98.1224 255.873 97.987C256.326 95.5393 256.985 93.1341 257.842 90.7972C257.894 90.6683 257.993 90.564 258.119 90.5058C258.245 90.4476 258.388 90.44 258.52 90.4846C258.648 90.5337 258.751 90.6312 258.808 90.756C258.864 90.8808 258.869 91.0229 258.822 91.1515C257.98 93.433 257.335 95.7827 256.894 98.1746C256.871 98.3027 256.8 98.4171 256.696 98.4946C256.591 98.5721 256.461 98.6067 256.332 98.5914H256.384ZM261.469 84.8265C261.377 84.8219 261.288 84.7969 261.208 84.7536C261.089 84.682 261.003 84.5667 260.968 84.4323C260.933 84.298 260.952 84.1552 261.021 84.0346C262.273 81.8819 263.721 79.8484 265.345 77.9598C265.439 77.8746 265.562 77.8269 265.689 77.8257C265.816 77.8244 265.939 77.8697 266.035 77.9529C266.131 78.0362 266.193 78.1517 266.21 78.2777C266.227 78.4037 266.197 78.5315 266.126 78.6371C264.565 80.4868 263.17 82.4708 261.958 84.566C261.907 84.6564 261.831 84.7295 261.738 84.7759C261.645 84.8223 261.54 84.8399 261.437 84.8265H261.469ZM271.065 73.7292C270.958 73.7286 270.853 73.6947 270.765 73.6321C270.678 73.5695 270.612 73.4813 270.576 73.3796C270.541 73.278 270.538 73.1678 270.568 73.0644C270.597 72.9609 270.658 72.8692 270.742 72.8019C272.711 71.2732 274.822 69.9368 277.047 68.811C277.171 68.7488 277.315 68.7386 277.447 68.7826C277.579 68.8265 277.688 68.9211 277.75 69.0455C277.812 69.1698 277.822 69.3138 277.778 69.4457C277.734 69.5776 277.64 69.6866 277.515 69.7488C275.352 70.845 273.297 72.1428 271.378 73.625C271.28 73.7003 271.158 73.7373 271.034 73.7292H271.065ZM335.065 67.2376C332.584 67.1831 330.109 66.9638 327.657 66.5811C327.518 66.5618 327.393 66.4883 327.309 66.3769C327.225 66.2656 327.189 66.1254 327.208 65.9872C327.228 65.849 327.301 65.7242 327.413 65.6401C327.524 65.5561 327.664 65.5198 327.802 65.5391C330.216 65.9187 332.653 66.1345 335.096 66.1852C335.235 66.1852 335.367 66.24 335.465 66.3378C335.562 66.4355 335.617 66.568 335.617 66.7062C335.617 66.8443 335.562 66.9769 335.465 67.0746C335.367 67.1723 335.235 67.2272 335.096 67.2272L335.065 67.2376ZM284.07 66.9667C284.001 66.9776 283.931 66.975 283.864 66.9589C283.797 66.9428 283.733 66.9136 283.677 66.873C283.621 66.8324 283.573 66.7811 283.537 66.722C283.501 66.663 283.476 66.5974 283.465 66.529C283.454 66.4606 283.457 66.3907 283.473 66.3233C283.489 66.2559 283.518 66.1923 283.559 66.1362C283.6 66.0801 283.651 66.0325 283.71 65.9962C283.769 65.9599 283.834 65.9356 283.903 65.9247C286.261 65.1593 288.661 64.533 291.093 64.0491C291.16 64.0355 291.23 64.0355 291.298 64.0492C291.366 64.0629 291.43 64.0899 291.487 64.1287C291.545 64.1675 291.594 64.2173 291.631 64.2751C291.669 64.333 291.695 64.3979 291.708 64.4659C291.723 64.5324 291.724 64.6013 291.711 64.6683C291.699 64.7354 291.673 64.7992 291.635 64.8558C291.597 64.9124 291.548 64.9606 291.49 64.9975C291.433 65.0344 291.368 65.0591 291.301 65.0702C288.909 65.5487 286.547 66.1645 284.226 66.9146L284.07 66.9667ZM320.456 65.3307H320.363C318.122 64.9139 315.59 64.445 313.069 64.0907C312.934 64.0701 312.812 63.9974 312.731 63.8883C312.649 63.7792 312.613 63.6424 312.631 63.5072C312.638 63.439 312.66 63.3729 312.694 63.3131C312.727 63.2533 312.773 63.2009 312.827 63.1591C312.882 63.1172 312.944 63.0868 313.011 63.0697C313.077 63.0525 313.146 63.0489 313.214 63.0592C315.715 63.4134 318.258 63.8928 320.508 64.3096C320.644 64.3349 320.763 64.4126 320.841 64.5259C320.919 64.6391 320.95 64.7786 320.925 64.9139C320.907 65.0299 320.852 65.1367 320.767 65.2178C320.682 65.2988 320.573 65.3495 320.456 65.362V65.3307ZM298.491 63.9865C298.353 63.9948 298.217 63.9479 298.113 63.856C298.01 63.7642 297.947 63.635 297.939 63.4968C297.93 63.3586 297.977 63.2228 298.069 63.1192C298.161 63.0157 298.29 62.9528 298.428 62.9445C299.752 62.7987 301.169 62.6632 302.596 62.5486C303.513 62.4756 304.482 62.434 305.472 62.434H305.816C305.885 62.4353 305.952 62.4501 306.015 62.4776C306.077 62.505 306.134 62.5445 306.182 62.5939C306.229 62.6432 306.266 62.7015 306.291 62.7652C306.316 62.8289 306.328 62.897 306.327 62.9654C306.319 63.1001 306.261 63.2271 306.165 63.3215C306.069 63.4159 305.941 63.471 305.806 63.476H305.472C304.514 63.476 303.576 63.476 302.669 63.5802C301.231 63.6948 299.835 63.8302 298.501 63.9865H298.491Z"
        fill="#F97316" />
    <path
        d="M295.74 246.566C294.5 246.514 293.27 246.42 292.083 246.305C292.014 246.3 291.948 246.281 291.887 246.25C291.827 246.219 291.773 246.175 291.729 246.123C291.685 246.071 291.653 246.01 291.633 245.945C291.613 245.879 291.606 245.81 291.614 245.743C291.617 245.674 291.635 245.607 291.666 245.545C291.697 245.484 291.74 245.43 291.793 245.386C291.846 245.342 291.907 245.309 291.973 245.29C292.039 245.27 292.108 245.265 292.176 245.274C293.354 245.388 294.563 245.472 295.792 245.524C295.93 245.524 296.063 245.579 296.16 245.676C296.258 245.774 296.313 245.907 296.313 246.045C296.313 246.183 296.258 246.315 296.16 246.413C296.063 246.511 295.93 246.566 295.792 246.566H295.74Z"
        fill="#F97316" />
    <g opacity="0.6">
        <path
            d="M342.381 66.5394C342.264 66.5376 342.151 66.4966 342.06 66.4229C341.97 66.3492 341.906 66.2471 341.881 66.1331C341.864 66.0667 341.86 65.9975 341.871 65.9297C341.881 65.862 341.905 65.797 341.941 65.7386C341.977 65.6803 342.024 65.6298 342.08 65.5902C342.136 65.5505 342.199 65.5225 342.266 65.5079C343.422 65.2438 344.558 64.8956 345.663 64.4659C345.727 64.4405 345.795 64.428 345.863 64.429C345.932 64.4299 345.999 64.4444 346.062 64.4715C346.125 64.4986 346.182 64.5378 346.23 64.5869C346.277 64.636 346.315 64.694 346.34 64.7576C346.366 64.8213 346.378 64.8892 346.377 64.9577C346.376 65.0262 346.362 65.0938 346.335 65.1567C346.308 65.2196 346.268 65.2765 346.219 65.3243C346.17 65.372 346.112 65.4096 346.049 65.4349C344.897 65.8953 343.713 66.268 342.506 66.5499L342.381 66.5394Z"
            fill="white" />
        <path
            d="M303.222 246.545C303.088 246.543 302.96 246.49 302.863 246.397C302.766 246.304 302.708 246.178 302.701 246.045C302.698 245.976 302.709 245.908 302.732 245.844C302.756 245.779 302.792 245.72 302.838 245.67C302.885 245.62 302.941 245.579 303.003 245.55C303.065 245.522 303.132 245.506 303.201 245.503C305.608 245.378 308.067 245.159 310.495 244.836C310.631 244.821 310.768 244.859 310.877 244.943C310.985 245.026 311.058 245.149 311.078 245.284C311.089 245.352 311.085 245.421 311.068 245.488C311.051 245.554 311.02 245.617 310.978 245.671C310.937 245.726 310.884 245.771 310.824 245.805C310.764 245.839 310.698 245.86 310.63 245.868C308.171 246.201 305.681 246.42 303.242 246.535L303.222 246.545ZM317.81 244.617C317.671 244.632 317.533 244.592 317.424 244.505C317.316 244.418 317.246 244.292 317.231 244.154C317.216 244.015 317.256 243.877 317.343 243.768C317.43 243.66 317.557 243.59 317.695 243.575C320.144 243.044 322.53 242.419 324.781 241.71C324.847 241.682 324.919 241.669 324.991 241.671C325.063 241.672 325.135 241.689 325.2 241.719C325.265 241.75 325.324 241.793 325.371 241.848C325.419 241.902 325.455 241.966 325.477 242.035C325.498 242.103 325.506 242.176 325.498 242.248C325.49 242.32 325.467 242.389 325.431 242.452C325.395 242.514 325.347 242.569 325.288 242.611C325.23 242.654 325.164 242.684 325.093 242.7C322.811 243.419 320.404 244.055 317.914 244.596L317.81 244.617ZM331.825 240.116C331.725 240.116 331.628 240.088 331.545 240.034C331.462 239.981 331.396 239.904 331.356 239.814C331.326 239.751 331.308 239.684 331.305 239.615C331.301 239.546 331.311 239.477 331.335 239.412C331.358 239.347 331.394 239.288 331.44 239.237C331.487 239.186 331.543 239.145 331.606 239.115C333.372 238.326 335.076 237.403 336.701 236.354L337.941 235.521C338.056 235.445 338.196 235.418 338.331 235.446C338.465 235.473 338.584 235.552 338.66 235.666C338.699 235.722 338.727 235.785 338.741 235.852C338.756 235.919 338.757 235.988 338.744 236.055C338.731 236.122 338.705 236.185 338.668 236.242C338.63 236.299 338.581 236.348 338.525 236.385L337.274 237.219C335.613 238.299 333.871 239.25 332.064 240.064C331.999 240.094 331.928 240.112 331.856 240.116H331.825ZM344.089 231.999C344.014 231.998 343.94 231.982 343.872 231.951C343.804 231.921 343.743 231.877 343.693 231.821C343.603 231.716 343.559 231.579 343.569 231.441C343.578 231.303 343.642 231.174 343.745 231.082C345.591 229.489 347.302 227.746 348.861 225.872C348.952 225.767 349.08 225.701 349.218 225.69C349.357 225.678 349.494 225.721 349.601 225.809C349.654 225.852 349.697 225.906 349.729 225.966C349.761 226.026 349.78 226.093 349.786 226.161C349.792 226.229 349.784 226.297 349.763 226.362C349.742 226.427 349.708 226.487 349.664 226.539C348.071 228.443 346.329 230.216 344.454 231.842C344.366 231.934 344.247 231.99 344.12 231.999H344.089ZM353.352 220.641C353.268 220.641 353.186 220.62 353.113 220.578C352.99 220.516 352.897 220.407 352.854 220.277C352.811 220.146 352.822 220.003 352.883 219.88C353.224 219.227 353.536 218.56 353.821 217.88C354.465 216.324 354.987 214.722 355.384 213.086C355.401 213.018 355.43 212.953 355.472 212.896C355.513 212.84 355.565 212.791 355.625 212.755C355.685 212.718 355.752 212.693 355.821 212.682C355.891 212.671 355.962 212.674 356.03 212.69C356.099 212.707 356.163 212.737 356.22 212.778C356.277 212.819 356.325 212.871 356.362 212.931C356.399 212.991 356.423 213.058 356.434 213.127C356.445 213.197 356.443 213.268 356.426 213.336C356.02 215.026 355.48 216.682 354.811 218.286C354.519 218.984 354.196 219.672 353.842 220.37C353.798 220.453 353.732 220.522 353.651 220.57C353.57 220.618 353.477 220.642 353.383 220.641H353.352ZM356.968 206.449C356.899 206.445 356.831 206.427 356.768 206.396C356.706 206.366 356.65 206.323 356.604 206.271C356.559 206.218 356.524 206.157 356.502 206.091C356.481 206.025 356.473 205.955 356.478 205.886C356.572 204.469 356.624 202.968 356.624 201.312C356.624 200.395 356.624 199.488 356.624 198.571C356.621 198.502 356.632 198.433 356.657 198.368C356.681 198.303 356.718 198.243 356.766 198.193C356.813 198.143 356.87 198.102 356.934 198.074C356.997 198.046 357.065 198.031 357.135 198.029C357.203 198.027 357.272 198.038 357.336 198.062C357.401 198.087 357.46 198.124 357.509 198.171C357.559 198.219 357.598 198.276 357.625 198.34C357.652 198.403 357.666 198.471 357.666 198.54C357.666 199.467 357.666 200.384 357.666 201.312C357.666 203 357.614 204.521 357.52 205.959C357.512 206.092 357.454 206.216 357.357 206.307C357.26 206.398 357.132 206.449 356.999 206.449H356.968ZM356.77 191.704C356.637 191.705 356.509 191.654 356.412 191.563C356.315 191.472 356.257 191.347 356.249 191.215C356.155 189.131 356.061 186.817 356.061 184.546V183.806C356.057 183.737 356.067 183.668 356.092 183.603C356.116 183.538 356.155 183.479 356.204 183.431C356.254 183.382 356.313 183.345 356.378 183.322C356.444 183.298 356.513 183.289 356.582 183.296C356.721 183.296 356.853 183.35 356.951 183.448C357.049 183.546 357.103 183.678 357.103 183.817V184.546C357.103 186.797 357.197 189.058 357.291 191.163C357.294 191.231 357.283 191.299 357.259 191.364C357.236 191.428 357.2 191.487 357.153 191.537C357.107 191.588 357.051 191.628 356.989 191.657C356.926 191.686 356.859 191.702 356.791 191.704H356.77ZM401.315 185.286C400.367 185.286 399.44 185.286 398.554 185.223C398.486 185.221 398.419 185.204 398.356 185.176C398.294 185.147 398.238 185.106 398.192 185.056C398.145 185.006 398.109 184.947 398.086 184.882C398.062 184.818 398.051 184.75 398.054 184.681C398.057 184.613 398.073 184.546 398.102 184.484C398.13 184.421 398.171 184.365 398.221 184.319C398.272 184.273 398.331 184.236 398.395 184.213C398.459 184.189 398.527 184.178 398.596 184.181C399.471 184.181 400.388 184.244 401.315 184.244C402.843 184.251 404.37 184.175 405.89 184.015C406.028 183.999 406.167 184.04 406.275 184.127C406.383 184.214 406.453 184.34 406.468 184.478C406.483 184.616 406.443 184.755 406.356 184.863C406.269 184.972 406.143 185.041 406.004 185.057C404.457 185.216 402.902 185.292 401.347 185.286H401.315ZM391.219 184.754C388.78 184.567 386.3 184.348 383.862 184.098C383.793 184.091 383.727 184.071 383.666 184.039C383.605 184.007 383.552 183.962 383.508 183.909C383.464 183.856 383.432 183.794 383.412 183.728C383.392 183.662 383.386 183.593 383.393 183.525C383.4 183.456 383.42 183.39 383.452 183.329C383.484 183.268 383.529 183.214 383.582 183.171C383.635 183.127 383.697 183.095 383.762 183.075C383.828 183.055 383.898 183.049 383.966 183.056C386.394 183.306 388.864 183.535 391.26 183.723C391.398 183.723 391.531 183.778 391.629 183.875C391.726 183.973 391.781 184.106 391.781 184.244C391.781 184.382 391.726 184.514 391.629 184.612C391.531 184.71 391.398 184.765 391.26 184.765L391.219 184.754ZM413.101 183.264C413.001 183.263 412.903 183.234 412.818 183.181C412.734 183.128 412.665 183.052 412.621 182.962C412.565 182.836 412.561 182.693 412.609 182.564C412.658 182.436 412.756 182.331 412.882 182.274C415.066 181.349 416.917 179.778 418.185 177.773C418.218 177.708 418.263 177.651 418.319 177.605C418.374 177.559 418.439 177.525 418.508 177.505C418.577 177.486 418.65 177.48 418.721 177.49C418.793 177.5 418.862 177.524 418.923 177.562C418.985 177.6 419.038 177.65 419.079 177.709C419.12 177.768 419.148 177.835 419.162 177.906C419.176 177.977 419.175 178.05 419.16 178.12C419.144 178.19 419.114 178.257 419.071 178.315C417.7 180.499 415.692 182.212 413.319 183.223C413.25 183.251 413.176 183.266 413.101 183.264ZM376.578 183.264H376.516C374.088 182.952 371.618 182.597 369.222 182.222C369.154 182.212 369.089 182.189 369.03 182.153C368.972 182.118 368.92 182.071 368.88 182.016C368.839 181.961 368.81 181.898 368.793 181.832C368.777 181.765 368.774 181.696 368.784 181.628C368.807 181.493 368.882 181.371 368.993 181.29C369.104 181.208 369.242 181.173 369.378 181.191C371.796 181.566 374.244 181.92 376.672 182.233C376.81 182.241 376.94 182.304 377.031 182.407C377.123 182.511 377.17 182.647 377.162 182.785C377.154 182.923 377.091 183.052 376.987 183.144C376.884 183.236 376.748 183.283 376.61 183.275L376.578 183.264ZM361.99 181.003H361.897C359.49 180.565 357.051 180.086 354.655 179.586C354.517 179.558 354.395 179.477 354.317 179.36C354.239 179.242 354.21 179.099 354.238 178.961C354.266 178.823 354.347 178.701 354.464 178.623C354.581 178.545 354.725 178.516 354.863 178.544C357.26 179.044 359.688 179.523 362.084 179.961C362.152 179.972 362.217 179.997 362.275 180.034C362.334 180.07 362.384 180.118 362.424 180.174C362.463 180.23 362.492 180.294 362.507 180.361C362.522 180.428 362.523 180.498 362.511 180.565C362.486 180.682 362.421 180.787 362.329 180.863C362.236 180.938 362.12 180.98 362.001 180.982L361.99 181.003ZM347.559 177.981H347.434C345.058 177.419 342.64 176.814 340.275 176.189C340.207 176.172 340.142 176.142 340.086 176.1C340.029 176.058 339.981 176.005 339.945 175.944C339.909 175.884 339.885 175.817 339.874 175.747C339.864 175.677 339.867 175.606 339.884 175.538C339.901 175.469 339.932 175.405 339.974 175.348C340.016 175.292 340.069 175.244 340.129 175.208C340.19 175.171 340.257 175.147 340.326 175.137C340.396 175.127 340.467 175.13 340.536 175.147C342.901 175.772 345.298 176.377 347.673 176.929C347.808 176.964 347.925 177.049 347.999 177.167C348.073 177.286 348.098 177.428 348.069 177.565C348.042 177.677 347.977 177.776 347.887 177.848C347.796 177.92 347.685 177.959 347.569 177.96L347.559 177.981ZM357.124 177.002H357.041C356.905 176.979 356.784 176.904 356.702 176.793C356.621 176.682 356.585 176.544 356.603 176.408C356.968 173.93 357.586 171.497 358.448 169.145C358.495 169.015 358.591 168.909 358.716 168.851C358.841 168.792 358.985 168.786 359.114 168.833C359.244 168.88 359.35 168.976 359.409 169.101C359.467 169.226 359.474 169.37 359.427 169.499C358.597 171.781 358.003 174.141 357.656 176.543C357.636 176.667 357.572 176.779 357.476 176.859C357.381 176.939 357.26 176.983 357.135 176.981L357.124 177.002ZM333.294 174.22C333.246 174.229 333.196 174.229 333.148 174.22C330.803 173.542 328.417 172.813 326.083 172.063C326.017 172.043 325.956 172.01 325.904 171.965C325.851 171.921 325.808 171.867 325.777 171.806C325.745 171.744 325.727 171.677 325.722 171.609C325.718 171.54 325.727 171.471 325.75 171.406C325.793 171.275 325.886 171.166 326.009 171.104C326.132 171.041 326.275 171.03 326.406 171.073C328.73 171.813 331.095 172.542 333.44 173.219C333.572 173.258 333.684 173.348 333.751 173.469C333.817 173.59 333.833 173.733 333.794 173.865C333.757 173.965 333.69 174.051 333.602 174.11C333.515 174.17 333.41 174.201 333.304 174.199L333.294 174.22ZM420.103 171.542C419.982 171.539 419.865 171.496 419.772 171.418C419.679 171.34 419.616 171.233 419.592 171.115C419.029 168.817 417.735 166.766 415.903 165.269C415.855 165.221 415.816 165.165 415.79 165.102C415.764 165.039 415.75 164.972 415.75 164.904C415.75 164.836 415.764 164.769 415.79 164.706C415.816 164.644 415.855 164.587 415.903 164.54C415.952 164.491 416.01 164.452 416.073 164.425C416.137 164.399 416.205 164.385 416.273 164.385C416.342 164.385 416.41 164.399 416.474 164.425C416.537 164.452 416.595 164.491 416.643 164.54C418.646 166.183 420.056 168.438 420.655 170.958C420.669 171.025 420.669 171.094 420.656 171.162C420.643 171.229 420.617 171.293 420.579 171.35C420.541 171.407 420.493 171.456 420.436 171.494C420.379 171.533 420.316 171.559 420.249 171.573L420.103 171.542ZM319.258 169.718C319.199 169.729 319.139 169.729 319.081 169.718C316.705 168.874 314.381 167.999 312.152 167.124C312.025 167.07 311.923 166.97 311.869 166.844C311.815 166.718 311.811 166.575 311.86 166.446C311.885 166.383 311.923 166.325 311.97 166.276C312.018 166.226 312.075 166.187 312.138 166.16C312.201 166.133 312.268 166.119 312.337 166.118C312.405 166.117 312.473 166.129 312.537 166.155C314.746 167.03 317.07 167.895 319.425 168.739C319.554 168.784 319.66 168.878 319.721 169.001C319.781 169.124 319.791 169.265 319.748 169.395C319.705 169.486 319.638 169.564 319.553 169.617C319.468 169.671 319.369 169.699 319.268 169.697L319.258 169.718ZM305.545 164.269C305.477 164.284 305.405 164.284 305.337 164.269C303.044 163.227 300.794 162.185 298.658 161.091C298.591 161.063 298.532 161.022 298.482 160.97C298.432 160.919 298.394 160.857 298.369 160.79C298.344 160.723 298.334 160.651 298.338 160.58C298.342 160.508 298.361 160.438 298.393 160.374C298.425 160.311 298.47 160.254 298.526 160.208C298.581 160.163 298.645 160.129 298.714 160.109C298.783 160.089 298.855 160.084 298.926 160.093C298.997 160.102 299.065 160.126 299.127 160.163C301.211 161.205 303.482 162.247 305.764 163.289C305.902 163.318 306.023 163.401 306.1 163.519C306.178 163.637 306.205 163.781 306.176 163.92C306.147 164.058 306.064 164.179 305.946 164.256C305.827 164.333 305.683 164.36 305.545 164.331V164.269ZM362.355 163.362C362.244 163.362 362.135 163.329 362.043 163.268C361.932 163.185 361.859 163.062 361.839 162.925C361.82 162.788 361.855 162.649 361.938 162.539C363.301 160.669 364.975 159.047 366.888 157.746L367.43 157.402C367.488 157.366 367.553 157.341 367.62 157.33C367.688 157.319 367.757 157.321 367.824 157.336C367.89 157.352 367.953 157.38 368.009 157.42C368.065 157.46 368.112 157.51 368.149 157.569C368.185 157.627 368.209 157.691 368.221 157.759C368.232 157.827 368.23 157.896 368.214 157.963C368.199 158.029 368.17 158.092 368.13 158.148C368.091 158.204 368.04 158.251 367.982 158.288L367.471 158.611C365.657 159.845 364.067 161.382 362.772 163.154C362.722 163.213 362.66 163.26 362.589 163.292C362.519 163.325 362.443 163.341 362.366 163.341L362.355 163.362ZM410.152 161.278C410.064 161.277 409.979 161.256 409.902 161.216C409.026 160.747 408.172 160.309 407.359 159.903C406.036 159.257 404.671 158.652 403.295 158.11C403.227 158.09 403.163 158.055 403.109 158.008C403.054 157.962 403.01 157.904 402.978 157.84C402.947 157.776 402.929 157.705 402.926 157.634C402.923 157.562 402.935 157.491 402.961 157.424C402.987 157.357 403.026 157.296 403.077 157.245C403.127 157.194 403.187 157.154 403.254 157.128C403.321 157.101 403.392 157.089 403.464 157.091C403.535 157.093 403.606 157.111 403.67 157.141C405.077 157.683 406.473 158.308 407.838 158.975C408.651 159.382 409.526 159.819 410.412 160.299C410.532 160.367 410.621 160.479 410.66 160.611C410.698 160.743 410.684 160.885 410.621 161.007C410.574 161.086 410.506 161.151 410.426 161.195C410.345 161.239 410.254 161.261 410.162 161.257L410.152 161.278ZM292.406 157.579C292.314 157.581 292.223 157.555 292.145 157.506C289.967 156.245 287.852 154.932 285.893 153.588C285.792 153.507 285.725 153.39 285.705 153.262C285.685 153.134 285.714 153.003 285.786 152.895C285.857 152.786 285.967 152.709 286.093 152.677C286.219 152.645 286.352 152.662 286.466 152.723C288.446 154.047 290.54 155.36 292.718 156.61C292.816 156.668 292.892 156.756 292.935 156.862C292.978 156.967 292.985 157.083 292.956 157.193C292.926 157.303 292.861 157.4 292.772 157.47C292.682 157.539 292.571 157.578 292.458 157.579H292.406ZM396.449 155.943H396.324C393.955 155.381 391.549 154.984 389.124 154.755C388.988 154.742 388.862 154.675 388.774 154.57C388.686 154.465 388.644 154.329 388.655 154.192C388.671 154.055 388.74 153.929 388.847 153.842C388.954 153.754 389.091 153.712 389.228 153.724C391.685 153.956 394.122 154.36 396.522 154.932C396.66 154.947 396.787 155.017 396.874 155.125C396.961 155.234 397.001 155.372 396.986 155.511C396.971 155.649 396.901 155.775 396.793 155.862C396.684 155.949 396.546 155.99 396.408 155.974L396.449 155.943ZM374.515 155.61C374.397 155.608 374.283 155.568 374.19 155.494C374.098 155.42 374.032 155.318 374.005 155.203C373.973 155.069 373.996 154.928 374.068 154.811C374.141 154.694 374.256 154.61 374.39 154.578C376.22 154.145 378.08 153.849 379.954 153.692C380.559 153.692 381.174 153.599 381.778 153.567C381.847 153.56 381.917 153.567 381.983 153.588C382.049 153.61 382.11 153.644 382.162 153.69C382.214 153.737 382.256 153.793 382.285 153.856C382.314 153.919 382.329 153.988 382.33 154.057C382.336 154.194 382.288 154.327 382.196 154.428C382.105 154.529 381.977 154.591 381.841 154.599C381.236 154.599 380.642 154.682 380.048 154.734C378.227 154.885 376.419 155.171 374.64 155.589L374.515 155.61ZM280.183 149.358C280.067 149.36 279.953 149.323 279.86 149.253C277.88 147.701 275.984 146.075 274.223 144.439C274.174 144.391 274.135 144.333 274.109 144.27C274.082 144.206 274.069 144.138 274.069 144.069C274.069 144.001 274.082 143.933 274.109 143.869C274.135 143.806 274.174 143.748 274.223 143.7C274.322 143.603 274.455 143.55 274.593 143.55C274.731 143.55 274.863 143.603 274.963 143.7C276.703 145.325 278.578 146.93 280.537 148.461C280.645 148.547 280.714 148.672 280.729 148.809C280.745 148.946 280.706 149.083 280.621 149.191C280.565 149.245 280.497 149.286 280.423 149.309C280.349 149.333 280.27 149.339 280.193 149.326L280.183 149.358ZM269.43 139.302C269.355 139.302 269.281 139.286 269.213 139.255C269.145 139.225 269.084 139.18 269.034 139.125C267.396 137.264 265.869 135.308 264.459 133.269C264.381 133.155 264.351 133.015 264.374 132.879C264.397 132.743 264.473 132.621 264.584 132.54C264.7 132.465 264.84 132.438 264.976 132.463C265.111 132.488 265.232 132.564 265.314 132.675C266.72 134.674 268.244 136.588 269.878 138.406C269.973 138.504 270.027 138.634 270.027 138.771C270.027 138.907 269.973 139.038 269.878 139.136C269.82 139.19 269.75 139.231 269.674 139.254C269.599 139.277 269.518 139.283 269.44 139.271L269.43 139.302ZM261.094 127.184C260.997 127.183 260.903 127.156 260.822 127.104C260.741 127.052 260.676 126.979 260.635 126.892C259.493 124.689 258.507 122.409 257.686 120.067C257.643 119.936 257.652 119.792 257.712 119.668C257.773 119.543 257.879 119.447 258.009 119.4C258.139 119.357 258.281 119.367 258.404 119.427C258.527 119.487 258.621 119.594 258.666 119.723C259.471 122.022 260.439 124.261 261.562 126.423C261.624 126.546 261.635 126.689 261.592 126.82C261.549 126.95 261.456 127.059 261.333 127.121C261.257 127.152 261.175 127.163 261.094 127.153V127.184ZM256.332 113.263C256.208 113.264 256.088 113.22 255.994 113.14C255.9 113.059 255.839 112.947 255.821 112.825C255.717 112.273 255.633 111.721 255.55 111.158C255.295 109.321 255.167 107.469 255.165 105.614V105.396C255.165 105.257 255.219 105.125 255.317 105.027C255.415 104.93 255.547 104.875 255.686 104.875C255.824 104.875 255.956 104.93 256.054 105.027C256.152 105.125 256.207 105.257 256.207 105.396V105.604C256.205 107.41 256.33 109.213 256.582 111.002C256.665 111.554 256.748 112.096 256.842 112.638C256.867 112.773 256.836 112.912 256.758 113.026C256.68 113.139 256.561 113.217 256.425 113.242L256.332 113.263ZM256.384 98.5914H256.29C256.155 98.566 256.035 98.4883 255.957 98.3751C255.879 98.2618 255.849 98.1224 255.873 97.987C256.326 95.5393 256.985 93.1341 257.842 90.7972C257.894 90.6683 257.993 90.564 258.119 90.5058C258.245 90.4476 258.388 90.44 258.52 90.4846C258.648 90.5337 258.751 90.6312 258.808 90.756C258.864 90.8808 258.869 91.0229 258.822 91.1515C257.98 93.433 257.335 95.7827 256.894 98.1746C256.871 98.3027 256.8 98.4171 256.696 98.4946C256.591 98.5721 256.461 98.6067 256.332 98.5914H256.384ZM261.469 84.8265C261.377 84.8219 261.288 84.7969 261.208 84.7536C261.089 84.682 261.003 84.5667 260.968 84.4323C260.933 84.298 260.952 84.1552 261.021 84.0346C262.273 81.8819 263.721 79.8484 265.345 77.9598C265.439 77.8746 265.562 77.8269 265.689 77.8257C265.816 77.8244 265.939 77.8697 266.035 77.9529C266.131 78.0362 266.193 78.1517 266.21 78.2777C266.227 78.4037 266.197 78.5315 266.126 78.6371C264.565 80.4868 263.17 82.4708 261.958 84.566C261.907 84.6564 261.831 84.7295 261.738 84.7759C261.645 84.8223 261.54 84.8399 261.437 84.8265H261.469ZM271.065 73.7292C270.958 73.7286 270.853 73.6947 270.765 73.6321C270.678 73.5695 270.612 73.4813 270.576 73.3796C270.541 73.278 270.538 73.1678 270.568 73.0644C270.597 72.9609 270.658 72.8692 270.742 72.8019C272.711 71.2732 274.822 69.9368 277.047 68.811C277.171 68.7488 277.315 68.7386 277.447 68.7826C277.579 68.8265 277.688 68.9211 277.75 69.0455C277.812 69.1698 277.822 69.3138 277.778 69.4457C277.734 69.5776 277.64 69.6866 277.515 69.7488C275.352 70.845 273.297 72.1428 271.378 73.625C271.28 73.7003 271.158 73.7373 271.034 73.7292H271.065ZM335.065 67.2376C332.584 67.1831 330.109 66.9638 327.657 66.5811C327.518 66.5618 327.393 66.4883 327.309 66.3769C327.225 66.2656 327.189 66.1254 327.208 65.9872C327.228 65.849 327.301 65.7242 327.413 65.6401C327.524 65.5561 327.664 65.5198 327.802 65.5391C330.216 65.9187 332.653 66.1345 335.096 66.1852C335.235 66.1852 335.367 66.24 335.465 66.3378C335.562 66.4355 335.617 66.568 335.617 66.7062C335.617 66.8443 335.562 66.9769 335.465 67.0746C335.367 67.1723 335.235 67.2272 335.096 67.2272L335.065 67.2376ZM284.07 66.9667C284.001 66.9776 283.931 66.975 283.864 66.9589C283.797 66.9428 283.733 66.9136 283.677 66.873C283.621 66.8324 283.573 66.7811 283.537 66.722C283.501 66.663 283.476 66.5974 283.465 66.529C283.454 66.4606 283.457 66.3907 283.473 66.3233C283.489 66.2559 283.518 66.1923 283.559 66.1362C283.6 66.0801 283.651 66.0325 283.71 65.9962C283.769 65.9599 283.834 65.9356 283.903 65.9247C286.261 65.1593 288.661 64.533 291.093 64.0491C291.16 64.0355 291.23 64.0355 291.298 64.0492C291.366 64.0629 291.43 64.0899 291.487 64.1287C291.545 64.1675 291.594 64.2173 291.631 64.2751C291.669 64.333 291.695 64.3979 291.708 64.4659C291.723 64.5324 291.724 64.6013 291.711 64.6683C291.699 64.7354 291.673 64.7992 291.635 64.8558C291.597 64.9124 291.548 64.9606 291.49 64.9975C291.433 65.0344 291.368 65.0591 291.301 65.0702C288.909 65.5487 286.547 66.1645 284.226 66.9146L284.07 66.9667ZM320.456 65.3307H320.363C318.122 64.9139 315.59 64.445 313.069 64.0907C312.934 64.0701 312.812 63.9974 312.731 63.8883C312.649 63.7792 312.613 63.6424 312.631 63.5072C312.638 63.439 312.66 63.3729 312.694 63.3131C312.727 63.2533 312.773 63.2009 312.827 63.1591C312.882 63.1172 312.944 63.0868 313.011 63.0697C313.077 63.0525 313.146 63.0489 313.214 63.0592C315.715 63.4134 318.258 63.8928 320.508 64.3096C320.644 64.3349 320.763 64.4126 320.841 64.5259C320.919 64.6391 320.95 64.7786 320.925 64.9139C320.907 65.0299 320.852 65.1367 320.767 65.2178C320.682 65.2988 320.573 65.3495 320.456 65.362V65.3307ZM298.491 63.9865C298.353 63.9948 298.217 63.9479 298.113 63.856C298.01 63.7642 297.947 63.635 297.939 63.4968C297.93 63.3586 297.977 63.2228 298.069 63.1192C298.161 63.0157 298.29 62.9528 298.428 62.9445C299.752 62.7987 301.169 62.6632 302.596 62.5486C303.513 62.4756 304.482 62.434 305.472 62.434H305.816C305.885 62.4353 305.952 62.4501 306.015 62.4776C306.077 62.505 306.134 62.5445 306.182 62.5939C306.229 62.6432 306.266 62.7015 306.291 62.7652C306.316 62.8289 306.328 62.897 306.327 62.9654C306.319 63.1001 306.261 63.2271 306.165 63.3215C306.069 63.4159 305.941 63.471 305.806 63.476H305.472C304.514 63.476 303.576 63.476 302.669 63.5802C301.231 63.6948 299.835 63.8302 298.501 63.9865H298.491Z"
            fill="white" />
        <path
            d="M295.74 246.566C294.5 246.514 293.27 246.42 292.083 246.305C292.014 246.3 291.948 246.281 291.887 246.25C291.827 246.219 291.773 246.175 291.729 246.123C291.685 246.071 291.653 246.01 291.633 245.945C291.613 245.879 291.606 245.81 291.614 245.743C291.617 245.674 291.635 245.607 291.666 245.545C291.697 245.484 291.74 245.43 291.793 245.386C291.846 245.342 291.907 245.309 291.973 245.29C292.039 245.27 292.108 245.265 292.176 245.274C293.354 245.388 294.563 245.472 295.792 245.524C295.93 245.524 296.063 245.579 296.16 245.676C296.258 245.774 296.313 245.907 296.313 246.045C296.313 246.183 296.258 246.315 296.16 246.413C296.063 246.511 295.93 246.566 295.792 246.566H295.74Z"
            fill="white" />
    </g>
    <path
        d="M392.67 27.8822L355.877 26.3723C354.025 26.2963 352.463 27.7356 352.387 29.5871L351.703 46.2451C351.627 48.0966 353.067 49.6591 354.918 49.7351L391.711 51.245C393.563 51.321 395.125 49.8817 395.201 48.0302L395.885 31.3722C395.961 29.5207 394.522 27.9582 392.67 27.8822Z"
        fill="#F97316" />
    <path opacity="0.8"
        d="M392.67 27.8822L355.877 26.3723C354.025 26.2963 352.463 27.7356 352.387 29.5871L351.703 46.2451C351.627 48.0966 353.067 49.6591 354.918 49.7351L391.711 51.245C393.563 51.321 395.125 49.8817 395.201 48.0302L395.885 31.3722C395.961 29.5207 394.522 27.9582 392.67 27.8822Z"
        fill="white" />
    <path opacity="0.4"
        d="M373.63 43.2716C373.522 43.2711 373.417 43.2384 373.328 43.1778L354.28 30.0694C354.223 30.0308 354.174 29.9811 354.136 29.9234C354.098 29.8656 354.072 29.8009 354.06 29.7331C354.047 29.6652 354.048 29.5955 354.062 29.528C354.077 29.4606 354.105 29.3967 354.144 29.34C354.224 29.2297 354.343 29.1541 354.477 29.1289C354.611 29.1037 354.749 29.1308 354.863 29.2046L373.619 42.1462L393.417 30.7884C393.538 30.7209 393.68 30.7039 393.813 30.741C393.945 30.7781 394.058 30.8663 394.126 30.9864C394.194 31.1054 394.213 31.2466 394.178 31.3792C394.143 31.5119 394.057 31.6254 393.938 31.695L373.911 43.157C373.832 43.224 373.733 43.2642 373.63 43.2716Z"
        fill="#F97316" />
    <path opacity="0.4"
        d="M392.969 48.367C392.865 48.3677 392.762 48.3349 392.678 48.2732L381.778 40.6978C381.721 40.6592 381.672 40.6095 381.634 40.5518C381.597 40.494 381.571 40.4293 381.558 40.3615C381.545 40.2936 381.546 40.2239 381.561 40.1565C381.576 40.089 381.603 40.0251 381.643 39.9685C381.724 39.8569 381.846 39.7814 381.982 39.7581C382.118 39.7348 382.258 39.7654 382.372 39.8434L393.272 47.4396C393.328 47.4781 393.375 47.5274 393.412 47.5846C393.449 47.6419 393.474 47.7058 393.485 47.7728C393.497 47.8398 393.495 47.9084 393.48 47.9746C393.465 48.0409 393.436 48.1034 393.397 48.1586C393.347 48.2247 393.282 48.2781 393.208 48.3143C393.134 48.3506 393.052 48.3686 392.969 48.367Z"
        fill="#F97316" />
    <path opacity="0.4"
        d="M353.936 46.7623C353.818 46.7678 353.702 46.7331 353.606 46.6638C353.51 46.5944 353.441 46.4946 353.409 46.3807C353.378 46.2668 353.386 46.1456 353.433 46.037C353.479 45.9283 353.561 45.8387 353.665 45.7828L365.127 39.1348C365.245 39.0817 365.378 39.0741 365.501 39.1134C365.623 39.1527 365.727 39.2362 365.792 39.3477C365.857 39.4592 365.878 39.5908 365.852 39.717C365.825 39.8432 365.753 39.9551 365.648 40.0309L354.186 46.6893C354.111 46.7358 354.025 46.761 353.936 46.7623Z"
        fill="#F97316" />
    <path d="M429.533 36.8112L356.208 53.5353L346.809 59.3392L429.533 36.8112Z" fill="#F97316" />
    <path opacity="0.2" d="M356.208 53.5353L346.809 59.3392L429.533 36.8112" fill="black" />
    <path d="M429.533 36.8112L356.208 53.5353L363.106 58.6098L429.533 36.8112Z" fill="#F97316" />
    <path d="M429.533 36.8112L366.67 49.6695L363.106 58.6098L429.533 36.8112Z" fill="#F97316" />
    <path opacity="0.2" d="M429.533 36.8112L366.67 49.6695L363.106 58.6098L429.533 36.8112Z" fill="black" />
    <path d="M429.533 36.8112L366.669 49.6695L386.467 56.8488L429.533 36.8112Z" fill="#F97316" />
</svg>