<svg xmlns="http://www.w3.org/2000/svg" width="100" height="80" fill="none" xmlns:v="https://vecta.io/nano">
    <style>
        <![CDATA[
        .B {
            fill: #e0e0e0
        }

        .C {
            fill: #2563eb
        }
        ]]>
    </style>
    <path d="M10.945 0h-.425v62.708h.425V0z" class="B" />
    <path d="M15.62 56.838L0 62.945 5.593 80l15.62-6.107-5.593-17.055z" class="C" />
    <path
        d="M15.045 64.692c.94 2.82-.416 5.342-3.511 6.572l-2.331.926 1.164 3.492-2.657 1.056-4.218-12.655 5.007-1.99c3.077-1.223 5.603-.232 6.547 2.598zm-2.713 1.078c-.462-1.385-1.563-1.869-3.204-1.217l-2.182.867 1.463 4.388 2.182-.867c1.688-.671 2.199-1.796 1.741-3.171z"
        fill="#fff" />
    <path d="M32.833 0h-.425v60.416h.425V0z" class="B" />
    <path
        d="M36.151 70.301l-.391 2.196-8.378-1.778 2.104-11.818 8.204 1.741-.391 2.196-5.687-1.207-.457 2.567 5.025 1.067-.379 2.13-5.025-1.066-.486 2.729 5.861 1.244z"
        class="C" />
    <path d="M51.946 0h-.425v65.618h.425V0z" class="B" />
    <path d="M58.247 56.753l-16.266 3.571 3.271 17.76 16.266-3.571-3.271-17.76z" class="C" />
    <path
        d="M55.4 60.66l2.202 11.313-1.967.457-6.504-5.663 1.336 6.862-2.367.549-2.202-11.313 1.984-.46 6.49 5.676-1.338-6.872 2.368-.549z"
        fill="#fff" />
    <path d="M71.526 0h-.425v62.708h.425V0z" class="B" />
    <path
        d="M66.789 67.137c.15-3.122 2.451-5.234 5.408-5.064.737.007 1.463.197 2.124.553s1.24.872 1.693 1.507l-1.474 1.339c-.272-.402-.622-.733-1.026-.967s-.851-.367-1.308-.389c-.811-.046-1.605.261-2.208.854s-.966 1.424-1.009 2.31.239 1.753.782 2.412 1.304 1.055 2.114 1.102a2.83 2.83 0 0 0 1.339-.241c.424-.189.804-.479 1.112-.849l1.338 1.508c-.733.785-1.66 1.317-2.668 1.53s-2.05.097-2.998-.333-1.758-1.155-2.331-2.085-.882-2.024-.89-3.145l.002-.042z"
        class="C" />
    <path d="M90.632 0h-.425v64.303h.425V0z" class="B" />
    <path d="M98.332 58.287l-16.507 1.821 1.668 18.024L100 76.311l-1.668-18.024z" class="C" />
    <path
        d="M95.255 71.298l.202 2.095-7.993.917-1.085-11.275 7.827-.898.202 2.095-5.426.623.236 2.449 4.794-.55.196 2.032-4.794.55.251 2.603 5.592-.642z"
        fill="#fff" />
    <path d="M20.656 0h-.427v25.886h.427V0z" class="B" />
    <path d="M25.331 20.018l-15.62 6.107 5.593 17.055 15.62-6.107-5.593-17.055z" class="C" />
    <path
        d="M26.135 33.796l.784 2.352-8.971 3.565-4.218-12.655 8.785-3.491.784 2.352-6.09 2.42.916 2.749 5.381-2.138.76 2.281-5.381 2.139.974 2.922 6.276-2.494z"
        fill="#fff" />
    <path d="M62.465 0h-.427v28.797h.427V0z" class="B" />
    <path d="M68.75 19.943l-16.266 3.571 3.271 17.76 16.266-3.571-3.271-17.76z" class="C" />
    <path
        d="M57.516 31.867c-.586-3.292 1.307-6.142 4.425-6.804a4.82 4.82 0 0 1 2.342-.026c.773.184 1.497.556 2.12 1.089l-1.216 1.811a3.19 3.19 0 0 0-1.298-.716c-.476-.13-.973-.141-1.453-.034-.855.181-1.609.726-2.096 1.515s-.667 1.756-.501 2.69.665 1.757 1.387 2.289a3.06 3.06 0 0 0 2.463.548 3.15 3.15 0 0 0 1.336-.63c.397-.317.723-.726.956-1.199l1.751 1.191c-.576 1.025-1.415 1.842-2.413 2.349s-2.111.682-3.2.503-2.105-.704-2.922-1.51-1.399-1.857-1.674-3.021l-.008-.044z"
        fill="#fff" />
    <path d="M81.238 0h-.427v25.886h.427V0z" class="B" />
    <path
        d="M84.679 34.655l-.096 2.001-7.633-.437.517-10.767 7.474.428-.096 2.001-5.181-.296-.112 2.339 4.578.262-.093 1.94-4.578-.262-.119 2.486 5.34.306z"
        class="C" />
    <path d="M42.33 0h-.427v23.596h.427V0z" class="B" />
    <path
        d="M48.135 20.29l-2.104 11.818-2.055-.436-4.123-8.315-1.276 7.169-2.473-.525 2.104-11.818 2.073.44 4.104 8.321 1.278-7.178 2.473.525z"
        class="C" />
</svg>