<svg width="500" height="500" viewBox="0 0 500 500" fill="none" xmlns="http://www.w3.org/2000/svg">
<path d="M500 382.4H0V382.65H500V382.4Z" fill="#EBEBEB"/>
<path d="M449.9 391.92H359V392.17H449.9V391.92Z" fill="#EBEBEB"/>
<path d="M331.22 389.21H306.33V389.46H331.22V389.21Z" fill="#EBEBEB"/>
<path d="M388.11 401.21H349.52V401.46H388.11V401.21Z" fill="#EBEBEB"/>
<path d="M75.1 399.53H52.46V399.78H75.1V399.53Z" fill="#EBEBEB"/>
<path d="M110.89 399.53H84V399.78H110.89V399.53Z" fill="#EBEBEB"/>
<path d="M225.15 395.31H178.31V395.56H225.15V395.31Z" fill="#EBEBEB"/>
<path d="M237 337.8H43.91C42.3973 337.797 40.9475 337.195 39.8788 336.124C38.8102 335.054 38.21 333.603 38.21 332.09V60.66C38.2231 59.156 38.8292 57.718 39.8964 56.6582C40.9637 55.5985 42.4059 55.0026 43.91 55H237C238.514 55 239.967 55.6016 241.038 56.6724C242.108 57.7433 242.71 59.1956 242.71 60.71V332.09C242.71 333.604 242.108 335.057 241.038 336.128C239.967 337.198 238.514 337.8 237 337.8ZM43.91 55.2C42.4636 55.2026 41.0774 55.7791 40.0556 56.8027C39.0338 57.8264 38.46 59.2136 38.46 60.66V332.09C38.46 333.536 39.0338 334.924 40.0556 335.947C41.0774 336.971 42.4636 337.547 43.91 337.55H237C238.447 337.547 239.834 336.971 240.858 335.948C241.881 334.924 242.457 333.537 242.46 332.09V60.66C242.457 59.2127 241.881 57.8255 240.858 56.8021C239.834 55.7787 238.447 55.2026 237 55.2H43.91Z" fill="#EBEBEB"/>
<path d="M453.31 337.8H260.21C258.696 337.797 257.246 337.195 256.175 336.125C255.105 335.054 254.503 333.604 254.5 332.09V60.66C254.516 59.1551 255.124 57.7171 256.193 56.6576C257.262 55.5981 258.705 55.0025 260.21 55H453.31C454.812 55.0052 456.252 55.6022 457.317 56.6617C458.382 57.7212 458.987 59.1578 459 60.66V332.09C459 333.601 458.401 335.05 457.335 336.121C456.268 337.191 454.821 337.795 453.31 337.8ZM260.21 55.2C258.763 55.2026 257.375 55.7787 256.352 56.8021C255.329 57.8255 254.753 59.2127 254.75 60.66V332.09C254.753 333.537 255.329 334.924 256.352 335.948C257.375 336.971 258.763 337.547 260.21 337.55H453.31C454.757 337.547 456.145 336.971 457.168 335.948C458.191 334.924 458.767 333.537 458.77 332.09V60.66C458.767 59.2127 458.191 57.8255 457.168 56.8021C456.145 55.7787 454.757 55.2026 453.31 55.2H260.21Z" fill="#EBEBEB"/>
<path d="M429.17 262.11C427.688 262.115 426.213 262.307 424.78 262.68C423.362 260.75 421.565 259.13 419.499 257.919C417.433 256.707 415.142 255.93 412.765 255.634C410.389 255.338 407.977 255.53 405.677 256.198C403.377 256.867 401.238 257.997 399.39 259.52C396.357 254.396 391.779 250.364 386.313 248.003C380.846 245.643 374.773 245.074 368.963 246.379C363.154 247.684 357.907 250.795 353.975 255.267C350.044 259.739 347.63 265.341 347.08 271.27C343.931 270.57 340.659 270.642 337.544 271.48C334.429 272.318 331.562 273.898 329.19 276.083C326.817 278.269 325.008 280.996 323.917 284.032C322.827 287.068 322.487 290.323 322.926 293.519C323.366 296.715 324.572 299.757 326.442 302.386C328.312 305.015 330.79 307.152 333.664 308.616C336.539 310.08 339.725 310.826 342.951 310.792C346.177 310.758 349.347 309.944 352.19 308.42C353.462 313.016 356.085 317.124 359.719 320.212C363.353 323.3 367.83 325.226 372.571 325.74C377.312 326.254 382.098 325.332 386.309 323.095C390.52 320.857 393.962 317.407 396.19 313.19C400.006 316.447 404.666 318.557 409.632 319.276C414.597 319.995 419.665 319.293 424.248 317.252C428.831 315.211 432.743 311.914 435.531 307.743C438.318 303.571 439.868 298.696 440 293.68C442.913 291.432 445.05 288.328 446.109 284.805C447.169 281.281 447.099 277.514 445.909 274.032C444.719 270.55 442.469 267.527 439.474 265.389C436.479 263.251 432.89 262.105 429.21 262.11H429.17Z" fill="#F5F5F5"/>
<path d="M72.67 156.32C70.4248 155.341 67.8828 155.294 65.6027 156.188C63.3225 157.082 61.4908 158.846 60.51 161.09C59.3886 160.528 58.1645 160.2 56.9122 160.126C55.6599 160.052 54.4057 160.234 53.2261 160.661C52.0464 161.087 50.9659 161.75 50.0505 162.607C49.1351 163.465 48.404 164.5 47.9016 165.65C47.3993 166.799 47.1363 168.039 47.1286 169.293C47.1209 170.548 47.3688 171.791 47.857 172.946C48.3453 174.102 49.0637 175.146 49.9685 176.015C50.8734 176.884 51.9456 177.559 53.12 178L70.05 185.39L77.44 168.46C78.4155 166.217 78.461 163.679 77.5667 161.403C76.6723 159.127 74.9112 157.299 72.67 156.32Z" fill="#F5F5F5"/>
<path d="M151.61 75.66C151.233 74.9419 150.718 74.3051 150.095 73.7862C149.471 73.2672 148.752 72.8763 147.977 72.6358C147.202 72.3952 146.388 72.3097 145.58 72.3843C144.773 72.4588 143.987 72.6918 143.27 73.07C142.479 71.6696 141.174 70.6324 139.631 70.1787C138.088 69.7251 136.43 69.8907 135.007 70.6405C133.584 71.3902 132.51 72.665 132.012 74.1942C131.514 75.7233 131.632 77.3863 132.34 78.83L138.1 89.76L149 84C149.72 83.6247 150.358 83.1111 150.879 82.4884C151.4 81.8658 151.793 81.1465 152.036 80.3717C152.278 79.597 152.366 78.782 152.292 77.9734C152.219 77.1649 151.987 76.3788 151.61 75.66Z" fill="#E6E6E6"/>
<path d="M403 50.84C402.622 50.1227 402.107 49.4869 401.483 48.969C400.859 48.4511 400.139 48.0612 399.365 47.8216C398.59 47.582 397.776 47.4974 396.969 47.5726C396.162 47.6478 395.377 47.8814 394.66 48.26C394.283 47.5404 393.768 46.902 393.145 46.3814C392.521 45.8608 391.801 45.468 391.026 45.2257C390.25 44.9833 389.435 44.8961 388.626 44.9689C387.817 45.0417 387.03 45.2731 386.31 45.65C385.591 46.0269 384.952 46.5419 384.432 47.1655C383.911 47.7891 383.518 48.5091 383.276 49.2845C383.034 50.0598 382.946 50.8754 383.019 51.6845C383.092 52.4936 383.323 53.2804 383.7 54L389.46 64.92L400.38 59.17C401.829 58.4098 402.918 57.1067 403.409 55.5458C403.9 53.9848 403.753 52.2929 403 50.84Z" fill="#F5F5F5"/>
<path d="M443 231.57C442.81 230.374 442.155 229.301 441.177 228.587C440.198 227.873 438.977 227.576 437.78 227.76C437.544 226.612 436.875 225.599 435.912 224.931C434.949 224.263 433.766 223.992 432.608 224.173C431.45 224.355 430.406 224.975 429.693 225.905C428.981 226.836 428.654 228.005 428.78 229.17L430.19 238.17L439.19 236.76C440.381 236.573 441.45 235.922 442.164 234.95C442.878 233.978 443.178 232.763 443 231.57Z" fill="#EBEBEB"/>
<path d="M350.53 154.26C350.062 154.113 349.569 154.06 349.081 154.103C348.592 154.147 348.117 154.286 347.682 154.514C347.247 154.741 346.861 155.053 346.547 155.429C346.233 155.806 345.996 156.241 345.85 156.71C345.381 156.564 344.888 156.511 344.399 156.555C343.91 156.599 343.434 156.739 342.999 156.967C342.564 157.195 342.178 157.507 341.864 157.884C341.549 158.261 341.312 158.696 341.165 159.165C341.019 159.634 340.966 160.127 341.01 160.616C341.054 161.105 341.194 161.581 341.422 162.016C341.65 162.451 341.962 162.837 342.339 163.152C342.716 163.466 343.151 163.704 343.62 163.85L350.76 166.08L352.99 158.94C353.284 157.993 353.19 156.968 352.729 156.091C352.268 155.213 351.477 154.555 350.53 154.26Z" fill="#F5F5F5"/>
<path d="M73.3898 63C72.4416 62.7057 71.4154 62.7994 70.5363 63.2605C69.6571 63.7217 68.9967 64.5126 68.6998 65.46C68.2316 65.3142 67.7393 65.2621 67.251 65.3066C66.7627 65.351 66.2879 65.4913 65.8538 65.7192C65.4197 65.9472 65.0347 66.2585 64.7209 66.6352C64.4071 67.0119 64.1705 67.4468 64.0248 67.915C63.879 68.3831 63.8269 68.8754 63.8714 69.3637C63.9158 69.852 64.0561 70.3268 64.284 70.7609C64.512 71.195 64.8232 71.58 65.2 71.8938C65.5767 72.2077 66.0116 72.4442 66.4798 72.59L73.6098 74.82L75.8398 67.68C75.9869 67.2118 76.0402 66.7193 75.9967 66.2305C75.9531 65.7417 75.8136 65.2663 75.586 64.8315C75.3584 64.3968 75.0472 64.0112 74.6704 63.6969C74.2935 63.3826 73.8583 63.1458 73.3898 63Z" fill="#F5F5F5"/>
<path d="M184.91 229.92C184.904 223.964 182.683 218.224 178.68 213.814C174.677 209.405 169.177 206.641 163.25 206.06C160.291 199.408 155.629 193.654 149.735 189.379C143.842 185.104 136.925 182.459 129.683 181.712C122.441 180.964 115.129 182.14 108.487 185.121C101.844 188.102 96.1056 192.783 91.8499 198.69C88.3221 196.119 84.0841 194.703 79.719 194.639C75.3539 194.575 71.0762 195.865 67.4745 198.332C63.8728 200.799 61.124 204.322 59.6064 208.415C58.0888 212.508 57.8769 216.971 58.9999 221.19C55.6633 224 52.9382 227.464 50.9929 231.368C49.0476 235.272 47.9235 239.534 47.6898 243.89C47.4562 248.245 48.1181 252.603 49.6347 256.693C51.1512 260.783 53.4901 264.518 56.5071 267.669C59.524 270.819 63.1548 273.318 67.1752 275.01C71.1956 276.702 75.5203 277.552 79.8821 277.507C84.2439 277.462 88.5502 276.523 92.535 274.749C96.5198 272.975 100.098 270.402 103.05 267.19C106.978 272.294 112.28 276.171 118.335 278.365C124.39 280.559 130.945 280.979 137.231 279.576C143.516 278.173 149.271 275.005 153.818 270.444C158.365 265.884 161.516 260.12 162.9 253.83C168.899 253.331 174.491 250.596 178.568 246.167C182.644 241.738 184.908 235.94 184.91 229.92Z" fill="#EBEBEB"/>
<path d="M346.8 117.42C346.803 113.383 348.308 109.492 351.021 106.504C353.734 103.515 357.462 101.642 361.48 101.25C363.474 96.7315 366.627 92.8208 370.621 89.9147C374.614 87.0086 379.305 85.2104 384.218 84.7027C389.131 84.195 394.09 84.9957 398.594 87.0237C403.097 89.0517 406.984 92.2348 409.86 96.25C412.252 94.5199 415.12 93.5714 418.072 93.5344C421.024 93.4973 423.915 94.3735 426.35 96.0431C428.785 97.7126 430.644 100.094 431.674 102.861C432.703 105.628 432.852 108.645 432.1 111.5C434.37 113.401 436.225 115.748 437.551 118.396C438.876 121.044 439.644 123.935 439.806 126.892C439.968 129.848 439.521 132.806 438.493 135.583C437.464 138.36 435.877 140.895 433.828 143.033C431.78 145.171 429.314 146.865 426.583 148.011C423.853 149.157 420.917 149.729 417.956 149.693C414.995 149.657 412.073 149.014 409.372 147.802C406.67 146.591 404.246 144.837 402.25 142.65C399.593 146.111 396.004 148.742 391.904 150.234C387.803 151.726 383.362 152.016 379.103 151.071C374.843 150.126 370.942 147.984 367.857 144.898C364.773 141.812 362.633 137.91 361.69 133.65C357.623 133.309 353.834 131.45 351.076 128.443C348.317 125.436 346.791 121.501 346.8 117.42Z" fill="#F0F0F0"/>
<path d="M250 427.56C357.082 427.56 443.89 422.492 443.89 416.24C443.89 409.988 357.082 404.92 250 404.92C142.917 404.92 56.1099 409.988 56.1099 416.24C56.1099 422.492 142.917 427.56 250 427.56Z" fill="#F5F5F5"/>
<path d="M136.11 390.75H81.78C80.5077 390.737 79.292 390.222 78.3969 389.318C77.5019 388.413 76.9999 387.192 77 385.92V363.63C77.0024 362.492 77.4061 361.39 78.14 360.52L139.54 287.52C139.994 286.981 140.561 286.548 141.2 286.251C141.839 285.954 142.535 285.8 143.24 285.8H166.77C168.051 285.8 169.28 286.309 170.185 287.215C171.091 288.121 171.6 289.349 171.6 290.63V358.63C171.6 359.911 172.109 361.14 173.015 362.045C173.92 362.951 175.149 363.46 176.43 363.46H182.64C183.921 363.46 185.15 363.969 186.055 364.875C186.961 365.781 187.47 367.009 187.47 368.29V385.88C187.47 387.161 186.961 388.39 186.055 389.295C185.15 390.201 183.921 390.71 182.64 390.71H176.43C175.149 390.71 173.92 391.219 173.015 392.125C172.109 393.031 171.6 394.259 171.6 395.54V409.54C171.6 410.821 171.091 412.05 170.185 412.955C169.28 413.861 168.051 414.37 166.77 414.37H145.77C144.489 414.37 143.26 413.861 142.355 412.955C141.449 412.05 140.94 410.821 140.94 409.54V395.54C140.929 394.266 140.416 393.048 139.511 392.151C138.607 391.253 137.384 390.75 136.11 390.75ZM140.94 360.12V332.92C140.951 332.218 140.744 331.529 140.346 330.95C139.948 330.371 139.379 329.931 138.719 329.69C138.059 329.449 137.341 329.42 136.663 329.606C135.986 329.793 135.384 330.185 134.94 330.73L111.83 357.93C111.412 358.421 111.144 359.022 111.056 359.661C110.968 360.3 111.065 360.951 111.335 361.536C111.606 362.122 112.038 362.618 112.581 362.966C113.124 363.314 113.755 363.499 114.4 363.5H137.52C137.967 363.505 138.411 363.422 138.826 363.254C139.24 363.087 139.618 362.839 139.936 362.524C140.254 362.21 140.507 361.836 140.679 361.423C140.851 361.01 140.94 360.567 140.94 360.12Z" fill="#263238"/>
<path d="M198.37 350.66C198.37 326.66 202.703 309.843 211.37 300.21C220.037 290.577 233.213 285.777 250.9 285.81C259.407 285.81 266.407 286.86 271.9 288.96C276.865 290.751 281.411 293.538 285.26 297.15C288.505 300.243 291.254 303.819 293.41 307.75C295.546 311.865 297.155 316.233 298.2 320.75C300.587 330.397 301.775 340.302 301.74 350.24C301.74 373.18 297.857 389.967 290.09 400.6C282.323 411.233 268.96 416.567 250 416.6C239.333 416.6 230.737 414.903 224.21 411.51C217.56 408.062 211.961 402.888 208 396.53C204.947 391.863 202.573 385.497 200.88 377.43C199.127 368.616 198.286 359.646 198.37 350.66ZM233.21 350.74C233.21 366.84 234.633 377.84 237.48 383.74C240.327 389.64 244.45 392.59 249.85 392.59C251.567 392.606 253.27 392.283 254.861 391.637C256.452 390.992 257.9 390.038 259.12 388.83C261.74 386.33 263.667 382.377 264.9 376.97C266.133 371.563 266.75 363.143 266.75 351.71C266.75 334.93 265.327 323.65 262.48 317.87C259.633 312.09 255.367 309.2 249.68 309.2C243.867 309.2 239.67 312.147 237.09 318.04C234.51 323.933 233.217 334.833 233.21 350.74Z" fill="#263238"/>
<path d="M371.69 390.75H317.37C316.089 390.75 314.861 390.241 313.955 389.335C313.049 388.43 312.54 387.201 312.54 385.92V363.63C312.54 362.493 312.94 361.392 313.67 360.52L375.08 287.52C375.532 286.982 376.097 286.548 376.735 286.251C377.372 285.954 378.067 285.8 378.77 285.8H402.31C403.591 285.8 404.82 286.309 405.725 287.215C406.631 288.121 407.14 289.349 407.14 290.63V358.63C407.135 359.27 407.257 359.905 407.499 360.498C407.741 361.09 408.099 361.629 408.551 362.082C409.003 362.535 409.541 362.894 410.133 363.137C410.725 363.381 411.36 363.504 412 363.5H418.2C419.481 363.5 420.71 364.009 421.615 364.915C422.521 365.821 423.03 367.049 423.03 368.33V385.92C423.03 387.201 422.521 388.43 421.615 389.335C420.71 390.241 419.481 390.75 418.2 390.75H412C410.719 390.75 409.491 391.259 408.585 392.165C407.679 393.071 407.17 394.299 407.17 395.58V409.58C407.17 410.861 406.661 412.09 405.755 412.995C404.85 413.901 403.621 414.41 402.34 414.41H381.34C380.059 414.41 378.831 413.901 377.925 412.995C377.019 412.09 376.51 410.861 376.51 409.58V395.58C376.51 394.301 376.003 393.074 375.099 392.168C374.195 391.263 372.969 390.753 371.69 390.75ZM376.52 360.12V332.92C376.519 332.229 376.306 331.556 375.911 330.99C375.515 330.423 374.956 329.992 374.308 329.753C373.659 329.515 372.954 329.481 372.286 329.655C371.617 329.83 371.019 330.205 370.57 330.73L347.45 357.93C347.033 358.42 346.765 359.019 346.677 359.656C346.588 360.293 346.683 360.942 346.951 361.527C347.219 362.112 347.648 362.608 348.188 362.958C348.728 363.307 349.357 363.495 350 363.5H373.11C373.556 363.504 373.999 363.42 374.413 363.251C374.826 363.083 375.202 362.835 375.519 362.521C375.837 362.206 376.088 361.833 376.26 361.421C376.432 361.008 376.52 360.566 376.52 360.12Z" fill="#263238"/>
<path d="M157.82 298.88C156.89 300.88 155.91 302.68 154.96 304.54L152.16 310.09L149.36 315.66C148.42 317.53 147.45 319.4 146.3 321.24C146.472 319.097 146.884 316.981 147.53 314.93C148.143 312.865 148.936 310.857 149.9 308.93C150.859 307.001 151.998 305.167 153.3 303.45C154.587 301.724 156.108 300.186 157.82 298.88Z" fill="white"/>
<path d="M161.38 303.58C160.51 305.31 159.61 306.94 158.73 308.58L156.14 313.48L153.55 318.4C152.68 320.05 151.79 321.71 150.73 323.33C150.917 321.422 151.316 319.54 151.92 317.72C152.504 315.897 153.244 314.127 154.13 312.43C155.014 310.725 156.062 309.111 157.26 307.61C158.436 306.079 159.823 304.722 161.38 303.58Z" fill="white"/>
<path d="M151.66 296.91C150.89 298.71 150.07 300.4 149.27 302.1L146.92 307.19L144.57 312.29C143.77 314 142.96 315.72 141.98 317.41C142.072 315.474 142.384 313.555 142.91 311.69C143.411 309.817 144.08 307.993 144.91 306.24C145.716 304.487 146.683 302.813 147.8 301.24C148.883 299.627 150.182 298.171 151.66 296.91Z" fill="white"/>
<path d="M381 372.91C382.711 374.228 384.232 375.776 385.52 377.51C386.849 379.227 388.014 381.065 389 383C389.958 384.928 390.747 386.936 391.36 389C392.004 391.051 392.42 393.168 392.6 395.31C391.44 393.47 390.48 391.6 389.53 389.73L386.73 384.16L383.93 378.61C382.94 376.71 382 374.87 381 372.91Z" fill="white"/>
<path d="M377.48 377.61C379.027 378.748 380.41 380.094 381.59 381.61C382.789 383.114 383.837 384.731 384.72 386.44C385.614 388.133 386.354 389.904 386.93 391.73C387.542 393.548 387.944 395.431 388.13 397.34C387.07 395.72 386.18 394.06 385.3 392.41L382.71 387.49L380.12 382.59C379.24 381 378.34 379.34 377.48 377.61Z" fill="white"/>
<path d="M387.19 370.94C388.687 372.188 390.006 373.634 391.11 375.24C392.227 376.811 393.191 378.485 393.99 380.24C394.815 381.995 395.484 383.818 395.99 385.69C396.511 387.556 396.823 389.475 396.92 391.41C395.92 389.71 395.12 388 394.33 386.29L391.98 381.18L389.63 376.1C388.79 374.43 388 372.74 387.19 370.94Z" fill="white"/>
<path d="M426.5 156.28C422.298 154.945 417.908 154.3 413.5 154.37C409.22 154.395 404.982 155.212 401 156.78C399.327 157.437 397.755 158.326 396.33 159.42C396.19 159.54 396.03 159.65 395.92 159.76C395.81 159.87 395.7 159.95 395.52 160.14C395.34 160.33 394.87 160.81 394.52 161.14C393.881 161.864 393.29 162.629 392.75 163.43C390.515 166.716 389.096 170.486 388.61 174.43C388.372 176.297 388.395 178.189 388.68 180.05C388.813 180.925 389.017 181.788 389.29 182.63C389.561 183.474 389.896 184.296 390.29 185.09C391.386 187.144 392.626 189.119 394 191C395.53 193.18 397.3 195.56 399 198.47C400.977 201.693 402.388 205.231 403.17 208.93C403.568 211.011 403.716 213.133 403.61 215.25C403.49 217.326 403.124 219.38 402.52 221.37C401.353 225.182 399.412 228.712 396.82 231.74C395.541 233.228 394.117 234.584 392.57 235.79C391.075 236.966 389.475 238 387.79 238.88C384.537 240.558 381.041 241.715 377.43 242.31C374.05 242.87 370.617 243.031 367.2 242.79C363.942 242.559 360.711 242.03 357.55 241.21C354.58 240.44 351.658 239.495 348.8 238.38C343.24 236.25 338.2 233.81 333.39 231.74C328.934 229.695 324.275 228.126 319.49 227.06C317.321 226.62 315.113 226.398 312.9 226.4C310.655 226.407 308.415 226.621 306.21 227.04C301.56 227.989 297.064 229.578 292.85 231.76C284.11 236.17 276.03 242.89 267.67 249.93C266.157 251.208 264.2 251.837 262.227 251.678C260.253 251.519 258.422 250.586 257.133 249.082C255.844 247.578 255.203 245.626 255.348 243.651C255.494 241.676 256.415 239.839 257.91 238.54C266.16 231.35 274.85 223.64 285.63 217.88C291.11 214.908 296.981 212.72 303.07 211.38C306.238 210.711 309.462 210.339 312.7 210.27C315.974 210.197 319.247 210.455 322.47 211.04C328.428 212.206 334.244 214.006 339.82 216.41C345.12 218.58 350.01 220.81 354.73 222.51C356.994 223.343 359.304 224.045 361.65 224.61C363.809 225.129 366.012 225.444 368.23 225.55C372.129 225.869 376.041 225.111 379.54 223.36C380.275 222.951 380.971 222.475 381.62 221.94C382.224 221.444 382.78 220.891 383.28 220.29C384.239 219.112 384.946 217.751 385.36 216.29C385.545 215.639 385.646 214.967 385.66 214.29C385.676 213.665 385.615 213.04 385.48 212.43C385.045 210.777 384.343 209.206 383.4 207.78C382.29 205.98 380.77 203.96 379.1 201.69C377.172 199.153 375.431 196.479 373.89 193.69C373.017 192.055 372.269 190.357 371.65 188.61C371.044 186.856 370.576 185.057 370.25 183.23C369.616 179.676 369.478 176.052 369.84 172.46C370.537 165.459 372.903 158.728 376.74 152.83C377.704 151.337 378.763 149.908 379.91 148.55C380.5 147.87 381.1 147.2 381.73 146.55C382.02 146.24 382.44 145.85 382.81 145.5C383.18 145.15 383.57 144.83 383.95 144.5C386.806 142.161 389.986 140.248 393.39 138.82C399.587 136.226 406.213 134.808 412.93 134.64C419.49 134.431 426.042 135.285 432.33 137.17C434.713 138.05 436.672 139.804 437.809 142.076C438.945 144.348 439.175 146.967 438.451 149.402C437.727 151.837 436.103 153.905 433.909 155.186C431.715 156.467 429.116 156.866 426.64 156.3L426.5 156.28Z" fill="#263238"/>
<path d="M426.26 157.09C420.886 155.268 415.192 154.587 409.54 155.09C406.814 155.338 404.127 155.915 401.54 156.81C399.399 157.541 397.397 158.629 395.62 160.03L395.05 160.52C393.166 162.25 390.671 163.162 388.115 163.053C385.559 162.944 383.151 161.824 381.42 159.94C379.689 158.056 378.778 155.561 378.887 153.005C378.996 150.449 380.116 148.04 382 146.31C385.503 142.884 389.635 140.167 394.17 138.31C398.252 136.609 402.527 135.416 406.9 134.76C415.48 133.5 424.23 134.058 432.58 136.4C435.352 137.158 437.708 138.987 439.132 141.483C440.555 143.979 440.929 146.938 440.17 149.71C439.411 152.481 437.583 154.838 435.087 156.262C432.591 157.685 429.632 158.058 426.86 157.3L426.33 157.14L426.26 157.09Z" fill="#EA580C"/>
<path d="M239.8 280.85L243.51 286.63C239.78 288.58 235.88 288.29 231.9 288.29C230.21 280.47 239.8 280.85 239.8 280.85Z" fill="#263238"/>
<path d="M217.19 250C221.92 263.61 239.46 281.66 239.46 281.66C239.46 281.66 232.06 283.14 234.07 288.25H244.4L266.64 284.06C267.382 283.887 268.03 283.439 268.454 282.806C268.877 282.172 269.044 281.402 268.92 280.65L260.71 253.11L217.19 250Z" fill="#EA580C"/>
<path d="M303.46 257.79L305.46 265.9C309.38 264.35 312.69 263.29 314.39 259.65C312.42 254.59 303.46 257.79 303.46 257.79Z" fill="#263238"/>
<path d="M285.9 216.18C292.9 228.72 307.66 259.3 307.66 259.3C307.66 259.3 315.24 259.62 314.23 264.95L284.84 272.21C284.184 272.437 283.472 272.442 282.814 272.223C282.156 272.004 281.589 271.574 281.2 271L260.2 253.22C271.66 246.22 285 227.85 285.9 216.18Z" fill="#EA580C"/>
<path opacity="0.1" d="M272.28 242.49C268.838 246.657 264.793 250.287 260.28 253.26L266.28 258.15C272.75 252.36 274.59 246.16 272.28 242.49Z" fill="black"/>
<path d="M264.8 179.77C272.96 181.16 306.85 176.56 309.37 176.44C309.64 174.57 310.5 169.94 312.53 170.76C314.56 171.58 315.6 175.08 315.19 176.76C320 175.9 326.32 185.76 319.13 193.76C308.6 205.58 270.13 207.39 270.13 207.39C270.13 207.39 249.26 181.73 264.8 179.77Z" fill="#EA580C"/>
<path opacity="0.1" d="M267.34 195.5C265.714 195.32 264.068 195.501 262.52 196.03C264.753 200.014 267.301 203.813 270.14 207.39C270.14 207.39 277.9 207.02 287.4 205.56C282.17 201.82 273.88 196.55 267.34 195.5Z" fill="black"/>
<path d="M315.19 176.73C320.05 174.73 323.45 173.73 324.57 175.4C325.69 177.07 324.19 180.58 319.49 181.49C315.18 178.79 315.19 176.73 315.19 176.73Z" fill="#EA580C"/>
<path d="M318.35 180.89C323.47 180.72 326.9 181.02 327.35 182.89C327.8 184.76 325.22 187.48 320.64 186.69C317.63 182.77 318.35 180.89 318.35 180.89Z" fill="#EA580C"/>
<path d="M321.58 186.12C324.87 187.65 326.89 188.99 326.29 190.6C325.69 192.21 322.84 193.45 320.29 191.35C320.26 187.33 321.58 186.12 321.58 186.12Z" fill="#EA580C"/>
<path d="M202.15 205.34C198.39 212.71 174.43 237.11 172.82 239.07C171.16 238.16 166.94 236.07 166.39 238.2C165.84 240.33 168.01 243.25 169.57 243.9C166.01 247.24 170.1 258.19 180.87 257.25C196.64 255.87 221.09 226.14 221.09 226.14C221.09 226.14 213 194.05 202.15 205.34Z" fill="#EA580C"/>
<path opacity="0.1" d="M213.23 216.78C214.066 215.373 215.194 214.162 216.54 213.23C218.402 217.403 219.924 221.721 221.09 226.14C221.09 226.14 216.16 232.14 209.3 238.87C209.43 232.45 210.16 222.65 213.23 216.78Z" fill="black"/>
<path d="M169.57 243.9C165.04 246.58 162.23 248.73 162.9 250.62C163.57 252.51 167.28 253.42 170.82 250.2C171.23 245.13 169.57 243.9 169.57 243.9Z" fill="#EA580C"/>
<path d="M171 248.93C167.8 252.93 166 255.85 167.26 257.34C168.52 258.83 172.2 258.34 174.31 254.22C173 249.47 171 248.93 171 248.93Z" fill="#EA580C"/>
<path d="M173.28 254.64C172.53 258.19 172.4 260.64 174.06 261.1C175.72 261.56 178.4 260.04 178.22 256.76C175 254.31 173.28 254.64 173.28 254.64Z" fill="#EA580C"/>
<path opacity="0.1" d="M260.73 253.21V253.15L247.43 252.15C247.16 257.88 253.83 261.51 262.79 259.97L260.73 253.21Z" fill="black"/>
<path d="M263.19 184.37L235.75 196.12L208.32 207.87C208.32 207.87 211.24 243.33 220.24 255.48C229.24 267.63 246.62 263.89 261.97 257.31C277.32 250.73 291.97 240.74 289.43 225.84C286.89 210.94 263.19 184.37 263.19 184.37Z" fill="#EA580C"/>
<path opacity="0.2" d="M251.25 191L236.31 197.4L221.38 203.8C221.6 200.89 215.5 227.96 225.9 242.39C232.68 251.79 245.34 249.21 256.47 244.44C267.6 239.67 278.19 232.29 276.06 220.9C272.8 203.43 249 189.18 251.25 191Z" fill="white"/>
<path opacity="0.2" d="M246.5 195.22L236.5 199.48L226.55 203.75C226.62 201.65 223.17 221.12 230.55 231.84C235.38 238.84 243.89 237.28 251.31 234.1C258.73 230.92 265.73 225.83 264 217.51C261.41 204.76 244.92 193.83 246.5 195.22Z" fill="white"/>
<path opacity="0.2" d="M176.528 253.345C178.419 252.587 179.158 249.989 178.177 247.544C177.196 245.099 174.867 243.732 172.976 244.491C171.085 245.25 170.346 247.847 171.327 250.292C172.308 252.737 174.637 254.104 176.528 253.345Z" fill="white"/>
<path opacity="0.2" d="M319.48 185.84C319.67 188.47 318.18 190.72 316.15 190.84C314.12 190.96 312.31 188.98 312.15 186.36C311.99 183.74 313.45 181.48 315.48 181.36C317.51 181.24 319.29 183.22 319.48 185.84Z" fill="white"/>
<path d="M175.69 120C135.82 91.78 74.5598 109.09 69.7498 119.75C64.6398 131.1 120.12 161.67 133.75 191.21C153.65 154.24 175.69 120 175.69 120Z" fill="#263238"/>
<path opacity="0.5" d="M161 131.57C129.44 109.57 84.94 119.47 82.06 126.97C78.99 134.97 122.34 159.32 134.45 181.22C146.8 155.37 161 131.57 161 131.57Z" fill="#EA580C"/>
<path d="M164.93 126.23C155.99 126.83 148.42 129.83 141.75 136.87C144.756 135.906 147.959 135.736 151.05 136.376C154.141 137.015 157.014 138.443 159.39 140.52L164.93 126.23Z" fill="#263238"/>
<path d="M223.4 99.55C242.56 39.09 310.8 38.85 324.4 48C334.73 55 290.74 82.93 302.53 123.25C262.85 109.67 223.4 99.55 223.4 99.55Z" fill="#263238"/>
<path opacity="0.5" d="M241.43 98.24C257.43 63.24 294.75 49.24 312.18 52.37C328.66 55.31 279.42 93.74 289.48 127.57C265.7 111.57 241.43 98.24 241.43 98.24Z" fill="#EA580C"/>
<path d="M240.34 92.84C243.424 91.1697 246.808 90.1268 250.298 89.7715C253.787 89.4162 257.312 89.7556 260.67 90.77C258.203 91.3229 255.921 92.5051 254.046 94.2013C252.17 95.8976 250.766 98.0503 249.97 100.45L240.34 92.84Z" fill="#263238"/>
<path d="M241.17 90C243.212 88.0907 245.612 86.6041 248.231 85.6259C250.85 84.6476 253.636 84.197 256.43 84.3C254.638 85.2256 253.117 86.5987 252.013 88.2861C250.909 89.9736 250.26 91.9178 250.13 93.93L241.17 90Z" fill="#263238"/>
<path d="M314.33 126.34C324.41 149.86 288.05 178.34 237.43 200.03C186.81 221.72 141.11 228.4 131 204.87C120.89 181.34 145.24 124.76 195.86 103.07C246.48 81.38 304.25 102.81 314.33 126.34Z" fill="#EA580C"/>
<path opacity="0.1" d="M294.35 128.58C303.69 150.39 275.21 175.39 234.35 192.89C193.49 210.39 155.76 213.76 146.42 191.94C137.08 170.12 159.66 131.37 200.5 113.88C241.34 96.3899 285 106.76 294.35 128.58Z" fill="black"/>
<path d="M212.17 160.37C211.29 158.31 213.98 155.95 217.83 154.29C221.68 152.63 225.26 152.29 226.14 154.38C227.02 156.47 225.67 161.92 221.81 163.58C217.95 165.24 213.05 162.43 212.17 160.37Z" fill="#263238"/>
<path opacity="0.3" d="M220.34 178.74C219.75 177.34 222.58 175.31 226.44 173.66C230.3 172.01 233.72 171.36 234.31 172.75C234.9 174.14 232.98 178.28 229.13 179.93C225.28 181.58 220.94 180.13 220.34 178.74Z" fill="black"/>
<path opacity="0.4" d="M148.91 161.77C154.42 145.99 167.01 134.28 179.85 131.35C201.5 126.41 207.85 153.52 197.39 172.21C185.71 193.13 159.91 189.94 157.39 180.37C153.76 186.74 139 190.07 148.91 161.77Z" fill="white"/>
<path d="M197.4 144C197.4 144 195.93 163.21 185.79 170C175.65 176.79 160.67 168.47 160.67 168.47C160.67 168.47 162.14 149.27 172.28 142.47C182.42 135.67 197.4 144 197.4 144Z" fill="white"/>
<path d="M160.67 168.37C160.578 163.665 161.254 158.977 162.67 154.49C163.366 152.194 164.326 149.986 165.53 147.91C166.746 145.758 168.341 143.843 170.24 142.26C172.196 140.664 174.508 139.563 176.98 139.05C179.381 138.54 181.855 138.472 184.28 138.85C188.975 139.54 193.454 141.283 197.38 143.95C193.115 142.313 188.635 141.303 184.08 140.95C181.895 140.804 179.701 141.006 177.58 141.55C175.509 142.029 173.582 142.996 171.96 144.37C170.279 145.737 168.848 147.385 167.73 149.24L167.27 149.93L166.86 150.66C166.6 151.15 166.31 151.66 166.06 152.13C165.59 153.13 165.06 154.13 164.67 155.2C162.964 159.468 161.626 163.874 160.67 168.37Z" fill="#263238"/>
<path d="M224.45 132.36C224.45 132.36 239.37 144.55 251.24 141.86C263.11 139.17 267.46 122.62 267.46 122.62C267.46 122.62 252.55 110.43 240.67 113.12C228.79 115.81 224.45 132.36 224.45 132.36Z" fill="white"/>
<path d="M267.46 122.62C263.544 120.221 259.433 118.157 255.17 116.45C254.17 116.03 253.04 115.71 251.98 115.35C251.45 115.18 250.9 115.06 250.36 114.91L249.56 114.7L248.74 114.56C246.626 114.094 244.448 113.992 242.3 114.26C240.186 114.495 238.158 115.224 236.38 116.39C234.523 117.547 232.865 118.995 231.47 120.68C228.581 124.212 226.223 128.147 224.47 132.36C225.243 127.678 227.069 123.233 229.81 119.36C231.211 117.344 232.966 115.599 234.99 114.21C237.075 112.772 239.476 111.859 241.99 111.55C244.443 111.269 246.926 111.435 249.32 112.04C251.633 112.601 253.875 113.426 256 114.5C260.235 116.567 264.105 119.31 267.46 122.62Z" fill="#263238"/>
<path d="M187.867 166.53C193.679 165.116 197.245 159.259 195.831 153.447C194.417 147.635 188.56 144.07 182.748 145.484C176.937 146.897 173.371 152.754 174.785 158.566C176.198 164.378 182.055 167.944 187.867 166.53Z" fill="#263238"/>
<path d="M176.61 156.65C176.967 157.477 177.562 158.18 178.319 158.67C179.075 159.159 179.96 159.414 180.861 159.401C181.763 159.388 182.64 159.108 183.382 158.597C184.124 158.086 184.699 157.366 185.032 156.529C185.366 155.692 185.444 154.774 185.256 153.893C185.068 153.011 184.624 152.205 183.978 151.576C183.333 150.947 182.516 150.523 181.629 150.358C180.743 150.193 179.828 150.295 179 150.65C178.448 150.886 177.949 151.229 177.53 151.659C177.111 152.088 176.782 152.597 176.56 153.154C176.338 153.711 176.228 154.307 176.236 154.907C176.245 155.507 176.372 156.099 176.61 156.65Z" fill="white"/>
<path d="M251.156 136.127C253.378 130.574 250.678 124.27 245.125 122.048C239.571 119.826 233.268 122.526 231.046 128.079C228.824 133.632 231.524 139.936 237.077 142.158C242.63 144.38 248.934 141.68 251.156 136.127Z" fill="#263238"/>
<path d="M232.4 132.74C232.757 133.567 233.352 134.27 234.108 134.76C234.865 135.249 235.75 135.504 236.651 135.491C237.552 135.478 238.43 135.198 239.172 134.687C239.914 134.176 240.488 133.456 240.822 132.619C241.155 131.781 241.233 130.864 241.046 129.983C240.858 129.101 240.414 128.295 239.768 127.666C239.123 127.037 238.305 126.613 237.419 126.448C236.533 126.283 235.618 126.385 234.79 126.74C234.237 126.975 233.737 127.317 233.317 127.747C232.898 128.176 232.568 128.685 232.345 129.242C232.123 129.8 232.014 130.396 232.023 130.997C232.032 131.597 232.16 132.189 232.4 132.74Z" fill="white"/>
<path d="M186.9 156.67C187.043 157 187.282 157.279 187.584 157.473C187.886 157.668 188.24 157.768 188.599 157.762C188.959 157.756 189.308 157.643 189.604 157.439C189.899 157.234 190.128 156.946 190.26 156.612C190.392 156.278 190.423 155.912 190.347 155.56C190.272 155.209 190.094 154.888 189.836 154.637C189.578 154.386 189.252 154.218 188.898 154.153C188.545 154.087 188.18 154.128 187.85 154.27C187.406 154.463 187.057 154.824 186.879 155.274C186.701 155.724 186.709 156.226 186.9 156.67Z" fill="white"/>
<path d="M242.69 132.76C242.828 133.091 243.061 133.374 243.36 133.573C243.659 133.772 244.01 133.878 244.369 133.878C244.727 133.878 245.078 133.772 245.377 133.574C245.676 133.375 245.909 133.092 246.048 132.761C246.187 132.43 246.224 132.065 246.156 131.713C246.088 131.36 245.917 131.036 245.665 130.78C245.413 130.525 245.091 130.349 244.739 130.276C244.388 130.203 244.023 130.236 243.69 130.37C243.465 130.459 243.261 130.592 243.088 130.761C242.916 130.93 242.779 131.132 242.686 131.354C242.593 131.577 242.545 131.816 242.546 132.057C242.547 132.299 242.595 132.538 242.69 132.76Z" fill="white"/>
<path d="M236.88 166.87C236.33 167.22 235.78 167.58 235.21 167.87C234.64 168.16 234.01 168.44 233.38 168.67C232.093 169.12 230.743 169.36 229.38 169.38C227.978 169.361 226.594 169.061 225.31 168.5C223.988 167.92 222.816 167.048 221.88 165.95L223.51 165.25C223.655 166.688 223.477 168.14 222.99 169.5C222.51 170.816 221.772 172.023 220.82 173.05C219.869 174.024 218.764 174.835 217.55 175.45C216.95 175.738 216.336 175.995 215.71 176.22C215.07 176.41 214.43 176.57 213.8 176.72C214.37 176.38 214.94 176.07 215.5 175.72C216.06 175.37 216.58 175.05 217.08 174.65C218.07 173.914 218.96 173.054 219.73 172.09C220.451 171.136 220.999 170.063 221.35 168.92C221.523 168.356 221.644 167.777 221.71 167.19C221.775 166.632 221.775 166.068 221.71 165.51C221.687 165.275 221.755 165.04 221.9 164.854C222.045 164.668 222.256 164.545 222.49 164.51C222.649 164.49 222.81 164.51 222.959 164.57C223.108 164.629 223.239 164.726 223.34 164.85C223.703 165.279 224.109 165.671 224.55 166.02C225.024 166.366 225.526 166.674 226.05 166.94C227.121 167.466 228.274 167.804 229.46 167.94C230.691 168.051 231.932 167.997 233.15 167.78C233.78 167.7 234.39 167.5 235.02 167.38C235.65 167.26 236.25 167.05 236.88 166.87Z" fill="#263238"/>
<path d="M222.61 166.35C222.432 166.348 222.258 166.296 222.109 166.198C221.96 166.101 221.842 165.962 221.77 165.8L219 159.29C218.906 159.068 218.904 158.819 218.994 158.596C219.084 158.373 219.259 158.195 219.48 158.1C219.59 158.051 219.709 158.024 219.829 158.022C219.95 158.019 220.069 158.041 220.181 158.086C220.293 158.131 220.395 158.198 220.481 158.282C220.566 158.367 220.634 158.468 220.68 158.58L223.47 165.08C223.529 165.219 223.554 165.37 223.54 165.521C223.527 165.671 223.476 165.816 223.393 165.942C223.31 166.068 223.196 166.171 223.063 166.243C222.93 166.314 222.781 166.351 222.63 166.35H222.61Z" fill="#263238"/>
<path d="M131.72 180.23C123.61 184.04 117.72 192.14 116.25 201.73C123.41 192.99 131.76 195.56 131.76 195.56L131.72 180.23Z" fill="#EA580C"/>
<path d="M132.55 203.86C131.134 207.082 130.526 210.6 130.779 214.11C131.032 217.619 132.137 221.014 134 224C133.92 215.4 140.06 212.84 140.06 212.84L132.55 203.86Z" fill="#EA580C"/>
<path d="M132.08 190.66C123.91 196.76 119.23 207.13 119.72 218.17C125.72 206.78 135.62 207.75 135.62 207.75L132.08 190.66Z" fill="#EA580C"/>
<path d="M296 109.84C304.35 106.6 314.25 107.96 322.24 113.47C310.97 112.63 307.07 120.47 307.07 120.47L296 109.84Z" fill="#EA580C"/>
<path d="M309.86 126.34C316.59 125.25 323.93 126.1 328.43 130.48C322.906 130.477 317.558 132.425 313.33 135.98L309.86 126.34Z" fill="#EA580C"/>
<path d="M307.61 125.36C313.72 128.36 319.18 133.36 320.28 139.55C315.794 136.321 310.31 134.784 304.8 135.21L307.61 125.36Z" fill="#EA580C"/>
<path d="M303.32 117.3C313.37 115.59 324.1 119.36 331.76 127.3C319.38 123.79 313.25 131.62 313.25 131.62L303.32 117.3Z" fill="#EA580C"/>
<path d="M190 107.53C189.62 101.87 192.35 97 199.11 91.97C197.69 100.05 203.54 102.07 203.54 102.07L190 107.53Z" fill="#EA580C"/>
<path d="M197.38 104.38C198.72 97.8 205.46 91.38 215.27 87.25C208.27 94.79 213.91 99.47 213.91 99.47L197.38 104.38Z" fill="#EA580C"/>
<path d="M141.59 222.55C141.501 222.547 141.415 222.519 141.34 222.47C141.29 222.437 141.248 222.394 141.215 222.344C141.182 222.295 141.159 222.239 141.148 222.18C141.137 222.121 141.138 222.061 141.15 222.003C141.162 221.944 141.186 221.889 141.22 221.84C167.73 182.22 215.97 166.59 216.45 166.44C216.567 166.405 216.692 166.417 216.801 166.473C216.909 166.529 216.991 166.625 217.03 166.74C217.065 166.855 217.053 166.98 216.996 167.086C216.94 167.193 216.845 167.273 216.73 167.31C216.25 167.46 168.31 183 141.97 222.31C141.935 222.381 141.881 222.441 141.814 222.484C141.747 222.526 141.669 222.549 141.59 222.55Z" fill="#263238"/>
<path d="M148.89 247.51C148.84 247.519 148.789 247.519 148.74 247.51C148.625 247.471 148.53 247.388 148.475 247.28C148.421 247.171 148.412 247.045 148.45 246.93C166.75 193.48 214.65 170.32 215.13 170.1C215.237 170.048 215.361 170.042 215.473 170.081C215.586 170.12 215.678 170.203 215.73 170.31C215.757 170.364 215.773 170.422 215.777 170.482C215.781 170.542 215.773 170.602 215.754 170.659C215.734 170.716 215.703 170.769 215.663 170.813C215.623 170.858 215.574 170.894 215.52 170.92C215.04 171.15 167.52 194.15 149.32 247.23C149.283 247.313 149.223 247.384 149.146 247.434C149.07 247.484 148.981 247.51 148.89 247.51Z" fill="#263238"/>
<path d="M227.8 162.53C227.72 162.532 227.641 162.511 227.572 162.47C227.503 162.43 227.447 162.371 227.41 162.3C227.378 162.249 227.357 162.193 227.348 162.133C227.338 162.074 227.341 162.014 227.356 161.955C227.371 161.897 227.398 161.843 227.435 161.796C227.471 161.748 227.518 161.709 227.57 161.68C228.01 161.42 272.08 136.35 319.22 143.49C319.279 143.497 319.336 143.516 319.387 143.546C319.439 143.576 319.484 143.616 319.519 143.664C319.555 143.711 319.58 143.766 319.594 143.824C319.608 143.881 319.61 143.941 319.6 144C319.578 144.118 319.512 144.224 319.416 144.296C319.32 144.369 319.2 144.402 319.08 144.39C272.27 137.29 228.47 162.21 228.08 162.47C227.995 162.519 227.897 162.54 227.8 162.53Z" fill="#263238"/>
<path d="M322.38 165.89C322.333 165.9 322.286 165.9 322.24 165.89C266.44 147.89 231.83 163.89 231.48 164.07C231.371 164.122 231.246 164.128 231.133 164.088C231.019 164.047 230.926 163.964 230.875 163.855C230.823 163.746 230.816 163.621 230.857 163.508C230.897 163.394 230.981 163.302 231.09 163.25C231.43 163.08 266.34 146.89 322.52 165.02C322.633 165.061 322.727 165.144 322.781 165.252C322.835 165.36 322.845 165.485 322.81 165.6C322.777 165.687 322.718 165.761 322.641 165.813C322.564 165.865 322.472 165.892 322.38 165.89Z" fill="#263238"/>
<path d="M219.154 410.259C227.773 400.951 227.215 386.418 217.907 377.799C208.599 369.179 194.065 369.738 185.446 379.046C176.827 388.354 177.385 402.887 186.693 411.506C196.001 420.126 210.534 419.567 219.154 410.259Z" fill="#EA580C"/>
<path d="M266.75 418.62C255.37 418.62 251.35 414.31 247.47 410.15C246.185 408.697 244.776 407.359 243.26 406.15C237.44 401.71 228.26 399.68 223.63 401.81C223.414 401.846 223.192 401.81 222.998 401.708C222.804 401.605 222.65 401.442 222.558 401.244C222.466 401.045 222.442 400.821 222.489 400.608C222.536 400.394 222.652 400.201 222.82 400.06C228.12 397.63 238.01 399.72 244.43 404.61C246.034 405.897 247.526 407.319 248.89 408.86C252.65 412.91 256.21 416.73 266.75 416.73C269.322 416.798 271.864 416.168 274.107 414.907C276.35 413.647 278.21 411.802 279.49 409.57C280.546 407.818 281.117 405.816 281.143 403.77C281.169 401.725 280.651 399.709 279.64 397.93C277.25 394.08 272.33 392.12 265.77 392.43C265.623 392.476 265.469 392.489 265.317 392.466C265.165 392.443 265.021 392.385 264.895 392.298C264.769 392.21 264.665 392.095 264.591 391.96C264.517 391.826 264.475 391.677 264.468 391.524C264.461 391.37 264.489 391.218 264.55 391.077C264.611 390.936 264.704 390.812 264.821 390.713C264.938 390.614 265.077 390.543 265.226 390.506C265.374 390.469 265.53 390.467 265.68 390.5C272.97 390.17 278.51 392.44 281.28 396.91C282.47 398.982 283.088 401.334 283.071 403.723C283.053 406.113 282.4 408.455 281.18 410.51C279.73 413.038 277.623 415.126 275.083 416.554C272.542 417.982 269.663 418.696 266.75 418.62Z" fill="#EA580C"/>
<path d="M212 412.2C199.896 412.077 188.231 407.653 179.09 399.72C178.971 399.536 178.916 399.319 178.933 399.101C178.95 398.883 179.038 398.677 179.183 398.514C179.328 398.351 179.523 398.239 179.737 398.197C179.951 398.155 180.173 398.184 180.37 398.28C188.37 405.42 202.65 412.18 218.58 409.78C218.72 409.718 218.873 409.69 219.026 409.697C219.179 409.704 219.329 409.746 219.463 409.82C219.598 409.894 219.713 409.998 219.801 410.124C219.888 410.25 219.946 410.394 219.969 410.546C219.992 410.698 219.98 410.853 219.934 410.999C219.887 411.145 219.808 411.278 219.701 411.389C219.595 411.5 219.465 411.584 219.321 411.636C219.176 411.689 219.022 411.707 218.87 411.69C216.595 412.03 214.299 412.201 212 412.2Z" fill="#EA580C"/>
<path d="M209.48 415.06C197.69 415.06 187.62 410.42 178.83 400.96C178.658 400.775 178.563 400.532 178.563 400.28C178.563 400.028 178.658 399.785 178.83 399.6C179.015 399.426 179.26 399.328 179.515 399.328C179.769 399.328 180.014 399.426 180.2 399.6C189.93 410.08 201.3 414.37 214.95 412.75C215.092 412.69 215.247 412.664 215.401 412.674C215.556 412.684 215.706 412.73 215.839 412.808C215.973 412.886 216.087 412.994 216.172 413.123C216.257 413.252 216.311 413.399 216.329 413.553C216.348 413.706 216.33 413.862 216.278 414.008C216.226 414.153 216.141 414.285 216.03 414.392C215.919 414.5 215.784 414.58 215.636 414.626C215.489 414.673 215.333 414.684 215.18 414.66C213.29 414.908 211.386 415.042 209.48 415.06Z" fill="#EA580C"/>
<path d="M192.06 416.22C191.811 416.221 191.571 416.13 191.386 415.963C191.201 415.797 191.085 415.568 191.06 415.32C190.22 404.04 194.11 386.08 204.67 371.39C204.84 371.252 205.05 371.173 205.269 371.166C205.488 371.159 205.703 371.224 205.882 371.352C206.06 371.479 206.192 371.661 206.256 371.87C206.321 372.08 206.315 372.304 206.24 372.51C196 386.82 192.21 404.25 193 415.18C193.001 415.427 192.911 415.666 192.747 415.851C192.582 416.036 192.356 416.153 192.11 416.18L192.06 416.22Z" fill="#EA580C"/>
<path d="M182.47 407.27C182.286 407.269 182.106 407.217 181.95 407.12C181.741 406.977 181.594 406.761 181.538 406.514C181.483 406.267 181.522 406.009 181.65 405.79C185.01 400.48 197.49 382.67 217.05 376.42C217.293 376.352 217.552 376.378 217.777 376.493C218.001 376.608 218.174 376.803 218.26 377.04C218.328 377.283 218.302 377.542 218.187 377.767C218.072 377.991 217.877 378.164 217.64 378.25C198.7 384.31 186.55 401.65 183.28 406.82C183.191 406.955 183.071 407.066 182.93 407.144C182.789 407.223 182.631 407.266 182.47 407.27Z" fill="#EA580C"/>
<path d="M182.47 407.27C182.346 407.271 182.224 407.247 182.11 407.2C181.879 407.098 181.694 406.913 181.594 406.681C181.494 406.449 181.485 406.188 181.57 405.95C184.527 398.679 189 392.121 194.69 386.714C200.381 381.306 207.157 377.173 214.57 374.59C214.789 374.574 215.006 374.631 215.19 374.751C215.373 374.872 215.512 375.049 215.584 375.256C215.657 375.463 215.66 375.688 215.592 375.896C215.525 376.105 215.39 376.285 215.21 376.41C208.051 378.899 201.505 382.885 196.007 388.103C190.51 393.321 186.188 399.65 183.33 406.67C183.256 406.84 183.137 406.986 182.985 407.092C182.833 407.198 182.655 407.259 182.47 407.27Z" fill="#EA580C"/>
<path d="M189.21 414.54C188.967 414.542 188.732 414.456 188.548 414.298C188.364 414.14 188.244 413.92 188.21 413.68C185.79 392.84 192.63 380.92 200.39 371.15C200.553 370.958 200.783 370.835 201.033 370.805C201.284 370.776 201.536 370.842 201.74 370.99C201.934 371.154 202.059 371.386 202.089 371.638C202.119 371.891 202.051 372.145 201.9 372.35C194.4 381.8 187.79 393.35 190.13 413.46C190.15 413.713 190.074 413.964 189.916 414.163C189.758 414.361 189.531 414.493 189.28 414.53L189.21 414.54Z" fill="#EA580C"/>
<path d="M186.53 412.36C186.321 412.355 186.119 412.285 185.952 412.159C185.786 412.034 185.662 411.859 185.6 411.66C182.6 400.61 184.83 383.33 197.07 371.48C197.255 371.308 197.498 371.213 197.75 371.213C198.002 371.213 198.245 371.308 198.43 371.48C198.604 371.665 198.701 371.91 198.701 372.165C198.701 372.419 198.604 372.664 198.43 372.85C187.28 383.64 184.48 400.27 187.48 411.12C187.54 411.366 187.504 411.626 187.38 411.847C187.255 412.068 187.052 412.233 186.81 412.31L186.53 412.36Z" fill="#EA580C"/>
<path d="M225 398.86C224.8 398.857 224.604 398.795 224.44 398.68C210.14 388.39 192.7 384.6 181.77 385.42C181.553 385.38 181.355 385.268 181.207 385.104C181.059 384.939 180.971 384.73 180.955 384.509C180.939 384.288 180.996 384.069 181.119 383.884C181.241 383.7 181.421 383.561 181.63 383.49C192.91 382.66 210.87 386.54 225.57 397.11C225.718 397.239 225.825 397.408 225.877 397.598C225.929 397.787 225.925 397.987 225.864 398.173C225.803 398.36 225.689 398.525 225.535 398.647C225.382 398.769 225.196 398.843 225 398.86Z" fill="#EA580C"/>
<path d="M225.2 396.19C225.065 396.193 224.932 396.166 224.81 396.11C211.99 390.42 192.59 389.67 179.69 394.35C179.564 394.44 179.42 394.499 179.268 394.524C179.115 394.549 178.959 394.538 178.812 394.492C178.665 394.447 178.53 394.368 178.418 394.261C178.306 394.155 178.221 394.024 178.168 393.88C178.115 393.735 178.096 393.579 178.114 393.426C178.131 393.273 178.183 393.126 178.266 392.996C178.35 392.866 178.462 392.758 178.595 392.678C178.727 392.599 178.876 392.552 179.03 392.54C192.35 387.7 212.36 388.48 225.59 394.35C225.817 394.461 225.993 394.653 226.084 394.889C226.175 395.124 226.173 395.386 226.08 395.62C226 395.787 225.876 395.929 225.72 396.03C225.565 396.13 225.385 396.186 225.2 396.19Z" fill="#EA580C"/>
<path d="M225.16 393.49C225.027 393.488 224.896 393.46 224.774 393.407C224.652 393.353 224.542 393.276 224.45 393.18C214.94 382.84 202.62 379.18 184.45 381.27C184.307 381.33 184.153 381.356 183.998 381.346C183.844 381.335 183.694 381.29 183.56 381.212C183.427 381.134 183.313 381.026 183.228 380.897C183.143 380.768 183.089 380.621 183.071 380.467C183.052 380.314 183.07 380.158 183.121 380.012C183.173 379.867 183.258 379.735 183.37 379.628C183.481 379.52 183.616 379.44 183.763 379.394C183.911 379.347 184.067 379.336 184.22 379.36C202.78 377.2 216 381.18 225.83 391.88C225.941 392.022 226.011 392.192 226.033 392.371C226.055 392.55 226.028 392.732 225.955 392.897C225.882 393.062 225.766 393.204 225.619 393.308C225.472 393.413 225.3 393.476 225.12 393.49H225.16Z" fill="#EA580C"/>
<path d="M224.44 389.57C224.184 389.564 223.941 389.46 223.76 389.28C211.87 377.42 195.1 375.71 187.51 378.28C187.29 378.294 187.072 378.236 186.889 378.113C186.705 377.991 186.568 377.812 186.497 377.603C186.427 377.394 186.427 377.168 186.498 376.96C186.569 376.751 186.707 376.572 186.89 376.45C194.94 373.72 212.66 375.45 225.12 387.91C225.291 388.095 225.387 388.338 225.387 388.59C225.387 388.842 225.291 389.085 225.12 389.27C224.94 389.454 224.697 389.561 224.44 389.57Z" fill="#EA580C"/>
<path d="M220 410.31C219.911 410.325 219.819 410.325 219.73 410.31C196.73 403.5 179.82 388.04 179.66 387.88C179.545 387.695 179.494 387.477 179.514 387.26C179.534 387.043 179.625 386.838 179.772 386.678C179.919 386.517 180.115 386.409 180.329 386.369C180.544 386.33 180.765 386.362 180.96 386.46C181.13 386.62 197.73 401.78 220.28 408.46C220.473 408.552 220.63 408.704 220.731 408.893C220.831 409.081 220.868 409.297 220.837 409.508C220.805 409.719 220.707 409.915 220.557 410.067C220.406 410.218 220.211 410.317 220 410.35V410.31Z" fill="#EA580C"/>
<path d="M220.46 409.72C220.329 409.718 220.2 409.691 220.08 409.64C206.163 403.426 192.83 395.98 180.24 387.39C180.094 387.339 179.962 387.254 179.854 387.143C179.746 387.033 179.665 386.898 179.618 386.751C179.571 386.603 179.558 386.447 179.582 386.294C179.606 386.141 179.664 385.995 179.754 385.869C179.843 385.742 179.961 385.638 180.097 385.565C180.233 385.492 180.385 385.451 180.54 385.447C180.694 385.442 180.848 385.473 180.989 385.538C181.129 385.603 181.253 385.699 181.35 385.82C193.829 394.333 207.045 401.713 220.84 407.87C221.018 407.976 221.159 408.135 221.243 408.325C221.326 408.515 221.349 408.727 221.307 408.93C221.265 409.133 221.162 409.319 221.01 409.46C220.858 409.602 220.666 409.692 220.46 409.72Z" fill="#EA580C"/>
<path d="M221.31 408.53C221.153 408.533 220.998 408.495 220.86 408.42C201.19 397.84 180.57 387.57 180.37 387.47C180.206 387.325 180.095 387.13 180.053 386.915C180.011 386.7 180.04 386.478 180.137 386.282C180.233 386.085 180.391 385.926 180.587 385.828C180.783 385.73 181.005 385.699 181.22 385.74C181.43 385.84 202.08 396.13 221.77 406.74C221.935 406.857 222.061 407.021 222.131 407.211C222.201 407.4 222.212 407.607 222.162 407.803C222.112 407.999 222.004 408.176 221.852 408.309C221.7 408.442 221.511 408.526 221.31 408.55V408.53Z" fill="#EA580C"/>
<path d="M222 407.47C221.786 407.474 221.577 407.403 221.41 407.27C203.55 393.27 181.1 386.77 180.87 386.71C180.68 386.597 180.533 386.425 180.451 386.22C180.369 386.015 180.358 385.788 180.418 385.576C180.479 385.363 180.608 385.177 180.785 385.046C180.963 384.914 181.179 384.846 181.4 384.85C181.63 384.92 204.4 391.5 222.6 405.75C222.792 405.913 222.915 406.143 222.945 406.394C222.974 406.644 222.908 406.896 222.76 407.1C222.671 407.217 222.556 407.311 222.424 407.375C222.292 407.439 222.147 407.472 222 407.47Z" fill="#EA580C"/>
<path d="M223.84 403.59C223.619 403.589 223.404 403.515 223.23 403.38C206.87 389.94 181.23 386.77 181.01 386.74C180.805 386.659 180.632 386.512 180.519 386.322C180.406 386.132 180.359 385.911 180.386 385.691C180.412 385.472 180.51 385.268 180.664 385.11C180.819 384.953 181.021 384.851 181.24 384.82C181.5 384.82 207.65 388.09 224.46 401.89C224.647 402.057 224.765 402.289 224.789 402.54C224.813 402.79 224.742 403.04 224.59 403.24C224.497 403.348 224.382 403.436 224.253 403.496C224.123 403.557 223.983 403.589 223.84 403.59Z" fill="#EA580C"/>
<path d="M193.69 417C193.498 416.979 193.315 416.903 193.165 416.781C193.015 416.659 192.904 416.496 192.844 416.312C192.785 416.128 192.781 415.93 192.831 415.744C192.882 415.557 192.986 415.389 193.13 415.26C211.36 402.07 221.77 383.77 221.87 383.59C221.908 383.441 221.98 383.303 222.08 383.186C222.18 383.069 222.305 382.977 222.447 382.917C222.588 382.857 222.741 382.83 222.895 382.838C223.048 382.847 223.198 382.891 223.331 382.966C223.465 383.042 223.58 383.147 223.666 383.274C223.753 383.402 223.808 383.547 223.83 383.699C223.851 383.851 223.837 384.006 223.788 384.152C223.74 384.298 223.658 384.431 223.55 384.54C223.45 384.72 212.83 403.39 194.26 416.82C194.093 416.937 193.894 416.999 193.69 417Z" fill="#EA580C"/>
<g opacity="0.3">
<path d="M212 412.2C199.896 412.077 188.231 407.653 179.09 399.72C178.971 399.536 178.916 399.319 178.933 399.101C178.95 398.883 179.038 398.677 179.183 398.514C179.328 398.351 179.523 398.239 179.737 398.197C179.951 398.155 180.173 398.184 180.37 398.28C188.37 405.42 202.65 412.18 218.58 409.78C218.72 409.718 218.873 409.69 219.026 409.697C219.179 409.704 219.329 409.746 219.463 409.82C219.598 409.894 219.713 409.998 219.801 410.124C219.888 410.25 219.946 410.394 219.969 410.546C219.992 410.698 219.98 410.853 219.934 410.999C219.887 411.145 219.808 411.278 219.701 411.389C219.595 411.5 219.465 411.584 219.321 411.636C219.176 411.689 219.022 411.707 218.87 411.69C216.595 412.03 214.299 412.201 212 412.2Z" fill="black"/>
<path d="M209.48 415.06C197.69 415.06 187.62 410.42 178.83 400.96C178.658 400.775 178.563 400.532 178.563 400.28C178.563 400.028 178.658 399.785 178.83 399.6C179.015 399.426 179.26 399.328 179.515 399.328C179.769 399.328 180.014 399.426 180.2 399.6C189.93 410.08 201.3 414.37 214.95 412.75C215.092 412.69 215.247 412.664 215.401 412.674C215.556 412.684 215.706 412.73 215.839 412.808C215.973 412.886 216.087 412.994 216.172 413.123C216.257 413.252 216.311 413.399 216.329 413.553C216.348 413.706 216.33 413.862 216.278 414.008C216.226 414.153 216.141 414.285 216.03 414.392C215.919 414.5 215.784 414.58 215.636 414.626C215.489 414.673 215.333 414.684 215.18 414.66C213.29 414.908 211.386 415.042 209.48 415.06Z" fill="black"/>
<path d="M192.06 416.22C191.811 416.221 191.571 416.13 191.386 415.963C191.201 415.797 191.085 415.568 191.06 415.32C190.22 404.04 194.11 386.08 204.67 371.39C204.84 371.252 205.05 371.173 205.269 371.166C205.488 371.159 205.703 371.224 205.882 371.352C206.06 371.479 206.192 371.661 206.256 371.87C206.321 372.08 206.315 372.304 206.24 372.51C196 386.82 192.21 404.25 193 415.18C193.001 415.427 192.911 415.666 192.747 415.851C192.582 416.036 192.356 416.153 192.11 416.18L192.06 416.22Z" fill="black"/>
<path d="M182.469 407.27C182.286 407.269 182.106 407.217 181.949 407.12C181.741 406.977 181.593 406.761 181.538 406.514C181.482 406.267 181.522 406.009 181.649 405.79C185.009 400.48 197.489 382.67 217.049 376.42C217.292 376.352 217.552 376.378 217.776 376.493C218 376.608 218.173 376.803 218.259 377.04C218.328 377.283 218.302 377.542 218.187 377.767C218.072 377.991 217.876 378.164 217.639 378.25C198.699 384.31 186.549 401.65 183.279 406.82C183.191 406.955 183.071 407.066 182.93 407.144C182.789 407.223 182.631 407.266 182.469 407.27Z" fill="black"/>
<path d="M182.47 407.27C182.346 407.271 182.224 407.247 182.11 407.2C181.879 407.098 181.694 406.913 181.594 406.681C181.494 406.449 181.485 406.188 181.57 405.95C184.527 398.679 189 392.121 194.69 386.714C200.381 381.306 207.157 377.173 214.57 374.59C214.789 374.574 215.006 374.631 215.19 374.751C215.373 374.872 215.512 375.049 215.584 375.256C215.657 375.463 215.66 375.688 215.592 375.896C215.525 376.105 215.39 376.285 215.21 376.41C208.051 378.899 201.505 382.885 196.007 388.103C190.51 393.321 186.188 399.65 183.33 406.67C183.256 406.84 183.137 406.986 182.985 407.092C182.833 407.198 182.655 407.259 182.47 407.27Z" fill="black"/>
<path d="M189.21 414.54C188.967 414.542 188.732 414.456 188.548 414.298C188.364 414.14 188.244 413.92 188.21 413.68C185.79 392.84 192.63 380.92 200.39 371.15C200.553 370.958 200.783 370.835 201.033 370.805C201.284 370.776 201.536 370.842 201.74 370.99C201.934 371.154 202.059 371.386 202.089 371.638C202.119 371.891 202.051 372.145 201.9 372.35C194.4 381.8 187.79 393.35 190.13 413.46C190.15 413.713 190.074 413.964 189.916 414.163C189.758 414.361 189.531 414.493 189.28 414.53L189.21 414.54Z" fill="black"/>
<path d="M186.53 412.36C186.321 412.355 186.119 412.285 185.952 412.159C185.786 412.034 185.662 411.859 185.6 411.66C182.6 400.61 184.83 383.33 197.07 371.48C197.255 371.308 197.498 371.213 197.75 371.213C198.002 371.213 198.245 371.308 198.43 371.48C198.604 371.665 198.701 371.91 198.701 372.165C198.701 372.419 198.604 372.664 198.43 372.85C187.28 383.64 184.48 400.27 187.48 411.12C187.54 411.366 187.504 411.626 187.38 411.847C187.255 412.068 187.052 412.233 186.81 412.31L186.53 412.36Z" fill="black"/>
<path d="M225 398.86C224.799 398.857 224.604 398.795 224.44 398.68C210.14 388.39 192.7 384.6 181.77 385.42C181.552 385.38 181.354 385.268 181.207 385.104C181.059 384.939 180.97 384.73 180.954 384.509C180.938 384.288 180.996 384.069 181.118 383.884C181.24 383.7 181.42 383.561 181.63 383.49C192.91 382.66 210.87 386.54 225.57 397.11C225.717 397.239 225.824 397.408 225.876 397.598C225.929 397.787 225.924 397.987 225.863 398.173C225.803 398.36 225.688 398.525 225.535 398.647C225.381 398.769 225.195 398.843 225 398.86Z" fill="black"/>
<path d="M225.2 396.19C225.065 396.193 224.932 396.166 224.81 396.11C211.99 390.42 192.59 389.67 179.69 394.35C179.564 394.44 179.42 394.499 179.268 394.524C179.115 394.549 178.959 394.538 178.812 394.492C178.665 394.447 178.53 394.368 178.418 394.261C178.306 394.155 178.221 394.024 178.168 393.88C178.115 393.735 178.096 393.579 178.114 393.426C178.131 393.273 178.183 393.126 178.266 392.996C178.35 392.866 178.462 392.758 178.595 392.678C178.727 392.599 178.876 392.552 179.03 392.54C192.35 387.7 212.36 388.48 225.59 394.35C225.817 394.461 225.993 394.653 226.084 394.889C226.175 395.124 226.173 395.386 226.08 395.62C226 395.787 225.876 395.929 225.72 396.03C225.565 396.13 225.385 396.186 225.2 396.19Z" fill="black"/>
<path d="M225.159 393.49C225.026 393.488 224.895 393.46 224.773 393.407C224.651 393.353 224.541 393.276 224.449 393.18C214.939 382.84 202.619 379.18 184.449 381.27C184.307 381.33 184.152 381.356 183.998 381.346C183.844 381.335 183.694 381.29 183.56 381.212C183.426 381.134 183.312 381.026 183.228 380.897C183.143 380.768 183.089 380.621 183.07 380.467C183.052 380.314 183.069 380.158 183.121 380.012C183.173 379.867 183.258 379.735 183.369 379.628C183.481 379.52 183.615 379.44 183.763 379.394C183.91 379.347 184.067 379.336 184.219 379.36C202.779 377.2 215.999 381.18 225.829 391.88C225.94 392.022 226.01 392.192 226.032 392.371C226.054 392.55 226.027 392.732 225.954 392.897C225.882 393.062 225.766 393.204 225.619 393.308C225.472 393.413 225.299 393.476 225.119 393.49H225.159Z" fill="black"/>
<path d="M224.44 389.57C224.184 389.564 223.941 389.46 223.76 389.28C211.87 377.42 195.1 375.71 187.51 378.28C187.29 378.294 187.072 378.236 186.889 378.113C186.705 377.991 186.568 377.812 186.497 377.603C186.427 377.394 186.427 377.168 186.498 376.96C186.569 376.751 186.707 376.572 186.89 376.45C194.94 373.72 212.66 375.45 225.12 387.91C225.291 388.095 225.387 388.338 225.387 388.59C225.387 388.842 225.291 389.085 225.12 389.27C224.94 389.454 224.697 389.561 224.44 389.57Z" fill="black"/>
<path d="M219.999 410.31C219.91 410.325 219.819 410.325 219.729 410.31C196.729 403.5 179.819 388.04 179.659 387.88C179.545 387.695 179.493 387.477 179.514 387.26C179.534 387.043 179.624 386.838 179.772 386.678C179.919 386.517 180.115 386.409 180.329 386.369C180.543 386.33 180.765 386.362 180.959 386.46C181.129 386.62 197.729 401.78 220.279 408.46C220.472 408.552 220.63 408.704 220.73 408.893C220.83 409.081 220.868 409.297 220.836 409.508C220.805 409.719 220.707 409.915 220.556 410.067C220.406 410.218 220.211 410.317 219.999 410.35V410.31Z" fill="black"/>
<path d="M220.46 409.72C220.329 409.718 220.2 409.691 220.08 409.64C206.163 403.426 192.83 395.98 180.24 387.39C180.093 387.339 179.961 387.254 179.853 387.143C179.745 387.033 179.664 386.898 179.617 386.751C179.57 386.603 179.558 386.447 179.582 386.294C179.605 386.141 179.664 385.995 179.753 385.869C179.843 385.742 179.96 385.638 180.097 385.565C180.233 385.492 180.385 385.451 180.539 385.447C180.694 385.442 180.848 385.473 180.988 385.538C181.129 385.603 181.253 385.699 181.35 385.82C193.829 394.333 207.045 401.713 220.84 407.87C221.018 407.976 221.159 408.135 221.242 408.325C221.326 408.515 221.349 408.727 221.307 408.93C221.265 409.133 221.161 409.319 221.009 409.46C220.857 409.602 220.665 409.692 220.46 409.72Z" fill="black"/>
<path d="M221.31 408.53C221.153 408.533 220.998 408.495 220.86 408.42C201.19 397.84 180.57 387.57 180.37 387.47C180.206 387.325 180.095 387.13 180.053 386.915C180.011 386.701 180.04 386.478 180.137 386.282C180.233 386.085 180.391 385.926 180.587 385.828C180.783 385.73 181.005 385.699 181.22 385.74C181.43 385.84 202.08 396.13 221.77 406.74C221.935 406.857 222.061 407.021 222.131 407.211C222.201 407.4 222.212 407.607 222.162 407.803C222.112 407.999 222.004 408.176 221.852 408.309C221.7 408.442 221.511 408.526 221.31 408.55V408.53Z" fill="black"/>
<path d="M221.999 407.47C221.785 407.474 221.577 407.403 221.409 407.27C203.549 393.27 181.099 386.77 180.869 386.71C180.679 386.597 180.532 386.425 180.45 386.22C180.369 386.015 180.357 385.788 180.418 385.576C180.478 385.363 180.607 385.177 180.785 385.046C180.963 384.914 181.179 384.846 181.399 384.85C181.629 384.92 204.399 391.5 222.599 405.75C222.791 405.913 222.914 406.143 222.944 406.394C222.974 406.644 222.908 406.896 222.759 407.1C222.67 407.217 222.555 407.311 222.423 407.375C222.291 407.439 222.146 407.472 221.999 407.47Z" fill="black"/>
<path d="M223.839 403.59C223.619 403.589 223.404 403.515 223.229 403.38C206.869 389.94 181.229 386.77 181.009 386.74C180.804 386.659 180.632 386.512 180.519 386.322C180.406 386.132 180.359 385.911 180.385 385.691C180.411 385.472 180.509 385.268 180.664 385.11C180.818 384.953 181.021 384.851 181.239 384.82C181.499 384.82 207.649 388.09 224.459 401.89C224.647 402.057 224.764 402.289 224.788 402.54C224.812 402.79 224.741 403.04 224.589 403.24C224.497 403.348 224.382 403.436 224.252 403.496C224.123 403.557 223.982 403.589 223.839 403.59Z" fill="black"/>
<path d="M193.69 417C193.497 416.979 193.315 416.903 193.165 416.781C193.015 416.659 192.903 416.496 192.844 416.312C192.785 416.128 192.78 415.93 192.831 415.744C192.882 415.557 192.985 415.389 193.13 415.26C211.36 402.07 221.77 383.77 221.87 383.59C221.907 383.441 221.979 383.303 222.079 383.186C222.179 383.069 222.305 382.977 222.446 382.917C222.587 382.857 222.741 382.83 222.894 382.838C223.048 382.847 223.197 382.891 223.331 382.966C223.465 383.042 223.579 383.147 223.666 383.274C223.752 383.402 223.808 383.547 223.829 383.699C223.85 383.851 223.836 384.006 223.788 384.152C223.739 384.298 223.658 384.431 223.55 384.54C223.45 384.72 212.83 403.39 194.26 416.82C194.092 416.937 193.893 416.999 193.69 417Z" fill="black"/>
</g>
</svg>
