<svg width="360" height="360" viewBox="0 0 360 360" fill="none" xmlns="http://www.w3.org/2000/svg">
<path d="M323.928 286.913H300.082V287.093H323.928V286.913Z" fill="#EBEBEB"/>
<path d="M238.478 288.871H232.222V289.051H238.478V288.871Z" fill="#EBEBEB"/>
<path d="M299.362 280.231H285.545V280.411H299.362V280.231Z" fill="#EBEBEB"/>
<path d="M68.868 281.441H37.7712V281.621H68.868V281.441Z" fill="#EBEBEB"/>
<path d="M79.8408 281.441H75.2832V281.621H79.8408V281.441Z" fill="#EBEBEB"/>
<path d="M162.108 284.479H94.6584V284.659H162.108V284.479Z" fill="#EBEBEB"/>
<path d="M170.64 243.216H31.6152C30.5261 243.214 29.4823 242.78 28.7128 242.009C27.9434 241.239 27.5112 240.194 27.5112 239.105V43.6753C27.5207 42.5924 27.957 41.557 28.7255 40.794C29.4939 40.031 30.5323 39.602 31.6152 39.6001H170.64C171.73 39.6001 172.776 40.0332 173.547 40.8042C174.318 41.5752 174.751 42.6209 174.751 43.7113V239.105C174.751 240.195 174.318 241.241 173.547 242.012C172.776 242.783 171.73 243.216 170.64 243.216ZM31.6152 39.7441C30.5739 39.746 29.5758 40.161 28.8401 40.8981C28.1044 41.6351 27.6912 42.6339 27.6912 43.6753V239.105C27.6912 240.146 28.1044 241.145 28.8401 241.882C29.5758 242.619 30.5739 243.034 31.6152 243.036H170.64C171.682 243.034 172.681 242.619 173.418 241.883C174.155 241.146 174.569 240.147 174.571 239.105V43.6753C174.569 42.6333 174.155 41.6345 173.418 40.8976C172.681 40.1608 171.682 39.746 170.64 39.7441H31.6152Z" fill="#EBEBEB"/>
<path d="M326.383 243.216H187.351C186.261 243.214 185.217 242.78 184.446 242.01C183.676 241.239 183.242 240.195 183.24 239.105V43.6753C183.251 42.5918 183.689 41.5564 184.459 40.7936C185.228 40.0307 186.268 39.6019 187.351 39.6001H326.383C327.465 39.6038 328.501 40.0337 329.268 40.7965C330.035 41.5594 330.471 42.5937 330.48 43.6753V239.105C330.48 240.193 330.049 241.236 329.281 242.007C328.513 242.777 327.471 243.212 326.383 243.216ZM187.351 39.7441C186.309 39.746 185.31 40.1608 184.574 40.8976C183.837 41.6345 183.422 42.6333 183.42 43.6753V239.105C183.422 240.147 183.837 241.146 184.574 241.883C185.31 242.619 186.309 243.034 187.351 243.036H326.383C327.425 243.034 328.424 242.619 329.161 241.883C329.898 241.146 330.312 240.147 330.314 239.105V43.6753C330.312 42.6333 329.898 41.6345 329.161 40.8976C328.424 40.1608 327.425 39.746 326.383 39.7441H187.351Z" fill="#EBEBEB"/>
<path d="M360 275.328H0V275.508H360V275.328Z" fill="#EBEBEB"/>
<path d="M309.11 50.0474H306.655V91.7498H309.11V50.0474Z" fill="#E0E0E0"/>
<path d="M307.879 50.0474H268.654V91.7498H307.879V50.0474Z" fill="#F0F0F0"/>
<path d="M304.834 53.3306H272.174V88.4594H304.834V53.3306Z" fill="white"/>
<path d="M296.942 74.9451C296.936 75.4778 296.975 76.0101 297.058 76.5363C297.137 76.9467 297.23 77.3643 297.331 77.7747C297.441 78.0881 297.507 78.4152 297.526 78.7467C297.529 79.0459 297.463 79.3417 297.332 79.6105C297.2 79.8794 297.008 80.1137 296.77 80.2947C296.262 80.7136 295.621 80.9359 294.962 80.9211C294.507 80.9613 294.048 80.9002 293.618 80.7421C293.189 80.584 292.799 80.3329 292.478 80.0067C291.938 79.3287 291.64 78.4903 291.629 77.6235C290.667 78.7135 289.474 79.5746 288.137 80.1435C286.778 80.6787 285.328 80.9429 283.867 80.9211C282.226 80.944 280.632 80.371 279.382 79.3083C278.765 78.8063 278.271 78.1694 277.939 77.4466C277.607 76.7239 277.446 75.9346 277.466 75.1395C277.437 74.1459 277.641 73.1593 278.064 72.2595C278.446 71.4911 279.021 70.8358 279.734 70.3587C280.503 69.8466 281.349 69.4624 282.24 69.2211C283.274 68.9297 284.332 68.7273 285.401 68.6163L288.857 68.2275C289.498 68.1783 290.121 67.9864 290.678 67.6659C290.904 67.4842 291.079 67.248 291.187 66.9796C291.296 66.7112 291.334 66.4195 291.298 66.1323C291.313 65.7761 291.226 65.4228 291.048 65.1141C290.869 64.8055 290.606 64.5542 290.29 64.3899C289.504 63.9735 288.622 63.7723 287.734 63.8067C286.863 63.7642 285.995 63.9374 285.206 64.3107C284.526 64.6928 283.9 65.1624 283.342 65.7075C283.017 66.0501 282.655 66.3545 282.262 66.6147C281.934 66.8137 281.557 66.9161 281.174 66.9099C280.537 66.9311 279.916 66.701 279.446 66.2691C279.23 66.0771 279.056 65.8409 278.938 65.5764C278.821 65.3119 278.761 65.0252 278.762 64.7355C278.784 64.1004 278.994 63.4862 279.367 62.9715C279.833 62.2983 280.434 61.7295 281.131 61.3011C282.023 60.7477 282.994 60.3348 284.011 60.0771C285.247 59.7554 286.521 59.6004 287.798 59.6163C290.645 59.6163 292.889 60.0963 294.53 61.0563C295.311 61.4824 295.956 62.1196 296.391 62.8951C296.827 63.6705 297.035 64.5528 296.993 65.4411L296.942 74.9451ZM291.276 70.8699C290.989 71.1172 290.653 71.3012 290.29 71.4099C289.817 71.5554 289.336 71.6732 288.85 71.7627L286.79 72.0723C285.814 72.1623 284.872 72.4725 284.033 72.9795C283.738 73.1938 283.502 73.4791 283.348 73.8089C283.193 74.1387 283.124 74.5023 283.147 74.8659C283.148 75.1884 283.226 75.506 283.374 75.7926C283.521 76.0793 283.735 76.3267 283.997 76.5147C284.661 76.9942 285.468 77.233 286.286 77.1915C287.597 77.2478 288.882 76.8111 289.886 75.9675C290.314 75.6192 290.66 75.1801 290.898 74.6821C291.135 74.184 291.26 73.6394 291.262 73.0875L291.276 70.8699Z" fill="#EBEBEB"/>
<path d="M321.444 165.629H302.717V185.566H321.444V165.629Z" fill="#E6E6E6"/>
<path d="M302.717 165.629H297.922V185.566H302.717V165.629Z" fill="#F5F5F5"/>
<path d="M326.354 162.555H312.286V185.566H326.354V162.555Z" fill="#E6E6E6"/>
<path d="M312.293 162.555H308.225V185.566H312.293V162.555Z" fill="#F0F0F0"/>
<path d="M330.098 165.629H316.433V185.566H330.098V165.629Z" fill="#F0F0F0"/>
<path d="M316.426 165.629H313.718V185.566H316.426V165.629Z" fill="#F5F5F5"/>
<path d="M272.887 179.971H269.41V187.416H272.887V179.971Z" fill="#E0E0E0"/>
<path d="M270.562 181.563C268.153 181.569 265.768 181.098 263.543 180.176C261.319 179.254 259.299 177.899 257.602 176.191L258.113 175.687C261.413 178.988 265.89 180.842 270.558 180.842C275.226 180.842 279.702 178.988 283.003 175.687C286.304 172.387 288.158 167.91 288.158 163.242C288.158 158.574 286.304 154.098 283.003 150.797L283.507 150.293C286.066 152.856 287.808 156.121 288.513 159.674C289.217 163.226 288.853 166.908 287.466 170.254C286.08 173.6 283.732 176.46 280.721 178.473C277.71 180.486 274.169 181.561 270.547 181.563H270.562Z" fill="#E0E0E0"/>
<path d="M330.314 185.566H256.867V275.098H330.314V185.566Z" fill="#EBEBEB"/>
<path d="M323.928 195.545H262.735V275.321H323.928V195.545Z" fill="#F5F5F5"/>
<path d="M271.404 176.573C278.232 176.573 283.766 171.038 283.766 164.211C283.766 157.383 278.232 151.848 271.404 151.848C264.576 151.848 259.042 157.383 259.042 164.211C259.042 171.038 264.576 176.573 271.404 176.573Z" fill="#EBEBEB"/>
<path d="M262.49 173.167C260.186 170.783 258.91 167.589 258.938 164.273C258.967 160.957 260.296 157.785 262.641 155.44C264.986 153.096 268.158 151.766 271.474 151.738C274.79 151.71 277.984 152.985 280.368 155.29L279.972 155.686C278.848 154.564 277.515 153.674 276.047 153.068C274.579 152.461 273.007 152.15 271.419 152.151C269.831 152.153 268.259 152.467 266.793 153.076C265.326 153.685 263.994 154.576 262.872 155.7C261.75 156.824 260.861 158.158 260.254 159.625C259.648 161.093 259.336 162.665 259.338 164.253C259.339 165.841 259.653 167.413 260.262 168.88C260.871 170.346 261.763 171.678 262.886 172.8L262.49 173.167Z" fill="white"/>
<path d="M262.49 173.167L262.886 172.778C264.009 173.9 265.341 174.79 266.807 175.397C268.274 176.004 269.845 176.316 271.432 176.316C273.019 176.316 274.59 176.003 276.056 175.395C277.522 174.787 278.854 173.897 279.976 172.775C281.098 171.652 281.987 170.32 282.594 168.854C283.201 167.388 283.514 165.816 283.513 164.229C283.513 162.643 283.2 161.071 282.592 159.605C281.985 158.139 281.094 156.807 279.972 155.686L280.368 155.29C281.575 156.456 282.537 157.851 283.199 159.393C283.861 160.936 284.21 162.595 284.224 164.273C284.238 165.951 283.918 167.616 283.283 169.169C282.647 170.722 281.708 172.134 280.521 173.32C279.335 174.507 277.923 175.446 276.37 176.082C274.817 176.717 273.152 177.037 271.474 177.023C269.795 177.009 268.137 176.661 266.594 175.999C265.052 175.336 263.657 174.374 262.49 173.167Z" fill="white"/>
<path d="M275.998 168.797L275.602 168.408C278.482 165.528 280.908 160.164 279.922 155.549L280.462 155.434C281.52 160.243 279 165.794 275.998 168.797Z" fill="white"/>
<path d="M262.894 172.98L263.016 172.433C267.624 173.441 272.974 171.036 275.868 168.113L276.264 168.502C273.262 171.54 267.703 174.031 262.894 172.98Z" fill="white"/>
<path d="M267.257 160.056L266.861 159.667C269.863 156.658 275.422 154.166 280.231 155.218L280.109 155.765C275.501 154.757 270.151 157.162 267.257 160.056Z" fill="white"/>
<path d="M262.685 172.8C261.634 167.99 264.125 162.439 267.127 159.43L267.523 159.826C264.643 162.706 262.217 168.07 263.203 172.685L262.685 172.8Z" fill="white"/>
<path d="M279.978 155.291L262.495 172.774L262.887 173.166L280.37 155.683L279.978 155.291Z" fill="white"/>
<path d="M268.882 151.982L268.49 152.374L283.29 167.174L283.682 166.782L268.882 151.982Z" fill="white"/>
<path d="M262.736 155.445L262.344 155.837L279.817 173.31L280.209 172.918L262.736 155.445Z" fill="white"/>
<path d="M259.466 161.782L259.074 162.174L273.482 176.582L273.874 176.19L259.466 161.782Z" fill="white"/>
<path d="M252.67 177.437H27.6912V183.492H252.67V177.437Z" fill="#E0E0E0"/>
<path d="M245.484 49.9971H243.95V177.387H245.484V49.9971Z" fill="#E0E0E0"/>
<path d="M42.336 55.584H41.076V170.208H42.336V55.584Z" fill="#E0E0E0"/>
<path d="M243.929 50.0474H34.8768V177.437H243.929V50.0474Z" fill="#F0F0F0"/>
<path d="M237.118 55.584H41.076V170.208H237.118V55.584Z" fill="#E0E0E0"/>
<path d="M42.2352 123.062V177.063H73.44L42.2352 123.062ZM49.032 150.293L60.0264 169.351H49.032V150.293Z" fill="#FAFAFA"/>
<path opacity="0.1" d="M164.059 169.92H140.89V170.035C140.569 170.159 140.293 170.378 140.099 170.662C139.904 170.946 139.801 171.282 139.802 171.626V176.702C139.801 177.046 139.904 177.383 140.099 177.667C140.293 177.951 140.569 178.17 140.89 178.294V178.409H164.498C164.834 178.409 165.157 178.275 165.394 178.038C165.632 177.8 165.766 177.478 165.766 177.142V171.626C165.766 171.174 165.586 170.74 165.266 170.42C164.946 170.1 164.512 169.92 164.059 169.92Z" fill="black"/>
<path d="M164.506 173.427V176.4C164.506 176.567 164.473 176.733 164.408 176.887C164.344 177.041 164.25 177.181 164.132 177.299C164.014 177.417 163.873 177.51 163.718 177.573C163.564 177.636 163.398 177.668 163.231 177.667H139.622V173.419L164.506 173.427Z" fill="#F0F0F0"/>
<path d="M139.622 173.427V169.2H162.799C163.252 169.2 163.686 169.38 164.006 169.7C164.326 170.02 164.506 170.454 164.506 170.907V173.441L139.622 173.427Z" fill="#E0E0E0"/>
<path d="M147.031 173.426V175.968C147.029 176.42 146.849 176.853 146.529 177.172C146.21 177.492 145.777 177.672 145.325 177.674H140.242C140.018 177.674 139.796 177.63 139.589 177.544C139.382 177.459 139.193 177.333 139.035 177.174C138.877 177.016 138.751 176.828 138.665 176.621C138.579 176.414 138.535 176.192 138.535 175.968V173.426H147.031Z" fill="#FAFAFA"/>
<path d="M138.535 173.426V170.892C138.535 170.668 138.579 170.446 138.665 170.239C138.751 170.032 138.877 169.844 139.035 169.685C139.193 169.527 139.382 169.401 139.589 169.315C139.796 169.23 140.018 169.186 140.242 169.186H145.325C145.777 169.187 146.21 169.368 146.529 169.687C146.849 170.007 147.029 170.44 147.031 170.892V173.426H138.535Z" fill="#EBEBEB"/>
<path d="M164.498 174.118H147.182V174.478H164.498V174.118Z" fill="#E6E6E6"/>
<path d="M180 307.447C257.099 307.447 319.601 303.798 319.601 299.297C319.601 294.796 257.099 291.146 180 291.146C102.901 291.146 40.3992 294.796 40.3992 299.297C40.3992 303.798 102.901 307.447 180 307.447Z" fill="#F5F5F5"/>
<path d="M149.566 78.3434C149.566 78.8834 149.472 79.4234 149.407 79.9562C149.342 80.489 149.256 81.0218 149.177 81.569C149.098 82.1162 149.026 82.649 148.939 83.189C148.853 83.729 148.774 84.2762 148.723 84.8162C148.731 84.9457 148.731 85.0755 148.723 85.205C148.716 85.3345 148.716 85.4643 148.723 85.5938C148.73 85.7185 148.73 85.8435 148.723 85.9682C148.723 86.0978 148.723 86.2202 148.687 86.3426C148.672 86.5019 148.638 86.659 148.586 86.8106C148.536 86.9617 148.473 87.1086 148.399 87.2498C148.332 87.4061 148.228 87.5443 148.097 87.653C147.972 87.7636 147.821 87.8404 147.658 87.8762C147.43 87.9185 147.195 87.8856 146.988 87.7826C146.788 87.6855 146.622 87.5298 146.513 87.3362C146.455 87.1971 146.411 87.0523 146.383 86.9042C146.36 86.7516 146.348 86.5976 146.347 86.4434C146.336 86.2852 146.336 86.1264 146.347 85.9682C146.347 85.8098 146.347 85.6586 146.347 85.5002C146.39 85.025 146.448 84.5498 146.506 84.0602C146.563 83.5706 146.628 83.0954 146.7 82.6202C146.772 82.145 146.837 81.6338 146.909 81.137C146.981 80.6402 147.046 80.1506 147.089 79.6538C147.089 79.517 147.089 79.3802 147.089 79.2362C147.089 79.0922 147.089 78.941 147.089 78.8042C147.103 78.6653 147.103 78.5254 147.089 78.3866C147.075 78.2518 147.038 78.1204 146.981 77.9978C146.887 77.9114 146.794 77.825 146.7 77.7242C146.604 77.6329 146.515 77.5342 146.434 77.429C146.359 77.3231 146.301 77.2066 146.261 77.0834C146.232 76.9506 146.232 76.813 146.261 76.6802C146.278 76.4895 146.324 76.3026 146.398 76.1258C146.476 75.9473 146.577 75.7802 146.7 75.629C146.821 75.4756 146.967 75.3441 147.132 75.2402C147.298 75.135 147.485 75.0663 147.679 75.0386C147.776 75.0634 147.87 75.0972 147.96 75.1394L148.226 75.2762C148.447 75.4056 148.648 75.5656 148.824 75.7514C148.996 75.9411 149.143 76.1515 149.263 76.3778C149.383 76.6059 149.475 76.8477 149.537 77.0978C149.596 77.3575 149.622 77.6235 149.616 77.8898C149.612 77.9641 149.612 78.0386 149.616 78.113L149.566 78.3434Z" fill="#C2410C"/>
<path d="M158.134 81.526C158.115 81.6546 158.073 81.7789 158.011 81.8932C157.947 82.0092 157.867 82.1158 157.774 82.21C157.677 82.2982 157.568 82.371 157.45 82.426C157.33 82.4816 157.2 82.5134 157.068 82.5196C156.862 82.5196 156.653 82.5196 156.442 82.5196C156.233 82.5196 156.024 82.5196 155.808 82.5196C155.808 82.6996 155.765 82.8796 155.758 83.0668C155.749 83.2526 155.73 83.4377 155.7 83.6212C155.675 83.7729 155.613 83.9162 155.52 84.0388C155.427 84.1607 155.318 84.2697 155.196 84.3628C155.072 84.4659 154.934 84.5507 154.786 84.6148C154.64 84.6775 154.483 84.7094 154.325 84.7084C154.117 84.6744 153.931 84.5607 153.806 84.3916C153.682 84.2261 153.598 84.0338 153.562 83.83C153.512 83.6103 153.488 83.3856 153.49 83.1604C153.49 82.93 153.49 82.714 153.49 82.5196H152.95H152.395C152.245 82.5152 152.098 82.4704 151.97 82.39C151.842 82.3173 151.731 82.2164 151.646 82.0948C151.558 81.9753 151.485 81.8445 151.43 81.706C151.374 81.5619 151.357 81.4054 151.38 81.2524C151.447 81.0329 151.584 80.8409 151.769 80.7052C151.954 80.5737 152.161 80.4761 152.381 80.4172C152.616 80.3552 152.858 80.3166 153.101 80.302L153.77 80.2372V80.0644C153.795 79.8491 153.831 79.6352 153.878 79.4236C153.928 79.1989 154.005 78.9812 154.109 78.7756C154.213 78.5856 154.352 78.4171 154.519 78.2788C154.702 78.139 154.93 78.07 155.16 78.0844C155.284 78.0841 155.407 78.1112 155.52 78.1636C155.63 78.2156 155.73 78.2863 155.815 78.3724C155.901 78.4543 155.969 78.5522 156.017 78.6604C156.063 78.7749 156.087 78.897 156.089 79.0204C156.063 79.233 156.051 79.447 156.053 79.6612C156.053 79.8758 156.037 80.0901 156.002 80.302H156.204C156.422 80.2886 156.641 80.2886 156.859 80.302C157.08 80.3279 157.296 80.3861 157.5 80.4748C157.688 80.5571 157.853 80.683 157.982 80.842C158.057 80.9373 158.11 81.0483 158.136 81.1667C158.162 81.2851 158.161 81.408 158.134 81.526Z" fill="#C2410C"/>
<path d="M163.627 78.3434C163.627 78.8834 163.534 79.4234 163.469 79.9562C163.404 80.489 163.325 81.0218 163.238 81.569C163.152 82.1162 163.087 82.649 163.001 83.189C162.914 83.729 162.835 84.2762 162.785 84.8162C162.792 84.9457 162.792 85.0755 162.785 85.205C162.777 85.3345 162.777 85.4643 162.785 85.5938C162.792 85.7185 162.792 85.8435 162.785 85.9682C162.785 86.0978 162.785 86.2202 162.749 86.3426C162.733 86.5019 162.699 86.659 162.648 86.8106C162.597 86.9617 162.535 87.1086 162.461 87.2498C162.393 87.4061 162.29 87.5443 162.158 87.653C162.033 87.7636 161.882 87.8404 161.719 87.8762C161.492 87.9185 161.257 87.8856 161.05 87.7826C160.851 87.6833 160.686 87.5282 160.574 87.3362C160.516 87.1971 160.473 87.0523 160.445 86.9042C160.422 86.7516 160.41 86.5976 160.409 86.4434C160.398 86.2852 160.398 86.1264 160.409 85.9682C160.409 85.8098 160.409 85.6586 160.409 85.5002C160.452 85.025 160.51 84.5498 160.567 84.0602C160.625 83.5706 160.69 83.0954 160.762 82.6202C160.834 82.145 160.898 81.6338 160.97 81.137C161.042 80.6402 161.107 80.1506 161.15 79.6538C161.15 79.517 161.15 79.3802 161.15 79.2362C161.15 79.0922 161.15 78.941 161.15 78.8042C161.165 78.6653 161.165 78.5254 161.15 78.3866C161.137 78.2518 161.1 78.1204 161.042 77.9978C160.949 77.9114 160.855 77.825 160.762 77.7242C160.665 77.6329 160.576 77.5342 160.495 77.429C160.421 77.3231 160.362 77.2066 160.322 77.0834C160.293 76.9506 160.293 76.813 160.322 76.6802C160.34 76.4895 160.386 76.3026 160.459 76.1258C160.537 75.9473 160.639 75.7802 160.762 75.629C160.882 75.4756 161.028 75.3441 161.194 75.2402C161.36 75.135 161.546 75.0663 161.741 75.0386C161.837 75.0634 161.931 75.0972 162.022 75.1394L162.288 75.2762C162.509 75.4056 162.71 75.5656 162.886 75.7514C163.058 75.9411 163.205 76.1515 163.325 76.3778C163.448 76.6044 163.54 76.8466 163.598 77.0978C163.657 77.3575 163.684 77.6235 163.678 77.8898C163.674 77.9641 163.674 78.0386 163.678 78.113L163.627 78.3434Z" fill="#C2410C"/>
<path d="M172.728 83.0016C172.685 83.1497 172.612 83.2871 172.512 83.4048C172.418 83.5264 172.306 83.6332 172.181 83.7216C172.057 83.8095 171.921 83.8797 171.778 83.9304C171.635 83.9867 171.484 84.016 171.331 84.0168C170.611 84.0672 169.942 84.0888 169.25 84.0816C168.559 84.0744 167.882 84.0816 167.198 84.0024C167.045 83.9925 166.896 83.9508 166.759 83.88C166.628 83.817 166.509 83.7318 166.406 83.628C166.304 83.5194 166.219 83.3955 166.154 83.2608C166.092 83.1199 166.058 82.9683 166.054 82.8144C166.042 82.7005 166.07 82.5861 166.133 82.4904C166.189 82.3978 166.265 82.319 166.356 82.26C166.447 82.1922 166.546 82.1365 166.651 82.0944L166.961 81.9864C167.198 81.9228 167.438 81.8723 167.681 81.8352C167.919 81.8012 168.16 81.7844 168.401 81.7848H168.79L169.178 81.8208C169.445 81.8208 169.718 81.8208 169.999 81.8208H170.446H170.662C170.736 81.8313 170.811 81.8313 170.885 81.8208H171.295C171.443 81.8318 171.59 81.8535 171.734 81.8856C171.875 81.9144 172.012 81.9554 172.145 82.008C172.268 82.0561 172.382 82.1243 172.483 82.2096C172.578 82.2975 172.648 82.4094 172.685 82.5336C172.736 82.6841 172.75 82.8444 172.728 83.0016ZM173.074 80.1216C173.094 80.2642 173.072 80.4096 173.009 80.5392C172.944 80.6588 172.853 80.7622 172.742 80.8416C172.628 80.9258 172.499 80.9869 172.361 81.0216C172.225 81.0462 172.086 81.0462 171.95 81.0216H167.242C167.1 81.0292 166.958 80.9994 166.831 80.9352C166.712 80.8765 166.606 80.7931 166.522 80.6904C166.44 80.5847 166.383 80.4615 166.356 80.3304C166.32 80.1935 166.32 80.0497 166.356 79.9128C166.375 79.792 166.425 79.678 166.5 79.5816C166.574 79.4876 166.661 79.4051 166.759 79.3368C166.859 79.2668 166.965 79.2066 167.076 79.1568L167.4 79.0128C167.633 78.9274 167.874 78.8671 168.12 78.8328L168.84 78.7464H169.207C169.33 78.7388 169.452 78.7388 169.574 78.7464C169.819 78.7464 170.064 78.7464 170.294 78.7464H170.525C170.604 78.7536 170.683 78.7536 170.762 78.7464H171H171.245C171.455 78.7498 171.665 78.774 171.871 78.8184C172.081 78.8587 172.282 78.9316 172.469 79.0344C172.646 79.133 172.799 79.2709 172.915 79.4376C173.041 79.6369 173.097 79.8726 173.074 80.1072V80.1216Z" fill="#C2410C"/>
<path d="M183.996 86.0043C183.812 86.2038 183.598 86.3738 183.362 86.5083C183.133 86.6446 182.892 86.7603 182.642 86.8539C182.39 86.9475 182.131 87.0339 181.872 87.1131C181.613 87.1923 181.354 87.2643 181.109 87.3435C180.533 87.4947 179.957 87.6243 179.366 87.7179C178.782 87.8183 178.188 87.8545 177.595 87.8259C177.407 87.8299 177.221 87.7772 177.062 87.6747C176.914 87.578 176.789 87.4503 176.695 87.3003C176.595 87.1422 176.527 86.9661 176.494 86.7819C176.469 86.5954 176.469 86.4067 176.494 86.2203C176.514 85.9767 176.557 85.7355 176.623 85.5003C176.686 85.2551 176.765 85.0145 176.861 84.7803C176.961 84.5554 177.074 84.3366 177.199 84.125C177.322 83.909 177.451 83.7003 177.581 83.4987L178.582 82.0587L179.59 80.6187C179.726 80.4171 179.863 80.2011 179.993 79.9779C180.128 79.7657 180.248 79.5444 180.353 79.3155C180.461 79.0813 180.555 78.8409 180.634 78.5955C180.709 78.3609 180.762 78.1199 180.792 77.8755C180.806 77.7969 180.806 77.7164 180.792 77.6379C180.778 77.5665 180.751 77.4983 180.713 77.4363C180.675 77.3782 180.623 77.3311 180.562 77.2995C180.494 77.2549 180.412 77.237 180.331 77.2491C180.142 77.2553 179.954 77.2794 179.77 77.3211C179.583 77.3644 179.4 77.4222 179.222 77.4938L178.726 77.7027C178.561 77.7861 178.416 77.904 178.301 78.0483L178.229 78.2138L178.164 78.365L178.114 78.5163C178.078 78.6406 178.017 78.756 177.934 78.8546C177.856 78.9603 177.764 79.0548 177.66 79.1355C177.552 79.2072 177.436 79.2652 177.314 79.3083C177.194 79.3507 177.068 79.3726 176.94 79.3731C176.77 79.388 176.599 79.3503 176.45 79.265C176.376 79.2232 176.31 79.1665 176.258 79.0984C176.206 79.0303 176.169 78.9522 176.148 78.8691C176.068 78.7251 176.022 78.5653 176.011 78.4011C175.993 78.2335 175.993 78.0646 176.011 77.8971C176.055 77.6392 176.153 77.3937 176.299 77.1771C176.447 76.9442 176.626 76.7334 176.832 76.5507C177.04 76.3628 177.267 76.1964 177.509 76.0538C177.754 75.917 177.998 75.7875 178.229 75.6795C178.733 75.4536 179.262 75.2893 179.806 75.1899C180.342 75.094 180.888 75.0554 181.433 75.0746C181.774 75.0741 182.104 75.2027 182.354 75.4346C182.597 75.6604 182.788 75.9353 182.916 76.2411C183.062 76.5498 183.166 76.8767 183.226 77.213C183.283 77.5579 183.305 77.9077 183.29 78.2571C183.27 78.6877 183.175 79.1116 183.01 79.5099C182.85 79.916 182.657 80.3085 182.434 80.6834L181.584 81.8787C181.303 82.2747 181.022 82.6635 180.727 83.0595C180.432 83.4555 180.202 83.8227 179.964 84.2115C179.724 84.6023 179.537 85.0237 179.41 85.4642C180.007 85.3635 180.598 85.2483 181.188 85.1187C181.778 84.9891 182.369 84.8811 182.959 84.8019C183.113 84.7897 183.267 84.8276 183.398 84.9099C183.521 84.9941 183.628 85.0988 183.715 85.2195C183.804 85.326 183.877 85.4449 183.931 85.5723C183.988 85.7087 184.01 85.8571 183.996 86.0043Z" fill="#C2410C"/>
<path d="M150.358 150.134C150.176 150.334 149.965 150.504 149.731 150.638C149.501 150.773 149.26 150.889 149.011 150.984C148.752 151.078 148.5 151.164 148.234 151.243L147.478 151.474C146.902 151.625 146.318 151.754 145.728 151.848C145.143 151.949 144.549 151.985 143.957 151.956C143.77 151.96 143.587 151.907 143.431 151.805C143.279 151.711 143.151 151.582 143.057 151.43C142.963 151.27 142.897 151.095 142.862 150.912C142.834 150.726 142.834 150.537 142.862 150.35C142.876 150.107 142.917 149.865 142.985 149.63C143.046 149.384 143.128 149.143 143.23 148.91C143.327 148.686 143.438 148.467 143.561 148.255C143.69 148.039 143.813 147.83 143.942 147.629L144.943 146.189L145.958 144.749L146.362 144.108C146.493 143.891 146.613 143.668 146.722 143.438C146.829 143.205 146.92 142.964 146.995 142.718C147.074 142.485 147.127 142.243 147.154 141.998C147.168 141.92 147.168 141.839 147.154 141.761C147.139 141.689 147.112 141.621 147.074 141.559C147.037 141.501 146.985 141.454 146.923 141.422C146.852 141.379 146.768 141.361 146.686 141.372C146.497 141.378 146.309 141.402 146.124 141.444C145.94 141.486 145.759 141.544 145.584 141.617C145.418 141.682 145.253 141.746 145.087 141.826C144.919 141.907 144.771 142.025 144.655 142.171L144.583 142.337L144.518 142.488L144.475 142.639C144.437 142.762 144.376 142.877 144.295 142.978C144.216 143.083 144.122 143.175 144.014 143.251C143.911 143.331 143.794 143.392 143.669 143.431C143.551 143.474 143.427 143.496 143.302 143.496C143.129 143.512 142.955 143.474 142.805 143.388C142.73 143.346 142.665 143.289 142.613 143.221C142.561 143.153 142.523 143.075 142.502 142.992C142.422 142.849 142.377 142.688 142.373 142.524C142.358 142.356 142.358 142.188 142.373 142.02C142.416 141.762 142.514 141.517 142.661 141.3C142.812 141.07 142.991 140.86 143.194 140.674C143.405 140.486 143.634 140.319 143.878 140.177C144.111 140.039 144.351 139.914 144.598 139.802C145.105 139.578 145.636 139.413 146.182 139.313C146.716 139.217 147.259 139.179 147.802 139.198C148.144 139.196 148.473 139.324 148.723 139.558C148.97 139.78 149.162 140.056 149.285 140.364C149.434 140.672 149.538 140.999 149.594 141.336C149.652 141.681 149.674 142.031 149.659 142.38C149.638 142.81 149.545 143.233 149.386 143.633C149.22 144.038 149.025 144.43 148.802 144.806L147.953 146.002C147.679 146.398 147.391 146.786 147.096 147.182C146.801 147.578 146.578 147.946 146.333 148.334C146.096 148.727 145.909 149.148 145.778 149.587C146.376 149.486 146.974 149.371 147.564 149.242C148.154 149.112 148.738 149.004 149.335 148.925C149.487 148.914 149.638 148.952 149.767 149.033C149.892 149.115 149.999 149.22 150.084 149.342C150.177 149.447 150.253 149.566 150.307 149.695C150.357 149.836 150.374 149.986 150.358 150.134Z" fill="#C2410C"/>
<path d="M159.358 145.656C159.342 145.786 159.3 145.911 159.235 146.024C159.171 146.14 159.091 146.246 158.998 146.34C158.901 146.429 158.792 146.501 158.674 146.556C158.556 146.612 158.429 146.644 158.299 146.65C158.083 146.65 157.874 146.65 157.666 146.65C157.457 146.65 157.248 146.65 157.032 146.65C157.032 146.83 157.032 147.01 156.982 147.197C156.973 147.383 156.954 147.568 156.924 147.752C156.902 147.904 156.84 148.048 156.744 148.169C156.651 148.291 156.542 148.4 156.42 148.493C156.297 148.595 156.162 148.679 156.017 148.745C155.869 148.808 155.71 148.84 155.549 148.839C155.341 148.805 155.155 148.691 155.03 148.522C154.91 148.355 154.826 148.163 154.786 147.96C154.74 147.74 154.715 147.516 154.714 147.291C154.714 147.06 154.714 146.844 154.714 146.65H154.181H153.626C153.474 146.644 153.325 146.6 153.194 146.52C153.066 146.448 152.955 146.347 152.87 146.225C152.787 146.104 152.717 145.973 152.662 145.836C152.596 145.695 152.578 145.535 152.611 145.383C152.679 145.163 152.815 144.971 153 144.836C153.184 144.705 153.388 144.608 153.605 144.548C153.841 144.486 154.082 144.448 154.325 144.432L154.994 144.368V144.195C155.019 143.979 155.055 143.766 155.102 143.554C155.151 143.328 155.231 143.11 155.34 142.906C155.44 142.713 155.58 142.544 155.75 142.409C155.933 142.268 156.161 142.198 156.391 142.215C156.513 142.215 156.634 142.242 156.744 142.294C156.855 142.344 156.955 142.415 157.039 142.503C157.125 142.585 157.193 142.683 157.241 142.791C157.29 142.904 157.315 143.027 157.313 143.151C157.313 143.367 157.277 143.583 157.277 143.792C157.276 144.006 157.262 144.22 157.234 144.432H157.435C157.652 144.431 157.868 144.443 158.083 144.468C158.304 144.494 158.52 144.552 158.724 144.641C158.913 144.721 159.079 144.848 159.206 145.008C159.276 145.099 159.326 145.204 159.352 145.316C159.378 145.428 159.38 145.544 159.358 145.656Z" fill="#C2410C"/>
<path d="M169.639 150.134C169.458 150.334 169.246 150.504 169.013 150.638C168.783 150.774 168.542 150.89 168.293 150.984C168.041 151.078 167.782 151.164 167.522 151.243L166.759 151.474C166.185 151.628 165.604 151.753 165.017 151.848C164.432 151.948 163.838 151.985 163.246 151.956C163.057 151.959 162.872 151.907 162.713 151.805C162.565 151.708 162.439 151.58 162.346 151.43C162.251 151.27 162.186 151.095 162.151 150.912C162.119 150.726 162.119 150.536 162.151 150.35C162.165 150.107 162.206 149.865 162.274 149.63C162.335 149.384 162.417 149.143 162.518 148.91C162.616 148.686 162.726 148.467 162.85 148.255C162.972 148.039 163.102 147.83 163.231 147.629L164.232 146.189L165.247 144.749C165.377 144.547 165.514 144.331 165.643 144.108C165.78 143.893 165.902 143.669 166.01 143.438C166.118 143.205 166.209 142.964 166.284 142.718C166.359 142.484 166.412 142.243 166.442 141.998C166.46 141.92 166.46 141.839 166.442 141.761C166.43 141.69 166.406 141.622 166.37 141.559C166.333 141.501 166.281 141.454 166.219 141.422C166.148 141.379 166.064 141.361 165.982 141.372C165.793 141.378 165.605 141.402 165.42 141.444C165.233 141.487 165.05 141.545 164.873 141.617C164.707 141.682 164.549 141.746 164.383 141.826C164.215 141.907 164.067 142.025 163.951 142.171L163.879 142.337L163.814 142.488L163.771 142.639C163.73 142.761 163.669 142.875 163.591 142.978C163.511 143.081 163.416 143.173 163.31 143.251C163.206 143.329 163.089 143.39 162.965 143.431C162.847 143.474 162.723 143.496 162.598 143.496C162.425 143.512 162.251 143.474 162.101 143.388C162.026 143.346 161.961 143.289 161.909 143.221C161.857 143.153 161.819 143.075 161.798 142.992C161.718 142.849 161.673 142.688 161.669 142.524C161.647 142.357 161.647 142.187 161.669 142.02C161.712 141.762 161.81 141.517 161.957 141.3C162.106 141.069 162.285 140.858 162.49 140.674C162.698 140.486 162.925 140.319 163.166 140.177C163.411 140.04 163.656 139.91 163.886 139.802C164.39 139.577 164.92 139.412 165.463 139.313C166 139.217 166.545 139.179 167.09 139.198C167.432 139.196 167.762 139.324 168.012 139.558C168.255 139.783 168.446 140.058 168.574 140.364C168.722 140.672 168.827 140.999 168.883 141.336C168.941 141.681 168.963 142.031 168.948 142.38C168.927 142.81 168.834 143.233 168.674 143.633C168.509 144.038 168.314 144.43 168.091 144.806L167.242 146.002C166.968 146.398 166.68 146.786 166.385 147.182C166.09 147.578 165.866 147.946 165.622 148.334C165.384 148.727 165.198 149.148 165.067 149.587C165.665 149.486 166.262 149.371 166.846 149.242C167.429 149.112 168.026 149.004 168.624 148.925C168.776 148.914 168.927 148.952 169.056 149.033C169.18 149.115 169.288 149.22 169.373 149.342C169.466 149.445 169.54 149.565 169.589 149.695C169.642 149.835 169.659 149.986 169.639 150.134Z" fill="#C2410C"/>
<path d="M179.172 147.132C179.129 147.279 179.058 147.416 178.963 147.536C178.867 147.657 178.753 147.764 178.625 147.852C178.501 147.94 178.365 148.01 178.222 148.061C178.081 148.113 177.933 148.143 177.782 148.148C177.062 148.198 176.386 148.22 175.694 148.212C175.003 148.205 174.326 148.212 173.642 148.133C173.489 148.123 173.34 148.082 173.203 148.011C172.935 147.884 172.723 147.664 172.606 147.392C172.541 147.251 172.504 147.1 172.498 146.945C172.49 146.832 172.517 146.718 172.577 146.621C172.633 146.529 172.709 146.45 172.8 146.391C172.892 146.324 172.991 146.269 173.095 146.225L173.405 146.117C173.642 146.053 173.882 146.003 174.125 145.966C174.363 145.932 174.604 145.915 174.845 145.916H175.241L175.63 145.952C175.889 145.952 176.162 145.952 176.443 145.952H176.89H177.106C177.18 145.962 177.255 145.962 177.329 145.952H177.739C177.887 145.963 178.034 145.984 178.178 146.016C178.319 146.045 178.456 146.086 178.589 146.139C178.713 146.184 178.828 146.253 178.927 146.34C179.022 146.428 179.092 146.54 179.129 146.664C179.18 146.815 179.194 146.975 179.172 147.132ZM179.518 144.252C179.542 144.395 179.519 144.542 179.453 144.67C179.388 144.79 179.297 144.893 179.186 144.972C179.073 145.058 178.943 145.119 178.805 145.152C178.669 145.177 178.53 145.177 178.394 145.152H173.686C173.546 145.161 173.406 145.131 173.282 145.066C173.16 145.009 173.051 144.926 172.966 144.821C172.883 144.715 172.827 144.592 172.8 144.461C172.771 144.323 172.771 144.181 172.8 144.044C172.819 143.923 172.869 143.809 172.944 143.712C173.018 143.618 173.105 143.536 173.203 143.468C173.303 143.395 173.409 143.332 173.52 143.28L173.844 143.136C174.077 143.051 174.318 142.991 174.564 142.956L175.284 142.87H175.651C175.774 142.862 175.896 142.862 176.018 142.87C176.263 142.87 176.515 142.87 176.738 142.87H176.976C177.053 142.877 177.13 142.877 177.206 142.87H177.444H177.689C177.899 142.873 178.109 142.898 178.315 142.942C178.525 142.981 178.727 143.054 178.913 143.158C179.09 143.257 179.243 143.394 179.359 143.561C179.487 143.762 179.543 144.001 179.518 144.238V144.252Z" fill="#C2410C"/>
<path d="M189.734 146.355C189.685 146.585 189.595 146.804 189.468 147.003C189.346 147.208 189.162 147.369 188.942 147.463C188.916 147.55 188.896 147.639 188.885 147.73L188.842 147.996C188.842 148.191 188.842 148.385 188.842 148.587L188.798 149.177C188.798 149.371 188.798 149.559 188.798 149.746C188.798 149.933 188.762 150.127 188.741 150.322C188.718 150.5 188.68 150.676 188.626 150.847C188.57 151.025 188.488 151.192 188.381 151.344C188.281 151.496 188.154 151.627 188.006 151.733C187.83 151.856 187.624 151.929 187.41 151.944C187.196 151.959 186.981 151.916 186.79 151.819C186.683 151.769 186.588 151.695 186.513 151.605C186.437 151.514 186.381 151.408 186.35 151.294C186.263 151.064 186.223 150.819 186.235 150.574C186.235 150.3 186.235 150.034 186.278 149.782C186.322 149.53 186.343 149.191 186.386 148.918C186.419 148.775 186.443 148.631 186.458 148.486L186.523 148.061C186.512 147.985 186.512 147.907 186.523 147.831C186.535 147.757 186.535 147.681 186.523 147.607C186.415 147.6 186.307 147.6 186.199 147.607H185.882C185.486 147.607 185.09 147.607 184.702 147.557C184.316 147.525 183.935 147.453 183.564 147.341L183.046 147.19C182.868 147.134 182.695 147.067 182.527 146.988C182.364 146.914 182.21 146.822 182.066 146.715C181.928 146.603 181.807 146.472 181.706 146.326C181.639 146.201 181.6 146.064 181.591 145.923C181.58 145.772 181.58 145.62 181.591 145.469C181.632 145.102 181.709 144.74 181.822 144.389C181.937 144.029 182.066 143.669 182.21 143.331C182.354 142.992 182.542 142.611 182.722 142.272C182.902 141.934 183.11 141.595 183.326 141.264C183.432 141.091 183.547 140.926 183.672 140.767C183.794 140.602 183.924 140.451 184.061 140.299C184.198 140.148 184.306 140.026 184.435 139.889C184.569 139.759 184.728 139.658 184.903 139.594C185.073 139.585 185.242 139.622 185.393 139.702C185.535 139.779 185.668 139.874 185.789 139.983C185.903 140.109 186.005 140.246 186.091 140.393C186.176 140.544 186.216 140.717 186.206 140.89C186.13 141.204 186.011 141.507 185.854 141.79C185.688 142.071 185.53 142.359 185.371 142.647C185.213 142.935 185.004 143.302 184.838 143.633C184.671 143.96 184.522 144.297 184.392 144.641C184.752 144.706 185.112 144.763 185.479 144.799L186.581 144.936C186.633 144.684 186.671 144.429 186.696 144.173L186.761 143.403C186.761 143.158 186.804 142.906 186.818 142.683C186.833 142.459 186.818 142.171 186.869 141.927C186.919 141.682 186.926 141.372 186.97 141.099C187.014 140.816 187.079 140.537 187.164 140.263C187.197 140.136 187.251 140.014 187.322 139.903C187.394 139.792 187.484 139.695 187.589 139.615C187.689 139.53 187.803 139.464 187.927 139.421C188.051 139.383 188.18 139.371 188.309 139.385C188.481 139.401 188.646 139.457 188.791 139.551C188.931 139.635 189.053 139.745 189.151 139.875C189.251 140.009 189.327 140.16 189.374 140.321C189.419 140.485 189.438 140.655 189.432 140.825C189.432 141.149 189.432 141.473 189.382 141.797C189.331 142.121 189.331 142.445 189.295 142.769C189.259 143.093 189.238 143.424 189.202 143.748C189.166 144.072 189.137 144.403 189.108 144.735C189.101 144.826 189.101 144.917 189.108 145.008C189.119 145.099 189.119 145.191 189.108 145.282C189.322 145.387 189.504 145.549 189.634 145.75C189.725 145.937 189.76 146.147 189.734 146.355Z" fill="#C2410C"/>
<path d="M224.006 290.384C223.394 290.48 222.767 290.343 222.25 290.002C222.185 289.914 222.151 289.808 222.151 289.7C222.151 289.591 222.185 289.485 222.25 289.397C222.34 289.231 222.493 289.106 222.674 289.052C223.654 288.742 225.763 289.836 225.857 289.887C225.883 289.9 225.903 289.921 225.916 289.947C225.929 289.973 225.934 290.002 225.929 290.031C225.925 290.059 225.913 290.085 225.893 290.106C225.874 290.126 225.849 290.14 225.821 290.146C225.225 290.284 224.618 290.363 224.006 290.384ZM223.02 289.275C222.93 289.275 222.84 289.289 222.754 289.318C222.696 289.329 222.642 289.354 222.596 289.391C222.549 289.427 222.512 289.474 222.487 289.527C222.386 289.707 222.43 289.786 222.487 289.829C222.782 290.204 224.273 290.153 225.367 289.98C224.637 289.598 223.84 289.359 223.02 289.275Z" fill="#C2410C"/>
<path d="M225.785 290.16H225.727C225.007 289.872 223.531 288.648 223.632 288C223.632 287.835 223.754 287.633 224.136 287.583C224.275 287.562 224.417 287.57 224.553 287.606C224.689 287.642 224.817 287.705 224.928 287.792C225.706 288.382 225.929 289.952 225.936 290.045C225.94 290.07 225.937 290.096 225.926 290.119C225.916 290.142 225.9 290.161 225.878 290.175C225.846 290.181 225.813 290.176 225.785 290.16ZM224.244 287.82H224.165C223.913 287.82 223.898 287.95 223.891 287.986C223.891 288.389 224.842 289.354 225.59 289.764C225.494 289.095 225.195 288.472 224.734 287.979C224.595 287.867 224.421 287.811 224.244 287.82Z" fill="#C2410C"/>
<path d="M232.769 292.954L226.865 293.191L222.127 267.156L221.702 264.802L221.414 263.225H230.299L230.342 263.779L230.602 266.818L232.769 292.954Z" fill="#FFB573"/>
<path d="M226.375 289.296L232.855 289.044C232.973 289.037 233.089 289.072 233.183 289.142C233.278 289.211 233.345 289.312 233.374 289.426L234.749 294.631C234.808 294.852 234.778 295.087 234.665 295.286C234.552 295.484 234.364 295.629 234.144 295.69C234.084 295.7 234.024 295.7 233.964 295.69C231.631 295.747 229.558 295.69 226.663 295.819C223.243 295.949 224.129 296.331 220.111 296.539C217.692 296.669 217.138 293.933 218.16 293.76C222.833 292.983 223.265 291.543 225.014 289.793C225.394 289.47 225.877 289.294 226.375 289.296Z" fill="#263238"/>
<path d="M218.88 182.024H218.426L218.066 181.966L217.382 181.858C216.936 181.779 216.511 181.685 216.079 181.592C215.23 181.397 214.402 181.16 213.588 180.872C211.973 180.36 210.393 179.744 208.858 179.028C207.333 178.311 205.855 177.501 204.43 176.602C203.71 176.177 202.99 175.702 202.334 175.234C201.679 174.766 201.024 174.269 200.304 173.722C198.675 172.387 197.372 170.698 196.495 168.783C195.753 167.215 195.163 165.581 194.731 163.901C194.328 162.31 193.795 152.18 193.788 150.56L197.842 148.839C198.778 151.582 199.865 158.991 201.074 161.619C201.641 162.822 202.295 163.982 203.033 165.089C203.544 165.912 204.223 166.616 205.027 167.156C205.567 167.465 206.208 167.876 206.798 168.185C207.389 168.495 208.008 168.862 208.634 169.157C209.261 169.452 209.873 169.769 210.506 170.043C211.14 170.316 211.774 170.583 212.4 170.871C213.674 171.368 214.956 171.828 216.252 172.21C216.886 172.412 219.686 171.029 220.32 171.202L221.256 171.418L222.019 171.576L218.88 182.024Z" fill="#263238"/>
<path d="M197.849 148.853L196.762 144.116L190.606 146.506C191.094 148.098 192.11 149.477 193.486 150.416C193.888 150.669 194.36 150.789 194.835 150.758C195.31 150.727 195.762 150.547 196.128 150.243L197.849 148.853Z" fill="#FFB573"/>
<path d="M192.29 141.192L188.503 144.324L190.606 146.506L196.754 144.108L192.29 141.192Z" fill="#FFB573"/>
<path d="M214.862 177.121C214.258 182.686 213.998 194.184 217.022 215.475L248.63 214.215C248.63 209.744 245.563 196.453 247.99 176.451C248.171 175.016 247.776 173.568 246.89 172.424C246.004 171.281 244.701 170.536 243.266 170.353H243.072C241.524 170.223 239.803 170.122 238.126 170.108C233.638 170.026 229.15 170.204 224.683 170.641C222.962 170.864 221.285 171.202 219.845 171.526C218.537 171.828 217.356 172.528 216.463 173.53C215.571 174.532 215.011 175.787 214.862 177.121Z" fill="#263238"/>
<path d="M235.037 159.884C234.828 164.024 235.253 168.812 237.722 170.799C234.039 173.63 229.971 175.921 225.641 177.603C221.256 174.161 223.481 171.627 223.481 171.627C227.563 169.632 227.434 166.587 226.361 163.304L232.56 158.4C233.568 157.45 235.109 158.357 235.037 159.884Z" fill="#FFB573"/>
<path opacity="0.2" d="M235.037 159.884C235.116 158.365 233.597 157.45 232.538 158.386L226.354 163.325C226.922 164.773 227.096 166.346 226.858 167.883C228.25 168.002 229.65 167.785 230.94 167.249C232.612 166.594 234.047 165.45 235.058 163.966C234.965 162.607 234.958 161.244 235.037 159.884Z" fill="black"/>
<path d="M242.143 155.168C241.826 155.888 241.531 156.557 241.265 157.198C239.429 161.41 238.14 164.089 234.511 165.579C228.247 168.157 221.45 162.85 221.954 156.788C222.408 151.323 226.21 143.396 233.107 143.41C238.5 143.41 242.467 147.291 242.762 151.568C242.861 152.801 242.648 154.039 242.143 155.168Z" fill="#FFB573"/>
<path d="M225.77 157.184C226.407 157.59 227.132 157.837 227.884 157.903C228.636 157.97 229.393 157.854 230.09 157.565C230.109 157.556 230.126 157.543 230.14 157.527C230.154 157.511 230.165 157.492 230.171 157.472C230.178 157.452 230.181 157.431 230.179 157.41C230.178 157.389 230.172 157.368 230.162 157.349C230.153 157.33 230.14 157.314 230.124 157.3C230.108 157.286 230.089 157.275 230.069 157.269C230.049 157.262 230.028 157.259 230.007 157.261C229.986 157.262 229.965 157.268 229.946 157.277C229.298 157.531 228.599 157.628 227.907 157.562C227.214 157.496 226.546 157.267 225.958 156.896C225.919 156.874 225.874 156.868 225.831 156.879C225.788 156.889 225.751 156.916 225.727 156.953C225.715 156.971 225.706 156.992 225.702 157.013C225.697 157.034 225.697 157.056 225.701 157.078C225.705 157.099 225.713 157.119 225.725 157.138C225.737 157.156 225.752 157.171 225.77 157.184Z" fill="#263238"/>
<path d="M231.523 151.921C231.25 152.367 230.803 152.583 230.508 152.403C230.213 152.223 230.198 151.726 230.508 151.28C230.818 150.833 231.228 150.617 231.523 150.797C231.818 150.977 231.797 151.503 231.523 151.921Z" fill="#263238"/>
<path d="M226.418 149.883C226.145 150.329 225.698 150.603 225.403 150.365C225.108 150.128 225.086 149.688 225.36 149.242C225.634 148.796 226.08 148.522 226.382 148.76C226.685 148.997 226.685 149.444 226.418 149.883Z" fill="#263238"/>
<path d="M233.561 151.035C233.511 151.006 233.469 150.964 233.441 150.913C233.413 150.862 233.4 150.805 233.402 150.747C233.429 150.365 233.363 149.982 233.21 149.631C233.057 149.28 232.822 148.971 232.524 148.731C232.491 148.707 232.463 148.677 232.441 148.643C232.42 148.608 232.405 148.57 232.398 148.53C232.392 148.489 232.393 148.448 232.402 148.409C232.411 148.369 232.428 148.332 232.452 148.299C232.497 148.233 232.566 148.188 232.645 148.173C232.723 148.158 232.804 148.175 232.87 148.219C233.25 148.522 233.551 148.912 233.749 149.355C233.947 149.799 234.036 150.283 234.007 150.768C234 150.851 233.96 150.928 233.897 150.981C233.834 151.035 233.752 151.062 233.669 151.056H233.554L233.561 151.035Z" fill="#263238"/>
<path d="M225.432 146.722C225.374 146.699 225.324 146.658 225.288 146.607C225.261 146.574 225.241 146.535 225.23 146.494C225.219 146.453 225.217 146.41 225.224 146.368C225.231 146.325 225.246 146.285 225.27 146.249C225.293 146.214 225.324 146.183 225.36 146.161C225.763 145.888 226.226 145.715 226.709 145.658C227.193 145.6 227.683 145.659 228.139 145.829C228.212 145.868 228.266 145.933 228.292 146.011C228.317 146.088 228.312 146.173 228.276 146.247C228.24 146.316 228.18 146.37 228.106 146.397C228.033 146.423 227.952 146.421 227.88 146.391C227.516 146.256 227.124 146.211 226.739 146.262C226.354 146.312 225.987 146.455 225.67 146.679C225.598 146.721 225.514 146.737 225.432 146.722Z" fill="#263238"/>
<path d="M227.254 152.208C226.159 152.928 226.03 152.799 224.712 153.26C225.125 153.818 225.74 154.192 226.426 154.304L227.254 152.208Z" fill="#FF5652"/>
<path opacity="0.3" d="M242.143 155.167C241.826 155.887 241.531 156.557 241.265 157.198C240.769 157.008 240.227 156.97 239.71 157.09C238.875 157.328 238.141 157.834 237.622 158.53C238.079 156.44 238.698 154.389 239.472 152.395C239.724 151.755 239.897 150.689 240.746 150.775C241.468 150.899 242.155 151.174 242.762 151.582C242.859 152.81 242.646 154.043 242.143 155.167Z" fill="black"/>
<path d="M241.2 160.402C240.395 161.314 239.272 161.886 238.061 162C236.556 162.079 236.347 160.503 237.218 159.12C237.996 157.875 239.731 156.334 241.02 156.895C242.309 157.457 242.266 159.243 241.2 160.402Z" fill="#FFB573"/>
<path opacity="0.2" d="M230.342 263.779L230.602 266.818L222.271 267.955L221.702 264.802L221.198 264.859L220.788 259.927L220.752 259.495L231.005 259.085L231.271 260.561L231.804 263.607L230.342 263.779Z" fill="black"/>
<path d="M217.015 215.482C215.619 226.287 215.33 237.206 216.151 248.069C216.871 255.853 218.311 259.784 218.311 259.784L231.271 260.561C231.271 260.561 231.559 256.436 231.66 249.171C231.35 229.061 237.802 214.647 237.802 214.647L217.015 215.482Z" fill="#C2410C"/>
<path opacity="0.3" d="M233.914 224.288C228.708 225.634 230.22 234.411 231.998 240.329C232.424 234.927 233.315 229.572 234.662 224.324L233.914 224.288Z" fill="black"/>
<path d="M271.174 277.459C270.742 278.086 270.245 278.633 269.82 278.64C269.712 278.637 269.606 278.602 269.518 278.539C269.429 278.477 269.362 278.389 269.323 278.288C269.287 278.2 269.268 278.105 269.268 278.01C269.268 277.915 269.287 277.821 269.323 277.733C269.669 276.768 271.807 275.739 271.908 275.688C271.943 275.675 271.981 275.676 272.015 275.689C272.05 275.702 272.078 275.727 272.095 275.76C272.11 275.797 272.11 275.838 272.095 275.875C271.837 276.43 271.528 276.961 271.174 277.459ZM269.734 277.582C269.677 277.653 269.633 277.733 269.604 277.819C269.581 277.873 269.569 277.93 269.569 277.989C269.569 278.047 269.581 278.104 269.604 278.158C269.69 278.338 269.784 278.359 269.842 278.359C270.317 278.359 271.174 277.121 271.67 276.128C270.929 276.474 270.264 276.963 269.712 277.568L269.734 277.582Z" fill="#C2410C"/>
<path d="M272.059 275.897H272.009C271.332 276.301 269.482 276.74 268.999 276.265C268.884 276.157 268.783 275.955 268.963 275.617C269.033 275.491 269.128 275.382 269.242 275.295C269.356 275.208 269.486 275.146 269.626 275.113C270.562 274.846 271.973 275.617 272.03 275.645C272.051 275.659 272.068 275.677 272.08 275.698C272.093 275.72 272.1 275.743 272.102 275.768C272.099 275.814 272.084 275.859 272.059 275.897ZM269.28 275.761L269.23 275.833C269.107 276.056 269.186 276.128 269.23 276.142C269.525 276.423 270.9 276.214 271.678 275.854C271.082 275.529 270.401 275.394 269.726 275.465C269.545 275.503 269.385 275.608 269.28 275.761Z" fill="#C2410C"/>
<path d="M278.503 271.995L275.141 276.862L249.718 259.69L255.874 252.908L278.503 271.995Z" fill="#FFB573"/>
<path d="M271.735 274.911L275.407 269.597C275.473 269.499 275.571 269.427 275.683 269.393C275.796 269.359 275.917 269.365 276.026 269.41L281.016 271.44C281.121 271.481 281.217 271.543 281.298 271.622C281.38 271.7 281.445 271.794 281.489 271.898C281.534 272.001 281.558 272.113 281.56 272.226C281.561 272.339 281.54 272.451 281.498 272.556C281.475 272.621 281.441 272.682 281.398 272.736C280.044 274.63 278.021 277.323 276.358 279.735C274.414 282.557 275.839 280.815 273.557 284.119C272.174 286.121 269.777 285.279 270.166 284.314C271.966 279.929 271.67 278.791 271.318 276.351C271.269 275.835 271.418 275.32 271.735 274.911Z" fill="#263238"/>
<path opacity="0.2" d="M247.558 258.121L253.894 262.513L258.804 255.385L252.778 250.561L247.558 258.121Z" fill="black"/>
<path d="M228.24 215.036C228.24 215.036 231.689 232.604 239.148 248.257C244.706 258.25 247.867 259.057 247.867 259.057L257.501 251.792C257.501 251.792 255.931 249.293 254.419 243.253C249.948 223.748 248.659 214.193 248.659 214.193L228.24 215.036Z" fill="#C2410C"/>
<path d="M244.195 259.272C244.195 259.315 247.601 261.727 247.601 261.727L259.38 252.123L256.896 249.322L244.195 259.272Z" fill="#263238"/>
<path d="M232.906 258.25V263.477L231.811 263.607L230.371 263.78L221.731 264.802L221.227 264.86L218.297 265.205C218.297 265.205 217.123 259.488 217.181 259.488L218.189 259.409L231.43 258.372L232.906 258.25Z" fill="#263238"/>
<path d="M244.844 185.339L225.92 188.286L229.911 213.918L248.835 210.972L244.844 185.339Z" fill="#C2410C"/>
<path opacity="0.3" d="M244.844 185.339L225.92 188.286L229.911 213.918L248.835 210.972L244.844 185.339Z" fill="black"/>
<path d="M243.274 186.819L244.843 185.343L248.839 210.975L247.262 212.458L243.274 186.819Z" fill="#C2410C"/>
<path d="M243.277 186.823L224.353 189.77L228.344 215.402L247.268 212.456L243.277 186.823Z" fill="#C2410C"/>
<path opacity="0.2" d="M243.277 186.823L224.353 189.77L228.344 215.402L247.268 212.456L243.277 186.823Z" fill="white"/>
<path d="M225.986 188.684C226.01 188.777 226.008 188.876 225.98 188.968C225.952 189.061 225.9 189.144 225.828 189.209C225.365 189.438 224.883 189.625 224.388 189.771L243.31 186.819L244.361 185.833L225.986 188.684Z" fill="#C2410C"/>
<g opacity="0.8">
<path d="M225.986 188.684C226.01 188.777 226.008 188.876 225.98 188.968C225.952 189.061 225.9 189.144 225.828 189.209C225.365 189.438 224.883 189.625 224.388 189.771L243.31 186.819L244.361 185.833L225.986 188.684Z" fill="white"/>
</g>
<path d="M246.038 171.541C248.833 172.763 251.185 174.814 252.778 177.416C253.31 178.085 254.743 182.002 255.658 183.385C256.572 184.767 257.429 186.157 258.235 187.589C259.042 189.022 259.834 190.469 260.582 191.909L260.726 192.183L260.978 192.701C261.173 193.142 261.324 193.6 261.432 194.069C261.656 195.099 261.619 196.168 261.324 197.18C261.079 198.012 260.676 198.79 260.136 199.469C259.732 199.988 259.271 200.458 258.761 200.873C257.951 201.547 257.061 202.118 256.111 202.573C255.291 202.983 254.447 203.343 253.584 203.653C251.969 204.221 250.316 204.676 248.638 205.013C246.999 205.361 245.339 205.601 243.67 205.733L242.69 201.413C245.457 200.269 248.155 198.964 250.769 197.504C251.354 197.172 251.918 196.807 252.461 196.409C252.895 196.091 253.297 195.731 253.663 195.337C253.93 195.034 253.908 194.782 253.721 195.164C253.639 195.394 253.614 195.641 253.649 195.884C253.659 195.971 253.676 196.058 253.699 196.143L253.656 196.078L253.505 195.848C251.844 193.285 250.116 190.772 248.321 188.309C247.421 187.078 246.514 185.854 245.57 184.645L244.195 182.845L242.849 181.131L246.038 171.541Z" fill="#263238"/>
<path d="M246.334 201.391L241.574 200.419L241.157 207C241.157 207 244.922 207.634 247.234 204.84L246.334 201.391Z" fill="#FFB573"/>
<path d="M237.377 203.501L238.32 205.921C238.456 206.273 238.701 206.573 239.02 206.777C239.339 206.98 239.714 207.076 240.091 207.051L241.157 206.972L241.567 200.384L238.594 201.147C238.365 201.202 238.15 201.301 237.961 201.44C237.771 201.579 237.611 201.753 237.49 201.954C237.369 202.155 237.289 202.378 237.254 202.611C237.22 202.843 237.232 203.08 237.29 203.307C237.314 203.374 237.343 203.439 237.377 203.501Z" fill="#FFB573"/>
<path d="M224.568 169.834C224.453 170.083 224.393 170.355 224.393 170.629C224.393 170.904 224.453 171.176 224.568 171.425C224.957 172.044 225.864 172.015 226.591 171.907L236.138 170.467C236.5 170.463 236.857 170.382 237.186 170.231C237.514 170.08 237.808 169.861 238.046 169.589C238.572 168.775 237.967 167.623 237.082 167.22C236.156 166.893 235.155 166.843 234.202 167.076C232.146 167.478 230.065 167.738 227.974 167.854C226.188 167.875 225.209 167.883 224.568 169.834Z" fill="#263238"/>
<path d="M221.429 174.074C221.385 174.905 221.562 175.732 221.941 176.472C222.32 177.211 222.889 177.838 223.589 178.286C225.01 179.163 226.695 179.512 228.348 179.273C231.856 178.635 235.105 177.001 237.708 174.564C238.5 173.714 239.148 172.548 238.846 171.432C238.688 170.995 238.425 170.604 238.08 170.293C237.734 169.983 237.317 169.763 236.866 169.654C235.961 169.449 235.028 169.403 234.108 169.517C230.803 169.769 221.89 169.301 221.429 174.074Z" fill="#263238"/>
<path d="M245.664 145.397C244.976 145.654 244.325 146 243.727 146.427H243.691C243.872 145.599 243.872 144.742 243.691 143.914C243.686 143.891 243.675 143.869 243.661 143.85C243.647 143.83 243.629 143.814 243.609 143.802C243.589 143.789 243.566 143.781 243.542 143.777C243.519 143.774 243.495 143.775 243.472 143.781C243.448 143.786 243.427 143.796 243.407 143.811C243.388 143.825 243.372 143.842 243.36 143.863C243.347 143.883 243.339 143.906 243.335 143.929C243.332 143.953 243.333 143.977 243.338 144C243.471 144.714 243.471 145.446 243.338 146.16C242.266 145.401 241.126 144.743 239.933 144.195C237.247 142.841 236.808 144.022 230.702 139.313C230.304 139.542 229.861 139.682 229.404 139.724C228.947 139.766 228.486 139.71 228.053 139.558C228.428 140.452 229.019 141.239 229.774 141.847C228.694 141.948 228.06 140.501 227.167 140.076C226.163 140.359 225.093 140.305 224.122 139.925C225.281 143.381 226.728 143.482 229.918 144.684C231.775 145.404 233.518 146.967 235.159 148.068L240.667 151.776C241.452 152.302 242.338 152.856 243.274 152.712C244.512 152.511 245.239 151.15 245.297 149.904C245.325 149.303 245.22 148.703 244.989 148.148C244.757 147.593 244.405 147.096 243.958 146.693C244.511 146.311 245.108 145.997 245.736 145.757C245.759 145.751 245.781 145.739 245.8 145.724C245.819 145.708 245.834 145.689 245.845 145.668C245.856 145.646 245.862 145.622 245.863 145.598C245.864 145.573 245.86 145.549 245.851 145.527C245.839 145.487 245.813 145.453 245.78 145.43C245.746 145.407 245.705 145.395 245.664 145.397Z" fill="#263238"/>
<path d="M201.974 143.057L186.394 147.737C186.311 147.755 186.225 147.755 186.142 147.737L184.702 147.6L185.71 146.7C185.774 146.642 185.85 146.598 185.933 146.571L201.427 141.43C201.585 141.378 201.756 141.389 201.907 141.46C202.057 141.531 202.174 141.657 202.234 141.811L202.37 142.171C202.409 142.255 202.43 142.346 202.431 142.438C202.432 142.53 202.413 142.621 202.375 142.705C202.338 142.789 202.282 142.864 202.213 142.925C202.144 142.985 202.063 143.031 201.974 143.057Z" fill="#263238"/>
<path d="M194.227 145.382L190.606 144.598L189.619 145.382L193.572 148.241L194.227 145.382Z" fill="#FFB573"/>
<path d="M84.8952 80.6834C83.9951 80.772 83.1262 81.0612 82.3525 81.5297C81.5787 81.9982 80.9198 82.6341 80.424 83.3906C79.4484 84.915 78.8853 86.6665 78.7896 88.4738C78.6275 89.8743 78.7901 91.2934 79.2648 92.621C79.5079 93.2808 79.8914 93.88 80.3886 94.3773C80.8858 94.8745 81.485 95.2579 82.1448 95.501C83.9304 96.077 85.9464 95.249 87.228 93.8738C88.4442 92.4175 89.2891 90.6881 89.6904 88.8338C90.6336 85.4786 89.28 80.4386 84.8952 80.6834Z" fill="#263238"/>
<path d="M107.568 300.535C103.529 300.866 100.606 299.059 99.7705 297.151C98.9353 295.243 97.56 293.321 97.38 295.099C97.2984 296.911 97.3248 298.726 97.4592 300.535L96.8329 300.6C96.8329 300.6 96.1128 294.667 95.8608 292.018C95.7386 291.176 95.6736 290.327 95.6664 289.476C95.7827 289.022 95.9902 288.596 96.2761 288.225C96.562 287.854 96.9204 287.544 97.3296 287.316L102.254 288.036C105.228 295.618 110.023 297.734 110.023 297.734C110.972 297.93 111.881 298.28 112.716 298.771C114.17 299.722 112.277 300.132 107.568 300.535Z" fill="#263238"/>
<path d="M97.596 289.728C98.2491 291.219 99.2819 292.512 100.591 293.479C101.606 294.163 102.11 297.295 104.436 298.138C105.342 298.484 106.315 298.622 107.282 298.543C108.249 298.463 109.186 298.167 110.023 297.677C110.023 297.677 105.235 295.56 102.24 288C102.24 288 97.236 288.526 97.596 289.728Z" fill="#FFB573"/>
<path d="M80.964 300.074C77.1408 298.778 75.204 295.949 75.204 293.875C75.204 291.802 74.7 289.469 73.8288 290.995C73.0313 292.632 72.3316 294.315 71.7336 296.035L71.1432 295.855C71.1432 295.855 72.8496 290.095 73.656 287.604C73.8803 286.782 74.1593 285.977 74.4912 285.192C74.7792 284.819 75.1392 284.508 75.5499 284.276C75.9605 284.045 76.4133 283.899 76.8816 283.846L81.1152 286.423C80.8344 294.559 84.3912 298.411 84.3912 298.411C85.1833 298.969 85.8768 299.656 86.4432 300.442C87.3072 301.99 85.4064 301.608 80.964 300.074Z" fill="#263238"/>
<path d="M76.1112 286.214C76.1184 287.844 76.5555 289.444 77.3784 290.851C78.0264 291.874 77.2488 294.955 79.0416 296.647C79.7352 297.327 80.5728 297.843 81.4926 298.156C82.4124 298.469 83.3907 298.571 84.3552 298.454C84.3552 298.454 80.7552 294.602 81.0792 286.466C81.0792 286.466 76.1976 284.983 76.1112 286.214Z" fill="#FFB573"/>
<path d="M116.438 123.192L116.69 123.494L117.022 123.869C117.259 124.121 117.49 124.387 117.742 124.639C118.238 125.158 118.778 125.654 119.318 126.173C120.416 127.179 121.565 128.129 122.76 129.017C123.977 129.917 125.251 130.752 126.54 131.573C127.26 131.954 127.85 132.365 128.527 132.739L130.09 133.603C130.317 133.703 130.572 133.719 130.81 133.646C131.314 133.495 134.208 130.63 135.13 129.571C137.167 127.224 141.322 123.646 142.985 121.018L143.834 124.099C142.662 127.31 141.102 130.366 139.19 133.2C138.154 134.727 136.92 136.11 135.518 137.311C134.671 138.022 133.716 138.593 132.689 139.003C131.044 139.665 129.205 139.652 127.57 138.967L126.929 138.679L125.762 138.154C124.97 137.801 124.222 137.39 123.458 137.002C121.929 136.19 120.445 135.293 119.016 134.316C117.578 133.328 116.198 132.258 114.883 131.112C114.211 130.524 113.569 129.901 112.961 129.247C112.644 128.93 112.334 128.585 112.032 128.239L111.578 127.692C111.42 127.483 111.298 127.332 111.067 127.022L116.438 123.192Z" fill="#FFB573"/>
<path d="M142.992 121.018L149.695 116.863L149.249 123.394C149.249 123.394 145.519 125.273 143.618 124.02L142.992 121.018Z" fill="#FFB573"/>
<path d="M154.462 116.431L154.922 121.903L149.249 123.386L149.695 116.863L154.462 116.431Z" fill="#FFB573"/>
<path d="M184.784 86.4136L145.842 125.793L146.354 126.299L185.296 86.9199L184.784 86.4136Z" fill="#263238"/>
<path d="M149.04 122.133L150.091 122.249C150.627 122.302 151.167 122.282 151.697 122.191L152.186 121.759C152.194 121.564 152.138 121.372 152.026 121.212C151.914 121.052 151.753 120.933 151.567 120.873L150.79 120.621L147.37 118.742L146.398 120.067V122.162L146.722 122.393C147.074 122.636 147.503 122.744 147.929 122.696C148.355 122.649 148.75 122.449 149.04 122.133Z" fill="#FFB573"/>
<path d="M109.663 116.215C112.363 115.726 131.407 132.242 131.407 132.242L125.762 140.522C125.762 140.522 104.933 126.022 105.602 122.522C106.236 118.872 105.725 116.935 109.663 116.215Z" fill="#263238"/>
<path opacity="0.2" d="M112.061 121.529L111.859 130.169C114.019 131.846 121.824 137.83 121.824 137.83L112.061 121.529Z" fill="black"/>
<path d="M97.596 289.728L103.147 289.994L105.379 273.65L98.9928 273.017L97.596 289.728Z" fill="#FFB573"/>
<path opacity="0.2" d="M105.379 273.65L104.335 281.282L98.3521 280.699L98.9856 273.024L105.379 273.65Z" fill="black"/>
<path d="M76.1112 286.214L81.1368 287.165L83.16 272.354L76.7736 271.728L76.1112 286.214Z" fill="#FFB573"/>
<path opacity="0.2" d="M83.16 272.592L82.0728 280.555L76.4208 279.677L76.7664 271.966L83.16 272.592Z" fill="black"/>
<path d="M109.202 153.835H104.443L85.14 153.886C85.5288 143.892 85.4856 135.807 81.216 116.151C81.1097 115.666 81.1131 115.164 81.2259 114.681C81.3388 114.198 81.5582 113.746 81.8681 113.359C82.178 112.972 82.5706 112.659 83.0171 112.443C83.4637 112.227 83.9528 112.114 84.4488 112.111C86.4432 112.111 88.9416 112.183 91.476 112.443C95.4847 112.768 99.4661 113.369 103.392 114.243L103.846 114.351C105.817 114.86 107.76 115.478 109.663 116.201C110.894 116.626 112.392 119.988 113.738 123.833C117.36 130.047 112.932 135.288 109.202 153.835Z" fill="white"/>
<path d="M110.095 155.088C110.095 155.088 123.602 194.163 123.278 212.947C123.091 223.711 122.285 243.771 119.038 257.875C116.388 269.395 105.588 276.739 105.588 276.739L96.948 276.228C96.948 276.228 92.2752 258.66 93.0888 251.669C94.7088 237.759 99.504 227.297 98.928 214.524C98.0064 193.594 91.8144 154.764 91.8144 154.764L110.095 155.088Z" fill="#C2410C"/>
<path opacity="0.2" d="M94.8744 268.128C94.8744 268.128 94.8744 268.049 94.932 268.049C102.643 268.049 111.492 250.049 111.067 218.218L107.539 191.52L94.8744 268.128Z" fill="black"/>
<path d="M103.176 155.189C103.176 155.189 111.391 198.159 108.792 216.771C107.309 227.434 104.076 247.241 99.144 260.856C95.1264 271.959 83.52 277.956 83.52 277.956L74.9808 276.401C74.9808 276.401 72.468 258.401 74.1168 251.554C77.4072 237.939 83.4768 228.132 84.4056 215.381C86.0184 194.501 84.5712 155.189 84.5712 155.189H103.176Z" fill="#C2410C"/>
<path d="M95.2056 278.482L107.41 279.209L108.526 275.537L94.8888 274.277L95.2056 278.482Z" fill="#263238"/>
<path d="M74.2608 277.351L86.3136 279.382L87.8184 275.854L74.3904 273.139L74.2608 277.351Z" fill="#263238"/>
<path d="M85.0464 152.676L84.384 155.016C84.2904 155.203 84.5064 155.383 84.8088 155.383L109.642 155.347C109.879 155.347 110.081 155.232 110.095 155.088L110.326 152.741C110.326 152.583 110.131 152.446 109.872 152.446L85.4712 152.482C85.3896 152.474 85.3074 152.488 85.2328 152.522C85.1583 152.556 85.094 152.609 85.0464 152.676Z" fill="#C2410C"/>
<g opacity="0.5">
<path d="M85.0464 152.676L84.384 155.016C84.2904 155.203 84.5064 155.383 84.8088 155.383L109.642 155.347C109.879 155.347 110.081 155.232 110.095 155.088L110.326 152.741C110.326 152.583 110.131 152.446 109.872 152.446L85.4712 152.482C85.3896 152.474 85.3074 152.488 85.2328 152.522C85.1583 152.556 85.094 152.609 85.0464 152.676Z" fill="white"/>
</g>
<path d="M89.7912 155.599H89.0712C88.9416 155.599 88.8264 155.527 88.8408 155.441L89.1648 152.395C89.1648 152.309 89.2944 152.237 89.4384 152.237H90.1584C90.2952 152.237 90.4104 152.309 90.396 152.402L90.072 155.441C90.0504 155.52 89.928 155.599 89.7912 155.599Z" fill="#C2410C"/>
<path d="M107.719 155.599H106.999C106.862 155.599 106.754 155.527 106.762 155.441L107.086 152.402C107.086 152.309 107.222 152.237 107.359 152.237H108.079C108.216 152.237 108.324 152.309 108.317 152.395L107.993 155.434C108 155.52 107.863 155.599 107.719 155.599Z" fill="#C2410C"/>
<path d="M99.5112 155.577H98.7912C98.6544 155.577 98.5464 155.505 98.5608 155.419L98.8848 152.381C98.8848 152.287 99.0144 152.215 99.1512 152.222H99.8712C100.008 152.222 100.123 152.294 100.109 152.381L99.7848 155.419C99.7704 155.52 99.6552 155.585 99.5112 155.577Z" fill="#C2410C"/>
<path d="M92.5992 99.3599C93.3624 103.277 94.1112 110.361 91.4544 112.5C91.4544 112.5 92.5128 116.517 99.6336 117.59C107.496 118.778 103.37 114.3 103.37 114.3C99.0936 112.601 99.1944 109.512 99.936 106.661L92.5992 99.3599Z" fill="#FFB573"/>
<path opacity="0.2" d="M95.5872 102.333L99.9072 106.653C99.7268 107.321 99.6064 108.003 99.5472 108.691C97.9128 108.216 95.2776 106.409 95.0976 104.681C95.1003 103.873 95.2669 103.075 95.5872 102.333Z" fill="black"/>
<path d="M87.7968 94.3919C89.7192 100.49 90.4032 103.111 94.3488 105.509C100.246 109.109 107.309 105.415 107.244 98.8775C107.186 92.9879 104.054 84.0167 97.3584 83.0375C95.8887 82.8185 94.3874 82.9791 92.9972 83.504C91.6071 84.0289 90.3743 84.9007 89.416 86.0364C88.4578 87.1722 87.806 88.5341 87.5226 89.9928C87.2392 91.4515 87.3336 92.9584 87.7968 94.3703V94.3919Z" fill="#FFB573"/>
<path d="M102.326 93.4414C103.008 94.5119 103.837 95.4814 104.789 96.3214C104.567 96.5607 104.295 96.7489 103.993 96.8732C103.691 96.9975 103.366 97.0549 103.039 97.0414L102.326 93.4414Z" fill="#ED893E"/>
<path d="M101.642 100.296C101.886 100.272 102.127 100.226 102.362 100.159C102.381 100.155 102.398 100.147 102.414 100.136C102.429 100.125 102.442 100.111 102.452 100.095C102.462 100.079 102.469 100.061 102.472 100.043C102.475 100.024 102.475 100.005 102.47 99.9866C102.46 99.9484 102.436 99.9154 102.403 99.8941C102.369 99.8728 102.329 99.8647 102.29 99.8714C101.67 100.049 101.015 100.077 100.382 99.9514C99.7483 99.8262 99.1537 99.552 98.6472 99.1514C98.6179 99.1241 98.5793 99.1089 98.5392 99.1089C98.4991 99.1089 98.4605 99.1241 98.4312 99.1514C98.4034 99.1819 98.3879 99.2217 98.3879 99.263C98.3879 99.3043 98.4034 99.3441 98.4312 99.3746C98.8785 99.7337 99.3928 100 99.9441 100.158C100.495 100.317 101.073 100.363 101.642 100.296Z" fill="#263238"/>
<path d="M84.4776 85.14C83.684 85.6547 83.0253 86.3522 82.5568 87.174C82.0883 87.9958 81.8235 88.918 81.7848 89.8632C81.7515 90.2219 81.8084 90.5832 81.9504 90.9144C82.0214 91.0795 82.1346 91.2231 82.2787 91.3305C82.4228 91.4379 82.5927 91.5055 82.7712 91.5264C83.3184 91.5264 83.7288 91.044 84.024 90.5832L85.4208 88.4232C85.9959 87.7188 86.4797 86.9447 86.8608 86.1192C87.3288 84.7008 85.3344 84.6 84.4776 85.14Z" fill="#C2410C"/>
<path d="M86.4 83.671C82.5696 88.0846 80.8632 100.317 92.0592 103.73C93.9312 102.29 90.9072 99.5542 89.6256 96.1414C88.7904 93.9022 93.0528 89.7334 94.7232 88.027C96.3936 86.3206 97.9128 83.8438 100.267 84.2398C100.864 84.4356 101.504 84.4531 102.11 84.2902C103.975 83.4478 103.068 82.3318 102.11 81.547C100.628 80.4607 98.868 79.8166 97.0344 79.6894C95.0732 79.4633 93.0863 79.7065 91.2374 80.3987C89.3886 81.0909 87.7306 82.2125 86.4 83.671Z" fill="#263238"/>
<path d="M88.8048 96.48L88.4952 96.1488C88.4952 95.7888 88.4952 95.7888 94.7448 93.8232L94.9608 94.5432C92.8008 95.2128 89.3088 96.3216 89.0352 96.4584L88.884 96.1416L88.8048 96.48Z" fill="#C2410C"/>
<path d="M87.12 99.5112C87.825 100.527 88.9006 101.225 90.1152 101.455C91.728 101.743 92.3544 100.26 91.7928 98.82C91.2744 97.5312 89.8056 95.8176 88.2504 96.192C87.9838 96.26 87.7331 96.3799 87.5128 96.5448C87.2925 96.7098 87.1068 96.9165 86.9664 97.1532C86.826 97.3898 86.7336 97.6519 86.6945 97.9243C86.6554 98.1967 86.6703 98.4741 86.7384 98.7408C86.814 99.0201 86.9436 99.2818 87.12 99.5112Z" fill="#FFB573"/>
<path d="M98.0424 82.5698C98.9136 84.7802 101.426 84.4922 103.291 86.8106C104.429 88.2506 106.675 83.8082 103.622 82.0514C100.57 80.2946 96.6816 79.0994 98.0424 82.5698Z" fill="#263238"/>
<path d="M95.4 91.9223C95.4627 91.9331 95.5271 91.9218 95.5823 91.8902C95.6375 91.8587 95.6799 91.8089 95.7024 91.7495C96.3 90.4319 98.0712 90.1079 98.0856 90.1007C98.1249 90.0937 98.1625 90.0791 98.1961 90.0576C98.2297 90.036 98.2588 90.0081 98.2815 89.9753C98.3043 89.9425 98.3203 89.9055 98.3287 89.8665C98.3371 89.8274 98.3377 89.7871 98.3304 89.7479C98.3131 89.6688 98.2661 89.5994 98.1991 89.5539C98.1322 89.5083 98.0504 89.4902 97.9704 89.5031C97.884 89.5031 95.8608 89.9279 95.148 91.5119C95.131 91.5478 95.1212 91.5867 95.1192 91.6265C95.1172 91.6662 95.123 91.7059 95.1364 91.7434C95.1498 91.7808 95.1704 91.8153 95.1971 91.8447C95.2238 91.8742 95.2561 91.8981 95.292 91.9151H95.4V91.9223Z" fill="#263238"/>
<path d="M104.76 89.28C104.827 89.2847 104.893 89.2671 104.949 89.23C105.004 89.1929 105.046 89.1384 105.068 89.0751C105.089 89.0117 105.089 88.943 105.067 88.8798C105.045 88.8165 105.003 88.7623 104.947 88.7256C104.548 88.4527 104.09 88.2784 103.611 88.2171C103.131 88.1557 102.644 88.2091 102.19 88.3728C102.114 88.4046 102.055 88.4648 102.024 88.5403C101.993 88.6158 101.993 88.7005 102.024 88.776C102.039 88.8139 102.061 88.8483 102.09 88.8771C102.119 88.9059 102.153 88.9284 102.191 88.9433C102.229 88.9581 102.269 88.965 102.31 88.9635C102.351 88.962 102.391 88.9521 102.427 88.9344C102.786 88.811 103.168 88.7741 103.543 88.8266C103.919 88.8792 104.276 89.0197 104.587 89.2368C104.641 89.2637 104.7 89.2784 104.76 89.28Z" fill="#263238"/>
<path d="M134.359 128.693L130.147 131.09L125.762 140.522C125.762 140.522 129.996 143.215 133.33 141.034C136.663 138.852 134.359 128.693 134.359 128.693Z" fill="#263238"/>
<path d="M104.465 91.7209C104.81 91.6561 105.185 92.0449 105.264 92.5777C105.343 93.1105 105.149 93.6001 104.803 93.6577C104.458 93.7153 104.083 93.3337 104.004 92.8009C103.925 92.2681 104.119 91.7857 104.465 91.7209Z" fill="#263238"/>
<path d="M105.53 91.1953L104.314 91.7929C105.048 92.3113 105.53 91.1953 105.53 91.1953Z" fill="#263238"/>
<path d="M98.4384 92.9519C98.784 92.8871 99.1584 93.2759 99.2376 93.8087C99.3168 94.3415 99.1224 94.8311 98.7768 94.8887C98.4312 94.9463 98.0568 94.5647 97.9776 94.0319C97.8984 93.4991 98.0928 93.0167 98.4384 92.9519Z" fill="#263238"/>
<path d="M99.504 92.4263L98.2872 93.0239C99.0216 93.5423 99.504 92.4263 99.504 92.4263Z" fill="#263238"/>
<path d="M80.5752 82.368C80.6328 80.9784 81.2952 79.308 80.4528 78.2208C81.9576 79.4376 81.6552 80.136 81.7848 80.4888C81.7007 79.3029 81.426 78.1384 80.9712 77.04C81.94 77.8154 82.5782 78.9297 82.7568 80.1576C82.6094 78.9014 82.3245 77.6652 81.9072 76.4712C83.1323 77.6051 83.8725 79.1681 83.9736 80.8344C83.9736 80.0712 83.9736 79.3152 83.9232 78.552C84.2269 79.2956 84.4466 80.0708 84.5784 80.8632C84.6814 81.6887 84.6474 82.5256 84.4776 83.34C84.3862 84.151 83.9867 84.896 83.3616 85.4208C83.0444 85.672 82.6607 85.8249 82.2577 85.8607C81.8548 85.8966 81.4501 85.8137 81.0936 85.6224C79.3656 84.5568 80.5248 83.6208 80.5752 82.368Z" fill="#263238"/>
<path d="M99.4105 96.1774C99.3122 96.1841 99.2135 96.1841 99.1153 96.1774L95.7456 95.5366C95.4374 95.4797 95.1536 95.3311 94.9313 95.1101C94.709 94.8891 94.5587 94.6061 94.5 94.2982C94.4211 93.8928 94.5043 93.4726 94.7318 93.128C94.9594 92.7833 95.313 92.5417 95.7169 92.455L100.037 91.5406C100.414 91.4605 100.807 91.522 101.142 91.7132C101.476 91.9044 101.729 92.212 101.851 92.5774L101.916 92.7646C101.996 93.0063 102.016 93.264 101.973 93.5151C101.931 93.7662 101.827 94.003 101.671 94.2046L100.627 95.5726C100.483 95.7589 100.299 95.9102 100.088 96.0149C99.8776 96.1197 99.6458 96.1752 99.4105 96.1774ZM100.39 92.203C100.332 92.1961 100.274 92.1961 100.217 92.203L95.8969 93.1174C95.6789 93.1643 95.4877 93.2943 95.364 93.4798C95.2404 93.6653 95.1939 93.8918 95.2345 94.111C95.2653 94.2792 95.3465 94.434 95.4674 94.5549C95.5883 94.6757 95.7431 94.757 95.9113 94.7878L99.2808 95.4286C99.4364 95.4577 99.5971 95.4429 99.7446 95.3856C99.8922 95.3284 100.021 95.231 100.116 95.1046L101.16 93.7366C101.245 93.6269 101.302 93.4976 101.324 93.3606C101.347 93.2236 101.335 93.0831 101.29 92.9518L101.225 92.7646C101.165 92.5936 101.051 92.4465 100.9 92.3454C100.75 92.2442 100.571 92.1942 100.39 92.203Z" fill="#C2410C"/>
<path d="M105.235 94.4426C105.077 94.4404 104.919 94.4162 104.767 94.3706L103.126 93.8594C102.879 93.782 102.656 93.6459 102.474 93.4627C102.292 93.2796 102.157 93.055 102.082 92.8082L102.031 92.621C101.92 92.2526 101.948 91.8562 102.11 91.507C102.272 91.1579 102.557 90.8805 102.91 90.7274L106.265 89.453C106.643 89.293 107.07 89.2878 107.452 89.4385C107.834 89.5893 108.142 89.8841 108.31 90.2594C108.441 90.544 108.482 90.8619 108.428 91.1707C108.374 91.4794 108.227 91.7643 108.007 91.9874L106.38 93.9386C106.234 94.0966 106.057 94.2229 105.86 94.3096C105.663 94.3963 105.45 94.4416 105.235 94.4426ZM106.877 90.0506C106.761 90.0506 106.646 90.0726 106.538 90.1154L103.183 91.397C102.996 91.481 102.845 91.6301 102.759 91.8168C102.673 92.0035 102.657 92.215 102.715 92.4122L102.773 92.5994C102.813 92.7327 102.885 92.8542 102.983 92.9533C103.081 93.0524 103.202 93.1262 103.334 93.1682L104.976 93.6794C105.127 93.7292 105.29 93.7347 105.444 93.6951C105.599 93.6556 105.738 93.5727 105.847 93.4562L107.474 91.5122C107.598 91.3898 107.682 91.2326 107.714 91.0615C107.746 90.8904 107.725 90.7136 107.654 90.5546C107.588 90.4044 107.478 90.2767 107.34 90.1873C107.202 90.0978 107.041 90.0503 106.877 90.0506Z" fill="#C2410C"/>
<path d="M83.3616 163.015C83.4752 164.54 83.8528 166.033 84.4777 167.429C85.8169 169.999 88.7977 171.403 91.6777 171.663C94.5577 171.922 97.4377 171.209 100.253 170.503C99.9217 156.262 99.5905 141.984 97.7545 127.858C97.0345 122.299 94.4712 113.53 92.7864 110.412C92.7864 110.412 80.4313 111.507 77.4577 114.365C74.2681 117.432 78.1777 122.731 78.6457 126.605C80.2105 138.744 81.7824 150.881 83.3616 163.015Z" fill="#263238"/>
<path d="M112.774 152.215L114.034 163.98C114.183 165.403 113.782 166.829 112.913 167.966C112.044 169.102 110.773 169.864 109.361 170.093L105.761 170.669C105.379 160.193 105.149 141.869 105.149 135.288C105.149 126.029 103.162 118.728 101.851 113.53C104.825 114.25 107.611 115.546 109.649 116.215C110.88 116.64 112.802 119.931 114.149 123.775C117.814 129.975 113.04 142.963 112.774 152.215Z" fill="#263238"/>
<path d="M63.2664 141.451L73.9368 141.696L73.584 140.904C73.2981 140.265 73.2017 139.558 73.3064 138.866C73.411 138.174 73.7124 137.527 74.1744 137.001C78.0624 132.595 87.8544 121.248 87.7896 119.059C87.6312 115.949 84.3552 113.839 80.6472 113.911C77.9112 113.969 70.3008 125.928 65.664 131.861C61.5672 137.117 63.2664 141.451 63.2664 141.451Z" fill="#263238"/>
<path d="M71.0856 142.128C76.409 146.368 81.177 151.262 85.2768 156.694L87.48 159.17L83.52 161.762C83.52 161.762 70.992 153.245 68.0688 150.012C66.2874 148.014 65.0022 145.623 64.3176 143.035L71.0856 142.128Z" fill="#FFB573"/>
<path d="M76.824 145.973L73.836 141.732L63.036 140.515C63.036 140.515 60.9768 145.274 65.5128 148.039C68.9112 150.113 76.824 145.973 76.824 145.973Z" fill="#263238"/>
<path d="M82.08 155.981L89.6112 158.314L84.384 162.252C84.384 162.252 80.5248 160.668 80.2224 158.415L82.08 155.981Z" fill="#FFB573"/>
<path d="M93.0456 161.64L89.2152 165.571L84.3768 162.252L89.5968 158.313L93.0456 161.64Z" fill="#FFB573"/>
</svg>
