<svg width="500" height="500" viewBox="0 0 500 500" fill="none" xmlns="http://www.w3.org/2000/svg">
<path d="M449.9 398.49H416.781V398.74H449.9V398.49Z" fill="#EBEBEB"/>
<path d="M331.219 401.21H322.531V401.46H331.219V401.21Z" fill="#EBEBEB"/>
<path d="M415.781 389.21H396.59V389.46H415.781V389.21Z" fill="#EBEBEB"/>
<path d="M95.65 390.89H52.46V391.14H95.65V390.89Z" fill="#EBEBEB"/>
<path d="M110.89 390.89H104.56V391.14H110.89V390.89Z" fill="#EBEBEB"/>
<path d="M225.15 395.11H131.47V395.36H225.15V395.11Z" fill="#EBEBEB"/>
<path d="M237 337.8H43.91C42.3973 337.797 40.9476 337.194 39.8788 336.124C38.8102 335.054 38.21 333.603 38.21 332.09V60.6601C38.2232 59.1561 38.8291 57.7181 39.8965 56.6583C40.9637 55.5986 42.4059 55.0028 43.91 55.0001H237C238.514 55.0001 239.967 55.6017 241.037 56.6725C242.108 57.7433 242.71 59.1957 242.71 60.7101V332.09C242.71 333.604 242.108 335.057 241.037 336.128C239.967 337.199 238.514 337.8 237 337.8ZM43.91 55.2001C42.4637 55.2028 41.0775 55.7792 40.0557 56.8029C39.0338 57.8265 38.46 59.2137 38.46 60.6601V332.09C38.46 333.536 39.0338 334.924 40.0557 335.947C41.0775 336.971 42.4637 337.547 43.91 337.55H237C238.447 337.547 239.835 336.971 240.858 335.949C241.882 334.925 242.457 333.537 242.46 332.09V60.6601C242.457 59.2129 241.882 57.8257 240.858 56.8022C239.835 55.7789 238.447 55.2028 237 55.2001H43.91Z" fill="#EBEBEB"/>
<path d="M453.31 337.8H260.21C258.696 337.797 257.246 337.194 256.175 336.125C255.106 335.054 254.503 333.604 254.5 332.09V60.6601C254.515 59.1553 255.124 57.7172 256.193 56.6578C257.261 55.5982 258.706 55.0026 260.21 55.0001H453.31C454.812 55.0053 456.251 55.6024 457.317 56.6618C458.382 57.7214 458.987 59.1579 459 60.6601V332.09C459 333.601 458.401 335.05 457.335 336.121C456.268 337.19 454.821 337.794 453.31 337.8ZM260.21 55.2001C258.762 55.2028 257.375 55.7789 256.353 56.8022C255.329 57.8257 254.753 59.2129 254.75 60.6601V332.09C254.753 333.537 255.329 334.925 256.353 335.949C257.375 336.971 258.762 337.547 260.21 337.55H453.31C454.757 337.547 456.144 336.971 457.168 335.949C458.192 334.925 458.767 333.537 458.769 332.09V60.6601C458.767 59.2129 458.192 57.8257 457.168 56.8022C456.144 55.7789 454.757 55.2028 453.31 55.2001H260.21Z" fill="#EBEBEB"/>
<path d="M500 382.4H0V382.65H500V382.4Z" fill="#EBEBEB"/>
<path d="M429.319 69.5103H425.91V127.43H429.319V69.5103Z" fill="#E0E0E0"/>
<path d="M427.61 69.5103H373.131V127.43H427.61V69.5103Z" fill="#F0F0F0"/>
<path d="M423.381 74.0703H378.02V122.86H423.381V74.0703Z" fill="white"/>
<path d="M412.419 104.09C412.411 104.83 412.465 105.57 412.581 106.3C412.69 106.87 412.819 107.45 412.96 108.02C413.113 108.456 413.204 108.91 413.231 109.37C413.235 109.786 413.143 110.197 412.961 110.57C412.778 110.944 412.511 111.269 412.181 111.52C411.475 112.102 410.585 112.411 409.669 112.39C409.038 112.446 408.4 112.361 407.803 112.142C407.207 111.922 406.665 111.573 406.219 111.12C405.469 110.179 405.056 109.014 405.04 107.81C403.704 109.324 402.047 110.52 400.19 111.31C398.303 112.054 396.289 112.421 394.26 112.39C391.981 112.422 389.767 111.626 388.031 110.15C387.174 109.453 386.488 108.569 386.026 107.565C385.565 106.561 385.342 105.465 385.369 104.36C385.329 102.98 385.613 101.61 386.2 100.36C386.731 99.2932 387.529 98.3831 388.519 97.7204C389.588 97.0092 390.763 96.4756 392 96.1404C393.436 95.7357 394.906 95.4546 396.39 95.3004L401.19 94.7604C402.081 94.6921 402.946 94.4256 403.719 93.9804C404.033 93.7281 404.276 93.4 404.426 93.0272C404.578 92.6545 404.631 92.2493 404.581 91.8504C404.601 91.3557 404.481 90.865 404.233 90.4363C403.985 90.0077 403.619 89.6586 403.181 89.4304C402.089 88.8521 400.864 88.5727 399.631 88.6204C398.421 88.5614 397.215 88.802 396.119 89.3204C395.175 89.8511 394.306 90.5033 393.531 91.2604C393.079 91.7363 392.576 92.159 392.031 92.5204C391.575 92.7968 391.051 92.939 390.519 92.9304C389.635 92.9599 388.772 92.6403 388.12 92.0404C387.82 91.7738 387.578 91.4457 387.414 91.0784C387.251 90.711 387.168 90.3128 387.169 89.9104C387.2 89.0283 387.492 88.1753 388.01 87.4604C388.657 86.5254 389.492 85.7354 390.46 85.1404C391.699 84.3718 393.047 83.7983 394.46 83.4404C396.176 82.9936 397.946 82.7783 399.719 82.8004C403.674 82.8004 406.79 83.4671 409.069 84.8004C410.154 85.3922 411.05 86.2772 411.654 87.3543C412.26 88.4313 412.549 89.6567 412.49 90.8904L412.419 104.09ZM404.55 98.4304C404.151 98.7739 403.685 99.0295 403.181 99.1804C402.524 99.3825 401.856 99.5461 401.181 99.6704L398.319 100.1C396.964 100.225 395.656 100.656 394.49 101.36C394.081 101.658 393.753 102.054 393.539 102.512C393.324 102.97 393.228 103.475 393.26 103.98C393.261 104.428 393.369 104.869 393.575 105.268C393.779 105.666 394.076 106.009 394.44 106.27C395.363 106.936 396.483 107.268 397.619 107.21C399.44 107.289 401.225 106.682 402.619 105.51C403.214 105.027 403.694 104.417 404.025 103.725C404.354 103.033 404.528 102.277 404.531 101.51L404.55 98.4304Z" fill="#EBEBEB"/>
<path d="M446.45 230.04H420.44V257.731H446.45V230.04Z" fill="#E6E6E6"/>
<path d="M420.44 230.04H413.781V257.731H420.44V230.04Z" fill="#F5F5F5"/>
<path d="M453.269 225.771H433.73V257.731H453.269V225.771Z" fill="#E6E6E6"/>
<path d="M433.74 225.771H428.09V257.731H433.74V225.771Z" fill="#F0F0F0"/>
<path d="M458.469 230.04H439.49V257.731H458.469V230.04Z" fill="#F0F0F0"/>
<path d="M439.481 230.04H435.719V257.731H439.481V230.04Z" fill="#F5F5F5"/>
<path d="M379.01 249.96H374.181V260.3H379.01V249.96Z" fill="#E0E0E0"/>
<path d="M375.781 252.171C372.435 252.179 369.122 251.525 366.032 250.244C362.943 248.964 360.137 247.082 357.781 244.71L358.49 244.01C363.074 248.594 369.292 251.169 375.775 251.169C382.258 251.169 388.475 248.594 393.06 244.01C397.644 239.426 400.219 233.208 400.219 226.725C400.219 220.242 397.644 214.025 393.06 209.44L393.76 208.74C397.314 212.3 399.733 216.835 400.712 221.769C401.69 226.703 401.185 231.817 399.258 236.464C397.333 241.111 394.072 245.083 389.89 247.879C385.708 250.675 380.79 252.168 375.76 252.171H375.781Z" fill="#E0E0E0"/>
<path d="M458.769 257.731H356.76V382.081H458.769V257.731Z" fill="#EBEBEB"/>
<path d="M449.9 271.59H364.91V382.39H449.9V271.59Z" fill="#F5F5F5"/>
<path d="M376.95 245.24C386.433 245.24 394.119 237.553 394.119 228.071C394.119 218.588 386.433 210.9 376.95 210.9C367.467 210.9 359.781 218.588 359.781 228.071C359.781 237.553 367.467 245.24 376.95 245.24Z" fill="#EBEBEB"/>
<path d="M364.569 240.51C361.369 237.199 359.597 232.762 359.636 228.157C359.676 223.551 361.522 219.146 364.779 215.889C368.036 212.633 372.442 210.786 377.047 210.747C381.653 210.708 386.089 212.479 389.4 215.681L388.85 216.231C387.289 214.672 385.438 213.436 383.399 212.594C381.36 211.751 379.176 211.319 376.971 211.321C374.765 211.324 372.582 211.76 370.546 212.606C368.508 213.451 366.658 214.689 365.1 216.25C363.542 217.811 362.307 219.664 361.464 221.701C360.622 223.74 360.189 225.924 360.192 228.129C360.193 230.335 360.629 232.518 361.475 234.556C362.321 236.592 363.56 238.442 365.119 240L364.569 240.51Z" fill="white"/>
<path d="M364.569 240.51L365.119 239.969C366.679 241.528 368.529 242.764 370.565 243.607C372.603 244.45 374.785 244.883 376.989 244.883C379.193 244.883 381.375 244.449 383.411 243.604C385.447 242.76 387.297 241.524 388.855 239.965C390.414 238.406 391.649 236.556 392.492 234.519C393.335 232.483 393.769 230.3 393.768 228.096C393.768 225.893 393.333 223.71 392.489 221.674C391.646 219.637 390.408 217.788 388.85 216.231L389.4 215.681C391.076 217.3 392.412 219.238 393.332 221.379C394.251 223.522 394.736 225.826 394.755 228.157C394.775 230.487 394.33 232.8 393.449 234.957C392.565 237.114 391.261 239.075 389.612 240.722C387.965 242.371 386.004 243.675 383.847 244.558C381.69 245.44 379.378 245.885 377.047 245.865C374.715 245.846 372.412 245.362 370.269 244.443C368.128 243.522 366.19 242.186 364.569 240.51Z" fill="white"/>
<path d="M383.331 234.44L382.781 233.9C386.781 229.9 390.15 222.45 388.781 216.04L389.531 215.881C391 222.56 387.5 230.269 383.331 234.44Z" fill="white"/>
<path d="M365.131 240.25L365.3 239.49C371.7 240.89 379.131 237.55 383.15 233.49L383.7 234.031C379.531 238.25 371.81 241.71 365.131 240.25Z" fill="white"/>
<path d="M371.19 222.3L370.64 221.76C374.81 217.581 382.53 214.119 389.21 215.581L389.04 216.34C382.64 214.94 375.21 218.281 371.19 222.3Z" fill="white"/>
<path d="M364.84 240C363.381 233.319 366.84 225.61 371.01 221.431L371.56 221.981C367.56 225.981 364.19 233.431 365.56 239.84L364.84 240Z" fill="white"/>
<path d="M388.858 215.682L364.576 239.964L365.121 240.508L389.403 216.226L388.858 215.682Z" fill="white"/>
<path d="M373.447 211.086L372.903 211.631L393.458 232.186L394.003 231.642L373.447 211.086Z" fill="white"/>
<path d="M364.911 215.896L364.367 216.44L388.635 240.708L389.179 240.164L364.911 215.896Z" fill="white"/>
<path d="M360.369 224.697L359.825 225.242L379.836 245.253L380.38 244.708L360.369 224.697Z" fill="white"/>
<path d="M350.931 246.44H38.46V254.85H350.931V246.44Z" fill="#E0E0E0"/>
<path d="M340.95 69.4404H338.819V246.371H340.95V69.4404Z" fill="#E0E0E0"/>
<path d="M58.8 77.2H57.05V236.4H58.8V77.2Z" fill="#E0E0E0"/>
<path d="M338.79 69.5103H48.4399V246.44H338.79V69.5103Z" fill="#F0F0F0"/>
<path d="M329.331 77.2H57.05V236.4H329.331V77.2Z" fill="#E0E0E0"/>
<path d="M58.6599 170.919V245.921H102L58.6599 170.919ZM68.0999 208.74L83.3699 235.21H68.0999V208.74Z" fill="#FAFAFA"/>
<path opacity="0.1" d="M227.86 236H195.681V236.16C195.235 236.332 194.851 236.636 194.582 237.031C194.311 237.425 194.168 237.892 194.169 238.369V245.419C194.168 245.897 194.311 246.365 194.582 246.76C194.851 247.154 195.235 247.458 195.681 247.631V247.79H228.469C228.936 247.79 229.385 247.604 229.714 247.275C230.044 246.944 230.231 246.497 230.231 246.031V238.369C230.231 237.742 229.981 237.139 229.536 236.694C229.092 236.25 228.489 236 227.86 236Z" fill="black"/>
<path d="M228.481 240.871V245C228.481 245.232 228.435 245.463 228.344 245.676C228.256 245.89 228.125 246.085 227.961 246.249C227.797 246.413 227.601 246.542 227.386 246.629C227.172 246.717 226.942 246.761 226.71 246.76H193.919V240.86L228.481 240.871Z" fill="#F0F0F0"/>
<path d="M193.919 240.871V235H226.11C226.739 235 227.342 235.25 227.786 235.694C228.231 236.139 228.481 236.742 228.481 237.371V240.89L193.919 240.871Z" fill="#E0E0E0"/>
<path d="M204.21 240.869V244.4C204.207 245.028 203.957 245.629 203.512 246.072C203.069 246.517 202.468 246.767 201.84 246.769H194.781C194.469 246.769 194.161 246.708 193.874 246.589C193.586 246.471 193.324 246.296 193.104 246.075C192.885 245.856 192.71 245.594 192.59 245.307C192.471 245.019 192.41 244.711 192.41 244.4V240.869H204.21Z" fill="#FAFAFA"/>
<path d="M192.41 240.869V237.35C192.41 237.039 192.471 236.731 192.59 236.443C192.71 236.156 192.885 235.894 193.104 235.674C193.324 235.454 193.586 235.279 193.874 235.16C194.161 235.042 194.469 234.981 194.781 234.981H201.84C202.468 234.982 203.069 235.233 203.512 235.676C203.957 236.121 204.207 236.722 204.21 237.35V240.869H192.41Z" fill="#EBEBEB"/>
<path d="M228.469 241.831H204.419V242.331H228.469V241.831Z" fill="#E6E6E6"/>
<path d="M250 427.01C357.082 427.01 443.89 421.942 443.89 415.69C443.89 409.439 357.082 404.369 250 404.369C142.918 404.369 56.1101 409.439 56.1101 415.69C56.1101 421.942 142.918 427.01 250 427.01Z" fill="#F5F5F5"/>
<path d="M207.731 108.81C207.731 109.56 207.6 110.31 207.51 111.05C207.419 111.79 207.3 112.53 207.19 113.29C207.081 114.05 206.981 114.79 206.86 115.54C206.74 116.29 206.631 117.05 206.56 117.8C206.571 117.98 206.571 118.16 206.56 118.34C206.55 118.52 206.55 118.7 206.56 118.88C206.569 119.053 206.569 119.227 206.56 119.4C206.56 119.58 206.56 119.75 206.51 119.92C206.489 120.142 206.442 120.36 206.369 120.57C206.3 120.78 206.213 120.984 206.11 121.18C206.017 121.397 205.872 121.589 205.69 121.74C205.517 121.894 205.307 122.001 205.081 122.05C204.764 122.109 204.438 122.063 204.15 121.92C203.872 121.785 203.642 121.569 203.49 121.3C203.41 121.107 203.349 120.906 203.31 120.7C203.278 120.488 203.261 120.274 203.26 120.06C203.244 119.841 203.244 119.62 203.26 119.4C203.26 119.18 203.26 118.97 203.26 118.75C203.319 118.09 203.4 117.43 203.481 116.75C203.56 116.07 203.65 115.41 203.75 114.75C203.85 114.09 203.94 113.38 204.04 112.69C204.14 112 204.231 111.32 204.29 110.63C204.29 110.44 204.29 110.25 204.29 110.05C204.29 109.85 204.29 109.64 204.29 109.45C204.31 109.257 204.31 109.063 204.29 108.87C204.271 108.683 204.219 108.501 204.14 108.33C204.01 108.21 203.881 108.09 203.75 107.95C203.617 107.823 203.493 107.686 203.381 107.54C203.276 107.393 203.196 107.231 203.14 107.06C203.1 106.876 203.1 106.685 203.14 106.5C203.164 106.235 203.228 105.976 203.331 105.73C203.439 105.482 203.579 105.25 203.75 105.04C203.918 104.827 204.121 104.645 204.35 104.5C204.581 104.354 204.84 104.259 205.11 104.22C205.244 104.255 205.375 104.302 205.5 104.36L205.869 104.55C206.176 104.73 206.456 104.952 206.7 105.21C206.939 105.474 207.143 105.766 207.31 106.08C207.476 106.397 207.604 106.733 207.69 107.08C207.772 107.441 207.808 107.81 207.8 108.18C207.794 108.283 207.794 108.387 207.8 108.49L207.731 108.81Z" fill="#C2410C"/>
<path d="M219.63 113.231C219.604 113.409 219.546 113.582 219.46 113.741C219.371 113.902 219.26 114.05 219.13 114.181C218.996 114.303 218.844 114.404 218.68 114.481C218.514 114.558 218.333 114.602 218.15 114.611C217.864 114.611 217.574 114.611 217.28 114.611C216.99 114.611 216.7 114.611 216.4 114.611C216.4 114.861 216.34 115.111 216.33 115.371C216.318 115.629 216.292 115.886 216.25 116.141C216.215 116.351 216.129 116.55 216 116.721C215.871 116.89 215.719 117.041 215.55 117.171C215.378 117.314 215.186 117.432 214.98 117.521C214.778 117.608 214.56 117.652 214.34 117.651C214.051 117.603 213.793 117.445 213.619 117.211C213.447 116.981 213.33 116.714 213.28 116.431C213.211 116.125 213.178 115.813 213.18 115.501C213.18 115.181 213.18 114.881 213.18 114.611H212.43H211.66C211.451 114.604 211.247 114.542 211.069 114.431C210.892 114.33 210.737 114.189 210.619 114.021C210.497 113.855 210.396 113.673 210.319 113.481C210.242 113.28 210.218 113.063 210.25 112.851C210.343 112.546 210.533 112.279 210.79 112.091C211.047 111.908 211.335 111.772 211.64 111.691C211.967 111.604 212.303 111.551 212.64 111.531L213.569 111.441V111.201C213.604 110.902 213.654 110.604 213.719 110.311C213.789 109.998 213.896 109.696 214.04 109.411C214.185 109.147 214.378 108.913 214.61 108.721C214.864 108.526 215.18 108.431 215.5 108.451C215.672 108.45 215.843 108.488 216 108.561C216.153 108.633 216.292 108.731 216.41 108.851C216.529 108.964 216.623 109.1 216.69 109.251C216.754 109.41 216.787 109.579 216.79 109.751C216.754 110.046 216.737 110.343 216.74 110.641C216.74 110.939 216.718 111.236 216.669 111.531H216.95C217.253 111.512 217.557 111.512 217.86 111.531C218.167 111.567 218.467 111.647 218.75 111.771C219.011 111.885 219.24 112.06 219.419 112.281C219.523 112.413 219.597 112.567 219.633 112.732C219.669 112.896 219.668 113.067 219.63 113.231Z" fill="#C2410C"/>
<path d="M227.26 108.81C227.26 109.56 227.13 110.31 227.04 111.05C226.95 111.79 226.84 112.53 226.719 113.29C226.6 114.05 226.51 114.79 226.39 115.54C226.269 116.29 226.16 117.05 226.09 117.8C226.1 117.98 226.1 118.16 226.09 118.34C226.079 118.52 226.079 118.7 226.09 118.88C226.1 119.053 226.1 119.227 226.09 119.4C226.09 119.58 226.09 119.75 226.04 119.92C226.018 120.142 225.971 120.36 225.9 120.57C225.829 120.78 225.743 120.984 225.64 121.18C225.546 121.397 225.403 121.589 225.219 121.74C225.046 121.894 224.836 122.001 224.61 122.05C224.294 122.109 223.968 122.063 223.68 121.92C223.404 121.782 223.175 121.567 223.019 121.3C222.939 121.107 222.879 120.906 222.84 120.7C222.808 120.488 222.792 120.274 222.79 120.06C222.775 119.841 222.775 119.62 222.79 119.4C222.79 119.18 222.79 118.97 222.79 118.75C222.85 118.09 222.93 117.43 223.01 116.75C223.09 116.07 223.18 115.41 223.28 114.75C223.38 114.09 223.469 113.38 223.569 112.69C223.669 112 223.76 111.32 223.819 110.63C223.819 110.44 223.819 110.25 223.819 110.05C223.819 109.85 223.819 109.64 223.819 109.45C223.84 109.257 223.84 109.063 223.819 108.87C223.801 108.683 223.75 108.501 223.669 108.33C223.54 108.21 223.41 108.09 223.28 107.95C223.146 107.823 223.022 107.686 222.91 107.54C222.807 107.393 222.725 107.231 222.669 107.06C222.629 106.876 222.629 106.685 222.669 106.5C222.694 106.235 222.758 105.976 222.86 105.73C222.968 105.482 223.11 105.25 223.28 105.04C223.447 104.827 223.65 104.645 223.88 104.5C224.111 104.354 224.369 104.259 224.64 104.22C224.774 104.255 224.904 104.302 225.03 104.36L225.4 104.55C225.707 104.73 225.986 104.952 226.23 105.21C226.469 105.474 226.674 105.766 226.84 106.08C227.011 106.395 227.139 106.731 227.219 107.08C227.301 107.441 227.339 107.81 227.33 108.18C227.325 108.283 227.325 108.387 227.33 108.49L227.26 108.81Z" fill="#C2410C"/>
<path d="M239.9 115.28C239.84 115.486 239.739 115.677 239.6 115.84C239.469 116.009 239.314 116.157 239.14 116.28C238.968 116.402 238.779 116.5 238.58 116.57C238.382 116.648 238.172 116.689 237.96 116.69C236.96 116.76 236.03 116.79 235.069 116.78C234.11 116.77 233.169 116.78 232.219 116.67C232.007 116.656 231.8 116.598 231.61 116.5C231.428 116.413 231.262 116.294 231.119 116.15C230.978 115.999 230.86 115.827 230.769 115.64C230.683 115.444 230.636 115.234 230.63 115.02C230.614 114.862 230.653 114.703 230.74 114.57C230.818 114.441 230.924 114.332 231.05 114.25C231.176 114.156 231.314 114.078 231.46 114.02L231.89 113.87C232.219 113.782 232.553 113.712 232.89 113.66C233.221 113.613 233.555 113.589 233.89 113.59H234.43L234.969 113.64C235.34 113.64 235.719 113.64 236.11 113.64H236.73H237.03C237.133 113.655 237.237 113.655 237.34 113.64H237.91C238.115 113.655 238.319 113.685 238.519 113.73C238.715 113.77 238.905 113.827 239.09 113.9C239.261 113.967 239.419 114.062 239.56 114.18C239.692 114.302 239.789 114.458 239.84 114.63C239.911 114.839 239.93 115.062 239.9 115.28ZM240.38 111.28C240.408 111.478 240.378 111.68 240.29 111.86C240.2 112.026 240.074 112.17 239.919 112.28C239.761 112.397 239.582 112.482 239.39 112.53C239.201 112.564 239.008 112.564 238.819 112.53H232.28C232.083 112.541 231.886 112.499 231.71 112.41C231.544 112.328 231.397 112.213 231.28 112.07C231.167 111.923 231.087 111.752 231.05 111.57C231 111.38 231 111.18 231.05 110.99C231.076 110.822 231.146 110.664 231.25 110.53C231.353 110.399 231.474 110.285 231.61 110.19C231.749 110.093 231.896 110.009 232.05 109.94L232.5 109.74C232.824 109.621 233.158 109.538 233.5 109.49L234.5 109.37H235.01C235.18 109.359 235.35 109.359 235.519 109.37C235.86 109.37 236.2 109.37 236.519 109.37H236.84C236.95 109.38 237.06 109.38 237.169 109.37H237.5H237.84C238.132 109.375 238.424 109.408 238.71 109.47C239.001 109.526 239.28 109.627 239.54 109.77C239.786 109.907 239.999 110.098 240.16 110.33C240.335 110.607 240.412 110.934 240.38 111.26V111.28Z" fill="#C2410C"/>
<path d="M255.55 119.45C255.294 119.728 254.997 119.964 254.669 120.15C254.351 120.34 254.017 120.5 253.669 120.63C253.319 120.76 252.96 120.88 252.6 120.99C252.24 121.1 251.88 121.2 251.54 121.31C250.74 121.52 249.94 121.7 249.119 121.83C248.308 121.97 247.483 122.02 246.66 121.98C246.399 121.986 246.14 121.913 245.919 121.77C245.714 121.636 245.54 121.459 245.41 121.25C245.271 121.031 245.176 120.786 245.131 120.53C245.096 120.271 245.096 120.009 245.131 119.75C245.158 119.412 245.218 119.077 245.31 118.75C245.397 118.41 245.507 118.076 245.64 117.75C245.779 117.438 245.936 117.134 246.11 116.84C246.281 116.54 246.46 116.25 246.64 115.97L248.03 113.97L249.43 111.97C249.619 111.69 249.81 111.39 249.99 111.08C250.178 110.786 250.344 110.478 250.49 110.16C250.64 109.835 250.771 109.501 250.881 109.16C250.985 108.835 251.058 108.5 251.1 108.16C251.119 108.051 251.119 107.939 251.1 107.83C251.081 107.731 251.043 107.637 250.99 107.55C250.937 107.47 250.865 107.404 250.78 107.36C250.686 107.298 250.572 107.274 250.46 107.29C250.197 107.299 249.936 107.333 249.681 107.39C249.421 107.451 249.167 107.531 248.919 107.63L248.23 107.92C248.001 108.036 247.8 108.2 247.64 108.4L247.54 108.63L247.45 108.84L247.38 109.05C247.33 109.223 247.246 109.383 247.131 109.52C247.022 109.667 246.894 109.798 246.75 109.91C246.6 110.01 246.439 110.091 246.269 110.15C246.103 110.209 245.928 110.24 245.75 110.24C245.514 110.261 245.276 110.209 245.069 110.09C244.967 110.032 244.875 109.953 244.803 109.859C244.73 109.764 244.679 109.656 244.65 109.54C244.539 109.34 244.475 109.118 244.46 108.89C244.435 108.658 244.435 108.423 244.46 108.19C244.521 107.832 244.657 107.491 244.86 107.19C245.065 106.867 245.314 106.574 245.6 106.32C245.889 106.059 246.204 105.828 246.54 105.63C246.881 105.44 247.219 105.26 247.54 105.11C248.24 104.797 248.975 104.568 249.73 104.43C250.475 104.297 251.233 104.244 251.99 104.27C252.464 104.27 252.922 104.448 253.269 104.77C253.607 105.084 253.872 105.466 254.05 105.89C254.253 106.319 254.397 106.773 254.48 107.24C254.56 107.719 254.59 108.205 254.569 108.69C254.542 109.288 254.41 109.877 254.18 110.43C253.958 110.994 253.69 111.54 253.381 112.06L252.2 113.72C251.81 114.27 251.419 114.81 251.01 115.36C250.6 115.91 250.281 116.42 249.95 116.96C249.617 117.503 249.357 118.088 249.181 118.7C250.01 118.56 250.831 118.4 251.65 118.22C252.469 118.04 253.29 117.89 254.11 117.78C254.324 117.763 254.537 117.816 254.719 117.93C254.89 118.047 255.039 118.193 255.16 118.36C255.283 118.508 255.385 118.673 255.46 118.85C255.539 119.04 255.569 119.246 255.55 119.45Z" fill="#C2410C"/>
<path d="M208.831 208.519C208.578 208.797 208.285 209.033 207.96 209.219C207.64 209.407 207.306 209.568 206.96 209.7C206.6 209.831 206.25 209.95 205.881 210.06L204.831 210.381C204.031 210.59 203.219 210.769 202.4 210.9C201.587 211.04 200.762 211.09 199.94 211.05C199.681 211.056 199.426 210.982 199.21 210.84C198.999 210.71 198.821 210.531 198.69 210.319C198.56 210.097 198.468 209.854 198.419 209.6C198.381 209.342 198.381 209.079 198.419 208.819C198.439 208.482 198.496 208.146 198.59 207.819C198.675 207.478 198.789 207.143 198.931 206.819C199.065 206.508 199.219 206.204 199.39 205.91C199.569 205.61 199.74 205.319 199.919 205.04L201.31 203.04L202.719 201.04L203.281 200.15C203.462 199.849 203.629 199.539 203.781 199.219C203.929 198.896 204.056 198.561 204.16 198.219C204.269 197.896 204.343 197.56 204.381 197.219C204.4 197.111 204.4 196.999 204.381 196.89C204.36 196.79 204.322 196.696 204.269 196.61C204.218 196.529 204.146 196.464 204.06 196.419C203.961 196.36 203.844 196.335 203.731 196.35C203.468 196.358 203.207 196.392 202.95 196.45C202.694 196.508 202.443 196.589 202.2 196.69C201.969 196.781 201.74 196.869 201.51 196.981C201.276 197.093 201.071 197.257 200.91 197.46L200.81 197.69L200.719 197.9L200.66 198.11C200.607 198.281 200.522 198.44 200.41 198.581C200.3 198.726 200.169 198.854 200.019 198.96C199.876 199.071 199.714 199.156 199.54 199.21C199.376 199.269 199.204 199.3 199.031 199.3C198.79 199.322 198.549 199.269 198.34 199.15C198.236 199.092 198.146 199.013 198.074 198.918C198.001 198.824 197.949 198.715 197.919 198.6C197.808 198.401 197.746 198.178 197.74 197.95C197.719 197.717 197.719 197.483 197.74 197.25C197.8 196.892 197.936 196.551 198.14 196.25C198.35 195.931 198.599 195.639 198.881 195.381C199.174 195.119 199.492 194.888 199.831 194.69C200.154 194.499 200.487 194.325 200.831 194.169C201.535 193.858 202.272 193.629 203.031 193.49C203.772 193.357 204.526 193.304 205.281 193.331C205.756 193.328 206.212 193.506 206.56 193.831C206.903 194.139 207.169 194.522 207.34 194.95C207.547 195.378 207.692 195.832 207.769 196.3C207.85 196.779 207.881 197.265 207.86 197.75C207.831 198.347 207.701 198.935 207.481 199.49C207.25 200.053 206.979 200.597 206.669 201.119L205.49 202.781C205.11 203.331 204.71 203.869 204.3 204.419C203.89 204.969 203.581 205.481 203.24 206.019C202.911 206.565 202.651 207.15 202.469 207.76C203.3 207.619 204.131 207.46 204.95 207.281C205.769 207.1 206.581 206.95 207.41 206.84C207.621 206.825 207.831 206.878 208.01 206.99C208.183 207.104 208.332 207.25 208.45 207.419C208.579 207.565 208.685 207.731 208.76 207.91C208.829 208.106 208.853 208.314 208.831 208.519Z" fill="#C2410C"/>
<path d="M221.33 202.3C221.308 202.481 221.25 202.654 221.16 202.811C221.071 202.972 220.96 203.119 220.83 203.25C220.696 203.374 220.544 203.474 220.38 203.55C220.217 203.628 220.04 203.672 219.86 203.681C219.56 203.681 219.269 203.681 218.98 203.681C218.69 203.681 218.4 203.681 218.1 203.681C218.1 203.931 218.1 204.181 218.03 204.44C218.018 204.699 217.992 204.956 217.95 205.211C217.919 205.422 217.833 205.622 217.7 205.79C217.571 205.96 217.419 206.111 217.25 206.24C217.079 206.382 216.892 206.499 216.69 206.59C216.485 206.678 216.264 206.722 216.04 206.721C215.751 206.674 215.493 206.515 215.319 206.281C215.153 206.049 215.036 205.782 214.98 205.5C214.917 205.194 214.882 204.883 214.88 204.571C214.88 204.25 214.88 203.95 214.88 203.681H214.14H213.369C213.158 203.672 212.951 203.611 212.769 203.5C212.592 203.4 212.437 203.26 212.319 203.09C212.204 202.922 212.107 202.74 212.03 202.55C211.939 202.354 211.914 202.132 211.96 201.921C212.054 201.615 212.243 201.349 212.5 201.161C212.755 200.979 213.039 200.844 213.34 200.761C213.668 200.675 214.003 200.622 214.34 200.6L215.269 200.511V200.271C215.304 199.971 215.354 199.675 215.419 199.381C215.487 199.067 215.599 198.764 215.75 198.481C215.889 198.212 216.083 197.978 216.319 197.79C216.574 197.594 216.89 197.497 217.21 197.521C217.379 197.521 217.547 197.558 217.7 197.631C217.854 197.7 217.993 197.799 218.11 197.921C218.229 198.035 218.324 198.171 218.39 198.321C218.458 198.478 218.493 198.649 218.49 198.821C218.49 199.121 218.44 199.421 218.44 199.711C218.439 200.008 218.419 200.306 218.38 200.6H218.66C218.961 200.599 219.261 200.615 219.56 200.65C219.867 200.686 220.167 200.767 220.45 200.89C220.712 201.001 220.943 201.178 221.119 201.4C221.217 201.526 221.286 201.672 221.322 201.828C221.358 201.983 221.361 202.144 221.33 202.3Z" fill="#C2410C"/>
<path d="M235.61 208.519C235.358 208.797 235.064 209.033 234.74 209.219C234.421 209.408 234.086 209.569 233.74 209.7C233.39 209.831 233.031 209.95 232.669 210.06L231.61 210.381C230.812 210.594 230.006 210.768 229.19 210.9C228.378 211.039 227.553 211.09 226.731 211.05C226.468 211.054 226.211 210.982 225.99 210.84C225.785 210.706 225.61 210.528 225.481 210.319C225.349 210.097 225.258 209.854 225.21 209.6C225.165 209.342 225.165 209.078 225.21 208.819C225.229 208.482 225.286 208.146 225.381 207.819C225.465 207.478 225.579 207.143 225.719 206.819C225.856 206.508 226.008 206.204 226.181 205.91C226.35 205.61 226.531 205.319 226.71 205.04L228.1 203.04L229.51 201.04C229.69 200.76 229.881 200.46 230.06 200.15C230.25 199.851 230.419 199.54 230.569 199.219C230.719 198.896 230.846 198.561 230.95 198.219C231.054 197.894 231.128 197.56 231.169 197.219C231.194 197.111 231.194 196.999 231.169 196.89C231.153 196.792 231.119 196.697 231.069 196.61C231.018 196.529 230.946 196.464 230.86 196.419C230.761 196.36 230.644 196.335 230.531 196.35C230.268 196.358 230.007 196.392 229.75 196.45C229.49 196.51 229.236 196.59 228.99 196.69C228.76 196.781 228.54 196.869 228.31 196.981C228.076 197.093 227.871 197.257 227.71 197.46L227.61 197.69L227.519 197.9L227.46 198.11C227.403 198.279 227.318 198.438 227.21 198.581C227.099 198.724 226.967 198.851 226.819 198.96C226.675 199.068 226.512 199.153 226.34 199.21C226.176 199.269 226.004 199.3 225.831 199.3C225.59 199.322 225.349 199.269 225.14 199.15C225.036 199.092 224.946 199.013 224.874 198.918C224.801 198.824 224.749 198.715 224.719 198.6C224.608 198.401 224.546 198.178 224.54 197.95C224.51 197.718 224.51 197.482 224.54 197.25C224.6 196.892 224.736 196.551 224.94 196.25C225.147 195.929 225.396 195.636 225.681 195.381C225.969 195.119 226.285 194.888 226.619 194.69C226.96 194.5 227.3 194.319 227.619 194.169C228.319 193.857 229.056 193.628 229.81 193.49C230.556 193.357 231.312 193.304 232.069 193.331C232.544 193.328 233.003 193.506 233.35 193.831C233.687 194.143 233.953 194.525 234.131 194.95C234.336 195.378 234.482 195.832 234.56 196.3C234.64 196.779 234.671 197.265 234.65 197.75C234.621 198.347 234.492 198.935 234.269 199.49C234.04 200.053 233.769 200.597 233.46 201.119L232.281 202.781C231.9 203.331 231.5 203.869 231.09 204.419C230.681 204.969 230.369 205.481 230.031 206.019C229.7 206.565 229.442 207.15 229.26 207.76C230.09 207.619 230.919 207.46 231.731 207.281C232.54 207.1 233.369 206.95 234.2 206.84C234.411 206.825 234.621 206.878 234.8 206.99C234.972 207.104 235.122 207.25 235.24 207.419C235.369 207.563 235.472 207.729 235.54 207.91C235.614 208.104 235.637 208.314 235.61 208.519Z" fill="#C2410C"/>
<path d="M248.85 204.35C248.79 204.554 248.692 204.744 248.56 204.911C248.426 205.079 248.268 205.228 248.09 205.35C247.918 205.472 247.729 205.569 247.531 205.64C247.335 205.713 247.129 205.754 246.919 205.761C245.919 205.831 244.981 205.861 244.019 205.85C243.06 205.84 242.119 205.85 241.169 205.74C240.957 205.726 240.75 205.669 240.56 205.571C240.187 205.394 239.893 205.089 239.731 204.711C239.64 204.515 239.589 204.306 239.581 204.09C239.569 203.933 239.607 203.775 239.69 203.64C239.768 203.513 239.874 203.403 240 203.321C240.128 203.228 240.265 203.151 240.41 203.09L240.84 202.94C241.169 202.851 241.503 202.782 241.84 202.731C242.171 202.683 242.506 202.66 242.84 202.661H243.39L243.931 202.711C244.29 202.711 244.669 202.711 245.06 202.711H245.681H245.981C246.083 202.725 246.187 202.725 246.29 202.711H246.86C247.065 202.726 247.269 202.756 247.469 202.8C247.665 202.84 247.856 202.897 248.04 202.971C248.212 203.033 248.372 203.129 248.51 203.25C248.642 203.372 248.739 203.528 248.79 203.7C248.861 203.91 248.881 204.132 248.85 204.35ZM249.331 200.35C249.364 200.549 249.332 200.753 249.24 200.931C249.15 201.097 249.024 201.24 248.869 201.35C248.712 201.469 248.532 201.554 248.34 201.6C248.151 201.635 247.958 201.635 247.769 201.6H241.231C241.036 201.613 240.842 201.571 240.669 201.481C240.5 201.401 240.349 201.286 240.231 201.14C240.115 200.993 240.037 200.822 240 200.64C239.96 200.449 239.96 200.251 240 200.061C240.026 199.893 240.096 199.735 240.2 199.6C240.303 199.469 240.424 199.356 240.56 199.261C240.699 199.16 240.846 199.072 241 199L241.45 198.8C241.774 198.682 242.108 198.599 242.45 198.55L243.45 198.431H243.96C244.131 198.419 244.3 198.419 244.469 198.431C244.81 198.431 245.16 198.431 245.469 198.431H245.8C245.907 198.44 246.014 198.44 246.119 198.431H246.45H246.79C247.082 198.435 247.374 198.469 247.66 198.531C247.951 198.585 248.232 198.686 248.49 198.831C248.736 198.968 248.949 199.158 249.11 199.39C249.287 199.669 249.365 200.001 249.331 200.331V200.35Z" fill="#C2410C"/>
<path d="M263.519 203.271C263.451 203.59 263.326 203.894 263.15 204.171C262.981 204.456 262.725 204.679 262.419 204.81C262.383 204.931 262.356 205.054 262.34 205.181L262.281 205.55C262.281 205.821 262.281 206.09 262.281 206.371L262.219 207.19C262.219 207.46 262.219 207.721 262.219 207.981C262.219 208.24 262.169 208.51 262.14 208.781C262.108 209.028 262.056 209.272 261.981 209.51C261.903 209.757 261.789 209.989 261.64 210.2C261.501 210.411 261.325 210.593 261.119 210.74C260.875 210.911 260.589 211.013 260.292 211.033C259.994 211.054 259.696 210.994 259.431 210.86C259.282 210.79 259.15 210.688 259.046 210.563C258.94 210.436 258.862 210.289 258.819 210.131C258.699 209.811 258.643 209.471 258.66 209.131C258.66 208.75 258.66 208.381 258.719 208.031C258.781 207.681 258.81 207.21 258.869 206.831C258.915 206.632 258.949 206.432 258.969 206.231L259.06 205.64C259.044 205.535 259.044 205.426 259.06 205.321C259.076 205.218 259.076 205.112 259.06 205.01C258.91 205 258.76 205 258.61 205.01H258.169C257.619 205.01 257.069 205.01 256.531 204.94C255.994 204.896 255.465 204.796 254.95 204.64L254.231 204.431C253.983 204.353 253.743 204.26 253.51 204.15C253.283 204.047 253.069 203.919 252.869 203.771C252.678 203.615 252.51 203.433 252.369 203.231C252.276 203.057 252.222 202.867 252.21 202.671C252.194 202.461 252.194 202.25 252.21 202.04C252.267 201.531 252.374 201.028 252.531 200.54C252.69 200.04 252.869 199.54 253.069 199.071C253.269 198.6 253.531 198.071 253.781 197.6C254.031 197.131 254.319 196.66 254.619 196.2C254.767 195.96 254.926 195.731 255.1 195.51C255.269 195.281 255.45 195.071 255.64 194.86C255.831 194.65 255.981 194.481 256.16 194.29C256.346 194.11 256.567 193.969 256.81 193.881C257.046 193.868 257.281 193.919 257.49 194.031C257.687 194.138 257.872 194.269 258.04 194.421C258.199 194.596 258.34 194.786 258.46 194.99C258.578 195.2 258.633 195.44 258.619 195.681C258.514 196.117 258.349 196.537 258.131 196.931C257.9 197.321 257.681 197.721 257.46 198.121C257.24 198.521 256.95 199.031 256.719 199.49C256.487 199.944 256.281 200.413 256.1 200.89C256.6 200.981 257.1 201.06 257.61 201.11L259.14 201.3C259.212 200.95 259.265 200.596 259.3 200.24L259.39 199.171C259.39 198.831 259.45 198.481 259.469 198.171C259.49 197.86 259.469 197.46 259.54 197.121C259.61 196.781 259.619 196.35 259.681 195.971C259.742 195.578 259.832 195.19 259.95 194.81C259.996 194.633 260.071 194.464 260.169 194.31C260.269 194.156 260.394 194.021 260.54 193.91C260.679 193.792 260.837 193.7 261.01 193.64C261.182 193.588 261.361 193.571 261.54 193.59C261.779 193.613 262.008 193.69 262.21 193.821C262.404 193.938 262.574 194.09 262.71 194.271C262.849 194.457 262.954 194.667 263.019 194.89C263.082 195.118 263.108 195.354 263.1 195.59C263.1 196.04 263.1 196.49 263.031 196.94C262.96 197.39 262.96 197.84 262.91 198.29C262.86 198.74 262.831 199.2 262.781 199.65C262.731 200.1 262.69 200.56 262.65 201.021C262.64 201.147 262.64 201.274 262.65 201.4C262.665 201.526 262.665 201.654 262.65 201.781C262.947 201.926 263.2 202.151 263.381 202.431C263.507 202.69 263.556 202.982 263.519 203.271Z" fill="#C2410C"/>
<path d="M311.119 403.311C310.269 403.444 309.399 403.254 308.68 402.781C308.59 402.658 308.543 402.511 308.543 402.361C308.543 402.21 308.59 402.062 308.68 401.94C308.805 401.71 309.018 401.536 309.269 401.461C310.63 401.031 313.56 402.55 313.69 402.621C313.726 402.639 313.754 402.668 313.772 402.704C313.79 402.74 313.797 402.781 313.79 402.821C313.785 402.86 313.768 402.896 313.74 402.925C313.714 402.953 313.679 402.972 313.64 402.981C312.812 403.172 311.969 403.282 311.119 403.311ZM309.75 401.771C309.625 401.771 309.5 401.79 309.38 401.831C309.3 401.846 309.225 401.881 309.161 401.932C309.096 401.982 309.044 402.047 309.01 402.121C308.869 402.371 308.93 402.481 309.01 402.54C309.419 403.061 311.49 402.99 313.01 402.75C311.996 402.219 310.889 401.887 309.75 401.771Z" fill="#C2410C"/>
<path d="M313.59 403H313.51C312.51 402.6 310.46 400.9 310.6 400C310.6 399.771 310.77 399.49 311.3 399.421C311.493 399.392 311.69 399.403 311.879 399.453C312.068 399.503 312.246 399.59 312.4 399.711C313.481 400.531 313.79 402.711 313.8 402.84C313.806 402.875 313.801 402.911 313.786 402.943C313.772 402.975 313.75 403.001 313.72 403.021C313.675 403.029 313.629 403.022 313.59 403ZM311.45 399.75H311.34C310.99 399.75 310.97 399.931 310.96 399.981C310.96 400.54 312.281 401.881 313.32 402.45C313.186 401.521 312.771 400.656 312.131 399.971C311.938 399.815 311.696 399.737 311.45 399.75Z" fill="#C2410C"/>
<path d="M323.29 406.881L315.09 407.21L308.51 371.05L307.92 367.781L307.52 365.59H319.86L319.92 366.36L320.281 370.581L323.29 406.881Z" fill="#FFB573"/>
<path d="M314.41 401.8L323.41 401.45C323.574 401.44 323.735 401.489 323.865 401.586C323.997 401.682 324.09 401.822 324.131 401.981L326.04 409.21C326.122 409.517 326.081 409.843 325.924 410.119C325.767 410.394 325.506 410.596 325.2 410.681C325.117 410.694 325.033 410.694 324.95 410.681C321.71 410.76 318.831 410.681 314.81 410.86C310.06 411.04 311.29 411.571 305.71 411.86C302.35 412.04 301.581 408.24 303 408C309.49 406.921 310.09 404.921 312.519 402.49C313.047 402.042 313.718 401.797 314.41 401.8Z" fill="#263238"/>
<path d="M304 252.811H303.369L302.869 252.731L301.919 252.581C301.3 252.471 300.71 252.34 300.11 252.211C298.93 251.94 297.78 251.611 296.65 251.211C294.407 250.5 292.212 249.644 290.08 248.65C287.962 247.654 285.91 246.529 283.93 245.281C282.93 244.69 281.93 244.031 281.019 243.381C280.11 242.731 279.2 242.04 278.2 241.281C275.937 239.426 274.128 237.081 272.91 234.421C271.879 232.243 271.06 229.974 270.46 227.64C269.9 225.431 269.16 211.361 269.15 209.111L274.78 206.721C276.08 210.531 277.59 220.821 279.269 224.471C280.057 226.142 280.965 227.753 281.99 229.29C282.7 230.433 283.643 231.411 284.76 232.161C285.51 232.59 286.4 233.161 287.219 233.59C288.04 234.021 288.9 234.531 289.769 234.94C290.64 235.35 291.49 235.79 292.369 236.171C293.25 236.55 294.13 236.921 295 237.321C296.769 238.011 298.55 238.65 300.35 239.181C301.23 239.461 305.119 237.54 306 237.781L307.3 238.081L308.36 238.3L304 252.811Z" fill="#263238"/>
<path d="M274.79 206.74L273.28 200.161L264.73 203.481C265.408 205.692 266.819 207.607 268.73 208.911C269.289 209.262 269.944 209.429 270.604 209.386C271.264 209.343 271.892 209.093 272.4 208.671L274.79 206.74Z" fill="#FFB573"/>
<path d="M267.07 196.1L261.81 200.45L264.731 203.481L273.27 200.15L267.07 196.1Z" fill="#FFB573"/>
<path d="M298.419 246.001C297.58 253.731 297.219 269.7 301.419 299.271L345.319 297.521C345.319 291.311 341.06 272.851 344.43 245.071C344.682 243.078 344.133 241.067 342.903 239.478C341.672 237.89 339.862 236.856 337.869 236.601H337.6C335.45 236.421 333.06 236.281 330.73 236.261C324.497 236.147 318.264 236.394 312.06 237.001C309.669 237.311 307.34 237.781 305.34 238.231C303.524 238.65 301.883 239.622 300.643 241.014C299.404 242.406 298.626 244.149 298.419 246.001Z" fill="#263238"/>
<path d="M326.44 222.061C326.15 227.811 326.74 234.461 330.169 237.221C325.054 241.153 319.404 244.335 313.39 246.671C307.3 241.89 310.39 238.371 310.39 238.371C316.06 235.6 315.88 231.371 314.39 226.811L323 220C324.4 218.681 326.54 219.94 326.44 222.061Z" fill="#FFB573"/>
<path opacity="0.2" d="M326.44 222.061C326.55 219.951 324.44 218.681 322.969 219.981L314.381 226.84C315.17 228.851 315.411 231.036 315.081 233.171C317.014 233.336 318.958 233.035 320.75 232.29C323.072 231.381 325.065 229.792 326.469 227.731C326.34 225.843 326.331 223.95 326.44 222.061Z" fill="black"/>
<path d="M336.31 215.511C335.869 216.511 335.46 217.44 335.09 218.331C332.54 224.181 330.75 227.901 325.71 229.971C317.01 233.551 307.569 226.181 308.269 217.761C308.9 210.171 314.18 199.161 323.76 199.181C331.25 199.181 336.76 204.571 337.169 210.511C337.307 212.224 337.011 213.943 336.31 215.511Z" fill="#FFB573"/>
<path d="M313.57 218.311C314.454 218.875 315.461 219.218 316.506 219.31C317.55 219.403 318.602 219.242 319.57 218.84C319.596 218.828 319.62 218.81 319.639 218.787C319.658 218.765 319.674 218.739 319.682 218.711C319.692 218.683 319.696 218.654 319.693 218.625C319.692 218.596 319.683 218.567 319.67 218.54C319.657 218.514 319.639 218.492 319.617 218.472C319.595 218.453 319.568 218.437 319.54 218.429C319.513 218.419 319.483 218.415 319.454 218.418C319.425 218.419 319.396 218.428 319.37 218.44C318.47 218.793 317.499 218.928 316.538 218.836C315.575 218.744 314.647 218.426 313.831 217.911C313.777 217.881 313.714 217.872 313.654 217.887C313.595 217.901 313.543 217.939 313.51 217.99C313.493 218.015 313.481 218.044 313.475 218.074C313.468 218.103 313.468 218.133 313.474 218.164C313.479 218.193 313.49 218.221 313.507 218.247C313.524 218.272 313.545 218.293 313.57 218.311Z" fill="#263238"/>
<path d="M321.56 211.001C321.181 211.621 320.56 211.921 320.15 211.671C319.74 211.421 319.72 210.731 320.15 210.111C320.581 209.49 321.15 209.19 321.56 209.44C321.97 209.69 321.94 210.421 321.56 211.001Z" fill="#263238"/>
<path d="M314.469 208.171C314.09 208.79 313.469 209.171 313.06 208.84C312.65 208.511 312.619 207.9 313 207.281C313.38 206.661 314 206.281 314.419 206.611C314.84 206.94 314.84 207.561 314.469 208.171Z" fill="#263238"/>
<path d="M324.39 209.771C324.321 209.731 324.263 209.672 324.224 209.601C324.185 209.531 324.167 209.451 324.169 209.371C324.207 208.84 324.115 208.308 323.903 207.821C323.69 207.333 323.364 206.904 322.95 206.571C322.904 206.538 322.865 206.496 322.835 206.449C322.806 206.4 322.785 206.347 322.775 206.292C322.767 206.235 322.768 206.178 322.781 206.124C322.793 206.068 322.817 206.017 322.85 205.971C322.913 205.879 323.008 205.817 323.118 205.796C323.226 205.775 323.339 205.799 323.431 205.86C323.958 206.281 324.376 206.822 324.651 207.437C324.926 208.054 325.05 208.726 325.01 209.4C325 209.515 324.944 209.622 324.857 209.696C324.769 209.771 324.656 209.808 324.54 209.8H324.381L324.39 209.771Z" fill="#263238"/>
<path d="M313.1 203.781C313.019 203.749 312.95 203.692 312.9 203.621C312.862 203.575 312.835 203.521 312.819 203.464C312.804 203.407 312.801 203.347 312.811 203.289C312.821 203.229 312.842 203.174 312.875 203.124C312.907 203.075 312.95 203.032 313 203.001C313.56 202.622 314.203 202.382 314.874 202.303C315.546 202.222 316.226 202.304 316.86 202.54C316.961 202.594 317.036 202.685 317.072 202.793C317.107 202.9 317.1 203.018 317.05 203.121C317 203.217 316.917 203.292 316.814 203.329C316.712 203.365 316.6 203.363 316.5 203.321C315.994 203.133 315.45 203.071 314.915 203.142C314.381 203.211 313.871 203.41 313.431 203.721C313.331 203.779 313.214 203.801 313.1 203.781Z" fill="#263238"/>
<path d="M315.631 211.4C314.11 212.4 313.931 212.221 312.1 212.861C312.674 213.636 313.528 214.156 314.481 214.311L315.631 211.4Z" fill="#FF5652"/>
<path opacity="0.3" d="M336.31 215.51C335.869 216.51 335.46 217.44 335.09 218.331C334.401 218.067 333.649 218.014 332.931 218.181C331.771 218.511 330.751 219.214 330.031 220.181C330.665 217.278 331.525 214.429 332.6 211.66C332.95 210.771 333.19 209.29 334.369 209.41C335.372 209.582 336.326 209.964 337.169 210.531C337.304 212.236 337.008 213.949 336.31 215.51Z" fill="black"/>
<path d="M335 222.781C333.882 224.047 332.322 224.842 330.64 225C328.55 225.11 328.26 222.921 329.469 221C330.55 219.271 332.96 217.131 334.75 217.91C336.54 218.69 336.481 221.171 335 222.781Z" fill="#FFB573"/>
<path opacity="0.2" d="M319.92 366.36L320.281 370.581L308.71 372.16L307.92 367.781L307.22 367.86L306.65 361.01L306.6 360.41L320.84 359.84L321.21 361.89L321.95 366.121L319.92 366.36Z" fill="black"/>
<path d="M301.41 299.281C299.471 314.288 299.069 329.453 300.21 344.54C301.21 355.351 303.21 360.811 303.21 360.811L321.21 361.89C321.21 361.89 321.61 356.161 321.75 346.071C321.319 318.14 330.28 298.121 330.28 298.121L301.41 299.281Z" fill="#C2410C"/>
<path opacity="0.3" d="M324.881 311.511C317.65 313.381 319.75 325.571 322.219 333.79C322.811 326.287 324.049 318.85 325.919 311.561L324.881 311.511Z" fill="black"/>
<path d="M376.631 385.36C376.031 386.231 375.34 386.99 374.75 387C374.6 386.996 374.453 386.947 374.331 386.86C374.207 386.774 374.114 386.651 374.06 386.511C374.01 386.389 373.983 386.257 373.983 386.125C373.983 385.993 374.01 385.863 374.06 385.74C374.54 384.4 377.51 382.971 377.65 382.9C377.699 382.882 377.751 382.883 377.799 382.901C377.847 382.919 377.886 382.954 377.91 383C377.931 383.051 377.931 383.108 377.91 383.16C377.551 383.931 377.122 384.668 376.631 385.36ZM374.631 385.531C374.551 385.629 374.49 385.74 374.45 385.86C374.418 385.935 374.401 386.014 374.401 386.096C374.401 386.176 374.418 386.256 374.45 386.331C374.57 386.581 374.7 386.61 374.781 386.61C375.44 386.61 376.631 384.89 377.32 383.511C376.29 383.992 375.367 384.671 374.6 385.511L374.631 385.531Z" fill="#C2410C"/>
<path d="M377.86 383.19H377.79C376.85 383.751 374.281 384.361 373.61 383.701C373.45 383.551 373.31 383.271 373.56 382.801C373.657 382.626 373.789 382.475 373.947 382.354C374.106 382.233 374.286 382.147 374.481 382.101C375.781 381.731 377.74 382.801 377.819 382.84C377.849 382.86 377.872 382.885 377.889 382.914C377.907 382.944 377.917 382.976 377.919 383.011C377.915 383.075 377.894 383.137 377.86 383.19ZM374 383.001L373.931 383.101C373.76 383.411 373.869 383.511 373.931 383.531C374.34 383.921 376.25 383.631 377.331 383.131C376.503 382.679 375.557 382.492 374.619 382.59C374.368 382.643 374.146 382.789 374 383.001Z" fill="#C2410C"/>
<path d="M386.81 377.771L382.14 384.531L346.831 360.681L355.381 351.261L386.81 377.771Z" fill="#FFB573"/>
<path d="M377.41 381.821L382.51 374.44C382.601 374.304 382.737 374.204 382.893 374.157C383.05 374.11 383.218 374.118 383.369 374.181L390.3 377C390.446 377.057 390.579 377.143 390.692 377.253C390.805 377.361 390.896 377.492 390.957 377.636C391.019 377.779 391.053 377.935 391.055 378.092C391.057 378.249 391.028 378.404 390.969 378.55C390.937 378.64 390.89 378.725 390.83 378.8C388.95 381.431 386.14 385.171 383.83 388.521C381.13 392.44 383.11 390.021 379.94 394.61C378.019 397.39 374.69 396.221 375.23 394.881C377.73 388.79 377.319 387.21 376.83 383.821C376.762 383.104 376.969 382.389 377.41 381.821Z" fill="#263238"/>
<path opacity="0.2" d="M343.831 358.501L352.631 364.601L359.45 354.701L351.081 348.001L343.831 358.501Z" fill="black"/>
<path d="M317 298.661C317 298.661 321.79 323.061 332.15 344.801C339.869 358.681 344.26 359.801 344.26 359.801L357.64 349.711C357.64 349.711 355.46 346.24 353.36 337.851C347.15 310.761 345.36 297.49 345.36 297.49L317 298.661Z" fill="#C2410C"/>
<path d="M339.16 360.1C339.16 360.16 343.89 363.51 343.89 363.51L360.25 350.171L356.8 346.281L339.16 360.1Z" fill="#263238"/>
<path d="M323.481 358.681V365.94L321.96 366.121L319.96 366.361L307.96 367.781L307.26 367.861L303.19 368.34C303.19 368.34 301.56 360.4 301.64 360.4L303.04 360.29L321.431 358.85L323.481 358.681Z" fill="#263238"/>
<path d="M340.061 257.415L313.778 261.508L319.321 297.108L345.604 293.017L340.061 257.415Z" fill="#C2410C"/>
<path opacity="0.3" d="M340.061 257.415L313.778 261.508L319.321 297.108L345.604 293.017L340.061 257.415Z" fill="black"/>
<path d="M337.881 259.471L340.06 257.421L345.61 293.021L343.419 295.081L337.881 259.471Z" fill="#C2410C"/>
<path d="M337.885 259.476L311.601 263.569L317.144 299.169L343.428 295.078L337.885 259.476Z" fill="#C2410C"/>
<path opacity="0.2" d="M337.885 259.476L311.601 263.569L317.144 299.169L343.428 295.078L337.885 259.476Z" fill="white"/>
<path d="M313.869 262.061C313.903 262.19 313.9 262.328 313.861 262.456C313.822 262.585 313.75 262.7 313.65 262.79C313.007 263.108 312.337 263.368 311.65 263.571L337.93 259.471L339.39 258.101L313.869 262.061Z" fill="#C2410C"/>
<g opacity="0.8">
<path d="M313.869 262.061C313.903 262.19 313.9 262.328 313.861 262.456C313.822 262.585 313.75 262.7 313.65 262.79C313.007 263.108 312.337 263.368 311.65 263.571L337.93 259.471L339.39 258.101L313.869 262.061Z" fill="white"/>
</g>
<path d="M341.719 238.251C345.601 239.949 348.868 242.797 351.08 246.411C351.819 247.34 353.81 252.781 355.08 254.701C356.35 256.621 357.54 258.551 358.66 260.54C359.78 262.531 360.88 264.54 361.919 266.54L362.119 266.921L362.469 267.64C362.74 268.253 362.95 268.889 363.1 269.54C363.411 270.971 363.36 272.456 362.95 273.861C362.61 275.017 362.05 276.097 361.3 277.04C360.739 277.761 360.098 278.414 359.39 278.99C358.265 279.926 357.029 280.719 355.71 281.351C354.571 281.921 353.398 282.421 352.2 282.851C349.957 283.64 347.661 284.272 345.33 284.74C343.054 285.224 340.748 285.557 338.43 285.74L337.069 279.74C340.912 278.151 344.66 276.339 348.29 274.311C349.103 273.85 349.886 273.343 350.64 272.79C351.243 272.349 351.801 271.849 352.31 271.301C352.68 270.881 352.65 270.531 352.39 271.061C352.276 271.381 352.242 271.724 352.29 272.061C352.304 272.182 352.328 272.303 352.36 272.421L352.3 272.331L352.09 272.011C349.783 268.451 347.383 264.961 344.89 261.54C343.64 259.831 342.38 258.131 341.069 256.451L339.16 253.951L337.29 251.571L341.719 238.251Z" fill="#263238"/>
<path d="M342.13 279.71L335.519 278.36L334.94 287.5C334.94 287.5 340.169 288.381 343.38 284.5L342.13 279.71Z" fill="#FFB573"/>
<path d="M329.69 282.64L331 286.001C331.189 286.49 331.529 286.907 331.972 287.19C332.415 287.472 332.936 287.606 333.46 287.571L334.94 287.461L335.51 278.311L331.38 279.371C331.062 279.447 330.764 279.585 330.501 279.778C330.237 279.971 330.015 280.213 329.847 280.492C329.679 280.771 329.568 281.081 329.519 281.404C329.472 281.726 329.489 282.056 329.569 282.371C329.603 282.464 329.643 282.554 329.69 282.64Z" fill="#FFB573"/>
<path d="M311.9 235.881C311.74 236.226 311.657 236.604 311.657 236.985C311.657 237.367 311.74 237.744 311.9 238.09C312.44 238.95 313.7 238.91 314.71 238.76L327.969 236.76C328.472 236.754 328.968 236.642 329.425 236.432C329.881 236.222 330.289 235.918 330.619 235.54C331.35 234.41 330.51 232.81 329.281 232.25C327.994 231.796 326.604 231.726 325.281 232.05C322.425 232.608 319.535 232.969 316.631 233.131C314.15 233.16 312.79 233.171 311.9 235.881Z" fill="#263238"/>
<path d="M307.54 241.769C307.479 242.924 307.725 244.072 308.252 245.1C308.778 246.126 309.568 246.997 310.54 247.619C312.514 248.837 314.854 249.322 317.15 248.99C322.022 248.104 326.535 245.835 330.15 242.45C331.25 241.269 332.15 239.65 331.731 238.1C331.511 237.493 331.146 236.95 330.667 236.518C330.186 236.087 329.607 235.782 328.981 235.631C327.724 235.346 326.428 235.282 325.15 235.44C320.56 235.79 308.181 235.14 307.54 241.769Z" fill="#263238"/>
<path d="M341.2 201.94C340.244 202.297 339.34 202.778 338.51 203.371H338.46C338.711 202.221 338.711 201.031 338.46 199.881C338.453 199.849 338.437 199.818 338.418 199.792C338.399 199.764 338.374 199.742 338.346 199.725C338.318 199.707 338.286 199.696 338.253 199.69C338.221 199.686 338.187 199.688 338.156 199.696C338.122 199.703 338.093 199.717 338.065 199.738C338.039 199.757 338.017 199.781 338 199.81C337.982 199.838 337.971 199.869 337.965 199.901C337.961 199.935 337.962 199.968 337.969 200C338.154 200.992 338.154 202.008 337.969 203C336.481 201.946 334.897 201.032 333.24 200.271C329.51 198.39 328.9 200.031 320.419 193.49C319.867 193.808 319.251 194.003 318.617 194.061C317.982 194.119 317.342 194.042 316.74 193.831C317.261 195.072 318.082 196.165 319.131 197.01C317.631 197.15 316.75 195.14 315.51 194.55C314.115 194.943 312.629 194.868 311.281 194.34C312.89 199.14 314.9 199.281 319.331 200.95C321.91 201.95 324.331 204.121 326.61 205.65L334.26 210.8C335.35 211.531 336.581 212.3 337.881 212.1C339.6 211.821 340.61 209.931 340.69 208.2C340.729 207.365 340.583 206.532 340.262 205.761C339.94 204.99 339.451 204.3 338.831 203.74C339.599 203.21 340.428 202.774 341.3 202.44C341.332 202.432 341.362 202.415 341.389 202.394C341.415 202.372 341.436 202.346 341.451 202.317C341.467 202.286 341.475 202.253 341.476 202.219C341.478 202.185 341.472 202.151 341.46 202.121C341.443 202.065 341.407 202.018 341.361 201.986C341.314 201.954 341.257 201.938 341.2 201.94Z" fill="#263238"/>
<path d="M280.519 198.69L258.881 205.19C258.765 205.215 258.646 205.215 258.531 205.19L256.531 205L257.931 203.75C258.019 203.669 258.125 203.608 258.24 203.571L279.76 196.431C279.979 196.358 280.217 196.374 280.426 196.472C280.635 196.571 280.797 196.746 280.881 196.96L281.069 197.46C281.124 197.576 281.153 197.703 281.154 197.831C281.156 197.958 281.129 198.085 281.076 198.201C281.025 198.318 280.947 198.422 280.851 198.507C280.756 198.59 280.643 198.654 280.519 198.69Z" fill="#263238"/>
<path d="M269.76 201.919L264.731 200.831L263.36 201.919L268.85 205.89L269.76 201.919Z" fill="#FFB573"/>
<path d="M117.91 112.06C116.66 112.183 115.453 112.585 114.379 113.236C113.304 113.886 112.389 114.77 111.7 115.82C110.345 117.937 109.563 120.37 109.43 122.88C109.205 124.825 109.431 126.796 110.09 128.64C110.428 129.557 110.96 130.389 111.651 131.08C112.341 131.77 113.174 132.303 114.09 132.64C116.57 133.44 119.37 132.29 121.15 130.38C122.839 128.358 124.013 125.956 124.57 123.38C125.88 118.72 124 111.72 117.91 112.06Z" fill="#263238"/>
<path d="M149.4 417.41C143.79 417.869 139.731 415.36 138.57 412.71C137.41 410.06 135.5 407.39 135.25 409.86C135.137 412.376 135.173 414.897 135.36 417.41L134.49 417.5C134.49 417.5 133.49 409.26 133.14 405.581C132.97 404.411 132.88 403.232 132.87 402.05C133.032 401.419 133.32 400.828 133.717 400.313C134.114 399.797 134.612 399.367 135.18 399.05L142.02 400.05C146.15 410.581 152.81 413.519 152.81 413.519C154.128 413.792 155.39 414.278 156.55 414.96C158.57 416.281 155.94 416.85 149.4 417.41Z" fill="#263238"/>
<path d="M135.55 402.4C136.457 404.471 137.891 406.267 139.71 407.61C141.119 408.56 141.819 412.91 145.05 414.081C146.308 414.561 147.66 414.753 149.003 414.643C150.346 414.532 151.647 414.121 152.81 413.44C152.81 413.44 146.16 410.5 142 400C142 400 135.05 400.731 135.55 402.4Z" fill="#FFB573"/>
<path d="M112.45 416.769C107.14 414.969 104.45 411.04 104.45 408.16C104.45 405.281 103.75 402.04 102.54 404.16C101.432 406.433 100.461 408.771 99.63 411.16L98.8101 410.91C98.8101 410.91 101.18 402.91 102.3 399.45C102.612 398.308 102.999 397.19 103.46 396.1C103.86 395.582 104.36 395.15 104.93 394.828C105.501 394.507 106.13 394.304 106.78 394.231L112.66 397.81C112.27 409.11 117.21 414.46 117.21 414.46C118.31 415.235 119.273 416.189 120.06 417.281C121.26 419.431 118.62 418.9 112.45 416.769Z" fill="#263238"/>
<path d="M105.71 397.519C105.72 399.783 106.327 402.006 107.47 403.96C108.37 405.381 107.29 409.66 109.78 412.01C110.743 412.954 111.907 413.671 113.184 414.106C114.462 414.54 115.82 414.682 117.16 414.519C117.16 414.519 112.16 409.169 112.61 397.869C112.61 397.869 105.83 395.81 105.71 397.519Z" fill="#FFB573"/>
<path d="M161.719 171.1L162.069 171.519L162.531 172.04C162.86 172.39 163.181 172.76 163.531 173.11C164.219 173.831 164.969 174.519 165.719 175.24C167.244 176.638 168.84 177.957 170.5 179.19C172.19 180.44 173.96 181.6 175.75 182.74C176.75 183.269 177.569 183.84 178.51 184.36L180.681 185.56C180.996 185.699 181.35 185.721 181.681 185.619C182.381 185.41 186.4 181.431 187.681 179.96C190.51 176.7 196.281 171.731 198.59 168.081L199.769 172.36C198.142 176.819 195.975 181.064 193.319 185C191.881 187.121 190.167 189.042 188.219 190.71C187.043 191.697 185.717 192.49 184.29 193.06C182.006 193.979 179.451 193.961 177.181 193.01L176.29 192.61L174.669 191.881C173.569 191.39 172.531 190.819 171.469 190.281C169.346 189.153 167.285 187.907 165.3 186.55C163.303 185.178 161.386 183.692 159.56 182.1C158.626 181.283 157.735 180.418 156.89 179.51C156.45 179.069 156.019 178.59 155.6 178.11L154.969 177.35C154.75 177.06 154.581 176.85 154.26 176.419L161.719 171.1Z" fill="#FFB573"/>
<path d="M198.6 168.081L207.91 162.31L207.29 171.381C207.29 171.381 202.11 173.99 199.47 172.25L198.6 168.081Z" fill="#FFB573"/>
<path d="M214.531 161.71L215.169 169.31L207.29 171.369L207.91 162.31L214.531 161.71Z" fill="#FFB573"/>
<path d="M256.644 120.019L202.558 174.713L203.269 175.415L257.356 120.722L256.644 120.019Z" fill="#263238"/>
<path d="M207 169.629L208.46 169.79C209.204 169.864 209.954 169.836 210.69 169.71L211.369 169.11C211.381 168.839 211.303 168.572 211.147 168.35C210.992 168.128 210.768 167.962 210.51 167.879L209.431 167.529L204.681 164.919L203.331 166.76V169.669L203.781 169.99C204.269 170.328 204.865 170.478 205.457 170.411C206.049 170.346 206.597 170.068 207 169.629Z" fill="#FFB573"/>
<path d="M152.31 161.41C156.06 160.731 182.51 183.669 182.51 183.669L174.669 195.169C174.669 195.169 145.74 175.031 146.669 170.169C147.55 165.1 146.84 162.41 152.31 161.41Z" fill="#263238"/>
<path opacity="0.2" d="M155.64 168.79L155.36 180.79C158.36 183.119 169.2 191.431 169.2 191.431L155.64 168.79Z" fill="black"/>
<path d="M135.55 402.4L143.26 402.769L146.36 380.069L137.49 379.19L135.55 402.4Z" fill="#FFB573"/>
<path opacity="0.2" d="M146.36 380.069L144.91 390.669L136.6 389.86L137.48 379.2L146.36 380.069Z" fill="black"/>
<path d="M105.71 397.519L112.69 398.84L115.5 378.269L106.63 377.4L105.71 397.519Z" fill="#FFB573"/>
<path opacity="0.2" d="M115.5 378.6L113.99 389.66L106.14 388.44L106.62 377.731L115.5 378.6Z" fill="black"/>
<path d="M151.669 213.66H145.06L118.25 213.731C118.79 199.85 118.73 188.621 112.8 161.321C112.652 160.647 112.657 159.95 112.814 159.279C112.971 158.608 113.275 157.981 113.706 157.443C114.136 156.906 114.681 156.471 115.301 156.171C115.922 155.871 116.601 155.714 117.29 155.71C120.06 155.71 123.53 155.81 127.05 156.171C132.618 156.622 138.147 157.457 143.6 158.671L144.231 158.821C146.968 159.528 149.667 160.386 152.31 161.39C154.019 161.981 156.1 166.65 157.969 171.99C163 180.621 156.85 187.9 151.669 213.66Z" fill="white"/>
<path d="M152.91 215.4C152.91 215.4 171.669 269.671 171.219 295.76C170.96 310.71 169.84 338.571 165.331 358.16C161.65 374.16 146.65 384.36 146.65 384.36L134.65 383.65C134.65 383.65 128.16 359.25 129.29 349.54C131.54 330.221 138.2 315.69 137.4 297.95C136.12 268.881 127.52 214.95 127.52 214.95L152.91 215.4Z" fill="#C2410C"/>
<path opacity="0.2" d="M131.77 372.4C131.77 372.4 131.77 372.29 131.85 372.29C142.56 372.29 154.85 347.29 154.26 303.081L149.36 266L131.77 372.4Z" fill="black"/>
<path d="M143.3 215.54C143.3 215.54 154.71 275.221 151.1 301.071C149.04 315.881 144.55 343.39 137.7 362.3C132.12 377.721 116 386.05 116 386.05L104.14 383.89C104.14 383.89 100.65 358.89 102.94 349.381C107.51 330.471 115.94 316.85 117.23 299.14C119.47 270.14 117.46 215.54 117.46 215.54H143.3Z" fill="#C2410C"/>
<path d="M132.23 386.781L149.181 387.79L150.731 382.69L131.79 380.94L132.23 386.781Z" fill="#263238"/>
<path d="M103.14 385.21L119.88 388.031L121.97 383.131L103.32 379.36L103.14 385.21Z" fill="#263238"/>
<path d="M118.12 212.05L117.2 215.3C117.07 215.56 117.37 215.81 117.79 215.81L152.281 215.76C152.61 215.76 152.89 215.6 152.91 215.4L153.231 212.14C153.231 211.921 152.96 211.731 152.6 211.731L118.71 211.781C118.597 211.769 118.483 211.789 118.379 211.836C118.275 211.883 118.186 211.957 118.12 212.05Z" fill="#C2410C"/>
<g opacity="0.5">
<path d="M118.12 212.05L117.2 215.3C117.07 215.56 117.37 215.81 117.79 215.81L152.281 215.76C152.61 215.76 152.89 215.6 152.91 215.4L153.231 212.14C153.231 211.921 152.96 211.731 152.6 211.731L118.71 211.781C118.597 211.769 118.483 211.789 118.379 211.836C118.275 211.883 118.186 211.957 118.12 212.05Z" fill="white"/>
</g>
<path d="M124.71 216.11H123.71C123.53 216.11 123.37 216.01 123.39 215.89L123.84 211.66C123.84 211.54 124.02 211.44 124.22 211.44H125.22C125.41 211.44 125.57 211.54 125.55 211.669L125.1 215.89C125.07 216 124.9 216.11 124.71 216.11Z" fill="#C2410C"/>
<path d="M149.61 216.11H148.61C148.419 216.11 148.269 216.01 148.281 215.89L148.731 211.669C148.731 211.54 148.919 211.44 149.11 211.44H150.11C150.3 211.44 150.45 211.54 150.44 211.66L149.99 215.881C150 216 149.81 216.11 149.61 216.11Z" fill="#C2410C"/>
<path d="M138.21 216.079H137.21C137.02 216.079 136.87 215.979 136.89 215.86L137.34 211.64C137.34 211.51 137.52 211.41 137.71 211.419H138.71C138.9 211.419 139.06 211.519 139.04 211.64L138.59 215.86C138.57 216 138.41 216.09 138.21 216.079Z" fill="#C2410C"/>
<path d="M128.61 138C129.67 143.44 130.71 153.279 127.02 156.25C127.02 156.25 128.49 161.829 138.38 163.319C149.3 164.969 143.569 158.75 143.569 158.75C137.63 156.39 137.77 152.1 138.8 148.14L128.61 138Z" fill="#FFB573"/>
<path opacity="0.2" d="M132.76 142.129L138.76 148.129C138.51 149.057 138.342 150.004 138.26 150.96C135.99 150.3 132.33 147.79 132.08 145.39C132.084 144.268 132.315 143.16 132.76 142.129Z" fill="black"/>
<path d="M121.94 131.1C124.61 139.569 125.56 143.21 131.04 146.54C139.231 151.54 149.04 146.41 148.95 137.33C148.87 129.15 144.52 116.69 135.22 115.33C133.179 115.026 131.094 115.249 129.163 115.978C127.232 116.707 125.52 117.918 124.189 119.495C122.858 121.072 121.953 122.964 121.559 124.99C121.166 127.016 121.297 129.109 121.94 131.07V131.1Z" fill="#FFB573"/>
<path d="M142.119 129.78C143.067 131.267 144.218 132.613 145.54 133.78C145.232 134.112 144.854 134.373 144.435 134.546C144.015 134.719 143.564 134.798 143.11 134.78L142.119 129.78Z" fill="#ED893E"/>
<path d="M141.169 139.3C141.508 139.267 141.843 139.203 142.169 139.11C142.196 139.104 142.219 139.093 142.242 139.078C142.263 139.062 142.281 139.043 142.294 139.021C142.308 138.999 142.318 138.974 142.322 138.949C142.326 138.922 142.326 138.896 142.319 138.87C142.306 138.817 142.272 138.771 142.226 138.742C142.179 138.712 142.124 138.701 142.069 138.71C141.208 138.957 140.299 138.996 139.419 138.821C138.539 138.647 137.714 138.267 137.01 137.71C136.969 137.672 136.916 137.651 136.86 137.651C136.804 137.651 136.751 137.672 136.71 137.71C136.671 137.753 136.65 137.808 136.65 137.865C136.65 137.923 136.671 137.978 136.71 138.02C137.331 138.519 138.046 138.889 138.811 139.108C139.576 139.329 140.379 139.393 141.169 139.3Z" fill="#263238"/>
<path d="M117.33 118.25C116.228 118.965 115.313 119.934 114.662 121.075C114.012 122.216 113.644 123.497 113.59 124.81C113.544 125.308 113.623 125.81 113.82 126.27C113.919 126.499 114.076 126.699 114.276 126.848C114.476 126.997 114.712 127.091 114.96 127.12C115.72 127.12 116.29 126.45 116.7 125.81L118.64 122.81C119.439 121.832 120.111 120.757 120.64 119.61C121.29 117.64 118.52 117.5 117.33 118.25Z" fill="#C2410C"/>
<path d="M120 116.21C114.68 122.34 112.31 139.329 127.86 144.069C130.46 142.069 126.26 138.27 124.48 133.53C123.32 130.42 129.24 124.63 131.56 122.26C133.88 119.89 135.99 116.45 139.26 117C140.089 117.272 140.978 117.296 141.82 117.07C144.41 115.9 143.15 114.35 141.82 113.26C139.761 111.751 137.317 110.856 134.77 110.68C132.046 110.366 129.287 110.703 126.719 111.665C124.151 112.626 121.848 114.184 120 116.21Z" fill="#263238"/>
<path d="M123.34 134L122.91 133.54C122.91 133.04 122.91 133.04 131.59 130.31L131.89 131.31C128.89 132.24 124.04 133.78 123.66 133.97L123.45 133.53L123.34 134Z" fill="#C2410C"/>
<path d="M121 138.21C121.979 139.621 123.473 140.59 125.16 140.91C127.4 141.31 128.27 139.25 127.49 137.25C126.77 135.46 124.73 133.08 122.57 133.6C122.2 133.694 121.851 133.861 121.545 134.09C121.239 134.319 120.982 134.606 120.787 134.935C120.592 135.264 120.463 135.628 120.409 136.006C120.355 136.384 120.375 136.77 120.47 137.14C120.575 137.528 120.755 137.891 121 138.21Z" fill="#FFB573"/>
<path d="M136.17 114.68C137.38 117.75 140.87 117.35 143.46 120.57C145.04 122.57 148.16 116.4 143.92 113.96C139.681 111.52 134.28 109.86 136.17 114.68Z" fill="#263238"/>
<path d="M132.5 127.67C132.587 127.685 132.676 127.669 132.753 127.625C132.83 127.582 132.889 127.512 132.92 127.43C133.75 125.6 136.21 125.15 136.23 125.14C136.284 125.13 136.337 125.11 136.383 125.08C136.43 125.05 136.47 125.011 136.502 124.966C136.534 124.92 136.556 124.869 136.568 124.815C136.579 124.76 136.58 124.704 136.57 124.65C136.546 124.54 136.481 124.444 136.388 124.38C136.295 124.317 136.181 124.292 136.07 124.31C135.95 124.31 133.14 124.9 132.15 127.1C132.126 127.15 132.113 127.204 132.11 127.259C132.107 127.314 132.115 127.369 132.134 127.421C132.152 127.473 132.181 127.521 132.218 127.562C132.255 127.603 132.3 127.636 132.35 127.66H132.5V127.67Z" fill="#263238"/>
<path d="M145.5 124C145.593 124.007 145.685 123.982 145.763 123.931C145.839 123.879 145.897 123.803 145.928 123.715C145.957 123.627 145.957 123.532 145.926 123.444C145.896 123.356 145.838 123.281 145.76 123.23C145.206 122.851 144.569 122.609 143.904 122.524C143.238 122.438 142.561 122.513 141.931 122.74C141.825 122.784 141.743 122.868 141.7 122.973C141.657 123.077 141.657 123.195 141.7 123.3C141.721 123.353 141.751 123.4 141.792 123.44C141.832 123.48 141.879 123.512 141.932 123.532C141.985 123.553 142.04 123.562 142.097 123.56C142.154 123.558 142.21 123.545 142.26 123.52C142.758 123.349 143.289 123.297 143.81 123.37C144.332 123.443 144.828 123.638 145.26 123.94C145.335 123.977 145.417 123.998 145.5 124Z" fill="#263238"/>
<path d="M186.61 178.74L180.76 182.069L174.669 195.169C174.669 195.169 180.55 198.91 185.181 195.881C189.81 192.85 186.61 178.74 186.61 178.74Z" fill="#263238"/>
<path d="M145.09 127.39C145.569 127.3 146.09 127.84 146.2 128.58C146.31 129.32 146.04 130 145.56 130.08C145.08 130.16 144.56 129.63 144.45 128.89C144.34 128.15 144.61 127.48 145.09 127.39Z" fill="#263238"/>
<path d="M146.569 126.66L144.881 127.49C145.9 128.21 146.569 126.66 146.569 126.66Z" fill="#263238"/>
<path d="M136.72 129.1C137.2 129.01 137.72 129.55 137.83 130.29C137.94 131.03 137.67 131.71 137.19 131.79C136.71 131.87 136.19 131.34 136.08 130.6C135.97 129.86 136.24 129.19 136.72 129.1Z" fill="#263238"/>
<path d="M138.2 128.37L136.51 129.2C137.53 129.92 138.2 128.37 138.2 128.37Z" fill="#263238"/>
<path d="M111.91 114.4C111.99 112.47 112.91 110.15 111.74 108.64C113.83 110.33 113.41 111.3 113.59 111.79C113.473 110.143 113.092 108.526 112.46 107C113.806 108.077 114.692 109.625 114.94 111.33C114.735 109.585 114.34 107.868 113.76 106.21C115.462 107.785 116.49 109.956 116.63 112.27C116.63 111.21 116.63 110.16 116.56 109.1C116.982 110.133 117.287 111.209 117.47 112.31C117.613 113.457 117.566 114.619 117.33 115.75C117.203 116.876 116.648 117.911 115.78 118.64C115.339 118.989 114.807 119.201 114.247 119.251C113.687 119.301 113.125 119.186 112.63 118.92C110.23 117.44 111.84 116.14 111.91 114.4Z" fill="#263238"/>
<path d="M138.07 133.58C137.934 133.589 137.797 133.589 137.66 133.58L132.98 132.69C132.552 132.611 132.158 132.404 131.849 132.097C131.54 131.79 131.332 131.397 131.25 130.97C131.141 130.407 131.256 129.823 131.572 129.344C131.888 128.866 132.379 128.53 132.94 128.41L138.94 127.14C139.464 127.028 140.01 127.114 140.475 127.379C140.939 127.645 141.29 128.072 141.46 128.58L141.55 128.84C141.661 129.175 141.689 129.533 141.629 129.882C141.571 130.231 141.426 130.56 141.21 130.84L139.76 132.74C139.56 132.998 139.304 133.209 139.011 133.354C138.719 133.5 138.397 133.577 138.07 133.58ZM139.431 128.06C139.35 128.05 139.27 128.05 139.19 128.06L133.19 129.33C132.887 129.395 132.622 129.575 132.45 129.833C132.278 130.091 132.214 130.405 132.27 130.71C132.313 130.943 132.426 131.158 132.594 131.326C132.762 131.494 132.977 131.607 133.21 131.65L137.89 132.54C138.106 132.58 138.329 132.56 138.534 132.48C138.739 132.401 138.918 132.265 139.05 132.09L140.5 130.19C140.618 130.037 140.697 129.858 140.728 129.668C140.76 129.477 140.743 129.282 140.681 129.1L140.59 128.84C140.507 128.602 140.349 128.398 140.139 128.258C139.931 128.117 139.682 128.048 139.431 128.06Z" fill="#C2410C"/>
<path d="M146.16 131.17C145.94 131.167 145.721 131.134 145.51 131.07L143.231 130.36C142.888 130.253 142.578 130.064 142.325 129.809C142.072 129.555 141.885 129.243 141.781 128.9L141.71 128.64C141.556 128.129 141.594 127.578 141.819 127.093C142.044 126.608 142.44 126.223 142.931 126.01L147.59 124.24C148.115 124.018 148.708 124.011 149.239 124.22C149.769 124.43 150.197 124.839 150.431 125.36C150.612 125.756 150.669 126.197 150.594 126.626C150.519 127.055 150.315 127.45 150.01 127.76L147.75 130.47C147.547 130.69 147.301 130.865 147.028 130.986C146.754 131.106 146.458 131.169 146.16 131.17ZM148.44 125.07C148.279 125.07 148.119 125.101 147.969 125.16L143.31 126.94C143.05 127.057 142.84 127.264 142.721 127.523C142.601 127.783 142.579 128.076 142.66 128.35L142.74 128.61C142.796 128.795 142.896 128.964 143.032 129.102C143.168 129.239 143.336 129.342 143.519 129.4L145.8 130.11C146.01 130.179 146.236 130.187 146.45 130.132C146.665 130.077 146.858 129.962 147.01 129.8L149.269 127.1C149.442 126.93 149.558 126.712 149.603 126.474C149.647 126.237 149.618 125.991 149.519 125.77C149.428 125.562 149.275 125.384 149.083 125.26C148.892 125.136 148.668 125.07 148.44 125.07Z" fill="#C2410C"/>
<path d="M115.78 226.41C115.938 228.528 116.462 230.601 117.33 232.54C119.19 236.11 123.33 238.06 127.33 238.421C131.33 238.781 135.33 237.79 139.24 236.81C138.78 217.031 138.32 197.2 135.77 177.581C134.77 169.86 131.21 157.681 128.87 153.35C128.87 153.35 111.71 154.871 107.58 158.84C103.15 163.1 108.58 170.46 109.23 175.84C111.403 192.7 113.587 209.557 115.78 226.41Z" fill="#263238"/>
<path d="M156.631 211.41L158.381 227.75C158.587 229.726 158.031 231.707 156.824 233.286C155.617 234.864 153.851 235.922 151.89 236.24L146.89 237.04C146.36 222.49 146.04 197.04 146.04 187.9C146.04 175.04 143.281 164.9 141.46 157.681C145.59 158.681 149.46 160.481 152.29 161.41C154 162 156.669 166.571 158.54 171.91C163.631 180.521 157 198.56 156.631 211.41Z" fill="#263238"/>
<path d="M87.8699 196.46L102.69 196.8L102.2 195.7C101.803 194.813 101.669 193.831 101.814 192.869C101.96 191.908 102.378 191.01 103.02 190.279C108.42 184.16 122.02 168.4 121.93 165.36C121.71 161.04 117.16 158.11 112.01 158.21C108.21 158.29 97.6399 174.9 91.1999 183.14C85.5099 190.44 87.8699 196.46 87.8699 196.46Z" fill="#263238"/>
<path d="M98.7301 197.4C106.124 203.289 112.746 210.086 118.44 217.631L121.5 221.069L116 224.669C116 224.669 98.6001 212.84 94.5401 208.35C92.0659 205.575 90.2809 202.254 89.3301 198.66L98.7301 197.4Z" fill="#FFB573"/>
<path d="M106.7 202.74L102.55 196.85L87.55 195.16C87.55 195.16 84.69 201.769 90.99 205.61C95.71 208.49 106.7 202.74 106.7 202.74Z" fill="#263238"/>
<path d="M114 216.64L124.46 219.881L117.2 225.35C117.2 225.35 111.84 223.15 111.42 220.021L114 216.64Z" fill="#FFB573"/>
<path d="M129.23 224.5L123.91 229.96L117.19 225.35L124.44 219.879L129.23 224.5Z" fill="#FFB573"/>
</svg>
