<svg width="50" height="50" viewBox="0 0 50 50" fill="none" xmlns="http://www.w3.org/2000/svg">
<g clip-path="url(#clip0_271_5478)">
<rect width="50" height="50" rx="25" fill="#DBEAFE"/>
<path d="M60.8503 46.3227C60.1822 43.9439 58.8076 41.824 56.9085 40.2435C54.4377 38.1856 51.2786 37.193 48.4744 35.6351C45.6703 34.0773 42.9966 31.5195 42.8879 28.3096C42.9194 27.2126 43.0381 26.1199 43.243 25.0418C43.4463 23.2532 43.284 21.442 42.7658 19.7181C42.2477 17.9942 41.3845 16.3936 40.2287 15.0136C38.8375 13.376 37.0043 12.0066 36.258 9.99224L27.8384 2.34792C25.8169 1.85318 23.7022 1.88658 21.6973 2.4449C19.6924 3.00321 17.8648 4.06769 16.39 5.53607C13.796 8.17354 12.5787 11.8617 11.7817 15.4773C9.50653 25.8098 10.1152 36.9973 14.8757 46.4531C15.1921 47.1744 15.6533 47.823 16.2306 48.3587C16.917 48.8818 17.7294 49.2143 18.5855 49.3224C21.9983 49.8731 25.469 49.0109 28.9253 48.8442C37.3521 48.4312 45.4022 52.1483 53.7711 53.1917C56.0463 53.4743 58.6983 53.4091 60.1619 51.6483C61.372 50.1847 61.3357 48.0979 60.8503 46.3227Z" fill="#263238"/>
<path d="M8.44151 59.3796L2 45.9387C4.89832 41.5912 19.2595 38.2798 19.2595 38.2798L28.679 38.8015C28.679 38.8015 32.3019 39.6131 35.4249 40.6275C39.5767 41.9825 41.8229 43.0693 42.8156 45.3735C42.8156 45.3735 44.8009 50.5108 43.5039 61.0099C43.1489 63.9082 42.178 80.704 44.8227 85.5297L44.7719 86.8629C27.4907 100.318 12.8904 98.0649 12.8904 98.0649C13.6657 95.6883 13.615 87.8556 13.9411 85.5297C13.6875 82.5662 13.7962 80.3127 12.5426 75.1247C12.2963 74.1248 8.84003 60.3506 8.44151 59.3796Z" fill="#EBB373"/>
<path d="M16.89 39.7797C19.3456 41.0982 21.6408 42.6956 23.7301 44.5402C24.5173 45.2216 25.3804 45.81 26.3023 46.2937C28.7731 47.6052 31.0266 48.3587 31.6425 47.1704C31.7763 46.8998 31.8807 46.6156 31.9541 46.3227C32.4758 44.3228 32.2656 41.5187 30.6498 40.229C28.8311 38.7798 27.9471 37.5408 28.2804 35.5844C28.488 34.4202 28.8384 33.2862 29.3238 32.2079L27.2226 30.9471L19.7304 23.3825C20.5854 28.0198 20.839 37.0408 16.89 39.7797Z" fill="#EBB373"/>
<path opacity="0.2" d="M28.2152 36.0119C26.1574 34.7873 23.8677 32.6643 24.1648 30.2152C24.2565 29.3256 24.4536 28.45 24.7517 27.6068L28.9398 33.1498C28.5959 34.0749 28.3529 35.0345 28.2152 36.0119Z" fill="black"/>
<path d="M18.2739 14.8542C18.9985 22.5565 19.1144 25.8171 23.0924 29.8602C29.0702 35.9322 38.2578 33.8889 39.8447 26.2373C41.2938 19.3683 39.8447 7.9272 32.3163 4.69557C24.8676 1.50017 17.5711 7.15914 18.2739 14.8542Z" fill="#EBB373"/>
<path d="M28.266 16.912C27.9979 17.68 28.1501 18.4626 28.6138 18.6655C29.0776 18.8683 29.679 18.4046 29.9543 17.6365C30.2297 16.8685 30.0702 16.0859 29.6065 15.8831C29.1428 15.6802 28.5414 16.1439 28.266 16.912Z" fill="#263238"/>
<path d="M35.9175 17.2163C35.7073 17.9771 35.9175 18.7307 36.3957 18.8973C36.8739 19.064 37.4318 18.5858 37.642 17.825C37.8521 17.0642 37.642 16.3106 37.1638 16.1439C36.6855 15.9773 36.1348 16.4555 35.9175 17.2163Z" fill="#263238"/>
<path d="M26.6429 14.5425C26.7424 14.5497 26.8409 14.5186 26.9183 14.4556C27.247 14.1328 27.6512 13.8974 28.0942 13.7708C28.5371 13.6443 29.0047 13.6306 29.4543 13.731C29.5005 13.7451 29.5491 13.7495 29.597 13.7438C29.6449 13.7381 29.6912 13.7225 29.7328 13.6979C29.7743 13.6734 29.8103 13.6405 29.8385 13.6013C29.8667 13.562 29.8863 13.5174 29.8963 13.4702C29.9168 13.3705 29.8991 13.2668 29.8468 13.1796C29.7945 13.0924 29.7113 13.028 29.6137 12.9992C29.0488 12.86 28.458 12.8654 27.8957 13.0148C27.3334 13.1643 26.8179 13.4529 26.3966 13.8542C26.3266 13.9259 26.2875 14.0221 26.2875 14.1223C26.2875 14.2224 26.3266 14.3187 26.3966 14.3904C26.4581 14.4687 26.5454 14.5226 26.6429 14.5425Z" fill="#263238"/>
<path d="M38.3956 14.289C38.4356 14.2767 38.4721 14.2553 38.5023 14.2263C38.5325 14.1974 38.5555 14.1618 38.5695 14.1224C38.602 14.0313 38.6008 13.9316 38.5663 13.8412C38.5317 13.7509 38.4661 13.6758 38.3811 13.6296C37.9227 13.3282 37.3939 13.151 36.8464 13.1154C36.299 13.0799 35.7517 13.1871 35.2581 13.4268C35.221 13.4534 35.1895 13.4871 35.1654 13.5259C35.1413 13.5647 35.1251 13.6079 35.1177 13.653C35.1103 13.6981 35.1119 13.7442 35.1223 13.7887C35.1327 13.8331 35.1518 13.8751 35.1784 13.9122C35.2219 13.9957 35.296 14.059 35.3853 14.0887C35.4745 14.1185 35.5719 14.1124 35.6567 14.0716C36.0502 13.8891 36.4841 13.8105 36.9167 13.8435C37.3492 13.8765 37.7661 14.0199 38.1275 14.26C38.1675 14.2837 38.2122 14.2985 38.2584 14.3035C38.3046 14.3085 38.3514 14.3036 38.3956 14.289Z" fill="#263238"/>
<path d="M33.8018 16.9627C34.4968 18.6054 35.3561 20.1737 36.3668 21.6435C36.422 21.7172 36.4592 21.803 36.4751 21.8938C36.4911 21.9846 36.4854 22.0779 36.4586 22.1661C36.4318 22.2543 36.3846 22.335 36.3208 22.4015C36.257 22.4681 36.1784 22.5187 36.0914 22.5492C35.4165 22.7415 34.7013 22.7415 34.0264 22.5492L33.8018 16.9627Z" fill="#E4873E"/>
<path d="M29.3239 15.8033L31.1208 16.0859C31.1208 16.0859 29.7224 16.9409 29.3239 15.8033Z" fill="#263238"/>
<path d="M36.9898 16.1005L38.794 16.2599C38.794 16.2599 37.4608 17.2091 36.9898 16.1005Z" fill="#263238"/>
<path d="M20.9477 17.5133C20.9477 17.5133 24.9184 11.5356 24.7155 6.69536C24.7155 6.69536 32.3164 4.71726 38.3811 12.8108C39.3448 14.1006 39.9244 16.2526 40.7867 18.1075C40.7867 18.1075 42.2358 3.46374 29.2369 2.26094C16.2379 1.05813 13.7091 19.3103 20.042 25.4475C20.0347 25.4475 18.4914 21.2594 20.9477 17.5133Z" fill="#263238"/>
<path d="M15.9481 21.129C16.7613 22.5522 18.106 23.5946 19.6869 24.0274C21.7302 24.5346 22.7809 21.2595 22.0853 19.2234C21.7572 18.3041 21.1126 17.5317 20.2669 17.0444C19.4211 16.5571 18.4295 16.3869 17.4697 16.5642C15.5206 16.9772 14.9047 19.3248 15.9481 21.129Z" fill="#EBB373"/>
<path opacity="0.2" d="M20.2521 20.9044C20.2052 20.9044 20.1602 20.8864 20.1265 20.8539C20.0927 20.8215 20.0728 20.7773 20.0709 20.7305C20.0244 20.0402 19.7062 19.3964 19.1861 18.9401C18.666 18.4838 17.9863 18.2522 17.2958 18.2959C17.2591 18.2929 17.2242 18.2789 17.1957 18.2556C17.1673 18.2323 17.1465 18.2008 17.1364 18.1655C17.1344 18.1417 17.1371 18.1177 17.1444 18.095C17.1518 18.0722 17.1635 18.0512 17.179 18.033C17.1945 18.0148 17.2134 17.9999 17.2347 17.989C17.256 17.9782 17.2792 17.9717 17.303 17.9699C18.0897 17.9202 18.8639 18.1844 19.4561 18.7046C20.0483 19.2248 20.4101 19.9585 20.4622 20.745C20.4642 20.7688 20.4614 20.7928 20.4541 20.8155C20.4468 20.8382 20.4351 20.8593 20.4196 20.8775C20.4041 20.8957 20.3851 20.9106 20.3639 20.9215C20.3426 20.9323 20.3194 20.9388 20.2955 20.9406L20.2521 20.9044Z" fill="black"/>
<path d="M31.5338 25.0925C30.986 25.08 30.4539 24.9072 30.0032 24.5956C29.5525 24.284 29.203 23.8471 28.9978 23.339C28.9834 23.2938 28.9866 23.2448 29.0067 23.2018C29.0269 23.1588 29.0625 23.125 29.1065 23.1072C29.1517 23.0927 29.2007 23.0959 29.2437 23.116C29.2867 23.1362 29.3205 23.1718 29.3384 23.2158C29.5504 23.7614 29.9552 24.2102 30.476 24.4773C30.9968 24.7444 31.5975 24.8112 32.1642 24.665C32.1871 24.6597 32.2108 24.6591 32.2339 24.6632C32.257 24.6673 32.279 24.6761 32.2987 24.689C32.3183 24.7018 32.3351 24.7185 32.3481 24.7381C32.3612 24.7576 32.3701 24.7796 32.3744 24.8027C32.3796 24.8255 32.3802 24.8492 32.3761 24.8723C32.372 24.8955 32.3632 24.9175 32.3504 24.9371C32.3375 24.9568 32.3208 24.9736 32.3013 24.9866C32.2817 24.9996 32.2598 25.0085 32.2367 25.0128C32.0062 25.0659 31.7704 25.0926 31.5338 25.0925Z" fill="#263238"/>
<path d="M7.514 60.2347L2.18109 45.3373C6.13005 41.3304 16.4263 39.0117 16.4263 39.0117L20.6434 43.2288C21.5761 44.1562 22.6999 44.8691 23.9363 45.3179C25.1727 45.7667 26.492 45.9406 27.8025 45.8275C29.113 45.7144 30.383 45.317 31.5242 44.6629C32.6654 44.0089 33.6504 43.114 34.4104 42.0405L35.4103 40.6275C39.5622 41.9825 41.0258 42.6274 44.3444 45.4605C44.3444 45.4605 44.7864 50.5325 43.4894 61.01C43.1343 63.9083 42.1634 80.704 44.8081 85.5297L44.7574 86.863C27.4762 100.318 12.8759 98.065 12.8759 98.065C13.6512 95.6884 13.4773 87.4426 13.8323 85.124C13.5787 82.1605 13.7816 80.3128 12.5281 75.1248C12.2962 74.1249 7.93426 61.2056 7.514 60.2347Z" fill="#D946EF"/>
<path d="M20.7086 24.4476C20.7086 24.7901 20.607 25.1249 20.4167 25.4097C20.2264 25.6945 19.956 25.9164 19.6395 26.0475C19.3231 26.1786 18.9749 26.2129 18.639 26.146C18.3031 26.0792 17.9945 25.9143 17.7523 25.6721C17.5101 25.4299 17.3452 25.1213 17.2784 24.7854C17.2115 24.4495 17.2458 24.1013 17.3769 23.7849C17.508 23.4684 17.7299 23.198 18.0147 23.0077C18.2995 22.8174 18.6343 22.7158 18.9768 22.7158C19.4361 22.7158 19.8766 22.8983 20.2014 23.223C20.5261 23.5478 20.7086 23.9883 20.7086 24.4476Z" fill="#D946EF"/>
</g>
<defs>
<clipPath id="clip0_271_5478">
<rect width="50" height="50" rx="25" fill="white"/>
</clipPath>
</defs>
</svg>
