<svg width="50" height="50" viewBox="0 0 50 50" fill="none" xmlns="http://www.w3.org/2000/svg">
<g clip-path="url(#clip0_271_5498)">
<rect width="50" height="50" rx="25" fill="#DBEAFE"/>
<path d="M42.8034 40.3457C42.68 40.4922 42.549 40.6386 42.4103 40.7774C45.2235 44.1918 41.1462 47.0513 40.0132 47.3905C39.1498 47.6607 38.2511 47.801 37.3464 47.8067C33.0687 47.8683 29.9856 44.8547 28.3131 43.3363C25.9083 41.1473 27.1261 35.436 26.1473 32.1371C24.8678 27.8209 23.2955 17.4927 27.7427 10.9259C29.8623 7.84283 31.4809 6.8023 31.4809 6.8023C33.4926 5.43035 36.1055 5.69241 38.2096 6.92562C40.3138 8.15884 41.863 10.2399 43.1502 12.452C45.4895 16.3844 46.8827 20.8067 47.2198 25.3699C47.4973 29.6784 45.9943 30.7652 44.6532 33.1777C44.6532 33.1777 44.6532 33.2316 44.6532 33.2625C44.8844 35.7905 44.3449 38.5267 42.8034 40.3457Z" fill="#263238"/>
<path d="M49.9792 79.8702C45.0926 71.3919 40.1829 62.9135 36.6374 53.7955C35.9514 52.0227 35.304 50.1035 35.7202 48.246C36.1364 46.3885 36.9611 44.9549 38.8032 45.5406C44.4529 47.3519 47.2816 53.6105 50.6883 59.4143C53.6789 64.5321 54.2723 67.3994 58.0722 71.9545C58.0413 71.9545 53.9949 79.77 49.9792 79.8702Z" fill="#FFB573"/>
<g opacity="0.1">
<path d="M49.9792 79.8702C45.0926 71.3919 40.1829 62.9135 36.6374 53.7955C35.9514 52.0227 35.304 50.1035 35.7202 48.246C36.1364 46.3885 36.9611 44.9549 38.8032 45.5406C44.4529 47.3519 47.2816 53.6105 50.6883 59.4143C53.6789 64.5321 54.2723 67.3994 58.0722 71.9545C58.0413 71.9545 53.9949 79.77 49.9792 79.8702Z" fill="black"/>
</g>
<path d="M9.55289 81.512L8.43529 93.7979H42.3487C42.3487 93.7979 48.0214 92.002 40.7686 75.554C41.4931 72.3245 42.5028 68.9178 43.5202 65.0023C44.4914 59.607 39.466 45.7333 38.4024 45.4867C37.3387 45.24 31.8124 42.8199 30.6948 42.6657C27.0554 42.1612 23.3916 41.8524 19.7192 41.7408C19.0101 41.7408 18.301 41.6791 17.5996 41.6637C17.5996 41.6637 3.81073 42.288 3.72595 47.93C3.69512 48.246 9.55289 63.6612 9.55289 81.512Z" fill="#EF4444"/>
<path d="M33.4465 45.348C33.4465 45.348 27.8508 43.5521 21.8851 42.3497C18.4475 41.656 20.1817 38.0951 15.4878 40.1453C14.5475 37.1086 15.9734 33.8482 18.1469 31.5206C18.604 31.0233 19.1219 30.5856 19.6885 30.218C20.107 29.9446 20.551 29.7123 21.0142 29.5243C21.2658 29.4222 21.5232 29.3347 21.7849 29.2622C22.4697 29.0471 23.1797 28.9227 23.8968 28.8923C25.0965 28.838 26.2942 29.0376 27.4115 29.478C29.0073 30.1481 30.4092 31.2082 31.4888 32.5611C32.0102 33.1988 32.4648 33.8884 32.8453 34.619C33.0406 34.9787 33.2178 35.3564 33.3771 35.752C33.5809 36.2547 33.7534 36.7695 33.8935 37.2935C33.8979 37.3422 33.8979 37.3913 33.8935 37.44C34.165 39.0908 34.0489 40.7822 33.5544 42.3805C33.2615 43.3902 33.7625 44.531 33.4465 45.348Z" fill="#263238"/>
<path d="M28.7911 51.6297C27.3266 52.6394 26.3015 51.9996 24.814 51.013C15.8655 45.6177 19.6499 41.5327 19.6499 41.5327C21.9082 39.7523 22.5017 37.2011 22.6173 33.1546C22.6271 33.0378 22.6452 32.9219 22.6713 32.8077C22.7821 32.2869 23.0514 31.8131 23.442 31.4512C23.6899 31.209 23.983 31.0181 24.3047 30.8894C24.6264 30.7606 24.9704 30.6966 25.3168 30.7009C25.6633 30.7052 26.0055 30.7777 26.324 30.9144C26.6424 31.0511 26.9307 31.2492 27.1725 31.4974L31.2421 33.5939C31.2421 33.6556 31.2421 33.7172 31.2421 33.7866C30.8259 35.9293 30.4328 37.5787 30.1862 38.889C30.1862 39.0509 30.1245 39.2127 30.1014 39.3669C30.1014 39.5287 30.0551 39.6983 30.0243 39.8525C29.7699 41.6637 29.9626 42.6966 31.0725 43.5675C31.7354 44.1456 33.7548 48.2306 28.7911 51.6297Z" fill="#FFB573"/>
<path opacity="0.2" d="M31.2421 33.5785C31.2314 33.6448 31.2314 33.7125 31.2421 33.7789C30.8259 35.9216 30.4328 37.571 30.1862 38.8813C30.1461 39.0383 30.1177 39.198 30.1014 39.3592C30.077 39.5277 30.0642 39.6976 30.0628 39.8679C26.9611 38.32 24.4083 35.8586 22.7483 32.8154C22.8553 32.3016 23.1097 31.8302 23.4805 31.4589C23.976 30.9656 24.6467 30.6887 25.3458 30.6887C26.0449 30.6887 26.7156 30.9656 27.211 31.4589L31.2421 33.5785Z" fill="black"/>
<path d="M22.332 17.6315C21.0217 25.0462 20.3049 28.1446 23.0103 32.854C27.0876 39.9295 36.2519 40.0914 39.7357 33.2548C42.8188 27.0887 44.4759 16.0283 38.1942 11.2496C31.9125 6.47089 23.65 10.2091 22.332 17.6315Z" fill="#FFB573"/>
<path d="M30.4713 19.9283C28.3845 20.6108 26.5206 21.8436 25.076 23.4969L24.8293 23.759C24.5056 24.129 24.1896 24.5143 23.8813 24.9151C23.3651 25.6098 22.8965 26.3386 22.4785 27.0964C22.2627 27.4895 22.0546 27.8672 21.8696 28.3219C21.6846 28.7766 21.4149 29.3701 21.2222 29.9097C21.1605 30.0869 21.0988 30.2642 21.0449 30.4415C20.0637 33.5369 19.9175 36.8365 20.621 40.0066C20.6174 40.0296 20.6174 40.053 20.621 40.076L20.4899 39.9758C19.8965 39.5133 17.0061 38.9969 15.4646 40.1453C15.4646 40.1453 12.3816 42.3497 10.2851 42.7659C2.5775 44.3074 1.62947 37.1163 5.7145 32.6227C6.08446 32.2142 8.19633 30.7498 8.38132 30.6188C7.84357 30.5065 7.34124 30.265 6.91774 29.9151C6.49423 29.5652 6.16228 29.1175 5.95056 28.6106C5.73884 28.1037 5.65373 27.5529 5.70257 27.0057C5.75141 26.4585 5.93275 25.9315 6.2309 25.4701C7.37163 23.2888 9.41414 21.7088 11.4489 20.4293C11.8189 20.1981 12.2197 19.99 12.5665 19.7819C12.3121 19.8322 12.0502 19.8322 11.7958 19.7819C11.2945 19.6959 10.8283 19.468 10.4526 19.1251C10.0769 18.7822 9.80747 18.3387 9.6762 17.8473C8.95168 14.0397 15.1948 16.9301 21.9544 6.33215C24.5364 2.27025 28.5598 4.41296 32.3827 6.04697L32.5754 6.13175C36.5757 7.88908 38.5026 10.1474 38.6798 12.3749C39.0036 15.404 35.9745 18.3945 30.4713 19.9283Z" fill="#263238"/>
<path d="M24.9758 18.356C26.3169 19.4042 24.6906 26.2948 21.1914 25.2928C17.6921 24.2908 20.5748 14.9184 24.9758 18.356Z" fill="#263238"/>
<path d="M18.617 23.574C18.6173 25.1659 19.2332 26.6959 20.3358 27.844C21.8157 29.3855 23.5422 28.2756 23.9584 26.3025C24.3438 24.5066 24.0278 21.678 22.1471 20.9072C20.2665 20.1364 18.6247 21.6163 18.617 23.574Z" fill="#FFB573"/>
<path d="M36.7607 24.5143C37.1304 26.1434 37.7135 27.7165 38.4949 29.1928C38.1228 29.3789 37.7138 29.4796 37.2978 29.4876C36.8818 29.4956 36.4692 29.4107 36.0902 29.2391L36.7607 24.5143Z" fill="#ED893E"/>
<path d="M32.0128 22.5181C31.8664 23.1116 32.0128 23.6742 32.4368 23.7744C32.8607 23.8746 33.246 23.4738 33.3848 22.8804C33.5235 22.2869 33.3848 21.7165 32.9609 21.624C32.5369 21.5315 32.167 21.9169 32.0128 22.5181Z" fill="#263238"/>
<path d="M39.443 24.5066C39.2966 25.1001 39.443 25.6628 39.8746 25.763C40.3063 25.8632 40.6454 25.4701 40.8226 24.8766C40.9999 24.2831 40.7841 23.7205 40.391 23.6203C39.9979 23.5201 39.5895 23.8823 39.443 24.5066Z" fill="#263238"/>
<path d="M40.2137 23.6049L41.709 23.5586C41.709 23.5586 40.7224 24.4835 40.2137 23.6049Z" fill="#263238"/>
<path d="M32.7835 21.6086L34.3251 21.57C34.3251 21.57 33.3077 22.495 32.7835 21.6086Z" fill="#263238"/>
<path d="M27.7583 8.05094C26.4942 10.317 24.3515 9.76973 22.5634 11.6504C20.7752 13.531 19.3955 16.3212 20.4977 18.6643C20.8858 19.302 21.2383 19.9608 21.5537 20.6374C22.2011 22.6029 20.6287 24.5606 20.1817 26.58C19.7732 28.4606 19.2183 30.665 20.5363 31.9753C21.0776 32.5162 21.4802 33.18 21.7097 33.9101C21.9391 34.6401 21.9888 35.4149 21.8543 36.1682C21.774 36.6469 21.6475 37.1167 21.4766 37.571C21.3772 37.8484 21.3772 38.1517 21.4767 38.4291C21.5761 38.7065 21.7688 38.9407 22.0218 39.0918C22.2748 39.2429 22.5724 39.3014 22.8638 39.2574C23.1552 39.2134 23.4222 39.0695 23.6193 38.8505C23.6749 38.787 23.7264 38.7201 23.7734 38.6501C24.5827 37.6335 25.1577 36.4508 25.4575 35.1865C25.7573 33.9222 25.7744 32.6073 25.5077 31.3356C25.1916 29.8788 24.8063 28.4452 24.4903 26.9885C24.0929 25.5388 24.1386 24.0033 24.6213 22.5797C25.9162 19.4196 35.2115 13.5696 30.1862 6.30902C30.12 6.20991 30.0176 6.14072 29.901 6.11633C29.6327 6.08016 29.3597 6.11283 29.1076 6.21126C28.8554 6.30969 28.6325 6.47064 28.4597 6.67899C28.1756 7.10884 27.9404 7.569 27.7583 8.05094Z" fill="#263238"/>
<path d="M15.6034 41.7331C16.3692 44.4438 17.8943 46.879 19.9988 48.7513C22.1033 50.6236 24.6994 51.855 27.4808 52.3002C29.4693 52.5854 31.5427 51.306 32.9609 49.8878C34.3974 48.4415 35.2648 46.5261 35.4042 44.4924C28.6986 40.9624 22.0624 40.6541 15.6034 41.7331Z" fill="#FFB573"/>
<path d="M41.1309 20.0285C41.0776 20.0171 41.0224 20.0171 40.9691 20.0285C40.9282 20.0358 40.8892 20.0514 40.8545 20.0741C40.8197 20.0969 40.79 20.1264 40.7669 20.161C40.7439 20.1955 40.7281 20.2344 40.7204 20.2752C40.7128 20.316 40.7134 20.3579 40.7224 20.3985C40.8114 20.9029 41.0232 21.3777 41.3391 21.781C41.655 22.1842 42.0652 22.5035 42.5337 22.7108C42.5726 22.7253 42.614 22.7318 42.6555 22.7299C42.697 22.728 42.7377 22.7178 42.7751 22.6998C42.8126 22.6818 42.846 22.6564 42.8734 22.6252C42.9008 22.594 42.9216 22.5575 42.9345 22.5181C42.9493 22.4781 42.956 22.4356 42.9543 22.393C42.9526 22.3505 42.9425 22.3086 42.9246 22.27C42.9067 22.2313 42.8813 22.1965 42.8499 22.1677C42.8186 22.1388 42.7818 22.1165 42.7418 22.1019C42.3726 21.9386 42.0489 21.6875 41.799 21.3705C41.5491 21.0534 41.3806 20.68 41.3082 20.2829C41.3045 20.2284 41.2861 20.1759 41.2549 20.1311C41.2236 20.0863 41.1808 20.0508 41.1309 20.0285Z" fill="#263238"/>
<path d="M35.0264 18.487C34.9782 18.4643 34.9256 18.4526 34.8723 18.4526C34.819 18.4526 34.7664 18.4643 34.7181 18.487C34.3944 18.7373 34.0179 18.9104 33.6172 18.9932C33.2165 19.076 32.8022 19.0663 32.4058 18.9649C32.3659 18.9501 32.3234 18.9434 32.2808 18.9451C32.2382 18.9468 32.1964 18.9569 32.1577 18.9748C32.1191 18.9927 32.0843 19.0181 32.0555 19.0494C32.0266 19.0808 32.0042 19.1175 31.9896 19.1576C31.9638 19.2385 31.9693 19.3261 32.005 19.4032C32.0406 19.4803 32.1039 19.5411 32.1823 19.5738C32.6829 19.7213 33.2116 19.7465 33.724 19.6472C34.2363 19.548 34.7173 19.3272 35.1266 19.0034C35.1618 18.9788 35.1917 18.9475 35.2147 18.9112C35.2377 18.875 35.2532 18.8345 35.2604 18.7922C35.2675 18.7499 35.2662 18.7065 35.2565 18.6647C35.2467 18.6229 35.2288 18.5835 35.2037 18.5487C35.1506 18.5138 35.0897 18.4926 35.0264 18.487Z" fill="#263238"/>
<path d="M31.8279 29.7786C31.603 29.5005 31.4019 29.204 31.2267 28.8923C31.1975 28.8461 31.1876 28.7904 31.1992 28.7371C31.2107 28.6837 31.2427 28.637 31.2883 28.6071C31.3397 28.5822 31.3987 28.5779 31.4532 28.5951C31.5077 28.6123 31.5535 28.6497 31.5812 28.6996C32.0167 29.4912 32.6321 30.1694 33.3778 30.6795C34.1235 31.1896 34.9787 31.5173 35.8744 31.6362C35.9302 31.6401 35.9824 31.6657 36.0198 31.7074C36.0572 31.7491 36.0769 31.8037 36.0747 31.8597C36.0708 31.9163 36.0456 31.9692 36.0041 32.0079C35.9626 32.0465 35.9079 32.0679 35.8512 32.0678C35.0618 31.974 34.2991 31.7231 33.6081 31.3299C32.9172 30.9368 32.3118 30.4093 31.8279 29.7786Z" fill="#263238"/>
</g>
<defs>
<clipPath id="clip0_271_5498">
<rect width="50" height="50" rx="25" fill="white"/>
</clipPath>
</defs>
</svg>
