<svg width="50" height="50" viewBox="0 0 50 50" fill="none" xmlns="http://www.w3.org/2000/svg">
<g clip-path="url(#clip0_271_5539)">
<rect width="50" height="50" rx="25" fill="#DBEAFE"/>
<path d="M27.9076 9.73426C27.9076 9.73426 32.7797 7.87432 35.2404 12.4666C35.2404 12.4666 29.4795 11.1333 27.669 13.8739L27.9076 9.73426Z" fill="#263238"/>
<path opacity="0.1" d="M27.9076 9.73426C27.9076 9.73426 32.7797 7.87432 35.2404 12.4666C35.2404 12.4666 29.4795 11.1333 27.669 13.8739L27.9076 9.73426Z" fill="white"/>
<path d="M9.79375 50.365C10.7537 62.7534 12.5325 75.0647 15.1185 87.2182C15.1185 87.2182 2.56795 110.467 4.00817 144.004C4.00817 144.004 16.7644 148.942 50.7125 144.004L46.3918 87.0124C46.3918 87.0124 47.832 50.1839 43.9229 46.069C40.4581 42.4232 25.3646 37.6499 13.8099 43.3367C12.5189 43.9778 11.4477 44.9883 10.7326 46.2398C10.0175 47.4913 9.69066 48.9272 9.79375 50.365Z" fill="#EAB308"/>
<path d="M19.9083 27.5189C21.2415 31.3293 22.9862 38.0119 21.5542 41.8717C21.3846 42.3213 21.3738 42.8153 21.5235 43.2718C21.6732 43.7283 21.9744 44.12 22.3772 44.3818C25.2823 46.4805 30.0063 48.1758 33.5616 47.7972C38.1291 47.3034 36.9358 44.0691 35.7754 42.2997C35.4627 41.8224 34.9524 41.1558 34.4175 41.057C29.9322 40.2999 29.0845 36.9421 29.4302 33.5267L19.9083 27.5189Z" fill="#FFC3BD"/>
<path opacity="0.2" d="M23.8175 29.9879L29.4631 33.5103C29.3891 34.3453 29.3891 35.1853 29.4631 36.0204C28.3317 35.9866 27.2256 35.6764 26.2416 35.1169C25.2575 34.5575 24.4253 33.7657 23.8175 32.8107C23.2002 31.5763 23.3566 30.2101 23.8175 29.9879Z" fill="black"/>
<path d="M18.1718 21.3548C19.8177 27.2145 20.4843 30.7286 24.1384 33.1235C29.6441 36.7446 36.3926 32.4239 36.4831 26.2022C36.5984 20.5647 33.8907 11.9481 27.562 10.8371C26.1688 10.5873 24.7349 10.6978 23.3965 11.1581C22.058 11.6184 20.8594 12.4131 19.9144 13.4669C18.9695 14.5207 18.3096 15.7985 17.9974 17.179C17.6852 18.5596 17.7311 19.997 18.1306 21.3548H18.1718Z" fill="#FFC3BD"/>
<path d="M31.3147 20.5071C32.2113 21.8598 33.2915 23.0813 34.5244 24.1365C34.2438 24.4442 33.8999 24.6874 33.5163 24.8494C33.1327 25.0113 32.7185 25.0882 32.3023 25.0747L31.3147 20.5071Z" fill="#ED847E"/>
<path d="M25.4717 19.2315C25.4237 19.2478 25.3716 19.2478 25.3235 19.2315C25.2532 19.1991 25.1983 19.1405 25.1707 19.0682C25.143 18.996 25.1447 18.9157 25.1754 18.8447C25.3657 18.427 25.652 18.0602 26.011 17.7741C26.37 17.4881 26.7915 17.2909 27.2411 17.1987C27.3173 17.1892 27.3941 17.2096 27.4556 17.2557C27.517 17.3017 27.5581 17.3698 27.5703 17.4456C27.5761 17.4835 27.5743 17.5221 27.565 17.5593C27.5556 17.5965 27.539 17.6314 27.516 17.6621C27.493 17.6927 27.4641 17.7185 27.4311 17.7378C27.398 17.7572 27.3614 17.7697 27.3234 17.7748C26.9618 17.8507 26.6237 18.012 26.3373 18.2454C26.051 18.4788 25.8247 18.7774 25.6774 19.1162C25.6536 19.1493 25.6228 19.1767 25.5873 19.1966C25.5518 19.2165 25.5123 19.2284 25.4717 19.2315Z" fill="#263238"/>
<path d="M34.722 16.4333C34.68 16.4596 34.6315 16.4736 34.5821 16.4736C34.5326 16.4736 34.4841 16.4596 34.4421 16.4333C34.1329 16.2465 33.7841 16.135 33.4238 16.1079C33.0636 16.0807 32.702 16.1386 32.3682 16.277C32.2983 16.3114 32.2176 16.3169 32.1437 16.2922C32.0697 16.2676 32.0085 16.2148 31.9732 16.1453C31.9552 16.1115 31.9442 16.0744 31.9411 16.0362C31.938 15.998 31.9428 15.9596 31.9552 15.9233C31.9675 15.8871 31.9871 15.8537 32.0129 15.8254C32.0387 15.797 32.07 15.7742 32.1049 15.7585C32.5243 15.5793 32.9802 15.5023 33.4352 15.5338C33.8902 15.5653 34.3312 15.7043 34.722 15.9395C34.7545 15.9567 34.7832 15.9803 34.8064 16.0089C34.8295 16.0375 34.8466 16.0705 34.8566 16.1059C34.8666 16.1413 34.8693 16.1784 34.8646 16.2148C34.8598 16.2513 34.8477 16.2865 34.8289 16.3181C34.8047 16.3657 34.7676 16.4056 34.722 16.4333Z" fill="#263238"/>
<path d="M21.8012 39.9707L33.4299 47.5092V40.7114L35.3722 41.1558C35.5724 41.2026 35.7556 41.3044 35.9011 41.4499C36.0465 41.5953 36.1484 41.7785 36.1951 41.9788C36.8819 45.0488 37.246 48.1822 37.2815 51.3279C37.2815 51.3279 36.3104 47.106 33.6357 48.7519C33.6357 48.7519 30.7799 46.39 28.5167 50.3979C28.5167 50.3979 23.0356 48.0359 21.8012 45.1555C20.5667 42.2751 19.7437 40.7196 19.7437 40.7196L21.8012 39.9707Z" fill="white"/>
<path d="M20.9452 39.9707C23.8594 52.5175 25.8481 65.2614 26.8954 78.0995C28.2204 97.1681 28.492 102.929 20.9452 102.106C13.3985 101.283 7.23432 100.32 8.32889 97.5795C9.42345 94.839 13.5384 88.6584 13.2668 85.5064C12.9952 82.3544 10.3863 57.8048 10.0901 54.0849C9.7938 50.365 7.5059 42.2751 20.9452 39.9707Z" fill="#263238"/>
<path d="M34.3928 40.7114C34.3928 40.7114 40.4252 52.5212 40.8367 71.8942C41.2482 91.2672 40.3923 101.579 43.9887 102.18C47.5852 102.781 48.3835 100.32 48.3835 100.32C48.3835 100.32 47.3136 89.7941 47.3136 87.2182C47.3136 84.6422 48.4493 69.1125 47.3136 58.0022C46.1779 46.892 47.3136 47.5833 45.4454 46.3406C42.003 44.023 38.2916 42.1327 34.3928 40.7114Z" fill="#263238"/>
<path d="M18.9207 71.7296C15.2008 72.4209 10.5921 72.5032 10.5921 71.8942C10.5921 70.9642 14.1227 59.3025 16.0402 55.023C17.2665 52.2825 21.0851 45.4517 16.8632 43.0568C14.6247 41.7812 7.62112 42.67 4.32918 57.1792C1.03725 71.6884 2.55154 76.9308 5.73649 79.194C9.08603 81.5725 16.6492 78.7579 20.7559 76.9308L18.9207 71.7296Z" fill="#263238"/>
<path d="M27.5949 20.6553C27.6936 21.1491 28.0311 21.4783 28.352 21.4289C28.673 21.3795 28.854 20.9186 28.7553 20.4249C28.6565 19.9311 28.3191 19.6019 28.0064 19.6595C27.6936 19.7171 27.5044 20.1615 27.5949 20.6553Z" fill="#263238"/>
<path d="M33.1336 19.5689C33.2324 20.0545 33.5698 20.3919 33.8825 20.3425C34.1953 20.2932 34.3846 19.8323 34.294 19.3385C34.2035 18.8447 33.8579 18.5155 33.5451 18.5649C33.2324 18.6143 33.076 19.0751 33.1336 19.5689Z" fill="#263238"/>
<path d="M33.4052 18.6225L34.5162 18.0546C34.5162 18.0546 34.0883 19.0916 33.4052 18.6225Z" fill="#263238"/>
<path d="M27.8665 19.7089L28.9775 19.141C28.9775 19.141 28.5496 20.178 27.8665 19.7089Z" fill="#263238"/>
<path d="M30.9691 27.8481C31.3167 27.8466 31.6635 27.8163 32.0061 27.7576C32.0535 27.7476 32.0952 27.7199 32.1228 27.6801C32.1503 27.6403 32.1616 27.5915 32.1542 27.5436C32.1443 27.4979 32.1178 27.4574 32.0798 27.43C32.0418 27.4027 31.995 27.3904 31.9485 27.3955C31.1928 27.5434 30.413 27.5125 29.6713 27.3053C28.9297 27.0981 28.2468 26.7203 27.6772 26.2022C27.6419 26.168 27.5947 26.1489 27.5455 26.1489C27.4964 26.1489 27.4491 26.168 27.4138 26.2022C27.3959 26.2191 27.3816 26.2395 27.3719 26.2621C27.3621 26.2848 27.3571 26.3092 27.3571 26.3339C27.3571 26.3585 27.3621 26.3829 27.3719 26.4055C27.3816 26.4282 27.3959 26.4486 27.4138 26.4655C28.3779 27.365 29.6506 27.86 30.9691 27.8481Z" fill="#263238"/>
<path d="M20.254 26.6383C20.254 26.6383 21.6613 25.9553 21.6284 22.8279C22.4451 21.4773 22.8945 19.9367 22.932 18.3588C22.9696 16.7809 22.5939 15.2206 21.8423 13.8327C21.8423 13.8327 28.632 13.306 30.0722 10.7136C31.5124 8.12122 35.1088 8.01423 35.1088 8.01423C35.1088 8.01423 34.2858 4.92805 28.1793 6.23659C29.587 5.29891 31.2291 4.77432 32.9197 4.7223C32.9197 4.7223 29.2245 1.29869 23.7187 4.34373C23.9671 3.80776 24.3339 3.33519 24.7915 2.96167C25.2492 2.58815 25.7856 2.32344 26.3605 2.18751C26.3605 2.18751 19.0853 0.467469 13.3245 7.44637C8.79804 12.9274 12.5015 15.0754 12.5015 15.0754C12.5015 15.0754 8.8145 14.5076 9.58811 19.4866L11.0777 17.1411C11.0777 17.1411 9.89261 20.3014 13.3903 23.7991C16.888 27.2967 20.254 26.6383 20.254 26.6383Z" fill="#263238"/>
<path d="M16.4682 27.5189C16.9971 28.0608 17.6278 28.4931 18.3239 28.7911C19.0201 29.0891 19.7683 29.2468 20.5255 29.2554C22.5583 29.2554 22.9944 27.3132 22.0233 25.6837C21.1098 24.2105 18.9536 22.4411 17.1348 23.2147C15.316 23.9883 15.1596 26.161 16.4682 27.5189Z" fill="#FFC3BD"/>
</g>
<defs>
<clipPath id="clip0_271_5539">
<rect width="50" height="50" rx="25" fill="white"/>
</clipPath>
</defs>
</svg>
