<svg width="50" height="50" viewBox="0 0 50 50" fill="none" xmlns="http://www.w3.org/2000/svg">
<g clip-path="url(#clip0_271_5522)">
<rect width="50" height="50" rx="25" fill="#DBEAFE"/>
<path d="M3.065 44.2587C-3.77852 45.3116 -7.00287 69.2639 -7.00287 69.2639L7.08721 72.8173C7.08721 72.8173 9.29161 66.5906 12.6805 58.1103C14.8026 52.7556 11.5947 42.9509 3.065 44.2587Z" fill="#22C55E"/>
<path d="M43.3447 45.9697C41.3782 53.8261 40.0035 61.8189 39.232 69.8808C38.6563 75.507 38.3519 80.8699 38.1957 85.7311C37.8255 97.1233 38.245 105.801 37.9653 108.762L-0.693938 106.846C-1.84549 49.9261 2.83474 44.3328 2.83474 44.3328C5.87748 43.6967 8.95705 43.2516 12.0554 43.0003C12.7134 42.9427 13.3797 42.9098 14.0542 42.8851C19.549 42.8443 25.0416 43.1189 30.5049 43.7077C31.5413 43.8146 32.5859 43.9462 33.6059 44.086C38.7632 44.8016 43.3447 45.9697 43.3447 45.9697Z" fill="#22C55E"/>
<path d="M29.7563 25.1101C28.4567 30.3496 26.935 39.998 30.4637 43.7077C28.7512 45.3314 26.7095 46.5678 24.477 47.3327C22.2445 48.0977 19.8736 48.3734 17.5252 48.1411C12.9765 47.8203 12.9107 44.6207 14.0129 42.9098C19.9846 41.7911 19.6473 35.5892 18.8166 31.3943L29.7563 25.1101Z" fill="#FFC3BD"/>
<path opacity="0.2" d="M28.6707 30.7033L22.296 34.816C22.7237 37.4152 26.2113 38.7149 28.4321 38.3447C28.2008 35.7974 28.2809 33.2313 28.6707 30.7033Z" fill="black"/>
<path d="M38.9605 13.866C40.6056 16.1444 38.9029 23.8763 35.6704 24.2053C32.4378 24.5343 36.9453 11.0364 38.9605 13.866Z" fill="#263238"/>
<path d="M19.1703 31.8055C16.9165 32.0358 13.8567 27.298 15.7567 24.6741C17.6568 22.0502 21.9998 31.5259 19.1703 31.8055Z" fill="#263238"/>
<path d="M18.3477 17.0245C17.1961 24.123 16.1597 28.211 18.8823 32.6034C22.995 39.1837 32.3391 37.9581 35.5881 31.3531C38.5163 25.4062 39.9146 14.8037 33.6962 10.4689C32.3288 9.50687 30.7383 8.91016 29.0756 8.7354C27.4128 8.56064 25.733 8.81361 24.1954 9.47032C22.6579 10.127 21.3137 11.1657 20.2902 12.4878C19.2668 13.8098 18.5981 15.3715 18.3477 17.0245Z" fill="#FFC3BD"/>
<path d="M35.3497 3.90506C34.6791 4.25526 34.075 4.72016 33.5647 5.27869C29.9407 3.57544 25.948 2.8063 21.9505 3.04139C22.3556 3.86785 22.8917 4.62337 23.538 5.27869C20.3562 4.75754 17.1174 4.68004 13.9143 5.04838C13.7278 6.82862 14.1325 8.62075 15.0659 10.1481C11.0601 10.9213 8.54314 20.8411 17.188 26.4508C21.3665 25.4638 22.806 18.4064 21.9505 15.7578C23.3488 15.9635 30.6201 16.8929 30.8915 14.4911C32.3967 16.5475 37.003 18.3159 39.1169 15.4206C41.5598 12.953 41.5598 7.28569 35.3497 3.90506Z" fill="#263238"/>
<path d="M29.0407 29.7492C28.2122 29.5795 27.4364 29.2139 26.7781 28.683C26.1199 28.1521 25.5983 27.4713 25.257 26.6976C25.2411 26.6506 25.2443 26.5994 25.2659 26.5548C25.2874 26.5102 25.3255 26.4758 25.3721 26.459C25.4169 26.443 25.4661 26.4453 25.5092 26.4653C25.5523 26.4853 25.5858 26.5215 25.6025 26.566C25.9277 27.2788 26.4157 27.9054 27.0271 28.3954C27.6385 28.8854 28.3564 29.2251 29.1229 29.3873C29.1509 29.388 29.1783 29.395 29.2032 29.4077C29.2282 29.4203 29.25 29.4383 29.2671 29.4604C29.2843 29.4825 29.2963 29.5081 29.3024 29.5354C29.3084 29.5627 29.3083 29.591 29.3021 29.6183C29.2959 29.6456 29.2838 29.6711 29.2665 29.6931C29.2493 29.7151 29.2274 29.733 29.2023 29.7455C29.1773 29.7581 29.1499 29.7649 29.1219 29.7655C29.094 29.7661 29.0662 29.7606 29.0407 29.7492Z" fill="#263238"/>
<path d="M13.4701 24.0243C14.0718 25.7297 15.3263 27.1263 16.9576 27.9067C19.1291 28.9267 20.6097 27.0842 20.3383 24.8304C20.0915 22.7988 18.6932 19.8212 16.3325 19.7471C13.9718 19.6731 12.7545 21.9269 13.4701 24.0243Z" fill="#FFC3BD"/>
<path d="M28.5472 21.5732C28.4156 22.1407 28.613 22.6671 28.9913 22.7576C29.3697 22.8481 29.7645 22.4451 29.8961 21.8775C30.0277 21.31 29.8303 20.7753 29.452 20.6931C29.0736 20.6108 28.6788 20.9974 28.5472 21.5732Z" fill="#263238"/>
<path d="M34.9878 23.029C34.8562 23.5966 35.0536 24.1312 35.432 24.2135C35.8103 24.2958 36.2051 23.9009 36.3367 23.3334C36.4683 22.7658 36.2709 22.2312 35.8926 22.1489C35.5142 22.0667 35.1194 22.4615 34.9878 23.029Z" fill="#263238"/>
<path d="M32.8738 22.6425C33.1667 24.541 33.7203 26.3899 34.5189 28.137C33.3015 28.8444 31.64 27.8656 31.64 27.8656L32.8738 22.6425Z" fill="#ED847E"/>
<path d="M27.0172 18.8506C27.0754 18.8762 27.1398 18.8844 27.2026 18.8741C27.2654 18.8639 27.3238 18.8357 27.3709 18.793C27.6937 18.5068 28.0792 18.3003 28.4964 18.1903C28.9136 18.0803 29.3507 18.0698 29.7727 18.1596C29.8159 18.1735 29.8614 18.1785 29.9066 18.1743C29.9518 18.1701 29.9956 18.1569 30.0356 18.1354C30.0755 18.1139 30.1107 18.0846 30.139 18.0492C30.1673 18.0138 30.1882 17.973 30.2004 17.9293C30.2261 17.8421 30.2163 17.7482 30.1732 17.6681C30.13 17.5881 30.0571 17.5282 29.9701 17.5016C29.4398 17.3791 28.888 17.3847 28.3602 17.5177C27.8324 17.6507 27.3439 17.9074 26.935 18.2666C26.8654 18.3256 26.8221 18.4098 26.8143 18.5007C26.8066 18.5917 26.8352 18.6819 26.8938 18.7519C26.9272 18.7934 26.9693 18.8271 27.0172 18.8506Z" fill="#263238"/>
<path d="M38.2532 21.2524C38.3202 21.2727 38.3918 21.2727 38.4588 21.2524C38.5483 21.2327 38.6262 21.1783 38.6756 21.1012C38.7249 21.0241 38.7416 20.9305 38.7221 20.8411C38.6148 20.3006 38.3785 19.7939 38.0334 19.3643C37.6882 18.9347 37.2444 18.5948 36.7397 18.3735C36.6546 18.3442 36.5614 18.3493 36.48 18.3877C36.3985 18.4261 36.3353 18.4948 36.3038 18.5791C36.2737 18.6644 36.2774 18.7579 36.3141 18.8405C36.3508 18.9231 36.4178 18.9885 36.5012 19.0233C36.9068 19.1979 37.2635 19.469 37.5402 19.8131C37.8169 20.1572 38.0052 20.5638 38.0887 20.9974C38.0966 21.0491 38.1153 21.0986 38.1436 21.1425C38.172 21.1865 38.2093 21.2239 38.2532 21.2524Z" fill="#263238"/>
</g>
<defs>
<clipPath id="clip0_271_5522">
<rect width="50" height="50" rx="25" fill="white"/>
</clipPath>
</defs>
</svg>
