<svg width="50" height="50" viewBox="0 0 50 50" fill="none" xmlns="http://www.w3.org/2000/svg">
<g clip-path="url(#clip0_271_5561)">
<rect width="50" height="50" rx="25" fill="#DBEAFE"/>
<path d="M10.1096 46.9863C9.87492 47.0668 9.65842 47.1928 9.47257 47.3572C9.28672 47.5216 9.13518 47.7211 9.02667 47.9443C8.91816 48.1674 8.85482 48.4098 8.84027 48.6575C8.82573 48.9052 8.86028 49.1534 8.94192 49.3877C11.3168 56.3499 13.2233 63.4631 14.6487 70.6797C15.7505 76.151 16.5321 81.3869 17.1819 86.1426C18.6509 97.2924 19.0653 105.843 19.6209 108.744L57.4117 103.093C59.4458 62.1761 47.9381 42.0706 47.9381 42.0706C44.8889 41.7448 41.8226 41.6065 38.7564 41.6562C38.1066 41.6562 37.4569 41.6562 36.7882 41.7316C31.3917 42.2111 26.0274 43.0034 20.7227 44.1047C19.7151 44.3024 18.698 44.5285 17.7092 44.7639C14.6581 45.5361 11.8424 46.4119 10.1096 46.9863Z" fill="#F97316"/>
<path d="M9.49737 51.0733C17.5302 47.6267 36.9482 44.5944 49.1622 44.6132C49.0962 44.4531 49.0209 44.293 48.955 44.1423C36.7128 44.1423 17.4266 47.1935 9.4032 50.6213L9.49737 51.0733Z" fill="white"/>
<path d="M38.8035 41.6751C38.1537 41.6751 37.5039 41.6751 36.8353 41.7504C31.4233 42.2219 26.0433 43.008 20.7227 44.1047C19.9128 44.2648 19.1029 44.4437 18.3025 44.6227L19.5738 45.5644C22.8321 48.0411 33.6994 51.1487 34.9331 51.4877L36.5528 51.9492L37.1838 50.3859C38.3515 47.5796 39.4533 43.9446 38.8035 41.6751Z" fill="white"/>
<path d="M19.6303 25.8073C21.4101 30.8266 23.8303 40.1401 20.7227 44.133C23.7738 46.4684 35.4416 49.7832 35.4416 49.7832C35.4416 49.7832 38.0313 43.3608 36.7882 41.7881C30.8178 41.2607 30.3375 36.9666 30.7425 32.7948L19.6303 25.8073Z" fill="#FF8B7B"/>
<path opacity="0.2" d="M24.1599 28.6418L30.7518 32.7571C30.6454 33.7296 30.6233 34.7095 30.6859 35.6858C28.4352 35.6858 25.0357 33.7177 24.4706 31.4481C24.2016 30.5385 24.0964 29.5883 24.1599 28.6418Z" fill="black"/>
<path d="M28.9438 9.39332C29.7819 7.76416 33.059 7.88659 34.3397 11.2202C35.6205 14.5539 33.2003 18.9328 33.2003 18.9328L28.9438 9.39332Z" fill="#263238"/>
<path d="M15.4303 20.157C18.359 26.6077 19.7433 30.5158 24.3765 32.6629C31.3451 35.8459 38.3609 29.706 37.4192 22.5019C36.5716 16.0229 31.929 6.54933 24.4518 6.38924C22.8029 6.3445 21.1698 6.72228 19.7081 7.48665C18.2463 8.25103 17.0043 9.37661 16.1002 10.7564C15.1961 12.1361 14.6599 13.7242 14.5427 15.3696C14.4254 17.015 14.731 18.663 15.4303 20.157Z" fill="#FF8B7B"/>
<path d="M16.7205 25.5625C18.5379 24.3006 21.1088 22.6902 21.1088 22.6902C21.4664 21.1913 21.3729 19.62 20.8401 18.1741C20.3073 16.7281 19.3589 15.4719 18.1142 14.5633C20.5061 14.1113 38.4457 9.99601 31.7972 4.38342C23.0393 -3.00899 13.5563 9.32739 8.96076 7.46281C8.91894 8.21292 9.12749 8.95569 9.55361 9.57442C9.97974 10.1932 10.5993 10.6528 11.315 10.8812C9.14911 10.9848 3.95088 16.6727 9.34687 19.3566C14.7429 22.0405 16.7205 25.5625 16.7205 25.5625Z" fill="#263238"/>
<path d="M31.138 24.7808C30.3672 25.0981 29.5309 25.2236 28.7009 25.1465C27.871 25.0694 27.0721 24.792 26.3729 24.3382C26.3549 24.3223 26.3405 24.3028 26.3306 24.2809C26.3207 24.2589 26.3156 24.2352 26.3156 24.2111C26.3156 24.1871 26.3207 24.1633 26.3306 24.1414C26.3405 24.1195 26.3549 24.0999 26.3729 24.084C26.4077 24.0522 26.453 24.0346 26.5001 24.0346C26.5471 24.0346 26.5925 24.0522 26.6272 24.084C27.2818 24.4936 28.0238 24.7428 28.7929 24.8116C29.562 24.8803 30.3364 24.7665 31.0532 24.4795C31.0755 24.4704 31.0993 24.4659 31.1233 24.4663C31.1473 24.4666 31.1709 24.4717 31.1929 24.4814C31.2149 24.4911 31.2347 24.505 31.2511 24.5225C31.2676 24.54 31.2803 24.5606 31.2887 24.5831C31.29 24.6283 31.2757 24.6726 31.2483 24.7086C31.2209 24.7446 31.1819 24.7701 31.138 24.7808Z" fill="#263238"/>
<path d="M14.0648 26.5701C14.6746 27.2084 15.4045 27.72 16.2125 28.0755C17.0205 28.431 17.8908 28.6235 18.7733 28.6419C21.137 28.6419 21.7209 26.4194 20.5532 24.4984C19.5079 22.775 17.0218 20.6844 14.9029 21.5697C12.7841 22.4549 12.5675 24.9786 14.0648 26.5701Z" fill="#FF8B7B"/>
<path d="M26.1657 18.1795C26.3729 18.7162 26.8249 19.0458 27.1734 18.9046C27.5218 18.7633 27.6442 18.2266 27.4464 17.6898C27.2487 17.153 26.7872 16.8234 26.4294 16.9552C26.0715 17.0871 25.9585 17.6427 26.1657 18.1795Z" fill="#263238"/>
<path d="M32.2868 15.8535C32.494 16.3902 32.946 16.7198 33.3039 16.588C33.6617 16.4562 33.7747 15.91 33.5676 15.3732C33.3604 14.8364 32.9084 14.5068 32.5599 14.6387C32.2115 14.7705 32.0514 15.3167 32.2868 15.8535Z" fill="#263238"/>
<path d="M30.4034 16.8611C31.6735 18.2596 33.1276 19.4793 34.7258 20.4867C34.1137 21.7391 32.2209 21.8427 32.2209 21.8427L30.4034 16.8611Z" fill="#FF5652"/>
<path d="M23.5289 16.927C23.5903 16.9158 23.6474 16.8879 23.6939 16.8463C23.7404 16.8048 23.7746 16.7512 23.7926 16.6915C23.9041 16.2886 24.1088 15.9176 24.3901 15.6084C24.6715 15.2992 25.0217 15.0605 25.4123 14.9117C25.4551 14.8988 25.4948 14.8776 25.5293 14.8493C25.5638 14.8209 25.5923 14.7861 25.6133 14.7467C25.6343 14.7074 25.6473 14.6642 25.6516 14.6198C25.6559 14.5754 25.6514 14.5306 25.6384 14.4879C25.6254 14.4452 25.6042 14.4055 25.5759 14.371C25.5476 14.3365 25.5128 14.308 25.4734 14.287C25.434 14.266 25.3909 14.2529 25.3465 14.2486C25.3021 14.2444 25.2573 14.2489 25.2146 14.2619C24.7104 14.4481 24.2586 14.7534 23.8979 15.1519C23.5372 15.5503 23.2781 16.0301 23.1428 16.5503C23.1299 16.5923 23.1255 16.6365 23.1299 16.6803C23.1343 16.724 23.1474 16.7665 23.1685 16.8051C23.1896 16.8437 23.2181 16.8777 23.2525 16.9051C23.2869 16.9325 23.3265 16.9527 23.3688 16.9646C23.4246 16.9667 23.4799 16.9537 23.5289 16.927Z" fill="#263238"/>
<path d="M34.0666 12.7647C34.1369 12.7531 34.2006 12.7163 34.2456 12.6611C34.2781 12.6311 34.3041 12.5947 34.3218 12.5542C34.3396 12.5136 34.3487 12.4699 34.3487 12.4256C34.3487 12.3814 34.3396 12.3376 34.3218 12.2971C34.3041 12.2566 34.2781 12.2202 34.2456 12.1902C33.8665 11.8073 33.4005 11.5218 32.8873 11.3578C32.3741 11.1938 31.8288 11.1563 31.298 11.2485C31.255 11.2584 31.2144 11.2768 31.1787 11.3027C31.1429 11.3286 31.1127 11.3614 31.0899 11.3992C31.0671 11.4369 31.0521 11.4789 31.0457 11.5226C31.0394 11.5662 31.042 11.6107 31.0532 11.6534C31.0755 11.7395 31.1299 11.8137 31.2051 11.861C31.2804 11.9082 31.3709 11.925 31.4581 11.9077C31.877 11.8365 32.307 11.867 32.7117 11.9964C33.1165 12.1259 33.4842 12.3506 33.7841 12.6516C33.82 12.6901 33.8639 12.7201 33.9128 12.7397C33.9616 12.7592 34.0141 12.7677 34.0666 12.7647Z" fill="#263238"/>
<path d="M10.0154 47.024C2.79249 49.2464 -1.74655 64.9824 -1.74655 65.1519L12.5109 76.1228C12.5109 76.1228 16.8428 67.6474 20.2706 59.5299C24.0469 50.6967 17.9163 44.5944 10.0154 47.024Z" fill="#F97316"/>
<path d="M21.4289 54.1621C21.4289 53.9644 21.4289 53.7572 21.4289 53.5594C18.1838 51.0473 14.7664 48.7659 11.2019 46.7321L10.5145 46.8922C14.3349 49.03 17.984 51.4606 21.4289 54.1621Z" fill="white"/>
</g>
<defs>
<clipPath id="clip0_271_5561">
<rect width="50" height="50" rx="25" fill="white"/>
</clipPath>
</defs>
</svg>
