<svg width="308" height="308" viewBox="0 0 308 308" fill="none" xmlns="http://www.w3.org/2000/svg">
<path d="M277.138 245.47H256.736V245.624H277.138V245.47Z" fill="#EBEBEB"/>
<path d="M204.032 247.145H198.678V247.299H204.032V247.145Z" fill="#EBEBEB"/>
<path d="M256.12 239.753H244.299V239.907H256.12V239.753Z" fill="#EBEBEB"/>
<path d="M58.9204 240.788H32.3154V240.942H58.9204V240.788Z" fill="#EBEBEB"/>
<path d="M68.3082 240.788H64.409V240.942H68.3082V240.788Z" fill="#EBEBEB"/>
<path d="M138.692 243.388H80.9855V243.542H138.692V243.388Z" fill="#EBEBEB"/>
<path d="M146.854 208.085H27.9048C26.9719 208.085 26.0773 207.714 25.4177 207.055C24.758 206.395 24.3875 205.5 24.3875 204.567V37.3666C24.3956 36.4391 24.7697 35.5523 25.4285 34.8993C26.0872 34.2463 26.9773 33.88 27.9048 33.88H146.854C147.316 33.88 147.774 33.971 148.2 34.1477C148.627 34.3245 149.015 34.5836 149.342 34.9102C149.668 35.2368 149.927 35.6246 150.104 36.0513C150.281 36.4781 150.372 36.9355 150.372 37.3974V204.567C150.372 205.029 150.281 205.487 150.104 205.913C149.927 206.34 149.668 206.728 149.342 207.055C149.015 207.381 148.627 207.64 148.2 207.817C147.774 207.994 147.316 208.085 146.854 208.085ZM27.9048 34.0032C27.0133 34.0048 26.1588 34.3597 25.5284 34.9901C24.898 35.6205 24.5431 36.475 24.5415 37.3666V204.567C24.5431 205.459 24.898 206.314 25.5284 206.944C26.1588 207.574 27.0133 207.929 27.9048 207.931H146.854C147.746 207.929 148.6 207.574 149.231 206.944C149.861 206.314 150.216 205.459 150.218 204.567V37.3666C150.216 36.475 149.861 35.6205 149.231 34.9901C148.6 34.3597 147.746 34.0048 146.854 34.0032H27.9048Z" fill="#EBEBEB"/>
<path d="M280.095 208.085H161.146C160.213 208.085 159.318 207.714 158.658 207.055C157.999 206.395 157.628 205.5 157.628 204.567V37.3666C157.636 36.4391 158.011 35.5523 158.669 34.8993C159.328 34.2463 160.218 33.88 161.146 33.88H280.095C281.028 33.88 281.923 34.2506 282.582 34.9102C283.242 35.5698 283.613 36.4645 283.613 37.3974V204.567C283.613 205.5 283.242 206.395 282.582 207.055C281.923 207.714 281.028 208.085 280.095 208.085ZM161.146 34.0032C160.254 34.0048 159.4 34.3597 158.769 34.9901C158.139 35.6205 157.784 36.475 157.782 37.3666V204.567C157.784 205.459 158.139 206.314 158.769 206.944C159.4 207.574 160.254 207.929 161.146 207.931H280.095C280.987 207.929 281.841 207.574 282.472 206.944C283.102 206.314 283.457 205.459 283.459 204.567V37.3666C283.457 36.475 283.102 35.6205 282.472 34.9901C281.841 34.3597 280.987 34.0048 280.095 34.0032H161.146Z" fill="#EBEBEB"/>
<path d="M308 235.558H0V235.712H308V235.558Z" fill="#EBEBEB"/>
<path d="M123.502 162.833H49.2122V105.545L49.9699 104.819C59.7405 95.4056 72.79 90.1633 86.3571 90.2009C99.9255 90.1655 112.976 95.4074 122.75 104.819L123.502 105.545V162.833ZM54.1402 157.905H118.574V107.652C109.783 99.588 98.2867 95.1141 86.3571 95.1141C74.4274 95.1141 62.9315 99.588 54.1402 107.652V157.905Z" fill="#E6E6E6"/>
<path d="M119.51 129.477V125.781H88.205V94.4759H84.509V125.781H53.2101V129.477H84.509V158.521H88.205V129.477H119.51Z" fill="#F5F5F5"/>
<path d="M125.966 165.297H46.7482V104.529L47.4751 103.808C57.7959 93.5101 71.7803 87.7265 86.3601 87.7265C100.94 87.7265 114.924 93.5101 125.245 103.808L125.966 104.529V165.297ZM51.6762 160.369H121.038V106.568C111.706 97.6255 99.2815 92.6332 86.357 92.6332C73.4326 92.6332 61.0076 97.6255 51.6762 106.568V160.369Z" fill="#F5F5F5"/>
<path d="M241.299 235.638H273.405V93.6566H241.299V235.638Z" fill="#E6E6E6"/>
<path d="M172.351 235.645H250.774L250.774 93.6628H172.351V235.645Z" fill="#F5F5F5"/>
<path d="M176.663 231.203H202.787L202.787 98.1042H176.663L176.663 231.203Z" fill="#EBEBEB"/>
<path d="M207.253 231.203H245.568L245.568 98.1042H207.253V231.203Z" fill="#EBEBEB"/>
<path d="M202.787 140.99H179.034V147.926H202.787V140.99Z" fill="#F5F5F5"/>
<path d="M245.568 140.99H211.879V147.926H245.568V140.99Z" fill="#F5F5F5"/>
<path d="M202.787 182.41H179.034V189.346H202.787V182.41Z" fill="#F5F5F5"/>
<path d="M245.568 182.41H211.879V189.346H245.568V182.41Z" fill="#F5F5F5"/>
<path d="M223.916 193.221H220.251V231.203H223.916V193.221Z" fill="#E0E0E0"/>
<path d="M227.581 196.504H223.916V231.203H227.581V196.504Z" fill="#E0E0E0"/>
<path d="M220.257 196.504H216.592V231.203H220.257V196.504Z" fill="#FAFAFA"/>
<path d="M241.484 196.504H238.638V231.203H241.484V196.504Z" fill="#E0E0E0"/>
<path d="M245.575 193.824H241.484V231.203H245.575V193.824Z" fill="#F0F0F0"/>
<path d="M233.107 196.504H227.581V231.203H233.107V196.504Z" fill="#F5F5F5"/>
<path d="M238.632 194.33H233.107V231.203H238.632V194.33Z" fill="#E6E6E6"/>
<path d="M242.1 182.632H245.766V150.945H242.1V182.632Z" fill="#E0E0E0"/>
<path d="M238.435 182.632H242.1V153.686H238.435V182.632Z" fill="#E6E6E6"/>
<path d="M224.538 182.632H227.384V153.686H224.538V182.632Z" fill="#E0E0E0"/>
<path d="M220.448 182.632H224.538V151.45H220.448V182.632Z" fill="#F0F0F0"/>
<path d="M216.376 182.632H220.466V151.45H216.376V182.632Z" fill="#F5F5F5"/>
<path d="M232.916 182.632H238.441V153.686H232.916V182.632Z" fill="#F5F5F5"/>
<path d="M227.384 182.632H232.91V151.869H227.384V182.632Z" fill="#E6E6E6"/>
<path d="M223.916 114.847H220.251V140.99H223.916V114.847Z" fill="#FAFAFA"/>
<path d="M227.581 112.044H223.916V140.99H227.581V112.044Z" fill="#E0E0E0"/>
<path d="M220.257 112.044H216.592V140.99H220.257V112.044Z" fill="#E0E0E0"/>
<path d="M241.484 112.044H238.638V140.99H241.484V112.044Z" fill="#E0E0E0"/>
<path d="M245.575 117.256H241.484V140.996H245.575V117.256Z" fill="#E0E0E0"/>
<path d="M233.107 112.044H227.581V140.99H233.107V112.044Z" fill="#F5F5F5"/>
<path d="M238.632 110.233H233.107V140.996H238.632V110.233Z" fill="#E6E6E6"/>
<path d="M202.122 141.957L191.268 119.214L180.408 141.957H202.122Z" fill="#E0E0E0"/>
<path d="M180.408 141.957L191.268 119.214V141.957H180.408Z" fill="#F5F5F5"/>
<path d="M190.584 175.739C193.99 175.739 196.75 172.978 196.75 169.572C196.75 166.167 193.99 163.406 190.584 163.406C187.179 163.406 184.418 166.167 184.418 169.572C184.418 172.978 187.179 175.739 190.584 175.739Z" fill="#FAFAFA"/>
<path d="M184.449 169.043C184.449 169.197 184.449 169.357 184.449 169.511C183.217 169.696 182.428 169.936 182.428 170.201C182.428 170.768 185.946 171.223 190.282 171.223C194.619 171.223 198.143 170.768 198.143 170.201C198.143 169.985 197.637 169.788 196.775 169.622V169.572C196.775 169.412 196.775 169.258 196.775 169.104C199.282 169.357 200.902 169.751 200.902 170.201C200.902 170.965 196.159 171.587 190.301 171.587C184.443 171.587 179.7 170.971 179.7 170.201C179.656 169.714 181.566 169.289 184.449 169.043Z" fill="#E0E0E0"/>
<path d="M191.921 158.768C192.243 159.371 192.736 159.865 193.338 160.188C193.941 160.511 194.625 160.647 195.306 160.581C195.986 160.515 196.631 160.248 197.16 159.815C197.689 159.382 198.077 158.802 198.276 158.148C198.475 157.494 198.476 156.796 198.278 156.141C198.08 155.487 197.693 154.906 197.165 154.472C196.637 154.038 195.992 153.77 195.312 153.703C194.632 153.635 193.947 153.771 193.344 154.092C192.535 154.524 191.931 155.259 191.664 156.135C191.397 157.012 191.49 157.959 191.921 158.768Z" fill="#FAFAFA"/>
<path d="M191.798 158.497C191.83 158.579 191.867 158.659 191.909 158.737C191.336 159.162 191.022 159.482 191.089 159.612C191.237 159.889 193.097 159.193 195.247 158.047C197.397 156.901 199.005 155.743 198.857 155.46C198.802 155.355 198.5 155.392 198.025 155.54C198.025 155.54 198.025 155.54 198.025 155.509L197.89 155.287C199.196 154.752 200.101 154.517 200.218 154.739C200.422 155.115 198.241 156.673 195.346 158.22C192.451 159.766 189.944 160.684 189.74 160.332C189.605 160.098 190.436 159.384 191.798 158.497Z" fill="#E0E0E0"/>
<path d="M182.373 153.23L182.047 153.889C181.992 154 181.911 154.096 181.812 154.169C181.712 154.242 181.596 154.29 181.474 154.308L180.741 154.413C180.6 154.435 180.468 154.495 180.36 154.587C180.252 154.68 180.171 154.8 180.127 154.935C180.083 155.07 180.077 155.215 180.111 155.354C180.144 155.492 180.215 155.618 180.316 155.719L180.845 156.236C180.935 156.322 181.001 156.429 181.04 156.547C181.079 156.665 181.088 156.791 181.067 156.914L180.944 157.641C180.919 157.781 180.935 157.926 180.988 158.058C181.042 158.191 181.131 158.305 181.247 158.389C181.362 158.474 181.499 158.523 181.641 158.534C181.784 158.544 181.926 158.514 182.053 158.448L182.706 158.103C182.816 158.045 182.938 158.015 183.063 158.015C183.187 158.015 183.31 158.045 183.42 158.103L184.073 158.448C184.199 158.514 184.342 158.544 184.484 158.534C184.627 158.523 184.763 158.474 184.879 158.389C184.994 158.305 185.084 158.191 185.138 158.058C185.191 157.926 185.206 157.781 185.182 157.641L185.059 156.914C185.036 156.791 185.045 156.665 185.083 156.547C185.122 156.428 185.19 156.322 185.281 156.236L185.804 155.719C185.907 155.619 185.98 155.493 186.015 155.354C186.049 155.215 186.044 155.069 186 154.933C185.955 154.797 185.874 154.676 185.764 154.584C185.654 154.492 185.521 154.433 185.379 154.413L184.652 154.308C184.529 154.291 184.411 154.244 184.31 154.171C184.209 154.098 184.128 154.001 184.073 153.889L183.747 153.23C183.684 153.101 183.586 152.993 183.465 152.917C183.343 152.841 183.203 152.8 183.06 152.8C182.917 152.8 182.776 152.841 182.655 152.917C182.533 152.993 182.436 153.101 182.373 153.23Z" fill="#FAFAFA"/>
<path d="M198.099 162.248L197.945 162.562C197.918 162.615 197.879 162.66 197.831 162.695C197.783 162.729 197.727 162.751 197.668 162.76L197.323 162.809C197.257 162.819 197.194 162.847 197.143 162.89C197.092 162.934 197.053 162.99 197.032 163.054C197.011 163.118 197.008 163.187 197.024 163.252C197.039 163.317 197.073 163.377 197.12 163.425L197.373 163.665C197.415 163.707 197.446 163.759 197.464 163.816C197.483 163.872 197.487 163.933 197.477 163.992L197.416 164.33C197.405 164.397 197.413 164.466 197.439 164.529C197.465 164.591 197.508 164.646 197.562 164.686C197.617 164.726 197.682 164.75 197.749 164.756C197.817 164.762 197.885 164.749 197.945 164.718L198.253 164.552C198.306 164.525 198.364 164.51 198.423 164.51C198.482 164.51 198.54 164.525 198.592 164.552L198.9 164.718C198.961 164.749 199.029 164.762 199.096 164.756C199.164 164.75 199.229 164.726 199.283 164.686C199.338 164.646 199.381 164.591 199.406 164.529C199.432 164.466 199.44 164.397 199.43 164.33L199.375 163.992C199.364 163.933 199.367 163.873 199.384 163.816C199.401 163.759 199.432 163.708 199.473 163.665L199.726 163.425C199.773 163.377 199.806 163.317 199.822 163.252C199.837 163.187 199.834 163.118 199.813 163.054C199.792 162.99 199.754 162.934 199.703 162.89C199.651 162.847 199.589 162.819 199.522 162.809L199.177 162.76C199.12 162.751 199.065 162.728 199.018 162.694C198.971 162.66 198.932 162.615 198.906 162.562L198.752 162.248C198.722 162.187 198.676 162.136 198.618 162.1C198.561 162.064 198.494 162.044 198.426 162.044C198.358 162.044 198.291 162.064 198.233 162.1C198.176 162.136 198.129 162.187 198.099 162.248Z" fill="#FAFAFA"/>
<path d="M185.742 206.003H200.151V202.861H185.742V206.003Z" fill="#E6E6E6"/>
<path d="M178.8 206.003H186.001V202.861H178.8V206.003Z" fill="#FAFAFA"/>
<path d="M186.469 231.203H198.494V206.003H186.469V231.203Z" fill="#E0E0E0"/>
<path d="M180.457 231.203H186.217V206.003H180.457V231.203Z" fill="#F5F5F5"/>
<path d="M220.731 61.7294C198.129 61.706 175.651 58.3984 154 51.9103C115.672 63.3556 82.4947 62.7396 61.4029 60.2078C40.7669 57.7438 27.3504 52.9822 24.8125 52.0335C24.7531 52.0126 24.6986 51.9796 24.6526 51.9366C24.6065 51.8936 24.5699 51.8415 24.545 51.7836C24.5201 51.7257 24.5075 51.6633 24.5079 51.6003C24.5084 51.5373 24.5219 51.475 24.5476 51.4175C24.5904 51.3051 24.676 51.2141 24.7856 51.1645C24.8953 51.1149 25.0201 51.1106 25.1328 51.1526C27.5968 52.0828 40.964 56.8198 61.5446 59.2838C82.5625 61.8033 115.629 62.407 153.834 50.9802H154.105H154.166C192.358 62.4131 225.468 61.8033 246.486 59.2838C267.061 56.8198 280.366 52.0828 282.867 51.1526C282.98 51.1106 283.105 51.1149 283.214 51.1645C283.324 51.2141 283.41 51.3051 283.452 51.4175C283.478 51.475 283.492 51.5373 283.492 51.6003C283.493 51.6633 283.48 51.7257 283.455 51.7836C283.43 51.8415 283.393 51.8936 283.347 51.9366C283.301 51.9796 283.247 52.0126 283.188 52.0335C280.65 52.9822 267.233 57.7315 246.597 60.2078C238.013 61.2292 229.376 61.7373 220.731 61.7294Z" fill="#E0E0E0"/>
<path d="M40.8593 56.364L43.5327 74.1233L55.4954 58.9512C55.4954 58.9512 48.8673 61.8033 40.8593 56.364Z" fill="#F0F0F0"/>
<path d="M197.588 60.7314L203.409 77.462L211.011 61.945C211.011 61.945 205.43 65.6718 197.588 60.7314Z" fill="#F0F0F0"/>
<path d="M120.034 59.3516C120.034 59.3516 127.487 62.8751 136.093 56.093L138.526 76.3286L129.84 73.1007L122.972 77.2279L120.034 59.3516Z" fill="#F5F5F5"/>
<path d="M120.034 59.3516L122.972 77.2156L129.84 73.0884L128.227 59.9122C125.502 60.5549 122.646 60.3595 120.034 59.3516Z" fill="#EBEBEB"/>
<path d="M175.363 57.0724L177.285 60.984C177.37 61.1598 177.497 61.3119 177.655 61.4269C177.813 61.5418 177.997 61.6161 178.19 61.6431L182.502 62.2591C182.72 62.2994 182.923 62.3977 183.09 62.5436C183.256 62.6896 183.381 62.8777 183.449 63.0883C183.518 63.2989 183.529 63.5242 183.48 63.7403C183.432 63.9565 183.326 64.1555 183.174 64.3166L180.063 67.3473C179.925 67.485 179.822 67.6534 179.762 67.8387C179.702 68.0239 179.687 68.2207 179.718 68.413L180.451 72.688C180.479 72.9072 180.447 73.1299 180.36 73.3327C180.272 73.5355 180.131 73.711 179.952 73.8408C179.773 73.9705 179.563 74.0498 179.343 74.0702C179.123 74.0907 178.901 74.0515 178.702 73.957L174.858 71.9365C174.686 71.8453 174.495 71.7977 174.3 71.7977C174.106 71.7977 173.914 71.8453 173.743 71.9365L169.88 73.92C169.681 74.0146 169.459 74.0537 169.239 74.0333C169.019 74.0128 168.809 73.9336 168.63 73.8038C168.451 73.6741 168.31 73.4986 168.222 73.2958C168.135 73.0929 168.103 72.8703 168.131 72.651L168.864 68.376C168.895 68.1837 168.88 67.9869 168.82 67.8017C168.76 67.6165 168.657 67.4481 168.519 67.3103L165.408 64.2796C165.256 64.1186 165.15 63.9195 165.102 63.7033C165.053 63.4872 165.064 63.262 165.133 63.0514C165.201 62.8408 165.326 62.6526 165.492 62.5067C165.659 62.3608 165.862 62.2625 166.08 62.2222L170.392 61.6062C170.578 61.5802 170.756 61.5102 170.91 61.402C171.064 61.2938 171.191 61.1506 171.279 60.984L173.201 57.0909C173.305 56.8959 173.46 56.7326 173.649 56.6182C173.839 56.5037 174.055 56.4423 174.276 56.4404C174.497 56.4385 174.715 56.4962 174.906 56.6074C175.097 56.7186 175.255 56.8792 175.363 57.0724Z" fill="#F5F5F5"/>
<path d="M235.873 61.2181L232.232 72.0412L241.484 81.1087L245.568 68.7025L235.873 61.2181Z" fill="#F5F5F5"/>
<path d="M91.1958 75.123C94.3592 71.9596 94.3592 66.8307 91.1958 63.6673C88.0324 60.5039 82.9035 60.5039 79.7401 63.6673C76.5767 66.8307 76.5767 71.9596 79.7401 75.123C82.9035 78.2864 88.0324 78.2864 91.1958 75.123Z" fill="#F0F0F0"/>
<path d="M77.4066 68.7025C77.4066 68.9058 77.4066 69.109 77.4066 69.3185C75.7557 69.5587 74.7454 69.8729 74.7454 70.224C74.7454 70.9694 79.3716 71.573 85.0696 71.573C90.7676 71.573 95.3999 70.957 95.3999 70.224C95.3999 69.9406 94.7346 69.6758 93.6012 69.4602C93.6012 69.4602 93.6012 69.417 93.6012 69.3924C93.6012 69.1891 93.6012 68.9858 93.6012 68.7764C96.8968 69.109 99.0282 69.6265 99.0282 70.2178C99.0282 71.2219 92.7881 72.0658 85.0942 72.0658C77.4004 72.0658 71.1665 71.2527 71.1665 70.2178C71.111 69.608 73.6182 69.0228 77.4066 68.7025Z" fill="#E0E0E0"/>
<path d="M259.903 64.3658C260.231 65.6498 260.933 66.8075 261.92 67.6926C262.906 68.5776 264.133 69.1503 265.445 69.3383C266.757 69.5263 268.095 69.321 269.29 68.7486C270.486 68.1761 271.484 67.262 272.16 66.122C272.836 64.982 273.159 63.6672 273.088 62.3437C273.017 61.0203 272.555 59.7477 271.76 58.6868C270.966 57.626 269.875 56.8244 268.625 56.3836C267.375 55.9427 266.022 55.8823 264.738 56.21C263.885 56.4277 263.083 56.8114 262.378 57.3392C261.673 57.867 261.08 58.5285 260.63 59.2859C260.181 60.0433 259.886 60.8818 259.761 61.7535C259.636 62.6251 259.684 63.5128 259.903 64.3658Z" fill="#F0F0F0"/>
<path d="M259.786 63.7991C259.786 63.9654 259.847 64.1379 259.89 64.3042C258.615 64.834 257.87 65.2898 257.938 65.5362C258.092 66.1522 261.923 65.6779 266.5 64.5075C271.077 63.3371 274.656 61.908 274.508 61.3105C274.453 61.0887 273.892 61.0148 272.913 61.0702C272.913 61.0702 272.913 61.0333 272.913 61.0148C272.87 60.8485 272.82 60.6883 272.765 60.5282C275.475 60.1216 277.292 60.1031 277.409 60.5713C277.619 61.3782 272.783 63.3125 266.611 64.8833C260.439 66.4541 255.258 67.144 255.024 66.3062C254.919 65.795 256.817 64.834 259.786 63.7991Z" fill="#E0E0E0"/>
<path d="M154 263.038C219.963 263.038 273.436 259.916 273.436 256.065C273.436 252.214 219.963 249.092 154 249.092C88.0372 249.092 34.5638 252.214 34.5638 256.065C34.5638 259.916 88.0372 263.038 154 263.038Z" fill="#F5F5F5"/>
<path d="M248.069 226.134V255.455H249.689V240.782C249.689 235.638 252.412 231.462 255.763 231.462C259.114 231.462 261.843 235.638 261.843 240.782V255.455H263.463V226.134H248.069Z" fill="#263238"/>
<path d="M224.452 226.134V255.455H226.916V240.782C226.978 238.351 227.988 236.04 229.73 234.343C231.471 232.645 233.807 231.696 236.239 231.696C238.671 231.696 241.007 232.645 242.748 234.343C244.49 236.04 245.5 238.351 245.562 240.782V255.455H248.026V226.134H224.452Z" fill="#263238"/>
<path d="M261.424 226.134H238.404L242.722 202.418H264.301L261.424 226.134Z" fill="#3B82F6"/>
<path d="M224.452 226.134V255.455H226.072V240.782C226.072 235.638 228.795 231.462 232.152 231.462C235.509 231.462 238.226 235.638 238.226 240.782V255.455H239.846V226.134H224.452Z" fill="#3B82F6"/>
<path d="M263.463 202.418L259.151 226.134H239.846V255.455H242.31V240.782C242.372 238.351 243.382 236.04 245.124 234.343C246.865 232.645 249.201 231.695 251.633 231.695C254.065 231.695 256.401 232.645 258.142 234.343C259.884 236.04 260.894 238.351 260.956 240.782V255.455H263.42V226.134L266.297 202.418H263.463Z" fill="#3B82F6"/>
<path opacity="0.2" d="M261.424 226.134H238.404L242.722 202.418H264.301L261.424 226.134Z" fill="white"/>
<path opacity="0.2" d="M224.452 226.134V255.455H226.072V240.782C226.072 235.638 228.795 231.462 232.152 231.462C235.509 231.462 238.226 235.638 238.226 240.782V255.455H239.846V226.134H224.452Z" fill="white"/>
<path d="M263.463 202.418L259.151 226.134H239.846V255.455H242.31V240.782C242.372 238.351 243.382 236.04 245.124 234.343C246.865 232.645 249.201 231.695 251.633 231.695C254.065 231.695 256.401 232.645 258.142 234.343C259.884 236.04 260.894 238.351 260.956 240.782V255.455H263.42V226.134L266.297 202.418H263.463Z" fill="#3B82F6"/>
<path opacity="0.4" d="M263.463 202.418L259.151 226.134H239.846V255.455H242.31V240.782C242.372 238.351 243.382 236.04 245.124 234.343C246.865 232.645 249.201 231.695 251.633 231.695C254.065 231.695 256.401 232.645 258.142 234.343C259.884 236.04 260.894 238.351 260.956 240.782V255.455H263.42V226.134L266.297 202.418H263.463Z" fill="white"/>
<path d="M259.342 204.45H231.869V207.081H259.342V204.45Z" fill="#3B82F6"/>
<path d="M231.862 204.45H188.952V207.081H231.862V204.45Z" fill="#3B82F6"/>
<path opacity="0.1" d="M259.342 204.45H231.869V207.081H259.342V204.45Z" fill="white"/>
<path opacity="0.5" d="M231.862 204.45H188.952V207.081H231.862V204.45Z" fill="white"/>
<path d="M226.565 255.455H228.006V207.081H226.565V255.455Z" fill="#3B82F6"/>
<path opacity="0.2" d="M226.565 255.455H228.006V207.081H226.565V255.455Z" fill="white"/>
<path d="M224.076 255.455H226.565V207.081H224.076V255.455Z" fill="#3B82F6"/>
<path opacity="0.4" d="M224.076 255.455H226.565V207.081H224.076V255.455Z" fill="white"/>
<path d="M194.015 255.455H195.457V207.081H194.015V255.455Z" fill="#3B82F6"/>
<path opacity="0.2" d="M194.015 255.455H195.457V207.081H194.015V255.455Z" fill="white"/>
<path d="M191.527 255.455H194.015V207.081H191.527V255.455Z" fill="#3B82F6"/>
<path opacity="0.4" d="M191.527 255.455H194.015V207.081H191.527V255.455Z" fill="white"/>
<path d="M253.644 255.455H255.086V207.081H253.644V255.455Z" fill="#3B82F6"/>
<path d="M251.162 255.455H253.65V207.081H251.162V255.455Z" fill="#3B82F6"/>
<path opacity="0.1" d="M251.162 255.455H253.65V207.081H251.162V255.455Z" fill="white"/>
<path d="M221.095 255.455H222.536V207.081H221.095V255.455Z" fill="#3B82F6"/>
<path d="M218.606 255.455H221.095V207.081H218.606V255.455Z" fill="#3B82F6"/>
<path opacity="0.2" d="M218.606 255.455H221.095V207.081H218.606V255.455Z" fill="white"/>
<path d="M213.191 209.44L211.245 227.982C211.245 227.982 211.744 232.072 211.756 234.062C211.787 238.201 210.925 252.461 210.925 252.461H206.693L203.533 209.44H213.191Z" fill="#B55B52"/>
<path d="M215.002 200.576L213.469 219.561H203.077L202.522 201.069L215.002 200.576Z" fill="#263238"/>
<path opacity="0.5" d="M214.423 207.697L213.549 218.508C212.268 216.583 211.413 214.407 211.04 212.125C210.667 209.843 210.785 207.508 211.387 205.276L212.81 204.968L214.423 207.697Z" fill="black"/>
<path d="M205.073 251.359C204.633 251.399 204.195 251.276 203.841 251.014C203.796 250.95 203.772 250.873 203.772 250.795C203.772 250.717 203.796 250.641 203.841 250.576C203.915 250.464 204.03 250.382 204.161 250.349C204.875 250.164 206.335 251.038 206.403 251.075C206.422 251.085 206.437 251.101 206.445 251.12C206.454 251.139 206.457 251.161 206.453 251.182C206.449 251.202 206.438 251.221 206.422 251.235C206.407 251.249 206.387 251.258 206.366 251.26C205.939 251.334 205.506 251.367 205.073 251.359ZM204.407 250.527C204.344 250.515 204.279 250.515 204.216 250.527C204.175 250.532 204.135 250.547 204.101 250.571C204.067 250.594 204.039 250.626 204.019 250.663C203.939 250.786 203.97 250.848 204.019 250.878C204.21 251.162 205.251 251.186 206.07 251.1C205.565 250.809 205.009 250.614 204.432 250.527H204.407Z" fill="#3B82F6"/>
<path d="M206.36 251.26H206.317C205.836 251.032 204.808 250.09 204.912 249.616C204.912 249.498 205.011 249.369 205.288 249.344C205.388 249.334 205.489 249.345 205.584 249.375C205.68 249.406 205.768 249.456 205.843 249.523C206.22 249.993 206.436 250.572 206.459 251.174C206.462 251.191 206.459 251.209 206.451 251.224C206.444 251.24 206.431 251.253 206.415 251.26C206.407 251.264 206.397 251.266 206.388 251.266C206.378 251.266 206.369 251.264 206.36 251.26ZM205.35 249.529H205.294C205.11 249.529 205.103 249.616 205.091 249.64C205.091 249.93 205.707 250.657 206.237 250.977C206.196 250.496 206.006 250.04 205.695 249.671C205.6 249.585 205.477 249.539 205.35 249.542V249.529Z" fill="#3B82F6"/>
<path d="M206.81 250.675L211.436 250.755C211.52 250.759 211.601 250.79 211.666 250.845C211.731 250.9 211.775 250.974 211.793 251.057L212.563 254.827C212.598 254.986 212.568 255.153 212.48 255.29C212.393 255.428 212.254 255.525 212.095 255.56H211.953C210.284 255.504 208.805 255.387 206.73 255.357C204.266 255.314 204.882 255.622 202.017 255.609C200.28 255.609 199.997 253.626 200.736 253.546C204.093 253.176 204.475 252.166 205.793 250.983C206.084 250.762 206.445 250.652 206.81 250.675Z" fill="#263238"/>
<path d="M223.201 207.906L225.32 226.386C225.32 226.386 227.52 232.133 227.901 234.086C228.696 238.152 231.376 248.661 231.376 248.661L227.224 250.17L213.093 209.705L223.201 207.906Z" fill="#B55B52"/>
<path d="M225.012 248.981C224.584 249.097 224.128 249.051 223.731 248.852C223.677 248.796 223.641 248.724 223.628 248.647C223.614 248.571 223.625 248.491 223.657 248.42C223.683 248.358 223.721 248.302 223.768 248.254C223.816 248.207 223.872 248.169 223.934 248.143C224.6 247.841 226.189 248.457 226.263 248.482C226.282 248.49 226.299 248.504 226.31 248.521C226.321 248.539 226.326 248.56 226.325 248.581C226.324 248.6 226.317 248.619 226.305 248.635C226.293 248.65 226.276 248.662 226.257 248.667C225.852 248.808 225.436 248.913 225.012 248.981ZM224.224 248.248C224.161 248.239 224.096 248.239 224.033 248.248C223.993 248.262 223.957 248.285 223.927 248.315C223.897 248.345 223.875 248.381 223.861 248.42C223.805 248.55 223.861 248.605 223.861 248.636C224.101 248.882 225.154 248.728 225.924 248.507C225.378 248.315 224.802 248.228 224.224 248.248Z" fill="#3B82F6"/>
<path d="M226.257 248.667C226.25 248.671 226.243 248.674 226.235 248.674C226.227 248.674 226.22 248.671 226.214 248.667C225.702 248.525 224.532 247.768 224.55 247.287C224.55 247.17 224.612 247.022 224.877 246.948C224.974 246.924 225.076 246.919 225.175 246.934C225.274 246.948 225.37 246.983 225.456 247.034C225.909 247.434 226.224 247.967 226.355 248.556C226.363 248.57 226.367 248.586 226.367 248.602C226.367 248.618 226.363 248.634 226.355 248.648C226.343 248.661 226.327 248.67 226.309 248.673C226.291 248.677 226.273 248.674 226.257 248.667ZM224.975 247.133H224.914C224.735 247.164 224.741 247.25 224.735 247.275C224.735 247.564 225.524 248.174 226.09 248.402C225.968 247.936 225.706 247.519 225.339 247.207C225.23 247.14 225.102 247.114 224.975 247.133Z" fill="#3B82F6"/>
<path d="M226.614 248.014L231.185 247.318C231.268 247.304 231.353 247.319 231.426 247.36C231.499 247.402 231.555 247.467 231.585 247.546L232.977 251.137C233.038 251.288 233.037 251.457 232.973 251.607C232.91 251.758 232.789 251.876 232.639 251.938H232.509C230.852 252.166 229.374 252.301 227.329 252.615C224.902 252.985 225.567 253.182 222.721 253.663C221.008 253.952 220.399 252.043 221.113 251.815C224.359 250.884 224.569 249.825 225.665 248.439C225.921 248.189 226.257 248.039 226.614 248.014Z" fill="#263238"/>
<path d="M222.992 199.652L223.959 208.83L225.222 217.158L215.483 219.247C215.483 219.247 211.171 206.311 208.707 200.533L222.992 199.652Z" fill="#263238"/>
<path d="M202.775 170.965C200.976 169.973 199.11 168.944 197.348 167.885C196.473 167.361 195.592 166.831 194.841 166.283C194.513 166.06 194.202 165.813 193.911 165.544C193.667 165.277 193.46 164.978 193.295 164.657C192.809 163.8 192.377 162.913 192.001 162.002C191.588 161.059 191.213 160.08 190.824 159.1C190.073 157.135 189.321 155.127 188.588 153.138C188.476 152.866 188.27 152.643 188.007 152.51C187.745 152.377 187.443 152.343 187.157 152.413C186.872 152.483 186.62 152.653 186.449 152.892C186.277 153.131 186.197 153.424 186.223 153.717C186.488 155.883 186.866 158.034 187.356 160.16C187.835 162.386 188.528 164.56 189.426 166.653C189.717 167.311 190.088 167.932 190.529 168.501C190.97 169.017 191.452 169.497 191.97 169.936C192.86 170.678 193.792 171.369 194.761 172.006C196.609 173.238 198.533 174.353 200.52 175.344C201.099 175.649 201.774 175.712 202.399 175.518C203.023 175.325 203.545 174.891 203.85 174.313C204.154 173.734 204.217 173.059 204.023 172.434C203.83 171.81 203.396 171.288 202.818 170.983L202.775 170.965Z" fill="#B55B52"/>
<path d="M223.454 179.201C225.343 180.075 227.305 180.78 229.318 181.307C230.4 181.595 231.505 181.784 232.62 181.874C233.316 181.931 234.016 181.893 234.702 181.763C235.189 181.671 235.658 181.499 236.088 181.252C236.492 181.01 236.855 180.706 237.166 180.352C237.612 179.832 237.983 179.251 238.269 178.628C238.508 178.112 238.714 177.581 238.885 177.038C239.204 176.029 239.458 175.001 239.642 173.958C240.013 171.96 240.219 169.935 240.258 167.903C240.258 167.609 240.152 167.324 239.96 167.101C239.767 166.878 239.502 166.731 239.21 166.687C238.919 166.643 238.622 166.705 238.372 166.861C238.123 167.018 237.937 167.258 237.85 167.54V167.577C237.326 169.425 236.76 171.273 236.15 173.028C235.852 173.887 235.51 174.73 235.127 175.554C234.96 175.927 234.769 176.289 234.554 176.638C234.402 176.894 234.215 177.128 234 177.334C233.932 177.402 233.907 177.377 233.951 177.334C233.994 177.291 234.043 177.285 233.951 177.279C233.666 177.276 233.382 177.252 233.101 177.205C232.265 177.06 231.442 176.855 230.637 176.589C228.943 176.047 227.138 175.357 225.474 174.667H225.413C224.815 174.417 224.143 174.414 223.543 174.656C222.942 174.898 222.461 175.367 222.203 175.961C221.946 176.556 221.933 177.227 222.167 177.831C222.401 178.435 222.863 178.923 223.454 179.188V179.201Z" fill="#B55B52"/>
<path d="M222.142 172.437C222.179 182.009 222.796 191.571 223.99 201.069L202.184 202.387C202.184 202.387 199.781 178.886 202.251 170.164C202.245 170.164 210.771 169.492 222.142 172.437Z" fill="#3B82F6"/>
<path d="M204.229 170.965C202.633 170.047 197.835 166.708 197.835 166.708L195.371 173.767C195.371 173.767 201.906 178.578 204.229 175.449C206.551 172.32 205.196 171.525 204.229 170.965Z" fill="#3B82F6"/>
<path d="M222.142 172.437C223.854 172.776 228.715 174.852 228.715 174.852L226.405 181.56C226.405 181.56 218.36 178.578 218.686 175.449C219.013 172.32 221.015 172.215 222.142 172.437Z" fill="#3B82F6"/>
<path d="M185.989 152.971L185.373 150.433L189.648 150.255C189.648 150.255 189.753 152.817 188.613 154.468L188.059 154.382C187.628 154.322 187.218 154.164 186.859 153.919C186.5 153.674 186.202 153.35 185.989 152.971Z" fill="#B55B52"/>
<path d="M187.085 148.13L188.57 148.259C188.731 148.272 188.889 148.317 189.033 148.391C189.177 148.465 189.305 148.567 189.409 148.69C189.514 148.814 189.593 148.957 189.643 149.111C189.692 149.266 189.711 149.428 189.697 149.589L189.648 150.255L185.373 150.433L185.786 149.017C185.865 148.74 186.038 148.5 186.275 148.338C186.513 148.177 186.799 148.103 187.085 148.13Z" fill="#B55B52"/>
<path d="M237.246 168.002L236.267 165.587L240.474 164.792C240.474 164.792 240.948 167.312 240.055 169.104H239.495C239.06 169.107 238.631 169.009 238.24 168.818C237.85 168.627 237.51 168.347 237.246 168.002Z" fill="#B55B52"/>
<path d="M237.628 163.055L239.119 162.969C239.281 162.958 239.444 162.98 239.598 163.032C239.752 163.084 239.894 163.167 240.016 163.275C240.138 163.382 240.238 163.513 240.309 163.659C240.38 163.806 240.422 163.965 240.431 164.127L240.474 164.792L236.267 165.587L236.47 164.121C236.508 163.836 236.645 163.574 236.857 163.379C237.068 163.184 237.341 163.07 237.628 163.055Z" fill="#B55B52"/>
<path d="M214.75 166.24C214.75 166.24 213.647 170.958 214.953 171.266C214.953 171.266 211.387 173.632 209.218 173.373C207.05 173.114 209.218 168.396 209.077 166.905L214.75 166.24Z" fill="#B55B52"/>
<path opacity="0.2" d="M209.077 166.936L214.263 166.32L214.43 166.492C214.43 166.492 212.391 170.737 208.769 168.926C208.961 168.28 209.065 167.61 209.077 166.936Z" fill="black"/>
<path d="M218.581 156.723C218.437 155.991 218.15 155.295 217.736 154.674C217.322 154.053 216.789 153.521 216.169 153.106C215.548 152.692 214.852 152.404 214.12 152.259C213.389 152.115 212.635 152.116 211.904 152.263C207.592 153.082 205.861 159.039 205.997 162.852C206.163 167.084 210.875 169.264 214.584 166.733C217.048 165.082 217.405 163.339 218.464 159.341C218.707 158.489 218.747 157.593 218.581 156.723Z" fill="#B55B52"/>
<path d="M212.07 158.817C211.861 158.749 211.614 158.953 211.504 159.273C211.393 159.593 211.467 159.889 211.682 159.975C211.898 160.061 212.15 159.846 212.255 159.526C212.36 159.205 212.286 158.891 212.07 158.817Z" fill="#263238"/>
<path d="M208.461 157.585C208.251 157.517 207.992 157.721 207.888 158.041C207.783 158.361 207.888 158.657 208.066 158.749C208.245 158.842 208.534 158.614 208.645 158.294C208.756 157.973 208.67 157.653 208.461 157.585Z" fill="#263238"/>
<path d="M208.695 161.17C208.486 161.149 208.284 161.083 208.104 160.977C207.923 160.871 207.767 160.726 207.647 160.554C208.343 160.105 208.975 159.564 209.526 158.946L208.695 161.17Z" fill="#A02724"/>
<path d="M213.358 158.521C213.405 158.5 213.442 158.461 213.46 158.412C213.479 158.364 213.477 158.31 213.456 158.263C213 157.24 211.676 156.981 211.608 156.957C211.583 156.951 211.556 156.95 211.53 156.954C211.504 156.958 211.48 156.968 211.458 156.983C211.436 156.997 211.417 157.016 211.403 157.038C211.388 157.06 211.379 157.085 211.374 157.111C211.365 157.162 211.376 157.215 211.404 157.259C211.433 157.302 211.477 157.333 211.528 157.345C211.846 157.408 212.146 157.536 212.411 157.722C212.677 157.908 212.9 158.146 213.068 158.423C213.082 158.463 213.109 158.497 213.145 158.519C213.181 158.542 213.223 158.551 213.265 158.546C213.282 158.55 213.298 158.549 213.314 158.545C213.331 158.541 213.345 158.533 213.358 158.521Z" fill="#263238"/>
<path d="M208.239 156.328C208.472 156.24 208.723 156.208 208.972 156.235C209.22 156.261 209.459 156.346 209.668 156.482C209.689 156.498 209.712 156.51 209.737 156.517C209.762 156.523 209.788 156.525 209.814 156.522C209.84 156.518 209.865 156.51 209.887 156.497C209.91 156.484 209.929 156.466 209.945 156.446C209.975 156.404 209.987 156.352 209.978 156.301C209.97 156.251 209.943 156.205 209.902 156.174C209.643 155.995 209.345 155.882 209.032 155.845C208.72 155.807 208.403 155.846 208.109 155.959C208.06 155.974 208.018 156.009 207.994 156.055C207.97 156.102 207.965 156.155 207.98 156.205C207.992 156.239 208.013 156.269 208.04 156.293C208.067 156.316 208.099 156.333 208.134 156.341C208.169 156.344 208.205 156.34 208.239 156.328Z" fill="#263238"/>
<path d="M207.931 162.624C207.922 162.805 207.948 162.986 208.01 163.156C208.071 163.327 208.165 163.484 208.287 163.618C208.409 163.752 208.556 163.86 208.72 163.937C208.884 164.014 209.062 164.058 209.243 164.065C209.767 164.202 210.323 164.154 210.816 163.929C211.31 163.705 211.711 163.318 211.953 162.833C210.63 162.594 209.287 162.482 207.943 162.501C207.936 162.541 207.932 162.583 207.931 162.624Z" fill="white"/>
<path d="M216.727 162.359C216.727 162.359 216.111 160.733 216.727 157.955C216.473 158.09 216.191 158.164 215.903 158.173C215.615 158.182 215.329 158.125 215.067 158.006C214.804 157.887 214.573 157.709 214.39 157.487C214.207 157.264 214.077 157.003 214.011 156.723C214.011 156.723 210.105 156.951 210.155 154.69C210.155 154.69 206.07 155.922 206.551 152.996C207.031 150.07 216.752 147.501 219.69 154.049C219.69 154.049 226.971 159.692 217.436 164.096C217.436 164.096 216.641 165.396 216.247 165.328C215.853 165.26 216.727 162.359 216.727 162.359Z" fill="#263238"/>
<path d="M219.124 162.408C219.161 162.232 219.164 162.049 219.131 161.871C219.099 161.693 219.031 161.524 218.933 161.372C218.834 161.221 218.707 161.09 218.558 160.988C218.409 160.885 218.241 160.813 218.064 160.776C217.048 160.567 216.124 161.712 215.809 162.562C215.495 163.412 215.914 164.46 216.955 164.238C217.739 164.064 218.424 163.591 218.865 162.92C218.985 162.768 219.073 162.595 219.124 162.408Z" fill="#B55B52"/>
<path d="M215.218 170.09C215.218 170.09 211.214 172.948 209.884 172.868C208.553 172.788 208.528 169.591 208.528 169.591L206.551 170.096V174.852L209.711 173.62L212.557 175.468L216.974 171.31L215.218 170.09Z" fill="#3B82F6"/>
<path opacity="0.8" d="M215.218 170.09C215.218 170.09 211.214 172.948 209.884 172.868C208.553 172.788 208.528 169.591 208.528 169.591L206.551 170.096V174.852L209.711 173.62L212.557 175.468L216.974 171.31L215.218 170.09Z" fill="white"/>
<path d="M169.511 151.973H205.559V122.128H169.511V151.973Z" fill="#3B82F6"/>
<path opacity="0.8" d="M169.511 151.973H205.559V122.128H169.511V151.973Z" fill="white"/>
<path d="M234.413 157.314L233.144 156.698C233.092 156.676 233.036 156.667 232.98 156.674C232.925 156.68 232.872 156.702 232.827 156.736C232.782 156.77 232.748 156.815 232.726 156.867C232.705 156.919 232.698 156.975 232.706 157.031L232.928 158.417L238.601 165.944L240.092 164.823L234.413 157.314Z" fill="#3B82F6"/>
<path opacity="0.5" d="M234.831 157.862L239.482 164.035L237.979 165.137L233.372 159.02L234.831 157.862Z" fill="white"/>
<path d="M235.312 158.503L233.864 159.68L233.599 159.328L235.047 158.152L235.312 158.503Z" fill="#3B82F6"/>
<path d="M237.677 164.737L237.413 164.386L238.928 163.295L239.193 163.647L237.677 164.737Z" fill="#3B82F6"/>
<path d="M177.981 138.323C178.123 139.161 179.478 139.9 180.026 140.029C181.227 140.312 184.079 139.462 185.25 139.08L186.211 142.696C185.737 142.733 185.28 142.884 184.879 143.138C184.478 143.391 184.145 143.739 183.909 144.151C183.673 144.563 183.542 145.027 183.526 145.501C183.511 145.976 183.612 146.446 183.821 146.873C182.527 147.44 180.827 148.388 181.147 149.337C181.467 150.286 182.681 150.569 184.159 150.569C186.154 150.488 188.133 150.184 190.061 149.663L190.615 149.522L190.356 149.004C190.197 148.644 190.179 148.237 190.307 147.865C190.517 147.355 190.907 146.941 191.404 146.7C192.149 147.52 194.453 149.78 197.065 149.583C198.734 149.46 200.182 148.351 201.377 146.355L201.74 145.739L201.032 145.659C200.736 145.622 193.781 144.68 192.007 133.019C192.371 132.403 193.572 130.229 193.017 128.288C192.858 127.763 192.582 127.281 192.21 126.877C191.837 126.474 191.379 126.16 190.868 125.96C187.061 124.229 185.09 125.615 184.671 125.96C182.61 126.776 180.744 128.016 179.194 129.6C178.957 129.813 178.785 130.088 178.697 130.394C178.609 130.7 178.608 131.025 178.695 131.331C179.219 132.939 182.539 133.795 183.519 134.029L184.184 135.458C182.866 135.458 180.248 135.545 179.293 136.142C178.769 136.481 177.858 137.577 177.981 138.323ZM187.258 128.467C187.503 128.467 187.738 128.369 187.911 128.196C188.084 128.023 188.182 127.788 188.182 127.543V127.426L188.89 127.167C189.026 127.752 189.124 128.756 188.274 129.138C188.164 129.19 188.044 129.217 187.923 129.217C187.802 129.217 187.682 129.19 187.572 129.138C187.136 128.871 186.798 128.469 186.611 127.992L187.258 127.752V128.448V128.467ZM178.893 138.169C179.047 137.675 179.356 137.243 179.773 136.937C180.525 136.475 183.315 136.358 184.899 136.401H185.638L184.184 133.241L183.956 133.192C182.435 132.884 179.909 132.027 179.595 131.066C179.564 130.974 179.478 130.703 179.89 130.247C181.366 128.755 183.137 127.586 185.09 126.816L185.188 126.779L185.262 126.705C185.317 126.65 186.402 125.633 188.822 126.212L185.459 127.444L185.595 127.863C185.644 128.029 186.143 129.502 187.221 129.982C187.438 130.08 187.673 130.13 187.911 130.13C188.172 130.129 188.431 130.072 188.668 129.964C190.245 129.261 190.024 127.401 189.666 126.446C189.931 126.545 190.208 126.65 190.504 126.785C190.892 126.93 191.241 127.161 191.526 127.461C191.811 127.761 192.024 128.122 192.149 128.516C192.672 130.364 191.169 132.625 191.157 132.643L191.059 132.791V132.97C192.605 143.473 198.235 145.906 200.225 146.417C199.282 147.809 198.198 148.555 197.003 148.641C194.354 148.832 191.902 145.838 191.878 145.813L191.65 145.53L191.317 145.684C190.891 145.852 190.504 146.106 190.178 146.429C189.853 146.752 189.597 147.138 189.426 147.563C189.289 147.984 189.263 148.434 189.352 148.869C185.964 149.682 182.324 149.953 182.028 149.054C182.102 148.795 183.322 148.049 184.578 147.544L184.997 147.372L184.837 146.947C184.418 145.881 184.4 145.05 184.775 144.483C185.391 143.59 186.79 143.54 186.808 143.54H187.387L185.884 137.892L185.416 138.052C183.882 138.582 181.104 139.339 180.242 139.13C179.699 138.966 179.225 138.628 178.893 138.169Z" fill="#3B82F6"/>
<path d="M185.034 130.592L184.073 133.087L183.229 130.623L182.336 132.064L181.566 130.444L181.209 130.925L180.833 130.647C180.736 130.573 180.673 130.464 180.655 130.343C180.638 130.222 180.669 130.099 180.741 130.001L181.745 128.67L182.447 130.142L183.476 128.491L184.129 130.389L184.849 128.541L186.161 130.666C186.22 130.768 186.237 130.889 186.21 131.003C186.182 131.118 186.112 131.217 186.014 131.282C185.911 131.34 185.791 131.358 185.676 131.33C185.562 131.303 185.462 131.233 185.398 131.134L185.034 130.592Z" fill="#3B82F6"/>
<path d="M55.6248 226.134V255.455H57.2449V240.782C57.2449 235.638 59.9676 231.462 63.3248 231.462C66.682 231.462 69.3986 235.638 69.3986 240.782V255.455H71.0187V226.134H55.6248Z" fill="#263238"/>
<path d="M71.0186 226.134V255.455H73.4826V240.782C73.5451 238.351 74.5548 236.04 76.2964 234.343C78.0381 232.645 80.3738 231.696 82.8058 231.696C85.2378 231.696 87.5735 232.645 89.3152 234.343C91.0568 236.04 92.0665 238.351 92.129 240.782V255.455H94.593V226.134H71.0186Z" fill="#263238"/>
<path d="M54.787 202.418H76.3655L80.6837 226.134H57.6638L54.787 202.418Z" fill="#3B82F6"/>
<path d="M79.2422 226.134V255.455H80.8623V240.782C80.8623 235.638 83.5851 231.462 86.9361 231.462C90.2871 231.462 93.016 235.638 93.016 240.782V255.455H94.6361V226.134H79.2422Z" fill="#3B82F6"/>
<path d="M52.7481 202.418L55.6248 226.134V255.455H58.0888V240.782C58.1513 238.351 59.161 236.04 60.9026 234.343C62.6442 232.645 64.98 231.695 67.412 231.695C69.8439 231.695 72.1797 232.645 73.9213 234.343C75.6629 236.04 76.6726 238.351 76.7351 240.782V255.455H79.1991V226.134H59.943L55.631 202.418H52.7481Z" fill="#3B82F6"/>
<path opacity="0.2" d="M54.787 202.418H76.3655L80.6837 226.134H57.6638L54.787 202.418Z" fill="white"/>
<path opacity="0.2" d="M79.2422 226.134V255.455H80.8623V240.782C80.8623 235.638 83.5851 231.462 86.9361 231.462C90.2871 231.462 93.016 235.638 93.016 240.782V255.455H94.6361V226.134H79.2422Z" fill="white"/>
<path d="M52.7481 202.418L55.6248 226.134V255.455H58.0888V240.782C58.1513 238.351 59.161 236.04 60.9026 234.343C62.6442 232.645 64.98 231.695 67.412 231.695C69.8439 231.695 72.1797 232.645 73.9213 234.343C75.6629 236.04 76.6726 238.351 76.7351 240.782V255.455H79.1991V226.134H59.943L55.631 202.418H52.7481Z" fill="#3B82F6"/>
<path opacity="0.4" d="M52.7481 202.418L55.6248 226.134V255.455H58.0888V240.782C58.1513 238.351 59.161 236.04 60.9026 234.343C62.6442 232.645 64.98 231.695 67.412 231.695C69.8439 231.695 72.1797 232.645 73.9213 234.343C75.6629 236.04 76.6726 238.351 76.7351 240.782V255.455H79.1991V226.134H59.943L55.631 202.418H52.7481Z" fill="white"/>
<path d="M87.7861 190.96C89.1598 188.558 90.4288 186.149 91.6361 183.667C92.2521 182.435 92.8312 181.203 93.3794 179.89C93.9277 178.578 94.4821 177.322 94.9502 175.88C95.0673 175.535 95.172 175.116 95.2829 174.735C95.3937 174.353 95.4615 173.915 95.5231 173.54C95.6463 172.782 95.7079 172.061 95.7634 171.347C95.8804 169.93 95.905 168.544 95.9235 167.158C95.9235 164.392 95.8373 161.663 95.597 158.91C95.5709 158.571 95.4208 158.254 95.1756 158.019C94.9303 157.784 94.6071 157.648 94.2678 157.637C93.9284 157.625 93.5968 157.739 93.3363 157.957C93.0758 158.175 92.9047 158.481 92.8558 158.817C92.4431 161.484 92.0735 164.176 91.6854 166.825C91.5006 168.143 91.2974 169.468 91.0694 170.737C90.9524 171.353 90.823 171.969 90.6875 172.585C90.5502 173.12 90.3752 173.645 90.1639 174.156C89.7019 175.264 89.129 176.459 88.5438 177.63C87.9586 178.8 87.3118 179.989 86.6958 181.172L82.9198 188.256C82.5906 188.897 82.5244 189.642 82.7352 190.331C82.946 191.021 83.4172 191.601 84.0488 191.949C84.6804 192.297 85.4227 192.385 86.1182 192.195C86.8137 192.004 87.4076 191.55 87.7738 190.929L87.7861 190.96Z" fill="#FFB573"/>
<path d="M89.357 190.282C88.0818 191.792 86.3878 192.66 84.2565 191.594C78.7125 188.835 86.5419 179.89 86.5419 179.89L92.4801 183.488C92.4801 183.488 91.4883 187.763 89.357 190.282Z" fill="#3B82F6"/>
<path d="M96.8968 213.752L91.784 223.608H97.137C95.7757 227.526 98.8126 251.266 98.8126 251.266H103.211C103.211 251.266 106.014 222.093 106.168 218.816C106.322 215.538 101.578 213.974 99.3916 213.703C98.7633 213.653 96.8968 213.752 96.8968 213.752Z" fill="#FFB573"/>
<path d="M73.304 210.389C73.304 210.389 67.3041 224.698 76.7413 225.253C83.0563 225.521 89.3817 225.093 95.6032 223.978C97.1555 213.259 102.379 213.986 102.379 213.986C98.1473 211.83 93.7552 212.945 90.7121 211.984C90.0961 211.799 88.7163 210.389 88.7163 210.389H73.304Z" fill="#263238"/>
<path opacity="0.5" d="M73.304 210.389C73.304 210.389 67.3041 224.698 76.7413 225.253C83.0563 225.521 89.3817 225.093 95.6032 223.978C97.1555 213.259 102.379 213.986 102.379 213.986C98.1473 211.83 93.7552 212.945 90.7121 211.984C90.0961 211.799 88.7163 210.389 88.7163 210.389H73.304Z" fill="black"/>
<path d="M101.899 213.284C101.899 213.284 99.6072 212.964 96.8599 216.98C94.1125 220.996 94.5006 224.575 94.5006 224.575L96.0221 224.298C96.0221 224.298 96.6381 220.023 98.8619 217.3C99.4766 216.515 100.251 215.869 101.133 215.404C102.015 214.939 102.986 214.665 103.981 214.602L101.899 213.284Z" fill="#3B82F6"/>
<path d="M103.568 251.26C103.549 251.257 103.531 251.249 103.517 251.235C103.503 251.222 103.493 251.205 103.488 251.186C103.484 251.166 103.486 251.144 103.493 251.125C103.501 251.105 103.514 251.088 103.531 251.075C103.599 251.038 105.065 250.164 105.773 250.349C105.905 250.382 106.019 250.464 106.094 250.576C106.138 250.641 106.162 250.717 106.162 250.795C106.162 250.873 106.138 250.95 106.094 251.014C105.739 251.276 105.301 251.399 104.862 251.359C104.428 251.367 103.995 251.334 103.568 251.26ZM105.515 250.527C104.938 250.614 104.382 250.809 103.876 251.1C104.671 251.186 105.724 251.162 105.927 250.878C105.927 250.878 105.983 250.786 105.927 250.663C105.906 250.626 105.877 250.595 105.841 250.571C105.806 250.548 105.766 250.533 105.724 250.527C105.661 250.515 105.596 250.515 105.533 250.527H105.515Z" fill="#3B82F6"/>
<path d="M103.488 251.26C103.473 251.252 103.46 251.239 103.452 251.224C103.443 251.209 103.439 251.191 103.439 251.174C103.464 250.572 103.68 249.994 104.055 249.523C104.13 249.457 104.218 249.407 104.313 249.376C104.409 249.345 104.509 249.334 104.609 249.344C104.886 249.344 104.991 249.498 104.991 249.616C105.09 250.09 104.061 251.032 103.58 251.26H103.537C103.53 251.264 103.521 251.266 103.513 251.266C103.504 251.266 103.496 251.264 103.488 251.26ZM104.56 249.542C104.433 249.539 104.309 249.585 104.215 249.671C103.903 250.04 103.714 250.496 103.673 250.977C104.196 250.657 104.849 249.93 104.819 249.64C104.819 249.64 104.819 249.529 104.615 249.529H104.56V249.542Z" fill="#3B82F6"/>
<path d="M104.104 250.983C105.422 252.166 105.804 253.176 109.161 253.546C109.901 253.626 109.617 255.609 107.88 255.609C104.997 255.609 105.619 255.314 103.168 255.357C101.098 255.357 99.6134 255.504 97.944 255.56H97.8023C97.6432 255.525 97.5045 255.428 97.4168 255.29C97.329 255.153 97.2993 254.986 97.3342 254.827L98.1042 251.057C98.1218 250.974 98.1665 250.9 98.2312 250.845C98.2959 250.79 98.3769 250.759 98.4614 250.755L103.088 250.675C103.453 250.651 103.814 250.761 104.104 250.983Z" fill="#263238"/>
<path d="M85.3529 216.062L80.2401 225.493H86.0737C84.7185 229.411 87.7492 251.229 87.7492 251.229H92.1474C92.1474 251.229 95.4184 223.023 95.5847 219.74C95.751 216.456 87.8354 216.044 87.8354 216.044L85.3529 216.062Z" fill="#FFB573"/>
<path d="M84.5275 211.356C84.5275 211.356 85.0881 212.483 85.3653 212.914C86.7082 214.966 93.5889 216.801 93.5889 216.801C86.5049 218.243 84.2811 225.856 84.2811 225.856C84.2811 225.856 85.4762 226.811 75.5278 225.856C65.5794 224.902 66.9038 210.389 66.9038 210.389L84.5275 211.356Z" fill="#263238"/>
<path d="M93.016 216.216C84.3058 219.413 82.7719 226.54 82.7719 226.54L84.8663 226.269C86.8991 220.774 95.1104 217.448 95.1104 217.448L93.016 216.216Z" fill="#3B82F6"/>
<path d="M92.4 251.26C92.3797 251.258 92.3606 251.25 92.3452 251.237C92.3297 251.224 92.3187 251.206 92.3138 251.186C92.3097 251.166 92.3116 251.144 92.3192 251.125C92.3268 251.105 92.3399 251.088 92.3569 251.075C92.4246 251.038 93.8907 250.164 94.5991 250.349C94.7304 250.382 94.8445 250.464 94.9194 250.576C94.9642 250.641 94.9882 250.717 94.9882 250.795C94.9882 250.873 94.9642 250.95 94.9194 251.014C94.5649 251.276 94.1265 251.399 93.6874 251.359C93.2561 251.367 92.825 251.334 92.4 251.26ZM94.3404 250.527C93.7633 250.614 93.2075 250.809 92.7018 251.1C93.4965 251.186 94.5498 251.162 94.7593 250.878C94.7593 250.878 94.8086 250.786 94.7593 250.663C94.738 250.626 94.7086 250.595 94.6734 250.571C94.6381 250.548 94.598 250.533 94.556 250.527C94.4929 250.515 94.4281 250.515 94.365 250.527H94.3404Z" fill="#3B82F6"/>
<path d="M92.3569 251.26C92.3418 251.252 92.3293 251.239 92.3206 251.224C92.3119 251.209 92.3075 251.191 92.3076 251.174C92.3327 250.572 92.5484 249.994 92.9236 249.523C92.9987 249.457 93.0867 249.407 93.1821 249.376C93.2776 249.345 93.3783 249.334 93.478 249.344C93.7552 249.344 93.8599 249.498 93.8599 249.616C93.9585 250.09 92.9298 251.032 92.4555 251.26H92.4C92.386 251.265 92.3709 251.265 92.3569 251.26ZM93.4287 249.542C93.3017 249.54 93.1787 249.586 93.0838 249.671C92.7745 250.041 92.5854 250.497 92.5417 250.977C93.0653 250.657 93.7183 249.93 93.6875 249.64C93.6875 249.64 93.6875 249.529 93.4842 249.529H93.4287V249.542Z" fill="#3B82F6"/>
<path d="M92.979 250.983C94.2973 252.166 94.6792 253.176 98.0364 253.546C98.7756 253.626 98.4922 255.609 96.7551 255.609C93.8722 255.609 94.4944 255.314 92.0427 255.357C89.973 255.357 88.4884 255.504 86.819 255.56H86.6774C86.5182 255.525 86.3795 255.428 86.2918 255.29C86.204 255.153 86.1743 254.986 86.2092 254.827L86.9792 251.057C86.9969 250.974 87.0416 250.9 87.1062 250.845C87.1709 250.79 87.2519 250.759 87.3365 250.755L91.9626 250.675C92.3276 250.651 92.6887 250.761 92.979 250.983Z" fill="#263238"/>
<path d="M69.7559 185.114C64.5753 187.209 66.6389 195.05 66.8052 202.633C66.9962 211.454 66.5342 211.467 66.5342 211.467C74.0997 213.114 81.9473 212.949 89.4371 210.986C85.7411 198.241 87.9525 183.753 87.9525 183.753C87.9525 183.753 78.5647 181.597 69.7559 185.114Z" fill="#3B82F6"/>
<path d="M71.7763 187.535L66.8483 181.203C66.029 180.149 65.2282 179.084 64.4398 178.03C63.6513 176.977 62.8936 175.899 62.2468 174.882C61.9493 174.418 61.6878 173.932 61.4645 173.429C61.2304 172.88 60.9902 172.295 60.7684 171.685C60.3249 170.453 59.8998 169.221 59.4871 167.934C58.6555 165.396 57.8239 162.809 56.9615 160.252C56.8569 159.928 56.6357 159.653 56.3405 159.482C56.0453 159.311 55.6971 159.255 55.3632 159.325C55.0293 159.396 54.7333 159.587 54.5325 159.863C54.3317 160.139 54.2402 160.48 54.2758 160.819C54.516 163.566 54.8918 166.277 55.3722 169C55.631 170.361 55.8958 171.716 56.2531 173.096C56.4318 173.786 56.6166 174.488 56.8691 175.215C56.9923 175.578 57.1463 175.985 57.3065 176.348C57.4666 176.712 57.6576 177.1 57.8362 177.42C58.5446 178.757 59.3023 179.927 60.0723 181.116C60.8423 182.305 61.637 183.408 62.4378 184.535C64.0578 186.771 65.721 188.927 67.489 191.059C67.9641 191.58 68.6205 191.901 69.3242 191.956C70.0279 192.011 70.726 191.795 71.276 191.352C71.826 190.91 72.1865 190.275 72.2841 189.575C72.3816 188.876 72.2089 188.167 71.801 187.59L71.7763 187.535Z" fill="#FFB573"/>
<path d="M61.2057 184.135L66.6019 179.89C66.6019 179.89 76.8152 187.369 71.5299 191.792C66.4418 196.073 61.2057 184.135 61.2057 184.135Z" fill="#3B82F6"/>
<path d="M74.2957 178.233C74.2957 178.233 75.5647 183.161 73.6797 184.233C74.3539 185.008 75.1897 185.626 76.1284 186.043C77.0671 186.461 78.0858 186.667 79.1129 186.648C82.7288 186.648 80.9609 183.229 80.9609 183.229C80.9609 183.229 80.1847 183.038 79.8028 180.316C79.4209 177.593 74.2957 178.233 74.2957 178.233Z" fill="#FFB573"/>
<path d="M71.7702 169.08C71.9732 168.378 72.3129 167.724 72.7697 167.154C73.2265 166.584 73.7914 166.11 74.4319 165.759C75.0724 165.408 75.776 165.187 76.5021 165.109C77.2282 165.031 77.9627 165.097 78.6632 165.304C82.7966 166.492 83.9916 172.425 83.5111 176.17C82.9814 180.303 78.1827 182.706 74.7762 179.903C72.5094 178.055 72.3122 175.659 71.6346 171.636C71.4798 170.785 71.5262 169.91 71.7702 169.08Z" fill="#FFB573"/>
<path d="M78.195 171.722C78.4291 171.661 78.6755 171.87 78.7556 172.197C78.8357 172.523 78.7556 172.813 78.5338 172.88C78.3121 172.948 78.0903 172.72 78.0041 172.394C77.9178 172.067 77.9671 171.784 78.195 171.722Z" fill="#263238"/>
<path d="M81.8603 170.743C82.0697 170.681 82.3038 170.903 82.39 171.217C82.4763 171.531 82.39 171.833 82.1744 171.895C81.9588 171.956 81.7247 171.741 81.6323 171.42C81.5399 171.1 81.6508 170.798 81.8603 170.743Z" fill="#263238"/>
<path d="M81.312 175.049C81.591 175.049 81.8667 174.989 82.1199 174.872C82.3732 174.755 82.5978 174.584 82.7781 174.371C81.9396 173.681 81.1996 172.879 80.5789 171.987L81.312 175.049Z" fill="#ED893E"/>
<path d="M76.5072 171.149C76.5917 170.92 76.7297 170.715 76.9097 170.55C77.0897 170.385 77.3065 170.265 77.5421 170.201C77.5692 170.199 77.5957 170.191 77.6197 170.178C77.6438 170.165 77.6649 170.148 77.6818 170.126C77.6987 170.105 77.7109 170.08 77.7178 170.054C77.7247 170.028 77.726 170 77.7218 169.973C77.7175 169.946 77.7077 169.921 77.693 169.898C77.6783 169.875 77.659 169.855 77.6363 169.84C77.6137 169.825 77.5881 169.815 77.5613 169.81C77.5345 169.805 77.5069 169.806 77.4805 169.813C77.1822 169.892 76.9067 170.04 76.6766 170.245C76.4464 170.451 76.2681 170.708 76.1561 170.995C76.1394 171.044 76.1416 171.097 76.1621 171.143C76.1827 171.19 76.2201 171.228 76.267 171.248H76.3594C76.39 171.244 76.4193 171.233 76.445 171.216C76.4707 171.199 76.492 171.176 76.5072 171.149Z" fill="#263238"/>
<path d="M82.7719 169.548C82.7896 169.531 82.8037 169.51 82.8133 169.487C82.8229 169.465 82.8278 169.44 82.8278 169.415C82.8278 169.391 82.8229 169.366 82.8133 169.344C82.8037 169.321 82.7896 169.3 82.7719 169.283C82.5772 169.04 82.3261 168.849 82.0405 168.725C81.7549 168.602 81.4435 168.55 81.1334 168.575C81.0832 168.584 81.0384 168.612 81.0085 168.653C80.9787 168.694 80.966 168.746 80.9732 168.796C80.9822 168.847 81.0104 168.891 81.0518 168.921C81.0931 168.951 81.1444 168.964 81.1949 168.956C81.437 168.945 81.6784 168.99 81.8998 169.088C82.1212 169.187 82.3165 169.336 82.4701 169.523C82.4906 169.548 82.5174 169.567 82.5478 169.578C82.5782 169.589 82.6109 169.591 82.6426 169.585C82.6888 169.59 82.7353 169.577 82.7719 169.548Z" fill="#263238"/>
<path d="M81.3736 176.361C80.1782 176.05 78.958 175.844 77.7269 175.745C77.9733 176.527 78.5092 177.205 79.8952 177.353C81.2812 177.5 81.3736 176.361 81.3736 176.361Z" fill="white"/>
<path d="M73.1747 174.285C73.1747 174.285 75.4723 172.856 73.6921 169.665C73.6921 169.665 76.2177 170.521 76.8337 168.839C76.8337 168.839 79.5687 169.24 79.3346 167.607C79.3346 167.607 81.8295 168.956 81.9095 167.226C81.9095 167.226 84.2318 166.074 83.6097 164.835C82.9136 163.449 80.4496 164.644 80.4496 164.644C80.4496 164.644 80.9917 162.95 79.6796 162.488C78.3675 162.026 77.5544 163.911 77.5544 163.911C77.5544 163.911 76.6735 162.063 75.2382 162.476C73.803 162.889 74.1233 165.07 74.1233 165.07C74.1233 165.07 72.6202 163.72 71.5422 164.644C70.4642 165.568 71.1357 167.497 71.1357 167.497C71.1357 167.497 69.6203 167.262 69.2507 168.575C68.8257 170.053 70.4027 170.718 70.4027 170.718C70.0486 170.893 69.7622 171.18 69.5884 171.534C69.4145 171.888 69.3629 172.29 69.4417 172.677C69.6327 174.168 70.7107 173.965 70.7107 173.965C70.7107 173.965 72.226 178.893 73.1747 177.932C74.1233 176.971 73.1747 174.285 73.1747 174.285Z" fill="#263238"/>
<path d="M70.84 172.794C72.109 172.394 73.4395 173.743 73.92 174.79C74.4806 175.954 74.0247 177.211 72.688 177.063C71.6714 176.941 70.7429 176.425 70.1008 175.628C69.9056 175.412 69.7671 175.152 69.6978 174.87C69.6285 174.587 69.6307 174.292 69.704 174.011C69.7774 173.73 69.9197 173.471 70.118 173.259C70.3163 173.046 70.5645 172.887 70.84 172.794Z" fill="#FFB573"/>
<path d="M57.2079 160.813H93.2562V130.968H57.2079L57.2079 160.813Z" fill="#3B82F6"/>
<path opacity="0.8" d="M57.2079 160.813H93.2562V130.968H57.2079L57.2079 160.813Z" fill="white"/>
<path d="M77.616 146.195C74.4313 146.195 71.7332 144.618 71.2897 142.499C70.6886 141.571 70.3717 140.488 70.378 139.382C70.378 136.623 72.263 134.38 74.5853 134.38C76.3655 134.38 77.9302 135.686 78.5338 137.658C81.6754 137.959 84.0101 139.752 84.0101 141.896C84.0224 144.273 81.158 146.195 77.616 146.195ZM74.5853 135.015C72.6079 135.015 70.994 136.98 70.994 139.401C70.987 140.404 71.2809 141.387 71.8379 142.222L71.8872 142.339C72.226 144.187 74.69 145.579 77.616 145.579C80.8069 145.579 83.3941 143.935 83.3941 141.883C83.3941 140.035 81.195 138.452 78.2751 138.243H78.0534L77.9979 138.033C77.5298 136.235 76.1561 135.015 74.5976 135.015H74.5853Z" fill="#263238"/>
<path d="M78.3306 143.639C76.7997 143.625 75.2987 143.214 73.9754 142.444L74.2773 141.908C78.694 144.372 82.1251 142.025 82.2853 141.908L82.6426 142.407C81.3511 143.218 79.8556 143.645 78.3306 143.639Z" fill="#263238"/>
<path d="M76.8768 139.019C77.1149 139.019 77.308 138.536 77.308 137.941C77.308 137.346 77.1149 136.863 76.8768 136.863C76.6386 136.863 76.4456 137.346 76.4456 137.941C76.4456 138.536 76.6386 139.019 76.8768 139.019Z" fill="#263238"/>
<path d="M74.8071 139.401C75.0452 139.401 75.2383 138.918 75.2383 138.323C75.2383 137.727 75.0452 137.245 74.8071 137.245C74.5689 137.245 74.3759 137.727 74.3759 138.323C74.3759 138.918 74.5689 139.401 74.8071 139.401Z" fill="#263238"/>
<path d="M74.6592 154.037C74.02 154.07 73.3839 153.928 72.8194 153.626C72.255 153.324 71.7836 152.874 71.456 152.324C69.799 149.645 70.84 144.705 71.6839 143.189L72.226 143.485C71.4806 144.865 70.4704 149.559 71.9796 152.004C72.2693 152.481 72.6878 152.867 73.1869 153.116C73.686 153.366 74.2455 153.469 74.8009 153.415C75.2748 153.436 75.7468 153.342 76.1761 153.141C76.6054 152.939 76.9791 152.635 77.2649 152.257C78.7125 150.181 77.3326 146.029 77.3203 145.986L77.9363 145.789C77.9979 145.974 79.4209 150.279 77.8008 152.608C77.4599 153.07 77.011 153.441 76.4934 153.689C75.9757 153.937 75.4052 154.054 74.8317 154.031L74.6592 154.037Z" fill="#263238"/>
<path d="M76.6181 153.483L77.1355 152.719L79.2053 154.111L80.6837 156.667L81.6693 156.47C81.7805 156.448 81.8951 156.447 82.0064 156.469C82.1178 156.491 82.2237 156.535 82.3181 156.598C82.4126 156.661 82.4936 156.742 82.5567 156.836C82.6198 156.931 82.6636 157.036 82.6857 157.148V157.203L82.0327 157.339L82.3654 157.474C82.4725 157.518 82.5699 157.582 82.6521 157.663C82.7344 157.744 82.7997 157.84 82.8444 157.947C82.889 158.054 82.9122 158.168 82.9124 158.283C82.9127 158.399 82.89 158.513 82.8458 158.62V158.657L81.0841 157.949L81.121 158.103C81.1724 158.343 81.1267 158.593 80.994 158.8C80.8613 159.006 80.6523 159.152 80.4126 159.205L80.0122 157.357L78.5092 154.758L76.6181 153.483Z" fill="#263238"/>
<path d="M71.918 152.768L72.5956 152.152L74.2896 154L75.1335 156.834L76.076 156.864C76.1974 156.868 76.3168 156.896 76.4273 156.946C76.5379 156.997 76.6375 157.068 76.7205 157.157C76.8035 157.245 76.8681 157.349 76.9108 157.463C76.9535 157.577 76.9733 157.698 76.9692 157.819H76.3039L76.7906 158.164C76.8626 158.211 76.924 158.272 76.971 158.344C77.018 158.416 77.0494 158.496 77.0633 158.581C77.0773 158.666 77.0733 158.752 77.0518 158.836C77.0303 158.919 76.9917 158.996 76.9384 159.064L76.7782 159.291L75.2937 158.238V158.638C75.2987 158.722 75.2865 158.807 75.2578 158.886C75.2291 158.965 75.1846 159.037 75.1269 159.098C75.0692 159.159 74.9995 159.208 74.9223 159.241C74.845 159.275 74.7618 159.292 74.6777 159.291H74.3697L74.2711 157.37L73.4087 154.474L71.918 152.768Z" fill="#263238"/>
<path d="M67.5007 141.461L67.1179 141.944L71.6787 145.561L72.0615 145.078L67.5007 141.461Z" fill="#263238"/>
<path d="M82.9602 145.58L77.2491 146.642L77.3617 147.248L83.0727 146.186L82.9602 145.58Z" fill="#263238"/>
<path d="M69.0598 156.704C66.5403 156.704 64.7478 154.012 64.6677 153.895L64.0517 152.984L65.0435 153.446C66.4295 154.099 67.606 154.179 68.5423 153.667C70.2979 152.719 70.686 150.027 70.686 149.971L71.302 150.058C71.302 150.181 70.8647 153.088 68.838 154.185C68.3854 154.416 67.8912 154.553 67.3845 154.59C66.8778 154.627 66.3688 154.563 65.8874 154.4C66.5835 155.133 67.7354 156.057 69.0721 156.064C70.4088 156.07 71.6963 155.103 72.8851 153.242L73.4026 153.575C72.0967 155.626 70.6367 156.655 69.0906 156.655L69.0598 156.704Z" fill="#263238"/>
<path d="M95.48 158.096L94.5745 155.632L90.9401 157.881C90.9401 157.881 92.2891 160.055 94.1556 160.782L94.5622 160.4C94.882 160.113 95.1312 159.755 95.2904 159.356C95.4496 158.956 95.5145 158.525 95.48 158.096Z" fill="#FFB573"/>
<path d="M91.8702 154.708L90.7183 155.651C90.5913 155.752 90.4856 155.877 90.4072 156.02C90.3288 156.162 90.2793 156.318 90.2615 156.48C90.2438 156.641 90.2581 156.805 90.3038 156.96C90.3494 157.116 90.4254 157.262 90.5274 157.388L90.9462 157.905L94.5806 155.657L93.441 154.715C93.2208 154.531 92.9435 154.43 92.6567 154.429C92.37 154.428 92.0919 154.526 91.8702 154.708Z" fill="#FFB573"/>
<path d="M54.3374 158.682L55.249 156.218L58.8896 158.472C58.8896 158.472 57.5406 160.653 55.6679 161.38L55.2614 160.998C54.9398 160.709 54.6892 160.349 54.5289 159.948C54.3687 159.546 54.3031 159.113 54.3374 158.682Z" fill="#FFB573"/>
<path d="M57.9594 155.294L59.136 156.236C59.3898 156.441 59.5518 156.739 59.5864 157.063C59.6211 157.388 59.5256 157.713 59.3208 157.967L58.9081 158.491L55.2675 156.236L56.4071 155.294C56.6266 155.116 56.9006 155.018 57.1833 155.018C57.4659 155.018 57.7399 155.116 57.9594 155.294Z" fill="#FFB573"/>
<path d="M74.0986 183.143C74.0986 183.143 78.1026 186.001 79.4332 185.927C80.7638 185.853 80.7822 182.65 80.7822 182.65L82.7658 183.155V187.911L79.6057 186.679L76.7598 188.527L72.3369 184.369L74.0986 183.143Z" fill="#3B82F6"/>
<path opacity="0.8" d="M74.0986 183.143C74.0986 183.143 78.1026 186.001 79.4332 185.927C80.7638 185.853 80.7822 182.65 80.7822 182.65L82.7658 183.155V187.911L79.6057 186.679L76.7598 188.527L72.3369 184.369L74.0986 183.143Z" fill="white"/>
<path d="M147.649 204.45H120.175V207.081H147.649V204.45Z" fill="#3B82F6"/>
<path d="M120.175 204.45H77.2649V207.081H120.175V204.45Z" fill="#3B82F6"/>
<path opacity="0.2" d="M147.649 204.45H120.175V207.081H147.649V204.45Z" fill="white"/>
<path opacity="0.5" d="M120.175 204.45H77.2649V207.081H120.175V204.45Z" fill="white"/>
<path d="M114.878 255.455H116.319V207.081H114.878V255.455Z" fill="#3B82F6"/>
<path opacity="0.2" d="M114.878 255.455H116.319V207.081H114.878V255.455Z" fill="white"/>
<path d="M112.395 255.455H114.884V207.081H112.395V255.455Z" fill="#3B82F6"/>
<path opacity="0.4" d="M112.395 255.455H114.884V207.081H112.395V255.455Z" fill="white"/>
<path d="M82.3284 255.455H83.7699V207.081H82.3284V255.455Z" fill="#3B82F6"/>
<path opacity="0.2" d="M82.3284 255.455H83.7699V207.081H82.3284V255.455Z" fill="white"/>
<path d="M79.8398 255.455H82.3284V207.081H79.8398V255.455Z" fill="#3B82F6"/>
<path opacity="0.4" d="M79.8398 255.455H82.3284V207.081H79.8398V255.455Z" fill="white"/>
<path d="M141.957 255.455H143.399V207.081H141.957V255.455Z" fill="#3B82F6"/>
<path d="M139.469 255.455H141.957V207.081H139.469V255.455Z" fill="#3B82F6"/>
<path opacity="0.2" d="M139.469 255.455H141.957V207.081H139.469V255.455Z" fill="white"/>
<path d="M109.402 255.455H110.843V207.081H109.402V255.455Z" fill="#3B82F6"/>
<path d="M106.919 255.455H109.408V207.081H106.919V255.455Z" fill="#3B82F6"/>
<path opacity="0.2" d="M106.919 255.455H109.408V207.081H106.919V255.455Z" fill="white"/>
<path d="M136.45 185.915L135.834 184.067C135.809 183.992 135.763 183.924 135.702 183.873C135.642 183.822 135.568 183.788 135.489 183.775C135.411 183.762 135.33 183.771 135.256 183.801C135.183 183.831 135.118 183.88 135.07 183.944L133.9 185.515L131.824 198.518L134.393 198.925L136.45 185.915Z" fill="#3B82F6"/>
<path d="M129.754 194.773L130.666 196.504C130.703 196.575 130.759 196.635 130.827 196.676C130.895 196.718 130.974 196.74 131.054 196.74C131.134 196.74 131.213 196.718 131.281 196.676C131.349 196.635 131.405 196.575 131.442 196.504L132.354 194.773V182.897C132.354 182.552 132.217 182.221 131.973 181.977C131.729 181.734 131.399 181.597 131.054 181.597C130.709 181.597 130.379 181.734 130.135 181.977C129.891 182.221 129.754 182.552 129.754 182.897V194.773Z" fill="#3B82F6"/>
<path opacity="0.5" d="M129.754 194.773L130.666 196.504C130.703 196.575 130.759 196.635 130.827 196.676C130.895 196.718 130.974 196.74 131.054 196.74C131.134 196.74 131.213 196.718 131.281 196.676C131.349 196.635 131.405 196.575 131.442 196.504L132.354 194.773V182.897C132.354 182.552 132.217 182.221 131.973 181.977C131.729 181.734 131.399 181.597 131.054 181.597C130.709 181.597 130.379 181.734 130.135 181.977C129.891 182.221 129.754 182.552 129.754 182.897V194.773Z" fill="white"/>
<path d="M128.892 188.348C128.895 188.062 129.01 187.788 129.213 187.585C129.416 187.382 129.689 187.267 129.976 187.264C130.287 187.27 130.596 187.213 130.885 187.097C131.174 186.981 131.437 186.808 131.657 186.589C131.878 186.369 132.052 186.107 132.17 185.819C132.287 185.531 132.346 185.222 132.341 184.911C132.315 184.354 132.081 183.828 131.687 183.434C131.293 183.04 130.767 182.806 130.21 182.78C129.899 182.775 129.59 182.834 129.302 182.951C129.014 183.069 128.752 183.243 128.532 183.464C128.313 183.684 128.14 183.947 128.024 184.236C127.908 184.525 127.851 184.834 127.857 185.145V188.36L128.892 188.348ZM128.652 185.009C128.652 184.721 128.737 184.438 128.898 184.198C129.058 183.958 129.286 183.771 129.553 183.661C129.82 183.55 130.113 183.521 130.396 183.578C130.68 183.634 130.94 183.773 131.144 183.977C131.348 184.181 131.487 184.441 131.543 184.725C131.6 185.008 131.571 185.301 131.46 185.568C131.35 185.835 131.163 186.063 130.923 186.223C130.683 186.384 130.4 186.469 130.112 186.469C129.92 186.469 129.73 186.432 129.553 186.358C129.376 186.285 129.215 186.177 129.079 186.042C128.944 185.906 128.836 185.745 128.763 185.568C128.689 185.391 128.652 185.201 128.652 185.009Z" fill="#3B82F6"/>
<path d="M127.641 188.379L127.684 185.163C127.695 184.852 127.643 184.542 127.531 184.251C127.419 183.96 127.25 183.695 127.033 183.471C126.816 183.248 126.556 183.07 126.269 182.949C125.982 182.828 125.674 182.766 125.362 182.767C124.806 182.786 124.277 183.012 123.878 183.4C123.479 183.789 123.24 184.312 123.206 184.868C123.198 185.178 123.252 185.488 123.366 185.777C123.479 186.066 123.649 186.33 123.866 186.552C124.083 186.774 124.343 186.951 124.63 187.071C124.916 187.191 125.224 187.253 125.535 187.252C125.679 187.252 125.823 187.282 125.956 187.339C126.089 187.395 126.21 187.478 126.31 187.582C126.411 187.686 126.491 187.809 126.544 187.943C126.597 188.078 126.622 188.222 126.619 188.367L127.641 188.379ZM125.424 186.469C125.135 186.466 124.854 186.376 124.616 186.213C124.378 186.05 124.194 185.819 124.087 185.551C123.979 185.283 123.954 184.989 124.014 184.707C124.074 184.424 124.216 184.166 124.423 183.964C124.63 183.763 124.892 183.627 125.176 183.574C125.46 183.521 125.753 183.554 126.018 183.668C126.283 183.782 126.509 183.972 126.666 184.214C126.824 184.456 126.906 184.739 126.902 185.028C126.9 185.22 126.86 185.409 126.784 185.585C126.708 185.761 126.599 185.921 126.462 186.055C126.324 186.189 126.162 186.294 125.984 186.365C125.806 186.436 125.615 186.472 125.424 186.469Z" fill="#3B82F6"/>
<path d="M127.777 197.354C128.804 197.354 129.637 195.079 129.637 192.272C129.637 189.465 128.804 187.19 127.777 187.19C126.749 187.19 125.917 189.465 125.917 192.272C125.917 195.079 126.749 197.354 127.777 197.354Z" fill="#263238"/>
<path opacity="0.6" d="M127.777 197.354C128.804 197.354 129.637 195.079 129.637 192.272C129.637 189.465 128.804 187.19 127.777 187.19C126.749 187.19 125.917 189.465 125.917 192.272C125.917 195.079 126.749 197.354 127.777 197.354Z" fill="white"/>
<path opacity="0.3" d="M127.777 197.354C126.754 197.354 125.929 195.081 125.929 192.272C125.929 189.463 126.767 187.19 127.777 187.19V197.354Z" fill="white"/>
<path d="M128.245 204.45H133.358C133.914 204.449 134.448 204.234 134.849 203.85C135.25 203.466 135.489 202.942 135.514 202.387L136.037 190.264H125.565L126.095 202.387C126.119 202.941 126.356 203.465 126.756 203.85C127.157 204.234 127.69 204.449 128.245 204.45Z" fill="#3B82F6"/>
<path opacity="0.4" d="M128.245 204.45H133.358C133.914 204.449 134.448 204.234 134.849 203.85C135.25 203.466 135.489 202.942 135.514 202.387L136.037 190.264H125.565L126.095 202.387C126.119 202.941 126.356 203.465 126.756 203.85C127.157 204.234 127.69 204.449 128.245 204.45Z" fill="black"/>
<path d="M143.867 114.896C141.292 115.826 138.606 116.831 136.013 117.705C134.707 118.136 133.413 118.555 132.175 118.882C131.257 119.166 130.307 119.334 129.348 119.381C128.816 119.305 128.291 119.19 127.777 119.036C127.161 118.87 126.545 118.654 125.929 118.42C124.666 117.964 123.379 117.434 122.079 116.892L114.243 113.48H114.213C113.772 113.284 113.276 113.254 112.816 113.394C112.355 113.535 111.96 113.837 111.704 114.245C111.448 114.653 111.348 115.14 111.422 115.616C111.495 116.092 111.738 116.525 112.106 116.837C114.376 118.77 116.772 120.552 119.276 122.171C120.508 122.984 121.826 123.767 123.206 124.5C123.902 124.857 124.611 125.208 125.381 125.541C126.216 125.916 127.084 126.213 127.974 126.428C128.54 126.559 129.118 126.637 129.699 126.662C130.2 126.687 130.701 126.687 131.202 126.662C132.055 126.607 132.905 126.502 133.746 126.348C135.341 126.071 136.826 125.732 138.304 125.307C141.208 124.509 144.058 123.525 146.836 122.362C147.793 121.955 148.555 121.191 148.959 120.233C149.363 119.274 149.378 118.196 149.001 117.226C148.624 116.257 147.884 115.472 146.938 115.038C145.993 114.604 144.915 114.556 143.935 114.902L143.867 114.896Z" fill="#CE7A63"/>
<path d="M134.744 117.477L137.46 126.021C137.46 126.021 151.012 123.237 148.413 116.387C145.813 109.537 134.744 117.477 134.744 117.477Z" fill="#3B82F6"/>
<path d="M141.009 145.875C141.009 145.875 139.358 173.54 141.816 193.455C141.551 210.302 146.928 251.143 146.928 251.143C149.078 251.568 149.885 251.636 151.727 251.088C151.727 251.088 157.025 220.238 154.912 193.184C159.84 164.817 158.226 145.893 158.226 145.893L141.009 145.875Z" fill="#CE7A63"/>
<path d="M148.413 147.107C148.413 147.107 157.154 183.839 162.667 199.529C168.451 216.007 186.075 242.033 186.691 243.135C188.964 242.519 189.771 241.737 191.108 240.412C191.108 240.412 182.724 213.924 179.952 206.292C178.72 202.91 174.223 195.531 174.223 195.531C174.223 195.531 172.751 179.274 171.759 172.924C170.854 167.133 172.271 162.371 171.106 158.756C168.026 149.294 163.911 146.479 163.911 146.479L148.413 147.107Z" fill="#CE7A63"/>
<path d="M146.528 249.905L151.918 249.985C152.013 249.985 152.105 250.02 152.176 250.084C152.246 250.147 152.291 250.235 152.3 250.33L152.774 254.741C152.782 254.852 152.766 254.964 152.729 255.069C152.691 255.174 152.633 255.27 152.557 255.352C152.48 255.433 152.388 255.498 152.286 255.542C152.183 255.587 152.073 255.609 151.961 255.609C150.021 255.548 149.411 255.387 146.965 255.35C144.107 255.301 145.425 255.424 142.074 255.35C140.048 255.32 139.727 253.268 140.59 253.084C143.337 252.511 144.058 251.42 145.296 250.25C145.649 249.985 146.089 249.862 146.528 249.905Z" fill="#263238"/>
<path d="M146.429 250.601C146.451 250.601 146.472 250.596 146.49 250.585C146.509 250.574 146.524 250.558 146.534 250.54C146.547 250.519 146.554 250.496 146.554 250.472C146.554 250.448 146.547 250.424 146.534 250.404C146.368 250.213 144.871 248.556 144.187 248.661C144.124 248.671 144.065 248.696 144.014 248.735C143.964 248.774 143.924 248.824 143.898 248.882C143.848 248.978 143.822 249.083 143.822 249.19C143.822 249.298 143.848 249.403 143.898 249.498C144.23 250.114 145.622 250.466 146.423 250.601H146.429ZM144.255 248.864C144.649 248.864 145.487 249.646 146.103 250.281C145.019 250.059 144.255 249.72 144.089 249.363C144.055 249.3 144.038 249.231 144.038 249.16C144.038 249.089 144.055 249.019 144.089 248.956C144.098 248.933 144.115 248.912 144.135 248.897C144.156 248.882 144.18 248.873 144.206 248.87L144.255 248.864Z" fill="#3B82F6"/>
<path d="M146.429 250.601C146.449 250.596 146.468 250.586 146.483 250.572C146.498 250.558 146.509 250.541 146.516 250.521C146.516 250.466 146.885 249.172 146.479 248.47C146.423 248.367 146.348 248.276 146.257 248.203C146.166 248.13 146.061 248.076 145.949 248.045C145.635 247.965 145.487 248.082 145.425 248.199C145.136 248.685 145.856 250.108 146.318 250.57C146.332 250.585 146.35 250.596 146.37 250.601C146.389 250.607 146.41 250.607 146.429 250.601ZM145.813 248.248H145.937C146.019 248.27 146.096 248.308 146.163 248.361C146.23 248.414 146.285 248.481 146.325 248.556C146.517 249.088 146.541 249.667 146.392 250.213C145.955 249.659 145.505 248.581 145.672 248.291C145.687 248.274 145.706 248.261 145.728 248.254C145.749 248.246 145.772 248.244 145.795 248.248H145.813Z" fill="#3B82F6"/>
<path d="M186.346 242.519L191.077 239.926C191.159 239.878 191.256 239.863 191.348 239.883C191.441 239.904 191.522 239.959 191.576 240.037L194.163 243.64C194.227 243.732 194.271 243.836 194.292 243.946C194.313 244.055 194.31 244.168 194.285 244.277C194.259 244.385 194.211 244.488 194.143 244.576C194.076 244.665 193.99 244.739 193.892 244.792C192.174 245.698 191.564 245.864 189.42 247.034C186.913 248.408 188.12 247.86 185.182 249.498C183.402 250.472 182.102 248.846 182.773 248.266C184.874 246.418 184.96 245.1 185.459 243.474C185.62 243.053 185.938 242.71 186.346 242.519Z" fill="#263238"/>
<path d="M186.334 243.382C186.355 243.373 186.373 243.358 186.386 243.338C186.399 243.319 186.405 243.297 186.405 243.274C186.405 243.251 186.399 243.228 186.386 243.209C186.373 243.19 186.355 243.175 186.334 243.166C186.094 243.086 183.981 242.39 183.439 242.809C183.385 242.846 183.344 242.898 183.317 242.958C183.291 243.017 183.282 243.083 183.291 243.148C183.294 243.254 183.323 243.358 183.375 243.45C183.428 243.543 183.503 243.621 183.593 243.677C184.209 244.072 185.57 243.677 186.334 243.388V243.382ZM183.599 242.969C183.95 242.784 185.077 243.03 185.909 243.283C184.855 243.628 184.061 243.702 183.704 243.48C183.644 243.442 183.595 243.391 183.561 243.329C183.526 243.268 183.508 243.199 183.506 243.129C183.502 243.104 183.505 243.077 183.515 243.054C183.525 243.03 183.541 243.009 183.562 242.994L183.599 242.969Z" fill="#3B82F6"/>
<path d="M186.334 243.382C186.349 243.367 186.36 243.348 186.366 243.327C186.371 243.307 186.371 243.285 186.365 243.265C186.365 243.215 186.02 241.916 185.324 241.503C185.225 241.439 185.115 241.397 184.999 241.379C184.883 241.361 184.765 241.368 184.652 241.398C184.338 241.478 184.27 241.657 184.27 241.786C184.27 242.353 185.595 243.234 186.223 243.406C186.242 243.413 186.262 243.415 186.282 243.41C186.302 243.406 186.32 243.396 186.334 243.382ZM184.621 241.651C184.655 241.63 184.693 241.615 184.732 241.608C184.815 241.585 184.902 241.58 184.986 241.592C185.071 241.605 185.153 241.635 185.225 241.681C185.656 242.049 185.962 242.542 186.1 243.092C185.447 242.821 184.523 242.113 184.529 241.774C184.529 241.749 184.529 241.7 184.621 241.651Z" fill="#3B82F6"/>
<path d="M165.039 146.491H140.75C140.75 146.491 138.23 181.843 140.75 195.395C140.75 195.395 151.579 197.243 174.882 194.065C174.882 194.065 172.012 174.556 172.215 168.396C172.418 162.236 172.277 155.491 165.039 146.491Z" fill="#3B82F6"/>
<path d="M140.571 147.107C139.204 145.967 139.456 139.85 139.777 135.649C139.892 133.453 139.509 131.258 138.655 129.231C137.559 126.452 139.616 123.071 139.542 121.37C139.462 119.509 140.078 117.684 141.271 116.252C142.463 114.82 144.146 113.885 145.992 113.627C147.052 113.473 148.16 113.338 149.232 113.245C152.536 113.011 155.852 113.011 159.156 113.245C160.105 113.295 161.004 113.369 161.897 113.455C162.667 113.535 163.412 113.775 164.084 114.16C164.756 114.545 165.339 115.067 165.797 115.691C166.255 116.316 166.577 117.029 166.742 117.785C166.908 118.542 166.913 119.325 166.757 120.083C163.862 133.937 166.221 142.826 165.784 147.113L150.68 150.384C150.462 150.427 150.237 150.418 150.023 150.358C149.809 150.298 149.612 150.189 149.448 150.039L148.093 148.807C147.9 148.631 147.652 148.528 147.391 148.514C147.131 148.501 146.873 148.578 146.663 148.733L145.598 149.522C145.356 149.697 145.065 149.791 144.766 149.791C144.467 149.791 144.176 149.697 143.935 149.522C142.912 148.838 141.255 147.68 140.571 147.107Z" fill="#263238"/>
<path d="M159.458 102.065C158.663 105.256 157.893 110.467 159.15 113.239C159.15 113.239 154.437 113.449 148.413 118.26C145.573 114.096 148.856 113.276 148.856 113.276C151.364 112.691 151.758 109.642 151.758 107.27L159.458 102.065Z" fill="#CE7A63"/>
<path opacity="0.2" d="M151.752 107.27L156.131 104.307C156.174 104.979 156.04 105.65 155.743 106.254C154.822 107.979 153.321 109.322 151.505 110.048C151.684 109.133 151.766 108.202 151.752 107.27Z" fill="black"/>
<path d="M161.534 96.2069C160.302 101.4 159.87 103.599 156.797 105.86C152.164 109.223 146.183 106.568 145.881 101.11C145.61 96.1822 147.729 88.5254 153.107 87.3303C158.484 86.1353 162.784 91.014 161.534 96.2069Z" fill="#CE7A63"/>
<path d="M152.848 98.3198C152.774 98.7448 152.485 99.0528 152.232 99.0035C151.98 98.9542 151.789 98.5662 151.863 98.1411C151.936 97.7161 152.226 97.4081 152.479 97.4574C152.731 97.5066 152.928 97.8947 152.848 98.3198Z" fill="#263238"/>
<path d="M147.581 97.4635C147.501 97.8886 147.218 98.1966 146.934 98.1473C146.651 98.098 146.491 97.7099 146.565 97.2849C146.639 96.8598 146.928 96.5518 147.181 96.6011C147.433 96.6504 147.655 97.0385 147.581 97.4635Z" fill="#263238"/>
<path d="M147.329 96.6442L146.355 96.1699C146.355 96.1699 146.737 97.0631 147.329 96.6442Z" fill="#263238"/>
<path d="M151.4 102.872C151.157 102.872 150.913 102.85 150.674 102.804C150.64 102.798 150.611 102.779 150.591 102.752C150.571 102.724 150.563 102.69 150.569 102.656C150.576 102.623 150.597 102.594 150.625 102.575C150.654 102.557 150.689 102.551 150.723 102.558C151.253 102.664 151.8 102.643 152.32 102.497C152.84 102.352 153.319 102.086 153.717 101.72C153.727 101.703 153.74 101.689 153.756 101.679C153.772 101.668 153.79 101.661 153.81 101.658C153.829 101.655 153.848 101.657 153.867 101.663C153.885 101.669 153.902 101.678 153.916 101.692C153.93 101.705 153.941 101.721 153.948 101.739C153.955 101.757 153.958 101.776 153.957 101.796C153.955 101.815 153.95 101.834 153.94 101.85C153.931 101.867 153.917 101.882 153.901 101.893C153.229 102.535 152.33 102.887 151.4 102.872Z" fill="#263238"/>
<path d="M154.363 95.8989C154.33 95.8905 154.298 95.8745 154.271 95.8521C154.245 95.8297 154.223 95.8014 154.209 95.7695C154.075 95.4787 153.874 95.2238 153.623 95.0257C153.371 94.8276 153.076 94.692 152.762 94.6299C152.729 94.6261 152.696 94.6157 152.667 94.5994C152.638 94.583 152.612 94.561 152.592 94.5347C152.571 94.5083 152.556 94.4781 152.547 94.4458C152.538 94.4135 152.536 94.3798 152.54 94.3466C152.543 94.313 152.553 94.2803 152.569 94.2507C152.585 94.221 152.607 94.195 152.634 94.1742C152.66 94.1534 152.691 94.1383 152.723 94.1298C152.756 94.1213 152.79 94.1196 152.823 94.1248C153.222 94.1958 153.598 94.3616 153.92 94.6081C154.242 94.8547 154.499 95.1748 154.671 95.5416C154.701 95.6029 154.706 95.6736 154.684 95.7382C154.662 95.8028 154.615 95.8561 154.554 95.8866C154.525 95.9012 154.493 95.9099 154.46 95.912C154.427 95.9141 154.394 95.9097 154.363 95.8989Z" fill="#263238"/>
<path d="M146.072 94.8209C146.008 94.8087 145.951 94.7737 145.912 94.7223C145.891 94.6957 145.876 94.6653 145.868 94.6329C145.859 94.6004 145.857 94.5666 145.862 94.5333C145.866 94.5001 145.877 94.468 145.894 94.4391C145.912 94.4102 145.934 94.3851 145.961 94.365C146.276 94.1112 146.648 93.9372 147.045 93.8578C147.442 93.7784 147.852 93.7961 148.24 93.9092C148.272 93.9202 148.301 93.9375 148.326 93.9599C148.351 93.9824 148.372 94.0096 148.386 94.0401C148.4 94.0705 148.409 94.1034 148.41 94.137C148.411 94.1706 148.406 94.2042 148.394 94.2357C148.384 94.2672 148.367 94.2963 148.346 94.3213C148.324 94.3463 148.297 94.3665 148.267 94.3809C148.237 94.3953 148.205 94.4035 148.171 94.405C148.138 94.4065 148.105 94.4013 148.074 94.3897C147.764 94.3075 147.44 94.2992 147.126 94.3656C146.813 94.4319 146.519 94.571 146.269 94.7716C146.212 94.8113 146.142 94.8288 146.072 94.8209Z" fill="#263238"/>
<path d="M152.602 97.5005L151.628 97.0262C151.628 97.0262 152.01 97.944 152.602 97.5005Z" fill="#263238"/>
<path opacity="0.2" d="M166.246 122.763C165.739 125.708 165.432 128.684 165.328 131.67C162.938 128.356 160.228 122.35 160.4 119.547L166.246 122.763Z" fill="black"/>
<path d="M115.291 113.726L114.059 110.344L109.02 113.455C109.02 113.455 110.868 116.473 113.473 117.477L114.046 116.948C114.489 116.544 114.832 116.042 115.048 115.483C115.264 114.924 115.347 114.323 115.291 113.726Z" fill="#CE7A63"/>
<path d="M110.264 109.032L108.662 110.338C108.317 110.625 108.098 111.036 108.052 111.483C108.006 111.929 108.137 112.376 108.416 112.728L108.989 113.443L114.028 110.332L112.457 109.032C112.149 108.777 111.761 108.637 111.36 108.637C110.96 108.637 110.572 108.777 110.264 109.032Z" fill="#CE7A63"/>
<path opacity="0.2" d="M150.304 171.211C156.279 180.753 158.99 193.553 159.396 195.635C157.897 195.73 156.489 195.8 155.17 195.845C154.487 187.444 152.736 179.163 149.959 171.205L150.304 171.211Z" fill="black"/>
<path d="M148.856 97.8146C148.301 98.7229 147.626 99.5518 146.848 100.279C147.039 100.472 147.27 100.621 147.524 100.717C147.778 100.812 148.05 100.852 148.32 100.833L148.856 97.8146Z" fill="#BA4D3C"/>
<path d="M145.567 98.7078L146.657 98.8926C146.731 98.8987 146.805 98.8987 146.879 98.8926C147.187 98.8928 147.485 98.784 147.721 98.5856C147.956 98.3872 148.114 98.112 148.166 97.8085L148.32 96.9214C148.376 96.8011 148.469 96.7019 148.586 96.6387C148.702 96.5754 148.836 96.5514 148.967 96.5703C149.096 96.5975 149.213 96.6655 149.301 96.7642C149.389 96.8629 149.442 96.9871 149.454 97.1186L149.306 98.0056C149.276 98.174 149.28 98.3467 149.317 98.5137C149.354 98.6807 149.423 98.8388 149.522 98.9789C149.62 99.1209 149.746 99.2416 149.892 99.3337C150.038 99.4258 150.201 99.4874 150.372 99.5148L153.107 99.9891C153.181 99.9952 153.255 99.9952 153.329 99.9891C153.637 99.9878 153.935 99.8777 154.171 99.6783C154.406 99.4789 154.564 99.2029 154.616 98.8988L154.93 97.0939C154.928 97.0776 154.928 97.061 154.93 97.0446C155.565 97.1741 156.168 97.4274 156.704 97.79L159.606 99.7858L159.864 99.4039L156.963 97.4081C156.344 96.9862 155.643 96.7007 154.906 96.5703C154.848 96.3204 154.718 96.0931 154.531 95.9168C154.345 95.7404 154.111 95.6228 153.858 95.5786L151.123 95.1104C150.781 95.0513 150.429 95.1304 150.145 95.3301C149.861 95.5299 149.668 95.8341 149.608 96.1761L149.546 96.558C149.411 96.3953 149.221 96.2862 149.013 96.2501C148.804 96.214 148.589 96.2533 148.407 96.3609L148.474 95.9851C148.534 95.6429 148.455 95.2913 148.255 95.0072C148.055 94.7232 147.751 94.5299 147.409 94.4698L146.318 94.2788C146.149 94.2483 145.975 94.2521 145.806 94.2902C145.638 94.3283 145.479 94.3999 145.339 94.5006C145.056 94.703 144.864 95.0081 144.803 95.3506L144.489 97.1555C144.455 97.3285 144.457 97.5064 144.493 97.6788C144.529 97.8512 144.6 98.0146 144.7 98.1593C144.801 98.304 144.929 98.4271 145.078 98.5214C145.227 98.6156 145.393 98.679 145.567 98.7078ZM149.67 98.0918L149.978 96.2808C150.012 96.0561 150.126 95.8513 150.299 95.7042C150.472 95.557 150.693 95.4774 150.92 95.48C150.973 95.4741 151.027 95.4741 151.08 95.48L153.809 95.9543C154.055 95.9965 154.274 96.1343 154.418 96.3375C154.562 96.5406 154.62 96.7927 154.579 97.0385L154.265 98.8434C154.223 99.089 154.085 99.3079 153.882 99.4522C153.679 99.5965 153.427 99.6544 153.181 99.6134L150.446 99.139C150.324 99.119 150.207 99.0748 150.103 99.0092C149.998 98.9437 149.908 98.8579 149.837 98.757C149.766 98.6561 149.715 98.542 149.689 98.4215C149.662 98.301 149.66 98.1763 149.682 98.0549L149.67 98.0918ZM144.865 97.2602L145.173 95.4554C145.192 95.3318 145.237 95.2134 145.304 95.1075C145.37 95.0016 145.458 94.9104 145.561 94.8394C145.718 94.7286 145.905 94.6684 146.097 94.6669H146.263L147.347 94.8578C147.593 94.9 147.812 95.0378 147.956 95.241C148.1 95.4441 148.158 95.6962 148.117 95.942L147.803 97.7469C147.783 97.8689 147.739 97.9856 147.673 98.0905C147.608 98.1953 147.522 98.2862 147.421 98.3578C147.321 98.4294 147.207 98.4803 147.086 98.5076C146.965 98.5349 146.841 98.538 146.719 98.5169L145.629 98.3321C145.385 98.2884 145.169 98.151 145.026 97.9493C144.883 97.7477 144.825 97.498 144.865 97.2541V97.2602Z" fill="#3B82F6"/>
<path d="M160.388 101.129C160.131 101.126 159.878 101.066 159.647 100.953C159.416 100.839 159.214 100.675 159.056 100.473C158.897 100.27 158.786 100.035 158.731 99.7836C158.676 99.5325 158.678 99.2722 158.737 99.022C159.076 97.519 159.137 95.48 157.727 93.8599C155.17 90.9093 155.072 94.4266 148.277 89.1845C147.31 88.4391 146.626 84.3489 151.973 85.9628C151.973 85.9628 159.137 83.2401 161.029 89.1845C161.029 89.1845 167.922 92.055 161.029 101.129H160.388Z" fill="#263238"/>
<path d="M161.916 101.024C161.719 101.469 161.431 101.866 161.068 102.19C160.706 102.514 160.279 102.757 159.815 102.903C158.626 103.229 158.041 101.93 158.374 100.611C158.675 99.4224 159.661 97.827 160.838 98.0857C162.014 98.3444 162.464 99.8782 161.916 101.024Z" fill="#CE7A63"/>
<path d="M160.733 104.492L159.784 102.509C159.756 102.445 159.71 102.392 159.652 102.354C159.594 102.316 159.527 102.296 159.458 102.296C159.389 102.296 159.321 102.316 159.263 102.354C159.205 102.392 159.159 102.445 159.131 102.509L158.176 104.492C158.151 104.547 158.139 104.608 158.143 104.669C158.147 104.73 158.166 104.789 158.198 104.84C158.231 104.892 158.276 104.934 158.329 104.964C158.382 104.993 158.442 105.009 158.503 105.01H160.406C160.467 105.009 160.527 104.993 160.58 104.964C160.634 104.934 160.679 104.892 160.711 104.84C160.744 104.789 160.763 104.73 160.766 104.669C160.77 104.608 160.759 104.547 160.733 104.492Z" fill="#3B82F6"/>
<path d="M106.833 111.65H143.51V81.2812H106.833V111.65Z" fill="#3B82F6"/>
<path opacity="0.8" d="M106.833 111.65H143.51V81.2812H106.833V111.65Z" fill="white"/>
<path d="M144.705 115.241L143.473 111.859L138.434 114.939C138.434 114.939 140.282 117.958 142.887 118.962L143.46 118.432C143.899 118.031 144.239 117.535 144.455 116.982C144.671 116.429 144.756 115.833 144.705 115.241Z" fill="#CE7A63"/>
<path d="M139.696 110.547L138.095 111.853C137.744 112.139 137.521 112.552 137.472 113.001C137.424 113.451 137.554 113.902 137.836 114.256L138.409 114.97L143.448 111.89L141.871 110.584C141.568 110.328 141.187 110.185 140.79 110.178C140.394 110.171 140.008 110.302 139.696 110.547Z" fill="#CE7A63"/>
<path d="M158.811 117.49L158.133 119.282C157.899 119.898 157.665 120.514 157.419 121.13C156.938 122.362 156.427 123.52 155.903 124.617C155.632 125.165 155.368 125.695 155.096 126.169C154.87 126.574 154.617 126.963 154.339 127.333C154.269 127.416 154.207 127.504 154.154 127.598C154.154 127.598 154.246 127.598 154.579 127.5C154.812 127.448 155.054 127.458 155.281 127.53C155.361 127.574 155.281 127.58 155.195 127.53C154.82 127.378 154.469 127.17 154.154 126.914C153.71 126.556 153.285 126.176 152.879 125.775C152.004 124.931 151.154 123.927 150.298 122.929C148.616 120.89 146.959 118.66 145.37 116.486L145.327 116.424C145.029 116.029 144.6 115.753 144.117 115.645C143.634 115.537 143.128 115.605 142.691 115.837C142.253 116.068 141.913 116.448 141.73 116.908C141.547 117.367 141.533 117.877 141.692 118.346C142.655 121.115 143.858 123.795 145.29 126.354C146.026 127.69 146.849 128.976 147.754 130.204C148.251 130.872 148.792 131.506 149.374 132.101C150.063 132.814 150.842 133.435 151.69 133.949C152.267 134.296 152.889 134.561 153.538 134.738C154.444 134.989 155.397 135.018 156.316 134.824C157.141 134.635 157.923 134.293 158.62 133.814C159.113 133.478 159.575 133.099 160 132.68C160.659 132.014 161.261 131.292 161.799 130.524C162.272 129.856 162.71 129.163 163.111 128.448C163.873 127.117 164.553 125.741 165.15 124.327C165.439 123.637 165.722 122.947 165.981 122.245C166.24 121.543 166.474 120.872 166.714 120.083C167.036 119.05 166.942 117.933 166.453 116.969C165.965 116.004 165.119 115.268 164.097 114.916C163.074 114.564 161.955 114.624 160.976 115.084C159.997 115.544 159.236 116.367 158.854 117.379L158.811 117.49Z" fill="#CE7A63"/>
<path d="M163.08 128.972L155.275 125.122C155.275 125.122 157.246 111.163 164.669 114.102C171.864 116.948 163.08 128.972 163.08 128.972Z" fill="#3B82F6"/>
<path d="M125.171 86.0306L126.514 86.4987C126.618 86.5353 126.704 86.6091 126.757 86.7059C126.809 86.8027 126.824 86.9154 126.797 87.0223L126.557 87.9463L127.235 88.4576C127.311 88.5155 127.366 88.5969 127.392 88.6893C127.418 88.7817 127.412 88.8799 127.376 88.9689L127.013 89.899L127.58 90.3426C127.708 90.4406 127.8 90.5785 127.842 90.7347C127.883 90.8909 127.871 91.0563 127.808 91.205L127.346 92.3014L128.22 92.6033C128.364 92.6523 128.483 92.7565 128.55 92.8928C128.617 93.0291 128.627 93.1864 128.578 93.3302L128.171 94.4882L129.188 94.71C129.336 94.7493 129.464 94.8424 129.547 94.9711C129.63 95.0998 129.662 95.2549 129.637 95.4061L129.415 96.4348L130.45 96.5765C130.611 96.5988 130.758 96.6784 130.864 96.8007C130.971 96.923 131.029 97.0797 131.029 97.2418V98.3444H132.04C132.178 98.3494 132.312 98.397 132.422 98.4808C132.532 98.5647 132.614 98.6805 132.656 98.8126L132.92 99.6257L134.109 99.4902C134.247 99.475 134.386 99.5001 134.51 99.5624C134.633 99.6248 134.736 99.7216 134.805 99.8413L135.662 101.314H133.37L128.738 98.9111C128.738 98.9111 126.57 95.6032 126.533 95.4923C126.496 95.3814 124.37 92.1536 124.37 92.1536V87.4166L125.171 86.0306Z" fill="#3B82F6"/>
<path d="M115.568 88.704L116.27 88.2112L116.923 89.0921L118.124 88.2112L118.826 89.0921L119.923 88.4761L120.976 88.7779L120.175 87.7738L119.122 88.2297L118.371 87.3242L117.274 88.2297L116.523 87.3242L115.568 88.0079C115.568 88.0079 115.21 86.203 115.568 85.7718C116.184 85.045 118.408 85.4392 119.264 85.0696C120.021 84.7493 121.143 83.2647 121.968 83.1723C122.927 83.2387 123.838 83.6124 124.568 84.238C125.251 84.9156 125.923 86.8252 126.071 87.7738C127.802 98.8618 132.914 100.901 136.543 101.092C136.681 101.106 136.811 101.163 136.916 101.254C137.021 101.346 137.094 101.468 137.127 101.603C137.159 101.738 137.149 101.88 137.097 102.009C137.046 102.138 136.955 102.248 136.838 102.324C132.851 104.593 128.342 105.786 123.754 105.786C114.841 105.681 119.75 90.7122 119.75 90.7122L115.543 90.1516L115.568 88.704Z" fill="#3B82F6"/>
<path opacity="0.3" d="M115.568 88.704L116.27 88.2112L116.923 89.0921L118.124 88.2112L118.826 89.0921L119.923 88.4761L120.976 88.7779L120.175 87.7738L119.122 88.2297L118.371 87.3242L117.274 88.2297L116.523 87.3242L115.568 88.0079C115.568 88.0079 115.21 86.203 115.568 85.7718C116.184 85.045 118.408 85.4392 119.264 85.0696C120.021 84.7493 121.143 83.2647 121.968 83.1723C122.927 83.2387 123.838 83.6124 124.568 84.238C125.251 84.9156 125.923 86.8252 126.071 87.7738C127.802 98.8618 132.914 100.901 136.543 101.092C136.681 101.106 136.811 101.163 136.916 101.254C137.021 101.346 137.094 101.468 137.127 101.603C137.159 101.738 137.149 101.88 137.097 102.009C137.046 102.138 136.955 102.248 136.838 102.324C132.851 104.593 128.342 105.786 123.754 105.786C114.841 105.681 119.75 90.7122 119.75 90.7122L115.543 90.1516L115.568 88.704Z" fill="black"/>
<path d="M117.958 97.1802C118.963 96.9964 119.946 96.7073 120.89 96.3178C121.697 95.8126 122.935 94.0447 122.917 93.0899C122.917 92.7388 122.473 91.9996 122.128 91.9257C121.783 91.8518 121.186 92.3815 120.964 92.6402C120.57 93.0961 120.471 94.4451 120.034 94.8517C119.596 95.2582 117.958 95.3445 117.958 95.3445L116.726 95.0057L117.176 95.6833L115.944 96.2438L116.886 96.4348L116.135 97.1802L117.108 96.9954L116.806 97.7469L117.958 97.1802Z" fill="#3B82F6"/>
<path d="M120.853 85.5439C120.897 85.697 120.982 85.835 121.099 85.9423C121.217 86.0496 121.362 86.122 121.519 86.1514C121.675 86.1808 121.837 86.1659 121.985 86.1086C122.134 86.0512 122.263 85.9536 122.359 85.8267C122.455 85.6997 122.514 85.5486 122.529 85.3901C122.544 85.2316 122.514 85.0721 122.444 84.9295C122.373 84.7868 122.264 84.6668 122.129 84.5827C121.994 84.4986 121.838 84.4539 121.678 84.4536C121.427 84.4932 121.2 84.629 121.046 84.8323C120.892 85.0356 120.823 85.2907 120.853 85.5439Z" fill="white"/>
<path d="M121.075 85.7164C121.075 86.0059 121.253 86.2462 121.475 86.2462C121.697 86.2462 121.876 86.0059 121.876 85.7164C121.876 85.4269 121.697 85.1866 121.475 85.1866C121.253 85.1866 121.075 85.4269 121.075 85.7164Z" fill="#263238"/>
<path d="M120.736 84.6815C121.006 84.4129 121.372 84.2622 121.752 84.2622C122.133 84.2622 122.499 84.4129 122.769 84.6815C122.808 84.6421 122.837 84.5944 122.855 84.542C122.873 84.4896 122.879 84.4338 122.872 84.3788C122.866 84.3238 122.847 84.271 122.818 84.2242C122.788 84.1774 122.748 84.1379 122.701 84.1086C122.414 83.9371 122.086 83.8466 121.752 83.8466C121.418 83.8466 121.09 83.9371 120.804 84.1086C120.757 84.1379 120.717 84.1774 120.687 84.2242C120.658 84.271 120.639 84.3238 120.632 84.3788C120.626 84.4338 120.632 84.4896 120.65 84.542C120.668 84.5944 120.697 84.6421 120.736 84.6815Z" fill="#263238"/>
<path d="M128.239 108.909C128.159 108.244 127.327 107.061 127.284 106.408C127.198 104.905 129.003 102.034 128.738 100.55C128.547 99.4717 127.013 97.365 125.935 97.1925C124.857 97.02 122.485 98.5354 122.079 99.601C121.463 101.227 123.563 104.665 123.582 106.408C123.63 107.081 123.452 107.751 123.077 108.311C122.738 108.625 121.746 108.712 121.327 108.927C121.081 109.05 120.65 109.309 120.231 109.543C120.151 109.592 120.089 109.665 120.055 109.752C120.021 109.839 120.017 109.935 120.043 110.025C120.069 110.115 120.124 110.193 120.199 110.249C120.274 110.304 120.365 110.333 120.459 110.332H127.075C127.359 110.331 127.632 110.225 127.843 110.035C128.054 109.846 128.189 109.585 128.22 109.303C128.237 109.172 128.243 109.041 128.239 108.909Z" fill="#3B82F6"/>
<path opacity="0.5" d="M120.231 109.556C120.527 109.371 120.816 109.192 121.056 109.057C121.171 109.247 121.255 109.455 121.303 109.673C121.286 109.913 121.227 110.148 121.13 110.369H120.459C120.356 110.385 120.25 110.363 120.163 110.307C120.075 110.251 120.011 110.164 119.983 110.064C119.954 109.963 119.964 109.856 120.01 109.762C120.056 109.669 120.134 109.595 120.231 109.556Z" fill="white"/>
</svg>
