<svg width="521" height="399" viewBox="0 0 521 399" fill="none" xmlns="http://www.w3.org/2000/svg">
<path d="M521 351.552H0V351.813H521V351.552Z" fill="#EBEBEB"/>
<path d="M468.796 368.318H434.285V368.579H468.796V368.318Z" fill="#EBEBEB"/>
<path d="M345.131 371.152H336.076V371.413H345.131V371.152Z" fill="#EBEBEB"/>
<path d="M433.242 358.649H383.57V358.909H433.242V358.649Z" fill="#EBEBEB"/>
<path d="M79.3376 360.399H54.6631V360.659H79.3376V360.399Z" fill="#EBEBEB"/>
<path d="M115.548 360.399H88.6118V360.659H115.548V360.399Z" fill="#EBEBEB"/>
<path d="M204.346 364.796H136.991V365.057H204.346V364.796Z" fill="#EBEBEB"/>
<path d="M246.954 305.079H45.7543C44.1782 305.076 42.6675 304.448 41.5539 303.333C40.4404 302.217 39.8149 300.706 39.8149 299.129V16.2993C39.8287 14.7322 40.4601 13.2337 41.5722 12.1295C42.6843 11.0252 44.1871 10.4043 45.7543 10.4016H246.954C248.532 10.4016 250.045 11.0285 251.161 12.1443C252.277 13.2601 252.904 14.7734 252.904 16.3514V299.129C252.904 300.707 252.277 302.221 251.161 303.337C250.045 304.452 248.532 305.079 246.954 305.079ZM45.7543 10.61C44.2472 10.6128 42.8028 11.2134 41.7381 12.2801C40.6734 13.3467 40.0754 14.7922 40.0754 16.2993V299.129C40.0754 300.637 40.6734 302.082 41.7381 303.149C42.8028 304.215 44.2472 304.816 45.7543 304.819H246.954C248.462 304.816 249.908 304.216 250.974 303.149C252.04 302.083 252.641 300.637 252.643 299.129V16.2993C252.641 14.7913 252.04 13.3458 250.974 12.2794C249.908 11.2131 248.462 10.6128 246.954 10.61H45.7543Z" fill="#EBEBEB"/>
<path d="M472.349 305.079H271.139C269.562 305.076 268.05 304.449 266.935 303.334C265.82 302.218 265.192 300.707 265.189 299.129V16.2993C265.206 14.7312 265.84 13.2328 266.953 12.1288C268.067 11.0248 269.571 10.4043 271.139 10.4016H472.349C473.915 10.407 475.415 11.0292 476.525 12.1331C477.635 13.2371 478.265 14.734 478.278 16.2993V299.129C478.278 300.704 477.654 302.214 476.543 303.329C475.432 304.444 473.924 305.074 472.349 305.079ZM271.139 10.61C269.631 10.6128 268.186 11.2131 267.119 12.2794C266.053 13.3458 265.453 14.7913 265.45 16.2993V299.129C265.453 300.637 266.053 302.083 267.119 303.149C268.186 304.216 269.631 304.816 271.139 304.819H472.349C473.858 304.816 475.303 304.216 476.369 303.149C477.436 302.083 478.036 300.637 478.039 299.129V16.2993C478.036 14.7913 477.436 13.3458 476.369 12.2794C475.303 11.2131 473.858 10.6128 472.349 10.61H271.139Z" fill="#EBEBEB"/>
<path d="M452.572 295.139C449.258 274.299 334.097 283.114 260.844 295.139C187.591 307.163 74.076 281.02 69.116 295.139C64.1561 309.258 69.116 324.429 69.116 324.429H452.572C452.572 324.429 455.896 315.989 452.572 295.139Z" fill="#FAFAFA"/>
<path d="M451.832 318.99H126.905V329.879H451.832V318.99Z" fill="#E0E0E0"/>
<path d="M463.94 126.147H114.797V137.036H463.94V126.147Z" fill="#E0E0E0"/>
<path d="M427.783 131.586H416.894V324.429H427.783V131.586Z" fill="#E0E0E0"/>
<path d="M457.271 131.586H446.382V351.553H457.271V131.586Z" fill="#E0E0E0"/>
<path d="M75.1179 131.586H64.229V351.553H75.1179V131.586Z" fill="#F0F0F0"/>
<path d="M394.095 318.99H69.168V329.879H394.095V318.99Z" fill="#F0F0F0"/>
<path d="M406.203 126.147H57.0601V137.036H406.203V126.147Z" fill="#F0F0F0"/>
<path d="M104.617 131.586H93.728V324.429H104.617V131.586Z" fill="#F0F0F0"/>
<path d="M134.106 131.586H123.217V324.429H134.106V131.586Z" fill="#F0F0F0"/>
<path d="M163.594 131.586H152.705V324.429H163.594V131.586Z" fill="#F0F0F0"/>
<path d="M193.093 131.586H182.205V324.429H193.093V131.586Z" fill="#F0F0F0"/>
<path d="M222.581 131.586H211.692V324.429H222.581V131.586Z" fill="#F0F0F0"/>
<path d="M252.08 131.586H241.191V324.429H252.08V131.586Z" fill="#F0F0F0"/>
<path d="M281.57 131.586H270.681V324.429H281.57V131.586Z" fill="#F0F0F0"/>
<path d="M311.057 131.586H300.168V324.429H311.057V131.586Z" fill="#F0F0F0"/>
<path d="M340.557 131.586H329.668V324.429H340.557V131.586Z" fill="#F0F0F0"/>
<path d="M370.045 131.586H359.156V324.429H370.045V131.586Z" fill="#F0F0F0"/>
<path d="M399.534 131.586H388.646V351.553H399.534V131.586Z" fill="#F0F0F0"/>
<path d="M235.148 0.0441895H141.733V93.4595H235.148V0.0441895Z" fill="#EBEBEB"/>
<path d="M225.092 10.0996H151.777V83.4147H225.092V10.0996Z" fill="#FAFAFA"/>
<path d="M235.148 93.4592H242.057V0.0439224H235.148V93.4592Z" fill="#E0E0E0"/>
<path d="M171.367 46.3297C176.339 46.3297 180.37 42.299 180.37 37.3269C180.37 32.3547 176.339 28.324 171.367 28.324C166.395 28.324 162.364 32.3547 162.364 37.3269C162.364 42.299 166.395 46.3297 171.367 46.3297Z" fill="#F0F0F0"/>
<path d="M192.458 33.138C196.469 33.138 199.72 29.8864 199.72 25.8753C199.72 21.8642 196.469 18.6125 192.458 18.6125C188.446 18.6125 185.195 21.8642 185.195 25.8753C185.195 29.8864 188.446 33.138 192.458 33.138Z" fill="#F0F0F0"/>
<path d="M186.164 74.9363C189.92 71.6782 190.324 65.9922 187.066 62.2363C183.808 58.4803 178.122 58.0767 174.366 61.3348C170.61 64.5929 170.206 70.2789 173.464 74.0349C176.722 77.7908 182.408 78.1944 186.164 74.9363Z" fill="#F0F0F0"/>
<path d="M206.368 43.1727C207.716 44.9333 208.511 47.054 208.654 49.2666C208.796 51.4792 208.279 53.6844 207.169 55.6034C206.058 57.5224 204.404 59.069 202.414 60.0477C200.425 61.0265 198.19 61.3934 195.992 61.1021C193.794 60.8108 191.731 59.8743 190.066 58.4111C188.4 56.9479 187.205 55.0236 186.633 52.8816C186.061 50.7395 186.136 48.4759 186.85 46.3768C187.564 44.2777 188.885 42.4374 190.644 41.0887C191.813 40.1913 193.147 39.5332 194.57 39.1522C195.993 38.7712 197.478 38.6748 198.939 38.8683C200.399 39.0619 201.807 39.5418 203.082 40.2804C204.357 41.019 205.474 42.0018 206.368 43.1727Z" fill="#F0F0F0"/>
<path d="M371.369 19.0818H277.954V112.497H371.369V19.0818Z" fill="#F0F0F0"/>
<path d="M361.323 29.137H288.008V102.452H361.323V29.137Z" fill="#FAFAFA"/>
<path d="M371.379 112.507H378.288V19.0918H371.379V112.507Z" fill="#E6E6E6"/>
<path d="M318.811 83.1751C321.941 83.1751 324.479 80.6372 324.479 77.5066C324.479 74.376 321.941 71.8381 318.811 71.8381C315.68 71.8381 313.142 74.376 313.142 77.5066C313.142 80.6372 315.68 83.1751 318.811 83.1751Z" fill="#EBEBEB"/>
<path d="M306.827 66.6696C306.827 67.5748 306.558 68.4596 306.055 69.2121C305.552 69.9646 304.837 70.5509 304.001 70.8968C303.164 71.2427 302.244 71.3327 301.356 71.1553C300.469 70.978 299.654 70.5413 299.014 69.9005C298.375 69.2597 297.94 68.4437 297.765 67.5556C297.59 66.6676 297.682 65.7475 298.029 64.9118C298.377 64.0762 298.965 63.3625 299.719 62.8611C300.472 62.3597 301.358 62.0932 302.263 62.0952C302.863 62.0952 303.458 62.2136 304.012 62.4436C304.566 62.6736 305.07 63.0108 305.494 63.4357C305.918 63.8606 306.254 64.3649 306.483 64.9199C306.711 65.4748 306.828 66.0694 306.827 66.6696Z" fill="#EBEBEB"/>
<path d="M313.194 89.5704C314.965 86.9888 314.308 83.4604 311.726 81.6894C309.145 79.9185 305.616 80.5756 303.845 83.1572C302.074 85.7388 302.731 89.2672 305.313 91.0381C307.895 92.8091 311.423 92.1519 313.194 89.5704Z" fill="#EBEBEB"/>
<path d="M326.323 56.6561C327.173 57.7652 327.675 59.1017 327.766 60.4963C327.857 61.891 327.532 63.2812 326.832 64.4911C326.132 65.7009 325.09 66.6761 323.836 67.2932C322.582 67.9103 321.173 68.1416 319.787 67.9579C318.402 67.7741 317.102 67.1836 316.052 66.2609C315.002 65.3382 314.25 64.1249 313.89 62.7745C313.53 61.4241 313.578 59.9972 314.029 58.6744C314.48 57.3516 315.314 56.1923 316.424 55.3431C317.911 54.2055 319.789 53.7048 321.645 53.951C323.501 54.1972 325.184 55.1701 326.323 56.6561Z" fill="#EBEBEB"/>
<path d="M340.787 53.7697C341.881 54.0157 342.877 54.5806 343.65 55.393C344.423 56.2054 344.937 57.2288 345.128 58.3337C345.32 59.4385 345.179 60.5753 344.724 61.6002C344.269 62.625 343.52 63.4919 342.572 64.0911C341.625 64.6904 340.52 64.9951 339.4 64.9668C338.279 64.9384 337.191 64.5782 336.275 63.9318C335.359 63.2853 334.655 62.3817 334.252 61.3351C333.85 60.2885 333.767 59.1461 334.014 58.0523C334.344 56.5866 335.244 55.3121 336.514 54.509C337.784 53.706 339.321 53.4401 340.787 53.7697Z" fill="#EBEBEB"/>
<path d="M339.269 84.5554C341.405 83.2058 342.042 80.3805 340.693 78.2448C339.343 76.1091 336.518 75.4719 334.382 76.8215C332.246 78.1711 331.609 80.9964 332.959 83.1321C334.308 85.2678 337.134 85.905 339.269 84.5554Z" fill="#EBEBEB"/>
<path d="M349.758 41.599C350.776 41.1294 351.91 40.9721 353.018 41.1471C354.125 41.3221 355.156 41.8215 355.979 42.5822C356.803 43.3429 357.382 44.3306 357.644 45.4206C357.906 46.5106 357.839 47.6538 357.452 48.7057C357.064 49.7577 356.374 50.6711 355.467 51.3304C354.56 51.9898 353.478 52.3655 352.358 52.4101C351.238 52.4547 350.13 52.1661 349.174 51.5809C348.218 50.9957 347.456 50.1401 346.986 49.1223C346.674 48.4463 346.498 47.7155 346.469 46.9716C346.439 46.2276 346.556 45.4851 346.814 44.7865C347.071 44.0879 347.464 43.4468 347.969 42.8999C348.474 42.353 349.082 41.9109 349.758 41.599Z" fill="#EBEBEB"/>
<path d="M326.803 37.0456C328.072 36.4613 329.485 36.2663 330.865 36.4853C332.245 36.7043 333.529 37.3274 334.554 38.2759C335.58 39.2244 336.301 40.4557 336.627 41.8141C336.953 43.1725 336.869 44.5971 336.386 45.9078C335.902 47.2184 335.041 48.3563 333.911 49.1776C332.781 49.9989 331.433 50.4667 330.037 50.522C328.641 50.5772 327.26 50.2173 326.069 49.4878C324.877 48.7583 323.929 47.692 323.343 46.4236C322.953 45.581 322.733 44.6695 322.695 43.7416C322.658 42.8137 322.804 41.8875 323.125 41.0162C323.447 40.1449 323.937 39.3456 324.568 38.6642C325.199 37.9829 325.959 37.4328 326.803 37.0456Z" fill="#EBEBEB"/>
<path d="M103.095 351.552C130.765 351.552 153.195 329.122 153.195 301.453C153.195 273.784 130.765 251.354 103.095 251.354C75.4263 251.354 52.9961 273.784 52.9961 301.453C52.9961 329.122 75.4263 351.552 103.095 351.552Z" fill="#E0E0E0"/>
<path d="M199.396 339.941C214.875 324.462 214.875 299.364 199.396 283.885C183.916 268.406 158.819 268.406 143.34 283.885C127.86 299.364 127.86 324.462 143.34 339.941C158.819 355.421 183.916 355.421 199.396 339.941Z" fill="#EBEBEB"/>
<path d="M474.746 351.553C486.175 351.553 495.44 342.287 495.44 330.858C495.44 319.429 486.175 310.164 474.746 310.164C463.317 310.164 454.052 319.429 454.052 330.858C454.052 342.287 463.317 351.553 474.746 351.553Z" fill="#EBEBEB"/>
<path d="M260.5 398.609C372.08 398.609 462.533 393.328 462.533 386.814C462.533 380.299 372.08 375.018 260.5 375.018C148.92 375.018 58.4663 380.299 58.4663 386.814C58.4663 393.328 148.92 398.609 260.5 398.609Z" fill="#F5F5F5"/>
<path d="M317.737 304.443C317.737 304.443 328.209 342.56 342.485 371.048C352.207 390.471 415.425 381.468 415.425 381.468L406.547 364.681C406.547 364.681 393.855 357.221 373.589 357.137C375.673 290.887 325.208 282.509 325.208 282.509L317.737 304.443Z" fill="black"/>
<path d="M433.764 372.059C427.033 370.183 425.751 369.808 420.374 364.077C414.997 358.346 408.787 362.202 405.536 364.921C405.536 364.921 406.443 375.873 413.164 381.437C425.428 380.708 433.462 380.749 444.267 382.281C452.228 382.281 440.485 373.935 433.764 372.059Z" fill="black"/>
<path d="M270.242 299.984L270.034 300.786L269.878 301.328L269.596 302.255C269.398 302.881 269.211 303.381 269.013 303.943C268.606 304.985 268.19 306.027 267.742 306.976C267.293 307.924 266.845 308.893 266.356 309.799C265.866 310.706 265.314 311.602 264.845 312.488C262.795 315.885 260.456 319.1 257.853 322.095C255.336 324.998 252.605 327.707 249.684 330.202C248.985 330.848 248.246 331.431 247.516 332.025C246.787 332.619 246.047 333.203 245.297 333.776C243.796 334.88 242.254 335.933 240.733 336.996L239.931 337.569C239.774 337.673 239.608 337.777 239.451 337.86C237.123 339.053 234.679 340.007 232.157 340.705C229.975 341.334 227.759 341.838 225.52 342.216C221.381 342.879 217.205 343.276 213.016 343.404C210.984 343.456 208.962 343.456 206.951 343.404C204.94 343.352 202.94 343.248 200.949 343.133C196.95 342.891 192.967 342.432 189.018 341.758C187.523 341.493 186.167 340.717 185.18 339.564C184.193 338.41 183.638 336.949 183.608 335.431C183.579 333.913 184.077 332.432 185.018 331.241C185.959 330.05 187.285 329.222 188.768 328.899H188.987L199.803 326.534C203.398 325.742 206.951 324.929 210.411 324.023C212.13 323.564 213.828 323.127 215.485 322.626C217.142 322.126 218.747 321.584 220.289 321.063C221.831 320.542 223.269 319.928 224.561 319.313C225.66 318.821 226.707 318.22 227.687 317.521L226.405 318.386C227.447 317.344 228.489 316.374 229.531 315.364C230.573 314.353 231.615 313.342 232.491 312.238C233.366 311.133 234.397 310.154 235.242 309.06C236.086 307.966 236.982 306.913 237.815 305.829C239.384 303.702 240.835 301.489 242.16 299.202C242.796 298.16 243.369 296.983 243.88 295.941C244.161 295.409 244.359 294.899 244.567 294.43C244.661 294.211 244.786 293.951 244.849 293.784L244.953 293.544V293.492V293.69C245.325 291.99 246.034 290.383 247.038 288.961C248.042 287.54 249.32 286.334 250.798 285.416C252.275 284.497 253.922 283.883 255.64 283.611C257.359 283.339 259.115 283.414 260.804 283.832C262.493 284.25 264.081 285.002 265.475 286.043C266.868 287.085 268.039 288.395 268.918 289.897C269.797 291.399 270.366 293.061 270.592 294.787C270.817 296.512 270.695 298.265 270.232 299.942L270.242 299.984Z" fill="#FF8B7B"/>
<path d="M196.844 330.608L191.072 324.658L178.651 334.745C178.651 334.745 187.623 345.3 193.729 341.508L196.844 330.608Z" fill="#FF8B7B"/>
<path d="M179.203 320.47L172.451 329.775L178.651 334.745L191.072 324.659L179.203 320.47Z" fill="#FF8B7B"/>
<path d="M320.936 282.061C304.993 281.249 274.39 279.977 250.976 274.997C250.122 275.778 249.298 276.58 248.517 277.424C224.832 302.797 241.504 344.508 276.067 347.655C292.156 349.124 311.141 350.26 330.866 350.198C346.256 350.198 357.395 341.601 358.562 328.878L359 324.189C360.824 304.527 345.079 283.291 320.936 282.061Z" fill="#3B82F6"/>
<path d="M320.937 282.061L330.867 350.198C346.257 350.198 357.396 341.591 358.563 328.878L359.001 324.189C360.824 304.527 345.08 283.291 320.937 282.061Z" fill="#263238"/>
<path d="M251.049 260.409C258.655 275.049 260.833 275.455 267.617 278.529C267.617 278.529 279.693 279.686 261.104 299.713C240.702 321.741 243.307 302.162 243.307 302.162C242.786 291.043 225.093 285.49 225.655 282.301L242.098 261.221C242.401 260.318 242.96 259.522 243.708 258.93C244.455 258.339 245.359 257.978 246.308 257.892C247.257 257.806 248.211 257.998 249.053 258.445C249.895 258.892 250.588 259.574 251.049 260.409Z" fill="#FF8B7B"/>
<path opacity="0.3" d="M251.05 260.409C250.594 259.572 249.905 258.887 249.066 258.436C248.228 257.985 247.276 257.789 246.327 257.871C245.379 257.952 244.474 258.309 243.725 258.897C242.976 259.485 242.414 260.278 242.109 261.18L225.656 282.259C225.25 284.573 234.534 288.157 239.806 294.242C247.58 286.948 249.497 277.289 252.446 263.055L251.05 260.409Z" fill="black"/>
<path d="M295.719 300.078L296.095 301.266L296.334 302.12C296.49 302.693 296.605 303.162 296.741 303.714C296.97 304.756 297.168 305.736 297.335 306.705C297.699 308.664 297.897 310.571 298.085 312.457C298.408 316.16 298.488 319.881 298.324 323.596C298.173 327.217 297.825 330.828 297.282 334.412C297.032 336.183 296.73 337.944 296.407 339.695L295.282 344.905L295.032 346.072C295.007 346.184 294.975 346.296 294.938 346.405C294.071 348.859 292.957 351.219 291.614 353.449C290.453 355.405 289.183 357.294 287.811 359.107C285.24 362.431 282.455 365.585 279.475 368.548C278.016 369.985 276.547 371.371 275.077 372.716C273.608 374.06 272.045 375.352 270.524 376.633C267.433 379.197 264.205 381.59 260.854 383.802C259.584 384.632 258.066 384.996 256.558 384.831C255.05 384.666 253.645 383.984 252.584 382.899C251.523 381.815 250.871 380.396 250.74 378.885C250.608 377.374 251.004 375.864 251.862 374.612L251.987 374.435L258.239 365.296C260.323 362.254 262.344 359.222 264.241 356.2C265.178 354.689 266.116 353.199 266.981 351.698C267.846 350.198 268.648 348.708 269.398 347.259C270.149 345.811 270.795 344.394 271.316 343.091C271.775 341.975 272.124 340.816 272.358 339.632L272.003 341.143L272.285 336.652C272.285 335.151 272.441 333.672 272.462 332.192C272.483 330.712 272.524 329.243 272.462 327.795C272.399 326.347 272.462 324.888 272.399 323.439C272.264 320.574 272.129 317.74 271.816 315.02C271.67 313.665 271.482 312.321 271.295 311.06C271.212 310.414 271.087 309.82 270.993 309.237L270.847 308.445L270.774 308.111V308.018V308.164C270.243 306.526 270.04 304.799 270.176 303.083C270.312 301.366 270.786 299.694 271.568 298.16C272.351 296.626 273.428 295.262 274.738 294.145C276.048 293.027 277.566 292.179 279.204 291.648C280.842 291.117 282.568 290.914 284.285 291.05C286.001 291.186 287.674 291.66 289.207 292.442C290.741 293.225 292.105 294.302 293.223 295.612C294.34 296.922 295.188 298.44 295.719 300.078Z" fill="#FF8B7B"/>
<path d="M258.989 370.298L250.716 369.923L248.632 385.782C248.632 385.782 262.397 387.314 264.262 380.374L258.989 370.298Z" fill="#FF8B7B"/>
<path d="M239.191 375.018L231.897 385.563L248.59 385.782L250.715 369.923L239.191 375.018Z" fill="#FF8B7B"/>
<path d="M262.667 246.686C258.562 265.931 257.27 277.414 244.807 285.823C226.051 298.473 200.345 285.74 197.917 265.598C195.698 247.467 202.773 219.031 225.28 214.332C247.412 209.705 266.752 227.429 262.667 246.686Z" fill="#FF8B7B"/>
<path d="M228.938 241.819C228.779 241.726 228.655 241.583 228.584 241.413C228.16 240.383 227.498 239.468 226.652 238.744C225.806 238.019 224.801 237.505 223.718 237.245C223.483 237.203 223.274 237.07 223.137 236.875C223 236.679 222.947 236.438 222.988 236.203C223.03 235.968 223.163 235.759 223.358 235.622C223.554 235.486 223.795 235.432 224.03 235.473C225.405 235.784 226.684 236.419 227.763 237.325C228.842 238.232 229.688 239.383 230.23 240.683C230.325 240.898 230.331 241.141 230.247 241.359C230.163 241.578 229.996 241.755 229.782 241.85C229.65 241.915 229.503 241.946 229.356 241.94C229.209 241.935 229.065 241.893 228.938 241.819Z" fill="#263238"/>
<path d="M206.524 262.493C206.7 262.436 206.89 262.436 207.066 262.493C210.828 263.702 215.829 261.93 215.861 261.909C215.951 261.836 216.054 261.781 216.166 261.748C216.277 261.715 216.394 261.705 216.509 261.718C216.624 261.73 216.736 261.766 216.838 261.822C216.939 261.878 217.029 261.954 217.101 262.045C217.248 262.228 217.317 262.462 217.294 262.696C217.271 262.93 217.156 263.145 216.976 263.295C216.84 263.4 211.182 265.681 206.556 264.181C206.445 264.146 206.342 264.089 206.253 264.013C206.164 263.938 206.091 263.846 206.038 263.742C205.985 263.639 205.952 263.526 205.943 263.41C205.933 263.294 205.947 263.177 205.983 263.066C206.022 262.935 206.091 262.815 206.185 262.715C206.279 262.615 206.396 262.539 206.524 262.493Z" fill="#263238"/>
<path d="M210.86 228.68C210.675 228.701 210.488 228.672 210.318 228.596C209.338 228.069 208.247 227.782 207.135 227.759C206.023 227.735 204.921 227.976 203.92 228.461C203.819 228.526 203.706 228.57 203.588 228.59C203.47 228.609 203.349 228.605 203.232 228.577C203.116 228.549 203.006 228.497 202.91 228.426C202.814 228.354 202.734 228.263 202.674 228.16C202.614 228.056 202.575 227.941 202.561 227.822C202.547 227.703 202.557 227.582 202.59 227.467C202.624 227.352 202.681 227.245 202.757 227.153C202.833 227.06 202.928 226.984 203.034 226.929C204.288 226.294 205.677 225.971 207.082 225.985C208.488 226 209.869 226.352 211.11 227.012C211.214 227.062 211.307 227.131 211.384 227.216C211.462 227.301 211.521 227.401 211.56 227.51C211.599 227.618 211.616 227.733 211.61 227.848C211.604 227.963 211.576 228.076 211.526 228.18C211.464 228.311 211.371 228.425 211.255 228.512C211.139 228.599 211.003 228.657 210.86 228.68Z" fill="#263238"/>
<path d="M207.098 244.685C207.098 244.685 201.888 247.894 199.262 251.208C200.5 252.619 202.184 253.564 204.034 253.886L207.098 244.685Z" fill="#FF5652"/>
<path d="M220.904 245.768C220.592 247.946 219.185 249.551 217.778 249.343C216.372 249.134 215.455 247.259 215.767 245.039C216.08 242.82 217.476 241.267 218.893 241.465C220.31 241.663 221.175 243.601 220.904 245.768Z" fill="#263238"/>
<path d="M203.347 241.486C203.044 243.663 201.638 245.258 200.221 245.06C198.803 244.862 197.907 242.976 198.209 240.756C198.512 238.537 199.918 236.984 201.335 237.182C202.753 237.38 203.659 239.318 203.347 241.486Z" fill="#263238"/>
<path d="M263.282 267.067C259 269.971 253.845 271.3 248.694 270.829C242.129 270.11 246.933 261.096 250.403 255.47C251.696 253.385 253.754 251.891 256.137 251.307C258.519 250.722 261.035 251.095 263.146 252.344C268.325 255.345 268.606 263.451 263.282 267.067Z" fill="#FF8B7B"/>
<path d="M231.147 215.332C222.728 214.415 225.125 204.797 225.593 202.588C226.865 207.631 238.681 214.196 238.681 214.196C238.681 214.196 236.462 215.905 231.147 215.332Z" fill="#FF8B7B"/>
<path d="M231.084 215.842C230.07 215.793 229.078 215.523 228.178 215.052C227.279 214.58 226.492 213.918 225.874 213.112C223.499 209.82 224.603 204.683 225.02 202.744L225.083 202.484L226.125 202.703L226.062 202.974C225.676 204.776 224.634 209.59 226.739 212.498C227.275 213.184 227.952 213.746 228.726 214.146C229.499 214.545 230.35 214.772 231.22 214.811L231.084 215.842Z" fill="#263238"/>
<path d="M236.534 216.082C228.396 213.758 232.366 204.683 233.22 202.588C233.616 207.798 244.547 215.905 244.547 215.905C244.547 215.905 241.744 217.562 236.534 216.082Z" fill="#FF8B7B"/>
<path d="M320.936 282.061C320.936 282.061 311.339 345.102 312.017 375.008C312.486 395.4 377.09 385.928 377.09 385.928L376.225 368.318C376.225 368.318 363.887 353.991 349.758 360.399C354.715 351.404 357.612 341.421 358.24 331.171L320.936 282.061Z" fill="#263238"/>
<path d="M373.61 368.579C377.548 365.724 384.728 361.67 388.667 367.693C392.605 373.716 395.606 376.488 401.858 378.457C408.11 380.426 419.697 386.793 411.705 386.793C403.713 386.793 384.384 384.344 377.09 385.907C371.765 380.082 373.61 368.579 373.61 368.579Z" fill="#263238"/>
<path d="M137.815 318.24C162.785 318.24 183.027 300.549 183.027 278.727C183.027 256.905 162.785 239.215 137.815 239.215C112.845 239.215 92.6025 256.905 92.6025 278.727C92.6025 300.549 112.845 318.24 137.815 318.24Z" fill="#3B82F6"/>
<path d="M108.274 253.125C115.341 253.125 121.07 248.119 121.07 241.944C121.07 235.769 115.341 230.764 108.274 230.764C101.207 230.764 95.4785 235.769 95.4785 241.944C95.4785 248.119 101.207 253.125 108.274 253.125Z" fill="#3B82F6"/>
<path d="M167.346 253.125C174.412 253.125 180.141 248.119 180.141 241.944C180.141 235.769 174.412 230.764 167.346 230.764C160.279 230.764 154.55 235.769 154.55 241.944C154.55 248.119 160.279 253.125 167.346 253.125Z" fill="#3B82F6"/>
<path d="M137.815 385.782C169.467 385.782 195.125 363.357 195.125 335.693C195.125 308.03 169.467 285.604 137.815 285.604C106.164 285.604 80.5054 308.03 80.5054 335.693C80.5054 363.357 106.164 385.782 137.815 385.782Z" fill="#3B82F6"/>
<g opacity="0.2">
<path d="M80.5054 335.693C80.5054 336.235 80.5054 336.777 80.5054 337.319C93.3324 328.139 101.523 314.176 101.523 298.557C101.523 298.015 101.523 297.515 101.523 296.941C88.6955 306.121 80.5054 320.074 80.5054 335.693Z" fill="#263238"/>
<path d="M174.107 296.952C174.107 297.483 174.107 297.994 174.107 298.567C174.107 314.197 182.298 328.149 195.125 337.329C195.125 336.787 195.125 336.245 195.125 335.704C195.125 320.074 186.934 306.121 174.107 296.952Z" fill="#263238"/>
</g>
<path opacity="0.4" d="M137.815 376.321C160.161 376.321 178.276 360.805 178.276 341.664C178.276 322.524 160.161 307.007 137.815 307.007C115.469 307.007 97.354 322.524 97.354 341.664C97.354 360.805 115.469 376.321 137.815 376.321Z" fill="white"/>
<path opacity="0.4" d="M137.815 289.605C148.732 289.605 157.582 281.871 157.582 272.329C157.582 262.788 148.732 255.053 137.815 255.053C126.898 255.053 118.048 262.788 118.048 272.329C118.048 281.871 126.898 289.605 137.815 289.605Z" fill="white"/>
<path opacity="0.2" d="M112.077 265.473C115.369 265.473 118.038 263.14 118.038 260.263C118.038 257.385 115.369 255.053 112.077 255.053C108.786 255.053 106.117 257.385 106.117 260.263C106.117 263.14 108.786 265.473 112.077 265.473Z" fill="white"/>
<path opacity="0.2" d="M163.542 265.473C166.834 265.473 169.503 263.14 169.503 260.263C169.503 257.385 166.834 255.053 163.542 255.053C160.251 255.053 157.582 257.385 157.582 260.263C157.582 263.14 160.251 265.473 163.542 265.473Z" fill="white"/>
<path d="M126.749 259.065C128.78 259.065 130.427 257.418 130.427 255.387C130.427 253.355 128.78 251.708 126.749 251.708C124.717 251.708 123.07 253.355 123.07 255.387C123.07 257.418 124.717 259.065 126.749 259.065Z" fill="#263238"/>
<path d="M145.234 255.386C145.234 254.659 145.45 253.947 145.855 253.342C146.259 252.737 146.834 252.265 147.507 251.987C148.18 251.709 148.92 251.637 149.634 251.78C150.347 251.922 151.003 252.274 151.517 252.789C152.031 253.305 152.38 253.961 152.521 254.675C152.662 255.39 152.587 256.129 152.307 256.801C152.027 257.473 151.554 258.047 150.948 258.45C150.342 258.853 149.63 259.067 148.902 259.065C148.419 259.065 147.941 258.97 147.496 258.785C147.05 258.6 146.645 258.328 146.304 257.987C145.964 257.645 145.694 257.24 145.51 256.793C145.326 256.347 145.233 255.869 145.234 255.386Z" fill="#263238"/>
<path d="M139.222 265.254L142.619 261.284C142.846 261.013 142.992 260.683 143.038 260.332C143.085 259.981 143.031 259.624 142.882 259.303C142.734 258.982 142.497 258.709 142.199 258.518C141.901 258.326 141.555 258.223 141.202 258.221H134.418C134.063 258.221 133.716 258.323 133.417 258.514C133.118 258.706 132.881 258.979 132.733 259.301C132.585 259.624 132.532 259.982 132.582 260.334C132.631 260.685 132.78 261.015 133.011 261.284L136.398 265.254C136.573 265.457 136.79 265.62 137.033 265.731C137.277 265.843 137.542 265.901 137.81 265.901C138.078 265.901 138.343 265.843 138.586 265.731C138.83 265.62 139.047 265.457 139.222 265.254Z" fill="#263238"/>
<path d="M140.67 308.414L122.956 296.42C122.537 296.137 122.052 295.965 121.548 295.922C121.043 295.88 120.536 295.967 120.075 296.176C119.614 296.385 119.215 296.709 118.915 297.117C118.614 297.524 118.424 298.002 118.361 298.504L116.475 312.551C116.408 313.054 116.472 313.565 116.659 314.037C116.847 314.508 117.153 314.923 117.547 315.242C117.942 315.562 118.412 315.774 118.912 315.859C119.412 315.944 119.926 315.899 120.404 315.729L140.67 308.414Z" fill="white"/>
<path d="M134.355 308.987L152.934 298.379C153.373 298.127 153.868 297.991 154.374 297.986C154.88 297.98 155.379 298.105 155.822 298.347C156.266 298.59 156.64 298.943 156.908 299.372C157.176 299.801 157.329 300.291 157.352 300.797L158.071 314.947C158.096 315.453 157.991 315.956 157.765 316.41C157.54 316.863 157.202 317.251 156.784 317.536C156.366 317.822 155.881 317.995 155.377 318.04C154.873 318.085 154.365 317.999 153.903 317.792L134.355 308.987Z" fill="white"/>
<path d="M129.271 274.455V273.413C131.398 273.41 133.437 272.564 134.941 271.06C136.445 269.556 137.291 267.517 137.294 265.39H138.336C138.333 267.793 137.377 270.097 135.678 271.797C133.978 273.496 131.674 274.452 129.271 274.455Z" fill="#263238"/>
<path d="M146.359 274.455C143.956 274.452 141.652 273.496 139.952 271.797C138.253 270.097 137.297 267.793 137.294 265.39H138.336C138.336 267.518 139.181 269.558 140.686 271.063C142.191 272.568 144.231 273.413 146.359 273.413V274.455Z" fill="#263238"/>
<path d="M138.211 315.166H137.721C135.939 315.16 134.231 314.449 132.971 313.188C131.712 311.926 131.003 310.217 131 308.435C131.006 306.654 131.716 304.947 132.975 303.688C134.234 302.429 135.941 301.719 137.721 301.714H138.211C139.99 301.716 141.696 302.422 142.957 303.677C144.218 304.932 144.931 306.635 144.942 308.414C144.942 310.201 144.234 311.915 142.972 313.181C141.71 314.446 139.998 315.16 138.211 315.166Z" fill="white"/>
<path d="M112.045 379.338C119.772 371.611 119.093 358.402 110.527 349.836C101.961 341.271 88.7527 340.591 81.0251 348.319C73.2976 356.046 73.9771 369.254 82.5429 377.82C91.1087 386.386 104.317 387.066 112.045 379.338Z" fill="#3B82F6"/>
<path opacity="0.4" d="M104.036 379.272C108.516 374.792 107.906 366.918 102.672 361.685C97.4394 356.452 89.5651 355.842 85.0849 360.322C80.6046 364.802 81.2149 372.676 86.448 377.909C91.6811 383.142 99.5553 383.753 104.036 379.272Z" fill="#263238"/>
<path opacity="0.4" d="M101.21 355.585C100.861 356.064 100.374 356.425 99.8145 356.618C99.2547 356.812 98.649 356.829 98.0791 356.668C97.5092 356.506 97.0024 356.174 96.627 355.716C96.2517 355.258 96.0258 354.696 95.9799 354.105C95.934 353.514 96.0702 352.924 96.3702 352.413C96.6702 351.903 97.1195 351.496 97.6576 351.249C98.1958 351.001 98.7968 350.925 99.3798 351.029C99.9628 351.134 100.5 351.415 100.918 351.834C101.45 352.295 101.779 352.948 101.834 353.65C101.888 354.352 101.664 355.047 101.21 355.585Z" fill="#263238"/>
<path opacity="0.4" d="M90.7375 354.585C90.2932 354.977 89.7394 355.223 89.1506 355.291C88.5619 355.358 87.9666 355.244 87.4451 354.962C86.9236 354.681 86.5009 354.246 86.2341 353.717C85.9673 353.188 85.8691 352.59 85.9529 352.003C86.0367 351.417 86.2985 350.87 86.7028 350.437C87.1071 350.003 87.6345 349.704 88.214 349.58C88.7934 349.456 89.397 349.513 89.9433 349.742C90.4895 349.972 90.9522 350.364 91.2689 350.865C91.6864 351.43 91.8646 352.138 91.7652 352.834C91.6658 353.529 91.2967 354.158 90.7375 354.585Z" fill="#263238"/>
<path opacity="0.4" d="M84.0375 358.857C83.8737 359.426 83.5396 359.931 83.08 360.304C82.6205 360.677 82.0576 360.901 81.4672 360.945C80.8768 360.988 80.2872 360.85 79.7777 360.548C79.2683 360.247 78.8636 359.796 78.618 359.257C78.3724 358.719 78.2977 358.118 78.4041 357.535C78.5104 356.953 78.7927 356.417 79.2128 356C79.6329 355.583 80.1708 355.305 80.754 355.202C81.3371 355.1 81.9376 355.179 82.4745 355.429C83.134 355.679 83.6681 356.18 83.9608 356.821C84.2535 357.463 84.281 358.195 84.0375 358.857Z" fill="#263238"/>
<path d="M193.096 377.809C201.662 369.243 202.341 356.035 194.614 348.307C186.886 340.58 173.678 341.259 165.112 349.825C156.546 358.391 155.867 371.599 163.594 379.327C171.322 387.054 184.53 386.375 193.096 377.809Z" fill="#3B82F6"/>
<path opacity="0.4" d="M189.166 377.912C194.399 372.679 195.009 364.805 190.529 360.325C186.049 355.845 178.175 356.455 172.942 361.688C167.709 366.921 167.098 374.795 171.579 379.276C176.059 383.756 183.933 383.146 189.166 377.912Z" fill="#263238"/>
<path opacity="0.4" d="M174.41 355.585C174.758 356.064 175.245 356.425 175.805 356.618C176.365 356.812 176.97 356.829 177.54 356.668C178.11 356.506 178.617 356.174 178.992 355.716C179.368 355.258 179.594 354.696 179.64 354.105C179.686 353.514 179.549 352.924 179.249 352.413C178.949 351.903 178.5 351.496 177.962 351.249C177.424 351.001 176.823 350.925 176.24 351.029C175.657 351.134 175.12 351.415 174.701 351.834C174.172 352.297 173.844 352.949 173.79 353.65C173.735 354.351 173.958 355.046 174.41 355.585Z" fill="#263238"/>
<path opacity="0.4" d="M188.494 353.472C189.339 352.141 189.098 350.474 187.956 349.749C186.814 349.025 185.204 349.517 184.359 350.848C183.514 352.179 183.755 353.846 184.897 354.571C186.038 355.295 187.649 354.803 188.494 353.472Z" fill="#263238"/>
<path opacity="0.4" d="M191.582 358.857C191.746 359.426 192.08 359.931 192.54 360.304C192.999 360.677 193.562 360.901 194.152 360.945C194.743 360.988 195.332 360.85 195.842 360.548C196.351 360.247 196.756 359.796 197.002 359.257C197.247 358.719 197.322 358.118 197.216 357.535C197.109 356.953 196.827 356.417 196.407 356C195.987 355.583 195.449 355.305 194.866 355.202C194.283 355.1 193.682 355.179 193.145 355.429C192.487 355.681 191.955 356.182 191.663 356.823C191.37 357.464 191.341 358.195 191.582 358.857Z" fill="#263238"/>
<path d="M101.563 309.456C99.8589 310.416 98.2473 311.532 96.7494 312.79C95.1394 314.117 93.628 315.558 92.2271 317.104C90.8581 318.589 89.6107 320.181 88.4967 321.866C87.5976 323.167 86.9182 324.607 86.4857 326.128C86.212 327.505 85.6697 328.815 84.8898 329.983C84.1099 331.15 83.1077 332.153 81.9403 332.933C80.7729 333.714 79.4632 334.257 78.0861 334.531C76.7089 334.805 75.2912 334.805 73.914 334.532C72.5367 334.258 71.2268 333.716 70.0591 332.936C68.8914 332.156 67.8888 331.154 67.1084 329.986C66.328 328.819 65.7853 327.509 65.511 326.132C65.2368 324.755 65.2366 323.337 65.5102 321.96C65.742 320.765 66.1792 319.619 66.8023 318.573L67.8443 316.937C69.599 314.06 71.7531 311.446 74.2422 309.174C76.3853 307.169 78.6812 305.333 81.109 303.683C83.4757 302.057 85.955 300.602 88.528 299.328C91.1938 297.988 93.9862 296.916 96.864 296.129C98.5291 295.707 100.29 295.905 101.821 296.685C103.351 297.465 104.545 298.775 105.182 300.37C105.819 301.965 105.855 303.737 105.284 305.357C104.712 306.976 103.571 308.333 102.074 309.174L101.563 309.456Z" fill="#3B82F6"/>
<path d="M178.807 296.087C181.704 296.868 184.515 297.939 187.196 299.286C189.773 300.558 192.256 302.013 194.625 303.641C197.051 305.294 199.346 307.13 201.492 309.133C203.978 311.407 206.132 314.021 207.89 316.896L208.848 318.49C210.238 320.919 210.621 323.795 209.916 326.503C209.21 329.211 207.472 331.535 205.074 332.976C202.675 334.418 199.808 334.863 197.085 334.216C194.363 333.569 192.002 331.881 190.509 329.514C189.88 328.457 189.433 327.302 189.186 326.096C188.733 324.563 188.029 323.116 187.102 321.814C185.991 320.127 184.744 318.534 183.371 317.052C181.974 315.506 180.466 314.065 178.86 312.738C177.362 311.48 175.75 310.364 174.045 309.404L173.566 309.143C172.059 308.307 170.908 306.949 170.329 305.326C169.75 303.702 169.784 301.922 170.423 300.321C171.062 298.72 172.262 297.407 173.8 296.627C175.338 295.848 177.107 295.656 178.776 296.087H178.807Z" fill="#3B82F6"/>
</svg>
