<svg width="308" height="308" viewBox="0 0 308 308" fill="none" xmlns="http://www.w3.org/2000/svg">
<g clip-path="url(#clip0_250_2441)">
<path d="M277.138 245.47H256.736V245.624H277.138V245.47Z" fill="#EBEBEB"/>
<path d="M204.032 247.145H198.678V247.299H204.032V247.145Z" fill="#EBEBEB"/>
<path d="M256.12 239.753H244.299V239.907H256.12V239.753Z" fill="#EBEBEB"/>
<path d="M58.9204 240.788H32.3154V240.942H58.9204V240.788Z" fill="#EBEBEB"/>
<path d="M68.3082 240.788H64.409V240.942H68.3082V240.788Z" fill="#EBEBEB"/>
<path d="M138.692 243.388H80.9855V243.542H138.692V243.388Z" fill="#EBEBEB"/>
<path d="M145.992 208.085H27.0486C26.1168 208.083 25.2237 207.712 24.5654 207.052C23.9071 206.393 23.5374 205.499 23.5374 204.567V37.3666C23.5455 36.4401 23.9188 35.5543 24.5762 34.9015C25.2336 34.2487 26.1221 33.8816 27.0486 33.88H145.992C146.925 33.88 147.82 34.2506 148.479 34.9102C149.139 35.5698 149.509 36.4645 149.509 37.3974V204.567C149.509 205.5 149.139 206.395 148.479 207.055C147.82 207.714 146.925 208.085 145.992 208.085ZM27.0486 34.0032C26.1576 34.0048 25.3037 34.3599 24.6743 34.9905C24.0449 35.6211 23.6914 36.4756 23.6914 37.3666V204.567C23.6914 205.458 24.0449 206.313 24.6743 206.944C25.3037 207.574 26.1576 207.929 27.0486 207.931H145.992C146.884 207.929 147.738 207.574 148.368 206.944C148.999 206.314 149.354 205.459 149.355 204.567V37.3666C149.354 36.475 148.999 35.6205 148.368 34.9901C147.738 34.3597 146.884 34.0048 145.992 34.0032H27.0486Z" fill="#EBEBEB"/>
<path d="M279.239 208.085H160.289C159.357 208.083 158.463 207.712 157.804 207.053C157.145 206.394 156.774 205.5 156.772 204.567V37.3666C156.782 36.4396 157.156 35.5537 157.815 34.9011C158.473 34.2484 159.362 33.8816 160.289 33.88H279.239C280.164 33.8832 281.051 34.251 281.707 34.9036C282.363 35.5563 282.736 36.4412 282.744 37.3666V204.567C282.744 205.498 282.375 206.391 281.718 207.05C281.061 207.71 280.17 208.082 279.239 208.085ZM160.289 34.0032C159.398 34.0048 158.543 34.3597 157.913 34.9901C157.283 35.6205 156.928 36.475 156.926 37.3666V204.567C156.928 205.459 157.283 206.314 157.913 206.944C158.543 207.574 159.398 207.929 160.289 207.931H279.239C280.13 207.929 280.985 207.574 281.615 206.944C282.246 206.314 282.601 205.459 282.602 204.567V37.3666C282.601 36.475 282.246 35.6205 281.615 34.9901C280.985 34.3597 280.13 34.0048 279.239 34.0032H160.289Z" fill="#EBEBEB"/>
<path d="M307.815 236.852H-0.184799V237.006H307.815V236.852Z" fill="#EBEBEB"/>
<path d="M90.4719 109.759C88.55 109.759 86.6342 109.71 84.7123 109.605C81.4167 109.432 77.9363 109.063 74.8563 107.591C71.4622 105.964 69.0721 103.026 68.6286 99.9214L69.2446 99.829C69.6634 102.736 71.918 105.496 75.1274 107.036C78.0965 108.459 81.4968 108.816 84.7308 108.989C101.233 109.882 117.447 106.814 136.715 101.936C139.545 101.221 142.372 100.492 145.197 99.7489C159.199 96.1145 173.681 92.3569 188.317 90.9278C208.528 88.9627 225.826 91.8702 239.735 99.5518L239.439 100.088C225.641 92.4431 208.461 89.5602 188.379 91.513C173.804 92.9298 159.353 96.6874 145.37 100.316C142.542 101.049 139.715 101.788 136.888 102.502C119.794 106.858 105.102 109.759 90.4719 109.759Z" fill="#F0F0F0"/>
<path d="M90.4719 114.958C88.55 114.958 86.6342 114.902 84.7123 114.804C81.4167 114.625 77.9363 114.256 74.8563 112.79C71.4622 111.163 69.0721 108.219 68.6286 105.114L69.2446 105.028C69.6634 107.929 71.918 110.695 75.1274 112.229C78.0965 113.658 81.4968 114.015 84.7308 114.188C101.233 115.075 117.447 112.007 136.715 107.129C139.542 106.414 142.37 105.681 145.197 104.948C159.199 101.307 173.681 97.5559 188.317 96.1268C208.528 94.1556 225.826 97.0693 239.735 104.751L239.439 105.287C225.641 97.6422 208.461 94.7593 188.379 96.712C173.804 98.135 159.347 101.886 145.37 105.515C142.54 106.254 139.713 106.983 136.888 107.701C119.8 112.05 105.102 114.958 90.4719 114.958Z" fill="#F0F0F0"/>
<path d="M90.4719 120.151C88.55 120.151 86.6342 120.102 84.7123 119.997C81.4167 119.818 77.9363 119.455 74.8563 117.982C71.4622 116.356 69.0721 113.412 68.6286 110.307L69.2446 110.221C69.6634 113.128 71.918 115.888 75.1274 117.428C78.0965 118.851 81.4968 119.208 84.7308 119.381C101.233 120.268 117.447 117.2 136.715 112.328C139.545 111.609 142.37 110.88 145.191 110.141C159.199 106.506 173.675 102.749 188.311 101.32C208.522 99.3546 225.819 102.262 239.729 109.944L239.433 110.486C225.635 102.841 208.454 99.9522 188.373 101.911C173.798 103.328 159.341 107.085 145.358 110.714C142.53 111.447 139.709 112.18 136.881 112.894C119.794 117.243 105.102 120.151 90.4719 120.151Z" fill="#F0F0F0"/>
<path d="M90.4719 125.344C88.55 125.344 86.6342 125.294 84.7123 125.19C81.4167 125.017 77.9363 124.648 74.8563 123.175C71.4622 121.549 69.0721 118.611 68.6286 115.5L69.2446 115.414C69.6634 118.321 71.918 121.081 75.1274 122.621C78.0965 124.044 81.4968 124.401 84.7308 124.574C101.233 125.461 117.447 122.393 136.715 117.52C139.542 116.806 142.37 116.067 145.197 115.334C159.199 111.699 173.681 107.942 188.317 106.513C208.528 104.548 225.826 107.455 239.735 115.167L239.439 115.703C225.641 108.059 208.461 105.17 188.379 107.129C173.804 108.545 159.353 112.303 145.37 115.931C142.542 116.664 139.715 117.403 136.888 118.118C119.794 122.442 105.102 125.344 90.4719 125.344Z" fill="#F0F0F0"/>
<path d="M90.4719 130.537C88.55 130.537 86.6342 130.487 84.7123 130.389C81.4167 130.21 77.9363 129.84 74.8563 128.374C71.4622 126.742 69.0721 123.804 68.6286 120.699L69.2446 120.613C69.6634 123.514 71.918 126.28 75.1274 127.814C78.0965 129.243 81.4968 129.6 84.7308 129.773C101.233 130.66 117.447 127.592 136.715 122.713C139.542 121.999 142.37 121.266 145.197 120.533C159.199 116.892 173.675 113.141 188.317 111.712C208.528 109.74 225.826 112.654 239.735 120.336L239.439 120.872C225.641 113.227 208.461 110.344 188.379 112.297C173.804 113.72 159.347 117.471 145.37 121.099C142.54 121.839 139.713 122.568 136.888 123.286C119.8 127.635 105.102 130.537 90.4719 130.537Z" fill="#F0F0F0"/>
<path d="M267.824 189.913H224.711V236.698H267.824V189.913Z" fill="#E6E6E6"/>
<path d="M267.818 189.913H237.628V236.698H267.818V189.913Z" fill="#F0F0F0"/>
<path d="M253.714 230.333C259.195 229.791 263.199 224.908 262.657 219.427C262.115 213.946 257.232 209.942 251.75 210.484C246.269 211.026 242.265 215.909 242.808 221.391C243.35 226.872 248.233 230.876 253.714 230.333Z" fill="#E6E6E6"/>
<path d="M247.885 200.939C247.885 199.977 248.17 199.036 248.705 198.236C249.239 197.435 249.999 196.812 250.889 196.443C251.778 196.075 252.756 195.979 253.7 196.166C254.644 196.354 255.511 196.818 256.192 197.498C256.873 198.179 257.336 199.046 257.524 199.99C257.712 200.934 257.615 201.912 257.247 202.802C256.879 203.691 256.255 204.451 255.455 204.985C254.654 205.52 253.713 205.806 252.751 205.806C251.46 205.806 250.223 205.293 249.31 204.38C248.397 203.468 247.885 202.23 247.885 200.939Z" fill="#E0E0E0"/>
<path d="M249.985 219.709C249.985 219.147 250.152 218.598 250.464 218.131C250.776 217.664 251.219 217.3 251.738 217.085C252.257 216.87 252.828 216.814 253.379 216.924C253.93 217.033 254.436 217.304 254.833 217.701C255.23 218.098 255.5 218.604 255.61 219.155C255.72 219.706 255.663 220.277 255.448 220.795C255.234 221.314 254.87 221.758 254.403 222.07C253.936 222.382 253.387 222.548 252.825 222.548C252.452 222.549 252.082 222.476 251.737 222.334C251.392 222.192 251.079 221.982 250.815 221.719C250.551 221.455 250.342 221.141 250.2 220.796C250.057 220.452 249.984 220.082 249.985 219.709Z" fill="#FAFAFA"/>
<path d="M88.1742 190.079H45.0604V236.864H88.1742V190.079Z" fill="#E6E6E6"/>
<path d="M75.2567 190.079H37.4713V236.864H75.2567V190.079Z" fill="#F0F0F0"/>
<path d="M73.4826 191.33H38.9374V198.537H73.4826V191.33Z" fill="#FAFAFA"/>
<path d="M73.4826 200.003H38.9374V235.423H73.4826V200.003Z" fill="#E0E0E0"/>
<path d="M43.1138 197.028C44.1923 197.028 45.0666 196.153 45.0666 195.075C45.0666 193.996 44.1923 193.122 43.1138 193.122C42.0354 193.122 41.1611 193.996 41.1611 195.075C41.1611 196.153 42.0354 197.028 43.1138 197.028Z" fill="#E0E0E0"/>
<path d="M62.2098 197.028C63.2883 197.028 64.1626 196.153 64.1626 195.075C64.1626 193.996 63.2883 193.122 62.2098 193.122C61.1314 193.122 60.2571 193.996 60.2571 195.075C60.2571 196.153 61.1314 197.028 62.2098 197.028Z" fill="#E0E0E0"/>
<path d="M48.5962 195.075C48.5962 195.267 48.5392 195.456 48.4322 195.616C48.3253 195.776 48.1733 195.9 47.9954 195.974C47.8176 196.048 47.6219 196.067 47.4331 196.029C47.2443 195.992 47.0709 195.899 46.9348 195.763C46.7986 195.627 46.7059 195.454 46.6684 195.265C46.6308 195.076 46.6501 194.88 46.7238 194.702C46.7974 194.525 46.9222 194.373 47.0822 194.266C47.2423 194.159 47.4305 194.102 47.623 194.102C47.8811 194.102 48.1287 194.204 48.3112 194.387C48.4937 194.569 48.5962 194.817 48.5962 195.075Z" fill="#E0E0E0"/>
<path d="M53.592 195.075C53.5932 195.269 53.5368 195.459 53.4299 195.621C53.3231 195.783 53.1705 195.909 52.9917 195.984C52.8128 196.059 52.6157 196.08 52.4253 196.042C52.2349 196.005 52.0598 195.913 51.9222 195.776C51.7846 195.639 51.6907 195.465 51.6524 195.274C51.6141 195.084 51.6332 194.887 51.7071 194.708C51.781 194.528 51.9066 194.375 52.0678 194.267C52.229 194.159 52.4186 194.102 52.6126 194.102C52.8713 194.102 53.1195 194.204 53.303 194.386C53.4865 194.569 53.5904 194.816 53.592 195.075Z" fill="#E0E0E0"/>
<path d="M58.5816 195.075C58.5816 195.267 58.5245 195.456 58.4176 195.616C58.3106 195.776 58.1586 195.9 57.9808 195.974C57.8029 196.048 57.6072 196.067 57.4184 196.029C57.2296 195.992 57.0562 195.899 56.9201 195.763C56.784 195.627 56.6913 195.454 56.6537 195.265C56.6162 195.076 56.6355 194.88 56.7091 194.702C56.7828 194.525 56.9075 194.373 57.0676 194.266C57.2276 194.159 57.4158 194.102 57.6083 194.102C57.8664 194.102 58.114 194.204 58.2965 194.387C58.4791 194.569 58.5816 194.817 58.5816 195.075Z" fill="#E0E0E0"/>
<path d="M68.567 197.028C69.6454 197.028 70.5197 196.153 70.5197 195.075C70.5197 193.996 69.6454 193.122 68.567 193.122C67.4885 193.122 66.6142 193.996 66.6142 195.075C66.6142 196.153 67.4885 197.028 68.567 197.028Z" fill="#E0E0E0"/>
<path d="M61.5507 215.224H50.8631V218.594H61.5507V215.224Z" fill="#FAFAFA"/>
<path d="M101.714 243.85C87.0531 243.85 78.0349 242.106 77.5606 239.174C77.3881 238.121 78.3306 237.166 80.1416 236.569C90.9216 232.984 79.0143 195.457 78.9096 195.075C77.5482 190.634 75.5524 189.974 73.6058 189.925C71.2096 189.864 69.4232 189.796 67.9448 189.74C65.1077 189.568 62.2627 189.568 59.4255 189.74C59.0866 189.725 58.7494 189.796 58.4456 189.947C58.1417 190.098 57.8812 190.324 57.6884 190.603C56.943 191.835 57.7438 194.243 58.1134 195.063C58.1524 195.172 58.149 195.291 58.104 195.398C58.0589 195.505 57.9754 195.59 57.87 195.638C57.7647 195.686 57.6451 195.693 57.5351 195.657C57.425 195.621 57.3324 195.545 57.2757 195.444C57.2079 195.303 55.748 192.038 56.8999 190.128C57.1659 189.719 57.5315 189.384 57.9625 189.154C58.3935 188.925 58.8757 188.808 59.3639 188.816C62.236 188.643 65.1159 188.643 67.9879 188.816C69.4663 188.872 71.2527 188.94 73.6428 189.001C75.8234 189.057 78.269 189.79 79.8028 194.798C80.3079 196.375 92.1228 233.575 80.4681 237.443C79.1868 237.868 78.4106 238.491 78.503 239.026C78.7248 240.394 83.9731 242.987 102.17 242.926C104.916 242.938 107.66 242.786 110.387 242.47C111.752 242.304 113.059 241.822 114.205 241.061C115.35 240.301 116.302 239.284 116.985 238.09C117.692 236.884 118.107 235.528 118.197 234.132C118.287 232.736 118.049 231.339 117.502 230.051C113.19 219.721 105.582 199.455 103.334 179.773C100.106 151.659 112.038 147.563 112.574 147.403C112.691 147.366 112.817 147.377 112.926 147.434C113.035 147.49 113.116 147.588 113.153 147.704C113.172 147.762 113.179 147.823 113.174 147.884C113.169 147.945 113.152 148.004 113.124 148.058C113.096 148.112 113.057 148.159 113.011 148.198C112.964 148.237 112.909 148.266 112.851 148.284C112.734 148.32 101.147 152.392 104.276 179.663C106.525 199.233 114.083 219.407 118.395 229.694C118.994 231.115 119.255 232.655 119.155 234.194C119.056 235.732 118.599 237.227 117.822 238.558C117.068 239.874 116.016 240.995 114.753 241.834C113.489 242.672 112.047 243.204 110.541 243.388C107.775 243.709 104.992 243.864 102.207 243.85H101.714Z" fill="#E0E0E0"/>
<path d="M154 257.574C219.963 257.574 273.436 254.452 273.436 250.601C273.436 246.75 219.963 243.628 154 243.628C88.0372 243.628 34.5638 246.75 34.5638 250.601C34.5638 254.452 88.0372 257.574 154 257.574Z" fill="#F5F5F5"/>
<path d="M210.783 89.32C210.799 88.7703 210.637 88.2301 210.321 87.78C209.796 87.0131 209.01 86.4635 208.109 86.2338C207.597 86.0996 207.12 85.8569 206.71 85.5221C206.299 85.1873 205.966 84.7683 205.732 84.2934V83.9054C205.73 83.8411 205.703 83.78 205.657 83.7351C205.611 83.6902 205.55 83.6651 205.485 83.6651C205.42 83.6667 205.359 83.6931 205.313 83.739C205.267 83.7849 205.24 83.8467 205.239 83.9115L205.498 98.7325L205.325 98.6586H205.276L205.048 98.5908C203.89 98.2089 201.537 97.8146 200.021 100.106C199.582 100.724 199.283 101.43 199.147 102.176C199.138 102.264 199.138 102.353 199.147 102.441C199.112 102.804 199.181 103.17 199.344 103.497C199.508 103.824 199.759 104.098 200.071 104.289C200.071 104.289 202.954 105.219 204.709 103.162C205.236 102.529 205.593 101.772 205.744 100.962C205.92 100.605 205.995 100.207 205.96 99.8105L205.781 89.3385C206.309 90.1295 207.109 90.6993 208.029 90.9401C208.574 91.0816 209.079 91.3454 209.506 91.7116C209.933 92.0777 210.271 92.5365 210.493 93.053C210.513 93.0809 210.539 93.1038 210.569 93.1199C210.598 93.1359 210.632 93.1447 210.666 93.1454H210.709C210.749 93.1355 210.784 93.1125 210.808 93.08C210.833 93.0475 210.846 93.0075 210.844 92.9667L210.783 89.32Z" fill="#EF4444"/>
<path d="M123.65 127.37L123.717 127.752C123.728 127.816 123.763 127.872 123.815 127.91C123.867 127.948 123.931 127.964 123.995 127.956C124.027 127.95 124.057 127.939 124.085 127.922C124.112 127.905 124.136 127.882 124.155 127.856C124.174 127.83 124.187 127.8 124.195 127.768C124.202 127.737 124.203 127.704 124.198 127.672L121.666 113.067C121.724 113.086 121.784 113.101 121.845 113.11H121.9L122.134 113.147C123.366 113.344 125.732 113.375 126.865 110.874C127.209 110.197 127.397 109.452 127.413 108.693C127.423 108.605 127.423 108.516 127.413 108.428C127.395 108.06 127.272 107.705 127.059 107.404C126.847 107.103 126.553 106.869 126.212 106.728C126.212 106.728 123.218 106.248 121.802 108.576C121.363 109.271 121.109 110.066 121.062 110.886C120.948 111.269 120.936 111.674 121.026 112.063L122.818 122.375L123.65 127.37Z" fill="#EF4444"/>
<path d="M79.7782 114.336C79.8264 113.786 79.6922 113.236 79.3962 112.771C78.9141 111.979 78.1613 111.388 77.2772 111.108C76.7714 110.948 76.3061 110.68 75.9128 110.324C75.5196 109.968 75.2075 109.532 74.998 109.044V108.656C74.998 108.591 74.972 108.528 74.9258 108.482C74.8796 108.436 74.8169 108.41 74.7516 108.41C74.6862 108.41 74.6236 108.436 74.5774 108.482C74.5312 108.528 74.5052 108.591 74.5052 108.656L73.9693 123.44C73.9156 123.41 73.8601 123.383 73.803 123.36H73.7537C73.6859 123.36 73.612 123.299 73.5319 123.274C72.3923 122.83 70.0577 122.313 68.4314 124.506C67.9583 125.099 67.6218 125.789 67.4458 126.526C67.426 126.614 67.4116 126.702 67.4027 126.791C67.3466 127.156 67.3943 127.529 67.5402 127.868C67.6862 128.207 67.9246 128.497 68.2282 128.707C68.2282 128.707 71.0556 129.791 72.9221 127.826C73.5042 127.239 73.928 126.515 74.1541 125.719C74.3414 125.369 74.4368 124.977 74.4313 124.58L74.5914 120.12C75.0699 120.767 75.7338 121.252 76.4949 121.512C77.035 121.695 77.527 121.997 77.9344 122.396C78.3418 122.794 78.654 123.28 78.848 123.816C78.8654 123.845 78.8896 123.87 78.9185 123.888C78.9474 123.907 78.9803 123.918 79.0143 123.921H79.0574C79.0999 123.915 79.1385 123.893 79.1659 123.86C79.1932 123.827 79.2072 123.785 79.2053 123.742L79.3285 121.327C79.3579 120.777 79.2182 120.231 78.9281 119.763C78.4398 118.95 77.6774 118.338 76.7782 118.038C75.9059 117.745 75.1715 117.143 74.7146 116.344L74.7947 114.114C75.2788 114.931 76.0459 115.543 76.9507 115.833C77.4856 116.004 77.9744 116.295 78.38 116.683C78.7856 117.072 79.0974 117.548 79.2915 118.075C79.309 118.102 79.3325 118.125 79.3603 118.143C79.388 118.16 79.4193 118.17 79.4517 118.173H79.4948C79.5358 118.165 79.5731 118.144 79.6009 118.113C79.6287 118.082 79.6455 118.043 79.6488 118.001L79.7782 114.336Z" fill="#EF4444"/>
<path d="M109.155 112.001L107.923 101.991L107.381 97.5806L107.338 97.365L95.3075 98.8372V99.0836L95.8558 103.488L97.1494 114.132L96.866 114.071C96.3 113.947 95.7184 113.909 95.1412 113.96C94.9152 113.985 94.6909 114.024 94.4698 114.077C94.2394 114.14 94.0148 114.222 93.7983 114.323C93.0277 114.707 92.406 115.335 92.0304 116.11C91.6003 116.842 91.3748 117.676 91.3774 118.525C91.3778 118.894 91.4828 119.255 91.6801 119.567C91.8775 119.878 92.1591 120.128 92.4924 120.286C92.4924 120.286 95.4554 120.902 96.9892 118.679C97.3908 118.105 97.6636 117.451 97.7891 116.762C97.9145 116.073 97.8896 115.365 97.7161 114.687L96.3362 103.439L107.387 102.09L108.552 111.397C107.591 111.145 105.231 110.781 103.784 112.765C103.715 112.856 103.651 112.951 103.593 113.048C103.531 113.153 103.47 113.258 103.414 113.369C103.273 113.64 103.147 113.92 103.038 114.206C102.515 115.636 102.804 116.498 103.18 116.985C103.272 117.101 103.377 117.207 103.494 117.299C103.608 117.4 103.737 117.483 103.876 117.545C103.876 117.545 106.291 118.05 107.892 116.504C108.07 116.33 108.231 116.141 108.373 115.937C108.945 115.114 109.252 114.137 109.254 113.135C109.262 112.754 109.229 112.374 109.155 112.001Z" fill="#EF4444"/>
<path d="M235.398 115.192L238.059 107.455L238.189 107.098L238.682 105.662L240.129 101.461L240.185 101.246L228.721 97.3034L228.635 97.5374L227.199 101.732L223.707 111.872L223.479 111.693C223.024 111.334 222.517 111.048 221.976 110.843C221.54 110.673 221.076 110.583 220.608 110.578C219.747 110.582 218.912 110.875 218.236 111.41C217.529 111.88 216.961 112.531 216.592 113.295C216.432 113.628 216.369 113.999 216.41 114.366C216.452 114.734 216.596 115.082 216.826 115.371C216.826 115.371 219.216 117.219 221.569 115.888C222.183 115.55 222.715 115.082 223.13 114.517C223.545 113.952 223.832 113.304 223.971 112.617L227.014 103.771L237.486 107.51L235.14 114.397C234.388 113.781 232.423 112.389 230.255 113.541C230.156 113.59 230.058 113.652 229.959 113.714C229.86 113.775 229.756 113.849 229.657 113.923C229.407 114.109 229.172 114.315 228.955 114.539C227.852 115.592 227.723 116.492 227.865 117.095C227.894 117.24 227.942 117.381 228.006 117.514C228.065 117.656 228.146 117.787 228.246 117.902C228.246 117.902 230.193 119.412 232.312 118.722C232.546 118.641 232.773 118.54 232.99 118.42C233.865 117.93 234.57 117.184 235.01 116.282C235.177 115.933 235.307 115.568 235.398 115.192ZM227.205 103.174L227.655 101.88L238.176 105.502L237.696 106.907L227.205 103.174Z" fill="#EF4444"/>
<g opacity="0.8">
<path d="M210.783 89.32C210.799 88.7703 210.637 88.2301 210.321 87.78C209.796 87.0131 209.01 86.4635 208.109 86.2338C207.597 86.0996 207.12 85.8569 206.71 85.5221C206.299 85.1873 205.966 84.7683 205.732 84.2934V83.9054C205.73 83.8411 205.703 83.78 205.657 83.7351C205.611 83.6902 205.55 83.6651 205.485 83.6651C205.42 83.6667 205.359 83.6931 205.313 83.739C205.267 83.7849 205.24 83.8467 205.239 83.9115L205.498 98.7325L205.325 98.6586H205.276L205.048 98.5908C203.89 98.2089 201.537 97.8146 200.021 100.106C199.582 100.724 199.283 101.43 199.147 102.176C199.138 102.264 199.138 102.353 199.147 102.441C199.112 102.804 199.181 103.17 199.344 103.497C199.508 103.824 199.759 104.098 200.071 104.289C200.071 104.289 202.954 105.219 204.709 103.162C205.236 102.529 205.593 101.772 205.744 100.962C205.92 100.605 205.995 100.207 205.96 99.8105L205.781 89.3385C206.309 90.1295 207.109 90.6993 208.029 90.9401C208.574 91.0816 209.079 91.3454 209.506 91.7116C209.933 92.0777 210.271 92.5365 210.493 93.053C210.513 93.0809 210.539 93.1038 210.569 93.1199C210.598 93.1359 210.632 93.1447 210.666 93.1454H210.709C210.749 93.1355 210.784 93.1125 210.808 93.08C210.833 93.0475 210.846 93.0075 210.844 92.9667L210.783 89.32Z" fill="white"/>
<path d="M123.65 127.37L123.717 127.752C123.728 127.816 123.763 127.872 123.815 127.91C123.867 127.948 123.931 127.964 123.995 127.956C124.027 127.95 124.057 127.939 124.085 127.922C124.112 127.905 124.136 127.882 124.155 127.856C124.174 127.83 124.187 127.8 124.195 127.768C124.202 127.737 124.203 127.704 124.198 127.672L121.666 113.067C121.724 113.086 121.784 113.101 121.845 113.11H121.9L122.134 113.147C123.366 113.344 125.732 113.375 126.865 110.874C127.209 110.197 127.397 109.452 127.413 108.693C127.423 108.605 127.423 108.516 127.413 108.428C127.395 108.06 127.272 107.705 127.059 107.404C126.847 107.103 126.553 106.869 126.212 106.728C126.212 106.728 123.218 106.248 121.802 108.576C121.363 109.271 121.109 110.066 121.062 110.886C120.948 111.269 120.936 111.674 121.026 112.063L122.818 122.375L123.65 127.37Z" fill="white"/>
<path d="M79.7782 114.336C79.8264 113.786 79.6922 113.236 79.3962 112.771C78.9141 111.979 78.1613 111.388 77.2772 111.108C76.7714 110.948 76.3061 110.68 75.9128 110.324C75.5196 109.968 75.2075 109.532 74.998 109.044V108.656C74.998 108.591 74.972 108.528 74.9258 108.482C74.8796 108.436 74.8169 108.41 74.7516 108.41C74.6862 108.41 74.6236 108.436 74.5774 108.482C74.5312 108.528 74.5052 108.591 74.5052 108.656L73.9693 123.44C73.9156 123.41 73.8601 123.383 73.803 123.36H73.7537C73.6859 123.36 73.612 123.299 73.5319 123.274C72.3923 122.83 70.0577 122.313 68.4314 124.506C67.9583 125.099 67.6218 125.789 67.4458 126.526C67.426 126.614 67.4116 126.702 67.4027 126.791C67.3466 127.156 67.3943 127.529 67.5402 127.868C67.6862 128.207 67.9246 128.497 68.2282 128.707C68.2282 128.707 71.0556 129.791 72.9221 127.826C73.5042 127.239 73.928 126.515 74.1541 125.719C74.3414 125.369 74.4368 124.977 74.4313 124.58L74.5914 120.12C75.0699 120.767 75.7338 121.252 76.4949 121.512C77.035 121.695 77.527 121.997 77.9344 122.396C78.3418 122.794 78.654 123.28 78.848 123.816C78.8654 123.845 78.8896 123.87 78.9185 123.888C78.9474 123.907 78.9803 123.918 79.0143 123.921H79.0574C79.0999 123.915 79.1385 123.893 79.1659 123.86C79.1932 123.827 79.2072 123.785 79.2053 123.742L79.3285 121.327C79.3579 120.777 79.2182 120.231 78.9281 119.763C78.4398 118.95 77.6774 118.338 76.7782 118.038C75.9059 117.745 75.1715 117.143 74.7146 116.344L74.7947 114.114C75.2788 114.931 76.0459 115.543 76.9507 115.833C77.4856 116.004 77.9744 116.295 78.38 116.683C78.7856 117.072 79.0974 117.548 79.2915 118.075C79.309 118.102 79.3325 118.125 79.3603 118.143C79.388 118.16 79.4193 118.17 79.4517 118.173H79.4948C79.5358 118.165 79.5731 118.144 79.6009 118.113C79.6287 118.082 79.6455 118.043 79.6488 118.001L79.7782 114.336Z" fill="white"/>
<path d="M109.155 112.001L107.923 101.991L107.381 97.5806L107.338 97.365L95.3075 98.8372V99.0836L95.8558 103.488L97.1494 114.132L96.866 114.071C96.3 113.947 95.7184 113.909 95.1412 113.96C94.9152 113.985 94.6909 114.024 94.4698 114.077C94.2394 114.14 94.0148 114.222 93.7983 114.323C93.0277 114.707 92.406 115.335 92.0304 116.11C91.6003 116.842 91.3748 117.676 91.3774 118.525C91.3778 118.894 91.4828 119.255 91.6801 119.567C91.8775 119.878 92.1591 120.128 92.4924 120.286C92.4924 120.286 95.4554 120.902 96.9892 118.679C97.3908 118.105 97.6636 117.451 97.7891 116.762C97.9145 116.073 97.8896 115.365 97.7161 114.687L96.3362 103.439L107.387 102.09L108.552 111.397C107.591 111.145 105.231 110.781 103.784 112.765C103.715 112.856 103.651 112.951 103.593 113.048C103.531 113.153 103.47 113.258 103.414 113.369C103.273 113.64 103.147 113.92 103.038 114.206C102.515 115.636 102.804 116.498 103.18 116.985C103.272 117.101 103.377 117.207 103.494 117.299C103.608 117.4 103.737 117.483 103.876 117.545C103.876 117.545 106.291 118.05 107.892 116.504C108.07 116.33 108.231 116.141 108.373 115.937C108.945 115.114 109.252 114.137 109.254 113.135C109.262 112.754 109.229 112.374 109.155 112.001Z" fill="white"/>
<path d="M235.398 115.192L238.059 107.455L238.189 107.098L238.682 105.662L240.129 101.461L240.185 101.246L228.721 97.3034L228.635 97.5374L227.199 101.732L223.707 111.872L223.479 111.693C223.024 111.334 222.517 111.048 221.976 110.843C221.54 110.673 221.076 110.583 220.608 110.578C219.747 110.582 218.912 110.875 218.236 111.41C217.529 111.88 216.961 112.531 216.592 113.295C216.432 113.628 216.369 113.999 216.41 114.366C216.452 114.734 216.596 115.082 216.826 115.371C216.826 115.371 219.216 117.219 221.569 115.888C222.183 115.55 222.715 115.082 223.13 114.517C223.545 113.952 223.832 113.304 223.971 112.617L227.014 103.771L237.486 107.51L235.14 114.397C234.388 113.781 232.423 112.389 230.255 113.541C230.156 113.59 230.058 113.652 229.959 113.714C229.86 113.775 229.756 113.849 229.657 113.923C229.407 114.109 229.172 114.315 228.955 114.539C227.852 115.592 227.723 116.492 227.865 117.095C227.894 117.24 227.942 117.381 228.006 117.514C228.065 117.656 228.146 117.787 228.246 117.902C228.246 117.902 230.193 119.412 232.312 118.722C232.546 118.641 232.773 118.54 232.99 118.42C233.865 117.93 234.57 117.184 235.01 116.282C235.177 115.933 235.307 115.568 235.398 115.192ZM227.205 103.174L227.655 101.88L238.176 105.502L237.696 106.907L227.205 103.174Z" fill="white"/>
</g>
<path d="M138.212 178.751C138.212 173.823 145.302 169.874 154.049 169.874C162.796 169.874 169.887 173.848 169.887 178.751H138.212Z" fill="#EF4444"/>
<path d="M138.212 178.751C138.212 173.823 145.302 169.874 154.049 169.874C162.796 169.874 169.887 173.848 169.887 178.751H138.212Z" fill="#EF4444"/>
<g opacity="0.5">
<path d="M138.212 178.751C138.212 173.823 145.302 169.874 154.049 169.874C162.796 169.874 169.887 173.848 169.887 178.751H138.212Z" fill="#EF4444"/>
<path d="M138.212 178.751C138.212 173.823 145.302 169.874 154.049 169.874C162.796 169.874 169.887 173.848 169.887 178.751H138.212Z" fill="black"/>
</g>
<path d="M170.848 178.751H136.98V188.989H170.848V178.751Z" fill="#EF4444"/>
<path opacity="0.6" d="M170.848 178.751H136.98V188.989H170.848V178.751Z" fill="white"/>
<path d="M137.916 188.989V238.829H139.413L140.701 188.989H137.916Z" fill="#263238"/>
<path d="M169.807 188.989V238.829H168.31L167.016 188.989H169.807Z" fill="#263238"/>
<path d="M161.897 188.989V238.829H160.4L159.113 188.989H161.897Z" fill="#263238"/>
<path d="M148.998 188.989V238.829H147.797L146.509 188.989H148.998Z" fill="#263238"/>
<path opacity="0.2" d="M161.897 188.989V238.829H160.4L159.113 188.989H161.897Z" fill="white"/>
<path opacity="0.2" d="M148.998 188.989V238.829H147.797L146.509 188.989H148.998Z" fill="white"/>
<path d="M153.329 232.595C148.666 232.631 144.006 232.37 139.376 231.813C133.641 231.043 132.865 230.039 132.865 229.152C132.865 228.265 133.641 227.261 139.376 226.491C144.006 225.934 148.666 225.673 153.329 225.709C157.993 225.673 162.656 225.934 167.287 226.491C173.022 227.261 173.792 228.271 173.792 229.152C173.792 230.033 173.022 231.043 167.287 231.813C162.656 232.37 157.993 232.631 153.329 232.595ZM134.904 229.152C136.426 229.953 143.238 230.969 153.316 230.969C163.394 230.969 170.213 229.953 171.728 229.152C170.213 228.351 163.4 227.335 153.316 227.335C143.232 227.335 136.438 228.351 134.904 229.152Z" fill="#EF4444"/>
<g opacity="0.6">
<path d="M153.212 232.595C148.547 232.631 143.884 232.37 139.253 231.813C133.518 231.043 132.748 230.039 132.748 229.152C132.748 228.265 133.518 227.261 139.253 226.491C143.884 225.934 148.547 225.673 153.212 225.709C157.876 225.673 162.539 225.934 167.17 226.491C172.905 227.261 173.675 228.271 173.675 229.152C173.675 230.033 172.905 231.043 167.17 231.813C162.539 232.37 157.876 232.631 153.212 232.595ZM134.799 229.152C136.321 229.953 143.134 230.969 153.212 230.969C163.289 230.969 170.102 229.953 171.624 229.152C170.108 228.351 163.295 227.335 153.212 227.335C143.128 227.335 136.315 228.351 134.799 229.152Z" fill="white"/>
</g>
<path d="M151.856 120.44C151.824 120.472 151.795 120.507 151.77 120.545H151.653L151.856 120.44Z" fill="#263238"/>
<path d="M163.924 130.204C163.924 130.204 163.881 130.204 163.868 130.173L163.924 130.204Z" fill="#263238"/>
<path d="M144.76 87.1948C144.525 87.4481 144.359 87.7579 144.28 88.0942C144.244 88.2626 144.264 88.4381 144.338 88.5938C144.411 88.7495 144.533 88.8769 144.686 88.9566C144.858 89.0047 145.04 89.0055 145.212 88.9589C145.385 88.9122 145.541 88.8199 145.666 88.6917C146.571 87.9278 146.83 86.6527 147.039 85.4885C147.039 85.4885 145.974 86.049 145.887 86.1045C145.474 86.4275 145.097 86.793 144.76 87.1948Z" fill="#263238"/>
<path d="M150.47 151.813C149.096 156.213 148.85 160.888 149.756 165.408C151.672 174.143 173.293 175.375 182.515 176.656C178.326 192.223 168.827 224.316 168.827 224.316L175.443 225.234C175.443 225.234 194.102 191.009 197.12 175.56C199.892 161.466 167.552 154.172 167.552 154.172L150.47 151.813Z" fill="#EF4444"/>
<path d="M175.739 225.364C177.334 226.854 179.084 228.444 183.839 229.842C184.892 230.144 184.757 232.657 182.213 232.448C179.669 232.238 175.973 231.733 174.137 231.579C171.143 231.326 169.991 231.376 167.626 231.222C167.342 231.194 167.081 231.055 166.899 230.836C166.717 230.617 166.629 230.335 166.653 230.051L167.435 224.698C167.441 224.642 167.458 224.587 167.486 224.538C167.514 224.489 167.551 224.445 167.596 224.411C167.641 224.376 167.692 224.351 167.747 224.337C167.802 224.323 167.859 224.32 167.915 224.329L174.722 224.895C175.103 224.936 175.46 225.101 175.739 225.364Z" fill="#263238"/>
<path d="M176.897 229.3C177.174 228.967 177.075 228.068 176.897 227.322C176.86 227.132 176.817 226.953 176.78 226.799C176.693 226.435 176.613 226.152 176.589 226.078C176.58 226.053 176.565 226.03 176.544 226.013C176.523 225.995 176.498 225.984 176.472 225.98C176.432 225.985 176.394 226 176.361 226.023V226.066C176.15 226.591 175.985 227.133 175.868 227.686C175.736 228.14 175.766 228.626 175.954 229.06C176.015 229.16 176.1 229.244 176.201 229.304C176.302 229.364 176.416 229.399 176.533 229.405C176.598 229.418 176.665 229.416 176.728 229.398C176.792 229.38 176.849 229.346 176.897 229.3ZM176.158 228.955C175.985 228.437 175.998 227.875 176.194 227.366C176.267 227.078 176.356 226.794 176.459 226.516C176.509 226.67 176.552 226.836 176.589 226.996C176.743 227.614 176.809 228.251 176.786 228.887C176.78 228.973 176.748 229.055 176.693 229.121C176.676 229.145 176.652 229.163 176.625 229.173C176.598 229.184 176.568 229.188 176.539 229.183C176.465 229.176 176.394 229.151 176.331 229.112C176.268 229.072 176.215 229.018 176.176 228.955H176.158Z" fill="#EF4444"/>
<path d="M178.535 227.92C178.578 227.797 178.594 227.667 178.582 227.537C178.57 227.407 178.531 227.282 178.468 227.168C178.2 226.783 177.828 226.481 177.396 226.3C177.122 226.163 176.835 226.053 176.539 225.973C176.518 225.963 176.495 225.957 176.472 225.957C176.448 225.957 176.425 225.963 176.404 225.973V226.004V226.047V226.097C176.482 226.365 176.592 226.624 176.73 226.867C176.804 227.002 176.884 227.138 176.971 227.279C177.328 227.821 177.784 228.296 178.141 228.302C178.233 228.333 178.431 228.283 178.535 227.92ZM176.897 226.688C176.829 226.546 176.767 226.405 176.718 226.275C176.878 226.319 177.035 226.374 177.186 226.442C177.603 226.63 177.968 226.915 178.252 227.273C178.33 227.417 178.347 227.585 178.301 227.741V227.809C178.227 228.043 178.135 228.037 178.104 228.031C177.802 228.068 177.236 227.372 176.897 226.688Z" fill="#EF4444"/>
<path d="M141.064 154.191C141.064 154.191 108.73 161.484 111.496 175.56C114.533 190.991 133.192 225.216 133.192 225.216L139.832 224.316C139.832 224.316 130.333 192.223 126.144 176.656C135.384 175.375 156.988 174.143 158.903 165.408C159.809 160.888 159.563 156.213 158.189 151.813L141.064 154.191Z" fill="#EF4444"/>
<path d="M133.918 224.889L140.694 224.323C140.75 224.314 140.808 224.317 140.862 224.331C140.917 224.345 140.969 224.37 141.014 224.405C141.059 224.439 141.096 224.482 141.124 224.532C141.151 224.581 141.169 224.636 141.175 224.692L141.957 230.045C141.981 230.329 141.893 230.611 141.71 230.83C141.528 231.049 141.267 231.187 140.984 231.216C138.618 231.37 137.467 231.32 134.473 231.573C132.625 231.727 128.929 232.226 126.397 232.441C123.865 232.657 123.717 230.138 124.771 229.836C129.526 228.413 131.276 226.848 132.871 225.357C133.158 225.089 133.527 224.924 133.918 224.889Z" fill="#263238"/>
<path d="M159.821 116.104C159.544 115.031 159.705 113.893 160.267 112.938C160.83 111.984 161.749 111.292 162.821 111.016C163.894 110.739 165.032 110.899 165.986 111.462C166.941 112.024 167.632 112.943 167.909 114.015V114.102C168.525 116.307 169.228 118.648 169.961 120.927C170.694 123.206 171.476 125.461 172.314 127.66C173.14 129.818 174.077 131.932 175.123 133.992C175.616 134.954 176.165 135.886 176.767 136.783C177.268 137.577 177.861 138.309 178.535 138.963L178.209 138.717C177.918 138.52 177.584 138.395 177.236 138.354H177.094C177.325 138.359 177.555 138.33 177.778 138.267C178.521 138.085 179.248 137.841 179.952 137.54C181.492 136.924 183.112 136.111 184.732 135.274C186.352 134.436 187.96 133.549 189.592 132.662C191.225 131.775 192.851 130.814 194.459 129.933H194.496C194.896 129.713 195.358 129.631 195.81 129.699C196.261 129.767 196.678 129.981 196.997 130.309C197.798 131.134 198.777 132.477 197.945 133.284C196.535 134.633 194.114 135.871 192.623 137.097C191.132 138.323 189.605 139.506 188.022 140.645C186.396 141.818 184.703 142.896 182.952 143.873C181.961 144.404 180.932 144.859 179.872 145.234C179.195 145.482 178.493 145.652 177.778 145.739C177.264 145.801 176.745 145.801 176.231 145.739C175.412 145.652 174.624 145.371 173.934 144.92L173.718 144.76L173.613 144.668C172.428 143.681 171.364 142.558 170.441 141.323C169.603 140.207 168.832 139.043 168.131 137.836C166.802 135.551 165.628 133.178 164.62 130.734C163.61 128.35 162.729 125.929 161.928 123.502C161.534 122.27 161.158 121.075 160.794 119.806C160.431 118.537 160.111 117.342 159.79 116.042L159.821 116.104Z" fill="#263238"/>
<path d="M196.085 133.444L197.933 133.284C197.933 133.284 197.194 129.588 195.826 128.319C195.113 128.994 194.491 129.76 193.978 130.598C193.941 132.748 196.085 133.444 196.085 133.444Z" fill="white"/>
<path d="M196.19 128.953C195.879 129.164 195.657 129.481 195.568 129.845C195.478 130.21 195.526 130.594 195.703 130.925L196.264 132.027C196.388 132.272 196.576 132.479 196.808 132.627C197.04 132.774 197.307 132.856 197.582 132.865L202.442 133.062L205.356 130.025C205.548 129.83 205.669 129.576 205.7 129.303C205.731 129.031 205.671 128.756 205.528 128.522L204.518 126.859C204.364 126.6 204.121 126.405 203.834 126.313C203.546 126.221 203.235 126.238 202.96 126.36L200.834 127.284C200.834 127.284 197.767 127.919 196.19 128.953Z" fill="#F9BBB2"/>
<path d="M162.92 109.864C155.158 108.952 147.316 108.952 139.555 109.864H139.438C138.453 110.037 137.576 110.592 136.999 111.409C136.422 112.226 136.191 113.239 136.358 114.225C138.483 126.939 140.67 139.955 140.485 153.815L167.552 154.068C170.127 134.066 168.864 120.804 167.897 114.644C167.686 113.42 167.09 112.296 166.194 111.436C165.298 110.575 164.151 110.025 162.92 109.864Z" fill="#263238"/>
<path d="M112.648 147.84C110.492 139.623 108.681 115.722 139.555 123.847C142.179 124.537 144.803 125.19 147.255 124.032L149.719 122.874C155.639 120.225 162.279 122.258 163.733 127.802L166.991 140.22C168.439 145.764 163.659 150.809 157.197 151.394C157.197 151.394 155.965 151.493 154.48 151.598C151.776 151.789 149.811 153.649 147.865 155.534C124.937 177.778 114.835 156.199 112.648 147.84Z" fill="#EF4444"/>
<path opacity="0.6" d="M112.648 147.84C110.492 139.623 108.681 115.722 139.555 123.847C142.179 124.537 144.803 125.19 147.255 124.032L149.719 122.874C155.639 120.225 162.279 122.258 163.733 127.802L166.991 140.22C168.439 145.764 163.659 150.809 157.197 151.394C157.197 151.394 155.965 151.493 154.48 151.598C151.776 151.789 149.811 153.649 147.865 155.534C124.937 177.778 114.835 156.199 112.648 147.84Z" fill="white"/>
<path opacity="0.5" d="M142.875 142.561L143.645 145.296C143.883 146.142 144.304 146.926 144.878 147.592C145.451 148.258 146.165 148.789 146.966 149.15C147.768 149.51 148.64 149.689 149.519 149.676C150.398 149.663 151.263 149.456 152.053 149.072C153.941 148.179 155.723 147.08 157.37 145.795C160.637 143.221 163.439 140.106 165.655 136.586L142.875 142.561Z" fill="black"/>
<path d="M154.745 136.998C154.997 137.961 154.958 138.976 154.633 139.916C154.308 140.856 153.712 141.678 152.919 142.28C152.127 142.881 151.175 143.234 150.182 143.295C149.189 143.355 148.201 143.12 147.342 142.619C146.482 142.118 145.791 141.374 145.354 140.48C144.918 139.587 144.756 138.584 144.889 137.598C145.022 136.612 145.444 135.688 146.102 134.942C146.76 134.196 147.624 133.662 148.585 133.407C149.226 133.238 149.893 133.197 150.549 133.286C151.205 133.375 151.838 133.592 152.41 133.926C152.982 134.259 153.483 134.702 153.883 135.23C154.284 135.757 154.577 136.358 154.745 136.998Z" fill="#263238"/>
<path d="M202.085 121.282L153.931 133.897L155.57 140.153L203.724 127.538L202.085 121.282Z" fill="#EF4444"/>
<path d="M203.853 128.079L202.017 121.093L214.768 116.837L217.048 125.535L203.853 128.079Z" fill="#EF4444"/>
<path opacity="0.2" d="M203.853 128.079L202.017 121.093L214.768 116.837L217.048 125.535L203.853 128.079Z" fill="white"/>
<path d="M130.809 137.086L126.929 138.102L130.067 150.079L133.946 149.063L130.809 137.086Z" fill="white"/>
<path d="M202.314 122.211L129.352 141.366L129.43 141.664L202.393 122.509L202.314 122.211Z" fill="white"/>
<path d="M202.759 124.755L129.587 143.614L129.664 143.913L202.836 125.054L202.759 124.755Z" fill="white"/>
<path d="M203.068 125.097L130.096 144.214L130.174 144.512L203.146 125.395L203.068 125.097Z" fill="white"/>
<path d="M203.502 127.629L130.33 146.488L130.407 146.787L203.579 127.928L203.502 127.629Z" fill="white"/>
<path d="M213.179 119.547C213.175 119.681 213.128 119.809 213.045 119.913C212.961 120.018 212.847 120.092 212.717 120.125C212.588 120.159 212.452 120.149 212.328 120.098C212.205 120.047 212.101 119.958 212.033 119.843C211.985 119.761 211.956 119.668 211.949 119.573C211.942 119.478 211.958 119.382 211.994 119.294C212.031 119.205 212.087 119.127 212.159 119.064C212.231 119.001 212.317 118.956 212.409 118.932C212.502 118.909 212.599 118.907 212.692 118.927C212.786 118.947 212.873 118.988 212.948 119.048C213.022 119.107 213.082 119.183 213.122 119.27C213.163 119.357 213.182 119.452 213.179 119.547Z" fill="white"/>
<path d="M214.405 124.229C214.438 124.379 214.414 124.537 214.336 124.671C214.258 124.804 214.134 124.904 213.986 124.949C213.834 124.982 213.676 124.957 213.542 124.878C213.409 124.799 213.31 124.673 213.265 124.524C213.245 124.45 213.24 124.372 213.25 124.296C213.26 124.219 213.285 124.146 213.324 124.079C213.363 124.012 213.415 123.954 213.477 123.908C213.539 123.862 213.609 123.828 213.684 123.81C213.835 123.777 213.993 123.801 214.126 123.879C214.26 123.956 214.359 124.081 214.405 124.229Z" fill="white"/>
<path d="M206.138 121.389C206.134 121.521 206.086 121.648 206.004 121.751C205.922 121.855 205.808 121.929 205.68 121.962C205.553 121.996 205.417 121.988 205.295 121.939C205.172 121.89 205.068 121.803 204.999 121.691C205.003 121.559 205.05 121.432 205.133 121.328C205.215 121.225 205.329 121.151 205.457 121.117C205.584 121.084 205.719 121.092 205.842 121.141C205.965 121.189 206.069 121.277 206.138 121.389Z" fill="white"/>
<path d="M207.216 125.504C207.252 125.622 207.251 125.749 207.213 125.867C207.176 125.985 207.104 126.089 207.006 126.166C206.909 126.242 206.79 126.287 206.667 126.295C206.543 126.304 206.42 126.274 206.313 126.211C206.207 126.148 206.121 126.055 206.069 125.943C206.016 125.831 205.998 125.705 206.018 125.583C206.038 125.461 206.094 125.347 206.179 125.257C206.264 125.167 206.374 125.105 206.496 125.079C206.647 125.046 206.805 125.071 206.939 125.15C207.073 125.229 207.172 125.355 207.216 125.504Z" fill="white"/>
<path d="M136.426 111.028C137.361 110.499 138.463 110.351 139.505 110.613C140.546 110.876 141.447 111.529 142.02 112.437C142.593 113.345 142.795 114.439 142.584 115.492C142.373 116.545 141.765 117.477 140.885 118.093C137.731 120.175 134.485 122.405 131.411 124.697C128.355 126.873 125.472 129.283 122.787 131.904C122.479 132.218 122.202 132.52 121.913 132.847L121.512 133.321C121.729 132.988 121.862 132.608 121.9 132.212C121.931 131.87 121.9 131.526 121.808 131.196C121.771 131.052 121.721 130.912 121.66 130.777C121.611 130.678 121.555 130.574 121.494 130.475C121.406 130.313 121.279 130.175 121.124 130.075C121.069 130.075 121.284 130.266 121.568 130.413C122.291 130.771 123.043 131.068 123.816 131.3C124.672 131.578 125.565 131.836 126.477 132.077C130.136 133.019 134.048 133.783 137.879 134.541L137.916 134.571C138.414 134.67 138.858 134.948 139.165 135.351C139.473 135.755 139.622 136.256 139.586 136.762C139.55 137.268 139.33 137.743 138.968 138.099C138.606 138.454 138.127 138.665 137.621 138.692C133.513 138.944 129.393 138.854 125.301 138.421C124.26 138.304 123.206 138.156 122.122 137.959C120.956 137.742 119.81 137.427 118.697 137.017C117.937 136.739 117.218 136.36 116.56 135.89C116.008 135.48 115.535 134.975 115.161 134.399C115.021 134.195 114.899 133.978 114.798 133.752C114.682 133.505 114.589 133.247 114.521 132.982C114.373 132.413 114.335 131.822 114.41 131.239C114.527 130.348 114.866 129.501 115.395 128.775L115.919 128.079C116.27 127.623 116.621 127.167 116.985 126.748C118.382 125.113 119.884 123.569 121.481 122.128C123.003 120.681 124.598 119.344 126.218 118.075C127.838 116.806 129.465 115.58 131.146 114.41C132.828 113.239 134.485 112.106 136.308 111.003L136.426 111.028Z" fill="#263238"/>
<path d="M146.608 109.365C146.482 109.535 146.419 109.744 146.428 109.955C146.437 110.167 146.518 110.369 146.657 110.529C147.692 111.681 150.446 114.034 155.719 114.034C159.31 114.034 159.729 112.753 159.372 111.613C159.199 111.12 158.914 110.673 158.54 110.307C158.166 109.942 157.713 109.668 157.216 109.506C154.604 108.502 154.136 106.525 154.345 104.363C154.396 103.759 154.491 103.16 154.628 102.57L150.162 98.8742L146.898 96.1453C147.766 99.8351 148.709 106.383 146.608 109.365Z" fill="#F9BBB2"/>
<path d="M157.271 114.607C156.602 114.537 155.956 114.327 155.374 113.991C154.486 114.483 153.528 114.838 152.534 115.044C152.673 114.562 152.914 114.115 153.24 113.734C153.566 113.352 153.97 113.045 154.425 112.833C154.808 113.079 155.142 113.395 155.411 113.763C155.482 113.42 155.639 113.1 155.866 112.833C155.866 112.833 157.228 113.424 157.271 114.607Z" fill="#EF4444"/>
<path d="M146.707 108.207C145.869 108.34 145.054 108.591 144.286 108.952C143.873 114.65 152.614 116.837 152.614 116.837C152.849 115.372 153.475 113.997 154.425 112.857C148.585 111.619 146.707 108.207 146.707 108.207Z" fill="white"/>
<path d="M155.595 108.515C156.382 108.599 157.158 108.762 157.912 109.001C162.273 112.74 157.795 116.837 157.795 116.837C157.486 115.373 156.824 114.007 155.866 112.857C158.497 110.88 155.595 108.515 155.595 108.515Z" fill="white"/>
<path opacity="0.2" d="M150.205 98.8495C150.161 99.4167 150.182 99.9872 150.267 100.55C150.476 102.25 152.694 104.018 154.363 104.35C154.415 103.745 154.509 103.144 154.647 102.552L150.205 98.8495Z" fill="black"/>
<path d="M145.666 86.856C145.93 85.969 146.366 85.1426 146.949 84.4242C147.533 83.7057 148.252 83.1093 149.066 82.6688C149.88 82.2283 150.773 81.9525 151.693 81.8571C152.614 81.7617 153.544 81.8486 154.431 82.1128C159.932 83.5974 161.86 91.3528 161.454 96.213C161.372 97.4803 160.944 98.701 160.218 99.7429C159.492 100.785 158.495 101.608 157.335 102.124C156.174 102.64 154.895 102.828 153.635 102.669C152.375 102.51 151.183 102.009 150.187 101.221C147.107 98.831 146.7 95.7202 145.561 90.4904C145.278 89.2906 145.314 88.0375 145.666 86.856Z" fill="#F9BBB2"/>
<path d="M145.444 92.2522C146.811 91.9134 148.271 93.4842 148.856 94.6792C149.516 95.9974 149.066 97.3588 147.581 97.0939C146.44 96.8728 145.419 96.2418 144.711 95.3198C143.836 94.1433 144.082 92.5971 145.444 92.2522Z" fill="#F9BBB2"/>
<path d="M154.912 90.1393C155.201 90.0715 155.485 90.3918 155.528 90.823C155.571 91.2542 155.417 91.63 155.133 91.6608C154.85 91.6916 154.573 91.3774 154.517 90.9462C154.462 90.515 154.616 90.207 154.912 90.1393Z" fill="#263238"/>
<path d="M159.79 89.4925C160.074 89.4555 160.363 89.7758 160.406 90.207C160.45 90.6382 160.289 90.977 160.006 91.0448C159.723 91.1126 159.452 90.7922 159.39 90.361C159.328 89.9298 159.501 89.5233 159.79 89.4925Z" fill="#263238"/>
<path d="M158.22 94.0139C158.522 94.0769 158.834 94.0726 159.134 94.0013C159.434 93.93 159.715 93.7934 159.957 93.6012C159.142 92.6693 158.454 91.6336 157.912 90.5212L158.22 94.0139Z" fill="#ED847E"/>
<path d="M152.83 88.3898C153.035 88.1495 153.294 87.9618 153.587 87.8428C153.88 87.7239 154.197 87.677 154.511 87.7061C154.544 87.7123 154.579 87.7117 154.612 87.7044C154.645 87.6972 154.676 87.6834 154.703 87.6639C154.731 87.6443 154.754 87.6195 154.772 87.5908C154.79 87.562 154.802 87.53 154.807 87.4966C154.816 87.4291 154.799 87.3607 154.758 87.3056C154.718 87.2505 154.658 87.213 154.591 87.201C154.193 87.1581 153.79 87.2131 153.417 87.3612C153.045 87.5094 152.714 87.7462 152.454 88.051C152.43 88.0745 152.412 88.1023 152.399 88.133C152.386 88.1636 152.38 88.1965 152.38 88.2297C152.38 88.2629 152.386 88.2957 152.399 88.3264C152.412 88.357 152.43 88.3849 152.454 88.4083C152.486 88.4333 152.524 88.4502 152.565 88.4576C152.611 88.4746 152.66 88.4772 152.708 88.4651C152.755 88.453 152.798 88.4267 152.83 88.3898Z" fill="#263238"/>
<path d="M161.263 88.088C161.284 88.0622 161.3 88.0324 161.309 88.0004C161.319 87.9685 161.322 87.9349 161.319 87.9016C161.315 87.8684 161.305 87.8362 161.289 87.8069C161.273 87.7775 161.252 87.7516 161.226 87.7307C160.921 87.4554 160.556 87.2561 160.16 87.149C159.764 87.042 159.348 87.0302 158.946 87.1147C158.883 87.1347 158.829 87.1785 158.797 87.2371C158.765 87.2957 158.757 87.3644 158.774 87.4289C158.794 87.4926 158.838 87.5462 158.896 87.5783C158.955 87.6105 159.024 87.6187 159.088 87.6014C159.413 87.5339 159.75 87.5433 160.071 87.6288C160.391 87.7144 160.688 87.8737 160.936 88.0942C160.968 88.1211 161.006 88.1397 161.047 88.1483C161.088 88.1569 161.13 88.1552 161.17 88.1434C161.205 88.1322 161.236 88.1132 161.263 88.088Z" fill="#263238"/>
<path d="M138.6 134.029L135.582 135.643C134.306 137.855 138.772 139.955 138.772 139.955L141.236 142.259C141.553 142.556 141.956 142.744 142.387 142.796C142.818 142.849 143.254 142.762 143.633 142.549L144.28 142.197C144.513 142.063 144.717 141.885 144.881 141.671C145.045 141.458 145.166 141.215 145.235 140.955C145.305 140.695 145.323 140.424 145.288 140.158C145.253 139.891 145.166 139.634 145.031 139.401L143.134 136.093L138.6 134.029Z" fill="#F9BBB2"/>
<path d="M135.175 138.545L136.881 139.333C136.881 139.333 138.354 135.317 137.922 133.389C136.893 133.691 135.906 134.122 134.984 134.67C134.618 135.258 134.44 135.945 134.474 136.637C134.508 137.329 134.753 137.995 135.175 138.545Z" fill="white"/>
<path d="M147.655 80.3079C149.904 79.2607 152.515 79.3593 154.986 79.6365C156.145 79.8322 157.325 79.8777 158.497 79.772C159.083 79.7149 159.649 79.5284 160.154 79.2258C160.659 78.9232 161.09 78.5123 161.417 78.0226C162.224 80.2463 162.033 83.0122 160.314 84.6199C159.033 85.8088 157.172 86.1476 155.423 86.1045C153.674 86.0614 151.949 85.6979 150.205 85.7041C148.074 85.7041 144.631 88.6794 144.187 85.7472C143.842 83.4618 145.702 81.2258 147.655 80.3079Z" fill="#263238"/>
<path d="M150.193 86.7882C150.193 86.7063 150.173 86.6257 150.136 86.5526C150.099 86.4796 150.046 86.416 149.98 86.3671C149.914 86.3182 149.838 86.2851 149.758 86.2705C149.677 86.2559 149.594 86.2603 149.516 86.2831L145.37 86.7759C144.532 87.0408 144.039 88.1681 143.781 89.0058C143.434 90.0647 143.198 91.1568 143.078 92.2645C142.882 93.8575 143.257 95.4685 144.138 96.8106C144.677 97.3924 145.127 98.0504 145.475 98.7633C145.727 99.5148 145.351 100.562 144.557 100.611C148.715 102.706 147.988 98.9296 148.099 97.1247C146.67 97.0816 145.561 96.4471 145.265 95.0426C145.206 94.5709 145.254 94.0919 145.407 93.6416C145.559 93.1913 145.812 92.7815 146.146 92.4431C146.306 92.2458 146.535 92.1164 146.786 92.081C147.037 92.0456 147.293 92.1067 147.501 92.2522C147.421 93.9708 148.376 95.8126 149.189 97.328L150.101 95.8804C149.004 94.3404 147.458 91.5684 149.349 90.7799C150.181 90.4226 150.187 88.088 150.193 86.7882Z" fill="#263238"/>
<path d="M158.879 95.6586C158.771 96.5601 158.72 97.4674 158.725 98.3752C158.595 98.3752 158.46 98.4245 158.33 98.4368C156.556 98.6832 155.645 98.0795 155.17 97.3342C154.942 96.9571 154.791 96.5382 154.727 96.1022C154.683 95.8501 154.666 95.594 154.678 95.3383C155.706 95.8927 157.382 95.825 158.269 95.7387C158.645 95.7018 158.879 95.6586 158.879 95.6586Z" fill="#2E353A"/>
<path d="M158.269 95.7326L158.238 96.1268C158.23 96.2404 158.183 96.3475 158.104 96.4297C158.025 96.5118 157.92 96.5638 157.807 96.5765C156.47 96.7243 155.466 96.6196 154.881 96.2192C154.827 96.1787 154.782 96.1269 154.75 96.0673C154.718 96.0077 154.7 95.9418 154.696 95.8742C154.68 95.6939 154.68 95.5125 154.696 95.3322C155.706 95.8866 157.382 95.8188 158.269 95.7326Z" fill="white"/>
<path d="M158.312 98.4368C156.538 98.6832 155.626 98.0795 155.152 97.3342C155.835 97.2573 156.526 97.3288 157.179 97.5436C157.643 97.7103 158.041 98.0239 158.312 98.4368Z" fill="#DE5753"/>
<path d="M167.047 224.138L177.42 225.949L178.966 222.856L166.628 220.707L167.047 224.138Z" fill="#EF4444"/>
<path opacity="0.6" d="M167.047 224.138L177.42 225.949L178.966 222.856L166.628 220.707L167.047 224.138Z" fill="white"/>
<path d="M131.947 226.842C132.231 226.472 132.477 226.109 132.594 225.924C132.621 225.887 132.646 225.848 132.668 225.807C132.668 225.807 132.668 225.807 132.668 225.77C132.683 225.73 132.683 225.687 132.668 225.647C132.655 225.629 132.637 225.614 132.616 225.604C132.596 225.595 132.573 225.59 132.551 225.591C132.531 225.586 132.509 225.586 132.489 225.591C132.385 225.591 132.261 225.647 132.132 225.69C131.325 225.924 130.284 226.306 129.988 226.879L129.933 226.941C129.881 227.079 129.865 227.229 129.886 227.375C129.908 227.522 129.966 227.66 130.056 227.778C130.105 227.856 130.174 227.92 130.254 227.964C130.335 228.009 130.426 228.031 130.518 228.031C130.925 228.019 131.498 227.421 131.947 226.842ZM130.481 227.741C130.44 227.737 130.401 227.724 130.367 227.701C130.332 227.679 130.304 227.648 130.284 227.612C130.224 227.534 130.184 227.443 130.169 227.346C130.154 227.249 130.164 227.15 130.198 227.058C130.358 226.682 131.079 226.257 132.2 225.992C131.695 226.78 130.931 227.747 130.481 227.741Z" fill="#EF4444"/>
<path d="M133.105 228.296C133.382 227.643 132.994 226.534 132.779 225.992C132.736 225.893 132.711 225.826 132.686 225.776C132.686 225.727 132.649 225.696 132.643 225.696C132.639 225.672 132.627 225.649 132.609 225.632C132.592 225.614 132.569 225.602 132.545 225.598C132.525 225.592 132.503 225.592 132.483 225.598L132.422 225.647C132.422 225.702 132.366 225.758 132.341 225.819V225.881C132.192 226.19 132.079 226.514 132.003 226.848C131.8 227.424 131.811 228.054 132.033 228.622C132.11 228.717 132.214 228.784 132.332 228.814C132.45 228.844 132.574 228.835 132.686 228.789C132.786 228.74 132.875 228.671 132.947 228.586C133.019 228.501 133.073 228.402 133.105 228.296ZM132.545 228.474C132.36 228.542 132.286 228.474 132.243 228.425C131.966 228.062 132.175 226.799 132.508 226.09C132.742 226.663 133.074 227.655 132.853 228.185C132.848 228.199 132.848 228.214 132.853 228.228C132.822 228.289 132.779 228.342 132.726 228.385C132.672 228.427 132.611 228.458 132.545 228.474Z" fill="#EF4444"/>
<path d="M131.319 225.918L141.772 224.692L142.376 221.286L129.933 222.746L131.319 225.918Z" fill="#EF4444"/>
<path opacity="0.6" d="M131.319 225.918L141.772 224.692L142.376 221.286L129.933 222.746L131.319 225.918Z" fill="white"/>
<path d="M179.482 103.811C182.229 101.064 182.229 96.6095 179.482 93.8623C176.735 91.1151 172.281 91.1151 169.533 93.8623C166.786 96.6095 166.786 101.064 169.533 103.811C172.281 106.558 176.735 106.558 179.482 103.811Z" fill="#EF4444"/>
<path opacity="0.6" d="M179.482 103.811C182.229 101.064 182.229 96.6095 179.482 93.8623C176.735 91.1151 172.281 91.1151 169.533 93.8623C166.786 96.6095 166.786 101.064 169.533 103.811C172.281 106.558 176.735 106.558 179.482 103.811Z" fill="white"/>
<path d="M174.507 106.513C172.993 106.513 171.514 106.064 170.256 105.223C168.998 104.383 168.017 103.188 167.438 101.79C166.859 100.392 166.708 98.8534 167.003 97.3693C167.298 95.8852 168.027 94.5219 169.097 93.452C170.167 92.382 171.53 91.6533 173.014 91.3581C174.498 91.0629 176.036 91.2144 177.434 91.7935C178.832 92.3726 180.027 93.3532 180.868 94.6113C181.709 95.8695 182.157 97.3487 182.157 98.8618C182.156 100.89 181.349 102.835 179.915 104.27C178.48 105.704 176.535 106.511 174.507 106.513ZM174.507 92.4431C173.237 92.4431 171.996 92.8196 170.941 93.5249C169.885 94.2302 169.062 95.2326 168.577 96.4055C168.091 97.5784 167.964 98.869 168.211 100.114C168.459 101.359 169.07 102.503 169.968 103.401C170.866 104.298 172.009 104.91 173.254 105.157C174.5 105.405 175.79 105.278 176.963 104.792C178.136 104.306 179.138 103.483 179.844 102.428C180.549 101.372 180.925 100.131 180.925 98.8618C180.924 97.16 180.247 95.5283 179.044 94.3249C177.84 93.1215 176.208 92.4448 174.507 92.4431Z" fill="#263238"/>
<path d="M182.336 100.051C182.336 100.715 182.139 101.364 181.77 101.916C181.401 102.468 180.877 102.898 180.264 103.152C179.65 103.406 178.975 103.473 178.324 103.343C177.673 103.214 177.074 102.894 176.605 102.425C176.135 101.955 175.816 101.357 175.686 100.706C175.557 100.054 175.623 99.3794 175.877 98.766C176.131 98.1525 176.562 97.6282 177.114 97.2593C177.666 96.8904 178.315 96.6935 178.979 96.6935C179.869 96.6935 180.723 97.0472 181.353 97.6768C181.982 98.3064 182.336 99.1603 182.336 100.051Z" fill="#263238"/>
<path d="M178.985 111.558C178.369 111.558 177.763 111.408 177.219 111.119C176.676 110.83 176.212 110.411 175.868 109.901L176.878 109.198C177.108 109.544 177.421 109.827 177.788 110.021C178.154 110.216 178.564 110.316 178.979 110.313C179.394 110.318 179.804 110.218 180.17 110.022C180.536 109.826 180.847 109.54 181.073 109.192C181.118 109.125 181.176 109.067 181.243 109.021C181.311 108.976 181.386 108.945 181.466 108.929C181.545 108.913 181.627 108.912 181.707 108.928C181.786 108.944 181.862 108.975 181.929 109.02C181.997 109.065 182.055 109.122 182.1 109.19C182.145 109.257 182.177 109.333 182.193 109.412C182.209 109.492 182.209 109.573 182.194 109.653C182.178 109.733 182.147 109.808 182.102 109.876C181.758 110.389 181.294 110.81 180.749 111.101C180.204 111.392 179.596 111.545 178.979 111.545L178.985 111.558Z" fill="#263238"/>
<path d="M175.843 100.796L182.127 100.852L181.511 113.172L181.387 113.245C180.684 113.721 179.855 113.975 179.007 113.975C178.158 113.975 177.329 113.721 176.626 113.245L176.509 113.172L175.843 100.796Z" fill="#EF4444"/>
<path opacity="0.5" d="M175.843 100.796L182.127 100.852L181.511 113.172L181.387 113.245C180.684 113.721 179.855 113.975 179.007 113.975C178.158 113.975 177.329 113.721 176.626 113.245L176.509 113.172L175.843 100.796Z" fill="black"/>
<path d="M182.348 100.082H175.64V101.135H182.348V100.082Z" fill="#EF4444"/>
<path d="M182.348 100.082H175.64V101.135H182.348V100.082Z" fill="#EF4444"/>
<path d="M182.348 100.082H175.64V101.135H182.348V100.082Z" fill="#EF4444"/>
<g opacity="0.8">
<path opacity="0.2" d="M182.348 100.082H175.64V101.135H182.348V100.082Z" fill="white"/>
</g>
<path d="M180.038 105.114C179.875 105.325 179.653 105.482 179.4 105.565C179.147 105.648 178.875 105.654 178.619 105.582C178.363 105.51 178.134 105.362 177.962 105.159C177.79 104.956 177.682 104.706 177.653 104.441C177.624 104.177 177.675 103.909 177.798 103.674C177.922 103.438 178.114 103.245 178.348 103.118C178.582 102.992 178.849 102.939 179.114 102.965C179.379 102.991 179.63 103.096 179.835 103.266C180.102 103.488 180.273 103.804 180.311 104.149C180.348 104.494 180.251 104.84 180.038 105.114Z" fill="#EF4444"/>
<path opacity="0.6" d="M180.235 103.765C180.344 104.035 180.362 104.333 180.288 104.615C180.214 104.896 180.051 105.146 179.824 105.328C179.596 105.509 179.317 105.613 179.026 105.623C178.735 105.634 178.448 105.55 178.209 105.385C178.081 105.307 177.973 105.199 177.895 105.071C177.727 104.832 177.641 104.544 177.65 104.252C177.659 103.96 177.763 103.678 177.945 103.449C178.127 103.221 178.379 103.057 178.662 102.983C178.944 102.909 179.244 102.928 179.515 103.038C179.68 103.101 179.83 103.198 179.954 103.323C180.079 103.449 180.174 103.599 180.235 103.765Z" fill="white"/>
<path d="M179.57 103.648C179.571 103.706 179.555 103.762 179.524 103.811C179.493 103.859 179.449 103.897 179.396 103.92C179.343 103.943 179.285 103.949 179.228 103.939C179.171 103.929 179.119 103.901 179.078 103.861C179.037 103.821 179.009 103.769 178.997 103.713C178.986 103.657 178.991 103.598 179.013 103.545C179.034 103.492 179.071 103.446 179.119 103.414C179.167 103.382 179.223 103.365 179.281 103.365C179.356 103.365 179.429 103.394 179.483 103.447C179.537 103.5 179.569 103.572 179.57 103.648Z" fill="#EF4444"/>
<path d="M178.831 119.72H178.024C177.41 119.722 176.803 119.587 176.248 119.325C175.693 119.062 175.203 118.68 174.815 118.204C174.208 117.461 173.876 116.533 173.872 115.574V105.872H175.104V115.574C175.107 116.248 175.342 116.901 175.769 117.422C176.042 117.756 176.386 118.026 176.776 118.21C177.166 118.394 177.593 118.489 178.024 118.488H178.812L178.831 119.72Z" fill="#263238"/>
<path d="M172.868 246.086C172.786 246.086 172.704 246.07 172.628 246.038C172.551 246.007 172.482 245.96 172.425 245.901C172.31 245.786 172.245 245.629 172.245 245.467C172.245 245.304 172.31 245.148 172.425 245.032L178.35 239.304V113.96C178.35 113.797 178.415 113.64 178.531 113.524C178.646 113.409 178.803 113.344 178.966 113.344C179.13 113.344 179.287 113.409 179.402 113.524C179.518 113.64 179.582 113.797 179.582 113.96V239.562C179.583 239.645 179.567 239.727 179.535 239.803C179.503 239.879 179.457 239.948 179.398 240.006L173.281 245.913C173.17 246.021 173.022 246.082 172.868 246.086Z" fill="#263238"/>
<path d="M184.461 246.086C184.376 246.086 184.291 246.069 184.213 246.035C184.134 246.001 184.063 245.951 184.005 245.889L179.601 241.133V245.008C179.601 245.171 179.536 245.328 179.421 245.443C179.305 245.559 179.148 245.624 178.985 245.624C178.822 245.624 178.665 245.559 178.549 245.443C178.434 245.328 178.369 245.171 178.369 245.008V239.562C178.369 239.439 178.407 239.319 178.477 239.217C178.546 239.115 178.645 239.036 178.76 238.991C178.874 238.946 179 238.936 179.121 238.964C179.241 238.991 179.35 239.053 179.435 239.144L184.911 245.051C184.967 245.11 185.01 245.18 185.039 245.256C185.067 245.332 185.081 245.413 185.078 245.495C185.075 245.576 185.056 245.656 185.022 245.73C184.988 245.804 184.94 245.87 184.88 245.926C184.766 246.03 184.616 246.087 184.461 246.086Z" fill="#263238"/>
</g>
<defs>
<clipPath id="clip0_250_2441">
<rect width="308" height="308" fill="white"/>
</clipPath>
</defs>
</svg>
